<?xml version="1.0" encoding="UTF-8" standalone="no"?>
<!DOCTYPE svg PUBLIC "-//W3C//DTD SVG 1.1//EN"
 "http://www.w3.org/Graphics/SVG/1.1/DTD/svg11.dtd">
<!-- Generated by graphviz version 2.43.0 (0)
 -->
<!-- Title: RpgGame.Generation.Procedures.AddEnemiesProcedure.ApplyAsync Pages: 1 -->
<svg width="811pt" height="121pt"
 viewBox="0.00 0.00 811.00 121.00" xmlns="http://www.w3.org/2000/svg" xmlns:xlink="http://www.w3.org/1999/xlink">
<g id="graph0" class="graph" transform="scale(1 1) rotate(0) translate(4 117)">
<title>RpgGame.Generation.Procedures.AddEnemiesProcedure.ApplyAsync</title>
<!-- Node1 -->
<g id="Node000001" class="node">
<title>Node1</title>
<g id="a_Node000001"><a xlink:title="Asynchronously applies this generation step to the level.">
<polygon fill="#999999" stroke="#666666" points="186,-80.5 0,-80.5 0,-50.5 186,-50.5 186,-80.5"/>
<text text-anchor="start" x="8" y="-68.5" font-family="Helvetica,sans-Serif" font-size="10.00">RpgGame.Generation.Procedures.</text>
<text text-anchor="middle" x="93" y="-57.5" font-family="Helvetica,sans-Serif" font-size="10.00">AddEnemiesProcedure.ApplyAsync</text>
</a>
</g>
</g>
<!-- Node2 -->
<g id="Node000002" class="node">
<title>Node2</title>
<g id="a_Node000002"><a xlink:href="classRpgGame_1_1Generation_1_1MapSpawnHelper.html#a709966f4f9718bc81310b4e4f3d6f5dd" target="_top" xlink:title="Spawns golems at random walkable, unoccupied positions, avoiding the default player spawn.">
<polygon fill="white" stroke="#666666" points="400,-80.5 222,-80.5 222,-50.5 400,-50.5 400,-80.5"/>
<text text-anchor="start" x="230" y="-68.5" font-family="Helvetica,sans-Serif" font-size="10.00">RpgGame.Generation.MapSpawn</text>
<text text-anchor="middle" x="311" y="-57.5" font-family="Helvetica,sans-Serif" font-size="10.00">Helper.SpawnGolemAsync</text>
</a>
</g>
</g>
<!-- Node1&#45;&gt;Node2 -->
<g id="edge1_Node000001_Node000002" class="edge">
<title>Node1&#45;&gt;Node2</title>
<g id="a_edge1_Node000001_Node000002"><a xlink:title=" ">
<path fill="none" stroke="#63b8ff" d="M186.23,-65.5C194.63,-65.5 203.15,-65.5 211.6,-65.5"/>
<polygon fill="#63b8ff" stroke="#63b8ff" points="211.85,-69 221.85,-65.5 211.85,-62 211.85,-69"/>
</a>
</g>
</g>
<!-- Node3 -->
<g id="Node000003" class="node">
<title>Node3</title>
<g id="a_Node000003"><a xlink:href="classRpgGame_1_1Core_1_1Level.html#a2d9b38d60705bf37c00badde28990a22" target="_top" xlink:title="Places a golem on the level and marks its tile occupied for movement checks.">
<polygon fill="white" stroke="#666666" points="609,-113 436,-113 436,-94 609,-94 609,-113"/>
<text text-anchor="middle" x="522.5" y="-101" font-family="Helvetica,sans-Serif" font-size="10.00">RpgGame.Core.Level.AddGolem</text>
</a>
</g>
</g>
<!-- Node2&#45;&gt;Node3 -->
<g id="edge2_Node000002_Node000003" class="edge">
<title>Node2&#45;&gt;Node3</title>
<g id="a_edge2_Node000002_Node000003"><a xlink:title=" ">
<path fill="none" stroke="#63b8ff" d="M394.8,-80.52C416.23,-84.41 438.94,-88.52 459.12,-92.19"/>
<polygon fill="#63b8ff" stroke="#63b8ff" points="458.66,-95.66 469.12,-94 459.91,-88.77 458.66,-95.66"/>
</a>
</g>
</g>
<!-- Node4 -->
<g id="Node000004" class="node">
<title>Node4</title>
<g id="a_Node000004"><a xlink:href="classRpgGame_1_1Core_1_1Level.html#ad48a7c23cc285da72a157194198e553a" target="_top" xlink:title="Retrieves the tile at the specified coordinates.">
<polygon fill="white" stroke="#666666" points="803,-94 645,-94 645,-75 803,-75 803,-94"/>
<text text-anchor="middle" x="724" y="-82" font-family="Helvetica,sans-Serif" font-size="10.00">RpgGame.Core.Level.GetTile</text>
</a>
</g>
</g>
<!-- Node2&#45;&gt;Node4 -->
<g id="edge4_Node000002_Node000004" class="edge">
<title>Node2&#45;&gt;Node4</title>
<g id="a_edge4_Node000002_Node000004"><a xlink:title=" ">
<path fill="none" stroke="#63b8ff" d="M400.17,-69.58C469.41,-72.78 565.38,-77.21 634.67,-80.42"/>
<polygon fill="#63b8ff" stroke="#63b8ff" points="634.54,-83.91 644.69,-80.88 634.86,-76.92 634.54,-83.91"/>
</a>
</g>
</g>
<!-- Node5 -->
<g id="Node000005" class="node">
<title>Node5</title>
<g id="a_Node000005"><a xlink:href="namespaceRpgGame_1_1Character.html#ab2e6f640f8bfc682c50e3c19e0d417f1" target="_top" xlink:title="A record for tracking the position of Characters, Items, and Tiles if needed.">
<polygon fill="white" stroke="#666666" points="600.5,-19 444.5,-19 444.5,0 600.5,0 600.5,-19"/>
<text text-anchor="middle" x="522.5" y="-7" font-family="Helvetica,sans-Serif" font-size="10.00">RpgGame.Character.Position</text>
</a>
</g>
</g>
<!-- Node2&#45;&gt;Node5 -->
<g id="edge5_Node000002_Node000005" class="edge">
<title>Node2&#45;&gt;Node5</title>
<g id="a_edge5_Node000002_Node000005"><a xlink:title=" ">
<path fill="none" stroke="#63b8ff" d="M368.14,-50.49C401.94,-41.46 444.4,-30.11 476.08,-21.64"/>
<polygon fill="#63b8ff" stroke="#63b8ff" points="477.2,-24.96 485.96,-19 475.39,-18.2 477.2,-24.96"/>
</a>
</g>
</g>
<!-- Node3&#45;&gt;Node4 -->
<g id="edge3_Node000003_Node000004" class="edge">
<title>Node3&#45;&gt;Node4</title>
<g id="a_edge3_Node000003_Node000004"><a xlink:title=" ">
<path fill="none" stroke="#63b8ff" d="M609.26,-95.33C617.67,-94.53 626.22,-93.72 634.65,-92.91"/>
<polygon fill="#63b8ff" stroke="#63b8ff" points="635.24,-96.37 644.87,-91.94 634.58,-89.41 635.24,-96.37"/>
</a>
</g>
</g>
<!-- Node5&#45;&gt;Node5 -->
<g id="edge6_Node000005_Node000005" class="edge">
<title>Node5&#45;&gt;Node5</title>
<g id="a_edge6_Node000005_Node000005"><a xlink:title=" ">
<path fill="none" stroke="#63b8ff" d="M491.67,-19.08C476.68,-27.73 486.95,-37 522.5,-37 547.49,-37 559.99,-32.42 560,-26.69"/>
<polygon fill="#63b8ff" stroke="#63b8ff" points="562.55,-24.29 553.33,-19.08 557.29,-28.91 562.55,-24.29"/>
</a>
</g>
</g>
</g>
</svg>
