<?xml version="1.0" encoding="UTF-8" standalone="no"?>
<!DOCTYPE svg PUBLIC "-//W3C//DTD SVG 1.1//EN"
 "http://www.w3.org/Graphics/SVG/1.1/DTD/svg11.dtd">
<!-- Generated by graphviz version 13.1.2 (20250808.2320)
 -->
<!-- Title: RpgGame.Core.Directions Pages: 1 -->
<svg width="157pt" height="110pt"
 viewBox="0.00 0.00 157.00 110.00" xmlns="http://www.w3.org/2000/svg" xmlns:xlink="http://www.w3.org/1999/xlink">
<g id="graph0" class="graph" transform="scale(1 1) rotate(0) translate(4 105.5)">
<title>RpgGame.Core.Directions</title>
<!-- Node1 -->
<g id="Node000001" class="node">
<title>Node1</title>
<g id="a_Node000001"><a xlink:title="Provides predefined directional offset vectors for common cardinal directions.">
<polygon fill="#999999" stroke="none" points="148.5,-101.5 0,-101.5 0,0 148.5,0 148.5,-101.5"/>
<text xml:space="preserve" text-anchor="start" x="16.12" y="-88" font-family="Helvetica,sans-Serif" font-size="10.00">RpgGame.Core.Directions</text>
<text xml:space="preserve" text-anchor="start" x="4" y="-73.5" font-family="Helvetica,sans-Serif" font-size="10.00">+</text>
<text xml:space="preserve" text-anchor="start" x="14" y="-73.5" font-family="Helvetica,sans-Serif" font-size="10.00">static readonly Position Up</text>
<text xml:space="preserve" text-anchor="start" x="4" y="-59" font-family="Helvetica,sans-Serif" font-size="10.00">+</text>
<text xml:space="preserve" text-anchor="start" x="14" y="-59" font-family="Helvetica,sans-Serif" font-size="10.00">static readonly Position Down</text>
<text xml:space="preserve" text-anchor="start" x="4" y="-44.5" font-family="Helvetica,sans-Serif" font-size="10.00">+</text>
<text xml:space="preserve" text-anchor="start" x="14" y="-44.5" font-family="Helvetica,sans-Serif" font-size="10.00">static readonly Position Left</text>
<text xml:space="preserve" text-anchor="start" x="4" y="-30" font-family="Helvetica,sans-Serif" font-size="10.00">+</text>
<text xml:space="preserve" text-anchor="start" x="14" y="-30" font-family="Helvetica,sans-Serif" font-size="10.00">static readonly Position</text>
<text xml:space="preserve" text-anchor="start" x="14" y="-19.5" font-family="Helvetica,sans-Serif" font-size="10.00"> Right</text>
<text xml:space="preserve" text-anchor="start" x="72.75" y="-5" font-family="Helvetica,sans-Serif" font-size="10.00"> </text>
<polygon fill="#666666" stroke="#666666" points="0,-85 0,-85 148.5,-85 148.5,-85 0,-85"/>
<polygon fill="#666666" stroke="#666666" points="0,-16.5 0,-16.5 12,-16.5 12,-16.5 0,-16.5"/>
<polygon fill="#666666" stroke="#666666" points="12,-16.5 12,-16.5 148.5,-16.5 148.5,-16.5 12,-16.5"/>
<polygon fill="none" stroke="#666666" points="0,0 0,-101.5 148.5,-101.5 148.5,0 0,0"/>
</a>
</g>
</g>
</g>
</svg>
