<?xml version="1.0" encoding="UTF-8" standalone="no"?>
<!DOCTYPE svg PUBLIC "-//W3C//DTD SVG 1.1//EN"
 "http://www.w3.org/Graphics/SVG/1.1/DTD/svg11.dtd">
<!-- Generated by graphviz version 2.43.0 (0)
 -->
<!-- Title: RpgGame.Input.TakeToInventoryCommand Pages: 1 -->
<svg width="176pt" height="197pt"
 viewBox="0.00 0.00 176.00 197.00" xmlns="http://www.w3.org/2000/svg" xmlns:xlink="http://www.w3.org/1999/xlink">
<g id="graph0" class="graph" transform="scale(1 1) rotate(0) translate(4 193)">
<title>RpgGame.Input.TakeToInventoryCommand</title>
<!-- Node1 -->
<g id="Node000001" class="node">
<title>Node1</title>
<g id="a_Node000001"><a xlink:title="Picks up the item resting on the player&#39;s current tile and places it into the inventory if possible.">
<polygon fill="#999999" stroke="transparent" points="168,-82 0,-82 0,0 168,0 168,-82"/>
<text text-anchor="start" x="5" y="-70" font-family="Helvetica,sans-Serif" font-size="10.00">RpgGame.Input.TakeToInventory</text>
<text text-anchor="start" x="58.5" y="-59" font-family="Helvetica,sans-Serif" font-size="10.00">Command</text>
<text text-anchor="start" x="82" y="-44" font-family="Helvetica,sans-Serif" font-size="10.00"> </text>
<text text-anchor="start" x="10.5" y="-29" font-family="Helvetica,sans-Serif" font-size="10.00">+</text>
<text text-anchor="start" x="30" y="-29" font-family="Helvetica,sans-Serif" font-size="10.00">int Execute(Level level,</text>
<text text-anchor="start" x="30" y="-18" font-family="Helvetica,sans-Serif" font-size="10.00"> Player player, Inventory</text>
<text text-anchor="start" x="30" y="-7" font-family="Helvetica,sans-Serif" font-size="10.00"> inventory)</text>
<polygon fill="#666666" stroke="#666666" points="0,-54 0,-54 168,-54 168,-54 0,-54"/>
<polygon fill="#666666" stroke="#666666" points="0,-39 0,-39 168,-39 168,-39 0,-39"/>
<polygon fill="none" stroke="#666666" points="0,0 0,-82 168,-82 168,0 0,0"/>
</a>
</g>
</g>
<!-- Node2 -->
<g id="Node000002" class="node">
<title>Node2</title>
<g id="a_Node000002"><a xlink:href="interfaceRpgGame_1_1Input_1_1IInputCommand.html" target="_top" xlink:title="Represents a user input command that manipulates the game state (level, player, inventory) and return...">
<polygon fill="white" stroke="transparent" points="155,-189 13,-189 13,-118 155,-118 155,-189"/>
<text text-anchor="start" x="44.5" y="-176.5" font-family="Helvetica,sans-Serif" font-size="10.00">IInputCommand</text>
<text text-anchor="start" x="82" y="-161.5" font-family="Helvetica,sans-Serif" font-size="10.00"> </text>
<text text-anchor="start" x="17" y="-146.5" font-family="Helvetica,sans-Serif" font-size="10.00">+</text>
<text text-anchor="start" x="30" y="-146.5" font-family="Helvetica,sans-Serif" font-size="10.00">int Execute(Level level,</text>
<text text-anchor="start" x="30" y="-135.5" font-family="Helvetica,sans-Serif" font-size="10.00"> Player player, Inventory</text>
<text text-anchor="start" x="30" y="-124.5" font-family="Helvetica,sans-Serif" font-size="10.00"> inventory)</text>
<polygon fill="#666666" stroke="#666666" points="13,-171.5 13,-171.5 155,-171.5 155,-171.5 13,-171.5"/>
<polygon fill="#666666" stroke="#666666" points="13,-156.5 13,-156.5 155,-156.5 155,-156.5 13,-156.5"/>
<polygon fill="none" stroke="#666666" points="13,-118 13,-189 155,-189 155,-118 13,-118"/>
</a>
</g>
</g>
<!-- Node2&#45;&gt;Node1 -->
<g id="edge1_Node000001_Node000002" class="edge">
<title>Node2&#45;&gt;Node1</title>
<g id="a_edge1_Node000001_Node000002"><a xlink:title=" ">
<path fill="none" stroke="#63b8ff" d="M84,-107.79C84,-99.37 84,-90.61 84,-82.33"/>
<polygon fill="none" stroke="#63b8ff" points="80.5,-107.84 84,-117.84 87.5,-107.84 80.5,-107.84"/>
</a>
</g>
</g>
</g>
</svg>
