<?xml version="1.0" encoding="UTF-8" standalone="no"?>
<!DOCTYPE svg PUBLIC "-//W3C//DTD SVG 1.1//EN"
 "http://www.w3.org/Graphics/SVG/1.1/DTD/svg11.dtd">
<!-- Generated by graphviz version 13.1.2 (20250808.2320)
 -->
<!-- Title: RpgGame.Input.MoveLeftCommand.Execute Pages: 1 -->
<svg width="932pt" height="101pt"
 viewBox="0.00 0.00 932.00 101.00" xmlns="http://www.w3.org/2000/svg" xmlns:xlink="http://www.w3.org/1999/xlink">
<g id="graph0" class="graph" transform="scale(1 1) rotate(0) translate(4 96.5)">
<title>RpgGame.Input.MoveLeftCommand.Execute</title>
<!-- Node1 -->
<g id="Node000001" class="node">
<title>Node1</title>
<g id="a_Node000001"><a xlink:title="Executes the command using provided game objects.Typically 1 to indicate the game should continue,...">
<polygon fill="#999999" stroke="#666666" points="175.75,-75.75 0,-75.75 0,-46.75 175.75,-46.75 175.75,-75.75"/>
<text xml:space="preserve" text-anchor="start" x="8" y="-62.25" font-family="Helvetica,sans-Serif" font-size="10.00">RpgGame.Input.MoveLeftCommand.</text>
<text xml:space="preserve" text-anchor="middle" x="87.88" y="-51.75" font-family="Helvetica,sans-Serif" font-size="10.00">Execute</text>
</a>
</g>
</g>
<!-- Node2 -->
<g id="Node000002" class="node">
<title>Node2</title>
<g id="a_Node000002"><a xlink:href="classRpgGame_1_1Core_1_1Level.html#ad48a7c23cc285da72a157194198e553a" target="_top" xlink:title="Retrieves the tile at the specified coordinates.">
<polygon fill="white" stroke="#666666" points="733.75,-92.5 588.75,-92.5 588.75,-74 733.75,-74 733.75,-92.5"/>
<text xml:space="preserve" text-anchor="middle" x="661.25" y="-79" font-family="Helvetica,sans-Serif" font-size="10.00">RpgGame.Core.Level.GetTile</text>
</a>
</g>
</g>
<!-- Node1&#45;&gt;Node2 -->
<g id="edge1_Node000001_Node000002" class="edge">
<title>Node1&#45;&gt;Node2</title>
<g id="a_edge1_Node000001_Node000002"><a xlink:title=" ">
<path fill="none" stroke="#63b8ff" d="M175.97,-64.6C284.93,-68.8 470.18,-75.93 577.21,-80.05"/>
<polygon fill="#63b8ff" stroke="#63b8ff" points="576.95,-83.55 587.08,-80.43 577.22,-76.55 576.95,-83.55"/>
</a>
</g>
</g>
<!-- Node3 -->
<g id="Node000003" class="node">
<title>Node3</title>
<g id="a_Node000003"><a xlink:href="classRpgGame_1_1Core_1_1Level.html#a069520f8d4f28477ce45023ad97fbd95" target="_top" xlink:title="Attempts to move a character to a new position if the move is valid.">
<polygon fill="white" stroke="#666666" points="362.75,-54.75 211.75,-54.75 211.75,-25.75 362.75,-25.75 362.75,-54.75"/>
<text xml:space="preserve" text-anchor="start" x="219.75" y="-41.25" font-family="Helvetica,sans-Serif" font-size="10.00">RpgGame.Core.Level.TryMove</text>
<text xml:space="preserve" text-anchor="middle" x="287.25" y="-30.75" font-family="Helvetica,sans-Serif" font-size="10.00">Character</text>
</a>
</g>
</g>
<!-- Node1&#45;&gt;Node3 -->
<g id="edge2_Node000001_Node000003" class="edge">
<title>Node1&#45;&gt;Node3</title>
<g id="a_edge2_Node000001_Node000003"><a xlink:title=" ">
<path fill="none" stroke="#63b8ff" d="M176.02,-51.98C184.02,-51.13 192.13,-50.26 200.12,-49.41"/>
<polygon fill="#63b8ff" stroke="#63b8ff" points="200.24,-52.92 209.82,-48.38 199.5,-45.96 200.24,-52.92"/>
</a>
</g>
</g>
<!-- Node4 -->
<g id="Node000004" class="node">
<title>Node4</title>
<g id="a_Node000004"><a xlink:href="classRpgGame_1_1Core_1_1Level.html#af9e6a4b820c77f9390aed74bdc0f1c8a" target="_top" xlink:title="Determines whether a character can move to the specified position.">
<polygon fill="white" stroke="#666666" points="543.75,-54.75 398.75,-54.75 398.75,-25.75 543.75,-25.75 543.75,-54.75"/>
<text xml:space="preserve" text-anchor="start" x="406.75" y="-41.25" font-family="Helvetica,sans-Serif" font-size="10.00">RpgGame.Core.Level.IsMove</text>
<text xml:space="preserve" text-anchor="middle" x="471.25" y="-30.75" font-family="Helvetica,sans-Serif" font-size="10.00">Valid</text>
</a>
</g>
</g>
<!-- Node3&#45;&gt;Node4 -->
<g id="edge3_Node000003_Node000004" class="edge">
<title>Node3&#45;&gt;Node4</title>
<g id="a_edge3_Node000003_Node000004"><a xlink:title=" ">
<path fill="none" stroke="#63b8ff" d="M363.06,-40.25C370.99,-40.25 379.09,-40.25 387.11,-40.25"/>
<polygon fill="#63b8ff" stroke="#63b8ff" points="386.85,-43.75 396.85,-40.25 386.85,-36.75 386.85,-43.75"/>
</a>
</g>
</g>
<!-- Node6 -->
<g id="Node000006" class="node">
<title>Node6</title>
<g id="a_Node000006"><a xlink:href="namespaceRpgGame_1_1Character.html#ab2e6f640f8bfc682c50e3c19e0d417f1" target="_top" xlink:title="A record for tracking the position of Characters, Items, and Tiles if needed.">
<polygon fill="white" stroke="#666666" points="923.75,-18.5 778.75,-18.5 778.75,0 923.75,0 923.75,-18.5"/>
<text xml:space="preserve" text-anchor="middle" x="851.25" y="-5" font-family="Helvetica,sans-Serif" font-size="10.00">RpgGame.Character.Position</text>
</a>
</g>
</g>
<!-- Node3&#45;&gt;Node6 -->
<g id="edge9_Node000003_Node000006" class="edge">
<title>Node3&#45;&gt;Node6</title>
<g id="a_edge9_Node000003_Node000006"><a xlink:title=" ">
<path fill="none" stroke="#63b8ff" d="M350.46,-25.29C366.13,-22.07 382.99,-19.09 398.75,-17.25 526.63,-2.3 676.24,-3.24 767.08,-5.83"/>
<polygon fill="#63b8ff" stroke="#63b8ff" points="766.79,-9.32 776.89,-6.13 767,-2.33 766.79,-9.32"/>
</a>
</g>
</g>
<!-- Node4&#45;&gt;Node2 -->
<g id="edge4_Node000004_Node000002" class="edge">
<title>Node4&#45;&gt;Node2</title>
<g id="a_edge4_Node000004_Node000002"><a xlink:title=" ">
<path fill="none" stroke="#63b8ff" d="M537.74,-55.23C560.2,-60.37 585.05,-66.05 606.47,-70.95"/>
<polygon fill="#63b8ff" stroke="#63b8ff" points="605.65,-74.35 616.18,-73.17 607.21,-67.53 605.65,-74.35"/>
</a>
</g>
</g>
<!-- Node5 -->
<g id="Node000005" class="node">
<title>Node5</title>
<g id="a_Node000005"><a xlink:href="classRpgGame_1_1Core_1_1Level.html#a29d79bf5cda2e96ca6e823f9d5772db0" target="_top" xlink:title="Checks whether the specified position lies within the level boundaries.">
<polygon fill="white" stroke="#666666" points="742.75,-55.5 579.75,-55.5 579.75,-37 742.75,-37 742.75,-55.5"/>
<text xml:space="preserve" text-anchor="middle" x="661.25" y="-42" font-family="Helvetica,sans-Serif" font-size="10.00">RpgGame.Core.Level.IsInBounds</text>
</a>
</g>
</g>
<!-- Node4&#45;&gt;Node5 -->
<g id="edge5_Node000004_Node000005" class="edge">
<title>Node4&#45;&gt;Node5</title>
<g id="a_edge5_Node000004_Node000005"><a xlink:title=" ">
<path fill="none" stroke="#63b8ff" d="M544.13,-42.54C551.95,-42.79 559.99,-43.05 568.01,-43.31"/>
<polygon fill="#63b8ff" stroke="#63b8ff" points="567.69,-46.8 577.8,-43.62 567.91,-39.8 567.69,-46.8"/>
</a>
</g>
</g>
<!-- Node4&#45;&gt;Node6 -->
<g id="edge8_Node000004_Node000006" class="edge">
<title>Node4&#45;&gt;Node6</title>
<g id="a_edge8_Node000004_Node000006"><a xlink:title=" ">
<path fill="none" stroke="#63b8ff" d="M544.2,-31.81C556.07,-30.53 568.25,-29.3 579.75,-28.25 642.43,-22.55 713.41,-17.62 766.94,-14.22"/>
<polygon fill="#63b8ff" stroke="#63b8ff" points="767.16,-17.71 776.91,-13.59 766.71,-10.72 767.16,-17.71"/>
</a>
</g>
</g>
<!-- Node5&#45;&gt;Node6 -->
<g id="edge6_Node000005_Node000006" class="edge">
<title>Node5&#45;&gt;Node6</title>
<g id="a_edge6_Node000005_Node000006"><a xlink:title=" ">
<path fill="none" stroke="#63b8ff" d="M711.64,-36.53C735.51,-31.83 764.38,-26.15 789.57,-21.19"/>
<polygon fill="#63b8ff" stroke="#63b8ff" points="790.24,-24.63 799.37,-19.26 788.89,-17.76 790.24,-24.63"/>
</a>
</g>
</g>
<!-- Node6&#45;&gt;Node6 -->
<g id="edge7_Node000006_Node000006" class="edge">
<title>Node6&#45;&gt;Node6</title>
<g id="a_edge7_Node000006_Node000006"><a xlink:title=" ">
<path fill="none" stroke="#63b8ff" d="M821.97,-18.75C807.72,-27.32 817.48,-36.5 851.25,-36.5 871.3,-36.5 882.89,-33.26 886.01,-28.84"/>
<polygon fill="#63b8ff" stroke="#63b8ff" points="889.1,-27.2 881.26,-20.08 882.95,-30.53 889.1,-27.2"/>
</a>
</g>
</g>
</g>
</svg>
