<?xml version="1.0" encoding="UTF-8" standalone="no"?>
<!DOCTYPE svg PUBLIC "-//W3C//DTD SVG 1.1//EN"
 "http://www.w3.org/Graphics/SVG/1.1/DTD/svg11.dtd">
<!-- Generated by graphviz version 13.1.2 (20250808.2320)
 -->
<!-- Title: RpgGame.Input.DropRightCommand Pages: 1 -->
<svg width="177pt" height="181pt"
 viewBox="0.00 0.00 177.00 181.00" xmlns="http://www.w3.org/2000/svg" xmlns:xlink="http://www.w3.org/1999/xlink">

<svg id="main" version="1.1" xmlns="http://www.w3.org/2000/svg" xmlns:xlink="http://www.w3.org/1999/xlink" xml:space="preserve">

<style type="text/css"><![CDATA[
.node, .edge {opacity: 0.7;}
.node.selected, .edge.selected {opacity: 1;}
.edge:hover path { stroke: red; }
.edge:hover polygon { stroke: red; fill: red; }
]]></style>
<script type="application/ecmascript" xlink:href="svg.min.js"/>
<svg id="graph" class="graph">
<g id="graph0" class="graph" transform="scale(1 1) rotate(0) translate(4 177)">
<title>RpgGame.Input.DropRightCommand</title>
<!-- Node1 -->
<g id="Node000001" class="node">
<title>Node1</title>
<g id="a_Node000001"><a xlink:title="Instructs the player to drop the item in their right hand onto the level.">
<polygon fill="#999999" stroke="none" points="169.25,-68.5 0,-68.5 0,0 169.25,0 169.25,-68.5"/>
<text xml:space="preserve" text-anchor="start" x="4" y="-55" font-family="Helvetica,sans-Serif" font-size="10.00">RpgGame.Input.DropRightCommand</text>
<text xml:space="preserve" text-anchor="start" x="83.12" y="-40.5" font-family="Helvetica,sans-Serif" font-size="10.00"> </text>
<text xml:space="preserve" text-anchor="start" x="15.56" y="-26" font-family="Helvetica,sans-Serif" font-size="10.00">+</text>
<text xml:space="preserve" text-anchor="start" x="37.12" y="-26" font-family="Helvetica,sans-Serif" font-size="10.00">int Execute(Level level,</text>
<text xml:space="preserve" text-anchor="start" x="37.12" y="-15.5" font-family="Helvetica,sans-Serif" font-size="10.00"> Player player, Inventory</text>
<text xml:space="preserve" text-anchor="start" x="37.12" y="-5" font-family="Helvetica,sans-Serif" font-size="10.00"> inventory)</text>
<polygon fill="#666666" stroke="#666666" points="0,-52 0,-52 169.25,-52 169.25,-52 0,-52"/>
<polygon fill="#666666" stroke="#666666" points="0,-37.5 0,-37.5 169.25,-37.5 169.25,-37.5 0,-37.5"/>
<polygon fill="none" stroke="#666666" points="0,0 0,-68.5 169.25,-68.5 169.25,0 0,0"/>
</a>
</g>
</g>
<!-- Node2 -->
<g id="Node000002" class="node">
<title>Node2</title>
<g id="a_Node000002"><a xlink:href="interfaceRpgGame_1_1Input_1_1IInputCommand.html" target="_top" xlink:title="Represents a user input command that manipulates the game state (level, player, inventory) and return...">
<polygon fill="white" stroke="none" points="159.5,-173 9.75,-173 9.75,-104.5 159.5,-104.5 159.5,-173"/>
<text xml:space="preserve" text-anchor="start" x="13.75" y="-159.5" font-family="Helvetica,sans-Serif" font-size="10.00">RpgGame.Input.IInputCommand</text>
<text xml:space="preserve" text-anchor="start" x="83.12" y="-145" font-family="Helvetica,sans-Serif" font-size="10.00"> </text>
<text xml:space="preserve" text-anchor="start" x="20.44" y="-130.5" font-family="Helvetica,sans-Serif" font-size="10.00">+</text>
<text xml:space="preserve" text-anchor="start" x="37.12" y="-130.5" font-family="Helvetica,sans-Serif" font-size="10.00">int Execute(Level level,</text>
<text xml:space="preserve" text-anchor="start" x="37.12" y="-120" font-family="Helvetica,sans-Serif" font-size="10.00"> Player player, Inventory</text>
<text xml:space="preserve" text-anchor="start" x="37.12" y="-109.5" font-family="Helvetica,sans-Serif" font-size="10.00"> inventory)</text>
<polygon fill="#666666" stroke="#666666" points="9.75,-156.5 9.75,-156.5 159.5,-156.5 159.5,-156.5 9.75,-156.5"/>
<polygon fill="#666666" stroke="#666666" points="9.75,-142 9.75,-142 159.5,-142 159.5,-142 9.75,-142"/>
<polygon fill="none" stroke="#666666" points="9.75,-104.5 9.75,-173 159.5,-173 159.5,-104.5 9.75,-104.5"/>
</a>
</g>
</g>
<!-- Node2&#45;&gt;Node1 -->
<g id="edge1_Node000001_Node000002" class="edge">
<title>Node2&#45;&gt;Node1</title>
<g id="a_edge1_Node000001_Node000002"><a xlink:title=" ">
<path fill="none" stroke="#63b8ff" d="M84.62,-93.44C84.62,-84.96 84.62,-76.23 84.62,-68.18"/>
<polygon fill="none" stroke="#63b8ff" points="81.13,-93.24 84.63,-103.24 88.13,-93.24 81.13,-93.24"/>
</a>
</g>
</g>
</g>
</svg>
</svg>

<style type='text/css'>
<![CDATA[
[data-mouse-over-selected='false'] { opacity: 0.7; }
[data-mouse-over-selected='true']  { opacity: 1.0; }
]]>
</style>
<script type="application/ecmascript"><![CDATA[
document.addEventListener('DOMContentLoaded', (event) => {
  highlightEdges();
  highlightAdjacentNodes();
});
]]></script>
</svg>
