<?xml version="1.0" encoding="UTF-8" standalone="no"?>
<!DOCTYPE svg PUBLIC "-//W3C//DTD SVG 1.1//EN"
 "http://www.w3.org/Graphics/SVG/1.1/DTD/svg11.dtd">
<!-- Generated by graphviz version 2.43.0 (0)
 -->
<!-- Title: RpgGame.Generation.Procedures.CentralRoomProcedure Pages: 1 -->
<svg width="184pt" height="223pt"
 viewBox="0.00 0.00 184.00 223.00" xmlns="http://www.w3.org/2000/svg" xmlns:xlink="http://www.w3.org/1999/xlink">
<g id="graph0" class="graph" transform="scale(1 1) rotate(0) translate(4 219)">
<title>RpgGame.Generation.Procedures.CentralRoomProcedure</title>
<!-- Node1 -->
<g id="Node000001" class="node">
<title>Node1</title>
<g id="a_Node000001"><a xlink:title="Generates a central room in the dungeon.">
<polygon fill="#999999" stroke="transparent" points="176,-108 0,-108 0,0 176,0 176,-108"/>
<text text-anchor="start" x="5" y="-96" font-family="Helvetica,sans-Serif" font-size="10.00">RpgGame.Generation.Procedures.</text>
<text text-anchor="start" x="31.5" y="-85" font-family="Helvetica,sans-Serif" font-size="10.00">CentralRoomProcedure</text>
<text text-anchor="start" x="86" y="-70" font-family="Helvetica,sans-Serif" font-size="10.00"> </text>
<text text-anchor="start" x="14" y="-55" font-family="Helvetica,sans-Serif" font-size="10.00">+</text>
<text text-anchor="start" x="37" y="-55" font-family="Helvetica,sans-Serif" font-size="10.00">CentralRoomProcedure</text>
<text text-anchor="start" x="37" y="-44" font-family="Helvetica,sans-Serif" font-size="10.00">(int width, int height)</text>
<text text-anchor="start" x="14" y="-29" font-family="Helvetica,sans-Serif" font-size="10.00">+</text>
<text text-anchor="start" x="37" y="-29" font-family="Helvetica,sans-Serif" font-size="10.00">Task ApplyAsync(Level</text>
<text text-anchor="start" x="37" y="-18" font-family="Helvetica,sans-Serif" font-size="10.00"> level, DungeonContext</text>
<text text-anchor="start" x="37" y="-7" font-family="Helvetica,sans-Serif" font-size="10.00"> context)</text>
<polygon fill="#666666" stroke="#666666" points="0,-80 0,-80 176,-80 176,-80 0,-80"/>
<polygon fill="#666666" stroke="#666666" points="0,-65 0,-65 176,-65 176,-65 0,-65"/>
<polygon fill="none" stroke="#666666" points="0,0 0,-108 176,-108 176,0 0,0"/>
</a>
</g>
</g>
<!-- Node2 -->
<g id="Node000002" class="node">
<title>Node2</title>
<g id="a_Node000002"><a xlink:href="interfaceRpgGame_1_1Generation_1_1IDungeonProcedure.html" target="_top" xlink:title="Defines a procedural step in dungeon generation.">
<polygon fill="white" stroke="transparent" points="156,-215 20,-215 20,-144 156,-144 156,-215"/>
<text text-anchor="start" x="40" y="-202.5" font-family="Helvetica,sans-Serif" font-size="10.00">IDungeonProcedure</text>
<text text-anchor="start" x="86" y="-187.5" font-family="Helvetica,sans-Serif" font-size="10.00"> </text>
<text text-anchor="start" x="24" y="-172.5" font-family="Helvetica,sans-Serif" font-size="10.00">+</text>
<text text-anchor="start" x="37" y="-172.5" font-family="Helvetica,sans-Serif" font-size="10.00">Task ApplyAsync(Level</text>
<text text-anchor="start" x="37" y="-161.5" font-family="Helvetica,sans-Serif" font-size="10.00"> level, DungeonContext</text>
<text text-anchor="start" x="37" y="-150.5" font-family="Helvetica,sans-Serif" font-size="10.00"> context)</text>
<polygon fill="#666666" stroke="#666666" points="20,-197.5 20,-197.5 156,-197.5 156,-197.5 20,-197.5"/>
<polygon fill="#666666" stroke="#666666" points="20,-182.5 20,-182.5 156,-182.5 156,-182.5 20,-182.5"/>
<polygon fill="none" stroke="#666666" points="20,-144 20,-215 156,-215 156,-144 20,-144"/>
</a>
</g>
</g>
<!-- Node2&#45;&gt;Node1 -->
<g id="edge1_Node000001_Node000002" class="edge">
<title>Node2&#45;&gt;Node1</title>
<g id="a_edge1_Node000001_Node000002"><a xlink:title=" ">
<path fill="none" stroke="#63b8ff" d="M88,-133.66C88,-125.45 88,-116.82 88,-108.39"/>
<polygon fill="none" stroke="#63b8ff" points="84.5,-133.77 88,-143.77 91.5,-133.77 84.5,-133.77"/>
</a>
</g>
</g>
</g>
</svg>
