<?xml version="1.0" encoding="UTF-8" standalone="no"?>
<!DOCTYPE svg PUBLIC "-//W3C//DTD SVG 1.1//EN"
 "http://www.w3.org/Graphics/SVG/1.1/DTD/svg11.dtd">
<!-- Generated by graphviz version 2.43.0 (0)
 -->
<!-- Title: RpgGame.Character.Golem Pages: 1 -->
<svg width="173pt" height="209pt"
 viewBox="0.00 0.00 173.00 209.00" xmlns="http://www.w3.org/2000/svg" xmlns:xlink="http://www.w3.org/1999/xlink">
<g id="graph0" class="graph" transform="scale(1 1) rotate(0) translate(4 205)">
<title>RpgGame.Character.Golem</title>
<!-- Node1 -->
<g id="Node000001" class="node">
<title>Node1</title>
<g id="a_Node000001"><a xlink:title="Represents a Golem character in the game. Golems are typically non&#45;player characters (NPCs) that may ...">
<polygon fill="#999999" stroke="transparent" points="165,-64 0,-64 0,0 165,0 165,-64"/>
<text text-anchor="start" x="16.5" y="-52" font-family="Helvetica,sans-Serif" font-size="10.00">RpgGame.Character.Golem</text>
<text text-anchor="start" x="4.5" y="-37" font-family="Helvetica,sans-Serif" font-size="10.00">+</text>
<text text-anchor="start" x="17.5" y="-37" font-family="Helvetica,sans-Serif" font-size="10.00">override char Symbol</text>
<text text-anchor="start" x="4.5" y="-22" font-family="Helvetica,sans-Serif" font-size="10.00">+</text>
<text text-anchor="start" x="17.5" y="-22" font-family="Helvetica,sans-Serif" font-size="10.00">IEquippable? EquippedItem</text>
<text text-anchor="start" x="4.5" y="-7" font-family="Helvetica,sans-Serif" font-size="10.00">+</text>
<text text-anchor="start" x="17.5" y="-7" font-family="Helvetica,sans-Serif" font-size="10.00">Golem(Position startPosition)</text>
<polygon fill="#666666" stroke="#666666" points="0.5,-47 0.5,-47 165.5,-47 165.5,-47 0.5,-47"/>
<polygon fill="#666666" stroke="#666666" points="0.5,-17 0.5,-17 15.5,-17 15.5,-17 0.5,-17"/>
<polygon fill="#666666" stroke="#666666" points="15.5,-17 15.5,-17 165.5,-17 165.5,-17 15.5,-17"/>
<polygon fill="none" stroke="#666666" points="0,0 0,-64 165,-64 165,0 0,0"/>
</a>
</g>
</g>
<!-- Node2 -->
<g id="Node000002" class="node">
<title>Node2</title>
<g id="a_Node000002"><a xlink:href="classRpgGame_1_1Character_1_1Character.html" target="_top" xlink:title="Base abstract class for both playable and non&#45;playable characters.">
<polygon fill="white" stroke="transparent" points="140,-201 25,-201 25,-100 140,-100 140,-201"/>
<text text-anchor="start" x="59" y="-188.5" font-family="Helvetica,sans-Serif" font-size="10.00">Character</text>
<text text-anchor="start" x="29.5" y="-173.5" font-family="Helvetica,sans-Serif" font-size="10.00">+</text>
<text text-anchor="start" x="42.5" y="-173.5" font-family="Helvetica,sans-Serif" font-size="10.00">char Symbol</text>
<text text-anchor="start" x="29.5" y="-158.5" font-family="Helvetica,sans-Serif" font-size="10.00">+</text>
<text text-anchor="start" x="42.5" y="-158.5" font-family="Helvetica,sans-Serif" font-size="10.00">Position Pos</text>
<text text-anchor="start" x="29.5" y="-143.5" font-family="Helvetica,sans-Serif" font-size="10.00">+</text>
<text text-anchor="start" x="42.5" y="-143.5" font-family="Helvetica,sans-Serif" font-size="10.00">void Move(Position</text>
<text text-anchor="start" x="42.5" y="-132.5" font-family="Helvetica,sans-Serif" font-size="10.00"> newPos)</text>
<text text-anchor="start" x="29.5" y="-117.5" font-family="Helvetica,sans-Serif" font-size="10.00">#</text>
<text text-anchor="start" x="42.5" y="-117.5" font-family="Helvetica,sans-Serif" font-size="10.00">Character(Position</text>
<text text-anchor="start" x="42.5" y="-106.5" font-family="Helvetica,sans-Serif" font-size="10.00"> startPosition)</text>
<polygon fill="#666666" stroke="#666666" points="25.5,-183.5 25.5,-183.5 140.5,-183.5 140.5,-183.5 25.5,-183.5"/>
<polygon fill="#666666" stroke="#666666" points="25.5,-153.5 25.5,-153.5 40.5,-153.5 40.5,-153.5 25.5,-153.5"/>
<polygon fill="#666666" stroke="#666666" points="40.5,-153.5 40.5,-153.5 140.5,-153.5 140.5,-153.5 40.5,-153.5"/>
<polygon fill="none" stroke="#666666" points="25,-100 25,-201 140,-201 140,-100 25,-100"/>
</a>
</g>
</g>
<!-- Node2&#45;&gt;Node1 -->
<g id="edge1_Node000001_Node000002" class="edge">
<title>Node2&#45;&gt;Node1</title>
<g id="a_edge1_Node000001_Node000002"><a xlink:title=" ">
<path fill="none" stroke="#63b8ff" d="M82.5,-89.74C82.5,-80.85 82.5,-72.01 82.5,-64.05"/>
<polygon fill="none" stroke="#63b8ff" points="79,-89.76 82.5,-99.76 86,-89.76 79,-89.76"/>
</a>
</g>
</g>
</g>
</svg>
