<?xml version="1.0" encoding="us-ascii" standalone="no"?><svg xmlns="http://www.w3.org/2000/svg" xmlns:xlink="http://www.w3.org/1999/xlink" contentStyleType="text/css" height="1262px" preserveAspectRatio="none" style="width:5165px;height:1262px;background:#FFFFFF;" version="1.1" viewBox="0 0 5165 1262" width="5165px" zoomAndPan="magnify"><defs/><g><!--class IItem--><g id="elem_IItem"><rect codeLine="4" fill="#F1F1F1" height="124.2717" id="IItem" rx="2.5" ry="2.5" style="stroke:#181818;stroke-width:0.5;" width="309" x="801" y="480.42"/><ellipse cx="934.25" cy="496.42" fill="#B4A7E5" rx="11" ry="11" style="stroke:#181818;stroke-width:1.0;"/><path d="M936.3438,502.92 L931.4375,502.92 L931.4375,501.545 L932.8594,501.2325 L932.8594,491.9513 L931.4375,491.6075 L931.4375,490.2481 L936.3438,490.2481 L936.3438,491.6075 L934.9219,491.9513 L934.9219,501.2325 L936.3438,501.545 L936.3438,502.92 Z " fill="#000000"/><text fill="#000000" font-family="sans-serif" font-size="14" font-style="italic" lengthAdjust="spacing" textLength="34" x="954.75" y="501.852">IItem</text><line style="stroke:#181818;stroke-width:0.5;" x1="802" x2="1109" y1="512.42" y2="512.42"/><text fill="#000000" font-family="sans-serif" font-size="14" lengthAdjust="spacing" textLength="96" x="807" y="531.3859">+Name: string</text><text fill="#000000" font-family="sans-serif" font-size="14" lengthAdjust="spacing" textLength="95" x="807" y="550.4539">+Symbol: char</text><line style="stroke:#181818;stroke-width:0.5;" x1="802" x2="1109" y1="558.5558" y2="558.5558"/><text fill="#000000" font-family="sans-serif" font-size="14" lengthAdjust="spacing" textLength="156" x="807" y="577.5218">GetDescription(): string</text><text fill="#000000" font-family="sans-serif" font-size="14" lengthAdjust="spacing" textLength="297" x="807" y="596.5897">PickUp(player: Player, pickUpLeft: bool): bool</text></g><!--class IEquippable--><g id="elem_IEquippable"><rect codeLine="11" fill="#F1F1F1" height="86.1358" id="IEquippable" rx="2.5" ry="2.5" style="stroke:#181818;stroke-width:0.5;" width="260" x="417.5" y="712.36"/><ellipse cx="505.75" cy="728.36" fill="#B4A7E5" rx="11" ry="11" style="stroke:#181818;stroke-width:1.0;"/><path d="M507.8438,734.86 L502.9375,734.86 L502.9375,733.485 L504.3594,733.1725 L504.3594,723.8913 L502.9375,723.5475 L502.9375,722.1881 L507.8438,722.1881 L507.8438,723.5475 L506.4219,723.8913 L506.4219,733.1725 L507.8438,733.485 L507.8438,734.86 Z " fill="#000000"/><text fill="#000000" font-family="sans-serif" font-size="14" font-style="italic" lengthAdjust="spacing" textLength="75" x="526.25" y="733.792">IEquippable</text><line style="stroke:#181818;stroke-width:0.5;" x1="418.5" x2="676.5" y1="744.36" y2="744.36"/><line style="stroke:#181818;stroke-width:0.5;" x1="418.5" x2="676.5" y1="752.36" y2="752.36"/><text fill="#000000" font-family="sans-serif" font-size="14" lengthAdjust="spacing" textLength="237" x="423.5" y="771.3259">TryEquipToLeft(player: Player): bool</text><text fill="#000000" font-family="sans-serif" font-size="14" lengthAdjust="spacing" textLength="248" x="423.5" y="790.3939">TryEquipToRight(player: Player): bool</text></g><!--class Weapon--><g id="elem_Weapon"><rect codeLine="16" fill="#F1F1F1" height="124.2717" id="Weapon" rx="2.5" ry="2.5" style="stroke:#181818;stroke-width:0.5;" width="216" x="439.5" y="896.63"/><ellipse cx="517.75" cy="912.63" fill="#A9DCDF" rx="11" ry="11" style="stroke:#181818;stroke-width:1.0;"/><path d="M521.0938,917.88 L519.625,914.13 L515.1875,914.13 L513.75,917.88 L511.625,917.88 L516.5781,905.1613 L518.3281,905.1613 L523.25,917.88 L521.0938,917.88 Z M517.75,908.9269 Q517.7031,908.7706 517.5781,908.4113 Q517.4531,908.0519 517.3438,907.6769 Q517.2344,907.2863 517.4219,907.2238 Q517.5469,907.5988 517.3906,908.1144 Q517.25,908.6144 517.1406,908.9269 L515.9063,912.2394 L518.9844,912.2394 L517.75,908.9269 Z " fill="#000000"/><text fill="#000000" font-family="sans-serif" font-size="14" font-style="italic" lengthAdjust="spacing" textLength="51" x="538.25" y="918.062">Weapon</text><line style="stroke:#181818;stroke-width:0.5;" x1="440.5" x2="654.5" y1="928.63" y2="928.63"/><text fill="#000000" font-family="sans-serif" font-size="14" lengthAdjust="spacing" textLength="204" x="445.5" y="947.5959">#occupation: HandOccupation</text><text fill="#000000" font-family="sans-serif" font-size="14" lengthAdjust="spacing" textLength="96" x="445.5" y="966.6639">+Name: string</text><text fill="#000000" font-family="sans-serif" font-size="14" lengthAdjust="spacing" textLength="95" x="445.5" y="985.7318">+Symbol: char</text><text fill="#000000" font-family="sans-serif" font-size="14" lengthAdjust="spacing" textLength="90" x="445.5" y="1004.7997">+Damage: int</text><line style="stroke:#181818;stroke-width:0.5;" x1="440.5" x2="654.5" y1="1012.9017" y2="1012.9017"/></g><!--class Coin--><g id="elem_Coin"><rect codeLine="23" fill="#F1F1F1" height="48" id="Coin" rx="2.5" ry="2.5" style="stroke:#181818;stroke-width:0.5;" width="62" x="827.5" y="731.43"/><ellipse cx="842.5" cy="747.43" fill="#ADD1B2" rx="11" ry="11" style="stroke:#181818;stroke-width:1.0;"/><path d="M842.6094,742.7113 Q840.7813,742.7113 839.7344,743.9456 Q838.6875,745.1644 838.6875,747.3519 Q838.6875,749.5081 839.6563,750.7425 Q840.6406,751.9769 842.5938,751.9769 Q843.375,751.9769 844.0625,751.8519 Q844.7656,751.7113 845.7656,751.3988 L845.7656,753.2738 Q844.9063,753.6019 844.1406,753.7269 Q843.3906,753.8519 842.375,753.8519 Q840.4531,753.8519 839.1406,753.055 Q837.8438,752.2425 837.1875,750.7738 Q836.5313,749.2894 836.5313,747.3206 Q836.5313,745.43 837.2344,743.9613 Q837.9375,742.4925 839.3125,741.6644 Q840.6875,740.8363 842.6406,740.8363 Q844.6094,740.8363 846.3281,741.6956 L845.5,743.4769 Q844.7188,743.1019 844.0625,742.9144 Q843.4063,742.7113 842.6094,742.7113 Z " fill="#000000"/><text fill="#000000" font-family="sans-serif" font-size="14" lengthAdjust="spacing" textLength="30" x="856.5" y="752.862">Coin</text><line style="stroke:#181818;stroke-width:0.5;" x1="828.5" x2="888.5" y1="763.43" y2="763.43"/><line style="stroke:#181818;stroke-width:0.5;" x1="828.5" x2="888.5" y1="771.43" y2="771.43"/></g><!--class Gold--><g id="elem_Gold"><rect codeLine="24" fill="#F1F1F1" height="48" id="Gold" rx="2.5" ry="2.5" style="stroke:#181818;stroke-width:0.5;" width="63" x="924" y="731.43"/><ellipse cx="939" cy="747.43" fill="#ADD1B2" rx="11" ry="11" style="stroke:#181818;stroke-width:1.0;"/><path d="M939.1094,742.7113 Q937.2813,742.7113 936.2344,743.9456 Q935.1875,745.1644 935.1875,747.3519 Q935.1875,749.5081 936.1563,750.7425 Q937.1406,751.9769 939.0938,751.9769 Q939.875,751.9769 940.5625,751.8519 Q941.2656,751.7113 942.2656,751.3988 L942.2656,753.2738 Q941.4063,753.6019 940.6406,753.7269 Q939.8906,753.8519 938.875,753.8519 Q936.9531,753.8519 935.6406,753.055 Q934.3438,752.2425 933.6875,750.7738 Q933.0313,749.2894 933.0313,747.3206 Q933.0313,745.43 933.7344,743.9613 Q934.4375,742.4925 935.8125,741.6644 Q937.1875,740.8363 939.1406,740.8363 Q941.1094,740.8363 942.8281,741.6956 L942,743.4769 Q941.2188,743.1019 940.5625,742.9144 Q939.9063,742.7113 939.1094,742.7113 Z " fill="#000000"/><text fill="#000000" font-family="sans-serif" font-size="14" lengthAdjust="spacing" textLength="31" x="953" y="752.862">Gold</text><line style="stroke:#181818;stroke-width:0.5;" x1="925" x2="986" y1="763.43" y2="763.43"/><line style="stroke:#181818;stroke-width:0.5;" x1="925" x2="986" y1="771.43" y2="771.43"/></g><!--class Potion--><g id="elem_Potion"><rect codeLine="25" fill="#F1F1F1" height="48" id="Potion" rx="2.5" ry="2.5" style="stroke:#181818;stroke-width:0.5;" width="74" x="1022.5" y="731.43"/><ellipse cx="1037.5" cy="747.43" fill="#ADD1B2" rx="11" ry="11" style="stroke:#181818;stroke-width:1.0;"/><path d="M1037.6094,742.7113 Q1035.7813,742.7113 1034.7344,743.9456 Q1033.6875,745.1644 1033.6875,747.3519 Q1033.6875,749.5081 1034.6563,750.7425 Q1035.6406,751.9769 1037.5938,751.9769 Q1038.375,751.9769 1039.0625,751.8519 Q1039.7656,751.7113 1040.7656,751.3988 L1040.7656,753.2738 Q1039.9063,753.6019 1039.1406,753.7269 Q1038.3906,753.8519 1037.375,753.8519 Q1035.4531,753.8519 1034.1406,753.055 Q1032.8438,752.2425 1032.1875,750.7738 Q1031.5313,749.2894 1031.5313,747.3206 Q1031.5313,745.43 1032.2344,743.9613 Q1032.9375,742.4925 1034.3125,741.6644 Q1035.6875,740.8363 1037.6406,740.8363 Q1039.6094,740.8363 1041.3281,741.6956 L1040.5,743.4769 Q1039.7188,743.1019 1039.0625,742.9144 Q1038.4063,742.7113 1037.6094,742.7113 Z " fill="#000000"/><text fill="#000000" font-family="sans-serif" font-size="14" lengthAdjust="spacing" textLength="42" x="1051.5" y="752.862">Potion</text><line style="stroke:#181818;stroke-width:0.5;" x1="1023.5" x2="1095.5" y1="763.43" y2="763.43"/><line style="stroke:#181818;stroke-width:0.5;" x1="1023.5" x2="1095.5" y1="771.43" y2="771.43"/></g><!--class Thorn--><g id="elem_Thorn"><rect codeLine="26" fill="#F1F1F1" height="48" id="Thorn" rx="2.5" ry="2.5" style="stroke:#181818;stroke-width:0.5;" width="72" x="59.5" y="35.6"/><ellipse cx="74.5" cy="51.6" fill="#ADD1B2" rx="11" ry="11" style="stroke:#181818;stroke-width:1.0;"/><path d="M74.6094,46.8813 Q72.7813,46.8813 71.7344,48.1156 Q70.6875,49.3344 70.6875,51.5219 Q70.6875,53.6781 71.6563,54.9125 Q72.6406,56.1469 74.5938,56.1469 Q75.375,56.1469 76.0625,56.0219 Q76.7656,55.8813 77.7656,55.5688 L77.7656,57.4438 Q76.9063,57.7719 76.1406,57.8969 Q75.3906,58.0219 74.375,58.0219 Q72.4531,58.0219 71.1406,57.225 Q69.8438,56.4125 69.1875,54.9438 Q68.5313,53.4594 68.5313,51.4906 Q68.5313,49.6 69.2344,48.1313 Q69.9375,46.6625 71.3125,45.8344 Q72.6875,45.0063 74.6406,45.0063 Q76.6094,45.0063 78.3281,45.8656 L77.5,47.6469 Q76.7188,47.2719 76.0625,47.0844 Q75.4063,46.8813 74.6094,46.8813 Z " fill="#000000"/><text fill="#000000" font-family="sans-serif" font-size="14" lengthAdjust="spacing" textLength="40" x="88.5" y="57.032">Thorn</text><line style="stroke:#181818;stroke-width:0.5;" x1="60.5" x2="130.5" y1="67.6" y2="67.6"/><line style="stroke:#181818;stroke-width:0.5;" x1="60.5" x2="130.5" y1="75.6" y2="75.6"/></g><!--class Sword--><g id="elem_Sword"><rect codeLine="28" fill="#F1F1F1" height="48" id="Sword" rx="2.5" ry="2.5" style="stroke:#181818;stroke-width:0.5;" width="74" x="377.5" y="1090.44"/><ellipse cx="392.5" cy="1106.44" fill="#ADD1B2" rx="11" ry="11" style="stroke:#181818;stroke-width:1.0;"/><path d="M392.6094,1101.7213 Q390.7813,1101.7213 389.7344,1102.9556 Q388.6875,1104.1744 388.6875,1106.3619 Q388.6875,1108.5181 389.6563,1109.7525 Q390.6406,1110.9869 392.5938,1110.9869 Q393.375,1110.9869 394.0625,1110.8619 Q394.7656,1110.7213 395.7656,1110.4088 L395.7656,1112.2838 Q394.9063,1112.6119 394.1406,1112.7369 Q393.3906,1112.8619 392.375,1112.8619 Q390.4531,1112.8619 389.1406,1112.065 Q387.8438,1111.2525 387.1875,1109.7838 Q386.5313,1108.2994 386.5313,1106.3306 Q386.5313,1104.44 387.2344,1102.9713 Q387.9375,1101.5025 389.3125,1100.6744 Q390.6875,1099.8463 392.6406,1099.8463 Q394.6094,1099.8463 396.3281,1100.7056 L395.5,1102.4869 Q394.7188,1102.1119 394.0625,1101.9244 Q393.4063,1101.7213 392.6094,1101.7213 Z " fill="#000000"/><text fill="#000000" font-family="sans-serif" font-size="14" lengthAdjust="spacing" textLength="42" x="406.5" y="1111.872">Sword</text><line style="stroke:#181818;stroke-width:0.5;" x1="378.5" x2="450.5" y1="1122.44" y2="1122.44"/><line style="stroke:#181818;stroke-width:0.5;" x1="378.5" x2="450.5" y1="1130.44" y2="1130.44"/></g><!--class DoubleSword--><g id="elem_DoubleSword"><rect codeLine="29" fill="#F1F1F1" height="48" id="DoubleSword" rx="2.5" ry="2.5" style="stroke:#181818;stroke-width:0.5;" width="122" x="486.5" y="1090.44"/><ellipse cx="501.5" cy="1106.44" fill="#ADD1B2" rx="11" ry="11" style="stroke:#181818;stroke-width:1.0;"/><path d="M501.6094,1101.7213 Q499.7813,1101.7213 498.7344,1102.9556 Q497.6875,1104.1744 497.6875,1106.3619 Q497.6875,1108.5181 498.6563,1109.7525 Q499.6406,1110.9869 501.5938,1110.9869 Q502.375,1110.9869 503.0625,1110.8619 Q503.7656,1110.7213 504.7656,1110.4088 L504.7656,1112.2838 Q503.9063,1112.6119 503.1406,1112.7369 Q502.3906,1112.8619 501.375,1112.8619 Q499.4531,1112.8619 498.1406,1112.065 Q496.8438,1111.2525 496.1875,1109.7838 Q495.5313,1108.2994 495.5313,1106.3306 Q495.5313,1104.44 496.2344,1102.9713 Q496.9375,1101.5025 498.3125,1100.6744 Q499.6875,1099.8463 501.6406,1099.8463 Q503.6094,1099.8463 505.3281,1100.7056 L504.5,1102.4869 Q503.7188,1102.1119 503.0625,1101.9244 Q502.4063,1101.7213 501.6094,1101.7213 Z " fill="#000000"/><text fill="#000000" font-family="sans-serif" font-size="14" lengthAdjust="spacing" textLength="90" x="515.5" y="1111.872">DoubleSword</text><line style="stroke:#181818;stroke-width:0.5;" x1="487.5" x2="607.5" y1="1122.44" y2="1122.44"/><line style="stroke:#181818;stroke-width:0.5;" x1="487.5" x2="607.5" y1="1130.44" y2="1130.44"/></g><!--class HandOccupation--><g id="elem_HandOccupation"><rect codeLine="31" fill="#F1F1F1" height="67.0679" id="HandOccupation" rx="2.5" ry="2.5" style="stroke:#181818;stroke-width:0.5;" width="213" x="643" y="1080.9"/><ellipse cx="692.75" cy="1096.9" fill="#A9DCDF" rx="11" ry="11" style="stroke:#181818;stroke-width:1.0;"/><path d="M696.0938,1102.15 L694.625,1098.4 L690.1875,1098.4 L688.75,1102.15 L686.625,1102.15 L691.5781,1089.4313 L693.3281,1089.4313 L698.25,1102.15 L696.0938,1102.15 Z M692.75,1093.1969 Q692.7031,1093.0406 692.5781,1092.6813 Q692.4531,1092.3219 692.3438,1091.9469 Q692.2344,1091.5563 692.4219,1091.4938 Q692.5469,1091.8688 692.3906,1092.3844 Q692.25,1092.8844 692.1406,1093.1969 L690.9063,1096.5094 L693.9844,1096.5094 L692.75,1093.1969 Z " fill="#000000"/><text fill="#000000" font-family="sans-serif" font-size="14" font-style="italic" lengthAdjust="spacing" textLength="105" x="713.25" y="1102.332">HandOccupation</text><line style="stroke:#181818;stroke-width:0.5;" x1="644" x2="855" y1="1112.9" y2="1112.9"/><line style="stroke:#181818;stroke-width:0.5;" x1="644" x2="855" y1="1120.9" y2="1120.9"/><text fill="#000000" font-family="sans-serif" font-size="14" lengthAdjust="spacing" textLength="201" x="649" y="1139.8659">CanEquip(player: Player): bool</text></g><!--class OneHandOccupation--><g id="elem_OneHandOccupation"><rect codeLine="35" fill="#F1F1F1" height="48" id="OneHandOccupation" rx="2.5" ry="2.5" style="stroke:#181818;stroke-width:0.5;" width="173" x="559" y="1207.97"/><ellipse cx="574" cy="1223.97" fill="#ADD1B2" rx="11" ry="11" style="stroke:#181818;stroke-width:1.0;"/><path d="M574.1094,1219.2513 Q572.2813,1219.2513 571.2344,1220.4856 Q570.1875,1221.7044 570.1875,1223.8919 Q570.1875,1226.0481 571.1563,1227.2825 Q572.1406,1228.5169 574.0938,1228.5169 Q574.875,1228.5169 575.5625,1228.3919 Q576.2656,1228.2513 577.2656,1227.9388 L577.2656,1229.8138 Q576.4063,1230.1419 575.6406,1230.2669 Q574.8906,1230.3919 573.875,1230.3919 Q571.9531,1230.3919 570.6406,1229.595 Q569.3438,1228.7825 568.6875,1227.3138 Q568.0313,1225.8294 568.0313,1223.8606 Q568.0313,1221.97 568.7344,1220.5013 Q569.4375,1219.0325 570.8125,1218.2044 Q572.1875,1217.3763 574.1406,1217.3763 Q576.1094,1217.3763 577.8281,1218.2356 L577,1220.0169 Q576.2188,1219.6419 575.5625,1219.4544 Q574.9063,1219.2513 574.1094,1219.2513 Z " fill="#000000"/><text fill="#000000" font-family="sans-serif" font-size="14" lengthAdjust="spacing" textLength="141" x="588" y="1229.402">OneHandOccupation</text><line style="stroke:#181818;stroke-width:0.5;" x1="560" x2="731" y1="1239.97" y2="1239.97"/><line style="stroke:#181818;stroke-width:0.5;" x1="560" x2="731" y1="1247.97" y2="1247.97"/></g><!--class TwoHandOccupation--><g id="elem_TwoHandOccupation"><rect codeLine="36" fill="#F1F1F1" height="48" id="TwoHandOccupation" rx="2.5" ry="2.5" style="stroke:#181818;stroke-width:0.5;" width="172" x="767.5" y="1207.97"/><ellipse cx="782.5" cy="1223.97" fill="#ADD1B2" rx="11" ry="11" style="stroke:#181818;stroke-width:1.0;"/><path d="M782.6094,1219.2513 Q780.7813,1219.2513 779.7344,1220.4856 Q778.6875,1221.7044 778.6875,1223.8919 Q778.6875,1226.0481 779.6563,1227.2825 Q780.6406,1228.5169 782.5938,1228.5169 Q783.375,1228.5169 784.0625,1228.3919 Q784.7656,1228.2513 785.7656,1227.9388 L785.7656,1229.8138 Q784.9063,1230.1419 784.1406,1230.2669 Q783.3906,1230.3919 782.375,1230.3919 Q780.4531,1230.3919 779.1406,1229.595 Q777.8438,1228.7825 777.1875,1227.3138 Q776.5313,1225.8294 776.5313,1223.8606 Q776.5313,1221.97 777.2344,1220.5013 Q777.9375,1219.0325 779.3125,1218.2044 Q780.6875,1217.3763 782.6406,1217.3763 Q784.6094,1217.3763 786.3281,1218.2356 L785.5,1220.0169 Q784.7188,1219.6419 784.0625,1219.4544 Q783.4063,1219.2513 782.6094,1219.2513 Z " fill="#000000"/><text fill="#000000" font-family="sans-serif" font-size="14" lengthAdjust="spacing" textLength="140" x="796.5" y="1229.402">TwoHandOccupation</text><line style="stroke:#181818;stroke-width:0.5;" x1="768.5" x2="938.5" y1="1239.97" y2="1239.97"/><line style="stroke:#181818;stroke-width:0.5;" x1="768.5" x2="938.5" y1="1247.97" y2="1247.97"/></g><!--class Tile--><g id="elem_Tile"><rect codeLine="39" fill="#F1F1F1" height="86.1358" id="Tile" rx="2.5" ry="2.5" style="stroke:#181818;stroke-width:0.5;" width="130" x="1145.5" y="499.49"/><ellipse cx="1195.25" cy="515.49" fill="#A9DCDF" rx="11" ry="11" style="stroke:#181818;stroke-width:1.0;"/><path d="M1198.5938,520.74 L1197.125,516.99 L1192.6875,516.99 L1191.25,520.74 L1189.125,520.74 L1194.0781,508.0213 L1195.8281,508.0213 L1200.75,520.74 L1198.5938,520.74 Z M1195.25,511.7869 Q1195.2031,511.6306 1195.0781,511.2713 Q1194.9531,510.9119 1194.8438,510.5369 Q1194.7344,510.1463 1194.9219,510.0838 Q1195.0469,510.4588 1194.8906,510.9744 Q1194.75,511.4744 1194.6406,511.7869 L1193.4063,515.0994 L1196.4844,515.0994 L1195.25,511.7869 Z " fill="#000000"/><text fill="#000000" font-family="sans-serif" font-size="14" font-style="italic" lengthAdjust="spacing" textLength="22" x="1215.75" y="520.922">Tile</text><line style="stroke:#181818;stroke-width:0.5;" x1="1146.5" x2="1274.5" y1="531.49" y2="531.49"/><text fill="#000000" font-family="sans-serif" font-size="14" lengthAdjust="spacing" textLength="118" x="1151.5" y="550.4559">+IsWalkable: bool</text><text fill="#000000" font-family="sans-serif" font-size="14" lengthAdjust="spacing" textLength="95" x="1151.5" y="569.5239">+Symbol: char</text><line style="stroke:#181818;stroke-width:0.5;" x1="1146.5" x2="1274.5" y1="577.6258" y2="577.6258"/></g><!--class FloorTile--><g id="elem_FloorTile"><rect codeLine="44" fill="#F1F1F1" height="48" id="FloorTile" rx="2.5" ry="2.5" style="stroke:#181818;stroke-width:0.5;" width="89" x="1149" y="731.43"/><ellipse cx="1164" cy="747.43" fill="#ADD1B2" rx="11" ry="11" style="stroke:#181818;stroke-width:1.0;"/><path d="M1164.1094,742.7113 Q1162.2813,742.7113 1161.2344,743.9456 Q1160.1875,745.1644 1160.1875,747.3519 Q1160.1875,749.5081 1161.1563,750.7425 Q1162.1406,751.9769 1164.0938,751.9769 Q1164.875,751.9769 1165.5625,751.8519 Q1166.2656,751.7113 1167.2656,751.3988 L1167.2656,753.2738 Q1166.4063,753.6019 1165.6406,753.7269 Q1164.8906,753.8519 1163.875,753.8519 Q1161.9531,753.8519 1160.6406,753.055 Q1159.3438,752.2425 1158.6875,750.7738 Q1158.0313,749.2894 1158.0313,747.3206 Q1158.0313,745.43 1158.7344,743.9613 Q1159.4375,742.4925 1160.8125,741.6644 Q1162.1875,740.8363 1164.1406,740.8363 Q1166.1094,740.8363 1167.8281,741.6956 L1167,743.4769 Q1166.2188,743.1019 1165.5625,742.9144 Q1164.9063,742.7113 1164.1094,742.7113 Z " fill="#000000"/><text fill="#000000" font-family="sans-serif" font-size="14" lengthAdjust="spacing" textLength="57" x="1178" y="752.862">FloorTile</text><line style="stroke:#181818;stroke-width:0.5;" x1="1150" x2="1237" y1="763.43" y2="763.43"/><line style="stroke:#181818;stroke-width:0.5;" x1="1150" x2="1237" y1="771.43" y2="771.43"/></g><!--class WallTile--><g id="elem_WallTile"><rect codeLine="45" fill="#F1F1F1" height="48" id="WallTile" rx="2.5" ry="2.5" style="stroke:#181818;stroke-width:0.5;" width="85" x="1273" y="731.43"/><ellipse cx="1288" cy="747.43" fill="#ADD1B2" rx="11" ry="11" style="stroke:#181818;stroke-width:1.0;"/><path d="M1288.1094,742.7113 Q1286.2813,742.7113 1285.2344,743.9456 Q1284.1875,745.1644 1284.1875,747.3519 Q1284.1875,749.5081 1285.1563,750.7425 Q1286.1406,751.9769 1288.0938,751.9769 Q1288.875,751.9769 1289.5625,751.8519 Q1290.2656,751.7113 1291.2656,751.3988 L1291.2656,753.2738 Q1290.4063,753.6019 1289.6406,753.7269 Q1288.8906,753.8519 1287.875,753.8519 Q1285.9531,753.8519 1284.6406,753.055 Q1283.3438,752.2425 1282.6875,750.7738 Q1282.0313,749.2894 1282.0313,747.3206 Q1282.0313,745.43 1282.7344,743.9613 Q1283.4375,742.4925 1284.8125,741.6644 Q1286.1875,740.8363 1288.1406,740.8363 Q1290.1094,740.8363 1291.8281,741.6956 L1291,743.4769 Q1290.2188,743.1019 1289.5625,742.9144 Q1288.9063,742.7113 1288.1094,742.7113 Z " fill="#000000"/><text fill="#000000" font-family="sans-serif" font-size="14" lengthAdjust="spacing" textLength="53" x="1302" y="752.862">WallTile</text><line style="stroke:#181818;stroke-width:0.5;" x1="1274" x2="1357" y1="763.43" y2="763.43"/><line style="stroke:#181818;stroke-width:0.5;" x1="1274" x2="1357" y1="771.43" y2="771.43"/></g><!--class Position--><g id="elem_Position"><rect codeLine="48" fill="#F1F1F1" height="105.2038" id="Position" rx="2.5" ry="2.5" style="stroke:#181818;stroke-width:0.5;" width="214" x="166.5" y="7"/><ellipse cx="242.75" cy="23" fill="#ADD1B2" rx="11" ry="11" style="stroke:#181818;stroke-width:1.0;"/><path d="M242.8594,18.2813 Q241.0313,18.2813 239.9844,19.5156 Q238.9375,20.7344 238.9375,22.9219 Q238.9375,25.0781 239.9063,26.3125 Q240.8906,27.5469 242.8438,27.5469 Q243.625,27.5469 244.3125,27.4219 Q245.0156,27.2813 246.0156,26.9688 L246.0156,28.8438 Q245.1563,29.1719 244.3906,29.2969 Q243.6406,29.4219 242.625,29.4219 Q240.7031,29.4219 239.3906,28.625 Q238.0938,27.8125 237.4375,26.3438 Q236.7813,24.8594 236.7813,22.8906 Q236.7813,21 237.4844,19.5313 Q238.1875,18.0625 239.5625,17.2344 Q240.9375,16.4063 242.8906,16.4063 Q244.8594,16.4063 246.5781,17.2656 L245.75,19.0469 Q244.9688,18.6719 244.3125,18.4844 Q243.6563,18.2813 242.8594,18.2813 Z " fill="#000000"/><text fill="#000000" font-family="sans-serif" font-size="14" lengthAdjust="spacing" textLength="53" x="263.25" y="28.432">Position</text><line style="stroke:#181818;stroke-width:0.5;" x1="167.5" x2="379.5" y1="39" y2="39"/><text fill="#000000" font-family="sans-serif" font-size="14" lengthAdjust="spacing" textLength="42" x="172.5" y="57.9659">+X: int</text><text fill="#000000" font-family="sans-serif" font-size="14" lengthAdjust="spacing" textLength="42" x="172.5" y="77.0339">+Y: int</text><line style="stroke:#181818;stroke-width:0.5;" x1="167.5" x2="379.5" y1="85.1358" y2="85.1358"/><text fill="#000000" font-family="sans-serif" font-size="14" lengthAdjust="spacing" textLength="202" x="172.5" y="104.1018">Offset(dx: int, dy: int): Position</text></g><!--class Character--><g id="elem_Character"><rect codeLine="54" fill="#F1F1F1" height="105.2038" id="Character" rx="2.5" ry="2.5" style="stroke:#181818;stroke-width:0.5;" width="134" x="245.5" y="489.95"/><ellipse cx="278.5" cy="505.95" fill="#A9DCDF" rx="11" ry="11" style="stroke:#181818;stroke-width:1.0;"/><path d="M281.8438,511.2 L280.375,507.45 L275.9375,507.45 L274.5,511.2 L272.375,511.2 L277.3281,498.4813 L279.0781,498.4813 L284,511.2 L281.8438,511.2 Z M278.5,502.2469 Q278.4531,502.0906 278.3281,501.7313 Q278.2031,501.3719 278.0938,500.9969 Q277.9844,500.6063 278.1719,500.5438 Q278.2969,500.9188 278.1406,501.4344 Q278,501.9344 277.8906,502.2469 L276.6563,505.5594 L279.7344,505.5594 L278.5,502.2469 Z " fill="#000000"/><text fill="#000000" font-family="sans-serif" font-size="14" font-style="italic" lengthAdjust="spacing" textLength="62" x="296.5" y="511.382">Character</text><line style="stroke:#181818;stroke-width:0.5;" x1="246.5" x2="378.5" y1="521.95" y2="521.95"/><text fill="#000000" font-family="sans-serif" font-size="14" lengthAdjust="spacing" textLength="96" x="251.5" y="540.9159">+Name: string</text><text fill="#000000" font-family="sans-serif" font-size="14" lengthAdjust="spacing" textLength="122" x="251.5" y="559.9839">+Position: Position</text><text fill="#000000" font-family="sans-serif" font-size="14" lengthAdjust="spacing" textLength="95" x="251.5" y="579.0518">+Symbol: char</text><line style="stroke:#181818;stroke-width:0.5;" x1="246.5" x2="378.5" y1="587.1538" y2="587.1538"/></g><!--class Player--><g id="elem_Player"><rect codeLine="60" fill="#F1F1F1" height="238.6792" id="Player" rx="2.5" ry="2.5" style="stroke:#181818;stroke-width:0.5;" width="188" x="379.5" y="172.2"/><ellipse cx="448.75" cy="188.2" fill="#ADD1B2" rx="11" ry="11" style="stroke:#181818;stroke-width:1.0;"/><path d="M448.8594,183.4813 Q447.0313,183.4813 445.9844,184.7156 Q444.9375,185.9344 444.9375,188.1219 Q444.9375,190.2781 445.9063,191.5125 Q446.8906,192.7469 448.8438,192.7469 Q449.625,192.7469 450.3125,192.6219 Q451.0156,192.4813 452.0156,192.1688 L452.0156,194.0438 Q451.1563,194.3719 450.3906,194.4969 Q449.6406,194.6219 448.625,194.6219 Q446.7031,194.6219 445.3906,193.825 Q444.0938,193.0125 443.4375,191.5438 Q442.7813,190.0594 442.7813,188.0906 Q442.7813,186.2 443.4844,184.7313 Q444.1875,183.2625 445.5625,182.4344 Q446.9375,181.6063 448.8906,181.6063 Q450.8594,181.6063 452.5781,182.4656 L451.75,184.2469 Q450.9688,183.8719 450.3125,183.6844 Q449.6563,183.4813 448.8594,183.4813 Z " fill="#000000"/><text fill="#000000" font-family="sans-serif" font-size="14" lengthAdjust="spacing" textLength="41" x="469.25" y="193.632">Player</text><line style="stroke:#181818;stroke-width:0.5;" x1="380.5" x2="566.5" y1="204.2" y2="204.2"/><text fill="#000000" font-family="sans-serif" font-size="14" lengthAdjust="spacing" textLength="93" x="385.5" y="223.1659">+Strength: int</text><text fill="#000000" font-family="sans-serif" font-size="14" lengthAdjust="spacing" textLength="94" x="385.5" y="242.2339">+Dexterity: int</text><text fill="#000000" font-family="sans-serif" font-size="14" lengthAdjust="spacing" textLength="78" x="385.5" y="261.3018">+Health: int</text><text fill="#000000" font-family="sans-serif" font-size="14" lengthAdjust="spacing" textLength="64" x="385.5" y="280.3697">+Luck: int</text><text fill="#000000" font-family="sans-serif" font-size="14" lengthAdjust="spacing" textLength="110" x="385.5" y="299.4376">+Aggression: int</text><text fill="#000000" font-family="sans-serif" font-size="14" lengthAdjust="spacing" textLength="88" x="385.5" y="318.5055">+Wisdom: int</text><text fill="#000000" font-family="sans-serif" font-size="14" lengthAdjust="spacing" textLength="165" x="385.5" y="337.5734">+LeftHand: IEquippable?</text><text fill="#000000" font-family="sans-serif" font-size="14" lengthAdjust="spacing" textLength="176" x="385.5" y="356.6414">+RightHand: IEquippable?</text><text fill="#000000" font-family="sans-serif" font-size="14" lengthAdjust="spacing" textLength="71" x="385.5" y="375.7093">+Coins: int</text><text fill="#000000" font-family="sans-serif" font-size="14" lengthAdjust="spacing" textLength="65" x="385.5" y="394.7772">+Gold: int</text><line style="stroke:#181818;stroke-width:0.5;" x1="380.5" x2="566.5" y1="402.8792" y2="402.8792"/></g><!--class Level--><g id="elem_Level"><rect codeLine="74" fill="#F1F1F1" height="181.4754" id="Level" rx="2.5" ry="2.5" style="stroke:#181818;stroke-width:0.5;" width="308" x="801.5" y="200.81"/><ellipse cx="934.25" cy="216.81" fill="#ADD1B2" rx="11" ry="11" style="stroke:#181818;stroke-width:1.0;"/><path d="M934.3594,212.0912 Q932.5313,212.0912 931.4844,213.3256 Q930.4375,214.5444 930.4375,216.7319 Q930.4375,218.8881 931.4063,220.1225 Q932.3906,221.3569 934.3438,221.3569 Q935.125,221.3569 935.8125,221.2319 Q936.5156,221.0912 937.5156,220.7787 L937.5156,222.6537 Q936.6563,222.9819 935.8906,223.1069 Q935.1406,223.2319 934.125,223.2319 Q932.2031,223.2319 930.8906,222.435 Q929.5938,221.6225 928.9375,220.1537 Q928.2813,218.6694 928.2813,216.7006 Q928.2813,214.81 928.9844,213.3412 Q929.6875,211.8725 931.0625,211.0444 Q932.4375,210.2162 934.3906,210.2162 Q936.3594,210.2162 938.0781,211.0756 L937.25,212.8569 Q936.4688,212.4819 935.8125,212.2944 Q935.1563,212.0912 934.3594,212.0912 Z " fill="#000000"/><text fill="#000000" font-family="sans-serif" font-size="14" lengthAdjust="spacing" textLength="34" x="954.75" y="222.242">Level</text><line style="stroke:#181818;stroke-width:0.5;" x1="802.5" x2="1108.5" y1="232.81" y2="232.81"/><text fill="#000000" font-family="sans-serif" font-size="14" lengthAdjust="spacing" textLength="74" x="807.5" y="251.7759">+Width: int</text><text fill="#000000" font-family="sans-serif" font-size="14" lengthAdjust="spacing" textLength="79" x="807.5" y="270.8439">+Height: int</text><line style="stroke:#181818;stroke-width:0.5;" x1="802.5" x2="1108.5" y1="278.9458" y2="278.9458"/><text fill="#000000" font-family="sans-serif" font-size="14" lengthAdjust="spacing" textLength="161" x="807.5" y="297.9118">GetTile(x: int, y: int): Tile</text><text fill="#000000" font-family="sans-serif" font-size="14" lengthAdjust="spacing" textLength="224" x="807.5" y="316.9797">SetTile(x: int, y: int, tile: Tile): void</text><text fill="#000000" font-family="sans-serif" font-size="14" lengthAdjust="spacing" textLength="177" x="807.5" y="336.0476">CanWalk(x: int, y: int): bool</text><text fill="#000000" font-family="sans-serif" font-size="14" lengthAdjust="spacing" textLength="269" x="807.5" y="355.1155">AddItem(pos: Position, item: IItem): void</text><text fill="#000000" font-family="sans-serif" font-size="14" lengthAdjust="spacing" textLength="296" x="807.5" y="374.1834">RemoveItem(pos: Position, item: IItem): bool</text></g><!--class Inventory--><g id="elem_Inventory"><rect codeLine="84" fill="#F1F1F1" height="143.3396" id="Inventory" rx="2.5" ry="2.5" style="stroke:#181818;stroke-width:0.5;" width="280" x="485.5" y="470.88"/><ellipse cx="589.25" cy="486.88" fill="#ADD1B2" rx="11" ry="11" style="stroke:#181818;stroke-width:1.0;"/><path d="M589.3594,482.1613 Q587.5313,482.1613 586.4844,483.3956 Q585.4375,484.6144 585.4375,486.8019 Q585.4375,488.9581 586.4063,490.1925 Q587.3906,491.4269 589.3438,491.4269 Q590.125,491.4269 590.8125,491.3019 Q591.5156,491.1613 592.5156,490.8488 L592.5156,492.7238 Q591.6563,493.0519 590.8906,493.1769 Q590.1406,493.3019 589.125,493.3019 Q587.2031,493.3019 585.8906,492.505 Q584.5938,491.6925 583.9375,490.2238 Q583.2813,488.7394 583.2813,486.7706 Q583.2813,484.88 583.9844,483.4113 Q584.6875,481.9425 586.0625,481.1144 Q587.4375,480.2863 589.3906,480.2863 Q591.3594,480.2863 593.0781,481.1456 L592.25,482.9269 Q591.4688,482.5519 590.8125,482.3644 Q590.1563,482.1613 589.3594,482.1613 Z " fill="#000000"/><text fill="#000000" font-family="sans-serif" font-size="14" lengthAdjust="spacing" textLength="64" x="609.75" y="492.312">Inventory</text><line style="stroke:#181818;stroke-width:0.5;" x1="486.5" x2="764.5" y1="502.88" y2="502.88"/><text fill="#000000" font-family="sans-serif" font-size="14" lengthAdjust="spacing" textLength="61" x="491.5" y="521.8459">+Size: int</text><text fill="#000000" font-family="sans-serif" font-size="14" lengthAdjust="spacing" textLength="74" x="491.5" y="540.9139">+Count: int</text><line style="stroke:#181818;stroke-width:0.5;" x1="486.5" x2="764.5" y1="549.0158" y2="549.0158"/><text fill="#000000" font-family="sans-serif" font-size="14" lengthAdjust="spacing" textLength="192" x="491.5" y="567.9818">Add(item: IEquippable): bool</text><text fill="#000000" font-family="sans-serif" font-size="14" lengthAdjust="spacing" textLength="129" x="491.5" y="587.0497">Pop(): IEquippable?</text><text fill="#000000" font-family="sans-serif" font-size="14" lengthAdjust="spacing" textLength="268" x="491.5" y="606.1176">GetItems(): IReadOnlyList&lt;IEquippable&gt;</text></g><!--class Config--><g id="elem_Config"><rect codeLine="92" fill="#F1F1F1" height="105.2038" id="Config" rx="2.5" ry="2.5" style="stroke:#181818;stroke-width:0.5;" width="177" x="7" y="238.94"/><ellipse cx="69.25" cy="254.94" fill="#ADD1B2" rx="11" ry="11" style="stroke:#181818;stroke-width:1.0;"/><path d="M69.3594,250.2213 Q67.5313,250.2213 66.4844,251.4556 Q65.4375,252.6744 65.4375,254.8619 Q65.4375,257.0181 66.4063,258.2525 Q67.3906,259.4869 69.3438,259.4869 Q70.125,259.4869 70.8125,259.3619 Q71.5156,259.2213 72.5156,258.9088 L72.5156,260.7838 Q71.6563,261.1119 70.8906,261.2369 Q70.1406,261.3619 69.125,261.3619 Q67.2031,261.3619 65.8906,260.565 Q64.5938,259.7525 63.9375,258.2838 Q63.2813,256.7994 63.2813,254.8306 Q63.2813,252.94 63.9844,251.4713 Q64.6875,250.0025 66.0625,249.1744 Q67.4375,248.3463 69.3906,248.3463 Q71.3594,248.3463 73.0781,249.2056 L72.25,250.9869 Q71.4688,250.6119 70.8125,250.4244 Q70.1563,250.2213 69.3594,250.2213 Z " fill="#000000"/><text fill="#000000" font-family="sans-serif" font-size="14" lengthAdjust="spacing" textLength="44" x="89.75" y="260.372">Config</text><line style="stroke:#181818;stroke-width:0.5;" x1="8" x2="183" y1="270.94" y2="270.94"/><text fill="#000000" font-family="sans-serif" font-size="14" lengthAdjust="spacing" text-decoration="underline" textLength="160" x="13" y="289.9059">+WindowWidth: int = 40</text><text fill="#000000" font-family="sans-serif" font-size="14" lengthAdjust="spacing" text-decoration="underline" textLength="165" x="13" y="308.9739">+WindowHeight: int = 20</text><text fill="#000000" font-family="sans-serif" font-size="14" lengthAdjust="spacing" text-decoration="underline" textLength="133" x="13" y="328.0418">+TargetFPS: int = 60</text><line style="stroke:#181818;stroke-width:0.5;" x1="8" x2="183" y1="336.1438" y2="336.1438"/></g><!--class Directions--><g id="elem_Directions"><rect codeLine="98" fill="#F1F1F1" height="124.2717" id="Directions" rx="2.5" ry="2.5" style="stroke:#181818;stroke-width:0.5;" width="119" x="219" y="229.41"/><ellipse cx="242.55" cy="245.41" fill="#ADD1B2" rx="11" ry="11" style="stroke:#181818;stroke-width:1.0;"/><path d="M242.6594,240.6913 Q240.8313,240.6913 239.7844,241.9256 Q238.7375,243.1444 238.7375,245.3319 Q238.7375,247.4881 239.7063,248.7225 Q240.6906,249.9569 242.6438,249.9569 Q243.425,249.9569 244.1125,249.8319 Q244.8156,249.6913 245.8156,249.3788 L245.8156,251.2538 Q244.9563,251.5819 244.1906,251.7069 Q243.4406,251.8319 242.425,251.8319 Q240.5031,251.8319 239.1906,251.035 Q237.8938,250.2225 237.2375,248.7538 Q236.5813,247.2694 236.5813,245.3006 Q236.5813,243.41 237.2844,241.9413 Q237.9875,240.4725 239.3625,239.6444 Q240.7375,238.8163 242.6906,238.8163 Q244.6594,238.8163 246.3781,239.6756 L245.55,241.4569 Q244.7688,241.0819 244.1125,240.8944 Q243.4563,240.6913 242.6594,240.6913 Z " fill="#000000"/><text fill="#000000" font-family="sans-serif" font-size="14" lengthAdjust="spacing" textLength="68" x="258.45" y="250.842">Directions</text><line style="stroke:#181818;stroke-width:0.5;" x1="220" x2="337" y1="261.41" y2="261.41"/><text fill="#000000" font-family="sans-serif" font-size="14" lengthAdjust="spacing" text-decoration="underline" textLength="88" x="225" y="280.3759">+Up: Position</text><text fill="#000000" font-family="sans-serif" font-size="14" lengthAdjust="spacing" text-decoration="underline" textLength="107" x="225" y="299.4439">+Down: Position</text><text fill="#000000" font-family="sans-serif" font-size="14" lengthAdjust="spacing" text-decoration="underline" textLength="94" x="225" y="318.5118">+Left: Position</text><text fill="#000000" font-family="sans-serif" font-size="14" lengthAdjust="spacing" text-decoration="underline" textLength="105" x="225" y="337.5797">+Right: Position</text><line style="stroke:#181818;stroke-width:0.5;" x1="220" x2="337" y1="345.6817" y2="345.6817"/></g><!--class IMapGenerator--><g id="elem_IMapGenerator"><rect codeLine="106" fill="#F1F1F1" height="67.0679" id="IMapGenerator" rx="2.5" ry="2.5" style="stroke:#181818;stroke-width:0.5;" width="232" x="2406.5" y="26.07"/><ellipse cx="2469.75" cy="42.07" fill="#B4A7E5" rx="11" ry="11" style="stroke:#181818;stroke-width:1.0;"/><path d="M2471.8438,48.57 L2466.9375,48.57 L2466.9375,47.195 L2468.3594,46.8825 L2468.3594,37.6012 L2466.9375,37.2575 L2466.9375,35.8981 L2471.8438,35.8981 L2471.8438,37.2575 L2470.4219,37.6012 L2470.4219,46.8825 L2471.8438,47.195 L2471.8438,48.57 Z " fill="#000000"/><text fill="#000000" font-family="sans-serif" font-size="14" font-style="italic" lengthAdjust="spacing" textLength="97" x="2490.25" y="47.502">IMapGenerator</text><line style="stroke:#181818;stroke-width:0.5;" x1="2407.5" x2="2637.5" y1="58.07" y2="58.07"/><line style="stroke:#181818;stroke-width:0.5;" x1="2407.5" x2="2637.5" y1="66.07" y2="66.07"/><text fill="#000000" font-family="sans-serif" font-size="14" lengthAdjust="spacing" textLength="220" x="2412.5" y="85.0359">GenerateAsync(level: Level): Task</text></g><!--class IDungeonProcedure--><g id="elem_IDungeonProcedure"><rect codeLine="110" fill="#F1F1F1" height="67.0679" id="IDungeonProcedure" rx="2.5" ry="2.5" style="stroke:#181818;stroke-width:0.5;" width="386" x="2075.5" y="509.02"/><ellipse cx="2201.75" cy="525.02" fill="#B4A7E5" rx="11" ry="11" style="stroke:#181818;stroke-width:1.0;"/><path d="M2203.8438,531.52 L2198.9375,531.52 L2198.9375,530.145 L2200.3594,529.8325 L2200.3594,520.5513 L2198.9375,520.2075 L2198.9375,518.8481 L2203.8438,518.8481 L2203.8438,520.2075 L2202.4219,520.5513 L2202.4219,529.8325 L2203.8438,530.145 L2203.8438,531.52 Z " fill="#000000"/><text fill="#000000" font-family="sans-serif" font-size="14" font-style="italic" lengthAdjust="spacing" textLength="125" x="2222.25" y="530.452">IDungeonProcedure</text><line style="stroke:#181818;stroke-width:0.5;" x1="2076.5" x2="2460.5" y1="541.02" y2="541.02"/><line style="stroke:#181818;stroke-width:0.5;" x1="2076.5" x2="2460.5" y1="549.02" y2="549.02"/><text fill="#000000" font-family="sans-serif" font-size="14" lengthAdjust="spacing" textLength="374" x="2081.5" y="567.9859">ApplyAsync(level: Level, context: DungeonContext): Task</text></g><!--class DungeonBuilder--><g id="elem_DungeonBuilder"><rect codeLine="114" fill="#F1F1F1" height="86.1358" id="DungeonBuilder" rx="2.5" ry="2.5" style="stroke:#181818;stroke-width:0.5;" width="380" x="2332.5" y="248.48"/><ellipse cx="2462.75" cy="264.48" fill="#ADD1B2" rx="11" ry="11" style="stroke:#181818;stroke-width:1.0;"/><path d="M2462.8594,259.7613 Q2461.0313,259.7613 2459.9844,260.9956 Q2458.9375,262.2144 2458.9375,264.4019 Q2458.9375,266.5581 2459.9063,267.7925 Q2460.8906,269.0269 2462.8438,269.0269 Q2463.625,269.0269 2464.3125,268.9019 Q2465.0156,268.7613 2466.0156,268.4488 L2466.0156,270.3238 Q2465.1563,270.6519 2464.3906,270.7769 Q2463.6406,270.9019 2462.625,270.9019 Q2460.7031,270.9019 2459.3906,270.105 Q2458.0938,269.2925 2457.4375,267.8238 Q2456.7813,266.3394 2456.7813,264.3706 Q2456.7813,262.48 2457.4844,261.0113 Q2458.1875,259.5425 2459.5625,258.7144 Q2460.9375,257.8863 2462.8906,257.8863 Q2464.8594,257.8863 2466.5781,258.7456 L2465.75,260.5269 Q2464.9688,260.1519 2464.3125,259.9644 Q2463.6563,259.7613 2462.8594,259.7613 Z " fill="#000000"/><text fill="#000000" font-family="sans-serif" font-size="14" lengthAdjust="spacing" textLength="111" x="2483.25" y="269.912">DungeonBuilder</text><line style="stroke:#181818;stroke-width:0.5;" x1="2333.5" x2="2711.5" y1="280.48" y2="280.48"/><line style="stroke:#181818;stroke-width:0.5;" x1="2333.5" x2="2711.5" y1="288.48" y2="288.48"/><text fill="#000000" font-family="sans-serif" font-size="14" lengthAdjust="spacing" textLength="368" x="2338.5" y="307.4459">Add(procedure: IDungeonProcedure): DungeonBuilder</text><text fill="#000000" font-family="sans-serif" font-size="14" lengthAdjust="spacing" textLength="220" x="2338.5" y="326.5139">GenerateAsync(level: Level): Task</text></g><!--class DungeonContext--><g id="elem_DungeonContext"><rect codeLine="119" fill="#F1F1F1" height="67.0679" id="DungeonContext" rx="2.5" ry="2.5" style="stroke:#181818;stroke-width:0.5;" width="179" x="2756" y="509.02"/><ellipse cx="2786.3" cy="525.02" fill="#ADD1B2" rx="11" ry="11" style="stroke:#181818;stroke-width:1.0;"/><path d="M2786.4094,520.3013 Q2784.5813,520.3013 2783.5344,521.5356 Q2782.4875,522.7544 2782.4875,524.9419 Q2782.4875,527.0981 2783.4563,528.3325 Q2784.4406,529.5669 2786.3938,529.5669 Q2787.175,529.5669 2787.8625,529.4419 Q2788.5656,529.3013 2789.5656,528.9888 L2789.5656,530.8638 Q2788.7063,531.1919 2787.9406,531.3169 Q2787.1906,531.4419 2786.175,531.4419 Q2784.2531,531.4419 2782.9406,530.645 Q2781.6438,529.8325 2780.9875,528.3638 Q2780.3313,526.8794 2780.3313,524.9106 Q2780.3313,523.02 2781.0344,521.5513 Q2781.7375,520.0825 2783.1125,519.2544 Q2784.4875,518.4263 2786.4406,518.4263 Q2788.4094,518.4263 2790.1281,519.2856 L2789.3,521.0669 Q2788.5188,520.6919 2787.8625,520.5044 Q2787.2063,520.3013 2786.4094,520.3013 Z " fill="#000000"/><text fill="#000000" font-family="sans-serif" font-size="14" lengthAdjust="spacing" textLength="113" x="2803.7" y="530.452">DungeonContext</text><line style="stroke:#181818;stroke-width:0.5;" x1="2757" x2="2934" y1="541.02" y2="541.02"/><text fill="#000000" font-family="sans-serif" font-size="14" lengthAdjust="spacing" textLength="167" x="2762" y="559.9859">+Rooms: List&lt;RectRoom&gt;</text><line style="stroke:#181818;stroke-width:0.5;" x1="2757" x2="2934" y1="568.0879" y2="568.0879"/></g><!--class RectRoom--><g id="elem_RectRoom"><rect codeLine="123" fill="#F1F1F1" height="162.4075" id="RectRoom" rx="2.5" ry="2.5" style="stroke:#181818;stroke-width:0.5;" width="235" x="2894" y="674.22"/><ellipse cx="2973.75" cy="690.22" fill="#ADD1B2" rx="11" ry="11" style="stroke:#181818;stroke-width:1.0;"/><path d="M2973.8594,685.5013 Q2972.0313,685.5013 2970.9844,686.7356 Q2969.9375,687.9544 2969.9375,690.1419 Q2969.9375,692.2981 2970.9063,693.5325 Q2971.8906,694.7669 2973.8438,694.7669 Q2974.625,694.7669 2975.3125,694.6419 Q2976.0156,694.5013 2977.0156,694.1888 L2977.0156,696.0638 Q2976.1563,696.3919 2975.3906,696.5169 Q2974.6406,696.6419 2973.625,696.6419 Q2971.7031,696.6419 2970.3906,695.845 Q2969.0938,695.0325 2968.4375,693.5638 Q2967.7813,692.0794 2967.7813,690.1106 Q2967.7813,688.22 2968.4844,686.7513 Q2969.1875,685.2825 2970.5625,684.4544 Q2971.9375,683.6263 2973.8906,683.6263 Q2975.8594,683.6263 2977.5781,684.4856 L2976.75,686.2669 Q2975.9688,685.8919 2975.3125,685.7044 Q2974.6563,685.5013 2973.8594,685.5013 Z " fill="#000000"/><text fill="#000000" font-family="sans-serif" font-size="14" lengthAdjust="spacing" textLength="67" x="2994.25" y="695.652">RectRoom</text><line style="stroke:#181818;stroke-width:0.5;" x1="2895" x2="3128" y1="706.22" y2="706.22"/><text fill="#000000" font-family="sans-serif" font-size="14" lengthAdjust="spacing" textLength="42" x="2900" y="725.1859">+X: int</text><text fill="#000000" font-family="sans-serif" font-size="14" lengthAdjust="spacing" textLength="42" x="2900" y="744.2539">+Y: int</text><text fill="#000000" font-family="sans-serif" font-size="14" lengthAdjust="spacing" textLength="74" x="2900" y="763.3218">+Width: int</text><text fill="#000000" font-family="sans-serif" font-size="14" lengthAdjust="spacing" textLength="79" x="2900" y="782.3897">+Height: int</text><text fill="#000000" font-family="sans-serif" font-size="14" lengthAdjust="spacing" textLength="114" x="2900" y="801.4576">+Center: Position</text><line style="stroke:#181818;stroke-width:0.5;" x1="2895" x2="3128" y1="809.5596" y2="809.5596"/><text fill="#000000" font-family="sans-serif" font-size="14" lengthAdjust="spacing" textLength="223" x="2900" y="828.5255">Intersects(other: RectRoom): bool</text></g><!--class FilledDungeonProcedure--><g id="elem_FilledDungeonProcedure"><rect codeLine="132" fill="#F1F1F1" height="48" id="FilledDungeonProcedure" rx="2.5" ry="2.5" style="stroke:#181818;stroke-width:0.5;" width="199" x="1393" y="731.43"/><ellipse cx="1408" cy="747.43" fill="#ADD1B2" rx="11" ry="11" style="stroke:#181818;stroke-width:1.0;"/><path d="M1408.1094,742.7113 Q1406.2813,742.7113 1405.2344,743.9456 Q1404.1875,745.1644 1404.1875,747.3519 Q1404.1875,749.5081 1405.1563,750.7425 Q1406.1406,751.9769 1408.0938,751.9769 Q1408.875,751.9769 1409.5625,751.8519 Q1410.2656,751.7113 1411.2656,751.3988 L1411.2656,753.2738 Q1410.4063,753.6019 1409.6406,753.7269 Q1408.8906,753.8519 1407.875,753.8519 Q1405.9531,753.8519 1404.6406,753.055 Q1403.3438,752.2425 1402.6875,750.7738 Q1402.0313,749.2894 1402.0313,747.3206 Q1402.0313,745.43 1402.7344,743.9613 Q1403.4375,742.4925 1404.8125,741.6644 Q1406.1875,740.8363 1408.1406,740.8363 Q1410.1094,740.8363 1411.8281,741.6956 L1411,743.4769 Q1410.2188,743.1019 1409.5625,742.9144 Q1408.9063,742.7113 1408.1094,742.7113 Z " fill="#000000"/><text fill="#000000" font-family="sans-serif" font-size="14" lengthAdjust="spacing" textLength="167" x="1422" y="752.862">FilledDungeonProcedure</text><line style="stroke:#181818;stroke-width:0.5;" x1="1394" x2="1591" y1="763.43" y2="763.43"/><line style="stroke:#181818;stroke-width:0.5;" x1="1394" x2="1591" y1="771.43" y2="771.43"/></g><!--class EmptyDungeonProcedure--><g id="elem_EmptyDungeonProcedure"><rect codeLine="133" fill="#F1F1F1" height="48" id="EmptyDungeonProcedure" rx="2.5" ry="2.5" style="stroke:#181818;stroke-width:0.5;" width="205" x="1627" y="731.43"/><ellipse cx="1642" cy="747.43" fill="#ADD1B2" rx="11" ry="11" style="stroke:#181818;stroke-width:1.0;"/><path d="M1642.1094,742.7113 Q1640.2813,742.7113 1639.2344,743.9456 Q1638.1875,745.1644 1638.1875,747.3519 Q1638.1875,749.5081 1639.1563,750.7425 Q1640.1406,751.9769 1642.0938,751.9769 Q1642.875,751.9769 1643.5625,751.8519 Q1644.2656,751.7113 1645.2656,751.3988 L1645.2656,753.2738 Q1644.4063,753.6019 1643.6406,753.7269 Q1642.8906,753.8519 1641.875,753.8519 Q1639.9531,753.8519 1638.6406,753.055 Q1637.3438,752.2425 1636.6875,750.7738 Q1636.0313,749.2894 1636.0313,747.3206 Q1636.0313,745.43 1636.7344,743.9613 Q1637.4375,742.4925 1638.8125,741.6644 Q1640.1875,740.8363 1642.1406,740.8363 Q1644.1094,740.8363 1645.8281,741.6956 L1645,743.4769 Q1644.2188,743.1019 1643.5625,742.9144 Q1642.9063,742.7113 1642.1094,742.7113 Z " fill="#000000"/><text fill="#000000" font-family="sans-serif" font-size="14" lengthAdjust="spacing" textLength="173" x="1656" y="752.862">EmptyDungeonProcedure</text><line style="stroke:#181818;stroke-width:0.5;" x1="1628" x2="1831" y1="763.43" y2="763.43"/><line style="stroke:#181818;stroke-width:0.5;" x1="1628" x2="1831" y1="771.43" y2="771.43"/></g><!--class CentralRoomProcedure--><g id="elem_CentralRoomProcedure"><rect codeLine="134" fill="#F1F1F1" height="48" id="CentralRoomProcedure" rx="2.5" ry="2.5" style="stroke:#181818;stroke-width:0.5;" width="188" x="1866.5" y="731.43"/><ellipse cx="1881.5" cy="747.43" fill="#ADD1B2" rx="11" ry="11" style="stroke:#181818;stroke-width:1.0;"/><path d="M1881.6094,742.7113 Q1879.7813,742.7113 1878.7344,743.9456 Q1877.6875,745.1644 1877.6875,747.3519 Q1877.6875,749.5081 1878.6563,750.7425 Q1879.6406,751.9769 1881.5938,751.9769 Q1882.375,751.9769 1883.0625,751.8519 Q1883.7656,751.7113 1884.7656,751.3988 L1884.7656,753.2738 Q1883.9063,753.6019 1883.1406,753.7269 Q1882.3906,753.8519 1881.375,753.8519 Q1879.4531,753.8519 1878.1406,753.055 Q1876.8438,752.2425 1876.1875,750.7738 Q1875.5313,749.2894 1875.5313,747.3206 Q1875.5313,745.43 1876.2344,743.9613 Q1876.9375,742.4925 1878.3125,741.6644 Q1879.6875,740.8363 1881.6406,740.8363 Q1883.6094,740.8363 1885.3281,741.6956 L1884.5,743.4769 Q1883.7188,743.1019 1883.0625,742.9144 Q1882.4063,742.7113 1881.6094,742.7113 Z " fill="#000000"/><text fill="#000000" font-family="sans-serif" font-size="14" lengthAdjust="spacing" textLength="156" x="1895.5" y="752.862">CentralRoomProcedure</text><line style="stroke:#181818;stroke-width:0.5;" x1="1867.5" x2="2053.5" y1="763.43" y2="763.43"/><line style="stroke:#181818;stroke-width:0.5;" x1="1867.5" x2="2053.5" y1="771.43" y2="771.43"/></g><!--class ChambersProcedure--><g id="elem_ChambersProcedure"><rect codeLine="135" fill="#F1F1F1" height="48" id="ChambersProcedure" rx="2.5" ry="2.5" style="stroke:#181818;stroke-width:0.5;" width="170" x="2089.5" y="731.43"/><ellipse cx="2104.5" cy="747.43" fill="#ADD1B2" rx="11" ry="11" style="stroke:#181818;stroke-width:1.0;"/><path d="M2104.6094,742.7113 Q2102.7813,742.7113 2101.7344,743.9456 Q2100.6875,745.1644 2100.6875,747.3519 Q2100.6875,749.5081 2101.6563,750.7425 Q2102.6406,751.9769 2104.5938,751.9769 Q2105.375,751.9769 2106.0625,751.8519 Q2106.7656,751.7113 2107.7656,751.3988 L2107.7656,753.2738 Q2106.9063,753.6019 2106.1406,753.7269 Q2105.3906,753.8519 2104.375,753.8519 Q2102.4531,753.8519 2101.1406,753.055 Q2099.8438,752.2425 2099.1875,750.7738 Q2098.5313,749.2894 2098.5313,747.3206 Q2098.5313,745.43 2099.2344,743.9613 Q2099.9375,742.4925 2101.3125,741.6644 Q2102.6875,740.8363 2104.6406,740.8363 Q2106.6094,740.8363 2108.3281,741.6956 L2107.5,743.4769 Q2106.7188,743.1019 2106.0625,742.9144 Q2105.4063,742.7113 2104.6094,742.7113 Z " fill="#000000"/><text fill="#000000" font-family="sans-serif" font-size="14" lengthAdjust="spacing" textLength="138" x="2118.5" y="752.862">ChambersProcedure</text><line style="stroke:#181818;stroke-width:0.5;" x1="2090.5" x2="2258.5" y1="763.43" y2="763.43"/><line style="stroke:#181818;stroke-width:0.5;" x1="2090.5" x2="2258.5" y1="771.43" y2="771.43"/></g><!--class PathsProcedure--><g id="elem_PathsProcedure"><rect codeLine="136" fill="#F1F1F1" height="48" id="PathsProcedure" rx="2.5" ry="2.5" style="stroke:#181818;stroke-width:0.5;" width="138" x="2294.5" y="731.43"/><ellipse cx="2309.5" cy="747.43" fill="#ADD1B2" rx="11" ry="11" style="stroke:#181818;stroke-width:1.0;"/><path d="M2309.6094,742.7113 Q2307.7813,742.7113 2306.7344,743.9456 Q2305.6875,745.1644 2305.6875,747.3519 Q2305.6875,749.5081 2306.6563,750.7425 Q2307.6406,751.9769 2309.5938,751.9769 Q2310.375,751.9769 2311.0625,751.8519 Q2311.7656,751.7113 2312.7656,751.3988 L2312.7656,753.2738 Q2311.9063,753.6019 2311.1406,753.7269 Q2310.3906,753.8519 2309.375,753.8519 Q2307.4531,753.8519 2306.1406,753.055 Q2304.8438,752.2425 2304.1875,750.7738 Q2303.5313,749.2894 2303.5313,747.3206 Q2303.5313,745.43 2304.2344,743.9613 Q2304.9375,742.4925 2306.3125,741.6644 Q2307.6875,740.8363 2309.6406,740.8363 Q2311.6094,740.8363 2313.3281,741.6956 L2312.5,743.4769 Q2311.7188,743.1019 2311.0625,742.9144 Q2310.4063,742.7113 2309.6094,742.7113 Z " fill="#000000"/><text fill="#000000" font-family="sans-serif" font-size="14" lengthAdjust="spacing" textLength="106" x="2323.5" y="752.862">PathsProcedure</text><line style="stroke:#181818;stroke-width:0.5;" x1="2295.5" x2="2431.5" y1="763.43" y2="763.43"/><line style="stroke:#181818;stroke-width:0.5;" x1="2295.5" x2="2431.5" y1="771.43" y2="771.43"/></g><!--class AddItemsProcedure--><g id="elem_AddItemsProcedure"><rect codeLine="137" fill="#F1F1F1" height="48" id="AddItemsProcedure" rx="2.5" ry="2.5" style="stroke:#181818;stroke-width:0.5;" width="166" x="2467.5" y="731.43"/><ellipse cx="2482.5" cy="747.43" fill="#ADD1B2" rx="11" ry="11" style="stroke:#181818;stroke-width:1.0;"/><path d="M2482.6094,742.7113 Q2480.7813,742.7113 2479.7344,743.9456 Q2478.6875,745.1644 2478.6875,747.3519 Q2478.6875,749.5081 2479.6563,750.7425 Q2480.6406,751.9769 2482.5938,751.9769 Q2483.375,751.9769 2484.0625,751.8519 Q2484.7656,751.7113 2485.7656,751.3988 L2485.7656,753.2738 Q2484.9063,753.6019 2484.1406,753.7269 Q2483.3906,753.8519 2482.375,753.8519 Q2480.4531,753.8519 2479.1406,753.055 Q2477.8438,752.2425 2477.1875,750.7738 Q2476.5313,749.2894 2476.5313,747.3206 Q2476.5313,745.43 2477.2344,743.9613 Q2477.9375,742.4925 2479.3125,741.6644 Q2480.6875,740.8363 2482.6406,740.8363 Q2484.6094,740.8363 2486.3281,741.6956 L2485.5,743.4769 Q2484.7188,743.1019 2484.0625,742.9144 Q2483.4063,742.7113 2482.6094,742.7113 Z " fill="#000000"/><text fill="#000000" font-family="sans-serif" font-size="14" lengthAdjust="spacing" textLength="134" x="2496.5" y="752.862">AddItemsProcedure</text><line style="stroke:#181818;stroke-width:0.5;" x1="2468.5" x2="2632.5" y1="763.43" y2="763.43"/><line style="stroke:#181818;stroke-width:0.5;" x1="2468.5" x2="2632.5" y1="771.43" y2="771.43"/></g><!--class AddWeaponsProcedure--><g id="elem_AddWeaponsProcedure"><rect codeLine="138" fill="#F1F1F1" height="48" id="AddWeaponsProcedure" rx="2.5" ry="2.5" style="stroke:#181818;stroke-width:0.5;" width="190" x="2668.5" y="731.43"/><ellipse cx="2683.5" cy="747.43" fill="#ADD1B2" rx="11" ry="11" style="stroke:#181818;stroke-width:1.0;"/><path d="M2683.6094,742.7113 Q2681.7813,742.7113 2680.7344,743.9456 Q2679.6875,745.1644 2679.6875,747.3519 Q2679.6875,749.5081 2680.6563,750.7425 Q2681.6406,751.9769 2683.5938,751.9769 Q2684.375,751.9769 2685.0625,751.8519 Q2685.7656,751.7113 2686.7656,751.3988 L2686.7656,753.2738 Q2685.9063,753.6019 2685.1406,753.7269 Q2684.3906,753.8519 2683.375,753.8519 Q2681.4531,753.8519 2680.1406,753.055 Q2678.8438,752.2425 2678.1875,750.7738 Q2677.5313,749.2894 2677.5313,747.3206 Q2677.5313,745.43 2678.2344,743.9613 Q2678.9375,742.4925 2680.3125,741.6644 Q2681.6875,740.8363 2683.6406,740.8363 Q2685.6094,740.8363 2687.3281,741.6956 L2686.5,743.4769 Q2685.7188,743.1019 2685.0625,742.9144 Q2684.4063,742.7113 2683.6094,742.7113 Z " fill="#000000"/><text fill="#000000" font-family="sans-serif" font-size="14" lengthAdjust="spacing" textLength="158" x="2697.5" y="752.862">AddWeaponsProcedure</text><line style="stroke:#181818;stroke-width:0.5;" x1="2669.5" x2="2857.5" y1="763.43" y2="763.43"/><line style="stroke:#181818;stroke-width:0.5;" x1="2669.5" x2="2857.5" y1="771.43" y2="771.43"/></g><!--class IDungeonStrategy--><g id="elem_IDungeonStrategy"><rect codeLine="140" fill="#F1F1F1" height="67.0679" id="IDungeonStrategy" rx="2.5" ry="2.5" style="stroke:#181818;stroke-width:0.5;" width="183" x="3268" y="26.07"/><ellipse cx="3299.65" cy="42.07" fill="#B4A7E5" rx="11" ry="11" style="stroke:#181818;stroke-width:1.0;"/><path d="M3301.7438,48.57 L3296.8375,48.57 L3296.8375,47.195 L3298.2594,46.8825 L3298.2594,37.6012 L3296.8375,37.2575 L3296.8375,35.8981 L3301.7438,35.8981 L3301.7438,37.2575 L3300.3219,37.6012 L3300.3219,46.8825 L3301.7438,47.195 L3301.7438,48.57 Z " fill="#000000"/><text fill="#000000" font-family="sans-serif" font-size="14" font-style="italic" lengthAdjust="spacing" textLength="114" x="3317.35" y="47.502">IDungeonStrategy</text><line style="stroke:#181818;stroke-width:0.5;" x1="3269" x2="3450" y1="58.07" y2="58.07"/><line style="stroke:#181818;stroke-width:0.5;" x1="3269" x2="3450" y1="66.07" y2="66.07"/><text fill="#000000" font-family="sans-serif" font-size="14" lengthAdjust="spacing" textLength="171" x="3274" y="85.0359">Create(): DungeonBuilder</text></g><!--class DungeonGroundsStrategy--><g id="elem_DungeonGroundsStrategy"><rect codeLine="144" fill="#F1F1F1" height="48" id="DungeonGroundsStrategy" rx="2.5" ry="2.5" style="stroke:#181818;stroke-width:0.5;" width="208" x="3255.5" y="267.54"/><ellipse cx="3270.5" cy="283.54" fill="#ADD1B2" rx="11" ry="11" style="stroke:#181818;stroke-width:1.0;"/><path d="M3270.6094,278.8213 Q3268.7813,278.8213 3267.7344,280.0556 Q3266.6875,281.2744 3266.6875,283.4619 Q3266.6875,285.6181 3267.6563,286.8525 Q3268.6406,288.0869 3270.5938,288.0869 Q3271.375,288.0869 3272.0625,287.9619 Q3272.7656,287.8213 3273.7656,287.5088 L3273.7656,289.3838 Q3272.9063,289.7119 3272.1406,289.8369 Q3271.3906,289.9619 3270.375,289.9619 Q3268.4531,289.9619 3267.1406,289.165 Q3265.8438,288.3525 3265.1875,286.8838 Q3264.5313,285.3994 3264.5313,283.4306 Q3264.5313,281.54 3265.2344,280.0713 Q3265.9375,278.6025 3267.3125,277.7744 Q3268.6875,276.9463 3270.6406,276.9463 Q3272.6094,276.9463 3274.3281,277.8056 L3273.5,279.5869 Q3272.7188,279.2119 3272.0625,279.0244 Q3271.4063,278.8213 3270.6094,278.8213 Z " fill="#000000"/><text fill="#000000" font-family="sans-serif" font-size="14" lengthAdjust="spacing" textLength="176" x="3284.5" y="288.972">DungeonGroundsStrategy</text><line style="stroke:#181818;stroke-width:0.5;" x1="3256.5" x2="3462.5" y1="299.54" y2="299.54"/><line style="stroke:#181818;stroke-width:0.5;" x1="3256.5" x2="3462.5" y1="307.54" y2="307.54"/></g><!--class ConsoleRenderer--><g id="elem_ConsoleRenderer"><rect codeLine="147" fill="#F1F1F1" height="67.0679" id="ConsoleRenderer" rx="2.5" ry="2.5" style="stroke:#181818;stroke-width:0.5;" width="420" x="415.5" y="26.07"/><ellipse cx="563.25" cy="42.07" fill="#ADD1B2" rx="11" ry="11" style="stroke:#181818;stroke-width:1.0;"/><path d="M563.3594,37.3512 Q561.5313,37.3512 560.4844,38.5856 Q559.4375,39.8044 559.4375,41.9919 Q559.4375,44.1481 560.4063,45.3825 Q561.3906,46.6169 563.3438,46.6169 Q564.125,46.6169 564.8125,46.4919 Q565.5156,46.3512 566.5156,46.0387 L566.5156,47.9137 Q565.6563,48.2419 564.8906,48.3669 Q564.1406,48.4919 563.125,48.4919 Q561.2031,48.4919 559.8906,47.695 Q558.5938,46.8825 557.9375,45.4137 Q557.2813,43.9294 557.2813,41.9606 Q557.2813,40.07 557.9844,38.6012 Q558.6875,37.1325 560.0625,36.3044 Q561.4375,35.4762 563.3906,35.4762 Q565.3594,35.4762 567.0781,36.3356 L566.25,38.1169 Q565.4688,37.7419 564.8125,37.5544 Q564.1563,37.3512 563.3594,37.3512 Z " fill="#000000"/><text fill="#000000" font-family="sans-serif" font-size="14" lengthAdjust="spacing" textLength="116" x="583.75" y="47.502">ConsoleRenderer</text><line style="stroke:#181818;stroke-width:0.5;" x1="416.5" x2="834.5" y1="58.07" y2="58.07"/><line style="stroke:#181818;stroke-width:0.5;" x1="416.5" x2="834.5" y1="66.07" y2="66.07"/><text fill="#000000" font-family="sans-serif" font-size="14" lengthAdjust="spacing" textLength="408" x="421.5" y="85.0359">Render(level: Level, player: Player, inventory: Inventory): void</text></g><!--class IInputCommand--><g id="elem_IInputCommand"><rect codeLine="152" fill="#F1F1F1" height="67.0679" id="IInputCommand" rx="2.5" ry="2.5" style="stroke:#181818;stroke-width:0.5;" width="280" x="3900.5" y="258.01"/><ellipse cx="3984.75" cy="274.01" fill="#B4A7E5" rx="11" ry="11" style="stroke:#181818;stroke-width:1.0;"/><path d="M3986.8438,280.51 L3981.9375,280.51 L3981.9375,279.135 L3983.3594,278.8225 L3983.3594,269.5413 L3981.9375,269.1975 L3981.9375,267.8381 L3986.8438,267.8381 L3986.8438,269.1975 L3985.4219,269.5413 L3985.4219,278.8225 L3986.8438,279.135 L3986.8438,280.51 Z " fill="#000000"/><text fill="#000000" font-family="sans-serif" font-size="14" font-style="italic" lengthAdjust="spacing" textLength="103" x="4005.25" y="279.442">IInputCommand</text><line style="stroke:#181818;stroke-width:0.5;" x1="3901.5" x2="4179.5" y1="290.01" y2="290.01"/><line style="stroke:#181818;stroke-width:0.5;" x1="3901.5" x2="4179.5" y1="298.01" y2="298.01"/><text fill="#000000" font-family="sans-serif" font-size="14" lengthAdjust="spacing" textLength="268" x="3906.5" y="316.9759">Execute(player: Player, level: Level): void</text></g><!--class InputHandler--><g id="elem_InputHandler"><rect codeLine="156" fill="#F1F1F1" height="67.0679" id="InputHandler" rx="2.5" ry="2.5" style="stroke:#181818;stroke-width:0.5;" width="316" x="3882.5" y="26.07"/><ellipse cx="3990.75" cy="42.07" fill="#ADD1B2" rx="11" ry="11" style="stroke:#181818;stroke-width:1.0;"/><path d="M3990.8594,37.3512 Q3989.0313,37.3512 3987.9844,38.5856 Q3986.9375,39.8044 3986.9375,41.9919 Q3986.9375,44.1481 3987.9063,45.3825 Q3988.8906,46.6169 3990.8438,46.6169 Q3991.625,46.6169 3992.3125,46.4919 Q3993.0156,46.3512 3994.0156,46.0387 L3994.0156,47.9137 Q3993.1563,48.2419 3992.3906,48.3669 Q3991.6406,48.4919 3990.625,48.4919 Q3988.7031,48.4919 3987.3906,47.695 Q3986.0938,46.8825 3985.4375,45.4137 Q3984.7813,43.9294 3984.7813,41.9606 Q3984.7813,40.07 3985.4844,38.6012 Q3986.1875,37.1325 3987.5625,36.3044 Q3988.9375,35.4762 3990.8906,35.4762 Q3992.8594,35.4762 3994.5781,36.3356 L3993.75,38.1169 Q3992.9688,37.7419 3992.3125,37.5544 Q3991.6563,37.3512 3990.8594,37.3512 Z " fill="#000000"/><text fill="#000000" font-family="sans-serif" font-size="14" lengthAdjust="spacing" textLength="91" x="4011.25" y="47.502">InputHandler</text><line style="stroke:#181818;stroke-width:0.5;" x1="3883.5" x2="4197.5" y1="58.07" y2="58.07"/><line style="stroke:#181818;stroke-width:0.5;" x1="3883.5" x2="4197.5" y1="66.07" y2="66.07"/><text fill="#000000" font-family="sans-serif" font-size="14" lengthAdjust="spacing" textLength="304" x="3888.5" y="85.0359">ProcessInput(player: Player, level: Level): void</text></g><!--class MoveUpCommand--><g id="elem_MoveUpCommand"><rect codeLine="160" fill="#F1F1F1" height="48" id="MoveUpCommand" rx="2.5" ry="2.5" style="stroke:#181818;stroke-width:0.5;" width="156" x="2970.5" y="518.55"/><ellipse cx="2985.5" cy="534.55" fill="#ADD1B2" rx="11" ry="11" style="stroke:#181818;stroke-width:1.0;"/><path d="M2985.6094,529.8313 Q2983.7813,529.8313 2982.7344,531.0656 Q2981.6875,532.2844 2981.6875,534.4719 Q2981.6875,536.6281 2982.6563,537.8625 Q2983.6406,539.0969 2985.5938,539.0969 Q2986.375,539.0969 2987.0625,538.9719 Q2987.7656,538.8313 2988.7656,538.5188 L2988.7656,540.3938 Q2987.9063,540.7219 2987.1406,540.8469 Q2986.3906,540.9719 2985.375,540.9719 Q2983.4531,540.9719 2982.1406,540.175 Q2980.8438,539.3625 2980.1875,537.8938 Q2979.5313,536.4094 2979.5313,534.4406 Q2979.5313,532.55 2980.2344,531.0813 Q2980.9375,529.6125 2982.3125,528.7844 Q2983.6875,527.9563 2985.6406,527.9563 Q2987.6094,527.9563 2989.3281,528.8156 L2988.5,530.5969 Q2987.7188,530.2219 2987.0625,530.0344 Q2986.4063,529.8313 2985.6094,529.8313 Z " fill="#000000"/><text fill="#000000" font-family="sans-serif" font-size="14" lengthAdjust="spacing" textLength="124" x="2999.5" y="539.982">MoveUpCommand</text><line style="stroke:#181818;stroke-width:0.5;" x1="2971.5" x2="3125.5" y1="550.55" y2="550.55"/><line style="stroke:#181818;stroke-width:0.5;" x1="2971.5" x2="3125.5" y1="558.55" y2="558.55"/></g><!--class MoveDownCommand--><g id="elem_MoveDownCommand"><rect codeLine="161" fill="#F1F1F1" height="48" id="MoveDownCommand" rx="2.5" ry="2.5" style="stroke:#181818;stroke-width:0.5;" width="175" x="3162" y="518.55"/><ellipse cx="3177" cy="534.55" fill="#ADD1B2" rx="11" ry="11" style="stroke:#181818;stroke-width:1.0;"/><path d="M3177.1094,529.8313 Q3175.2813,529.8313 3174.2344,531.0656 Q3173.1875,532.2844 3173.1875,534.4719 Q3173.1875,536.6281 3174.1563,537.8625 Q3175.1406,539.0969 3177.0938,539.0969 Q3177.875,539.0969 3178.5625,538.9719 Q3179.2656,538.8313 3180.2656,538.5188 L3180.2656,540.3938 Q3179.4063,540.7219 3178.6406,540.8469 Q3177.8906,540.9719 3176.875,540.9719 Q3174.9531,540.9719 3173.6406,540.175 Q3172.3438,539.3625 3171.6875,537.8938 Q3171.0313,536.4094 3171.0313,534.4406 Q3171.0313,532.55 3171.7344,531.0813 Q3172.4375,529.6125 3173.8125,528.7844 Q3175.1875,527.9563 3177.1406,527.9563 Q3179.1094,527.9563 3180.8281,528.8156 L3180,530.5969 Q3179.2188,530.2219 3178.5625,530.0344 Q3177.9063,529.8313 3177.1094,529.8313 Z " fill="#000000"/><text fill="#000000" font-family="sans-serif" font-size="14" lengthAdjust="spacing" textLength="143" x="3191" y="539.982">MoveDownCommand</text><line style="stroke:#181818;stroke-width:0.5;" x1="3163" x2="3336" y1="550.55" y2="550.55"/><line style="stroke:#181818;stroke-width:0.5;" x1="3163" x2="3336" y1="558.55" y2="558.55"/></g><!--class MoveLeftCommand--><g id="elem_MoveLeftCommand"><rect codeLine="162" fill="#F1F1F1" height="48" id="MoveLeftCommand" rx="2.5" ry="2.5" style="stroke:#181818;stroke-width:0.5;" width="162" x="3372.5" y="518.55"/><ellipse cx="3387.5" cy="534.55" fill="#ADD1B2" rx="11" ry="11" style="stroke:#181818;stroke-width:1.0;"/><path d="M3387.6094,529.8313 Q3385.7813,529.8313 3384.7344,531.0656 Q3383.6875,532.2844 3383.6875,534.4719 Q3383.6875,536.6281 3384.6563,537.8625 Q3385.6406,539.0969 3387.5938,539.0969 Q3388.375,539.0969 3389.0625,538.9719 Q3389.7656,538.8313 3390.7656,538.5188 L3390.7656,540.3938 Q3389.9063,540.7219 3389.1406,540.8469 Q3388.3906,540.9719 3387.375,540.9719 Q3385.4531,540.9719 3384.1406,540.175 Q3382.8438,539.3625 3382.1875,537.8938 Q3381.5313,536.4094 3381.5313,534.4406 Q3381.5313,532.55 3382.2344,531.0813 Q3382.9375,529.6125 3384.3125,528.7844 Q3385.6875,527.9563 3387.6406,527.9563 Q3389.6094,527.9563 3391.3281,528.8156 L3390.5,530.5969 Q3389.7188,530.2219 3389.0625,530.0344 Q3388.4063,529.8313 3387.6094,529.8313 Z " fill="#000000"/><text fill="#000000" font-family="sans-serif" font-size="14" lengthAdjust="spacing" textLength="130" x="3401.5" y="539.982">MoveLeftCommand</text><line style="stroke:#181818;stroke-width:0.5;" x1="3373.5" x2="3533.5" y1="550.55" y2="550.55"/><line style="stroke:#181818;stroke-width:0.5;" x1="3373.5" x2="3533.5" y1="558.55" y2="558.55"/></g><!--class MoveRightCommand--><g id="elem_MoveRightCommand"><rect codeLine="163" fill="#F1F1F1" height="48" id="MoveRightCommand" rx="2.5" ry="2.5" style="stroke:#181818;stroke-width:0.5;" width="173" x="3570" y="518.55"/><ellipse cx="3585" cy="534.55" fill="#ADD1B2" rx="11" ry="11" style="stroke:#181818;stroke-width:1.0;"/><path d="M3585.1094,529.8313 Q3583.2813,529.8313 3582.2344,531.0656 Q3581.1875,532.2844 3581.1875,534.4719 Q3581.1875,536.6281 3582.1563,537.8625 Q3583.1406,539.0969 3585.0938,539.0969 Q3585.875,539.0969 3586.5625,538.9719 Q3587.2656,538.8313 3588.2656,538.5188 L3588.2656,540.3938 Q3587.4063,540.7219 3586.6406,540.8469 Q3585.8906,540.9719 3584.875,540.9719 Q3582.9531,540.9719 3581.6406,540.175 Q3580.3438,539.3625 3579.6875,537.8938 Q3579.0313,536.4094 3579.0313,534.4406 Q3579.0313,532.55 3579.7344,531.0813 Q3580.4375,529.6125 3581.8125,528.7844 Q3583.1875,527.9563 3585.1406,527.9563 Q3587.1094,527.9563 3588.8281,528.8156 L3588,530.5969 Q3587.2188,530.2219 3586.5625,530.0344 Q3585.9063,529.8313 3585.1094,529.8313 Z " fill="#000000"/><text fill="#000000" font-family="sans-serif" font-size="14" lengthAdjust="spacing" textLength="141" x="3599" y="539.982">MoveRightCommand</text><line style="stroke:#181818;stroke-width:0.5;" x1="3571" x2="3742" y1="550.55" y2="550.55"/><line style="stroke:#181818;stroke-width:0.5;" x1="3571" x2="3742" y1="558.55" y2="558.55"/></g><!--class InventoryToLeftHandCommand--><g id="elem_InventoryToLeftHandCommand"><rect codeLine="164" fill="#F1F1F1" height="48" id="InventoryToLeftHandCommand" rx="2.5" ry="2.5" style="stroke:#181818;stroke-width:0.5;" width="242" x="3778.5" y="518.55"/><ellipse cx="3793.5" cy="534.55" fill="#ADD1B2" rx="11" ry="11" style="stroke:#181818;stroke-width:1.0;"/><path d="M3793.6094,529.8313 Q3791.7813,529.8313 3790.7344,531.0656 Q3789.6875,532.2844 3789.6875,534.4719 Q3789.6875,536.6281 3790.6563,537.8625 Q3791.6406,539.0969 3793.5938,539.0969 Q3794.375,539.0969 3795.0625,538.9719 Q3795.7656,538.8313 3796.7656,538.5188 L3796.7656,540.3938 Q3795.9063,540.7219 3795.1406,540.8469 Q3794.3906,540.9719 3793.375,540.9719 Q3791.4531,540.9719 3790.1406,540.175 Q3788.8438,539.3625 3788.1875,537.8938 Q3787.5313,536.4094 3787.5313,534.4406 Q3787.5313,532.55 3788.2344,531.0813 Q3788.9375,529.6125 3790.3125,528.7844 Q3791.6875,527.9563 3793.6406,527.9563 Q3795.6094,527.9563 3797.3281,528.8156 L3796.5,530.5969 Q3795.7188,530.2219 3795.0625,530.0344 Q3794.4063,529.8313 3793.6094,529.8313 Z " fill="#000000"/><text fill="#000000" font-family="sans-serif" font-size="14" lengthAdjust="spacing" textLength="210" x="3807.5" y="539.982">InventoryToLeftHandCommand</text><line style="stroke:#181818;stroke-width:0.5;" x1="3779.5" x2="4019.5" y1="550.55" y2="550.55"/><line style="stroke:#181818;stroke-width:0.5;" x1="3779.5" x2="4019.5" y1="558.55" y2="558.55"/></g><!--class InventoryToRightHandCommand--><g id="elem_InventoryToRightHandCommand"><rect codeLine="165" fill="#F1F1F1" height="48" id="InventoryToRightHandCommand" rx="2.5" ry="2.5" style="stroke:#181818;stroke-width:0.5;" width="253" x="4056" y="518.55"/><ellipse cx="4071" cy="534.55" fill="#ADD1B2" rx="11" ry="11" style="stroke:#181818;stroke-width:1.0;"/><path d="M4071.1094,529.8313 Q4069.2813,529.8313 4068.2344,531.0656 Q4067.1875,532.2844 4067.1875,534.4719 Q4067.1875,536.6281 4068.1563,537.8625 Q4069.1406,539.0969 4071.0938,539.0969 Q4071.875,539.0969 4072.5625,538.9719 Q4073.2656,538.8313 4074.2656,538.5188 L4074.2656,540.3938 Q4073.4063,540.7219 4072.6406,540.8469 Q4071.8906,540.9719 4070.875,540.9719 Q4068.9531,540.9719 4067.6406,540.175 Q4066.3438,539.3625 4065.6875,537.8938 Q4065.0313,536.4094 4065.0313,534.4406 Q4065.0313,532.55 4065.7344,531.0813 Q4066.4375,529.6125 4067.8125,528.7844 Q4069.1875,527.9563 4071.1406,527.9563 Q4073.1094,527.9563 4074.8281,528.8156 L4074,530.5969 Q4073.2188,530.2219 4072.5625,530.0344 Q4071.9063,529.8313 4071.1094,529.8313 Z " fill="#000000"/><text fill="#000000" font-family="sans-serif" font-size="14" lengthAdjust="spacing" textLength="221" x="4085" y="539.982">InventoryToRightHandCommand</text><line style="stroke:#181818;stroke-width:0.5;" x1="4057" x2="4308" y1="550.55" y2="550.55"/><line style="stroke:#181818;stroke-width:0.5;" x1="4057" x2="4308" y1="558.55" y2="558.55"/></g><!--class DropLeftCommand--><g id="elem_DropLeftCommand"><rect codeLine="166" fill="#F1F1F1" height="48" id="DropLeftCommand" rx="2.5" ry="2.5" style="stroke:#181818;stroke-width:0.5;" width="159" x="4344" y="518.55"/><ellipse cx="4359" cy="534.55" fill="#ADD1B2" rx="11" ry="11" style="stroke:#181818;stroke-width:1.0;"/><path d="M4359.1094,529.8313 Q4357.2813,529.8313 4356.2344,531.0656 Q4355.1875,532.2844 4355.1875,534.4719 Q4355.1875,536.6281 4356.1563,537.8625 Q4357.1406,539.0969 4359.0938,539.0969 Q4359.875,539.0969 4360.5625,538.9719 Q4361.2656,538.8313 4362.2656,538.5188 L4362.2656,540.3938 Q4361.4063,540.7219 4360.6406,540.8469 Q4359.8906,540.9719 4358.875,540.9719 Q4356.9531,540.9719 4355.6406,540.175 Q4354.3438,539.3625 4353.6875,537.8938 Q4353.0313,536.4094 4353.0313,534.4406 Q4353.0313,532.55 4353.7344,531.0813 Q4354.4375,529.6125 4355.8125,528.7844 Q4357.1875,527.9563 4359.1406,527.9563 Q4361.1094,527.9563 4362.8281,528.8156 L4362,530.5969 Q4361.2188,530.2219 4360.5625,530.0344 Q4359.9063,529.8313 4359.1094,529.8313 Z " fill="#000000"/><text fill="#000000" font-family="sans-serif" font-size="14" lengthAdjust="spacing" textLength="127" x="4373" y="539.982">DropLeftCommand</text><line style="stroke:#181818;stroke-width:0.5;" x1="4345" x2="4502" y1="550.55" y2="550.55"/><line style="stroke:#181818;stroke-width:0.5;" x1="4345" x2="4502" y1="558.55" y2="558.55"/></g><!--class DropRightCommand--><g id="elem_DropRightCommand"><rect codeLine="167" fill="#F1F1F1" height="48" id="DropRightCommand" rx="2.5" ry="2.5" style="stroke:#181818;stroke-width:0.5;" width="170" x="4537.5" y="518.55"/><ellipse cx="4552.5" cy="534.55" fill="#ADD1B2" rx="11" ry="11" style="stroke:#181818;stroke-width:1.0;"/><path d="M4552.6094,529.8313 Q4550.7813,529.8313 4549.7344,531.0656 Q4548.6875,532.2844 4548.6875,534.4719 Q4548.6875,536.6281 4549.6563,537.8625 Q4550.6406,539.0969 4552.5938,539.0969 Q4553.375,539.0969 4554.0625,538.9719 Q4554.7656,538.8313 4555.7656,538.5188 L4555.7656,540.3938 Q4554.9063,540.7219 4554.1406,540.8469 Q4553.3906,540.9719 4552.375,540.9719 Q4550.4531,540.9719 4549.1406,540.175 Q4547.8438,539.3625 4547.1875,537.8938 Q4546.5313,536.4094 4546.5313,534.4406 Q4546.5313,532.55 4547.2344,531.0813 Q4547.9375,529.6125 4549.3125,528.7844 Q4550.6875,527.9563 4552.6406,527.9563 Q4554.6094,527.9563 4556.3281,528.8156 L4555.5,530.5969 Q4554.7188,530.2219 4554.0625,530.0344 Q4553.4063,529.8313 4552.6094,529.8313 Z " fill="#000000"/><text fill="#000000" font-family="sans-serif" font-size="14" lengthAdjust="spacing" textLength="138" x="4566.5" y="539.982">DropRightCommand</text><line style="stroke:#181818;stroke-width:0.5;" x1="4538.5" x2="4706.5" y1="550.55" y2="550.55"/><line style="stroke:#181818;stroke-width:0.5;" x1="4538.5" x2="4706.5" y1="558.55" y2="558.55"/></g><!--class TakeToInventoryCommand--><g id="elem_TakeToInventoryCommand"><rect codeLine="168" fill="#F1F1F1" height="48" id="TakeToInventoryCommand" rx="2.5" ry="2.5" style="stroke:#181818;stroke-width:0.5;" width="212" x="4742.5" y="518.55"/><ellipse cx="4757.5" cy="534.55" fill="#ADD1B2" rx="11" ry="11" style="stroke:#181818;stroke-width:1.0;"/><path d="M4757.6094,529.8313 Q4755.7813,529.8313 4754.7344,531.0656 Q4753.6875,532.2844 4753.6875,534.4719 Q4753.6875,536.6281 4754.6563,537.8625 Q4755.6406,539.0969 4757.5938,539.0969 Q4758.375,539.0969 4759.0625,538.9719 Q4759.7656,538.8313 4760.7656,538.5188 L4760.7656,540.3938 Q4759.9063,540.7219 4759.1406,540.8469 Q4758.3906,540.9719 4757.375,540.9719 Q4755.4531,540.9719 4754.1406,540.175 Q4752.8438,539.3625 4752.1875,537.8938 Q4751.5313,536.4094 4751.5313,534.4406 Q4751.5313,532.55 4752.2344,531.0813 Q4752.9375,529.6125 4754.3125,528.7844 Q4755.6875,527.9563 4757.6406,527.9563 Q4759.6094,527.9563 4761.3281,528.8156 L4760.5,530.5969 Q4759.7188,530.2219 4759.0625,530.0344 Q4758.4063,529.8313 4757.6094,529.8313 Z " fill="#000000"/><text fill="#000000" font-family="sans-serif" font-size="14" lengthAdjust="spacing" textLength="180" x="4771.5" y="539.982">TakeToInventoryCommand</text><line style="stroke:#181818;stroke-width:0.5;" x1="4743.5" x2="4953.5" y1="550.55" y2="550.55"/><line style="stroke:#181818;stroke-width:0.5;" x1="4743.5" x2="4953.5" y1="558.55" y2="558.55"/></g><!--class QuitGameCommand--><g id="elem_QuitGameCommand"><rect codeLine="169" fill="#F1F1F1" height="48" id="QuitGameCommand" rx="2.5" ry="2.5" style="stroke:#181818;stroke-width:0.5;" width="169" x="4989" y="518.55"/><ellipse cx="5004" cy="534.55" fill="#ADD1B2" rx="11" ry="11" style="stroke:#181818;stroke-width:1.0;"/><path d="M5004.1094,529.8313 Q5002.2813,529.8313 5001.2344,531.0656 Q5000.1875,532.2844 5000.1875,534.4719 Q5000.1875,536.6281 5001.1563,537.8625 Q5002.1406,539.0969 5004.0938,539.0969 Q5004.875,539.0969 5005.5625,538.9719 Q5006.2656,538.8313 5007.2656,538.5188 L5007.2656,540.3938 Q5006.4063,540.7219 5005.6406,540.8469 Q5004.8906,540.9719 5003.875,540.9719 Q5001.9531,540.9719 5000.6406,540.175 Q4999.3438,539.3625 4998.6875,537.8938 Q4998.0313,536.4094 4998.0313,534.4406 Q4998.0313,532.55 4998.7344,531.0813 Q4999.4375,529.6125 5000.8125,528.7844 Q5002.1875,527.9563 5004.1406,527.9563 Q5006.1094,527.9563 5007.8281,528.8156 L5007,530.5969 Q5006.2188,530.2219 5005.5625,530.0344 Q5004.9063,529.8313 5004.1094,529.8313 Z " fill="#000000"/><text fill="#000000" font-family="sans-serif" font-size="14" lengthAdjust="spacing" textLength="137" x="5018" y="539.982">QuitGameCommand</text><line style="stroke:#181818;stroke-width:0.5;" x1="4990" x2="5157" y1="550.55" y2="550.55"/><line style="stroke:#181818;stroke-width:0.5;" x1="4990" x2="5157" y1="558.55" y2="558.55"/></g><!--reverse link IItem to IEquippable--><g id="link_IItem_IEquippable"><path codeLine="172" d="M820.4006,613.3767 C753.9606,647.7267 688.87,681.36 629.55,712.02 " fill="none" id="IItem-backto-IEquippable" style="stroke:#181818;stroke-width:1.0;stroke-dasharray:7.0,7.0;"/><polygon fill="none" points="836.39,605.11,817.645,608.0469,823.1561,618.7065,836.39,605.11" style="stroke:#181818;stroke-width:1.0;"/></g><!--reverse link IEquippable to Weapon--><g id="link_IEquippable_Weapon"><path codeLine="173" d="M547.5,816.63 C547.5,845 547.5,864.84 547.5,896.51 " fill="none" id="IEquippable-backto-Weapon" style="stroke:#181818;stroke-width:1.0;stroke-dasharray:7.0,7.0;"/><polygon fill="none" points="547.5,798.63,541.5,816.63,553.5,816.63,547.5,798.63" style="stroke:#181818;stroke-width:1.0;"/></g><!--reverse link Weapon to Sword--><g id="link_Weapon_Sword"><path codeLine="174" d="M482.3911,1034.9909 C461.4311,1059.2109 450.44,1071.91 434.63,1090.18 " fill="none" id="Weapon-backto-Sword" style="stroke:#181818;stroke-width:1.0;"/><polygon fill="none" points="494.17,1021.38,477.8541,1031.0646,486.9281,1038.9172,494.17,1021.38" style="stroke:#181818;stroke-width:1.0;"/></g><!--reverse link Weapon to DoubleSword--><g id="link_Weapon_DoubleSword"><path codeLine="175" d="M547.5,1039.38 C547.5,1063.6 547.5,1071.91 547.5,1090.18 " fill="none" id="Weapon-backto-DoubleSword" style="stroke:#181818;stroke-width:1.0;"/><polygon fill="none" points="547.5,1021.38,541.5,1039.38,553.5,1039.38,547.5,1021.38" style="stroke:#181818;stroke-width:1.0;"/></g><!--reverse link IItem to Coin--><g id="link_IItem_Coin"><path codeLine="176" d="M919.6601,621.4639 C900.2601,663.6539 883.13,700.89 869.26,731.04 " fill="none" id="IItem-backto-Coin" style="stroke:#181818;stroke-width:1.0;stroke-dasharray:7.0,7.0;"/><polygon fill="none" points="927.18,605.11,914.2088,618.9573,925.1114,623.9706,927.18,605.11" style="stroke:#181818;stroke-width:1.0;"/></g><!--reverse link IItem to Gold--><g id="link_IItem_Gold"><path codeLine="177" d="M955.5,623.11 C955.5,665.3 955.5,700.89 955.5,731.04 " fill="none" id="IItem-backto-Gold" style="stroke:#181818;stroke-width:1.0;stroke-dasharray:7.0,7.0;"/><polygon fill="none" points="955.5,605.11,949.5,623.11,961.5,623.11,955.5,605.11" style="stroke:#181818;stroke-width:1.0;"/></g><!--reverse link IItem to Potion--><g id="link_IItem_Potion"><path codeLine="178" d="M993.8225,621.2531 C1014.6325,663.4431 1033.09,700.89 1047.97,731.04 " fill="none" id="IItem-backto-Potion" style="stroke:#181818;stroke-width:1.0;stroke-dasharray:7.0,7.0;"/><polygon fill="none" points="985.86,605.11,988.4415,623.9072,999.2035,618.5989,985.86,605.11" style="stroke:#181818;stroke-width:1.0;"/></g><!--reverse link Tile to FloorTile--><g id="link_Tile_FloorTile"><path codeLine="180" d="M1205.6335,603.9118 C1202.1135,647.5718 1198.21,696.06 1195.39,731.02 " fill="none" id="Tile-backto-FloorTile" style="stroke:#181818;stroke-width:1.0;"/><polygon fill="none" points="1207.08,585.97,1199.6529,603.4296,1211.6141,604.394,1207.08,585.97" style="stroke:#181818;stroke-width:1.0;"/></g><!--reverse link Tile to WallTile--><g id="link_Tile_WallTile"><path codeLine="181" d="M1239.6433,602.083 C1261.3833,645.743 1286.44,696.06 1303.85,731.02 " fill="none" id="Tile-backto-WallTile" style="stroke:#181818;stroke-width:1.0;"/><polygon fill="none" points="1231.62,585.97,1234.2723,604.7574,1245.0142,599.4085,1231.62,585.97" style="stroke:#181818;stroke-width:1.0;"/></g><!--reverse link Character to Player--><g id="link_Character_Player"><path codeLine="183" d="M367.4574,474.9836 C383.8574,452.0736 392.19,438.77 409.88,411.21 " fill="none" id="Character-backto-Player" style="stroke:#181818;stroke-width:1.0;"/><polygon fill="none" points="356.98,489.62,372.3362,478.4761,362.5786,471.4911,356.98,489.62" style="stroke:#181818;stroke-width:1.0;"/></g><!--link Player to Character--><g id="link_Player_Character"><path codeLine="216" d="M383.66,411.21 C365.72,438.77 351.3871,461.5122 338.1771,484.4222 " fill="none" id="Player-to-Character" style="stroke:#181818;stroke-width:1.0;"/><polygon fill="#181818" points="335.18,489.62,343.1409,483.8213,337.6776,485.2885,336.2104,479.8252,335.18,489.62" style="stroke:#181818;stroke-width:1.0;"/></g><!--reverse link HandOccupation to OneHandOccupation--><g id="link_HandOccupation_OneHandOccupation"><path codeLine="185" d="M707.9367,1161.6075 C690.8767,1180.5575 681.87,1190.56 666.51,1207.63 " fill="none" id="HandOccupation-backto-OneHandOccupation" style="stroke:#181818;stroke-width:1.0;"/><polygon fill="none" points="719.98,1148.23,703.4775,1157.5931,712.3959,1165.622,719.98,1148.23" style="stroke:#181818;stroke-width:1.0;"/></g><!--reverse link HandOccupation to TwoHandOccupation--><g id="link_HandOccupation_TwoHandOccupation"><path codeLine="186" d="M791.0633,1161.6075 C808.1233,1180.5575 817.13,1190.56 832.49,1207.63 " fill="none" id="HandOccupation-backto-TwoHandOccupation" style="stroke:#181818;stroke-width:1.0;"/><polygon fill="none" points="779.02,1148.23,786.6041,1165.622,795.5225,1157.5931,779.02,1148.23" style="stroke:#181818;stroke-width:1.0;"/></g><!--reverse link IMapGenerator to DungeonBuilder--><g id="link_IMapGenerator_DungeonBuilder"><path codeLine="188" d="M2522.5,111.55 C2522.5,152.28 2522.5,203.67 2522.5,248.29 " fill="none" id="IMapGenerator-backto-DungeonBuilder" style="stroke:#181818;stroke-width:1.0;stroke-dasharray:7.0,7.0;"/><polygon fill="none" points="2522.5,93.55,2516.5,111.55,2528.5,111.55,2522.5,93.55" style="stroke:#181818;stroke-width:1.0;"/></g><!--reverse link IDungeonProcedure to FilledDungeonProcedure--><g id="link_IDungeonProcedure_FilledDungeonProcedure"><path codeLine="189" d="M2057.1541,563.3531 C1922.5141,580.4931 1758.93,611.34 1609.5,674.22 C1575.91,688.36 1542.05,712.96 1519.46,731.2 " fill="none" id="IDungeonProcedure-backto-FilledDungeonProcedure" style="stroke:#181818;stroke-width:1.0;stroke-dasharray:7.0,7.0;"/><polygon fill="none" points="2075.01,561.08,2056.3964,557.4011,2057.9118,569.3051,2075.01,561.08" style="stroke:#181818;stroke-width:1.0;"/></g><!--reverse link IDungeonProcedure to EmptyDungeonProcedure--><g id="link_IDungeonProcedure_EmptyDungeonProcedure"><path codeLine="190" d="M2110.5065,581.2132 C2027.3165,603.3732 1938.54,631.68 1849.5,674.22 C1816.72,689.89 1782.57,713.54 1759.13,731.1 " fill="none" id="IDungeonProcedure-backto-EmptyDungeonProcedure" style="stroke:#181818;stroke-width:1.0;stroke-dasharray:7.0,7.0;"/><polygon fill="none" points="2127.9,576.58,2108.9621,575.4154,2112.0509,587.0111,2127.9,576.58" style="stroke:#181818;stroke-width:1.0;"/></g><!--reverse link IDungeonProcedure to CentralRoomProcedure--><g id="link_IDungeonProcedure_CentralRoomProcedure"><path codeLine="191" d="M2203.2006,586.2802 C2163.4206,612.4402 2121.62,640.28 2072.5,674.22 C2045.35,692.99 2014.92,714.83 1992.65,730.97 " fill="none" id="IDungeonProcedure-backto-CentralRoomProcedure" style="stroke:#181818;stroke-width:1.0;stroke-dasharray:7.0,7.0;"/><polygon fill="none" points="2218.24,576.39,2199.9038,581.267,2206.4973,591.2933,2218.24,576.39" style="stroke:#181818;stroke-width:1.0;"/></g><!--reverse link IDungeonProcedure to ChambersProcedure--><g id="link_IDungeonProcedure_ChambersProcedure"><path codeLine="192" d="M2246.4842,592.9418 C2227.3342,635.9218 2201.62,693.59 2184.87,731.16 " fill="none" id="IDungeonProcedure-backto-ChambersProcedure" style="stroke:#181818;stroke-width:1.0;stroke-dasharray:7.0,7.0;"/><polygon fill="none" points="2253.81,576.5,2241.0036,590.4999,2251.9649,595.3837,2253.81,576.5" style="stroke:#181818;stroke-width:1.0;"/></g><!--reverse link IDungeonProcedure to PathsProcedure--><g id="link_IDungeonProcedure_PathsProcedure"><path codeLine="193" d="M2290.7326,592.9119 C2310.0926,635.8919 2336.09,693.59 2353.02,731.16 " fill="none" id="IDungeonProcedure-backto-PathsProcedure" style="stroke:#181818;stroke-width:1.0;stroke-dasharray:7.0,7.0;"/><polygon fill="none" points="2283.34,576.5,2285.262,595.3761,2296.2032,590.4477,2283.34,576.5" style="stroke:#181818;stroke-width:1.0;"/></g><!--reverse link IDungeonProcedure to AddItemsProcedure--><g id="link_IDungeonProcedure_AddItemsProcedure"><path codeLine="194" d="M2330.4877,586.7987 C2367.5177,612.8187 2405.42,640 2450.5,674.22 C2475.14,692.93 2502.5,714.97 2522.37,731.2 " fill="none" id="IDungeonProcedure-backto-AddItemsProcedure" style="stroke:#181818;stroke-width:1.0;stroke-dasharray:7.0,7.0;"/><polygon fill="none" points="2315.76,576.45,2327.0381,591.7079,2333.9372,581.8895,2315.76,576.45" style="stroke:#181818;stroke-width:1.0;"/></g><!--reverse link IDungeonProcedure to AddWeaponsProcedure--><g id="link_IDungeonProcedure_AddWeaponsProcedure"><path codeLine="195" d="M2412.0051,581.5366 C2488.5651,603.9466 2569.66,632.12 2651.5,674.22 C2682.34,690.09 2714.17,713.71 2735.98,731.21 " fill="none" id="IDungeonProcedure-backto-AddWeaponsProcedure" style="stroke:#181818;stroke-width:1.0;stroke-dasharray:7.0,7.0;"/><polygon fill="none" points="2394.73,576.48,2410.3196,587.295,2413.6907,575.7783,2394.73,576.48" style="stroke:#181818;stroke-width:1.0;"/></g><!--reverse link IDungeonStrategy to DungeonGroundsStrategy--><g id="link_IDungeonStrategy_DungeonGroundsStrategy"><path codeLine="197" d="M3359.5,111.55 C3359.5,158.61 3359.5,225.94 3359.5,267.1 " fill="none" id="IDungeonStrategy-backto-DungeonGroundsStrategy" style="stroke:#181818;stroke-width:1.0;stroke-dasharray:7.0,7.0;"/><polygon fill="none" points="3359.5,93.55,3353.5,111.55,3365.5,111.55,3359.5,93.55" style="stroke:#181818;stroke-width:1.0;"/></g><!--reverse link IInputCommand to MoveUpCommand--><g id="link_IInputCommand_MoveUpCommand"><path codeLine="199" d="M3882.454,327.4384 C3769.564,352.0784 3624.39,383.05 3481.5,410.88 C3332.17,439.97 3284.3,410.89 3144.5,470.88 C3117.87,482.31 3091.66,502.37 3073.37,518.21 " fill="none" id="IInputCommand-backto-MoveUpCommand" style="stroke:#181818;stroke-width:1.0;stroke-dasharray:7.0,7.0;"/><polygon fill="none" points="3900.04,323.6,3881.1746,321.5764,3883.7335,333.3004,3900.04,323.6" style="stroke:#181818;stroke-width:1.0;"/></g><!--reverse link IInputCommand to MoveDownCommand--><g id="link_IInputCommand_MoveDownCommand"><path codeLine="200" d="M3882.4115,318.1462 C3740.6315,343.9762 3535.2,390.34 3355.5,470.88 C3327.65,483.37 3299.02,502.93 3278.55,518.31 " fill="none" id="IInputCommand-backto-MoveDownCommand" style="stroke:#181818;stroke-width:1.0;stroke-dasharray:7.0,7.0;"/><polygon fill="none" points="3900.12,314.92,3881.3361,312.2434,3883.4869,324.049,3900.12,314.92" style="stroke:#181818;stroke-width:1.0;"/></g><!--reverse link IInputCommand to MoveLeftCommand--><g id="link_IInputCommand_MoveLeftCommand"><path codeLine="201" d="M3906.1498,330.8107 C3804.8798,361.6307 3673.39,407.15 3552.5,470.88 C3527.09,484.28 3500.74,503.38 3481.62,518.36 " fill="none" id="IInputCommand-backto-MoveLeftCommand" style="stroke:#181818;stroke-width:1.0;stroke-dasharray:7.0,7.0;"/><polygon fill="none" points="3923.37,325.57,3904.4029,325.0706,3907.8967,336.5508,3923.37,325.57" style="stroke:#181818;stroke-width:1.0;"/></g><!--reverse link IInputCommand to MoveRightCommand--><g id="link_IInputCommand_MoveRightCommand"><path codeLine="202" d="M3972.8504,335.1507 C3916.6004,370.6707 3839.97,419.41 3761.5,470.88 C3737.8,486.43 3711.32,504.25 3690.89,518.11 " fill="none" id="IInputCommand-backto-MoveRightCommand" style="stroke:#181818;stroke-width:1.0;stroke-dasharray:7.0,7.0;"/><polygon fill="none" points="3988.07,325.54,3969.6469,330.0775,3976.054,340.2238,3988.07,325.54" style="stroke:#181818;stroke-width:1.0;"/></g><!--reverse link IInputCommand to InventoryToLeftHandCommand--><g id="link_IInputCommand_InventoryToLeftHandCommand"><path codeLine="203" d="M4013.051,341.0133 C3984.111,392.1233 3937.85,473.83 3912.65,518.32 " fill="none" id="IInputCommand-backto-InventoryToLeftHandCommand" style="stroke:#181818;stroke-width:1.0;stroke-dasharray:7.0,7.0;"/><polygon fill="none" points="4021.92,325.35,4007.8298,338.057,4018.2721,343.9697,4021.92,325.35" style="stroke:#181818;stroke-width:1.0;"/></g><!--reverse link IInputCommand to InventoryToRightHandCommand--><g id="link_IInputCommand_InventoryToRightHandCommand"><path codeLine="204" d="M4068.1276,340.9857 C4097.2776,392.0957 4143.88,473.83 4169.25,518.32 " fill="none" id="IInputCommand-backto-InventoryToRightHandCommand" style="stroke:#181818;stroke-width:1.0;stroke-dasharray:7.0,7.0;"/><polygon fill="none" points="4059.21,325.35,4062.9157,343.9583,4073.3396,338.0132,4059.21,325.35" style="stroke:#181818;stroke-width:1.0;"/></g><!--reverse link IInputCommand to DropLeftCommand--><g id="link_IInputCommand_DropLeftCommand"><path codeLine="205" d="M4111.5088,334.8411 C4169.6888,369.8011 4247.92,417.86 4326.5,470.88 C4348.95,486.03 4373.62,504.02 4392.45,518.06 " fill="none" id="IInputCommand-backto-DropLeftCommand" style="stroke:#181818;stroke-width:1.0;stroke-dasharray:7.0,7.0;"/><polygon fill="none" points="4096.08,325.57,4108.4184,339.984,4114.5991,329.6981,4096.08,325.57" style="stroke:#181818;stroke-width:1.0;"/></g><!--reverse link IInputCommand to DropRightCommand--><g id="link_IInputCommand_DropRightCommand"><path codeLine="206" d="M4170.1748,330.9077 C4269.6648,362.1177 4400.1,408.08 4520.5,470.88 C4546.29,484.33 4573.24,503.25 4592.96,518.13 " fill="none" id="IInputCommand-backto-DropRightCommand" style="stroke:#181818;stroke-width:1.0;stroke-dasharray:7.0,7.0;"/><polygon fill="none" points="4153,325.52,4168.3789,336.6326,4171.9707,325.1828,4153,325.52" style="stroke:#181818;stroke-width:1.0;"/></g><!--reverse link IInputCommand to TakeToInventoryCommand--><g id="link_IInputCommand_TakeToInventoryCommand"><path codeLine="207" d="M4198.5145,321.3896 C4339.2645,349.3696 4542.92,396.98 4724.5,470.88 C4755.83,483.63 4789,502.88 4813.15,518.07 " fill="none" id="IInputCommand-backto-TakeToInventoryCommand" style="stroke:#181818;stroke-width:1.0;stroke-dasharray:7.0,7.0;"/><polygon fill="none" points="4180.86,317.88,4197.3447,327.2744,4199.6844,315.5047,4180.86,317.88" style="stroke:#181818;stroke-width:1.0;"/></g><!--reverse link IInputCommand to QuitGameCommand--><g id="link_IInputCommand_QuitGameCommand"><path codeLine="208" d="M4198.9173,302.7806 C4385.8673,318.4206 4705.78,359.29 4971.5,470.88 C4999.31,482.56 5027.21,502.6 5046.78,518.37 " fill="none" id="IInputCommand-backto-QuitGameCommand" style="stroke:#181818;stroke-width:1.0;stroke-dasharray:7.0,7.0;"/><polygon fill="none" points="4180.98,301.28,4198.4171,308.7597,4199.4175,296.8015,4180.98,301.28" style="stroke:#181818;stroke-width:1.0;"/></g><!--link Level to Tile--><g id="link_Level_Tile"><path codeLine="211" d="M1047.56,382.44 C1088.36,422.28 1130.1278,463.0675 1162.8378,495.0175 " fill="none" id="Level-to-Tile" style="stroke:#181818;stroke-width:1.0;"/><polygon fill="#181818" points="1167.13,499.21,1163.4867,490.0598,1163.5532,495.7163,1157.8967,495.7827,1167.13,499.21" style="stroke:#181818;stroke-width:1.0;"/></g><!--link Level to IItem--><g id="link_Level_IItem"><path codeLine="212" d="M955.5,382.44 C955.5,414.9 955.5,444.77 955.5,474.22 " fill="none" id="Level-to-IItem" style="stroke:#181818;stroke-width:1.0;"/><polygon fill="#181818" points="955.5,480.22,959.5,471.22,955.5,475.22,951.5,471.22,955.5,480.22" style="stroke:#181818;stroke-width:1.0;"/></g><!--link Player to IItem--><g id="link_Player_IItem"><path codeLine="213" d="M567.87,341.29 C644.74,381.01 748.3994,434.5559 831.2394,477.3559 " fill="none" id="Player-to-IItem" style="stroke:#181818;stroke-width:1.0;"/><polygon fill="#181818" points="836.57,480.11,830.4102,472.4252,832.1279,477.8149,826.7381,479.5326,836.57,480.11" style="stroke:#181818;stroke-width:1.0;"/></g><!--link Player to Inventory--><g id="link_Player_Inventory"><path codeLine="214" d="M545.94,411.21 C558.33,431.51 567.7133,446.8891 579.0333,465.4291 " fill="none" id="Player-to-Inventory" style="stroke:#181818;stroke-width:1.0;"/><polygon fill="#181818" points="582.16,470.55,580.8839,460.7842,579.5544,466.2826,574.056,464.9531,582.16,470.55" style="stroke:#181818;stroke-width:1.0;"/></g><!--link Player to IEquippable--><g id="link_Player_IEquippable"><path codeLine="215" d="M455.86,411.3 C450.57,472.83 450.1,548.62 467.5,614.22 C476.88,649.57 494.1195,680.3494 512.0695,706.8994 " fill="none" id="Player-to-IEquippable" style="stroke:#181818;stroke-width:1.0;"/><polygon fill="#181818" points="515.43,711.87,513.7029,702.1738,512.6296,707.7278,507.0755,706.6545,515.43,711.87" style="stroke:#181818;stroke-width:1.0;"/></g><!--link ConsoleRenderer to Level--><g id="link_ConsoleRenderer_Level"><path codeLine="218" d="M672.78,93.55 C712.79,121.43 767.1472,159.2998 821.1072,196.8998 " fill="none" id="ConsoleRenderer-to-Level" style="stroke:#181818;stroke-width:1.0;"/><polygon fill="#181818" points="826.03,200.33,820.9327,191.9028,821.9277,197.4715,816.359,198.4665,826.03,200.33" style="stroke:#181818;stroke-width:1.0;"/></g><!--link ConsoleRenderer to Player--><g id="link_ConsoleRenderer_Player"><path codeLine="219" d="M603.72,93.55 C589.89,114.47 574.3681,137.9544 555.3281,166.7644 " fill="none" id="ConsoleRenderer-to-Player" style="stroke:#181818;stroke-width:1.0;"/><polygon fill="#181818" points="552.02,171.77,560.3193,166.467,554.7768,167.5986,553.6451,162.0561,552.02,171.77" style="stroke:#181818;stroke-width:1.0;"/></g><!--link ConsoleRenderer to Inventory--><g id="link_ConsoleRenderer_Inventory"><path codeLine="220" d="M625.5,93.28 C625.5,170.35 625.5,358.88 625.5,464.57 " fill="none" id="ConsoleRenderer-to-Inventory" style="stroke:#181818;stroke-width:1.0;"/><polygon fill="#181818" points="625.5,470.57,629.5,461.57,625.5,465.57,621.5,461.57,625.5,470.57" style="stroke:#181818;stroke-width:1.0;"/></g><!--link Weapon to HandOccupation--><g id="link_Weapon_HandOccupation"><path codeLine="222" d="M628.5,1021.38 C655.06,1041.59 678.7649,1059.627 701.4249,1076.867 " fill="none" id="Weapon-to-HandOccupation" style="stroke:#181818;stroke-width:1.0;"/><polygon fill="#181818" points="706.2,1080.5,701.4593,1071.8672,702.2207,1077.4725,696.6154,1078.234,706.2,1080.5" style="stroke:#181818;stroke-width:1.0;"/></g><!--link DungeonBuilder to IDungeonProcedure--><g id="link_DungeonBuilder_IDungeonProcedure"><path codeLine="224" d="M2479.12,335.07 C2428.97,384.24 2351.7648,459.9299 2306.2448,504.5499 " fill="none" id="DungeonBuilder-to-IDungeonProcedure" style="stroke:#181818;stroke-width:1.0;"/><polygon fill="#181818" points="2301.96,508.75,2311.1872,505.3064,2305.5307,505.2499,2305.5871,499.5934,2301.96,508.75" style="stroke:#181818;stroke-width:1.0;"/></g><!--link DungeonBuilder to DungeonContext--><g id="link_DungeonBuilder_DungeonContext"><path codeLine="225" d="M2577.66,335.07 C2641.44,384.24 2740.3078,460.4671 2798.1978,505.0871 " fill="none" id="DungeonBuilder-to-DungeonContext" style="stroke:#181818;stroke-width:1.0;"/><polygon fill="#181818" points="2802.95,508.75,2798.2636,500.0876,2798.9898,505.6976,2793.3798,506.4238,2802.95,508.75" style="stroke:#181818;stroke-width:1.0;"/></g><!--link DungeonContext to RectRoom--><g id="link_DungeonContext_RectRoom"><path codeLine="226" d="M2871.44,576.5 C2891.95,602.57 2917.779,635.3653 2944.439,669.2353 " fill="none" id="DungeonContext-to-RectRoom" style="stroke:#181818;stroke-width:1.0;"/><polygon fill="#181818" points="2948.15,673.95,2945.7265,664.404,2945.0575,670.0211,2939.4403,669.352,2948.15,673.95" style="stroke:#181818;stroke-width:1.0;"/></g><!--link InputHandler to IInputCommand--><g id="link_InputHandler_IInputCommand"><path codeLine="228" d="M4040.5,93.55 C4040.5,137.26 4040.5,207.98 4040.5,251.66 " fill="none" id="InputHandler-to-IInputCommand" style="stroke:#181818;stroke-width:1.0;"/><polygon fill="#181818" points="4040.5,257.66,4044.5,248.66,4040.5,252.66,4036.5,248.66,4040.5,257.66" style="stroke:#181818;stroke-width:1.0;"/></g><!--SRC=[bLTBR-Cs4BxhLn3eeGwIB8AYw458jt1bnH6GjLrPGTeZBJ4sOObKIJg9z_7VovSaYfAosvCr3yuCv_5np8-Or9312kGbv7mk1CExaq19JiaMVqRW9WX-1Y39uazR460Y47k6EG998b05lWG0NAvWXKB0vK6oL_JsNEre6OBy09cabqWi4CyPhWMcP7RXg6vmVdoiPtK9puY5OAD_hq2jsG_eMOHWHsbvONw2Ru4RGFpl2TSrt9L8Xv6ni-PaL1tqR3OMNBKKxmzJUj8JtCamOIvCNi0JWZKbsjDFDCzFDLIt2S4z9CMwfNyW7PSBMC6zr91NKNwC-OXYOZ-Nj2pivuPgeuR83fIHHd_xIbcZjQ0dcGJ3ySFkXwV3Zo3H6PY-kZcw9iYxd8tZbNfyrI1PyX3B1l7SPzXMvpBXJx0ygcgrfUXdflLxLrBAr45BotEb9fMRw7wUpgCiJa6R8exRgrt-RT8gl_vfljRFpno9MV6c6LUWEEiFUTtcw4Yr8ncHf10Rx_3cf6DZyZeckyRELZ14zkBGHhb0Rz895kUMSuzWwIWydF9ZIyptUuOuruujwmdpWbQTkcnzLPpG7Oy_b4Ht-xX8zHvlJQZsQvjJPNoTnaso7z0BAirLdd3XX7cFbFc6b1El2ZPhKjvcN9SHWEse_0e8hBf3YQJk2yM5wLRLE4DRjedcHQ6GQ5PJtbNZ2c392mr8TRPILD4Nz7tr_Xmav0KHGTdPrb22OdllY9v8UsqPoimQwZBSHRgXjG8_B_ioLyehrw8KmM9DolC3vkBMKVpe0WLvndiToXSkvFpbtrGnI45VkvA0ty6lDoCQJfcaoYzzbGooFH9tcsqZ_-scSxl03EKgLznp_LZtXg0JBEWhcH0PP1yLfIP0TpHb3oxZLPpEisIzwZr1ds2zH0GnAAkZmx8KclCpoMUbwjRGDArgFiYFtXEoE94zecJ3Q8wA4pDGDQ_hyZoqS0NaYoZal8R07eiCxPYskJBYFq-uBEpagzQe6o_XqF55w9twqSlqFDg0J9-cb5QontKhfR9sYdRwg65DukQx4tuP8PN5NX4JnU7IB9zHSL32niTWfEvmMQB2Ju8LnbKjpXCovPR1KXaTY0wmsia0VFu6YiE0QL5ZZ6yUUaSoqZ0InsLXzWOH8eOaCHkMq2_FaacqA7XpM7Ts6gyMSPgibg2RRqvBb28YJTZkCOJNZVxIX1kO2Zl4Qg3FJ56osZnc_HsEr2SHqQgIxuBs5B-XN2v_WutCwxx6Q0EGqefwMaeRhyuTvvh__qnzalZyMDk879u2ao5NuSYGgo6apsuJOfP35UkaGljGzZKMZDP3VuexuY-3HvJHrcXV-DS9YwLSA1gkASszx89ilehaMsjMwzkl7pwuZqNWBhnQQ3eri9lfxTVhQxiMkXntENGCwttJeVNIwT1sympq0gSDTMjPn-jMisvXqW9Jx23mrayj6-wLOreZMsOVxtMOtiGD0LrhJS3DXFOu_ameZmBIbEu0eIOKFSYQq1fYsBJY4DG6KERcSu1KVQJGglrHdL1mvtP2nHsg2PNUX8tel3FUxsiFPdr4tH_y2PNlnJW12IEQO_WmtsxNKQ8t8FadowpXrzSVpKBTaNg00_kFOvpH1D1ZEYZZiDkPbkFjlKfAhDsEIkpqZuaw_mrAAQu_wTu6fGyE9d94gRy71TvQf3IQbKIsjFjgcLmvfGZ-0m00]--></g></svg>