<?xml version="1.0" encoding="UTF-8" standalone="no"?>
<!DOCTYPE svg PUBLIC "-//W3C//DTD SVG 1.1//EN"
 "http://www.w3.org/Graphics/SVG/1.1/DTD/svg11.dtd">
<!-- Generated by graphviz version 2.43.0 (0)
 -->
<!-- Title: RpgGame.Generation.Procedures.AddItemsProcedure Pages: 1 -->
<svg width="184pt" height="245pt"
 viewBox="0.00 0.00 184.00 245.00" xmlns="http://www.w3.org/2000/svg" xmlns:xlink="http://www.w3.org/1999/xlink">

<svg id="main" version="1.1" xmlns="http://www.w3.org/2000/svg" xmlns:xlink="http://www.w3.org/1999/xlink" xml:space="preserve" onload="init(evt)">
<style type="text/css"><![CDATA[
.node, .edge {opacity: 0.7;}
.node.selected, .edge.selected {opacity: 1;}
.edge:hover path { stroke: red; }
.edge:hover polygon { stroke: red; fill: red; }
]]></style>
<script type="application/ecmascript" xlink:href="svg.min.js"/>
<svg id="graph" class="graph">
<g id="graph0" class="graph" transform="scale(1 1) rotate(0) translate(4 241)">
<title>RpgGame.Generation.Procedures.AddItemsProcedure</title>
<!-- Node1 -->
<g id="Node000001" class="node">
<title>Node1</title>
<g id="a_Node000001"><a xlink:title="Spawns treasure items (coins and gold) at random locations in the dungeon.">
<polygon fill="#999999" stroke="transparent" points="176,-130 0,-130 0,0 176,0 176,-130"/>
<text text-anchor="start" x="5" y="-118" font-family="Helvetica,sans-Serif" font-size="10.00">RpgGame.Generation.Procedures.</text>
<text text-anchor="start" x="40" y="-107" font-family="Helvetica,sans-Serif" font-size="10.00">AddItemsProcedure</text>
<text text-anchor="start" x="86" y="-92" font-family="Helvetica,sans-Serif" font-size="10.00"> </text>
<text text-anchor="start" x="5" y="-77" font-family="Helvetica,sans-Serif" font-size="10.00">+</text>
<text text-anchor="start" x="19" y="-77" font-family="Helvetica,sans-Serif" font-size="10.00">AddItemsProcedure</text>
<text text-anchor="start" x="19" y="-66" font-family="Helvetica,sans-Serif" font-size="10.00">(int CoinCount=5, int</text>
<text text-anchor="start" x="19" y="-55" font-family="Helvetica,sans-Serif" font-size="10.00"> GoldCount=2, int PotionCount</text>
<text text-anchor="start" x="19" y="-44" font-family="Helvetica,sans-Serif" font-size="10.00">=2, int ThornCount=1)</text>
<text text-anchor="start" x="5" y="-29" font-family="Helvetica,sans-Serif" font-size="10.00">+</text>
<text text-anchor="start" x="19" y="-29" font-family="Helvetica,sans-Serif" font-size="10.00">async Task ApplyAsync</text>
<text text-anchor="start" x="19" y="-18" font-family="Helvetica,sans-Serif" font-size="10.00">(Level level, DungeonContext</text>
<text text-anchor="start" x="19" y="-7" font-family="Helvetica,sans-Serif" font-size="10.00"> context)</text>
<polygon fill="#666666" stroke="#666666" points="0,-102 0,-102 176,-102 176,-102 0,-102"/>
<polygon fill="#666666" stroke="#666666" points="0,-87 0,-87 176,-87 176,-87 0,-87"/>
<polygon fill="none" stroke="#666666" points="0,0 0,-130 176,-130 176,0 0,0"/>
</a>
</g>
</g>
<!-- Node2 -->
<g id="Node000002" class="node">
<title>Node2</title>
<g id="a_Node000002"><a xlink:href="interfaceRpgGame_1_1Generation_1_1IDungeonProcedure.html" target="_top" xlink:title="Defines a procedural step in dungeon generation.">
<polygon fill="white" stroke="transparent" points="156,-237 20,-237 20,-166 156,-166 156,-237"/>
<text text-anchor="start" x="40" y="-224.5" font-family="Helvetica,sans-Serif" font-size="10.00">IDungeonProcedure</text>
<text text-anchor="start" x="86" y="-209.5" font-family="Helvetica,sans-Serif" font-size="10.00"> </text>
<text text-anchor="start" x="24" y="-194.5" font-family="Helvetica,sans-Serif" font-size="10.00">+</text>
<text text-anchor="start" x="37" y="-194.5" font-family="Helvetica,sans-Serif" font-size="10.00">Task ApplyAsync(Level</text>
<text text-anchor="start" x="37" y="-183.5" font-family="Helvetica,sans-Serif" font-size="10.00"> level, DungeonContext</text>
<text text-anchor="start" x="37" y="-172.5" font-family="Helvetica,sans-Serif" font-size="10.00"> context)</text>
<polygon fill="#666666" stroke="#666666" points="20,-219.5 20,-219.5 156,-219.5 156,-219.5 20,-219.5"/>
<polygon fill="#666666" stroke="#666666" points="20,-204.5 20,-204.5 156,-204.5 156,-204.5 20,-204.5"/>
<polygon fill="none" stroke="#666666" points="20,-166 20,-237 156,-237 156,-166 20,-166"/>
</a>
</g>
</g>
<!-- Node2&#45;&gt;Node1 -->
<g id="edge1_Node000001_Node000002" class="edge">
<title>Node2&#45;&gt;Node1</title>
<g id="a_edge1_Node000001_Node000002"><a xlink:title=" ">
<path fill="none" stroke="#63b8ff" d="M88,-155.73C88,-147.48 88,-138.72 88,-130.03"/>
<polygon fill="none" stroke="#63b8ff" points="84.5,-155.86 88,-165.86 91.5,-155.86 84.5,-155.86"/>
</a>
</g>
</g>
</g>
</svg>
</svg>

<style type='text/css'>
<![CDATA[
[data-mouse-over-selected='false'] { opacity: 0.7; }
[data-mouse-over-selected='true']  { opacity: 1.0; }
]]>
</style>
<script type="application/ecmascript"><![CDATA[
document.addEventListener('DOMContentLoaded', (event) => {
  highlightEdges();
  highlightAdjacentNodes();
});
]]></script>
</svg>
