<?xml version="1.0" encoding="UTF-8" standalone="no"?>
<!DOCTYPE svg PUBLIC "-//W3C//DTD SVG 1.1//EN"
 "http://www.w3.org/Graphics/SVG/1.1/DTD/svg11.dtd">
<!-- Generated by graphviz version 2.43.0 (0)
 -->
<!-- Title: RpgGame.Renderer.ConsoleRenderer.Render Pages: 1 -->
<svg width="376pt" height="168pt"
 viewBox="0.00 0.00 376.00 167.50" xmlns="http://www.w3.org/2000/svg" xmlns:xlink="http://www.w3.org/1999/xlink">
<g id="graph0" class="graph" transform="scale(1 1) rotate(0) translate(4 163.5)">
<title>RpgGame.Renderer.ConsoleRenderer.Render</title>
<!-- Node1 -->
<g id="Node000001" class="node">
<title>Node1</title>
<g id="a_Node000001"><a xlink:title="Renders the current level state and player information to the console. If the help flag is set,...">
<polygon fill="#999999" stroke="#666666" points="153,-100 0,-100 0,-70 153,-70 153,-100"/>
<text text-anchor="start" x="8" y="-88" font-family="Helvetica,sans-Serif" font-size="10.00">RpgGame.Renderer.Console</text>
<text text-anchor="middle" x="76.5" y="-77" font-family="Helvetica,sans-Serif" font-size="10.00">Renderer.Render</text>
</a>
</g>
</g>
<!-- Node2 -->
<g id="Node000002" class="node">
<title>Node2</title>
<g id="a_Node000002"><a xlink:href="classRpgGame_1_1Core_1_1Level.html#ad48a7c23cc285da72a157194198e553a" target="_top" xlink:title="Retrieves the tile at the specified coordinates.">
<polygon fill="white" stroke="#666666" points="357.5,-159.5 199.5,-159.5 199.5,-140.5 357.5,-140.5 357.5,-159.5"/>
<text text-anchor="middle" x="278.5" y="-147.5" font-family="Helvetica,sans-Serif" font-size="10.00">RpgGame.Core.Level.GetTile</text>
</a>
</g>
</g>
<!-- Node1&#45;&gt;Node2 -->
<g id="edge1_Node000001_Node000002" class="edge">
<title>Node1&#45;&gt;Node2</title>
<g id="a_edge1_Node000001_Node000002"><a xlink:title=" ">
<path fill="none" stroke="#63b8ff" d="M108.6,-100.07C130.63,-110.26 161.1,-123.38 189,-132 196.37,-134.28 204.18,-136.35 211.99,-138.2"/>
<polygon fill="#63b8ff" stroke="#63b8ff" points="211.31,-141.64 221.84,-140.43 212.86,-134.81 211.31,-141.64"/>
</a>
</g>
</g>
<!-- Node3 -->
<g id="Node000003" class="node">
<title>Node3</title>
<g id="a_Node000003"><a xlink:href="classRpgGame_1_1Core_1_1Level.html#a50c45cab6083fa428e8534c83d841f57" target="_top" xlink:title="Retrieves the top item at a position without removing it.">
<polygon fill="white" stroke="#666666" points="368,-122.5 189,-122.5 189,-103.5 368,-103.5 368,-122.5"/>
<text text-anchor="middle" x="278.5" y="-110.5" font-family="Helvetica,sans-Serif" font-size="10.00">RpgGame.Core.Level.GetTopItem</text>
</a>
</g>
</g>
<!-- Node1&#45;&gt;Node3 -->
<g id="edge2_Node000001_Node000003" class="edge">
<title>Node1&#45;&gt;Node3</title>
<g id="a_edge2_Node000001_Node000003"><a xlink:title=" ">
<path fill="none" stroke="#63b8ff" d="M153.11,-95.59C168.12,-97.69 183.91,-99.9 199.01,-102.01"/>
<polygon fill="#63b8ff" stroke="#63b8ff" points="198.95,-105.54 209.34,-103.46 199.92,-98.61 198.95,-105.54"/>
</a>
</g>
</g>
<!-- Node4 -->
<g id="Node000004" class="node">
<title>Node4</title>
<g id="a_Node000004"><a xlink:href="namespaceRpgGame_1_1Character.html#ab2e6f640f8bfc682c50e3c19e0d417f1" target="_top" xlink:title="A record for tracking the position of Characters, Items, and Tiles if needed.">
<polygon fill="white" stroke="#666666" points="356.5,-67.5 200.5,-67.5 200.5,-48.5 356.5,-48.5 356.5,-67.5"/>
<text text-anchor="middle" x="278.5" y="-55.5" font-family="Helvetica,sans-Serif" font-size="10.00">RpgGame.Character.Position</text>
</a>
</g>
</g>
<!-- Node1&#45;&gt;Node4 -->
<g id="edge3_Node000001_Node000004" class="edge">
<title>Node1&#45;&gt;Node4</title>
<g id="a_edge3_Node000001_Node000004"><a xlink:title=" ">
<path fill="none" stroke="#63b8ff" d="M153.11,-74.79C167.49,-72.85 182.59,-70.81 197.11,-68.85"/>
<polygon fill="#63b8ff" stroke="#63b8ff" points="197.62,-72.32 207.06,-67.51 196.68,-65.38 197.62,-72.32"/>
</a>
</g>
</g>
<!-- Node5 -->
<g id="Node000005" class="node">
<title>Node5</title>
<g id="a_Node000005"><a xlink:href="classRpgGame_1_1Core_1_1Level.html#a81b95d5c2aa808c7e214c7b0ba037ef4" target="_top" xlink:title="When a golem occupies pos , sets golem &#160;and returns true.">
<polygon fill="white" stroke="#666666" points="355.5,-30 201.5,-30 201.5,0 355.5,0 355.5,-30"/>
<text text-anchor="start" x="209.5" y="-18" font-family="Helvetica,sans-Serif" font-size="10.00">RpgGame.Core.Level.TryGet</text>
<text text-anchor="middle" x="278.5" y="-7" font-family="Helvetica,sans-Serif" font-size="10.00">GolemAt</text>
</a>
</g>
</g>
<!-- Node1&#45;&gt;Node5 -->
<g id="edge5_Node000001_Node000005" class="edge">
<title>Node1&#45;&gt;Node5</title>
<g id="a_edge5_Node000001_Node000005"><a xlink:title=" ">
<path fill="none" stroke="#63b8ff" d="M112.29,-69.83C134.1,-60.6 162.93,-48.91 189,-40 195.96,-37.62 203.28,-35.29 210.6,-33.06"/>
<polygon fill="#63b8ff" stroke="#63b8ff" points="211.98,-36.31 220.56,-30.1 209.98,-29.6 211.98,-36.31"/>
</a>
</g>
</g>
<!-- Node4&#45;&gt;Node4 -->
<g id="edge4_Node000004_Node000004" class="edge">
<title>Node4&#45;&gt;Node4</title>
<g id="a_edge4_Node000004_Node000004"><a xlink:title=" ">
<path fill="none" stroke="#63b8ff" d="M247.37,-67.58C232.22,-76.23 242.6,-85.5 278.5,-85.5 303.74,-85.5 316.37,-80.92 316.37,-75.19"/>
<polygon fill="#63b8ff" stroke="#63b8ff" points="318.89,-72.75 309.63,-67.58 313.65,-77.39 318.89,-72.75"/>
</a>
</g>
</g>
</g>
</svg>
