<?xml version="1.0" encoding="UTF-8" standalone="no"?>
<!DOCTYPE svg PUBLIC "-//W3C//DTD SVG 1.1//EN"
 "http://www.w3.org/Graphics/SVG/1.1/DTD/svg11.dtd">
<!-- Generated by graphviz version 13.1.2 (20250808.2320)
 -->
<!-- Title: RpgGame.Tiles.WallTile Pages: 1 -->
<svg width="132pt" height="237pt"
 viewBox="0.00 0.00 132.00 237.00" xmlns="http://www.w3.org/2000/svg" xmlns:xlink="http://www.w3.org/1999/xlink">

<svg id="main" version="1.1" xmlns="http://www.w3.org/2000/svg" xmlns:xlink="http://www.w3.org/1999/xlink" xml:space="preserve">

<style type="text/css"><![CDATA[
.node, .edge {opacity: 0.7;}
.node.selected, .edge.selected {opacity: 1;}
.edge:hover path { stroke: red; }
.edge:hover polygon { stroke: red; fill: red; }
]]></style>
<script type="application/ecmascript" xlink:href="svg.min.js"/>
<svg id="graph" class="graph">
<g id="graph0" class="graph" transform="scale(1 1) rotate(0) translate(4 232.5)">
<title>RpgGame.Tiles.WallTile</title>
<!-- Node1 -->
<g id="Node000001" class="node">
<title>Node1</title>
<g id="a_Node000001"><a xlink:title="Represents a solid wall tile that blocks player movement.">
<polygon fill="#999999" stroke="none" points="123.75,-87 0,-87 0,0 123.75,0 123.75,-87"/>
<text xml:space="preserve" text-anchor="start" x="8.62" y="-73.5" font-family="Helvetica,sans-Serif" font-size="10.00">RpgGame.Tiles.WallTile</text>
<text xml:space="preserve" text-anchor="start" x="4" y="-59" font-family="Helvetica,sans-Serif" font-size="10.00">+</text>
<text xml:space="preserve" text-anchor="start" x="14" y="-59" font-family="Helvetica,sans-Serif" font-size="10.00">override char Symbol</text>
<text xml:space="preserve" text-anchor="start" x="4" y="-44.5" font-family="Helvetica,sans-Serif" font-size="10.00">+</text>
<text xml:space="preserve" text-anchor="start" x="14" y="-44.5" font-family="Helvetica,sans-Serif" font-size="10.00">override ConsoleColor</text>
<text xml:space="preserve" text-anchor="start" x="14" y="-34" font-family="Helvetica,sans-Serif" font-size="10.00"> color</text>
<text xml:space="preserve" text-anchor="start" x="4" y="-19.5" font-family="Helvetica,sans-Serif" font-size="10.00">+</text>
<text xml:space="preserve" text-anchor="start" x="14" y="-19.5" font-family="Helvetica,sans-Serif" font-size="10.00">override bool IsWalkable</text>
<text xml:space="preserve" text-anchor="start" x="60.38" y="-5" font-family="Helvetica,sans-Serif" font-size="10.00"> </text>
<polygon fill="#666666" stroke="#666666" points="0,-70.5 0,-70.5 123.75,-70.5 123.75,-70.5 0,-70.5"/>
<polygon fill="#666666" stroke="#666666" points="0,-16.5 0,-16.5 12,-16.5 12,-16.5 0,-16.5"/>
<polygon fill="#666666" stroke="#666666" points="12,-16.5 12,-16.5 123.75,-16.5 123.75,-16.5 12,-16.5"/>
<polygon fill="none" stroke="#666666" points="0,0 0,-87 123.75,-87 123.75,0 0,0"/>
</a>
</g>
</g>
<!-- Node2 -->
<g id="Node000002" class="node">
<title>Node2</title>
<g id="a_Node000002"><a xlink:href="classRpgGame_1_1Tiles_1_1Tile.html" target="_top" xlink:title="Base abstract class representing a tile in the game world.">
<polygon fill="white" stroke="none" points="113.62,-228.5 10.12,-228.5 10.12,-123 113.62,-123 113.62,-228.5"/>
<text xml:space="preserve" text-anchor="start" x="18" y="-215" font-family="Helvetica,sans-Serif" font-size="10.00">RpgGame.Tiles.Tile</text>
<text xml:space="preserve" text-anchor="start" x="14.12" y="-200.5" font-family="Helvetica,sans-Serif" font-size="10.00">+</text>
<text xml:space="preserve" text-anchor="start" x="24.12" y="-200.5" font-family="Helvetica,sans-Serif" font-size="10.00">List&lt; Tile &gt; PosList</text>
<text xml:space="preserve" text-anchor="start" x="14.12" y="-186" font-family="Helvetica,sans-Serif" font-size="10.00">+</text>
<text xml:space="preserve" text-anchor="start" x="24.12" y="-186" font-family="Helvetica,sans-Serif" font-size="10.00">char Symbol</text>
<text xml:space="preserve" text-anchor="start" x="14.12" y="-171.5" font-family="Helvetica,sans-Serif" font-size="10.00">+</text>
<text xml:space="preserve" text-anchor="start" x="24.12" y="-171.5" font-family="Helvetica,sans-Serif" font-size="10.00">ConsoleColor color</text>
<text xml:space="preserve" text-anchor="start" x="14.12" y="-157" font-family="Helvetica,sans-Serif" font-size="10.00">+</text>
<text xml:space="preserve" text-anchor="start" x="24.12" y="-157" font-family="Helvetica,sans-Serif" font-size="10.00">bool IsWalkable</text>
<text xml:space="preserve" text-anchor="start" x="14.12" y="-142.5" font-family="Helvetica,sans-Serif" font-size="10.00">+</text>
<text xml:space="preserve" text-anchor="start" x="24.12" y="-142.5" font-family="Helvetica,sans-Serif" font-size="10.00">bool IsOccupied</text>
<text xml:space="preserve" text-anchor="start" x="60.38" y="-128" font-family="Helvetica,sans-Serif" font-size="10.00"> </text>
<polygon fill="#666666" stroke="#666666" points="10.12,-212 10.12,-212 113.62,-212 113.62,-212 10.12,-212"/>
<polygon fill="#666666" stroke="#666666" points="10.12,-139.5 10.12,-139.5 22.12,-139.5 22.12,-139.5 10.12,-139.5"/>
<polygon fill="#666666" stroke="#666666" points="22.12,-139.5 22.12,-139.5 113.62,-139.5 113.62,-139.5 22.12,-139.5"/>
<polygon fill="none" stroke="#666666" points="10.12,-123 10.12,-228.5 113.62,-228.5 113.62,-123 10.12,-123"/>
</a>
</g>
</g>
<!-- Node2&#45;&gt;Node1 -->
<g id="edge1_Node000001_Node000002" class="edge">
<title>Node2&#45;&gt;Node1</title>
<g id="a_edge1_Node000001_Node000002"><a xlink:title=" ">
<path fill="none" stroke="#63b8ff" d="M61.88,-111.8C61.88,-103.33 61.88,-94.8 61.88,-86.81"/>
<polygon fill="none" stroke="#63b8ff" points="58.38,-111.76 61.88,-121.76 65.38,-111.76 58.38,-111.76"/>
</a>
</g>
</g>
</g>
</svg>
</svg>

<style type='text/css'>
<![CDATA[
[data-mouse-over-selected='false'] { opacity: 0.7; }
[data-mouse-over-selected='true']  { opacity: 1.0; }
]]>
</style>
<script type="application/ecmascript"><![CDATA[
document.addEventListener('DOMContentLoaded', (event) => {
  highlightEdges();
  highlightAdjacentNodes();
});
]]></script>
</svg>
