<?xml version="1.0" encoding="UTF-8" standalone="no"?>
<!DOCTYPE svg PUBLIC "-//W3C//DTD SVG 1.1//EN"
 "http://www.w3.org/Graphics/SVG/1.1/DTD/svg11.dtd">
<!-- Generated by graphviz version 13.1.2 (20250808.2320)
 -->
<!-- Title: RpgGame.Generation.Procedures.AddItemsProcedure Pages: 1 -->
<svg width="167pt" height="248pt"
 viewBox="0.00 0.00 167.00 248.00" xmlns="http://www.w3.org/2000/svg" xmlns:xlink="http://www.w3.org/1999/xlink">
<g id="graph0" class="graph" transform="scale(1 1) rotate(0) translate(4 244)">
<title>RpgGame.Generation.Procedures.AddItemsProcedure</title>
<!-- Node1 -->
<g id="Node000001" class="node">
<title>Node1</title>
<g id="a_Node000001"><a xlink:title="Spawns treasure items (coins and gold) at random locations in the dungeon.">
<polygon fill="#999999" stroke="none" points="158.75,-125 0,-125 0,0 158.75,0 158.75,-125"/>
<text xml:space="preserve" text-anchor="start" x="4" y="-111.5" font-family="Helvetica,sans-Serif" font-size="10.00">RpgGame.Generation.Procedures.</text>
<text xml:space="preserve" text-anchor="start" x="36.25" y="-101" font-family="Helvetica,sans-Serif" font-size="10.00">AddItemsProcedure</text>
<text xml:space="preserve" text-anchor="start" x="77.88" y="-86.5" font-family="Helvetica,sans-Serif" font-size="10.00"> </text>
<text xml:space="preserve" text-anchor="start" x="5.62" y="-72" font-family="Helvetica,sans-Serif" font-size="10.00">+</text>
<text xml:space="preserve" text-anchor="start" x="17.25" y="-72" font-family="Helvetica,sans-Serif" font-size="10.00">AddItemsProcedure</text>
<text xml:space="preserve" text-anchor="start" x="17.25" y="-61.5" font-family="Helvetica,sans-Serif" font-size="10.00">(int CoinCount=5, int</text>
<text xml:space="preserve" text-anchor="start" x="17.25" y="-51" font-family="Helvetica,sans-Serif" font-size="10.00"> GoldCount=2, int PotionCount</text>
<text xml:space="preserve" text-anchor="start" x="17.25" y="-40.5" font-family="Helvetica,sans-Serif" font-size="10.00">=2, int ThornCount=1)</text>
<text xml:space="preserve" text-anchor="start" x="5.62" y="-26" font-family="Helvetica,sans-Serif" font-size="10.00">+</text>
<text xml:space="preserve" text-anchor="start" x="17.25" y="-26" font-family="Helvetica,sans-Serif" font-size="10.00">async Task ApplyAsync</text>
<text xml:space="preserve" text-anchor="start" x="17.25" y="-15.5" font-family="Helvetica,sans-Serif" font-size="10.00">(Level level, DungeonContext</text>
<text xml:space="preserve" text-anchor="start" x="17.25" y="-5" font-family="Helvetica,sans-Serif" font-size="10.00"> context)</text>
<polygon fill="#666666" stroke="#666666" points="0,-98 0,-98 158.75,-98 158.75,-98 0,-98"/>
<polygon fill="#666666" stroke="#666666" points="0,-83.5 0,-83.5 158.75,-83.5 158.75,-83.5 0,-83.5"/>
<polygon fill="none" stroke="#666666" points="0,0 0,-125 158.75,-125 158.75,0 0,0"/>
</a>
</g>
</g>
<!-- Node2 -->
<g id="Node000002" class="node">
<title>Node2</title>
<g id="a_Node000002"><a xlink:href="interfaceRpgGame_1_1Generation_1_1IDungeonProcedure.html" target="_top" xlink:title="Defines a procedural step in dungeon generation.">
<polygon fill="white" stroke="none" points="153.5,-240 5.25,-240 5.25,-161 153.5,-161 153.5,-240"/>
<text xml:space="preserve" text-anchor="start" x="9.25" y="-226.5" font-family="Helvetica,sans-Serif" font-size="10.00">RpgGame.Generation.IDungeon</text>
<text xml:space="preserve" text-anchor="start" x="57.25" y="-216" font-family="Helvetica,sans-Serif" font-size="10.00">Procedure</text>
<text xml:space="preserve" text-anchor="start" x="77.88" y="-201.5" font-family="Helvetica,sans-Serif" font-size="10.00"> </text>
<text xml:space="preserve" text-anchor="start" x="16.31" y="-187" font-family="Helvetica,sans-Serif" font-size="10.00">+</text>
<text xml:space="preserve" text-anchor="start" x="33.38" y="-187" font-family="Helvetica,sans-Serif" font-size="10.00">Task ApplyAsync(Level</text>
<text xml:space="preserve" text-anchor="start" x="33.38" y="-176.5" font-family="Helvetica,sans-Serif" font-size="10.00"> level, DungeonContext</text>
<text xml:space="preserve" text-anchor="start" x="33.38" y="-166" font-family="Helvetica,sans-Serif" font-size="10.00"> context)</text>
<polygon fill="#666666" stroke="#666666" points="5.25,-213 5.25,-213 153.5,-213 153.5,-213 5.25,-213"/>
<polygon fill="#666666" stroke="#666666" points="5.25,-198.5 5.25,-198.5 153.5,-198.5 153.5,-198.5 5.25,-198.5"/>
<polygon fill="none" stroke="#666666" points="5.25,-161 5.25,-240 153.5,-240 153.5,-161 5.25,-161"/>
</a>
</g>
</g>
<!-- Node2&#45;&gt;Node1 -->
<g id="edge1_Node000001_Node000002" class="edge">
<title>Node2&#45;&gt;Node1</title>
<g id="a_edge1_Node000001_Node000002"><a xlink:title=" ">
<path fill="none" stroke="#63b8ff" d="M79.38,-150.02C79.38,-141.85 79.38,-133.29 79.38,-124.87"/>
<polygon fill="none" stroke="#63b8ff" points="75.88,-149.74 79.38,-159.74 82.88,-149.74 75.88,-149.74"/>
</a>
</g>
</g>
</g>
</svg>
