<?xml version="1.0" encoding="UTF-8" standalone="no"?>
<!DOCTYPE svg PUBLIC "-//W3C//DTD SVG 1.1//EN"
 "http://www.w3.org/Graphics/SVG/1.1/DTD/svg11.dtd">
<!-- Generated by graphviz version 2.43.0 (0)
 -->
<!-- Title: RpgGame.Input.MoveRightCommand.Execute Pages: 1 -->
<!--zoomable 73 -->

<svg id="main" version="1.1" xmlns="http://www.w3.org/2000/svg" xmlns:xlink="http://www.w3.org/1999/xlink" xml:space="preserve" onload="init(evt)">
<style type="text/css"><![CDATA[
.node, .edge {opacity: 0.7;}
.node.selected, .edge.selected {opacity: 1;}
.edge:hover path { stroke: red; }
.edge:hover polygon { stroke: red; fill: red; }
]]></style>

<defs>
  <circle id="rim" cx="0" cy="0" r="7"/>
  <circle id="rim2" cx="0" cy="0" r="3.5"/>
  <g id="zoomPlus">
    <use xlink:href="#rim" fill="#404040"><set attributeName="fill" to="#808080" begin="zoomplus.mouseover" end="zoomplus.mouseout"/></use>
    <path d="M-4,0h8M0,-4v8" fill="none" stroke="white" stroke-width="1.5" pointer-events="none"/>
  </g>
  <g id="zoomMin">
    <use xlink:href="#rim" fill="#404040"><set attributeName="fill" to="#808080" begin="zoomminus.mouseover" end="zoomminus.mouseout"/></use>
    <path d="M-4,0h8" fill="none" stroke="white" stroke-width="1.5" pointer-events="none"/>
  </g>
  <g id="arrowUp" transform="translate(30 24)">
    <use xlink:href="#rim"/>
    <path pointer-events="none" fill="none" stroke="white" stroke-width="1.5" d="M0,-3.0v7 M-2.5,-0.5L0,-3.0L2.5,-0.5"/>
  </g>
  <g id="arrowRight" transform="rotate(90) translate(36 -43)">
    <use xlink:href="#rim"/>
    <path pointer-events="none" fill="none" stroke="white" stroke-width="1.5" d="M0,-3.0v7 M-2.5,-0.5L0,-3.0L2.5,-0.5"/>
  </g>
  <g id="arrowDown" transform="rotate(180) translate(-30 -48)">
    <use xlink:href="#rim"/>
    <path pointer-events="none" fill="none" stroke="white" stroke-width="1.5" d="M0,-3.0v7 M-2.5,-0.5L0,-3.0L2.5,-0.5"/>
  </g>
  <g id="arrowLeft" transform="rotate(270) translate(-36 17)">
    <use xlink:href="#rim"/>
    <path pointer-events="none" fill="none" stroke="white" stroke-width="1.5" d="M0,-3.0v7 M-2.5,-0.5L0,-3.0L2.5,-0.5"/>
  </g>
  <g id="resetDef">
    <use xlink:href="#rim2" fill="#404040"><set attributeName="fill" to="#808080" begin="reset.mouseover" end="reset.mouseout"/></use>
  </g>
</defs>
<script type="application/ecmascript">
var viewWidth = 815;
var viewHeight = 73;
var sectionId = 'dynsection-2';
</script>
<script type="application/ecmascript" xlink:href="svg.min.js"/>
<svg id="graph" class="graph">
<g id="viewport">
<title>RpgGame.Input.MoveRightCommand.Execute</title>
<!-- Node1 -->
<g id="Node000001" class="node">
<title>Node1</title>
<g id="a_Node000001"><a xlink:title="Executes the command using provided game objects.Typically 1 to indicate the game should continue,...">
<polygon fill="#999999" stroke="#666666" points="201,-51 0,-51 0,-21 201,-21 201,-51"/>
<text text-anchor="start" x="8" y="-39" font-family="Helvetica,sans-Serif" font-size="10.00">RpgGame.Input.MoveRightCommand.</text>
<text text-anchor="middle" x="100.5" y="-28" font-family="Helvetica,sans-Serif" font-size="10.00">Execute</text>
</a>
</g>
</g>
<!-- Node2 -->
<g id="Node000002" class="node">
<title>Node2</title>
<g id="a_Node000002"><a xlink:href="classRpgGame_1_1Core_1_1Level.html#ad48a7c23cc285da72a157194198e553a" target="_top" xlink:title="Retrieves the tile at the specified coordinates.">
<polygon fill="white" stroke="#666666" points="798,-64.5 640,-64.5 640,-45.5 798,-45.5 798,-64.5"/>
<text text-anchor="middle" x="719" y="-52.5" font-family="Helvetica,sans-Serif" font-size="10.00">RpgGame.Core.Level.GetTile</text>
</a>
</g>
</g>
<!-- Node1&#45;&gt;Node2 -->
<g id="edge1_Node000001_Node000002" class="edge">
<title>Node1&#45;&gt;Node2</title>
<g id="a_edge1_Node000001_Node000002"><a xlink:title=" ">
<path fill="none" stroke="#63b8ff" d="M201.24,-39.07C319.99,-42.73 516.49,-48.79 629.88,-52.28"/>
<polygon fill="#63b8ff" stroke="#63b8ff" points="629.81,-55.78 639.92,-52.59 630.03,-48.79 629.81,-55.78"/>
</a>
</g>
</g>
<!-- Node3 -->
<g id="Node000003" class="node">
<title>Node3</title>
<g id="a_Node000003"><a xlink:href="classRpgGame_1_1Core_1_1Level.html#a069520f8d4f28477ce45023ad97fbd95" target="_top" xlink:title="Attempts to move a character to a new position if the move is valid. Also handles item interactions f...">
<polygon fill="white" stroke="#666666" points="401,-30 237,-30 237,0 401,0 401,-30"/>
<text text-anchor="start" x="245" y="-18" font-family="Helvetica,sans-Serif" font-size="10.00">RpgGame.Core.Level.TryMove</text>
<text text-anchor="middle" x="319" y="-7" font-family="Helvetica,sans-Serif" font-size="10.00">Character</text>
</a>
</g>
</g>
<!-- Node1&#45;&gt;Node3 -->
<g id="edge2_Node000001_Node000003" class="edge">
<title>Node1&#45;&gt;Node3</title>
<g id="a_edge2_Node000001_Node000003"><a xlink:title=" ">
<path fill="none" stroke="#63b8ff" d="M201.2,-26.33C209.72,-25.5 218.31,-24.67 226.76,-23.85"/>
<polygon fill="#63b8ff" stroke="#63b8ff" points="227.37,-27.31 236.98,-22.86 226.69,-20.34 227.37,-27.31"/>
</a>
</g>
</g>
<!-- Node4 -->
<g id="Node000004" class="node">
<title>Node4</title>
<g id="a_Node000004"><a xlink:href="classRpgGame_1_1Core_1_1Level.html#af9e6a4b820c77f9390aed74bdc0f1c8a" target="_top" xlink:title="Determines whether a character can move to the specified position.">
<polygon fill="white" stroke="#666666" points="595,-30 437,-30 437,0 595,0 595,-30"/>
<text text-anchor="start" x="445" y="-18" font-family="Helvetica,sans-Serif" font-size="10.00">RpgGame.Core.Level.IsMove</text>
<text text-anchor="middle" x="516" y="-7" font-family="Helvetica,sans-Serif" font-size="10.00">Valid</text>
</a>
</g>
</g>
<!-- Node3&#45;&gt;Node4 -->
<g id="edge3_Node000003_Node000004" class="edge">
<title>Node3&#45;&gt;Node4</title>
<g id="a_edge3_Node000003_Node000004"><a xlink:title=" ">
<path fill="none" stroke="#63b8ff" d="M401,-15C409.5,-15 418.17,-15 426.75,-15"/>
<polygon fill="#63b8ff" stroke="#63b8ff" points="426.75,-18.5 436.75,-15 426.75,-11.5 426.75,-18.5"/>
</a>
</g>
</g>
<!-- Node4&#45;&gt;Node2 -->
<g id="edge4_Node000004_Node000002" class="edge">
<title>Node4&#45;&gt;Node2</title>
<g id="a_edge4_Node000004_Node000002"><a xlink:title=" ">
<path fill="none" stroke="#63b8ff" d="M592.42,-30.01C614.82,-34.47 638.99,-39.28 660.1,-43.48"/>
<polygon fill="#63b8ff" stroke="#63b8ff" points="659.7,-46.97 670.19,-45.49 661.06,-40.1 659.7,-46.97"/>
</a>
</g>
</g>
<!-- Node5 -->
<g id="Node000005" class="node">
<title>Node5</title>
<g id="a_Node000005"><a xlink:href="classRpgGame_1_1Core_1_1Level.html#a29d79bf5cda2e96ca6e823f9d5772db0" target="_top" xlink:title="Checks whether the specified position lies within the level boundaries.">
<polygon fill="white" stroke="#666666" points="807,-24.5 631,-24.5 631,-5.5 807,-5.5 807,-24.5"/>
<text text-anchor="middle" x="719" y="-12.5" font-family="Helvetica,sans-Serif" font-size="10.00">RpgGame.Core.Level.IsInBounds</text>
</a>
</g>
</g>
<!-- Node4&#45;&gt;Node5 -->
<g id="edge5_Node000004_Node000005" class="edge">
<title>Node4&#45;&gt;Node5</title>
<g id="a_edge5_Node000004_Node000005"><a xlink:title=" ">
<path fill="none" stroke="#63b8ff" d="M595.29,-15C603.69,-15 612.3,-15 620.88,-15"/>
<polygon fill="#63b8ff" stroke="#63b8ff" points="620.93,-18.5 630.93,-15 620.93,-11.5 620.93,-18.5"/>
</a>
</g>
</g>
</g>
</svg>

<g id="navigator" transform="translate(0 0)" fill="#404254">
  <rect fill="#f2f5e9" fill-opacity="0.5" stroke="#606060" stroke-width=".5" x="0" y="0" width="60" height="60"/>
  <use id="zoomplus" xlink:href="#zoomPlus" x="17" y="9" onmousedown="handleZoom(evt,'in')"/>
  <use id="zoomminus" xlink:href="#zoomMin" x="42" y="9" onmousedown="handleZoom(evt,'out')"/>
  <use id="reset" xlink:href="#resetDef" x="30" y="36" onmousedown="handleReset()"/>
   <use id="arrowup" xlink:href="#arrowUp" x="0" y="0" onmousedown="handlePan(0,-1)"/>
  <use id="arrowright" xlink:href="#arrowRight" x="0" y="0" onmousedown="handlePan(1,0)"/>
  <use id="arrowdown" xlink:href="#arrowDown" x="0" y="0" onmousedown="handlePan(0,1)"/>
  <use id="arrowleft" xlink:href="#arrowLeft" x="0" y="0" onmousedown="handlePan(-1,0)"/>
</g>
<svg viewBox="0 0 15 15" width="100%" height="30px" preserveAspectRatio="xMaxYMin meet">
 <g id="arrow_out" transform="scale(0.3 0.3)">
  <a xlink:href="classRpgGame_1_1Input_1_1MoveRightCommand_addf3f1cf8496209ebc90dca7ab2e8e44_cgraph_org.svg" target="_base">
   <rect id="button" ry="5" rx="5" y="6" x="6" height="38" width="38"
        fill="#f2f5e9" fill-opacity="0.5" stroke="#606060" stroke-width="1.0"/>
   <path id="arrow"
     d="M 11.500037,31.436501 C 11.940474,20.09759 22.043105,11.32322 32.158766,21.979434 L 37.068811,17.246167 C 37.068811,17.246167 37.088388,32 37.088388,32 L 22.160133,31.978069 C 22.160133,31.978069 26.997745,27.140456 26.997745,27.140456 C 18.528582,18.264221 13.291696,25.230495 11.500037,31.436501 z"
     style="fill:#404040;"/>
  </a>
 </g>
</svg>

<style type='text/css'>
<![CDATA[
[data-mouse-over-selected='false'] { opacity: 0.7; }
[data-mouse-over-selected='true']  { opacity: 1.0; }
]]>
</style>
<script type="application/ecmascript"><![CDATA[
document.addEventListener('DOMContentLoaded', (event) => {
  highlightEdges();
  highlightAdjacentNodes();
});
]]></script>
</svg>
