<?xml version="1.0" encoding="UTF-8" standalone="no"?>
<!DOCTYPE svg PUBLIC "-//W3C//DTD SVG 1.1//EN"
 "http://www.w3.org/Graphics/SVG/1.1/DTD/svg11.dtd">
<!-- Generated by graphviz version 2.43.0 (0)
 -->
<!-- Title: RpgGame.Generation.MapSpawnHelper.SpawnItemsAsync&lt; TItem &gt; Pages: 1 -->
<svg width="378pt" height="56pt"
 viewBox="0.00 0.00 378.00 56.00" xmlns="http://www.w3.org/2000/svg" xmlns:xlink="http://www.w3.org/1999/xlink">
<g id="graph0" class="graph" transform="scale(1 1) rotate(0) translate(4 52)">
<title>RpgGame.Generation.MapSpawnHelper.SpawnItemsAsync&lt; TItem &gt;</title>
<!-- Node1 -->
<g id="Node000001" class="node">
<title>Node1</title>
<g id="a_Node000001"><a xlink:title="Asynchronously places a number of items at random walkable locations on the given level.">
<polygon fill="#999999" stroke="#666666" points="178,-41 0,-41 0,0 178,0 178,-41"/>
<text text-anchor="start" x="8" y="-29" font-family="Helvetica,sans-Serif" font-size="10.00">RpgGame.Generation.MapSpawn</text>
<text text-anchor="start" x="8" y="-18" font-family="Helvetica,sans-Serif" font-size="10.00">Helper.SpawnItemsAsync&lt;</text>
<text text-anchor="middle" x="89" y="-7" font-family="Helvetica,sans-Serif" font-size="10.00"> TItem &gt;</text>
</a>
</g>
</g>
<!-- Node2 -->
<g id="Node000002" class="node">
<title>Node2</title>
<g id="a_Node000002"><a xlink:href="namespaceRpgGame_1_1Character.html#ab2e6f640f8bfc682c50e3c19e0d417f1" target="_top" xlink:title="A record for tracking the position of Characters, Items, and Tiles if needed.">
<polygon fill="white" stroke="#666666" points="370,-30 214,-30 214,-11 370,-11 370,-30"/>
<text text-anchor="middle" x="292" y="-18" font-family="Helvetica,sans-Serif" font-size="10.00">RpgGame.Character.Position</text>
</a>
</g>
</g>
<!-- Node1&#45;&gt;Node2 -->
<g id="edge1_Node000001_Node000002" class="edge">
<title>Node1&#45;&gt;Node2</title>
<g id="a_edge1_Node000001_Node000002"><a xlink:title=" ">
<path fill="none" stroke="#63b8ff" d="M178.16,-20.5C186.64,-20.5 195.23,-20.5 203.69,-20.5"/>
<polygon fill="#63b8ff" stroke="#63b8ff" points="203.94,-24 213.94,-20.5 203.94,-17 203.94,-24"/>
</a>
</g>
</g>
<!-- Node2&#45;&gt;Node2 -->
<g id="edge2_Node000002_Node000002" class="edge">
<title>Node2&#45;&gt;Node2</title>
<g id="a_edge2_Node000002_Node000002"><a xlink:title=" ">
<path fill="none" stroke="#63b8ff" d="M260.87,-30.08C245.72,-38.73 256.1,-48 292,-48 317.24,-48 329.87,-43.42 329.87,-37.69"/>
<polygon fill="#63b8ff" stroke="#63b8ff" points="332.39,-35.25 323.13,-30.08 327.15,-39.89 332.39,-35.25"/>
</a>
</g>
</g>
</g>
</svg>
