<?xml version="1.0" encoding="UTF-8" standalone="no"?>
<!DOCTYPE svg PUBLIC "-//W3C//DTD SVG 1.1//EN"
 "http://www.w3.org/Graphics/SVG/1.1/DTD/svg11.dtd">
<!-- Generated by graphviz version 2.43.0 (0)
 -->
<!-- Title: RpgGame.Generation.DungeonBuilder Pages: 1 -->
<svg width="184pt" height="201pt"
 viewBox="0.00 0.00 184.00 201.00" xmlns="http://www.w3.org/2000/svg" xmlns:xlink="http://www.w3.org/1999/xlink">

<svg id="main" version="1.1" xmlns="http://www.w3.org/2000/svg" xmlns:xlink="http://www.w3.org/1999/xlink" xml:space="preserve" onload="init(evt)">
<style type="text/css"><![CDATA[
.node, .edge {opacity: 0.7;}
.node.selected, .edge.selected {opacity: 1;}
.edge:hover path { stroke: red; }
.edge:hover polygon { stroke: red; fill: red; }
]]></style>
<script type="application/ecmascript" xlink:href="svg.min.js"/>
<svg id="graph" class="graph">
<g id="graph0" class="graph" transform="scale(1 1) rotate(0) translate(4 197)">
<title>RpgGame.Generation.DungeonBuilder</title>
<!-- Node1 -->
<g id="Node000001" class="node">
<title>Node1</title>
<g id="a_Node000001"><a xlink:title="Implements the Builder Pattern to compose multiple dungeon generation procedures.">
<polygon fill="#999999" stroke="transparent" points="176,-97 0,-97 0,0 176,0 176,-97"/>
<text text-anchor="start" x="12" y="-84.5" font-family="Helvetica,sans-Serif" font-size="10.00">RpgGame.Generation.Dungeon</text>
<text text-anchor="start" x="70.5" y="-73.5" font-family="Helvetica,sans-Serif" font-size="10.00">Builder</text>
<text text-anchor="start" x="86" y="-58.5" font-family="Helvetica,sans-Serif" font-size="10.00"> </text>
<text text-anchor="start" x="4" y="-43.5" font-family="Helvetica,sans-Serif" font-size="10.00">+</text>
<text text-anchor="start" x="17" y="-43.5" font-family="Helvetica,sans-Serif" font-size="10.00">DungeonBuilder Add</text>
<text text-anchor="start" x="17" y="-32.5" font-family="Helvetica,sans-Serif" font-size="10.00">(IDungeonProcedure procedure)</text>
<text text-anchor="start" x="4" y="-17.5" font-family="Helvetica,sans-Serif" font-size="10.00">+</text>
<text text-anchor="start" x="17" y="-17.5" font-family="Helvetica,sans-Serif" font-size="10.00">async Task GenerateAsync</text>
<text text-anchor="start" x="17" y="-6.5" font-family="Helvetica,sans-Serif" font-size="10.00">(Level level)</text>
<polygon fill="#666666" stroke="#666666" points="0,-68.5 0,-68.5 176,-68.5 176,-68.5 0,-68.5"/>
<polygon fill="#666666" stroke="#666666" points="0,-53.5 0,-53.5 176,-53.5 176,-53.5 0,-53.5"/>
<polygon fill="none" stroke="#666666" points="0,0 0,-97 176,-97 176,0 0,0"/>
</a>
</g>
</g>
<!-- Node2 -->
<g id="Node000002" class="node">
<title>Node2</title>
<g id="a_Node000002"><a xlink:href="interfaceRpgGame_1_1Generation_1_1IMapGenerator.html" target="_top" xlink:title="Defines the contract for procedural level generation strategies.">
<polygon fill="white" stroke="transparent" points="148.5,-193 27.5,-193 27.5,-133 148.5,-133 148.5,-193"/>
<text text-anchor="start" x="52" y="-181" font-family="Helvetica,sans-Serif" font-size="10.00">IMapGenerator</text>
<text text-anchor="start" x="86.5" y="-166" font-family="Helvetica,sans-Serif" font-size="10.00"> </text>
<text text-anchor="start" x="32" y="-151" font-family="Helvetica,sans-Serif" font-size="10.00">+</text>
<text text-anchor="start" x="45" y="-151" font-family="Helvetica,sans-Serif" font-size="10.00">Task GenerateAsync</text>
<text text-anchor="start" x="45" y="-140" font-family="Helvetica,sans-Serif" font-size="10.00">(Level level)</text>
<polygon fill="#666666" stroke="#666666" points="28,-176 28,-176 149,-176 149,-176 28,-176"/>
<polygon fill="#666666" stroke="#666666" points="28,-161 28,-161 149,-161 149,-161 28,-161"/>
<polygon fill="none" stroke="#666666" points="27.5,-133 27.5,-193 148.5,-193 148.5,-133 27.5,-133"/>
</a>
</g>
</g>
<!-- Node2&#45;&gt;Node1 -->
<g id="edge1_Node000001_Node000002" class="edge">
<title>Node2&#45;&gt;Node1</title>
<g id="a_edge1_Node000001_Node000002"><a xlink:title=" ">
<path fill="none" stroke="#63b8ff" d="M88,-122.71C88,-114.52 88,-105.81 88,-97.35"/>
<polygon fill="none" stroke="#63b8ff" points="84.5,-122.74 88,-132.74 91.5,-122.74 84.5,-122.74"/>
</a>
</g>
</g>
</g>
</svg>
</svg>

<style type='text/css'>
<![CDATA[
[data-mouse-over-selected='false'] { opacity: 0.7; }
[data-mouse-over-selected='true']  { opacity: 1.0; }
]]>
</style>
<script type="application/ecmascript"><![CDATA[
document.addEventListener('DOMContentLoaded', (event) => {
  highlightEdges();
  highlightAdjacentNodes();
});
]]></script>
</svg>
