<?xml version="1.0" encoding="UTF-8" standalone="no"?>
<!DOCTYPE svg PUBLIC "-//W3C//DTD SVG 1.1//EN"
 "http://www.w3.org/Graphics/SVG/1.1/DTD/svg11.dtd">
<!-- Generated by graphviz version 13.1.2 (20250808.2320)
 -->
<!-- Title: RpgGame.Generation.Procedures.PathsProcedure Pages: 1 -->
<svg width="167pt" height="202pt"
 viewBox="0.00 0.00 167.00 202.00" xmlns="http://www.w3.org/2000/svg" xmlns:xlink="http://www.w3.org/1999/xlink">

<svg id="main" version="1.1" xmlns="http://www.w3.org/2000/svg" xmlns:xlink="http://www.w3.org/1999/xlink" xml:space="preserve">

<style type="text/css"><![CDATA[
.node, .edge {opacity: 0.7;}
.node.selected, .edge.selected {opacity: 1;}
.edge:hover path { stroke: red; }
.edge:hover polygon { stroke: red; fill: red; }
]]></style>
<script type="application/ecmascript" xlink:href="svg.min.js"/>
<svg id="graph" class="graph">
<g id="graph0" class="graph" transform="scale(1 1) rotate(0) translate(4 198)">
<title>RpgGame.Generation.Procedures.PathsProcedure</title>
<!-- Node1 -->
<g id="Node000001" class="node">
<title>Node1</title>
<g id="a_Node000001"><a xlink:title="Generates corridors connecting all rooms to a central room.">
<polygon fill="#999999" stroke="none" points="158.75,-79 0,-79 0,0 158.75,0 158.75,-79"/>
<text xml:space="preserve" text-anchor="start" x="4" y="-65.5" font-family="Helvetica,sans-Serif" font-size="10.00">RpgGame.Generation.Procedures.</text>
<text xml:space="preserve" text-anchor="start" x="44.5" y="-55" font-family="Helvetica,sans-Serif" font-size="10.00">PathsProcedure</text>
<text xml:space="preserve" text-anchor="start" x="77.88" y="-40.5" font-family="Helvetica,sans-Serif" font-size="10.00"> </text>
<text xml:space="preserve" text-anchor="start" x="13.69" y="-26" font-family="Helvetica,sans-Serif" font-size="10.00">+</text>
<text xml:space="preserve" text-anchor="start" x="33.38" y="-26" font-family="Helvetica,sans-Serif" font-size="10.00">Task ApplyAsync(Level</text>
<text xml:space="preserve" text-anchor="start" x="33.38" y="-15.5" font-family="Helvetica,sans-Serif" font-size="10.00"> level, DungeonContext</text>
<text xml:space="preserve" text-anchor="start" x="33.38" y="-5" font-family="Helvetica,sans-Serif" font-size="10.00"> context)</text>
<polygon fill="#666666" stroke="#666666" points="0,-52 0,-52 158.75,-52 158.75,-52 0,-52"/>
<polygon fill="#666666" stroke="#666666" points="0,-37.5 0,-37.5 158.75,-37.5 158.75,-37.5 0,-37.5"/>
<polygon fill="none" stroke="#666666" points="0,0 0,-79 158.75,-79 158.75,0 0,0"/>
</a>
</g>
</g>
<!-- Node2 -->
<g id="Node000002" class="node">
<title>Node2</title>
<g id="a_Node000002"><a xlink:href="interfaceRpgGame_1_1Generation_1_1IDungeonProcedure.html" target="_top" xlink:title="Defines a procedural step in dungeon generation.">
<polygon fill="white" stroke="none" points="153.5,-194 5.25,-194 5.25,-115 153.5,-115 153.5,-194"/>
<text xml:space="preserve" text-anchor="start" x="9.25" y="-180.5" font-family="Helvetica,sans-Serif" font-size="10.00">RpgGame.Generation.IDungeon</text>
<text xml:space="preserve" text-anchor="start" x="57.25" y="-170" font-family="Helvetica,sans-Serif" font-size="10.00">Procedure</text>
<text xml:space="preserve" text-anchor="start" x="77.88" y="-155.5" font-family="Helvetica,sans-Serif" font-size="10.00"> </text>
<text xml:space="preserve" text-anchor="start" x="16.31" y="-141" font-family="Helvetica,sans-Serif" font-size="10.00">+</text>
<text xml:space="preserve" text-anchor="start" x="33.38" y="-141" font-family="Helvetica,sans-Serif" font-size="10.00">Task ApplyAsync(Level</text>
<text xml:space="preserve" text-anchor="start" x="33.38" y="-130.5" font-family="Helvetica,sans-Serif" font-size="10.00"> level, DungeonContext</text>
<text xml:space="preserve" text-anchor="start" x="33.38" y="-120" font-family="Helvetica,sans-Serif" font-size="10.00"> context)</text>
<polygon fill="#666666" stroke="#666666" points="5.25,-167 5.25,-167 153.5,-167 153.5,-167 5.25,-167"/>
<polygon fill="#666666" stroke="#666666" points="5.25,-152.5 5.25,-152.5 153.5,-152.5 153.5,-152.5 5.25,-152.5"/>
<polygon fill="none" stroke="#666666" points="5.25,-115 5.25,-194 153.5,-194 153.5,-115 5.25,-115"/>
</a>
</g>
</g>
<!-- Node2&#45;&gt;Node1 -->
<g id="edge1_Node000001_Node000002" class="edge">
<title>Node2&#45;&gt;Node1</title>
<g id="a_edge1_Node000001_Node000002"><a xlink:title=" ">
<path fill="none" stroke="#63b8ff" d="M79.38,-103.92C79.38,-95.47 79.38,-86.81 79.38,-78.72"/>
<polygon fill="none" stroke="#63b8ff" points="75.88,-103.73 79.38,-113.73 82.88,-103.73 75.88,-103.73"/>
</a>
</g>
</g>
</g>
</svg>
</svg>

<style type='text/css'>
<![CDATA[
[data-mouse-over-selected='false'] { opacity: 0.7; }
[data-mouse-over-selected='true']  { opacity: 1.0; }
]]>
</style>
<script type="application/ecmascript"><![CDATA[
document.addEventListener('DOMContentLoaded', (event) => {
  highlightEdges();
  highlightAdjacentNodes();
});
]]></script>
</svg>
