<?xml version="1.0" encoding="UTF-8" standalone="no"?>
<!DOCTYPE svg PUBLIC "-//W3C//DTD SVG 1.1//EN"
 "http://www.w3.org/Graphics/SVG/1.1/DTD/svg11.dtd">
<!-- Generated by graphviz version 2.43.0 (0)
 -->
<!-- Title: RpgGame.Generation.SimpleRoomGenerator Pages: 1 -->
<svg width="160pt" height="175pt"
 viewBox="0.00 0.00 160.00 175.00" xmlns="http://www.w3.org/2000/svg" xmlns:xlink="http://www.w3.org/1999/xlink">

<svg id="main" version="1.1" xmlns="http://www.w3.org/2000/svg" xmlns:xlink="http://www.w3.org/1999/xlink" xml:space="preserve" onload="init(evt)">
<style type="text/css"><![CDATA[
.node, .edge {opacity: 0.7;}
.node.selected, .edge.selected {opacity: 1;}
.edge:hover path { stroke: red; }
.edge:hover polygon { stroke: red; fill: red; }
]]></style>
<script type="application/ecmascript" xlink:href="svg.min.js"/>
<svg id="graph" class="graph">
<g id="graph0" class="graph" transform="scale(1 1) rotate(0) translate(4 171)">
<title>RpgGame.Generation.SimpleRoomGenerator</title>
<!-- Node1 -->
<g id="Node000001" class="node">
<title>Node1</title>
<g id="a_Node000001"><a xlink:title="Generates a simple room&#45;based level layout with borders, random wall clusters, and predefined item sp...">
<polygon fill="#999999" stroke="transparent" points="152,-71 0,-71 0,0 152,0 152,-71"/>
<text text-anchor="start" x="5" y="-58.5" font-family="Helvetica,sans-Serif" font-size="10.00">RpgGame.Generation.Simple</text>
<text text-anchor="start" x="37" y="-47.5" font-family="Helvetica,sans-Serif" font-size="10.00">RoomGenerator</text>
<text text-anchor="start" x="74" y="-32.5" font-family="Helvetica,sans-Serif" font-size="10.00"> </text>
<text text-anchor="start" x="4" y="-17.5" font-family="Helvetica,sans-Serif" font-size="10.00">+</text>
<text text-anchor="start" x="17" y="-17.5" font-family="Helvetica,sans-Serif" font-size="10.00">async Task GenerateAsync</text>
<text text-anchor="start" x="17" y="-6.5" font-family="Helvetica,sans-Serif" font-size="10.00">(Level level)</text>
<polygon fill="#666666" stroke="#666666" points="0,-42.5 0,-42.5 152,-42.5 152,-42.5 0,-42.5"/>
<polygon fill="#666666" stroke="#666666" points="0,-27.5 0,-27.5 152,-27.5 152,-27.5 0,-27.5"/>
<polygon fill="none" stroke="#666666" points="0,0 0,-71 152,-71 152,0 0,0"/>
</a>
</g>
</g>
<!-- Node2 -->
<g id="Node000002" class="node">
<title>Node2</title>
<g id="a_Node000002"><a xlink:href="interfaceRpgGame_1_1Generation_1_1IMapGenerator.html" target="_top" xlink:title="Defines the contract for procedural level generation strategies.">
<polygon fill="white" stroke="transparent" points="136.5,-167 15.5,-167 15.5,-107 136.5,-107 136.5,-167"/>
<text text-anchor="start" x="40" y="-155" font-family="Helvetica,sans-Serif" font-size="10.00">IMapGenerator</text>
<text text-anchor="start" x="74.5" y="-140" font-family="Helvetica,sans-Serif" font-size="10.00"> </text>
<text text-anchor="start" x="20" y="-125" font-family="Helvetica,sans-Serif" font-size="10.00">+</text>
<text text-anchor="start" x="33" y="-125" font-family="Helvetica,sans-Serif" font-size="10.00">Task GenerateAsync</text>
<text text-anchor="start" x="33" y="-114" font-family="Helvetica,sans-Serif" font-size="10.00">(Level level)</text>
<polygon fill="#666666" stroke="#666666" points="16,-150 16,-150 137,-150 137,-150 16,-150"/>
<polygon fill="#666666" stroke="#666666" points="16,-135 16,-135 137,-135 137,-135 16,-135"/>
<polygon fill="none" stroke="#666666" points="15.5,-107 15.5,-167 136.5,-167 136.5,-107 15.5,-107"/>
</a>
</g>
</g>
<!-- Node2&#45;&gt;Node1 -->
<g id="edge1_Node000001_Node000002" class="edge">
<title>Node2&#45;&gt;Node1</title>
<g id="a_edge1_Node000001_Node000002"><a xlink:title=" ">
<path fill="none" stroke="#63b8ff" d="M76,-96.84C76,-88.32 76,-79.36 76,-71.04"/>
<polygon fill="none" stroke="#63b8ff" points="72.5,-96.95 76,-106.95 79.5,-96.95 72.5,-96.95"/>
</a>
</g>
</g>
</g>
</svg>
</svg>

<style type='text/css'>
<![CDATA[
[data-mouse-over-selected='false'] { opacity: 0.7; }
[data-mouse-over-selected='true']  { opacity: 1.0; }
]]>
</style>
<script type="application/ecmascript"><![CDATA[
document.addEventListener('DOMContentLoaded', (event) => {
  highlightEdges();
  highlightAdjacentNodes();
});
]]></script>
</svg>
