<?xml version="1.0" encoding="UTF-8" standalone="no"?>
<!DOCTYPE svg PUBLIC "-//W3C//DTD SVG 1.1//EN"
 "http://www.w3.org/Graphics/SVG/1.1/DTD/svg11.dtd">
<!-- Generated by graphviz version 2.43.0 (0)
 -->
<!-- Title: RpgGame.Core.Level.GetTile Pages: 1 -->
<svg width="799pt" height="241pt"
 viewBox="0.00 0.00 799.00 241.00" xmlns="http://www.w3.org/2000/svg" xmlns:xlink="http://www.w3.org/1999/xlink">
<g id="graph0" class="graph" transform="scale(1 1) rotate(0) translate(4 237)">
<title>RpgGame.Core.Level.GetTile</title>
<!-- Node1 -->
<g id="Node000001" class="node">
<title>Node1</title>
<g id="a_Node000001"><a xlink:title="Retrieves the tile at the specified coordinates.">
<polygon fill="#999999" stroke="#666666" points="791,-126.5 633,-126.5 633,-107.5 791,-107.5 791,-126.5"/>
<text text-anchor="middle" x="712" y="-114.5" font-family="Helvetica,sans-Serif" font-size="10.00">RpgGame.Core.Level.GetTile</text>
</a>
</g>
</g>
<!-- Node2 -->
<g id="Node000002" class="node">
<title>Node2</title>
<g id="a_Node000002"><a xlink:href="classRpgGame_1_1Input_1_1MoveDownCommand.html#ae2bb14b8cd81c7dfd4c024e7816d3856" target="_top" xlink:title="Executes the command using provided game objects.Typically 1 to indicate the game should continue,...">
<polygon fill="white" stroke="#666666" points="203,-233 0,-233 0,-203 203,-203 203,-233"/>
<text text-anchor="start" x="8" y="-221" font-family="Helvetica,sans-Serif" font-size="10.00">RpgGame.Input.MoveDownCommand.</text>
<text text-anchor="middle" x="101.5" y="-210" font-family="Helvetica,sans-Serif" font-size="10.00">Execute</text>
</a>
</g>
</g>
<!-- Node1&#45;&gt;Node2 -->
<g id="edge1_Node000001_Node000002" class="edge">
<title>Node1&#45;&gt;Node2</title>
<g id="a_edge1_Node000001_Node000002"><a xlink:title=" ">
<path fill="none" stroke="#63b8ff" d="M691.58,-132.81C669.96,-149.4 633.27,-174.6 597,-186 465.48,-227.33 304.85,-229.45 203.09,-225.26"/>
<polygon fill="#63b8ff" stroke="#63b8ff" points="693.91,-135.44 699.61,-126.51 689.59,-129.93 693.91,-135.44"/>
</a>
</g>
</g>
<!-- Node3 -->
<g id="Node000003" class="node">
<title>Node3</title>
<g id="a_Node000003"><a xlink:href="classRpgGame_1_1Input_1_1MoveLeftCommand.html#a6f72bae13e13dfec5271a62e066d6c6e" target="_top" xlink:title="Executes the command using provided game objects.Typically 1 to indicate the game should continue,...">
<polygon fill="white" stroke="#666666" points="198.5,-184 4.5,-184 4.5,-154 198.5,-154 198.5,-184"/>
<text text-anchor="start" x="12.5" y="-172" font-family="Helvetica,sans-Serif" font-size="10.00">RpgGame.Input.MoveLeftCommand.</text>
<text text-anchor="middle" x="101.5" y="-161" font-family="Helvetica,sans-Serif" font-size="10.00">Execute</text>
</a>
</g>
</g>
<!-- Node1&#45;&gt;Node3 -->
<g id="edge2_Node000001_Node000003" class="edge">
<title>Node1&#45;&gt;Node3</title>
<g id="a_edge2_Node000001_Node000003"><a xlink:title=" ">
<path fill="none" stroke="#63b8ff" d="M684.13,-131.17C661.57,-142.24 628.13,-156.76 597,-163 460.83,-190.29 299.33,-185.49 198.86,-178.26"/>
<polygon fill="#63b8ff" stroke="#63b8ff" points="685.72,-134.29 693.09,-126.67 682.58,-128.03 685.72,-134.29"/>
</a>
</g>
</g>
<!-- Node4 -->
<g id="Node000004" class="node">
<title>Node4</title>
<g id="a_Node000004"><a xlink:href="classRpgGame_1_1Input_1_1MoveRightCommand.html#addf3f1cf8496209ebc90dca7ab2e8e44" target="_top" xlink:title="Executes the command using provided game objects.Typically 1 to indicate the game should continue,...">
<polygon fill="white" stroke="#666666" points="202,-134 1,-134 1,-104 202,-104 202,-134"/>
<text text-anchor="start" x="9" y="-122" font-family="Helvetica,sans-Serif" font-size="10.00">RpgGame.Input.MoveRightCommand.</text>
<text text-anchor="middle" x="101.5" y="-111" font-family="Helvetica,sans-Serif" font-size="10.00">Execute</text>
</a>
</g>
</g>
<!-- Node1&#45;&gt;Node4 -->
<g id="edge3_Node000001_Node000004" class="edge">
<title>Node1&#45;&gt;Node4</title>
<g id="a_edge3_Node000001_Node000004"><a xlink:title=" ">
<path fill="none" stroke="#63b8ff" d="M622.66,-115.3C613.99,-115.18 605.32,-115.07 597,-115 437.9,-113.6 398.09,-112.67 239,-115 227.03,-115.18 214.47,-115.44 202.02,-115.74"/>
<polygon fill="#63b8ff" stroke="#63b8ff" points="622.76,-118.8 632.81,-115.45 622.87,-111.8 622.76,-118.8"/>
</a>
</g>
</g>
<!-- Node5 -->
<g id="Node000005" class="node">
<title>Node5</title>
<g id="a_Node000005"><a xlink:href="classRpgGame_1_1Input_1_1MoveUpCommand.html#a0db6076a2d209af09ab0149e5fef7674" target="_top" xlink:title="Executes the command using provided game objects.Typically 1 to indicate the game should continue,...">
<polygon fill="white" stroke="#666666" points="196,-82 7,-82 7,-52 196,-52 196,-82"/>
<text text-anchor="start" x="15" y="-70" font-family="Helvetica,sans-Serif" font-size="10.00">RpgGame.Input.MoveUpCommand.</text>
<text text-anchor="middle" x="101.5" y="-59" font-family="Helvetica,sans-Serif" font-size="10.00">Execute</text>
</a>
</g>
</g>
<!-- Node1&#45;&gt;Node5 -->
<g id="edge4_Node000001_Node000005" class="edge">
<title>Node1&#45;&gt;Node5</title>
<g id="a_edge4_Node000001_Node000005"><a xlink:title=" ">
<path fill="none" stroke="#63b8ff" d="M622.63,-109.74C508.97,-100.4 312.4,-84.25 196.2,-74.7"/>
<polygon fill="#63b8ff" stroke="#63b8ff" points="622.44,-113.23 632.69,-110.57 623.02,-106.26 622.44,-113.23"/>
</a>
</g>
</g>
<!-- Node6 -->
<g id="Node000006" class="node">
<title>Node6</title>
<g id="a_Node000006"><a xlink:href="classRpgGame_1_1Core_1_1Level.html#af9e6a4b820c77f9390aed74bdc0f1c8a" target="_top" xlink:title="Determines whether a character can move to the specified position.">
<polygon fill="white" stroke="#666666" points="597,-154 439,-154 439,-124 597,-124 597,-154"/>
<text text-anchor="start" x="447" y="-142" font-family="Helvetica,sans-Serif" font-size="10.00">RpgGame.Core.Level.IsMove</text>
<text text-anchor="middle" x="518" y="-131" font-family="Helvetica,sans-Serif" font-size="10.00">Valid</text>
</a>
</g>
</g>
<!-- Node1&#45;&gt;Node6 -->
<g id="edge5_Node000001_Node000006" class="edge">
<title>Node1&#45;&gt;Node6</title>
<g id="a_edge5_Node000001_Node000006"><a xlink:title=" ">
<path fill="none" stroke="#63b8ff" d="M622.85,-127.1C614.23,-128.09 605.53,-129.09 597.02,-130.06"/>
<polygon fill="#63b8ff" stroke="#63b8ff" points="623.37,-130.56 632.91,-125.95 622.57,-123.61 623.37,-130.56"/>
</a>
</g>
</g>
<!-- Node8 -->
<g id="Node000008" class="node">
<title>Node8</title>
<g id="a_Node000008"><a xlink:href="classRpgGame_1_1Renderer_1_1ConsoleRenderer.html#a8165e28216b39fd3fbd460f3541ddcf3" target="_top" xlink:title="Renders the current level state and player information to the console. If the help flag is set,...">
<polygon fill="white" stroke="#666666" points="594.5,-30 441.5,-30 441.5,0 594.5,0 594.5,-30"/>
<text text-anchor="start" x="449.5" y="-18" font-family="Helvetica,sans-Serif" font-size="10.00">RpgGame.Renderer.Console</text>
<text text-anchor="middle" x="518" y="-7" font-family="Helvetica,sans-Serif" font-size="10.00">Renderer.Render</text>
</a>
</g>
</g>
<!-- Node1&#45;&gt;Node8 -->
<g id="edge11_Node000001_Node000008" class="edge">
<title>Node1&#45;&gt;Node8</title>
<g id="a_edge11_Node000001_Node000008"><a xlink:title=" ">
<path fill="none" stroke="#63b8ff" d="M689.48,-101.23C667.15,-85.36 630.82,-60.87 597,-44 586.79,-38.9 575.45,-34.19 564.65,-30.11"/>
<polygon fill="#63b8ff" stroke="#63b8ff" points="687.7,-104.27 697.87,-107.26 691.79,-98.58 687.7,-104.27"/>
</a>
</g>
</g>
<!-- Node7 -->
<g id="Node000007" class="node">
<title>Node7</title>
<g id="a_Node000007"><a xlink:href="classRpgGame_1_1Core_1_1Level.html#a069520f8d4f28477ce45023ad97fbd95" target="_top" xlink:title="Attempts to move a character to a new position if the move is valid. Also handles item interactions f...">
<polygon fill="white" stroke="#666666" points="403,-154 239,-154 239,-124 403,-124 403,-154"/>
<text text-anchor="start" x="247" y="-142" font-family="Helvetica,sans-Serif" font-size="10.00">RpgGame.Core.Level.TryMove</text>
<text text-anchor="middle" x="321" y="-131" font-family="Helvetica,sans-Serif" font-size="10.00">Character</text>
</a>
</g>
</g>
<!-- Node6&#45;&gt;Node7 -->
<g id="edge6_Node000006_Node000007" class="edge">
<title>Node6&#45;&gt;Node7</title>
<g id="a_edge6_Node000006_Node000007"><a xlink:title=" ">
<path fill="none" stroke="#63b8ff" d="M428.81,-139C420.24,-139 411.57,-139 403.08,-139"/>
<polygon fill="#63b8ff" stroke="#63b8ff" points="428.81,-142.5 438.81,-139 428.81,-135.5 428.81,-142.5"/>
</a>
</g>
</g>
<!-- Node7&#45;&gt;Node2 -->
<g id="edge7_Node000007_Node000002" class="edge">
<title>Node7&#45;&gt;Node2</title>
<g id="a_edge7_Node000007_Node000002"><a xlink:title=" ">
<path fill="none" stroke="#63b8ff" d="M282.09,-158.71C259.55,-169.87 230.15,-183.46 203,-193 192.57,-196.67 181.35,-200.02 170.32,-202.99"/>
<polygon fill="#63b8ff" stroke="#63b8ff" points="283.93,-161.71 291.3,-154.1 280.79,-155.45 283.93,-161.71"/>
</a>
</g>
</g>
<!-- Node7&#45;&gt;Node3 -->
<g id="edge8_Node000007_Node000003" class="edge">
<title>Node7&#45;&gt;Node3</title>
<g id="a_edge8_Node000007_Node000003"><a xlink:title=" ">
<path fill="none" stroke="#63b8ff" d="M228.52,-151.62C218.68,-152.98 208.64,-154.36 198.74,-155.73"/>
<polygon fill="#63b8ff" stroke="#63b8ff" points="229.27,-155.05 238.7,-150.21 228.32,-148.11 229.27,-155.05"/>
</a>
</g>
</g>
<!-- Node7&#45;&gt;Node4 -->
<g id="edge9_Node000007_Node000004" class="edge">
<title>Node7&#45;&gt;Node4</title>
<g id="a_edge9_Node000007_Node000004"><a xlink:title=" ">
<path fill="none" stroke="#63b8ff" d="M228.52,-130.59C219.78,-129.78 210.89,-128.97 202.08,-128.16"/>
<polygon fill="#63b8ff" stroke="#63b8ff" points="228.42,-134.09 238.7,-131.52 229.06,-127.12 228.42,-134.09"/>
</a>
</g>
</g>
<!-- Node7&#45;&gt;Node5 -->
<g id="edge10_Node000007_Node000005" class="edge">
<title>Node7&#45;&gt;Node5</title>
<g id="a_edge10_Node000007_Node000005"><a xlink:title=" ">
<path fill="none" stroke="#63b8ff" d="M273.18,-120.31C251.91,-112.11 226.35,-102.63 203,-95 189.14,-90.47 174.06,-86.02 159.9,-82.05"/>
<polygon fill="#63b8ff" stroke="#63b8ff" points="272.03,-123.62 282.62,-123.98 274.57,-117.1 272.03,-123.62"/>
</a>
</g>
</g>
</g>
</svg>
