<?xml version="1.0" encoding="UTF-8" standalone="no"?>
<!DOCTYPE svg PUBLIC "-//W3C//DTD SVG 1.1//EN"
 "http://www.w3.org/Graphics/SVG/1.1/DTD/svg11.dtd">
<!-- Generated by graphviz version 2.43.0 (0)
 -->
<!-- Title: RpgGame.Renderer.ConsoleRenderer Pages: 1 -->
<svg width="155pt" height="142pt"
 viewBox="0.00 0.00 155.00 142.00" xmlns="http://www.w3.org/2000/svg" xmlns:xlink="http://www.w3.org/1999/xlink">
<g id="graph0" class="graph" transform="scale(1 1) rotate(0) translate(4 138)">
<title>RpgGame.Renderer.ConsoleRenderer</title>
<!-- Node1 -->
<g id="Node000001" class="node">
<title>Node1</title>
<g id="a_Node000001"><a xlink:title="Handles rendering the game world and sidebar to the console.">
<polygon fill="#999999" stroke="transparent" points="147,-134 0,-134 0,0 147,0 147,-134"/>
<text text-anchor="start" x="5.5" y="-122" font-family="Helvetica,sans-Serif" font-size="10.00">RpgGame.Renderer.Console</text>
<text text-anchor="start" x="51.5" y="-111" font-family="Helvetica,sans-Serif" font-size="10.00">Renderer</text>
<text text-anchor="start" x="72" y="-96" font-family="Helvetica,sans-Serif" font-size="10.00"> </text>
<text text-anchor="start" x="5" y="-81" font-family="Helvetica,sans-Serif" font-size="10.00">+</text>
<text text-anchor="start" x="18.5" y="-81" font-family="Helvetica,sans-Serif" font-size="10.00">void RegisterHelpEntry</text>
<text text-anchor="start" x="18.5" y="-70" font-family="Helvetica,sans-Serif" font-size="10.00">(string keyText, string</text>
<text text-anchor="start" x="18.5" y="-59" font-family="Helvetica,sans-Serif" font-size="10.00"> description)</text>
<text text-anchor="start" x="5" y="-44" font-family="Helvetica,sans-Serif" font-size="10.00">+</text>
<text text-anchor="start" x="18.5" y="-44" font-family="Helvetica,sans-Serif" font-size="10.00">void ToggleHelpDisplay()</text>
<text text-anchor="start" x="5" y="-29" font-family="Helvetica,sans-Serif" font-size="10.00">+</text>
<text text-anchor="start" x="18.5" y="-29" font-family="Helvetica,sans-Serif" font-size="10.00">void Render(Level level,</text>
<text text-anchor="start" x="18.5" y="-18" font-family="Helvetica,sans-Serif" font-size="10.00"> Character.Player player,</text>
<text text-anchor="start" x="18.5" y="-7" font-family="Helvetica,sans-Serif" font-size="10.00"> Inventory inventory)</text>
<polygon fill="#666666" stroke="#666666" points="0.5,-106 0.5,-106 147.5,-106 147.5,-106 0.5,-106"/>
<polygon fill="#666666" stroke="#666666" points="0.5,-91 0.5,-91 147.5,-91 147.5,-91 0.5,-91"/>
<polygon fill="none" stroke="#666666" points="0,0 0,-134 147,-134 147,0 0,0"/>
</a>
</g>
</g>
</g>
</svg>
