<?xml version="1.0" encoding="UTF-8" standalone="no"?>
<!DOCTYPE svg PUBLIC "-//W3C//DTD SVG 1.1//EN"
 "http://www.w3.org/Graphics/SVG/1.1/DTD/svg11.dtd">
<!-- Generated by graphviz version 13.1.2 (20250808.2320)
 -->
<!-- Title: RpgGame.Generation.SimpleRoomGenerator Pages: 1 -->
<svg width="179pt" height="171pt"
 viewBox="0.00 0.00 179.00 171.00" xmlns="http://www.w3.org/2000/svg" xmlns:xlink="http://www.w3.org/1999/xlink">
<g id="graph0" class="graph" transform="scale(1 1) rotate(0) translate(4 166.5)">
<title>RpgGame.Generation.SimpleRoomGenerator</title>
<!-- Node1 -->
<g id="Node000001" class="node">
<title>Node1</title>
<g id="a_Node000001"><a xlink:title="Generates a simple room&#45;based level layout with borders, random wall clusters, and predefined item sp...">
<polygon fill="#999999" stroke="none" points="154,-68.5 16.75,-68.5 16.75,0 154,0 154,-68.5"/>
<text xml:space="preserve" text-anchor="start" x="21.25" y="-55" font-family="Helvetica,sans-Serif" font-size="10.00">RpgGame.Generation.Simple</text>
<text xml:space="preserve" text-anchor="start" x="50.88" y="-44.5" font-family="Helvetica,sans-Serif" font-size="10.00">RoomGenerator</text>
<text xml:space="preserve" text-anchor="start" x="83.88" y="-30" font-family="Helvetica,sans-Serif" font-size="10.00"> </text>
<text xml:space="preserve" text-anchor="start" x="20.75" y="-15.5" font-family="Helvetica,sans-Serif" font-size="10.00">+</text>
<text xml:space="preserve" text-anchor="start" x="30.75" y="-15.5" font-family="Helvetica,sans-Serif" font-size="10.00">async Task GenerateAsync</text>
<text xml:space="preserve" text-anchor="start" x="30.75" y="-5" font-family="Helvetica,sans-Serif" font-size="10.00">(Level level)</text>
<polygon fill="#666666" stroke="#666666" points="16.75,-41.5 16.75,-41.5 154,-41.5 154,-41.5 16.75,-41.5"/>
<polygon fill="#666666" stroke="#666666" points="16.75,-27 16.75,-27 154,-27 154,-27 16.75,-27"/>
<polygon fill="none" stroke="#666666" points="16.75,0 16.75,-68.5 154,-68.5 154,0 16.75,0"/>
</a>
</g>
</g>
<!-- Node2 -->
<g id="Node000002" class="node">
<title>Node2</title>
<g id="a_Node000002"><a xlink:href="interfaceRpgGame_1_1Generation_1_1IMapGenerator.html" target="_top" xlink:title="Defines the contract for procedural level generation strategies.">
<polygon fill="white" stroke="none" points="170.75,-162.5 0,-162.5 0,-104.5 170.75,-104.5 170.75,-162.5"/>
<text xml:space="preserve" text-anchor="start" x="4" y="-149" font-family="Helvetica,sans-Serif" font-size="10.00">RpgGame.Generation.IMapGenerator</text>
<text xml:space="preserve" text-anchor="start" x="83.88" y="-134.5" font-family="Helvetica,sans-Serif" font-size="10.00"> </text>
<text xml:space="preserve" text-anchor="start" x="19.5" y="-120" font-family="Helvetica,sans-Serif" font-size="10.00">+</text>
<text xml:space="preserve" text-anchor="start" x="45" y="-120" font-family="Helvetica,sans-Serif" font-size="10.00">Task GenerateAsync</text>
<text xml:space="preserve" text-anchor="start" x="45" y="-109.5" font-family="Helvetica,sans-Serif" font-size="10.00">(Level level)</text>
<polygon fill="#666666" stroke="#666666" points="0,-146 0,-146 170.75,-146 170.75,-146 0,-146"/>
<polygon fill="#666666" stroke="#666666" points="0,-131.5 0,-131.5 170.75,-131.5 170.75,-131.5 0,-131.5"/>
<polygon fill="none" stroke="#666666" points="0,-104.5 0,-162.5 170.75,-162.5 170.75,-104.5 0,-104.5"/>
</a>
</g>
</g>
<!-- Node2&#45;&gt;Node1 -->
<g id="edge1_Node000001_Node000002" class="edge">
<title>Node2&#45;&gt;Node1</title>
<g id="a_edge1_Node000001_Node000002"><a xlink:title=" ">
<path fill="none" stroke="#63b8ff" d="M85.38,-93.27C85.38,-84.98 85.38,-76.32 85.38,-68.29"/>
<polygon fill="none" stroke="#63b8ff" points="81.88,-93.12 85.38,-103.12 88.88,-93.12 81.88,-93.12"/>
</a>
</g>
</g>
</g>
</svg>
