<?xml version="1.0" encoding="UTF-8" standalone="no"?>
<!DOCTYPE svg PUBLIC "-//W3C//DTD SVG 1.1//EN"
 "http://www.w3.org/Graphics/SVG/1.1/DTD/svg11.dtd">
<!-- Generated by graphviz version 13.1.2 (20250808.2320)
 -->
<!-- Title: RpgGame.Renderer.HelpOverlay Pages: 1 -->
<svg width="159pt" height="91pt"
 viewBox="0.00 0.00 159.00 91.00" xmlns="http://www.w3.org/2000/svg" xmlns:xlink="http://www.w3.org/1999/xlink">
<g id="graph0" class="graph" transform="scale(1 1) rotate(0) translate(4 87)">
<title>RpgGame.Renderer.HelpOverlay</title>
<!-- Node1 -->
<g id="Node000001" class="node">
<title>Node1</title>
<g id="a_Node000001"><a xlink:title="Responsible for storing and rendering a list of controls/help information as an overlay/popup in the ...">
<polygon fill="#999999" stroke="none" points="151.25,-83 0,-83 0,0 151.25,0 151.25,-83"/>
<text xml:space="preserve" text-anchor="start" x="4" y="-69.5" font-family="Helvetica,sans-Serif" font-size="10.00">RpgGame.Renderer.HelpOverlay</text>
<text xml:space="preserve" text-anchor="start" x="8.62" y="-55" font-family="Helvetica,sans-Serif" font-size="10.00">+</text>
<text xml:space="preserve" text-anchor="start" x="23.25" y="-55" font-family="Helvetica,sans-Serif" font-size="10.00">IReadOnlyList&lt; HelpEntry</text>
<text xml:space="preserve" text-anchor="start" x="23.25" y="-44.5" font-family="Helvetica,sans-Serif" font-size="10.00"> &gt; Entries</text>
<text xml:space="preserve" text-anchor="start" x="8.62" y="-30" font-family="Helvetica,sans-Serif" font-size="10.00">+</text>
<text xml:space="preserve" text-anchor="start" x="23.25" y="-30" font-family="Helvetica,sans-Serif" font-size="10.00">void Add(string keyText,</text>
<text xml:space="preserve" text-anchor="start" x="23.25" y="-19.5" font-family="Helvetica,sans-Serif" font-size="10.00"> string description)</text>
<text xml:space="preserve" text-anchor="start" x="8.62" y="-5" font-family="Helvetica,sans-Serif" font-size="10.00">+</text>
<text xml:space="preserve" text-anchor="start" x="23.25" y="-5" font-family="Helvetica,sans-Serif" font-size="10.00">void Show()</text>
<polygon fill="#666666" stroke="#666666" points="0,-66.5 0,-66.5 151.25,-66.5 151.25,-66.5 0,-66.5"/>
<polygon fill="#666666" stroke="#666666" points="0,-41.5 0,-41.5 21.25,-41.5 21.25,-41.5 0,-41.5"/>
<polygon fill="#666666" stroke="#666666" points="21.25,-41.5 21.25,-41.5 151.25,-41.5 151.25,-41.5 21.25,-41.5"/>
<polygon fill="none" stroke="#666666" points="0,0 0,-83 151.25,-83 151.25,0 0,0"/>
</a>
</g>
</g>
</g>
</svg>
