<?xml version="1.0" encoding="UTF-8" standalone="no"?>
<!DOCTYPE svg PUBLIC "-//W3C//DTD SVG 1.1//EN"
 "http://www.w3.org/Graphics/SVG/1.1/DTD/svg11.dtd">
<!-- Generated by graphviz version 2.43.0 (0)
 -->
<!-- Title: RpgGame.Input.MoveUpCommand Pages: 1 -->
<svg width="188pt" height="186pt"
 viewBox="0.00 0.00 188.00 186.00" xmlns="http://www.w3.org/2000/svg" xmlns:xlink="http://www.w3.org/1999/xlink">
<g id="graph0" class="graph" transform="scale(1 1) rotate(0) translate(4 182)">
<title>RpgGame.Input.MoveUpCommand</title>
<!-- Node1 -->
<g id="Node000001" class="node">
<title>Node1</title>
<g id="a_Node000001"><a xlink:title="Moves the player one tile up (north) on the level.">
<polygon fill="#999999" stroke="transparent" points="180,-71 0,-71 0,0 180,0 180,-71"/>
<text text-anchor="start" x="5" y="-58.5" font-family="Helvetica,sans-Serif" font-size="10.00">RpgGame.Input.MoveUpCommand</text>
<text text-anchor="start" x="88" y="-43.5" font-family="Helvetica,sans-Serif" font-size="10.00"> </text>
<text text-anchor="start" x="13.5" y="-28.5" font-family="Helvetica,sans-Serif" font-size="10.00">+</text>
<text text-anchor="start" x="36" y="-28.5" font-family="Helvetica,sans-Serif" font-size="10.00">int Execute(Level level,</text>
<text text-anchor="start" x="36" y="-17.5" font-family="Helvetica,sans-Serif" font-size="10.00"> Player player, Inventory</text>
<text text-anchor="start" x="36" y="-6.5" font-family="Helvetica,sans-Serif" font-size="10.00"> inventory)</text>
<polygon fill="#666666" stroke="#666666" points="0,-53.5 0,-53.5 180,-53.5 180,-53.5 0,-53.5"/>
<polygon fill="#666666" stroke="#666666" points="0,-38.5 0,-38.5 180,-38.5 180,-38.5 0,-38.5"/>
<polygon fill="none" stroke="#666666" points="0,0 0,-71 180,-71 180,0 0,0"/>
</a>
</g>
</g>
<!-- Node2 -->
<g id="Node000002" class="node">
<title>Node2</title>
<g id="a_Node000002"><a xlink:href="interfaceRpgGame_1_1Input_1_1IInputCommand.html" target="_top" xlink:title="Represents a user input command that manipulates the game state (level, player, inventory) and return...">
<polygon fill="white" stroke="transparent" points="161,-178 19,-178 19,-107 161,-107 161,-178"/>
<text text-anchor="start" x="50.5" y="-165.5" font-family="Helvetica,sans-Serif" font-size="10.00">IInputCommand</text>
<text text-anchor="start" x="88" y="-150.5" font-family="Helvetica,sans-Serif" font-size="10.00"> </text>
<text text-anchor="start" x="23" y="-135.5" font-family="Helvetica,sans-Serif" font-size="10.00">+</text>
<text text-anchor="start" x="36" y="-135.5" font-family="Helvetica,sans-Serif" font-size="10.00">int Execute(Level level,</text>
<text text-anchor="start" x="36" y="-124.5" font-family="Helvetica,sans-Serif" font-size="10.00"> Player player, Inventory</text>
<text text-anchor="start" x="36" y="-113.5" font-family="Helvetica,sans-Serif" font-size="10.00"> inventory)</text>
<polygon fill="#666666" stroke="#666666" points="19,-160.5 19,-160.5 161,-160.5 161,-160.5 19,-160.5"/>
<polygon fill="#666666" stroke="#666666" points="19,-145.5 19,-145.5 161,-145.5 161,-145.5 19,-145.5"/>
<polygon fill="none" stroke="#666666" points="19,-107 19,-178 161,-178 161,-107 19,-107"/>
</a>
</g>
</g>
<!-- Node2&#45;&gt;Node1 -->
<g id="edge1_Node000001_Node000002" class="edge">
<title>Node2&#45;&gt;Node1</title>
<g id="a_edge1_Node000001_Node000002"><a xlink:title=" ">
<path fill="none" stroke="#63b8ff" d="M90,-96.62C90,-88.09 90,-79.29 90,-71.14"/>
<polygon fill="none" stroke="#63b8ff" points="86.5,-96.83 90,-106.83 93.5,-96.83 86.5,-96.83"/>
</a>
</g>
</g>
</g>
</svg>
