<?xml version="1.0" encoding="UTF-8" standalone="no"?>
<!DOCTYPE svg PUBLIC "-//W3C//DTD SVG 1.1//EN"
 "http://www.w3.org/Graphics/SVG/1.1/DTD/svg11.dtd">
<!-- Generated by graphviz version 13.1.2 (20250808.2320)
 -->
<!-- Title: RpgGame.Input.MoveDownCommand.Execute Pages: 1 -->
<svg width="941pt" height="101pt"
 viewBox="0.00 0.00 941.00 101.00" xmlns="http://www.w3.org/2000/svg" xmlns:xlink="http://www.w3.org/1999/xlink">
<g id="graph0" class="graph" transform="scale(1 1) rotate(0) translate(4 96.5)">
<title>RpgGame.Input.MoveDownCommand.Execute</title>
<!-- Node1 -->
<g id="Node000001" class="node">
<title>Node1</title>
<g id="a_Node000001"><a xlink:title="Executes the command using provided game objects.Typically 1 to indicate the game should continue,...">
<polygon fill="#999999" stroke="#666666" points="184.75,-75.75 0,-75.75 0,-46.75 184.75,-46.75 184.75,-75.75"/>
<text xml:space="preserve" text-anchor="start" x="8" y="-62.25" font-family="Helvetica,sans-Serif" font-size="10.00">RpgGame.Input.MoveDownCommand.</text>
<text xml:space="preserve" text-anchor="middle" x="92.38" y="-51.75" font-family="Helvetica,sans-Serif" font-size="10.00">Execute</text>
</a>
</g>
</g>
<!-- Node2 -->
<g id="Node000002" class="node">
<title>Node2</title>
<g id="a_Node000002"><a xlink:href="classRpgGame_1_1Core_1_1Level.html#ad48a7c23cc285da72a157194198e553a" target="_top" xlink:title="Retrieves the tile at the specified coordinates.">
<polygon fill="white" stroke="#666666" points="742.75,-92.5 597.75,-92.5 597.75,-74 742.75,-74 742.75,-92.5"/>
<text xml:space="preserve" text-anchor="middle" x="670.25" y="-79" font-family="Helvetica,sans-Serif" font-size="10.00">RpgGame.Core.Level.GetTile</text>
</a>
</g>
</g>
<!-- Node1&#45;&gt;Node2 -->
<g id="edge1_Node000001_Node000002" class="edge">
<title>Node1&#45;&gt;Node2</title>
<g id="a_edge1_Node000001_Node000002"><a xlink:title=" ">
<path fill="none" stroke="#63b8ff" d="M184.94,-64.75C295.48,-68.97 479.76,-76.01 586.29,-80.08"/>
<polygon fill="#63b8ff" stroke="#63b8ff" points="585.98,-83.57 596.1,-80.46 586.25,-76.58 585.98,-83.57"/>
</a>
</g>
</g>
<!-- Node3 -->
<g id="Node000003" class="node">
<title>Node3</title>
<g id="a_Node000003"><a xlink:href="classRpgGame_1_1Core_1_1Level.html#a069520f8d4f28477ce45023ad97fbd95" target="_top" xlink:title="Attempts to move a character to a new position if the move is valid.">
<polygon fill="white" stroke="#666666" points="371.75,-54.75 220.75,-54.75 220.75,-25.75 371.75,-25.75 371.75,-54.75"/>
<text xml:space="preserve" text-anchor="start" x="228.75" y="-41.25" font-family="Helvetica,sans-Serif" font-size="10.00">RpgGame.Core.Level.TryMove</text>
<text xml:space="preserve" text-anchor="middle" x="296.25" y="-30.75" font-family="Helvetica,sans-Serif" font-size="10.00">Character</text>
</a>
</g>
</g>
<!-- Node1&#45;&gt;Node3 -->
<g id="edge2_Node000001_Node000003" class="edge">
<title>Node1&#45;&gt;Node3</title>
<g id="a_edge2_Node000001_Node000003"><a xlink:title=" ">
<path fill="none" stroke="#63b8ff" d="M185.16,-51.7C193.06,-50.88 201.05,-50.05 208.91,-49.23"/>
<polygon fill="#63b8ff" stroke="#63b8ff" points="209.23,-52.72 218.82,-48.2 208.51,-45.75 209.23,-52.72"/>
</a>
</g>
</g>
<!-- Node4 -->
<g id="Node000004" class="node">
<title>Node4</title>
<g id="a_Node000004"><a xlink:href="classRpgGame_1_1Core_1_1Level.html#af9e6a4b820c77f9390aed74bdc0f1c8a" target="_top" xlink:title="Determines whether a character can move to the specified position.">
<polygon fill="white" stroke="#666666" points="552.75,-54.75 407.75,-54.75 407.75,-25.75 552.75,-25.75 552.75,-54.75"/>
<text xml:space="preserve" text-anchor="start" x="415.75" y="-41.25" font-family="Helvetica,sans-Serif" font-size="10.00">RpgGame.Core.Level.IsMove</text>
<text xml:space="preserve" text-anchor="middle" x="480.25" y="-30.75" font-family="Helvetica,sans-Serif" font-size="10.00">Valid</text>
</a>
</g>
</g>
<!-- Node3&#45;&gt;Node4 -->
<g id="edge3_Node000003_Node000004" class="edge">
<title>Node3&#45;&gt;Node4</title>
<g id="a_edge3_Node000003_Node000004"><a xlink:title=" ">
<path fill="none" stroke="#63b8ff" d="M372.06,-40.25C379.99,-40.25 388.09,-40.25 396.11,-40.25"/>
<polygon fill="#63b8ff" stroke="#63b8ff" points="395.85,-43.75 405.85,-40.25 395.85,-36.75 395.85,-43.75"/>
</a>
</g>
</g>
<!-- Node6 -->
<g id="Node000006" class="node">
<title>Node6</title>
<g id="a_Node000006"><a xlink:href="namespaceRpgGame_1_1Character.html#ab2e6f640f8bfc682c50e3c19e0d417f1" target="_top" xlink:title="A record for tracking the position of Characters, Items, and Tiles if needed.">
<polygon fill="white" stroke="#666666" points="932.75,-18.5 787.75,-18.5 787.75,0 932.75,0 932.75,-18.5"/>
<text xml:space="preserve" text-anchor="middle" x="860.25" y="-5" font-family="Helvetica,sans-Serif" font-size="10.00">RpgGame.Character.Position</text>
</a>
</g>
</g>
<!-- Node3&#45;&gt;Node6 -->
<g id="edge9_Node000003_Node000006" class="edge">
<title>Node3&#45;&gt;Node6</title>
<g id="a_edge9_Node000003_Node000006"><a xlink:title=" ">
<path fill="none" stroke="#63b8ff" d="M359.46,-25.29C375.13,-22.07 391.99,-19.09 407.75,-17.25 535.63,-2.3 685.24,-3.24 776.08,-5.83"/>
<polygon fill="#63b8ff" stroke="#63b8ff" points="775.79,-9.32 785.89,-6.13 776,-2.33 775.79,-9.32"/>
</a>
</g>
</g>
<!-- Node4&#45;&gt;Node2 -->
<g id="edge4_Node000004_Node000002" class="edge">
<title>Node4&#45;&gt;Node2</title>
<g id="a_edge4_Node000004_Node000002"><a xlink:title=" ">
<path fill="none" stroke="#63b8ff" d="M546.74,-55.23C569.2,-60.37 594.05,-66.05 615.47,-70.95"/>
<polygon fill="#63b8ff" stroke="#63b8ff" points="614.65,-74.35 625.18,-73.17 616.21,-67.53 614.65,-74.35"/>
</a>
</g>
</g>
<!-- Node5 -->
<g id="Node000005" class="node">
<title>Node5</title>
<g id="a_Node000005"><a xlink:href="classRpgGame_1_1Core_1_1Level.html#a29d79bf5cda2e96ca6e823f9d5772db0" target="_top" xlink:title="Checks whether the specified position lies within the level boundaries.">
<polygon fill="white" stroke="#666666" points="751.75,-55.5 588.75,-55.5 588.75,-37 751.75,-37 751.75,-55.5"/>
<text xml:space="preserve" text-anchor="middle" x="670.25" y="-42" font-family="Helvetica,sans-Serif" font-size="10.00">RpgGame.Core.Level.IsInBounds</text>
</a>
</g>
</g>
<!-- Node4&#45;&gt;Node5 -->
<g id="edge5_Node000004_Node000005" class="edge">
<title>Node4&#45;&gt;Node5</title>
<g id="a_edge5_Node000004_Node000005"><a xlink:title=" ">
<path fill="none" stroke="#63b8ff" d="M553.13,-42.54C560.95,-42.79 568.99,-43.05 577.01,-43.31"/>
<polygon fill="#63b8ff" stroke="#63b8ff" points="576.69,-46.8 586.8,-43.62 576.91,-39.8 576.69,-46.8"/>
</a>
</g>
</g>
<!-- Node4&#45;&gt;Node6 -->
<g id="edge8_Node000004_Node000006" class="edge">
<title>Node4&#45;&gt;Node6</title>
<g id="a_edge8_Node000004_Node000006"><a xlink:title=" ">
<path fill="none" stroke="#63b8ff" d="M553.2,-31.81C565.07,-30.53 577.25,-29.3 588.75,-28.25 651.43,-22.55 722.41,-17.62 775.94,-14.22"/>
<polygon fill="#63b8ff" stroke="#63b8ff" points="776.16,-17.71 785.91,-13.59 775.71,-10.72 776.16,-17.71"/>
</a>
</g>
</g>
<!-- Node5&#45;&gt;Node6 -->
<g id="edge6_Node000005_Node000006" class="edge">
<title>Node5&#45;&gt;Node6</title>
<g id="a_edge6_Node000005_Node000006"><a xlink:title=" ">
<path fill="none" stroke="#63b8ff" d="M720.64,-36.53C744.51,-31.83 773.38,-26.15 798.57,-21.19"/>
<polygon fill="#63b8ff" stroke="#63b8ff" points="799.24,-24.63 808.37,-19.26 797.89,-17.76 799.24,-24.63"/>
</a>
</g>
</g>
<!-- Node6&#45;&gt;Node6 -->
<g id="edge7_Node000006_Node000006" class="edge">
<title>Node6&#45;&gt;Node6</title>
<g id="a_edge7_Node000006_Node000006"><a xlink:title=" ">
<path fill="none" stroke="#63b8ff" d="M830.97,-18.75C816.72,-27.32 826.48,-36.5 860.25,-36.5 880.3,-36.5 891.89,-33.26 895.01,-28.84"/>
<polygon fill="#63b8ff" stroke="#63b8ff" points="898.1,-27.2 890.26,-20.08 891.95,-30.53 898.1,-27.2"/>
</a>
</g>
</g>
</g>
</svg>
