<?xml version="1.0" encoding="UTF-8" standalone="no"?>
<!DOCTYPE svg PUBLIC "-//W3C//DTD SVG 1.1//EN"
 "http://www.w3.org/Graphics/SVG/1.1/DTD/svg11.dtd">
<!-- Generated by graphviz version 2.43.0 (0)
 -->
<!-- Title: RpgGame.Tiles.Tile Pages: 1 -->
<svg width="125pt" height="117pt"
 viewBox="0.00 0.00 125.00 117.00" xmlns="http://www.w3.org/2000/svg" xmlns:xlink="http://www.w3.org/1999/xlink">
<g id="graph0" class="graph" transform="scale(1 1) rotate(0) translate(4 113)">
<title>RpgGame.Tiles.Tile</title>
<!-- Node1 -->
<g id="Node000001" class="node">
<title>Node1</title>
<g id="a_Node000001"><a xlink:title="Base abstract class representing a tile in the game world.">
<polygon fill="#999999" stroke="transparent" points="117,-109 0,-109 0,0 117,0 117,-109"/>
<text text-anchor="start" x="11" y="-96.5" font-family="Helvetica,sans-Serif" font-size="10.00">RpgGame.Tiles.Tile</text>
<text text-anchor="start" x="4.5" y="-81.5" font-family="Helvetica,sans-Serif" font-size="10.00">+</text>
<text text-anchor="start" x="17.5" y="-81.5" font-family="Helvetica,sans-Serif" font-size="10.00">List&lt; Tile &gt; PosList</text>
<text text-anchor="start" x="4.5" y="-66.5" font-family="Helvetica,sans-Serif" font-size="10.00">+</text>
<text text-anchor="start" x="17.5" y="-66.5" font-family="Helvetica,sans-Serif" font-size="10.00">char Symbol</text>
<text text-anchor="start" x="4.5" y="-51.5" font-family="Helvetica,sans-Serif" font-size="10.00">+</text>
<text text-anchor="start" x="17.5" y="-51.5" font-family="Helvetica,sans-Serif" font-size="10.00">ConsoleColor color</text>
<text text-anchor="start" x="4.5" y="-36.5" font-family="Helvetica,sans-Serif" font-size="10.00">+</text>
<text text-anchor="start" x="17.5" y="-36.5" font-family="Helvetica,sans-Serif" font-size="10.00">bool IsWalkable</text>
<text text-anchor="start" x="4.5" y="-21.5" font-family="Helvetica,sans-Serif" font-size="10.00">+</text>
<text text-anchor="start" x="17.5" y="-21.5" font-family="Helvetica,sans-Serif" font-size="10.00">bool IsOccupied</text>
<text text-anchor="start" x="57" y="-6.5" font-family="Helvetica,sans-Serif" font-size="10.00"> </text>
<polygon fill="#666666" stroke="#666666" points="0.5,-91.5 0.5,-91.5 117.5,-91.5 117.5,-91.5 0.5,-91.5"/>
<polygon fill="#666666" stroke="#666666" points="0.5,-16.5 0.5,-16.5 15.5,-16.5 15.5,-16.5 0.5,-16.5"/>
<polygon fill="#666666" stroke="#666666" points="15.5,-16.5 15.5,-16.5 117.5,-16.5 117.5,-16.5 15.5,-16.5"/>
<polygon fill="none" stroke="#666666" points="0,0 0,-109 117,-109 117,0 0,0"/>
</a>
</g>
</g>
</g>
</svg>
