<?xml version="1.0" encoding="UTF-8" standalone="no"?>
<!DOCTYPE svg PUBLIC "-//W3C//DTD SVG 1.1//EN"
 "http://www.w3.org/Graphics/SVG/1.1/DTD/svg11.dtd">
<!-- Generated by graphviz version 13.1.2 (20250808.2320)
 -->
<!-- Title: RpgGame.Generation.Procedures.CentralRoomProcedure Pages: 1 -->
<svg width="167pt" height="227pt"
 viewBox="0.00 0.00 167.00 227.00" xmlns="http://www.w3.org/2000/svg" xmlns:xlink="http://www.w3.org/1999/xlink">
<g id="graph0" class="graph" transform="scale(1 1) rotate(0) translate(4 223)">
<title>RpgGame.Generation.Procedures.CentralRoomProcedure</title>
<!-- Node1 -->
<g id="Node000001" class="node">
<title>Node1</title>
<g id="a_Node000001"><a xlink:title="Generates a central room in the dungeon.">
<polygon fill="#999999" stroke="none" points="158.75,-104 0,-104 0,0 158.75,0 158.75,-104"/>
<text xml:space="preserve" text-anchor="start" x="4" y="-90.5" font-family="Helvetica,sans-Serif" font-size="10.00">RpgGame.Generation.Procedures.</text>
<text xml:space="preserve" text-anchor="start" x="28.38" y="-80" font-family="Helvetica,sans-Serif" font-size="10.00">CentralRoomProcedure</text>
<text xml:space="preserve" text-anchor="start" x="77.88" y="-65.5" font-family="Helvetica,sans-Serif" font-size="10.00"> </text>
<text xml:space="preserve" text-anchor="start" x="13.69" y="-51" font-family="Helvetica,sans-Serif" font-size="10.00">+</text>
<text xml:space="preserve" text-anchor="start" x="33.38" y="-51" font-family="Helvetica,sans-Serif" font-size="10.00">CentralRoomProcedure</text>
<text xml:space="preserve" text-anchor="start" x="33.38" y="-40.5" font-family="Helvetica,sans-Serif" font-size="10.00">(int width, int height)</text>
<text xml:space="preserve" text-anchor="start" x="13.69" y="-26" font-family="Helvetica,sans-Serif" font-size="10.00">+</text>
<text xml:space="preserve" text-anchor="start" x="33.38" y="-26" font-family="Helvetica,sans-Serif" font-size="10.00">Task ApplyAsync(Level</text>
<text xml:space="preserve" text-anchor="start" x="33.38" y="-15.5" font-family="Helvetica,sans-Serif" font-size="10.00"> level, DungeonContext</text>
<text xml:space="preserve" text-anchor="start" x="33.38" y="-5" font-family="Helvetica,sans-Serif" font-size="10.00"> context)</text>
<polygon fill="#666666" stroke="#666666" points="0,-77 0,-77 158.75,-77 158.75,-77 0,-77"/>
<polygon fill="#666666" stroke="#666666" points="0,-62.5 0,-62.5 158.75,-62.5 158.75,-62.5 0,-62.5"/>
<polygon fill="none" stroke="#666666" points="0,0 0,-104 158.75,-104 158.75,0 0,0"/>
</a>
</g>
</g>
<!-- Node2 -->
<g id="Node000002" class="node">
<title>Node2</title>
<g id="a_Node000002"><a xlink:href="interfaceRpgGame_1_1Generation_1_1IDungeonProcedure.html" target="_top" xlink:title="Defines a procedural step in dungeon generation.">
<polygon fill="white" stroke="none" points="153.5,-219 5.25,-219 5.25,-140 153.5,-140 153.5,-219"/>
<text xml:space="preserve" text-anchor="start" x="9.25" y="-205.5" font-family="Helvetica,sans-Serif" font-size="10.00">RpgGame.Generation.IDungeon</text>
<text xml:space="preserve" text-anchor="start" x="57.25" y="-195" font-family="Helvetica,sans-Serif" font-size="10.00">Procedure</text>
<text xml:space="preserve" text-anchor="start" x="77.88" y="-180.5" font-family="Helvetica,sans-Serif" font-size="10.00"> </text>
<text xml:space="preserve" text-anchor="start" x="16.31" y="-166" font-family="Helvetica,sans-Serif" font-size="10.00">+</text>
<text xml:space="preserve" text-anchor="start" x="33.38" y="-166" font-family="Helvetica,sans-Serif" font-size="10.00">Task ApplyAsync(Level</text>
<text xml:space="preserve" text-anchor="start" x="33.38" y="-155.5" font-family="Helvetica,sans-Serif" font-size="10.00"> level, DungeonContext</text>
<text xml:space="preserve" text-anchor="start" x="33.38" y="-145" font-family="Helvetica,sans-Serif" font-size="10.00"> context)</text>
<polygon fill="#666666" stroke="#666666" points="5.25,-192 5.25,-192 153.5,-192 153.5,-192 5.25,-192"/>
<polygon fill="#666666" stroke="#666666" points="5.25,-177.5 5.25,-177.5 153.5,-177.5 153.5,-177.5 5.25,-177.5"/>
<polygon fill="none" stroke="#666666" points="5.25,-140 5.25,-219 153.5,-219 153.5,-140 5.25,-140"/>
</a>
</g>
</g>
<!-- Node2&#45;&gt;Node1 -->
<g id="edge1_Node000001_Node000002" class="edge">
<title>Node2&#45;&gt;Node1</title>
<g id="a_edge1_Node000001_Node000002"><a xlink:title=" ">
<path fill="none" stroke="#63b8ff" d="M79.38,-128.74C79.38,-120.47 79.38,-111.89 79.38,-103.59"/>
<polygon fill="none" stroke="#63b8ff" points="75.88,-128.65 79.38,-138.65 82.88,-128.65 75.88,-128.65"/>
</a>
</g>
</g>
</g>
</svg>
