<?xml version="1.0" encoding="UTF-8" standalone="no"?>
<!DOCTYPE svg PUBLIC "-//W3C//DTD SVG 1.1//EN"
 "http://www.w3.org/Graphics/SVG/1.1/DTD/svg11.dtd">
<!-- Generated by graphviz version 13.1.2 (20250808.2320)
 -->
<!-- Title: RpgGame.Renderer.ConsoleRenderer.Render Pages: 1 -->
<svg width="532pt" height="83pt"
 viewBox="0.00 0.00 532.00 83.00" xmlns="http://www.w3.org/2000/svg" xmlns:xlink="http://www.w3.org/1999/xlink">
<g id="graph0" class="graph" transform="scale(1 1) rotate(0) translate(4 78.5)">
<title>RpgGame.Renderer.ConsoleRenderer.Render</title>
<!-- Node1 -->
<g id="Node000001" class="node">
<title>Node1</title>
<g id="a_Node000001"><a xlink:title="Renders the current level state and player information to the console. If the help flag is set,...">
<polygon fill="#999999" stroke="#666666" points="142,-42.75 0,-42.75 0,-13.75 142,-13.75 142,-42.75"/>
<text xml:space="preserve" text-anchor="start" x="8" y="-29.25" font-family="Helvetica,sans-Serif" font-size="10.00">RpgGame.Renderer.Console</text>
<text xml:space="preserve" text-anchor="middle" x="71" y="-18.75" font-family="Helvetica,sans-Serif" font-size="10.00">Renderer.Render</text>
</a>
</g>
</g>
<!-- Node2 -->
<g id="Node000002" class="node">
<title>Node2</title>
<g id="a_Node000002"><a xlink:href="classRpgGame_1_1Core_1_1Level.html#ad48a7c23cc285da72a157194198e553a" target="_top" xlink:title="Retrieves the tile at the specified coordinates.">
<polygon fill="white" stroke="#666666" points="332.75,-74.5 187.75,-74.5 187.75,-56 332.75,-56 332.75,-74.5"/>
<text xml:space="preserve" text-anchor="middle" x="260.25" y="-61" font-family="Helvetica,sans-Serif" font-size="10.00">RpgGame.Core.Level.GetTile</text>
</a>
</g>
</g>
<!-- Node1&#45;&gt;Node2 -->
<g id="edge1_Node000001_Node000002" class="edge">
<title>Node1&#45;&gt;Node2</title>
<g id="a_edge1_Node000001_Node000002"><a xlink:title=" ">
<path fill="none" stroke="#63b8ff" d="M142.26,-42.13C160.82,-45.8 180.69,-49.73 198.69,-53.28"/>
<polygon fill="#63b8ff" stroke="#63b8ff" points="197.94,-56.7 208.43,-55.21 199.3,-49.84 197.94,-56.7"/>
</a>
</g>
</g>
<!-- Node3 -->
<g id="Node000003" class="node">
<title>Node3</title>
<g id="a_Node000003"><a xlink:href="classRpgGame_1_1Core_1_1Level.html#a50c45cab6083fa428e8534c83d841f57" target="_top" xlink:title="Retrieves the top item at a position without removing it.">
<polygon fill="white" stroke="#666666" points="342.5,-37.5 178,-37.5 178,-19 342.5,-19 342.5,-37.5"/>
<text xml:space="preserve" text-anchor="middle" x="260.25" y="-24" font-family="Helvetica,sans-Serif" font-size="10.00">RpgGame.Core.Level.GetTopItem</text>
</a>
</g>
</g>
<!-- Node1&#45;&gt;Node3 -->
<g id="edge2_Node000001_Node000003" class="edge">
<title>Node1&#45;&gt;Node3</title>
<g id="a_edge2_Node000001_Node000003"><a xlink:title=" ">
<path fill="none" stroke="#63b8ff" d="M142.26,-28.25C150.09,-28.25 158.15,-28.25 166.21,-28.25"/>
<polygon fill="#63b8ff" stroke="#63b8ff" points="166.05,-31.75 176.05,-28.25 166.05,-24.75 166.05,-31.75"/>
</a>
</g>
</g>
<!-- Node4 -->
<g id="Node000004" class="node">
<title>Node4</title>
<g id="a_Node000004"><a xlink:href="namespaceRpgGame_1_1Character.html#ab2e6f640f8bfc682c50e3c19e0d417f1" target="_top" xlink:title="A record for tracking the position of Characters, Items, and Tiles if needed.">
<polygon fill="white" stroke="#666666" points="523.5,-18.5 378.5,-18.5 378.5,0 523.5,0 523.5,-18.5"/>
<text xml:space="preserve" text-anchor="middle" x="451" y="-5" font-family="Helvetica,sans-Serif" font-size="10.00">RpgGame.Character.Position</text>
</a>
</g>
</g>
<!-- Node1&#45;&gt;Node4 -->
<g id="edge5_Node000001_Node000004" class="edge">
<title>Node1&#45;&gt;Node4</title>
<g id="a_edge5_Node000001_Node000004"><a xlink:title=" ">
<path fill="none" stroke="#63b8ff" d="M142.49,-14.62C154.31,-12.81 166.47,-11.24 178,-10.25 241.25,-4.8 313.08,-4.8 367.04,-6.03"/>
<polygon fill="#63b8ff" stroke="#63b8ff" points="366.67,-9.52 376.76,-6.27 366.85,-2.52 366.67,-9.52"/>
</a>
</g>
</g>
<!-- Node3&#45;&gt;Node4 -->
<g id="edge3_Node000003_Node000004" class="edge">
<title>Node3&#45;&gt;Node4</title>
<g id="a_edge3_Node000003_Node000004"><a xlink:title=" ">
<path fill="none" stroke="#63b8ff" d="M342.94,-20.03C350.93,-19.22 359.05,-18.41 367.05,-17.6"/>
<polygon fill="#63b8ff" stroke="#63b8ff" points="367.16,-21.11 376.76,-16.62 366.46,-14.14 367.16,-21.11"/>
</a>
</g>
</g>
<!-- Node4&#45;&gt;Node4 -->
<g id="edge4_Node000004_Node000004" class="edge">
<title>Node4&#45;&gt;Node4</title>
<g id="a_edge4_Node000004_Node000004"><a xlink:title=" ">
<path fill="none" stroke="#63b8ff" d="M421.6,-18.75C407.3,-27.32 417.1,-36.5 451,-36.5 471.13,-36.5 482.76,-33.26 485.9,-28.84"/>
<polygon fill="#63b8ff" stroke="#63b8ff" points="488.98,-27.18 481.12,-20.07 482.83,-30.53 488.98,-27.18"/>
</a>
</g>
</g>
</g>
</svg>
