<?xml version="1.0" encoding="UTF-8" standalone="no"?>
<!DOCTYPE svg PUBLIC "-//W3C//DTD SVG 1.1//EN"
 "http://www.w3.org/Graphics/SVG/1.1/DTD/svg11.dtd">
<!-- Generated by graphviz version 2.43.0 (0)
 -->
<!-- Title: RpgGame.Renderer.HelpEntry Pages: 1 -->
<svg width="164pt" height="83pt"
 viewBox="0.00 0.00 164.00 83.00" xmlns="http://www.w3.org/2000/svg" xmlns:xlink="http://www.w3.org/1999/xlink">
<g id="graph0" class="graph" transform="scale(1 1) rotate(0) translate(4 79)">
<title>RpgGame.Renderer.HelpEntry</title>
<!-- Node1 -->
<g id="Node000001" class="node">
<title>Node1</title>
<g id="a_Node000001"><a xlink:title="Represents a single entry displayed in the help popup.">
<polygon fill="#999999" stroke="transparent" points="156,-75 0,-75 0,0 156,0 156,-75"/>
<text text-anchor="start" x="5" y="-62.5" font-family="Helvetica,sans-Serif" font-size="10.00">RpgGame.Renderer.HelpEntry</text>
<text text-anchor="start" x="6.5" y="-47.5" font-family="Helvetica,sans-Serif" font-size="10.00">+</text>
<text text-anchor="start" x="22" y="-47.5" font-family="Helvetica,sans-Serif" font-size="10.00">string KeyText</text>
<text text-anchor="start" x="6.5" y="-32.5" font-family="Helvetica,sans-Serif" font-size="10.00">+</text>
<text text-anchor="start" x="22" y="-32.5" font-family="Helvetica,sans-Serif" font-size="10.00">string Description</text>
<text text-anchor="start" x="6.5" y="-17.5" font-family="Helvetica,sans-Serif" font-size="10.00">+</text>
<text text-anchor="start" x="22" y="-17.5" font-family="Helvetica,sans-Serif" font-size="10.00">HelpEntry(string keyText,</text>
<text text-anchor="start" x="22" y="-6.5" font-family="Helvetica,sans-Serif" font-size="10.00"> string description)</text>
<polygon fill="#666666" stroke="#666666" points="0,-57.5 0,-57.5 156,-57.5 156,-57.5 0,-57.5"/>
<polygon fill="#666666" stroke="#666666" points="0,-27.5 0,-27.5 20,-27.5 20,-27.5 0,-27.5"/>
<polygon fill="#666666" stroke="#666666" points="20,-27.5 20,-27.5 156,-27.5 156,-27.5 20,-27.5"/>
<polygon fill="none" stroke="#666666" points="0,0 0,-75 156,-75 156,0 0,0"/>
</a>
</g>
</g>
</g>
</svg>
