<?xml version="1.0" encoding="UTF-8" standalone="no"?>
<!DOCTYPE svg PUBLIC "-//W3C//DTD SVG 1.1//EN"
 "http://www.w3.org/Graphics/SVG/1.1/DTD/svg11.dtd">
<!-- Generated by graphviz version 13.1.2 (20250808.2320)
 -->
<!-- Title: RpgGame.Items.OneHandOccupation Pages: 1 -->
<svg width="183pt" height="210pt"
 viewBox="0.00 0.00 183.00 210.00" xmlns="http://www.w3.org/2000/svg" xmlns:xlink="http://www.w3.org/1999/xlink">
<g id="graph0" class="graph" transform="scale(1 1) rotate(0) translate(4 206)">
<title>RpgGame.Items.OneHandOccupation</title>
<!-- Node1 -->
<g id="Node000001" class="node">
<title>Node1</title>
<g id="a_Node000001"><a xlink:title="Represents a hand occupation strategy for one&#45;handed equipment.">
<polygon fill="#999999" stroke="none" points="174.5,-83 0,-83 0,0 174.5,0 174.5,-83"/>
<text xml:space="preserve" text-anchor="start" x="4" y="-69.5" font-family="Helvetica,sans-Serif" font-size="10.00">RpgGame.Items.OneHandOccupation</text>
<text xml:space="preserve" text-anchor="start" x="85.75" y="-55" font-family="Helvetica,sans-Serif" font-size="10.00"> </text>
<text xml:space="preserve" text-anchor="start" x="8.06" y="-40.5" font-family="Helvetica,sans-Serif" font-size="10.00">+</text>
<text xml:space="preserve" text-anchor="start" x="22.12" y="-40.5" font-family="Helvetica,sans-Serif" font-size="10.00">override bool EquipLeft</text>
<text xml:space="preserve" text-anchor="start" x="22.12" y="-30" font-family="Helvetica,sans-Serif" font-size="10.00">(Player player, IEquippable item)</text>
<text xml:space="preserve" text-anchor="start" x="8.06" y="-15.5" font-family="Helvetica,sans-Serif" font-size="10.00">+</text>
<text xml:space="preserve" text-anchor="start" x="22.12" y="-15.5" font-family="Helvetica,sans-Serif" font-size="10.00">override bool EquipRight</text>
<text xml:space="preserve" text-anchor="start" x="22.12" y="-5" font-family="Helvetica,sans-Serif" font-size="10.00">(Player player, IEquippable item)</text>
<polygon fill="#666666" stroke="#666666" points="0,-66.5 0,-66.5 174.5,-66.5 174.5,-66.5 0,-66.5"/>
<polygon fill="#666666" stroke="#666666" points="0,-52 0,-52 174.5,-52 174.5,-52 0,-52"/>
<polygon fill="none" stroke="#666666" points="0,0 0,-83 174.5,-83 174.5,0 0,0"/>
</a>
</g>
</g>
<!-- Node2 -->
<g id="Node000002" class="node">
<title>Node2</title>
<g id="a_Node000002"><a xlink:href="classRpgGame_1_1Items_1_1HandOccupation.html" target="_top" xlink:title="Defines the strategy for how an equippable item occupies the player&#39;s hands.">
<polygon fill="white" stroke="none" points="165.5,-202 9,-202 9,-119 165.5,-119 165.5,-202"/>
<text xml:space="preserve" text-anchor="start" x="13" y="-188.5" font-family="Helvetica,sans-Serif" font-size="10.00">RpgGame.Items.HandOccupation</text>
<text xml:space="preserve" text-anchor="start" x="85.75" y="-174" font-family="Helvetica,sans-Serif" font-size="10.00"> </text>
<text xml:space="preserve" text-anchor="start" x="20.06" y="-159.5" font-family="Helvetica,sans-Serif" font-size="10.00">+</text>
<text xml:space="preserve" text-anchor="start" x="37.12" y="-159.5" font-family="Helvetica,sans-Serif" font-size="10.00">bool EquipLeft(Player</text>
<text xml:space="preserve" text-anchor="start" x="37.12" y="-149" font-family="Helvetica,sans-Serif" font-size="10.00"> player, IEquippable item)</text>
<text xml:space="preserve" text-anchor="start" x="20.06" y="-134.5" font-family="Helvetica,sans-Serif" font-size="10.00">+</text>
<text xml:space="preserve" text-anchor="start" x="37.12" y="-134.5" font-family="Helvetica,sans-Serif" font-size="10.00">bool EquipRight(Player</text>
<text xml:space="preserve" text-anchor="start" x="37.12" y="-124" font-family="Helvetica,sans-Serif" font-size="10.00"> player, IEquippable item)</text>
<polygon fill="#666666" stroke="#666666" points="9,-185.5 9,-185.5 165.5,-185.5 165.5,-185.5 9,-185.5"/>
<polygon fill="#666666" stroke="#666666" points="9,-171 9,-171 165.5,-171 165.5,-171 9,-171"/>
<polygon fill="none" stroke="#666666" points="9,-119 9,-202 165.5,-202 165.5,-119 9,-119"/>
</a>
</g>
</g>
<!-- Node2&#45;&gt;Node1 -->
<g id="edge1_Node000001_Node000002" class="edge">
<title>Node2&#45;&gt;Node1</title>
<g id="a_edge1_Node000001_Node000002"><a xlink:title=" ">
<path fill="none" stroke="#63b8ff" d="M87.25,-107.95C87.25,-99.54 87.25,-90.93 87.25,-82.84"/>
<polygon fill="none" stroke="#63b8ff" points="83.75,-107.72 87.25,-117.72 90.75,-107.72 83.75,-107.72"/>
</a>
</g>
</g>
</g>
</svg>
