<?xml version="1.0" encoding="UTF-8" standalone="no"?>
<!DOCTYPE svg PUBLIC "-//W3C//DTD SVG 1.1//EN"
 "http://www.w3.org/Graphics/SVG/1.1/DTD/svg11.dtd">
<!-- Generated by graphviz version 2.43.0 (0)
 -->
<!-- Title: RpgGame.Character.Player Pages: 1 -->
<svg width="171pt" height="608pt"
 viewBox="0.00 0.00 171.00 608.00" xmlns="http://www.w3.org/2000/svg" xmlns:xlink="http://www.w3.org/1999/xlink">
<g id="graph0" class="graph" transform="scale(1 1) rotate(0) translate(4 604)">
<title>RpgGame.Character.Player</title>
<!-- Node1 -->
<g id="Node000001" class="node">
<title>Node1</title>
<g id="a_Node000001"><a xlink:title="Represents the player&#45;controlled character in the game.">
<polygon fill="#999999" stroke="transparent" points="163,-463 0,-463 0,0 163,0 163,-463"/>
<text text-anchor="start" x="16" y="-450.5" font-family="Helvetica,sans-Serif" font-size="10.00">RpgGame.Character.Player</text>
<text text-anchor="start" x="4.5" y="-435.5" font-family="Helvetica,sans-Serif" font-size="10.00">+</text>
<text text-anchor="start" x="17.5" y="-435.5" font-family="Helvetica,sans-Serif" font-size="10.00">override char Symbol</text>
<text text-anchor="start" x="4.5" y="-420.5" font-family="Helvetica,sans-Serif" font-size="10.00">+</text>
<text text-anchor="start" x="17.5" y="-420.5" font-family="Helvetica,sans-Serif" font-size="10.00">int Strength</text>
<text text-anchor="start" x="4.5" y="-405.5" font-family="Helvetica,sans-Serif" font-size="10.00">+</text>
<text text-anchor="start" x="17.5" y="-405.5" font-family="Helvetica,sans-Serif" font-size="10.00">int Dexterity</text>
<text text-anchor="start" x="4.5" y="-390.5" font-family="Helvetica,sans-Serif" font-size="10.00">+</text>
<text text-anchor="start" x="17.5" y="-390.5" font-family="Helvetica,sans-Serif" font-size="10.00">int Health</text>
<text text-anchor="start" x="4.5" y="-375.5" font-family="Helvetica,sans-Serif" font-size="10.00">+</text>
<text text-anchor="start" x="17.5" y="-375.5" font-family="Helvetica,sans-Serif" font-size="10.00">int Luck</text>
<text text-anchor="start" x="4.5" y="-360.5" font-family="Helvetica,sans-Serif" font-size="10.00">+</text>
<text text-anchor="start" x="17.5" y="-360.5" font-family="Helvetica,sans-Serif" font-size="10.00">int Aggression</text>
<text text-anchor="start" x="4.5" y="-345.5" font-family="Helvetica,sans-Serif" font-size="10.00">+</text>
<text text-anchor="start" x="17.5" y="-345.5" font-family="Helvetica,sans-Serif" font-size="10.00">int Wisdom</text>
<text text-anchor="start" x="4.5" y="-330.5" font-family="Helvetica,sans-Serif" font-size="10.00">+</text>
<text text-anchor="start" x="17.5" y="-330.5" font-family="Helvetica,sans-Serif" font-size="10.00">IEquippable? LeftHand</text>
<text text-anchor="start" x="4.5" y="-315.5" font-family="Helvetica,sans-Serif" font-size="10.00">+</text>
<text text-anchor="start" x="17.5" y="-315.5" font-family="Helvetica,sans-Serif" font-size="10.00">IEquippable? RightHand</text>
<text text-anchor="start" x="4.5" y="-300.5" font-family="Helvetica,sans-Serif" font-size="10.00">+</text>
<text text-anchor="start" x="17.5" y="-300.5" font-family="Helvetica,sans-Serif" font-size="10.00">int Coins</text>
<text text-anchor="start" x="4.5" y="-285.5" font-family="Helvetica,sans-Serif" font-size="10.00">+</text>
<text text-anchor="start" x="17.5" y="-285.5" font-family="Helvetica,sans-Serif" font-size="10.00">int Gold</text>
<text text-anchor="start" x="4.5" y="-270.5" font-family="Helvetica,sans-Serif" font-size="10.00">+</text>
<text text-anchor="start" x="17.5" y="-270.5" font-family="Helvetica,sans-Serif" font-size="10.00">void RestoreHealth</text>
<text text-anchor="start" x="17.5" y="-259.5" font-family="Helvetica,sans-Serif" font-size="10.00">(int amount)</text>
<text text-anchor="start" x="4.5" y="-244.5" font-family="Helvetica,sans-Serif" font-size="10.00">+</text>
<text text-anchor="start" x="17.5" y="-244.5" font-family="Helvetica,sans-Serif" font-size="10.00">void TakeDamage(int</text>
<text text-anchor="start" x="17.5" y="-233.5" font-family="Helvetica,sans-Serif" font-size="10.00"> amount)</text>
<text text-anchor="start" x="4.5" y="-218.5" font-family="Helvetica,sans-Serif" font-size="10.00">+</text>
<text text-anchor="start" x="17.5" y="-218.5" font-family="Helvetica,sans-Serif" font-size="10.00">void AddCoins(int amount)</text>
<text text-anchor="start" x="4.5" y="-203.5" font-family="Helvetica,sans-Serif" font-size="10.00">+</text>
<text text-anchor="start" x="17.5" y="-203.5" font-family="Helvetica,sans-Serif" font-size="10.00">void AddGold(int amount)</text>
<text text-anchor="start" x="4.5" y="-188.5" font-family="Helvetica,sans-Serif" font-size="10.00">+</text>
<text text-anchor="start" x="17.5" y="-188.5" font-family="Helvetica,sans-Serif" font-size="10.00">bool EquipLeft(IEquippable</text>
<text text-anchor="start" x="17.5" y="-177.5" font-family="Helvetica,sans-Serif" font-size="10.00"> item)</text>
<text text-anchor="start" x="4.5" y="-162.5" font-family="Helvetica,sans-Serif" font-size="10.00">+</text>
<text text-anchor="start" x="17.5" y="-162.5" font-family="Helvetica,sans-Serif" font-size="10.00">bool EquipRight(IEquippable</text>
<text text-anchor="start" x="17.5" y="-151.5" font-family="Helvetica,sans-Serif" font-size="10.00"> item)</text>
<text text-anchor="start" x="4.5" y="-136.5" font-family="Helvetica,sans-Serif" font-size="10.00">+</text>
<text text-anchor="start" x="17.5" y="-136.5" font-family="Helvetica,sans-Serif" font-size="10.00">void DropLeft(Level</text>
<text text-anchor="start" x="17.5" y="-125.5" font-family="Helvetica,sans-Serif" font-size="10.00"> level)</text>
<text text-anchor="start" x="4.5" y="-110.5" font-family="Helvetica,sans-Serif" font-size="10.00">+</text>
<text text-anchor="start" x="17.5" y="-110.5" font-family="Helvetica,sans-Serif" font-size="10.00">void DropRight(Level</text>
<text text-anchor="start" x="17.5" y="-99.5" font-family="Helvetica,sans-Serif" font-size="10.00"> level)</text>
<text text-anchor="start" x="4.5" y="-84.5" font-family="Helvetica,sans-Serif" font-size="10.00">+</text>
<text text-anchor="start" x="17.5" y="-84.5" font-family="Helvetica,sans-Serif" font-size="10.00">Player(Position startPosition)</text>
<text text-anchor="start" x="4.5" y="-69.5" font-family="Helvetica,sans-Serif" font-size="10.00">~</text>
<text text-anchor="start" x="17.5" y="-69.5" font-family="Helvetica,sans-Serif" font-size="10.00">bool InternalEquipLeft</text>
<text text-anchor="start" x="17.5" y="-58.5" font-family="Helvetica,sans-Serif" font-size="10.00">(IEquippable item)</text>
<text text-anchor="start" x="4.5" y="-43.5" font-family="Helvetica,sans-Serif" font-size="10.00">~</text>
<text text-anchor="start" x="17.5" y="-43.5" font-family="Helvetica,sans-Serif" font-size="10.00">bool InternalEquipRight</text>
<text text-anchor="start" x="17.5" y="-32.5" font-family="Helvetica,sans-Serif" font-size="10.00">(IEquippable item)</text>
<text text-anchor="start" x="4.5" y="-17.5" font-family="Helvetica,sans-Serif" font-size="10.00">~</text>
<text text-anchor="start" x="17.5" y="-17.5" font-family="Helvetica,sans-Serif" font-size="10.00">bool InternalEquipTwoHand</text>
<text text-anchor="start" x="17.5" y="-6.5" font-family="Helvetica,sans-Serif" font-size="10.00">(IEquippable item)</text>
<polygon fill="#666666" stroke="#666666" points="0.5,-445.5 0.5,-445.5 163.5,-445.5 163.5,-445.5 0.5,-445.5"/>
<polygon fill="#666666" stroke="#666666" points="0.5,-280.5 0.5,-280.5 15.5,-280.5 15.5,-280.5 0.5,-280.5"/>
<polygon fill="#666666" stroke="#666666" points="15.5,-280.5 15.5,-280.5 163.5,-280.5 163.5,-280.5 15.5,-280.5"/>
<polygon fill="none" stroke="#666666" points="0,0 0,-463 163,-463 163,0 0,0"/>
</a>
</g>
</g>
<!-- Node2 -->
<g id="Node000002" class="node">
<title>Node2</title>
<g id="a_Node000002"><a xlink:href="classRpgGame_1_1Character_1_1Character.html" target="_top" xlink:title="Base abstract class for both playable and non&#45;playable characters.">
<polygon fill="white" stroke="transparent" points="139,-600 24,-600 24,-499 139,-499 139,-600"/>
<text text-anchor="start" x="58" y="-587.5" font-family="Helvetica,sans-Serif" font-size="10.00">Character</text>
<text text-anchor="start" x="28.5" y="-572.5" font-family="Helvetica,sans-Serif" font-size="10.00">+</text>
<text text-anchor="start" x="41.5" y="-572.5" font-family="Helvetica,sans-Serif" font-size="10.00">char Symbol</text>
<text text-anchor="start" x="28.5" y="-557.5" font-family="Helvetica,sans-Serif" font-size="10.00">+</text>
<text text-anchor="start" x="41.5" y="-557.5" font-family="Helvetica,sans-Serif" font-size="10.00">Position Pos</text>
<text text-anchor="start" x="28.5" y="-542.5" font-family="Helvetica,sans-Serif" font-size="10.00">+</text>
<text text-anchor="start" x="41.5" y="-542.5" font-family="Helvetica,sans-Serif" font-size="10.00">void Move(Position</text>
<text text-anchor="start" x="41.5" y="-531.5" font-family="Helvetica,sans-Serif" font-size="10.00"> newPos)</text>
<text text-anchor="start" x="28.5" y="-516.5" font-family="Helvetica,sans-Serif" font-size="10.00">#</text>
<text text-anchor="start" x="41.5" y="-516.5" font-family="Helvetica,sans-Serif" font-size="10.00">Character(Position</text>
<text text-anchor="start" x="41.5" y="-505.5" font-family="Helvetica,sans-Serif" font-size="10.00"> startPosition)</text>
<polygon fill="#666666" stroke="#666666" points="24.5,-582.5 24.5,-582.5 139.5,-582.5 139.5,-582.5 24.5,-582.5"/>
<polygon fill="#666666" stroke="#666666" points="24.5,-552.5 24.5,-552.5 39.5,-552.5 39.5,-552.5 24.5,-552.5"/>
<polygon fill="#666666" stroke="#666666" points="39.5,-552.5 39.5,-552.5 139.5,-552.5 139.5,-552.5 39.5,-552.5"/>
<polygon fill="none" stroke="#666666" points="24,-499 24,-600 139,-600 139,-499 24,-499"/>
</a>
</g>
</g>
<!-- Node2&#45;&gt;Node1 -->
<g id="edge1_Node000001_Node000002" class="edge">
<title>Node2&#45;&gt;Node1</title>
<g id="a_edge1_Node000001_Node000002"><a xlink:title=" ">
<path fill="none" stroke="#63b8ff" d="M81.5,-488.58C81.5,-480.57 81.5,-472 81.5,-463.04"/>
<polygon fill="none" stroke="#63b8ff" points="78,-488.78 81.5,-498.78 85,-488.78 78,-488.78"/>
</a>
</g>
</g>
</g>
</svg>
