<?xml version="1.0" encoding="UTF-8" standalone="no"?>
<!DOCTYPE svg PUBLIC "-//W3C//DTD SVG 1.1//EN"
 "http://www.w3.org/Graphics/SVG/1.1/DTD/svg11.dtd">
<!-- Generated by graphviz version 13.1.2 (20250808.2320)
 -->
<!-- Title: RpgGame.Generation.RectRoom Pages: 1 -->
<svg width="161pt" height="149pt"
 viewBox="0.00 0.00 161.00 149.00" xmlns="http://www.w3.org/2000/svg" xmlns:xlink="http://www.w3.org/1999/xlink">
<g id="graph0" class="graph" transform="scale(1 1) rotate(0) translate(4 145)">
<title>RpgGame.Generation.RectRoom</title>
<!-- Node1 -->
<g id="Node000001" class="node">
<title>Node1</title>
<g id="a_Node000001"><a xlink:title="Represents a rectangular room in a dungeon.">
<polygon fill="#999999" stroke="none" points="152.75,-141 0,-141 0,0 152.75,0 152.75,-141"/>
<text xml:space="preserve" text-anchor="start" x="4" y="-127.5" font-family="Helvetica,sans-Serif" font-size="10.00">RpgGame.Generation.RectRoom</text>
<text xml:space="preserve" text-anchor="start" x="9" y="-113" font-family="Helvetica,sans-Serif" font-size="10.00">+</text>
<text xml:space="preserve" text-anchor="start" x="24" y="-113" font-family="Helvetica,sans-Serif" font-size="10.00">int X</text>
<text xml:space="preserve" text-anchor="start" x="9" y="-98.5" font-family="Helvetica,sans-Serif" font-size="10.00">+</text>
<text xml:space="preserve" text-anchor="start" x="24" y="-98.5" font-family="Helvetica,sans-Serif" font-size="10.00">int Y</text>
<text xml:space="preserve" text-anchor="start" x="9" y="-84" font-family="Helvetica,sans-Serif" font-size="10.00">+</text>
<text xml:space="preserve" text-anchor="start" x="24" y="-84" font-family="Helvetica,sans-Serif" font-size="10.00">int Width</text>
<text xml:space="preserve" text-anchor="start" x="9" y="-69.5" font-family="Helvetica,sans-Serif" font-size="10.00">+</text>
<text xml:space="preserve" text-anchor="start" x="24" y="-69.5" font-family="Helvetica,sans-Serif" font-size="10.00">int Height</text>
<text xml:space="preserve" text-anchor="start" x="9" y="-55" font-family="Helvetica,sans-Serif" font-size="10.00">+</text>
<text xml:space="preserve" text-anchor="start" x="24" y="-55" font-family="Helvetica,sans-Serif" font-size="10.00">Position Center</text>
<text xml:space="preserve" text-anchor="start" x="9" y="-40.5" font-family="Helvetica,sans-Serif" font-size="10.00">+</text>
<text xml:space="preserve" text-anchor="start" x="24" y="-40.5" font-family="Helvetica,sans-Serif" font-size="10.00">RectRoom(int x, int</text>
<text xml:space="preserve" text-anchor="start" x="24" y="-30" font-family="Helvetica,sans-Serif" font-size="10.00"> y, int width, int height)</text>
<text xml:space="preserve" text-anchor="start" x="9" y="-15.5" font-family="Helvetica,sans-Serif" font-size="10.00">+</text>
<text xml:space="preserve" text-anchor="start" x="24" y="-15.5" font-family="Helvetica,sans-Serif" font-size="10.00">bool Intersects(RectRoom</text>
<text xml:space="preserve" text-anchor="start" x="24" y="-5" font-family="Helvetica,sans-Serif" font-size="10.00"> other)</text>
<polygon fill="#666666" stroke="#666666" points="0,-124.5 0,-124.5 152.75,-124.5 152.75,-124.5 0,-124.5"/>
<polygon fill="#666666" stroke="#666666" points="0,-52 0,-52 22,-52 22,-52 0,-52"/>
<polygon fill="#666666" stroke="#666666" points="22,-52 22,-52 152.75,-52 152.75,-52 22,-52"/>
<polygon fill="none" stroke="#666666" points="0,0 0,-141 152.75,-141 152.75,0 0,0"/>
</a>
</g>
</g>
</g>
</svg>
