<?xml version="1.0" encoding="UTF-8" standalone="no"?>
<!DOCTYPE svg PUBLIC "-//W3C//DTD SVG 1.1//EN"
 "http://www.w3.org/Graphics/SVG/1.1/DTD/svg11.dtd">
<!-- Generated by graphviz version 13.1.2 (20250808.2320)
 -->
<!-- Title: RpgGame.Character.Character Pages: 1 -->
<!--zoomable 588 -->

<svg id="main" version="1.1" xmlns="http://www.w3.org/2000/svg" xmlns:xlink="http://www.w3.org/1999/xlink" xml:space="preserve" onload="init(evt)">

<style type="text/css"><![CDATA[
.node, .edge {opacity: 0.7;}
.node.selected, .edge.selected {opacity: 1;}
.edge:hover path { stroke: red; }
.edge:hover polygon { stroke: red; fill: red; }
]]></style>

<defs>
  <circle id="rim" cx="0" cy="0" r="7"/>
  <circle id="rim2" cx="0" cy="0" r="3.5"/>
  <g id="zoomPlus">
    <use xlink:href="#rim" fill="#404040"><set attributeName="fill" to="#808080" begin="zoomplus.mouseover" end="zoomplus.mouseout"/></use>
    <path d="M-4,0h8M0,-4v8" fill="none" stroke="white" stroke-width="1.5" pointer-events="none"/>
  </g>
  <g id="zoomMin">
    <use xlink:href="#rim" fill="#404040"><set attributeName="fill" to="#808080" begin="zoomminus.mouseover" end="zoomminus.mouseout"/></use>
    <path d="M-4,0h8" fill="none" stroke="white" stroke-width="1.5" pointer-events="none"/>
  </g>
  <g id="arrowUp" transform="translate(30 24)">
    <use xlink:href="#rim"/>
    <path pointer-events="none" fill="none" stroke="white" stroke-width="1.5" d="M0,-3.0v7 M-2.5,-0.5L0,-3.0L2.5,-0.5"/>
  </g>
  <g id="arrowRight" transform="rotate(90) translate(36 -43)">
    <use xlink:href="#rim"/>
    <path pointer-events="none" fill="none" stroke="white" stroke-width="1.5" d="M0,-3.0v7 M-2.5,-0.5L0,-3.0L2.5,-0.5"/>
  </g>
  <g id="arrowDown" transform="rotate(180) translate(-30 -48)">
    <use xlink:href="#rim"/>
    <path pointer-events="none" fill="none" stroke="white" stroke-width="1.5" d="M0,-3.0v7 M-2.5,-0.5L0,-3.0L2.5,-0.5"/>
  </g>
  <g id="arrowLeft" transform="rotate(270) translate(-36 17)">
    <use xlink:href="#rim"/>
    <path pointer-events="none" fill="none" stroke="white" stroke-width="1.5" d="M0,-3.0v7 M-2.5,-0.5L0,-3.0L2.5,-0.5"/>
  </g>
  <g id="resetDef">
    <use xlink:href="#rim2" fill="#404040"><set attributeName="fill" to="#808080" begin="reset.mouseover" end="reset.mouseout"/></use>
  </g>
</defs>
<script type="application/ecmascript">
var viewWidth = 318;
var viewHeight = 588;
var sectionId = 'dynsection-0';
</script>
<script type="application/ecmascript" xlink:href="svg.min.js"/>
<svg id="graph" class="graph">
<g id="viewport">
<title>RpgGame.Character.Character</title>
<!-- Node1 -->
<g id="Node000001" class="node">
<title>Node1</title>
<g id="a_Node000001"><a xlink:title="Base abstract class for both playable and non&#45;playable characters.">
<polygon fill="#999999" stroke="none" points="227.38,-580 82.88,-580 82.88,-482.5 227.38,-482.5 227.38,-580"/>
<text xml:space="preserve" text-anchor="start" x="86.88" y="-566.5" font-family="Helvetica,sans-Serif" font-size="10.00">RpgGame.Character.Character</text>
<text xml:space="preserve" text-anchor="start" x="98.06" y="-552" font-family="Helvetica,sans-Serif" font-size="10.00">+</text>
<text xml:space="preserve" text-anchor="start" x="119.25" y="-552" font-family="Helvetica,sans-Serif" font-size="10.00">char Symbol</text>
<text xml:space="preserve" text-anchor="start" x="98.06" y="-537.5" font-family="Helvetica,sans-Serif" font-size="10.00">+</text>
<text xml:space="preserve" text-anchor="start" x="119.25" y="-537.5" font-family="Helvetica,sans-Serif" font-size="10.00">Position Pos</text>
<text xml:space="preserve" text-anchor="start" x="98.06" y="-523" font-family="Helvetica,sans-Serif" font-size="10.00">+</text>
<text xml:space="preserve" text-anchor="start" x="119.25" y="-523" font-family="Helvetica,sans-Serif" font-size="10.00">void Move(Position</text>
<text xml:space="preserve" text-anchor="start" x="119.25" y="-512.5" font-family="Helvetica,sans-Serif" font-size="10.00"> newPos)</text>
<text xml:space="preserve" text-anchor="start" x="98.44" y="-498" font-family="Helvetica,sans-Serif" font-size="10.00">#</text>
<text xml:space="preserve" text-anchor="start" x="119.25" y="-498" font-family="Helvetica,sans-Serif" font-size="10.00">Character(Position</text>
<text xml:space="preserve" text-anchor="start" x="119.25" y="-487.5" font-family="Helvetica,sans-Serif" font-size="10.00"> startPosition)</text>
<polygon fill="#666666" stroke="#666666" points="82.88,-563.5 82.88,-563.5 227.38,-563.5 227.38,-563.5 82.88,-563.5"/>
<polygon fill="#666666" stroke="#666666" points="82.88,-534.5 82.88,-534.5 117.25,-534.5 117.25,-534.5 82.88,-534.5"/>
<polygon fill="#666666" stroke="#666666" points="117.25,-534.5 117.25,-534.5 227.38,-534.5 227.38,-534.5 117.25,-534.5"/>
<polygon fill="none" stroke="#666666" points="82.88,-482.5 82.88,-580 227.38,-580 227.38,-482.5 82.88,-482.5"/>
</a>
</g>
</g>
<!-- Node2 -->
<g id="Node000002" class="node">
<title>Node2</title>
<g id="a_Node000002"><a xlink:href="classRpgGame_1_1Character_1_1Golem.html" target="_top" xlink:title="Represents a Golem character in the game. Golems are typically non&#45;player characters (NPCs) that may ...">
<polygon fill="white" stroke="none" points="146.25,-254.25 0,-254.25 0,-192.25 146.25,-192.25 146.25,-254.25"/>
<text xml:space="preserve" text-anchor="start" x="12" y="-240.75" font-family="Helvetica,sans-Serif" font-size="10.00">RpgGame.Character.Golem</text>
<text xml:space="preserve" text-anchor="start" x="4" y="-226.25" font-family="Helvetica,sans-Serif" font-size="10.00">+</text>
<text xml:space="preserve" text-anchor="start" x="14" y="-226.25" font-family="Helvetica,sans-Serif" font-size="10.00">override char Symbol</text>
<text xml:space="preserve" text-anchor="start" x="4" y="-211.75" font-family="Helvetica,sans-Serif" font-size="10.00">+</text>
<text xml:space="preserve" text-anchor="start" x="14" y="-211.75" font-family="Helvetica,sans-Serif" font-size="10.00">IEquippable? EquippedItem</text>
<text xml:space="preserve" text-anchor="start" x="4" y="-197.25" font-family="Helvetica,sans-Serif" font-size="10.00">+</text>
<text xml:space="preserve" text-anchor="start" x="14" y="-197.25" font-family="Helvetica,sans-Serif" font-size="10.00">Golem(Position startPosition)</text>
<polygon fill="#666666" stroke="#666666" points="0,-237.75 0,-237.75 146.25,-237.75 146.25,-237.75 0,-237.75"/>
<polygon fill="#666666" stroke="#666666" points="0,-208.75 0,-208.75 12,-208.75 12,-208.75 0,-208.75"/>
<polygon fill="#666666" stroke="#666666" points="12,-208.75 12,-208.75 146.25,-208.75 146.25,-208.75 12,-208.75"/>
<polygon fill="none" stroke="#666666" points="0,-192.25 0,-254.25 146.25,-254.25 146.25,-192.25 0,-192.25"/>
</a>
</g>
</g>
<!-- Node1&#45;&gt;Node2 -->
<g id="edge1_Node000001_Node000002" class="edge">
<title>Node1&#45;&gt;Node2</title>
<g id="a_edge1_Node000001_Node000002"><a xlink:title=" ">
<path fill="none" stroke="#63b8ff" d="M139.49,-471.9C122.09,-406.96 94.65,-304.56 81.16,-254.22"/>
<polygon fill="none" stroke="#63b8ff" points="136.04,-472.56 142.01,-481.31 142.8,-470.75 136.04,-472.56"/>
</a>
</g>
</g>
<!-- Node3 -->
<g id="Node000003" class="node">
<title>Node3</title>
<g id="a_Node000003"><a xlink:href="classRpgGame_1_1Character_1_1Player.html" target="_top" xlink:title="Represents the player&#45;controlled character in the game.">
<polygon fill="white" stroke="none" points="309.5,-446.5 164.75,-446.5 164.75,0 309.5,0 309.5,-446.5"/>
<text xml:space="preserve" text-anchor="start" x="176.75" y="-433" font-family="Helvetica,sans-Serif" font-size="10.00">RpgGame.Character.Player</text>
<text xml:space="preserve" text-anchor="start" x="168.75" y="-418.5" font-family="Helvetica,sans-Serif" font-size="10.00">+</text>
<text xml:space="preserve" text-anchor="start" x="178.75" y="-418.5" font-family="Helvetica,sans-Serif" font-size="10.00">override char Symbol</text>
<text xml:space="preserve" text-anchor="start" x="168.75" y="-404" font-family="Helvetica,sans-Serif" font-size="10.00">+</text>
<text xml:space="preserve" text-anchor="start" x="178.75" y="-404" font-family="Helvetica,sans-Serif" font-size="10.00">int Strength</text>
<text xml:space="preserve" text-anchor="start" x="168.75" y="-389.5" font-family="Helvetica,sans-Serif" font-size="10.00">+</text>
<text xml:space="preserve" text-anchor="start" x="178.75" y="-389.5" font-family="Helvetica,sans-Serif" font-size="10.00">int Dexterity</text>
<text xml:space="preserve" text-anchor="start" x="168.75" y="-375" font-family="Helvetica,sans-Serif" font-size="10.00">+</text>
<text xml:space="preserve" text-anchor="start" x="178.75" y="-375" font-family="Helvetica,sans-Serif" font-size="10.00">int Health</text>
<text xml:space="preserve" text-anchor="start" x="168.75" y="-360.5" font-family="Helvetica,sans-Serif" font-size="10.00">+</text>
<text xml:space="preserve" text-anchor="start" x="178.75" y="-360.5" font-family="Helvetica,sans-Serif" font-size="10.00">int Luck</text>
<text xml:space="preserve" text-anchor="start" x="168.75" y="-346" font-family="Helvetica,sans-Serif" font-size="10.00">+</text>
<text xml:space="preserve" text-anchor="start" x="178.75" y="-346" font-family="Helvetica,sans-Serif" font-size="10.00">int Aggression</text>
<text xml:space="preserve" text-anchor="start" x="168.75" y="-331.5" font-family="Helvetica,sans-Serif" font-size="10.00">+</text>
<text xml:space="preserve" text-anchor="start" x="178.75" y="-331.5" font-family="Helvetica,sans-Serif" font-size="10.00">int Wisdom</text>
<text xml:space="preserve" text-anchor="start" x="168.75" y="-317" font-family="Helvetica,sans-Serif" font-size="10.00">+</text>
<text xml:space="preserve" text-anchor="start" x="178.75" y="-317" font-family="Helvetica,sans-Serif" font-size="10.00">IEquippable? LeftHand</text>
<text xml:space="preserve" text-anchor="start" x="168.75" y="-302.5" font-family="Helvetica,sans-Serif" font-size="10.00">+</text>
<text xml:space="preserve" text-anchor="start" x="178.75" y="-302.5" font-family="Helvetica,sans-Serif" font-size="10.00">IEquippable? RightHand</text>
<text xml:space="preserve" text-anchor="start" x="168.75" y="-288" font-family="Helvetica,sans-Serif" font-size="10.00">+</text>
<text xml:space="preserve" text-anchor="start" x="178.75" y="-288" font-family="Helvetica,sans-Serif" font-size="10.00">int Coins</text>
<text xml:space="preserve" text-anchor="start" x="168.75" y="-273.5" font-family="Helvetica,sans-Serif" font-size="10.00">+</text>
<text xml:space="preserve" text-anchor="start" x="178.75" y="-273.5" font-family="Helvetica,sans-Serif" font-size="10.00">int Gold</text>
<text xml:space="preserve" text-anchor="start" x="168.75" y="-259" font-family="Helvetica,sans-Serif" font-size="10.00">+</text>
<text xml:space="preserve" text-anchor="start" x="178.75" y="-259" font-family="Helvetica,sans-Serif" font-size="10.00">void RestoreHealth</text>
<text xml:space="preserve" text-anchor="start" x="178.75" y="-248.5" font-family="Helvetica,sans-Serif" font-size="10.00">(int amount)</text>
<text xml:space="preserve" text-anchor="start" x="168.75" y="-234" font-family="Helvetica,sans-Serif" font-size="10.00">+</text>
<text xml:space="preserve" text-anchor="start" x="178.75" y="-234" font-family="Helvetica,sans-Serif" font-size="10.00">void TakeDamage(int</text>
<text xml:space="preserve" text-anchor="start" x="178.75" y="-223.5" font-family="Helvetica,sans-Serif" font-size="10.00"> amount)</text>
<text xml:space="preserve" text-anchor="start" x="168.75" y="-209" font-family="Helvetica,sans-Serif" font-size="10.00">+</text>
<text xml:space="preserve" text-anchor="start" x="178.75" y="-209" font-family="Helvetica,sans-Serif" font-size="10.00">void AddCoins(int amount)</text>
<text xml:space="preserve" text-anchor="start" x="168.75" y="-194.5" font-family="Helvetica,sans-Serif" font-size="10.00">+</text>
<text xml:space="preserve" text-anchor="start" x="178.75" y="-194.5" font-family="Helvetica,sans-Serif" font-size="10.00">void AddGold(int amount)</text>
<text xml:space="preserve" text-anchor="start" x="168.75" y="-180" font-family="Helvetica,sans-Serif" font-size="10.00">+</text>
<text xml:space="preserve" text-anchor="start" x="178.75" y="-180" font-family="Helvetica,sans-Serif" font-size="10.00">bool EquipLeft(IEquippable</text>
<text xml:space="preserve" text-anchor="start" x="178.75" y="-169.5" font-family="Helvetica,sans-Serif" font-size="10.00"> item)</text>
<text xml:space="preserve" text-anchor="start" x="168.75" y="-155" font-family="Helvetica,sans-Serif" font-size="10.00">+</text>
<text xml:space="preserve" text-anchor="start" x="178.75" y="-155" font-family="Helvetica,sans-Serif" font-size="10.00">bool EquipRight(IEquippable</text>
<text xml:space="preserve" text-anchor="start" x="178.75" y="-144.5" font-family="Helvetica,sans-Serif" font-size="10.00"> item)</text>
<text xml:space="preserve" text-anchor="start" x="168.75" y="-130" font-family="Helvetica,sans-Serif" font-size="10.00">+</text>
<text xml:space="preserve" text-anchor="start" x="178.75" y="-130" font-family="Helvetica,sans-Serif" font-size="10.00">void DropLeft(Level</text>
<text xml:space="preserve" text-anchor="start" x="178.75" y="-119.5" font-family="Helvetica,sans-Serif" font-size="10.00"> level)</text>
<text xml:space="preserve" text-anchor="start" x="168.75" y="-105" font-family="Helvetica,sans-Serif" font-size="10.00">+</text>
<text xml:space="preserve" text-anchor="start" x="178.75" y="-105" font-family="Helvetica,sans-Serif" font-size="10.00">void DropRight(Level</text>
<text xml:space="preserve" text-anchor="start" x="178.75" y="-94.5" font-family="Helvetica,sans-Serif" font-size="10.00"> level)</text>
<text xml:space="preserve" text-anchor="start" x="168.75" y="-80" font-family="Helvetica,sans-Serif" font-size="10.00">+</text>
<text xml:space="preserve" text-anchor="start" x="178.75" y="-80" font-family="Helvetica,sans-Serif" font-size="10.00">Player(Position startPosition)</text>
<text xml:space="preserve" text-anchor="start" x="168.75" y="-65.5" font-family="Helvetica,sans-Serif" font-size="10.00">~</text>
<text xml:space="preserve" text-anchor="start" x="178.75" y="-65.5" font-family="Helvetica,sans-Serif" font-size="10.00">bool InternalEquipLeft</text>
<text xml:space="preserve" text-anchor="start" x="178.75" y="-55" font-family="Helvetica,sans-Serif" font-size="10.00">(IEquippable item)</text>
<text xml:space="preserve" text-anchor="start" x="168.75" y="-40.5" font-family="Helvetica,sans-Serif" font-size="10.00">~</text>
<text xml:space="preserve" text-anchor="start" x="178.75" y="-40.5" font-family="Helvetica,sans-Serif" font-size="10.00">bool InternalEquipRight</text>
<text xml:space="preserve" text-anchor="start" x="178.75" y="-30" font-family="Helvetica,sans-Serif" font-size="10.00">(IEquippable item)</text>
<text xml:space="preserve" text-anchor="start" x="168.75" y="-15.5" font-family="Helvetica,sans-Serif" font-size="10.00">~</text>
<text xml:space="preserve" text-anchor="start" x="178.75" y="-15.5" font-family="Helvetica,sans-Serif" font-size="10.00">bool InternalEquipTwoHand</text>
<text xml:space="preserve" text-anchor="start" x="178.75" y="-5" font-family="Helvetica,sans-Serif" font-size="10.00">(IEquippable item)</text>
<polygon fill="#666666" stroke="#666666" points="164.75,-430 164.75,-430 309.5,-430 309.5,-430 164.75,-430"/>
<polygon fill="#666666" stroke="#666666" points="164.75,-270.5 164.75,-270.5 176.75,-270.5 176.75,-270.5 164.75,-270.5"/>
<polygon fill="#666666" stroke="#666666" points="176.75,-270.5 176.75,-270.5 309.5,-270.5 309.5,-270.5 176.75,-270.5"/>
<polygon fill="none" stroke="#666666" points="164.75,0 164.75,-446.5 309.5,-446.5 309.5,0 164.75,0"/>
</a>
</g>
</g>
<!-- Node1&#45;&gt;Node3 -->
<g id="edge2_Node000001_Node000003" class="edge">
<title>Node1&#45;&gt;Node3</title>
<g id="a_edge2_Node000001_Node000003"><a xlink:title=" ">
<path fill="none" stroke="#63b8ff" d="M170.77,-471.88C172.91,-463.89 175.2,-455.33 177.6,-446.38"/>
<polygon fill="none" stroke="#63b8ff" points="167.45,-470.75 168.24,-481.31 174.21,-472.56 167.45,-470.75"/>
</a>
</g>
</g>
</g>
</svg>

<g id="navigator" transform="translate(0 0)" fill="#404254">
  <rect fill="#f2f5e9" fill-opacity="0.5" stroke="#606060" stroke-width=".5" x="0" y="0" width="60" height="60"/>
  <use id="zoomplus" xlink:href="#zoomPlus" x="17" y="9" onmousedown="handleZoom(evt,'in')"/>
  <use id="zoomminus" xlink:href="#zoomMin" x="42" y="9" onmousedown="handleZoom(evt,'out')"/>
  <use id="reset" xlink:href="#resetDef" x="30" y="36" onmousedown="handleReset()"/>
   <use id="arrowup" xlink:href="#arrowUp" x="0" y="0" onmousedown="handlePan(0,-1)"/>
  <use id="arrowright" xlink:href="#arrowRight" x="0" y="0" onmousedown="handlePan(1,0)"/>
  <use id="arrowdown" xlink:href="#arrowDown" x="0" y="0" onmousedown="handlePan(0,1)"/>
  <use id="arrowleft" xlink:href="#arrowLeft" x="0" y="0" onmousedown="handlePan(-1,0)"/>
</g>
<svg viewBox="0 0 15 15" width="100%" height="30px" preserveAspectRatio="xMaxYMin meet">
 <g id="arrow_out" transform="scale(0.3 0.3)">
  <a xlink:href="classRpgGame_1_1Character_1_1Character__inherit__graph_org.svg" target="_base">
   <rect id="button" ry="5" rx="5" y="6" x="6" height="38" width="38"
        fill="#f2f5e9" fill-opacity="0.5" stroke="#606060" stroke-width="1.0"/>
   <path id="arrow"
     d="M 11.500037,31.436501 C 11.940474,20.09759 22.043105,11.32322 32.158766,21.979434 L 37.068811,17.246167 C 37.068811,17.246167 37.088388,32 37.088388,32 L 22.160133,31.978069 C 22.160133,31.978069 26.997745,27.140456 26.997745,27.140456 C 18.528582,18.264221 13.291696,25.230495 11.500037,31.436501 z"
     style="fill:#404040;"/>
  </a>
 </g>
</svg>

<style type='text/css'>
<![CDATA[
[data-mouse-over-selected='false'] { opacity: 0.7; }
[data-mouse-over-selected='true']  { opacity: 1.0; }
]]>
</style>
<script type="application/ecmascript"><![CDATA[
document.addEventListener('DOMContentLoaded', (event) => {
  highlightEdges();
  highlightAdjacentNodes();
});
]]></script>
</svg>
