<?xml version="1.0" encoding="UTF-8" standalone="no"?>
<!DOCTYPE svg PUBLIC "-//W3C//DTD SVG 1.1//EN"
 "http://www.w3.org/Graphics/SVG/1.1/DTD/svg11.dtd">
<!-- Generated by graphviz version 2.43.0 (0)
 -->
<!-- Title: RpgGame.Generation.RectRoom Pages: 1 -->
<svg width="177pt" height="154pt"
 viewBox="0.00 0.00 177.00 154.00" xmlns="http://www.w3.org/2000/svg" xmlns:xlink="http://www.w3.org/1999/xlink">
<g id="graph0" class="graph" transform="scale(1 1) rotate(0) translate(4 150)">
<title>RpgGame.Generation.RectRoom</title>
<!-- Node1 -->
<g id="Node000001" class="node">
<title>Node1</title>
<g id="a_Node000001"><a xlink:title="Represents a rectangular room in a dungeon.">
<polygon fill="#999999" stroke="transparent" points="169,-146 0,-146 0,0 169,0 169,-146"/>
<text text-anchor="start" x="5.5" y="-134" font-family="Helvetica,sans-Serif" font-size="10.00">RpgGame.Generation.RectRoom</text>
<text text-anchor="start" x="9.5" y="-119" font-family="Helvetica,sans-Serif" font-size="10.00">+</text>
<text text-anchor="start" x="27.5" y="-119" font-family="Helvetica,sans-Serif" font-size="10.00">int X</text>
<text text-anchor="start" x="9.5" y="-104" font-family="Helvetica,sans-Serif" font-size="10.00">+</text>
<text text-anchor="start" x="27.5" y="-104" font-family="Helvetica,sans-Serif" font-size="10.00">int Y</text>
<text text-anchor="start" x="9.5" y="-89" font-family="Helvetica,sans-Serif" font-size="10.00">+</text>
<text text-anchor="start" x="27.5" y="-89" font-family="Helvetica,sans-Serif" font-size="10.00">int Width</text>
<text text-anchor="start" x="9.5" y="-74" font-family="Helvetica,sans-Serif" font-size="10.00">+</text>
<text text-anchor="start" x="27.5" y="-74" font-family="Helvetica,sans-Serif" font-size="10.00">int Height</text>
<text text-anchor="start" x="9.5" y="-59" font-family="Helvetica,sans-Serif" font-size="10.00">+</text>
<text text-anchor="start" x="27.5" y="-59" font-family="Helvetica,sans-Serif" font-size="10.00">Position Center</text>
<text text-anchor="start" x="9.5" y="-44" font-family="Helvetica,sans-Serif" font-size="10.00">+</text>
<text text-anchor="start" x="27.5" y="-44" font-family="Helvetica,sans-Serif" font-size="10.00">RectRoom(int x, int</text>
<text text-anchor="start" x="27.5" y="-33" font-family="Helvetica,sans-Serif" font-size="10.00"> y, int width, int height)</text>
<text text-anchor="start" x="9.5" y="-18" font-family="Helvetica,sans-Serif" font-size="10.00">+</text>
<text text-anchor="start" x="27.5" y="-18" font-family="Helvetica,sans-Serif" font-size="10.00">bool Intersects(RectRoom</text>
<text text-anchor="start" x="27.5" y="-7" font-family="Helvetica,sans-Serif" font-size="10.00"> other)</text>
<polygon fill="#666666" stroke="#666666" points="0.5,-129 0.5,-129 169.5,-129 169.5,-129 0.5,-129"/>
<polygon fill="#666666" stroke="#666666" points="0.5,-54 0.5,-54 25.5,-54 25.5,-54 0.5,-54"/>
<polygon fill="#666666" stroke="#666666" points="25.5,-54 25.5,-54 169.5,-54 169.5,-54 25.5,-54"/>
<polygon fill="none" stroke="#666666" points="0,0 0,-146 169,-146 169,0 0,0"/>
</a>
</g>
</g>
</g>
</svg>
