<?xml version="1.0" encoding="UTF-8" standalone="no"?>
<!DOCTYPE svg PUBLIC "-//W3C//DTD SVG 1.1//EN"
 "http://www.w3.org/Graphics/SVG/1.1/DTD/svg11.dtd">
<!-- Generated by graphviz version 13.1.2 (20250808.2320)
 -->
<!-- Title: RpgGame.Input.MoveRightCommand.Execute Pages: 1 -->
<svg width="939pt" height="101pt"
 viewBox="0.00 0.00 939.00 101.00" xmlns="http://www.w3.org/2000/svg" xmlns:xlink="http://www.w3.org/1999/xlink">
<g id="graph0" class="graph" transform="scale(1 1) rotate(0) translate(4 96.5)">
<title>RpgGame.Input.MoveRightCommand.Execute</title>
<!-- Node1 -->
<g id="Node000001" class="node">
<title>Node1</title>
<g id="a_Node000001"><a xlink:title="Executes the command using provided game objects.Typically 1 to indicate the game should continue,...">
<polygon fill="#999999" stroke="#666666" points="182.5,-75.75 0,-75.75 0,-46.75 182.5,-46.75 182.5,-75.75"/>
<text xml:space="preserve" text-anchor="start" x="8" y="-62.25" font-family="Helvetica,sans-Serif" font-size="10.00">RpgGame.Input.MoveRightCommand.</text>
<text xml:space="preserve" text-anchor="middle" x="91.25" y="-51.75" font-family="Helvetica,sans-Serif" font-size="10.00">Execute</text>
</a>
</g>
</g>
<!-- Node2 -->
<g id="Node000002" class="node">
<title>Node2</title>
<g id="a_Node000002"><a xlink:href="classRpgGame_1_1Core_1_1Level.html#ad48a7c23cc285da72a157194198e553a" target="_top" xlink:title="Retrieves the tile at the specified coordinates.">
<polygon fill="white" stroke="#666666" points="740.5,-92.5 595.5,-92.5 595.5,-74 740.5,-74 740.5,-92.5"/>
<text xml:space="preserve" text-anchor="middle" x="668" y="-79" font-family="Helvetica,sans-Serif" font-size="10.00">RpgGame.Core.Level.GetTile</text>
</a>
</g>
</g>
<!-- Node1&#45;&gt;Node2 -->
<g id="edge1_Node000001_Node000002" class="edge">
<title>Node1&#45;&gt;Node2</title>
<g id="a_edge1_Node000001_Node000002"><a xlink:title=" ">
<path fill="none" stroke="#63b8ff" d="M182.69,-64.71C292.8,-68.93 477.23,-75.99 583.91,-80.07"/>
<polygon fill="#63b8ff" stroke="#63b8ff" points="583.61,-83.56 593.74,-80.45 583.88,-76.57 583.61,-83.56"/>
</a>
</g>
</g>
<!-- Node3 -->
<g id="Node000003" class="node">
<title>Node3</title>
<g id="a_Node000003"><a xlink:href="classRpgGame_1_1Core_1_1Level.html#a069520f8d4f28477ce45023ad97fbd95" target="_top" xlink:title="Attempts to move a character to a new position if the move is valid. Also handles item interactions f...">
<polygon fill="white" stroke="#666666" points="369.5,-54.75 218.5,-54.75 218.5,-25.75 369.5,-25.75 369.5,-54.75"/>
<text xml:space="preserve" text-anchor="start" x="226.5" y="-41.25" font-family="Helvetica,sans-Serif" font-size="10.00">RpgGame.Core.Level.TryMove</text>
<text xml:space="preserve" text-anchor="middle" x="294" y="-30.75" font-family="Helvetica,sans-Serif" font-size="10.00">Character</text>
</a>
</g>
</g>
<!-- Node1&#45;&gt;Node3 -->
<g id="edge2_Node000001_Node000003" class="edge">
<title>Node1&#45;&gt;Node3</title>
<g id="a_edge2_Node000001_Node000003"><a xlink:title=" ">
<path fill="none" stroke="#63b8ff" d="M182.93,-51.76C190.82,-50.94 198.79,-50.1 206.65,-49.28"/>
<polygon fill="#63b8ff" stroke="#63b8ff" points="206.96,-52.77 216.54,-48.25 206.23,-45.81 206.96,-52.77"/>
</a>
</g>
</g>
<!-- Node4 -->
<g id="Node000004" class="node">
<title>Node4</title>
<g id="a_Node000004"><a xlink:href="classRpgGame_1_1Core_1_1Level.html#af9e6a4b820c77f9390aed74bdc0f1c8a" target="_top" xlink:title="Determines whether a character can move to the specified position.">
<polygon fill="white" stroke="#666666" points="550.5,-54.75 405.5,-54.75 405.5,-25.75 550.5,-25.75 550.5,-54.75"/>
<text xml:space="preserve" text-anchor="start" x="413.5" y="-41.25" font-family="Helvetica,sans-Serif" font-size="10.00">RpgGame.Core.Level.IsMove</text>
<text xml:space="preserve" text-anchor="middle" x="478" y="-30.75" font-family="Helvetica,sans-Serif" font-size="10.00">Valid</text>
</a>
</g>
</g>
<!-- Node3&#45;&gt;Node4 -->
<g id="edge3_Node000003_Node000004" class="edge">
<title>Node3&#45;&gt;Node4</title>
<g id="a_edge3_Node000003_Node000004"><a xlink:title=" ">
<path fill="none" stroke="#63b8ff" d="M369.81,-40.25C377.74,-40.25 385.84,-40.25 393.86,-40.25"/>
<polygon fill="#63b8ff" stroke="#63b8ff" points="393.6,-43.75 403.6,-40.25 393.6,-36.75 393.6,-43.75"/>
</a>
</g>
</g>
<!-- Node6 -->
<g id="Node000006" class="node">
<title>Node6</title>
<g id="a_Node000006"><a xlink:href="namespaceRpgGame_1_1Character.html#ab2e6f640f8bfc682c50e3c19e0d417f1" target="_top" xlink:title="A record for tracking the position of Characters, Items, and Tiles if needed.">
<polygon fill="white" stroke="#666666" points="930.5,-18.5 785.5,-18.5 785.5,0 930.5,0 930.5,-18.5"/>
<text xml:space="preserve" text-anchor="middle" x="858" y="-5" font-family="Helvetica,sans-Serif" font-size="10.00">RpgGame.Character.Position</text>
</a>
</g>
</g>
<!-- Node3&#45;&gt;Node6 -->
<g id="edge9_Node000003_Node000006" class="edge">
<title>Node3&#45;&gt;Node6</title>
<g id="a_edge9_Node000003_Node000006"><a xlink:title=" ">
<path fill="none" stroke="#63b8ff" d="M357.21,-25.29C372.88,-22.07 389.74,-19.09 405.5,-17.25 533.38,-2.3 682.99,-3.24 773.83,-5.83"/>
<polygon fill="#63b8ff" stroke="#63b8ff" points="773.54,-9.32 783.64,-6.13 773.75,-2.33 773.54,-9.32"/>
</a>
</g>
</g>
<!-- Node4&#45;&gt;Node2 -->
<g id="edge4_Node000004_Node000002" class="edge">
<title>Node4&#45;&gt;Node2</title>
<g id="a_edge4_Node000004_Node000002"><a xlink:title=" ">
<path fill="none" stroke="#63b8ff" d="M544.49,-55.23C566.95,-60.37 591.8,-66.05 613.22,-70.95"/>
<polygon fill="#63b8ff" stroke="#63b8ff" points="612.4,-74.35 622.93,-73.17 613.96,-67.53 612.4,-74.35"/>
</a>
</g>
</g>
<!-- Node5 -->
<g id="Node000005" class="node">
<title>Node5</title>
<g id="a_Node000005"><a xlink:href="classRpgGame_1_1Core_1_1Level.html#a29d79bf5cda2e96ca6e823f9d5772db0" target="_top" xlink:title="Checks whether the specified position lies within the level boundaries.">
<polygon fill="white" stroke="#666666" points="749.5,-55.5 586.5,-55.5 586.5,-37 749.5,-37 749.5,-55.5"/>
<text xml:space="preserve" text-anchor="middle" x="668" y="-42" font-family="Helvetica,sans-Serif" font-size="10.00">RpgGame.Core.Level.IsInBounds</text>
</a>
</g>
</g>
<!-- Node4&#45;&gt;Node5 -->
<g id="edge5_Node000004_Node000005" class="edge">
<title>Node4&#45;&gt;Node5</title>
<g id="a_edge5_Node000004_Node000005"><a xlink:title=" ">
<path fill="none" stroke="#63b8ff" d="M550.88,-42.54C558.7,-42.79 566.74,-43.05 574.76,-43.31"/>
<polygon fill="#63b8ff" stroke="#63b8ff" points="574.44,-46.8 584.55,-43.62 574.66,-39.8 574.44,-46.8"/>
</a>
</g>
</g>
<!-- Node4&#45;&gt;Node6 -->
<g id="edge8_Node000004_Node000006" class="edge">
<title>Node4&#45;&gt;Node6</title>
<g id="a_edge8_Node000004_Node000006"><a xlink:title=" ">
<path fill="none" stroke="#63b8ff" d="M550.95,-31.81C562.82,-30.53 575,-29.3 586.5,-28.25 649.18,-22.55 720.16,-17.62 773.69,-14.22"/>
<polygon fill="#63b8ff" stroke="#63b8ff" points="773.91,-17.71 783.66,-13.59 773.46,-10.72 773.91,-17.71"/>
</a>
</g>
</g>
<!-- Node5&#45;&gt;Node6 -->
<g id="edge6_Node000005_Node000006" class="edge">
<title>Node5&#45;&gt;Node6</title>
<g id="a_edge6_Node000005_Node000006"><a xlink:title=" ">
<path fill="none" stroke="#63b8ff" d="M718.39,-36.53C742.26,-31.83 771.13,-26.15 796.32,-21.19"/>
<polygon fill="#63b8ff" stroke="#63b8ff" points="796.99,-24.63 806.12,-19.26 795.64,-17.76 796.99,-24.63"/>
</a>
</g>
</g>
<!-- Node6&#45;&gt;Node6 -->
<g id="edge7_Node000006_Node000006" class="edge">
<title>Node6&#45;&gt;Node6</title>
<g id="a_edge7_Node000006_Node000006"><a xlink:title=" ">
<path fill="none" stroke="#63b8ff" d="M828.72,-18.75C814.47,-27.32 824.23,-36.5 858,-36.5 878.05,-36.5 889.64,-33.26 892.76,-28.84"/>
<polygon fill="#63b8ff" stroke="#63b8ff" points="895.85,-27.2 888.01,-20.08 889.7,-30.53 895.85,-27.2"/>
</a>
</g>
</g>
</g>
</svg>
