<?xml version="1.0" encoding="UTF-8" standalone="no"?>
<!DOCTYPE svg PUBLIC "-//W3C//DTD SVG 1.1//EN"
 "http://www.w3.org/Graphics/SVG/1.1/DTD/svg11.dtd">
<!-- Generated by graphviz version 13.1.2 (20250808.2320)
 -->
<!-- Title: RpgGame.Core.Level.TryMoveCharacter Pages: 1 -->
<svg width="720pt" height="123pt"
 viewBox="0.00 0.00 720.00 123.00" xmlns="http://www.w3.org/2000/svg" xmlns:xlink="http://www.w3.org/1999/xlink">
<g id="graph0" class="graph" transform="scale(1 1) rotate(0) translate(4 118.75)">
<title>RpgGame.Core.Level.TryMoveCharacter</title>
<!-- Node1 -->
<g id="Node000001" class="node">
<title>Node1</title>
<g id="a_Node000001"><a xlink:title="Attempts to move a character to a new position if the move is valid.">
<polygon fill="#999999" stroke="#666666" points="151,-29 0,-29 0,0 151,0 151,-29"/>
<text xml:space="preserve" text-anchor="start" x="8" y="-15.5" font-family="Helvetica,sans-Serif" font-size="10.00">RpgGame.Core.Level.TryMove</text>
<text xml:space="preserve" text-anchor="middle" x="75.5" y="-5" font-family="Helvetica,sans-Serif" font-size="10.00">Character</text>
</a>
</g>
</g>
<!-- Node2 -->
<g id="Node000002" class="node">
<title>Node2</title>
<g id="a_Node000002"><a xlink:href="classRpgGame_1_1Core_1_1Level.html#af9e6a4b820c77f9390aed74bdc0f1c8a" target="_top" xlink:title="Determines whether a character can move to the specified position.">
<polygon fill="white" stroke="#666666" points="332,-67 187,-67 187,-38 332,-38 332,-67"/>
<text xml:space="preserve" text-anchor="start" x="195" y="-53.5" font-family="Helvetica,sans-Serif" font-size="10.00">RpgGame.Core.Level.IsMove</text>
<text xml:space="preserve" text-anchor="middle" x="259.5" y="-43" font-family="Helvetica,sans-Serif" font-size="10.00">Valid</text>
</a>
</g>
</g>
<!-- Node1&#45;&gt;Node2 -->
<g id="edge1_Node000001_Node000002" class="edge">
<title>Node1&#45;&gt;Node2</title>
<g id="a_edge1_Node000001_Node000002"><a xlink:title=" ">
<path fill="none" stroke="#63b8ff" d="M148.17,-29.46C157.22,-31.35 166.54,-33.3 175.75,-35.22"/>
<polygon fill="#63b8ff" stroke="#63b8ff" points="174.91,-38.62 185.41,-37.24 176.34,-31.77 174.91,-38.62"/>
</a>
</g>
</g>
<!-- Node5 -->
<g id="Node000005" class="node">
<title>Node5</title>
<g id="a_Node000005"><a xlink:href="namespaceRpgGame_1_1Character.html#ab2e6f640f8bfc682c50e3c19e0d417f1" target="_top" xlink:title="A record for tracking the position of Characters, Items, and Tiles if needed.">
<polygon fill="white" stroke="#666666" points="712,-40.75 567,-40.75 567,-22.25 712,-22.25 712,-40.75"/>
<text xml:space="preserve" text-anchor="middle" x="639.5" y="-27.25" font-family="Helvetica,sans-Serif" font-size="10.00">RpgGame.Character.Position</text>
</a>
</g>
</g>
<!-- Node1&#45;&gt;Node5 -->
<g id="edge7_Node000001_Node000005" class="edge">
<title>Node1&#45;&gt;Node5</title>
<g id="a_edge7_Node000001_Node000005"><a xlink:title=" ">
<path fill="none" stroke="#63b8ff" d="M151.42,-16.77C256.34,-19.94 446.39,-25.69 555.49,-28.99"/>
<polygon fill="#63b8ff" stroke="#63b8ff" points="555.15,-32.48 565.25,-29.28 555.36,-25.48 555.15,-32.48"/>
</a>
</g>
</g>
<!-- Node3 -->
<g id="Node000003" class="node">
<title>Node3</title>
<g id="a_Node000003"><a xlink:href="classRpgGame_1_1Core_1_1Level.html#ad48a7c23cc285da72a157194198e553a" target="_top" xlink:title="Retrieves the tile at the specified coordinates.">
<polygon fill="white" stroke="#666666" points="522,-114.75 377,-114.75 377,-96.25 522,-96.25 522,-114.75"/>
<text xml:space="preserve" text-anchor="middle" x="449.5" y="-101.25" font-family="Helvetica,sans-Serif" font-size="10.00">RpgGame.Core.Level.GetTile</text>
</a>
</g>
</g>
<!-- Node2&#45;&gt;Node3 -->
<g id="edge2_Node000002_Node000003" class="edge">
<title>Node2&#45;&gt;Node3</title>
<g id="a_edge2_Node000002_Node000003"><a xlink:title=" ">
<path fill="none" stroke="#63b8ff" d="M305.26,-67.48C324.48,-73.69 347.24,-80.78 368,-86.5 376.28,-88.78 385.08,-91.04 393.71,-93.15"/>
<polygon fill="#63b8ff" stroke="#63b8ff" points="392.89,-96.55 403.43,-95.48 394.52,-89.74 392.89,-96.55"/>
</a>
</g>
</g>
<!-- Node4 -->
<g id="Node000004" class="node">
<title>Node4</title>
<g id="a_Node000004"><a xlink:href="classRpgGame_1_1Core_1_1Level.html#a29d79bf5cda2e96ca6e823f9d5772db0" target="_top" xlink:title="Checks whether the specified position lies within the level boundaries.">
<polygon fill="white" stroke="#666666" points="531,-77.75 368,-77.75 368,-59.25 531,-59.25 531,-77.75"/>
<text xml:space="preserve" text-anchor="middle" x="449.5" y="-64.25" font-family="Helvetica,sans-Serif" font-size="10.00">RpgGame.Core.Level.IsInBounds</text>
</a>
</g>
</g>
<!-- Node2&#45;&gt;Node4 -->
<g id="edge3_Node000002_Node000004" class="edge">
<title>Node2&#45;&gt;Node4</title>
<g id="a_edge3_Node000002_Node000004"><a xlink:title=" ">
<path fill="none" stroke="#63b8ff" d="M332.38,-58.62C340.2,-59.28 348.24,-59.97 356.26,-60.65"/>
<polygon fill="#63b8ff" stroke="#63b8ff" points="355.79,-64.12 366.05,-61.48 356.38,-57.15 355.79,-64.12"/>
</a>
</g>
</g>
<!-- Node2&#45;&gt;Node5 -->
<g id="edge6_Node000002_Node000005" class="edge">
<title>Node2&#45;&gt;Node5</title>
<g id="a_edge6_Node000002_Node000005"><a xlink:title=" ">
<path fill="none" stroke="#63b8ff" d="M332.49,-48.5C396.07,-44.97 488.78,-39.82 555.48,-36.11"/>
<polygon fill="#63b8ff" stroke="#63b8ff" points="555.48,-39.62 565.27,-35.57 555.09,-32.63 555.48,-39.62"/>
</a>
</g>
</g>
<!-- Node4&#45;&gt;Node5 -->
<g id="edge4_Node000004_Node000005" class="edge">
<title>Node4&#45;&gt;Node5</title>
<g id="a_edge4_Node000004_Node000005"><a xlink:title=" ">
<path fill="none" stroke="#63b8ff" d="M499.89,-58.78C523.76,-54.08 552.63,-48.4 577.82,-43.44"/>
<polygon fill="#63b8ff" stroke="#63b8ff" points="578.49,-46.88 587.62,-41.51 577.14,-40.01 578.49,-46.88"/>
</a>
</g>
</g>
<!-- Node5&#45;&gt;Node5 -->
<g id="edge5_Node000005_Node000005" class="edge">
<title>Node5&#45;&gt;Node5</title>
<g id="a_edge5_Node000005_Node000005"><a xlink:title=" ">
<path fill="none" stroke="#63b8ff" d="M610.22,-41C595.97,-49.57 605.73,-58.75 639.5,-58.75 659.55,-58.75 671.14,-55.51 674.26,-51.09"/>
<polygon fill="#63b8ff" stroke="#63b8ff" points="677.35,-49.45 669.51,-42.33 671.2,-52.78 677.35,-49.45"/>
</a>
</g>
</g>
</g>
</svg>
