<?xml version="1.0" encoding="UTF-8" standalone="no"?>
<!DOCTYPE svg PUBLIC "-//W3C//DTD SVG 1.1//EN"
 "http://www.w3.org/Graphics/SVG/1.1/DTD/svg11.dtd">
<!-- Generated by graphviz version 2.43.0 (0)
 -->
<!-- Title: RpgGame.Generation.Procedures.AddItemsProcedure.ApplyAsync Pages: 1 -->
<svg width="404pt" height="182pt"
 viewBox="0.00 0.00 404.00 182.00" xmlns="http://www.w3.org/2000/svg" xmlns:xlink="http://www.w3.org/1999/xlink">

<svg id="main" version="1.1" xmlns="http://www.w3.org/2000/svg" xmlns:xlink="http://www.w3.org/1999/xlink" xml:space="preserve" onload="init(evt)">
<style type="text/css"><![CDATA[
.node, .edge {opacity: 0.7;}
.node.selected, .edge.selected {opacity: 1;}
.edge:hover path { stroke: red; }
.edge:hover polygon { stroke: red; fill: red; }
]]></style>
<script type="application/ecmascript" xlink:href="svg.min.js"/>
<svg id="graph" class="graph">
<g id="graph0" class="graph" transform="scale(1 1) rotate(0) translate(4 178)">
<title>RpgGame.Generation.Procedures.AddItemsProcedure.ApplyAsync</title>
<!-- Node1 -->
<g id="Node000001" class="node">
<title>Node1</title>
<g id="a_Node000001"><a xlink:title="Applies the item spawning to the level.">
<polygon fill="#999999" stroke="#666666" points="182,-102 0,-102 0,-72 182,-72 182,-102"/>
<text text-anchor="start" x="8" y="-90" font-family="Helvetica,sans-Serif" font-size="10.00">RpgGame.Generation.Procedures.</text>
<text text-anchor="middle" x="91" y="-79" font-family="Helvetica,sans-Serif" font-size="10.00">AddItemsProcedure.ApplyAsync</text>
</a>
</g>
</g>
<!-- Node2 -->
<g id="Node000002" class="node">
<title>Node2</title>
<g id="a_Node000002"><a xlink:href="classRpgGame_1_1Generation_1_1MapSpawnHelper.html#aef5f182d21ac6ed160d15450118a6032" target="_top" xlink:title="Convenience wrapper that spawns coins.">
<polygon fill="white" stroke="#666666" points="396,-174 218,-174 218,-144 396,-144 396,-174"/>
<text text-anchor="start" x="226" y="-162" font-family="Helvetica,sans-Serif" font-size="10.00">RpgGame.Generation.MapSpawn</text>
<text text-anchor="middle" x="307" y="-151" font-family="Helvetica,sans-Serif" font-size="10.00">Helper.SpawnCoinsAsync</text>
</a>
</g>
</g>
<!-- Node1&#45;&gt;Node2 -->
<g id="edge1_Node000001_Node000002" class="edge">
<title>Node1&#45;&gt;Node2</title>
<g id="a_edge1_Node000001_Node000002"><a xlink:title=" ">
<path fill="none" stroke="#63b8ff" d="M128.6,-102.03C153.57,-112.01 187.51,-125.06 218,-135 224.37,-137.08 231.04,-139.12 237.74,-141.09"/>
<polygon fill="#63b8ff" stroke="#63b8ff" points="236.96,-144.51 247.54,-143.92 238.9,-137.78 236.96,-144.51"/>
</a>
</g>
</g>
<!-- Node3 -->
<g id="Node000003" class="node">
<title>Node3</title>
<g id="a_Node000003"><a xlink:href="classRpgGame_1_1Generation_1_1MapSpawnHelper.html#a3d4f8e59572c78841b18c605691225b8" target="_top" xlink:title="Convenience wrapper that spawns gold piles.">
<polygon fill="white" stroke="#666666" points="396,-126 218,-126 218,-96 396,-96 396,-126"/>
<text text-anchor="start" x="226" y="-114" font-family="Helvetica,sans-Serif" font-size="10.00">RpgGame.Generation.MapSpawn</text>
<text text-anchor="middle" x="307" y="-103" font-family="Helvetica,sans-Serif" font-size="10.00">Helper.SpawnGoldAsync</text>
</a>
</g>
</g>
<!-- Node1&#45;&gt;Node3 -->
<g id="edge2_Node000001_Node000003" class="edge">
<title>Node1&#45;&gt;Node3</title>
<g id="a_edge2_Node000001_Node000003"><a xlink:title=" ">
<path fill="none" stroke="#63b8ff" d="M182.14,-97.11C190.59,-98.06 199.19,-99.02 207.72,-99.98"/>
<polygon fill="#63b8ff" stroke="#63b8ff" points="207.35,-103.46 217.68,-101.09 208.13,-96.5 207.35,-103.46"/>
</a>
</g>
</g>
<!-- Node4 -->
<g id="Node000004" class="node">
<title>Node4</title>
<g id="a_Node000004"><a xlink:href="classRpgGame_1_1Generation_1_1MapSpawnHelper.html#ad1d520226d3d48c42d78755cc5651368" target="_top" xlink:title="Convenience wrapper that spawns potions.">
<polygon fill="white" stroke="#666666" points="396,-78 218,-78 218,-48 396,-48 396,-78"/>
<text text-anchor="start" x="226" y="-66" font-family="Helvetica,sans-Serif" font-size="10.00">RpgGame.Generation.MapSpawn</text>
<text text-anchor="middle" x="307" y="-55" font-family="Helvetica,sans-Serif" font-size="10.00">Helper.SpawnPotionsAsync</text>
</a>
</g>
</g>
<!-- Node1&#45;&gt;Node4 -->
<g id="edge3_Node000001_Node000004" class="edge">
<title>Node1&#45;&gt;Node4</title>
<g id="a_edge3_Node000001_Node000004"><a xlink:title=" ">
<path fill="none" stroke="#63b8ff" d="M182.14,-76.89C190.59,-75.94 199.19,-74.98 207.72,-74.02"/>
<polygon fill="#63b8ff" stroke="#63b8ff" points="208.13,-77.5 217.68,-72.91 207.35,-70.54 208.13,-77.5"/>
</a>
</g>
</g>
<!-- Node5 -->
<g id="Node000005" class="node">
<title>Node5</title>
<g id="a_Node000005"><a xlink:href="classRpgGame_1_1Generation_1_1MapSpawnHelper.html#ac87208b359d86c9afde8227cec777d39" target="_top" xlink:title="Conveniece wrapper that spawns Thorns.">
<polygon fill="white" stroke="#666666" points="396,-30 218,-30 218,0 396,0 396,-30"/>
<text text-anchor="start" x="226" y="-18" font-family="Helvetica,sans-Serif" font-size="10.00">RpgGame.Generation.MapSpawn</text>
<text text-anchor="middle" x="307" y="-7" font-family="Helvetica,sans-Serif" font-size="10.00">Helper.SpawnThornsAsync</text>
</a>
</g>
</g>
<!-- Node1&#45;&gt;Node5 -->
<g id="edge4_Node000001_Node000005" class="edge">
<title>Node1&#45;&gt;Node5</title>
<g id="a_edge4_Node000001_Node000005"><a xlink:title=" ">
<path fill="none" stroke="#63b8ff" d="M128.6,-71.97C153.57,-61.99 187.51,-48.94 218,-39 224.37,-36.92 231.04,-34.88 237.74,-32.91"/>
<polygon fill="#63b8ff" stroke="#63b8ff" points="238.9,-36.22 247.54,-30.08 236.96,-29.49 238.9,-36.22"/>
</a>
</g>
</g>
</g>
</svg>
</svg>

<style type='text/css'>
<![CDATA[
[data-mouse-over-selected='false'] { opacity: 0.7; }
[data-mouse-over-selected='true']  { opacity: 1.0; }
]]>
</style>
<script type="application/ecmascript"><![CDATA[
document.addEventListener('DOMContentLoaded', (event) => {
  highlightEdges();
  highlightAdjacentNodes();
});
]]></script>
</svg>
