<?xml version="1.0" encoding="UTF-8" standalone="no"?>
<!DOCTYPE svg PUBLIC "-//W3C//DTD SVG 1.1//EN"
 "http://www.w3.org/Graphics/SVG/1.1/DTD/svg11.dtd">
<!-- Generated by graphviz version 2.43.0 (0)
 -->
<!-- Title: RpgGame.Generation.Procedures.AddWeaponsProcedure Pages: 1 -->
<svg width="184pt" height="234pt"
 viewBox="0.00 0.00 184.00 234.00" xmlns="http://www.w3.org/2000/svg" xmlns:xlink="http://www.w3.org/1999/xlink">

<svg id="main" version="1.1" xmlns="http://www.w3.org/2000/svg" xmlns:xlink="http://www.w3.org/1999/xlink" xml:space="preserve" onload="init(evt)">
<style type="text/css"><![CDATA[
.node, .edge {opacity: 0.7;}
.node.selected, .edge.selected {opacity: 1;}
.edge:hover path { stroke: red; }
.edge:hover polygon { stroke: red; fill: red; }
]]></style>
<script type="application/ecmascript" xlink:href="svg.min.js"/>
<svg id="graph" class="graph">
<g id="graph0" class="graph" transform="scale(1 1) rotate(0) translate(4 230)">
<title>RpgGame.Generation.Procedures.AddWeaponsProcedure</title>
<!-- Node1 -->
<g id="Node000001" class="node">
<title>Node1</title>
<g id="a_Node000001"><a xlink:title="Spawns weapons (swords and double swords) at random locations in the dungeon.">
<polygon fill="#999999" stroke="transparent" points="176,-119 0,-119 0,0 176,0 176,-119"/>
<text text-anchor="start" x="5" y="-106.5" font-family="Helvetica,sans-Serif" font-size="10.00">RpgGame.Generation.Procedures.</text>
<text text-anchor="start" x="32" y="-95.5" font-family="Helvetica,sans-Serif" font-size="10.00">AddWeaponsProcedure</text>
<text text-anchor="start" x="86" y="-80.5" font-family="Helvetica,sans-Serif" font-size="10.00"> </text>
<text text-anchor="start" x="6.5" y="-65.5" font-family="Helvetica,sans-Serif" font-size="10.00">+</text>
<text text-anchor="start" x="22" y="-65.5" font-family="Helvetica,sans-Serif" font-size="10.00">AddWeaponsProcedure</text>
<text text-anchor="start" x="22" y="-54.5" font-family="Helvetica,sans-Serif" font-size="10.00">(int SwordCount=2, int</text>
<text text-anchor="start" x="22" y="-43.5" font-family="Helvetica,sans-Serif" font-size="10.00"> DoubleSwordCount=1)</text>
<text text-anchor="start" x="6.5" y="-28.5" font-family="Helvetica,sans-Serif" font-size="10.00">+</text>
<text text-anchor="start" x="22" y="-28.5" font-family="Helvetica,sans-Serif" font-size="10.00">async Task ApplyAsync</text>
<text text-anchor="start" x="22" y="-17.5" font-family="Helvetica,sans-Serif" font-size="10.00">(Level level, DungeonContext</text>
<text text-anchor="start" x="22" y="-6.5" font-family="Helvetica,sans-Serif" font-size="10.00"> context)</text>
<polygon fill="#666666" stroke="#666666" points="0,-90.5 0,-90.5 176,-90.5 176,-90.5 0,-90.5"/>
<polygon fill="#666666" stroke="#666666" points="0,-75.5 0,-75.5 176,-75.5 176,-75.5 0,-75.5"/>
<polygon fill="none" stroke="#666666" points="0,0 0,-119 176,-119 176,0 0,0"/>
</a>
</g>
</g>
<!-- Node2 -->
<g id="Node000002" class="node">
<title>Node2</title>
<g id="a_Node000002"><a xlink:href="interfaceRpgGame_1_1Generation_1_1IDungeonProcedure.html" target="_top" xlink:title="Defines a procedural step in dungeon generation.">
<polygon fill="white" stroke="transparent" points="156,-226 20,-226 20,-155 156,-155 156,-226"/>
<text text-anchor="start" x="40" y="-213.5" font-family="Helvetica,sans-Serif" font-size="10.00">IDungeonProcedure</text>
<text text-anchor="start" x="86" y="-198.5" font-family="Helvetica,sans-Serif" font-size="10.00"> </text>
<text text-anchor="start" x="24" y="-183.5" font-family="Helvetica,sans-Serif" font-size="10.00">+</text>
<text text-anchor="start" x="37" y="-183.5" font-family="Helvetica,sans-Serif" font-size="10.00">Task ApplyAsync(Level</text>
<text text-anchor="start" x="37" y="-172.5" font-family="Helvetica,sans-Serif" font-size="10.00"> level, DungeonContext</text>
<text text-anchor="start" x="37" y="-161.5" font-family="Helvetica,sans-Serif" font-size="10.00"> context)</text>
<polygon fill="#666666" stroke="#666666" points="20,-208.5 20,-208.5 156,-208.5 156,-208.5 20,-208.5"/>
<polygon fill="#666666" stroke="#666666" points="20,-193.5 20,-193.5 156,-193.5 156,-193.5 20,-193.5"/>
<polygon fill="none" stroke="#666666" points="20,-155 20,-226 156,-226 156,-155 20,-155"/>
</a>
</g>
</g>
<!-- Node2&#45;&gt;Node1 -->
<g id="edge1_Node000001_Node000002" class="edge">
<title>Node2&#45;&gt;Node1</title>
<g id="a_edge1_Node000001_Node000002"><a xlink:title=" ">
<path fill="none" stroke="#63b8ff" d="M88,-144.74C88,-136.46 88,-127.69 88,-119.07"/>
<polygon fill="none" stroke="#63b8ff" points="84.5,-144.93 88,-154.93 91.5,-144.93 84.5,-144.93"/>
</a>
</g>
</g>
</g>
</svg>
</svg>

<style type='text/css'>
<![CDATA[
[data-mouse-over-selected='false'] { opacity: 0.7; }
[data-mouse-over-selected='true']  { opacity: 1.0; }
]]>
</style>
<script type="application/ecmascript"><![CDATA[
document.addEventListener('DOMContentLoaded', (event) => {
  highlightEdges();
  highlightAdjacentNodes();
});
]]></script>
</svg>
