<?xml version="1.0" encoding="UTF-8" standalone="no"?>
<!DOCTYPE svg PUBLIC "-//W3C//DTD SVG 1.1//EN"
 "http://www.w3.org/Graphics/SVG/1.1/DTD/svg11.dtd">
<!-- Generated by graphviz version 13.1.2 (20250808.2320)
 -->
<!-- Title: RpgGame.Items.Weapon.OnDrop Pages: 1 -->
<svg width="539pt" height="45pt"
 viewBox="0.00 0.00 539.00 45.00" xmlns="http://www.w3.org/2000/svg" xmlns:xlink="http://www.w3.org/1999/xlink">
<g id="graph0" class="graph" transform="scale(1 1) rotate(0) translate(4 40.5)">
<title>RpgGame.Items.Weapon.OnDrop</title>
<!-- Node1 -->
<g id="Node000001" class="node">
<title>Node1</title>
<g id="a_Node000001"><a xlink:title="Drops the weapon onto the current level at the player&#39;s position.">
<polygon fill="#999999" stroke="#666666" points="163.75,-18.5 0,-18.5 0,0 163.75,0 163.75,-18.5"/>
<text xml:space="preserve" text-anchor="middle" x="81.88" y="-5" font-family="Helvetica,sans-Serif" font-size="10.00">RpgGame.Items.Weapon.OnDrop</text>
</a>
</g>
</g>
<!-- Node2 -->
<g id="Node000002" class="node">
<title>Node2</title>
<g id="a_Node000002"><a xlink:href="classRpgGame_1_1Core_1_1Level.html#a377e083189e74d5d6ed5fd3234ebfa0f" target="_top" xlink:title="Adds an item to the specified position in the level.">
<polygon fill="white" stroke="#666666" points="350,-18.5 199.75,-18.5 199.75,0 350,0 350,-18.5"/>
<text xml:space="preserve" text-anchor="middle" x="274.88" y="-5" font-family="Helvetica,sans-Serif" font-size="10.00">RpgGame.Core.Level.AddItem</text>
</a>
</g>
</g>
<!-- Node1&#45;&gt;Node2 -->
<g id="edge1_Node000001_Node000002" class="edge">
<title>Node1&#45;&gt;Node2</title>
<g id="a_edge1_Node000001_Node000002"><a xlink:title=" ">
<path fill="none" stroke="#63b8ff" d="M164.15,-9.25C172,-9.25 179.97,-9.25 187.86,-9.25"/>
<polygon fill="#63b8ff" stroke="#63b8ff" points="187.82,-12.75 197.82,-9.25 187.82,-5.75 187.82,-12.75"/>
</a>
</g>
</g>
<!-- Node3 -->
<g id="Node000003" class="node">
<title>Node3</title>
<g id="a_Node000003"><a xlink:href="namespaceRpgGame_1_1Character.html#ab2e6f640f8bfc682c50e3c19e0d417f1" target="_top" xlink:title="A record for tracking the position of Characters, Items, and Tiles if needed.">
<polygon fill="white" stroke="#666666" points="531,-18.5 386,-18.5 386,0 531,0 531,-18.5"/>
<text xml:space="preserve" text-anchor="middle" x="458.5" y="-5" font-family="Helvetica,sans-Serif" font-size="10.00">RpgGame.Character.Position</text>
</a>
</g>
</g>
<!-- Node2&#45;&gt;Node3 -->
<g id="edge2_Node000002_Node000003" class="edge">
<title>Node2&#45;&gt;Node3</title>
<g id="a_edge2_Node000002_Node000003"><a xlink:title=" ">
<path fill="none" stroke="#63b8ff" d="M350.27,-9.25C358.2,-9.25 366.29,-9.25 374.31,-9.25"/>
<polygon fill="#63b8ff" stroke="#63b8ff" points="374.05,-12.75 384.05,-9.25 374.05,-5.75 374.05,-12.75"/>
</a>
</g>
</g>
<!-- Node3&#45;&gt;Node3 -->
<g id="edge3_Node000003_Node000003" class="edge">
<title>Node3&#45;&gt;Node3</title>
<g id="a_edge3_Node000003_Node000003"><a xlink:title=" ">
<path fill="none" stroke="#63b8ff" d="M430.2,-18.75C416.43,-27.32 425.86,-36.5 458.5,-36.5 477.88,-36.5 489.08,-33.26 492.09,-28.84"/>
<polygon fill="#63b8ff" stroke="#63b8ff" points="495.25,-27.32 487.5,-20.09 489.05,-30.57 495.25,-27.32"/>
</a>
</g>
</g>
</g>
</svg>
