<?xml version="1.0" encoding="UTF-8" standalone="no"?>
<!DOCTYPE svg PUBLIC "-//W3C//DTD SVG 1.1//EN"
 "http://www.w3.org/Graphics/SVG/1.1/DTD/svg11.dtd">
<!-- Generated by graphviz version 2.43.0 (0)
 -->
<!-- Title: RpgGame.Items.DoubleSword Pages: 1 -->
<svg width="175pt" height="662pt"
 viewBox="0.00 0.00 175.00 662.00" xmlns="http://www.w3.org/2000/svg" xmlns:xlink="http://www.w3.org/1999/xlink">
<g id="graph0" class="graph" transform="scale(1 1) rotate(0) translate(4 658)">
<title>RpgGame.Items.DoubleSword</title>
<!-- Node1 -->
<g id="Node000001" class="node">
<title>Node1</title>
<g id="a_Node000001"><a xlink:title="Represents a powerful two&#45;handed sword weapon.">
<polygon fill="#999999" stroke="transparent" points="162,-105 5,-105 5,0 162,0 162,-105"/>
<text text-anchor="start" x="10.5" y="-92.5" font-family="Helvetica,sans-Serif" font-size="10.00">RpgGame.Items.DoubleSword</text>
<text text-anchor="start" x="16" y="-77.5" font-family="Helvetica,sans-Serif" font-size="10.00">+</text>
<text text-anchor="start" x="35.5" y="-77.5" font-family="Helvetica,sans-Serif" font-size="10.00">override string Name</text>
<text text-anchor="start" x="16" y="-62.5" font-family="Helvetica,sans-Serif" font-size="10.00">+</text>
<text text-anchor="start" x="35.5" y="-62.5" font-family="Helvetica,sans-Serif" font-size="10.00">override ConsoleColor</text>
<text text-anchor="start" x="35.5" y="-51.5" font-family="Helvetica,sans-Serif" font-size="10.00"> color</text>
<text text-anchor="start" x="16" y="-36.5" font-family="Helvetica,sans-Serif" font-size="10.00">+</text>
<text text-anchor="start" x="35.5" y="-36.5" font-family="Helvetica,sans-Serif" font-size="10.00">override char Symbol</text>
<text text-anchor="start" x="16" y="-21.5" font-family="Helvetica,sans-Serif" font-size="10.00">+</text>
<text text-anchor="start" x="35.5" y="-21.5" font-family="Helvetica,sans-Serif" font-size="10.00">override int Damage</text>
<text text-anchor="start" x="16" y="-6.5" font-family="Helvetica,sans-Serif" font-size="10.00">+</text>
<text text-anchor="start" x="35.5" y="-6.5" font-family="Helvetica,sans-Serif" font-size="10.00">DoubleSword()</text>
<polygon fill="#666666" stroke="#666666" points="5.5,-87.5 5.5,-87.5 162.5,-87.5 162.5,-87.5 5.5,-87.5"/>
<polygon fill="#666666" stroke="#666666" points="5.5,-16.5 5.5,-16.5 33.5,-16.5 33.5,-16.5 5.5,-16.5"/>
<polygon fill="#666666" stroke="#666666" points="33.5,-16.5 33.5,-16.5 162.5,-16.5 162.5,-16.5 33.5,-16.5"/>
<polygon fill="none" stroke="#666666" points="5,0 5,-105 162,-105 162,0 5,0"/>
</a>
</g>
</g>
<!-- Node2 -->
<g id="Node000002" class="node">
<title>Node2</title>
<g id="a_Node000002"><a xlink:href="classRpgGame_1_1Items_1_1Weapon.html" target="_top" xlink:title="Represents an abstract base class for all equippable weapons.">
<polygon fill="white" stroke="transparent" points="167,-365 0,-365 0,-141 167,-141 167,-365"/>
<text text-anchor="start" x="64" y="-353" font-family="Helvetica,sans-Serif" font-size="10.00">Weapon</text>
<text text-anchor="start" x="4.5" y="-338" font-family="Helvetica,sans-Serif" font-size="10.00">+</text>
<text text-anchor="start" x="17.5" y="-338" font-family="Helvetica,sans-Serif" font-size="10.00">string Name</text>
<text text-anchor="start" x="4.5" y="-323" font-family="Helvetica,sans-Serif" font-size="10.00">+</text>
<text text-anchor="start" x="17.5" y="-323" font-family="Helvetica,sans-Serif" font-size="10.00">ConsoleColor color</text>
<text text-anchor="start" x="4.5" y="-308" font-family="Helvetica,sans-Serif" font-size="10.00">+</text>
<text text-anchor="start" x="17.5" y="-308" font-family="Helvetica,sans-Serif" font-size="10.00">char Symbol</text>
<text text-anchor="start" x="4.5" y="-293" font-family="Helvetica,sans-Serif" font-size="10.00">+</text>
<text text-anchor="start" x="17.5" y="-293" font-family="Helvetica,sans-Serif" font-size="10.00">int Damage</text>
<text text-anchor="start" x="4.5" y="-278" font-family="Helvetica,sans-Serif" font-size="10.00">+</text>
<text text-anchor="start" x="17.5" y="-278" font-family="Helvetica,sans-Serif" font-size="10.00">bool TryEquipToLeft</text>
<text text-anchor="start" x="17.5" y="-267" font-family="Helvetica,sans-Serif" font-size="10.00">(Player player)</text>
<text text-anchor="start" x="4.5" y="-252" font-family="Helvetica,sans-Serif" font-size="10.00">+</text>
<text text-anchor="start" x="17.5" y="-252" font-family="Helvetica,sans-Serif" font-size="10.00">bool TryEquipToRight</text>
<text text-anchor="start" x="17.5" y="-241" font-family="Helvetica,sans-Serif" font-size="10.00">(Player player)</text>
<text text-anchor="start" x="4.5" y="-226" font-family="Helvetica,sans-Serif" font-size="10.00">+</text>
<text text-anchor="start" x="17.5" y="-226" font-family="Helvetica,sans-Serif" font-size="10.00">virtual string GetDescription()</text>
<text text-anchor="start" x="4.5" y="-211" font-family="Helvetica,sans-Serif" font-size="10.00">+</text>
<text text-anchor="start" x="17.5" y="-211" font-family="Helvetica,sans-Serif" font-size="10.00">bool OnPickup(Player</text>
<text text-anchor="start" x="17.5" y="-200" font-family="Helvetica,sans-Serif" font-size="10.00"> player, Inventory inventory)</text>
<text text-anchor="start" x="4.5" y="-185" font-family="Helvetica,sans-Serif" font-size="10.00">+</text>
<text text-anchor="start" x="17.5" y="-185" font-family="Helvetica,sans-Serif" font-size="10.00">void OnDrop(Level level,</text>
<text text-anchor="start" x="17.5" y="-174" font-family="Helvetica,sans-Serif" font-size="10.00"> Player player)</text>
<text text-anchor="start" x="4.5" y="-159" font-family="Helvetica,sans-Serif" font-size="10.00">#</text>
<text text-anchor="start" x="17.5" y="-159" font-family="Helvetica,sans-Serif" font-size="10.00">Weapon(HandOccupation</text>
<text text-anchor="start" x="17.5" y="-148" font-family="Helvetica,sans-Serif" font-size="10.00"> occupation)</text>
<polygon fill="#666666" stroke="#666666" points="0.5,-348 0.5,-348 167.5,-348 167.5,-348 0.5,-348"/>
<polygon fill="#666666" stroke="#666666" points="0.5,-288 0.5,-288 15.5,-288 15.5,-288 0.5,-288"/>
<polygon fill="#666666" stroke="#666666" points="15.5,-288 15.5,-288 167.5,-288 167.5,-288 15.5,-288"/>
<polygon fill="none" stroke="#666666" points="0,-141 0,-365 167,-365 167,-141 0,-141"/>
</a>
</g>
</g>
<!-- Node2&#45;&gt;Node1 -->
<g id="edge1_Node000001_Node000002" class="edge">
<title>Node2&#45;&gt;Node1</title>
<g id="a_edge1_Node000001_Node000002"><a xlink:title=" ">
<path fill="none" stroke="#63b8ff" d="M83.5,-130.75C83.5,-121.88 83.5,-113.26 83.5,-105.19"/>
<polygon fill="none" stroke="#63b8ff" points="80,-130.85 83.5,-140.85 87,-130.85 80,-130.85"/>
</a>
</g>
</g>
<!-- Node3 -->
<g id="Node000003" class="node">
<title>Node3</title>
<g id="a_Node000003"><a xlink:href="interfaceRpgGame_1_1Items_1_1IEquippable.html" target="_top" xlink:title="Represents an item that can be equipped by the player.">
<polygon fill="white" stroke="transparent" points="145,-487 22,-487 22,-401 145,-401 145,-487"/>
<text text-anchor="start" x="55" y="-475" font-family="Helvetica,sans-Serif" font-size="10.00">IEquippable</text>
<text text-anchor="start" x="82" y="-460" font-family="Helvetica,sans-Serif" font-size="10.00"> </text>
<text text-anchor="start" x="26.5" y="-445" font-family="Helvetica,sans-Serif" font-size="10.00">+</text>
<text text-anchor="start" x="39.5" y="-445" font-family="Helvetica,sans-Serif" font-size="10.00">bool TryEquipToLeft</text>
<text text-anchor="start" x="39.5" y="-434" font-family="Helvetica,sans-Serif" font-size="10.00">(Player player)</text>
<text text-anchor="start" x="26.5" y="-419" font-family="Helvetica,sans-Serif" font-size="10.00">+</text>
<text text-anchor="start" x="39.5" y="-419" font-family="Helvetica,sans-Serif" font-size="10.00">bool TryEquipToRight</text>
<text text-anchor="start" x="39.5" y="-408" font-family="Helvetica,sans-Serif" font-size="10.00">(Player player)</text>
<polygon fill="#666666" stroke="#666666" points="22.5,-470 22.5,-470 145.5,-470 145.5,-470 22.5,-470"/>
<polygon fill="#666666" stroke="#666666" points="22.5,-455 22.5,-455 145.5,-455 145.5,-455 22.5,-455"/>
<polygon fill="none" stroke="#666666" points="22,-401 22,-487 145,-487 145,-401 22,-401"/>
</a>
</g>
</g>
<!-- Node3&#45;&gt;Node2 -->
<g id="edge2_Node000002_Node000003" class="edge">
<title>Node3&#45;&gt;Node2</title>
<g id="a_edge2_Node000002_Node000003"><a xlink:title=" ">
<path fill="none" stroke="#63b8ff" d="M83.5,-390.4C83.5,-382.41 83.5,-373.92 83.5,-365.23"/>
<polygon fill="none" stroke="#63b8ff" points="80,-390.58 83.5,-400.58 87,-390.58 80,-390.58"/>
</a>
</g>
</g>
<!-- Node4 -->
<g id="Node000004" class="node">
<title>Node4</title>
<g id="a_Node000004"><a xlink:href="interfaceRpgGame_1_1Items_1_1IItem.html" target="_top" xlink:title="Defines the contract for all items that can exist within the game world.">
<polygon fill="white" stroke="transparent" points="164,-654 3,-654 3,-523 164,-523 164,-654"/>
<text text-anchor="start" x="71" y="-641.5" font-family="Helvetica,sans-Serif" font-size="10.00">IItem</text>
<text text-anchor="start" x="7.5" y="-626.5" font-family="Helvetica,sans-Serif" font-size="10.00">+</text>
<text text-anchor="start" x="20.5" y="-626.5" font-family="Helvetica,sans-Serif" font-size="10.00">string Name</text>
<text text-anchor="start" x="7.5" y="-611.5" font-family="Helvetica,sans-Serif" font-size="10.00">+</text>
<text text-anchor="start" x="20.5" y="-611.5" font-family="Helvetica,sans-Serif" font-size="10.00">char Symbol</text>
<text text-anchor="start" x="7.5" y="-596.5" font-family="Helvetica,sans-Serif" font-size="10.00">+</text>
<text text-anchor="start" x="20.5" y="-596.5" font-family="Helvetica,sans-Serif" font-size="10.00">ConsoleColor color</text>
<text text-anchor="start" x="7.5" y="-581.5" font-family="Helvetica,sans-Serif" font-size="10.00">+</text>
<text text-anchor="start" x="20.5" y="-581.5" font-family="Helvetica,sans-Serif" font-size="10.00">string GetDescription()</text>
<text text-anchor="start" x="7.5" y="-566.5" font-family="Helvetica,sans-Serif" font-size="10.00">+</text>
<text text-anchor="start" x="20.5" y="-566.5" font-family="Helvetica,sans-Serif" font-size="10.00">bool OnPickup(Player</text>
<text text-anchor="start" x="20.5" y="-555.5" font-family="Helvetica,sans-Serif" font-size="10.00"> player, Inventory inventory)</text>
<text text-anchor="start" x="7.5" y="-540.5" font-family="Helvetica,sans-Serif" font-size="10.00">+</text>
<text text-anchor="start" x="20.5" y="-540.5" font-family="Helvetica,sans-Serif" font-size="10.00">void OnDrop(Level level,</text>
<text text-anchor="start" x="20.5" y="-529.5" font-family="Helvetica,sans-Serif" font-size="10.00"> Player player)</text>
<polygon fill="#666666" stroke="#666666" points="3.5,-636.5 3.5,-636.5 164.5,-636.5 164.5,-636.5 3.5,-636.5"/>
<polygon fill="#666666" stroke="#666666" points="3.5,-591.5 3.5,-591.5 18.5,-591.5 18.5,-591.5 3.5,-591.5"/>
<polygon fill="#666666" stroke="#666666" points="18.5,-591.5 18.5,-591.5 164.5,-591.5 164.5,-591.5 18.5,-591.5"/>
<polygon fill="none" stroke="#666666" points="3,-523 3,-654 164,-654 164,-523 3,-523"/>
</a>
</g>
</g>
<!-- Node4&#45;&gt;Node3 -->
<g id="edge3_Node000003_Node000004" class="edge">
<title>Node4&#45;&gt;Node3</title>
<g id="a_edge3_Node000003_Node000004"><a xlink:title=" ">
<path fill="none" stroke="#63b8ff" d="M83.5,-512.7C83.5,-504 83.5,-495.36 83.5,-487.32"/>
<polygon fill="none" stroke="#63b8ff" points="80,-512.92 83.5,-522.92 87,-512.92 80,-512.92"/>
</a>
</g>
</g>
</g>
</svg>
