<?xml version="1.0" encoding="UTF-8" standalone="no"?>
<!DOCTYPE svg PUBLIC "-//W3C//DTD SVG 1.1//EN"
 "http://www.w3.org/Graphics/SVG/1.1/DTD/svg11.dtd">
<!-- Generated by graphviz version 13.1.2 (20250808.2320)
 -->
<!-- Title: RpgGame.Core.Level.IsMoveValid Pages: 1 -->
<svg width="533pt" height="83pt"
 viewBox="0.00 0.00 533.00 83.00" xmlns="http://www.w3.org/2000/svg" xmlns:xlink="http://www.w3.org/1999/xlink">
<g id="graph0" class="graph" transform="scale(1 1) rotate(0) translate(4 78.5)">
<title>RpgGame.Core.Level.IsMoveValid</title>
<!-- Node1 -->
<g id="Node000001" class="node">
<title>Node1</title>
<g id="a_Node000001"><a xlink:title="Determines whether a character can move to the specified position.">
<polygon fill="#999999" stroke="#666666" points="145,-42.75 0,-42.75 0,-13.75 145,-13.75 145,-42.75"/>
<text xml:space="preserve" text-anchor="start" x="8" y="-29.25" font-family="Helvetica,sans-Serif" font-size="10.00">RpgGame.Core.Level.IsMove</text>
<text xml:space="preserve" text-anchor="middle" x="72.5" y="-18.75" font-family="Helvetica,sans-Serif" font-size="10.00">Valid</text>
</a>
</g>
</g>
<!-- Node2 -->
<g id="Node000002" class="node">
<title>Node2</title>
<g id="a_Node000002"><a xlink:href="classRpgGame_1_1Core_1_1Level.html#ad48a7c23cc285da72a157194198e553a" target="_top" xlink:title="Retrieves the tile at the specified coordinates.">
<polygon fill="white" stroke="#666666" points="335,-74.5 190,-74.5 190,-56 335,-56 335,-74.5"/>
<text xml:space="preserve" text-anchor="middle" x="262.5" y="-61" font-family="Helvetica,sans-Serif" font-size="10.00">RpgGame.Core.Level.GetTile</text>
</a>
</g>
</g>
<!-- Node1&#45;&gt;Node2 -->
<g id="edge1_Node000001_Node000002" class="edge">
<title>Node1&#45;&gt;Node2</title>
<g id="a_edge1_Node000001_Node000002"><a xlink:title=" ">
<path fill="none" stroke="#63b8ff" d="M145.38,-42.4C163.75,-46.01 183.31,-49.86 201.04,-53.35"/>
<polygon fill="#63b8ff" stroke="#63b8ff" points="200.14,-56.74 210.62,-55.24 201.49,-49.87 200.14,-56.74"/>
</a>
</g>
</g>
<!-- Node3 -->
<g id="Node000003" class="node">
<title>Node3</title>
<g id="a_Node000003"><a xlink:href="classRpgGame_1_1Core_1_1Level.html#a29d79bf5cda2e96ca6e823f9d5772db0" target="_top" xlink:title="Checks whether the specified position lies within the level boundaries.">
<polygon fill="white" stroke="#666666" points="344,-37.5 181,-37.5 181,-19 344,-19 344,-37.5"/>
<text xml:space="preserve" text-anchor="middle" x="262.5" y="-24" font-family="Helvetica,sans-Serif" font-size="10.00">RpgGame.Core.Level.IsInBounds</text>
</a>
</g>
</g>
<!-- Node1&#45;&gt;Node3 -->
<g id="edge2_Node000001_Node000003" class="edge">
<title>Node1&#45;&gt;Node3</title>
<g id="a_edge2_Node000001_Node000003"><a xlink:title=" ">
<path fill="none" stroke="#63b8ff" d="M145.38,-28.25C153.2,-28.25 161.24,-28.25 169.26,-28.25"/>
<polygon fill="#63b8ff" stroke="#63b8ff" points="169.05,-31.75 179.05,-28.25 169.05,-24.75 169.05,-31.75"/>
</a>
</g>
</g>
<!-- Node4 -->
<g id="Node000004" class="node">
<title>Node4</title>
<g id="a_Node000004"><a xlink:href="namespaceRpgGame_1_1Character.html#ab2e6f640f8bfc682c50e3c19e0d417f1" target="_top" xlink:title="A record for tracking the position of Characters, Items, and Tiles if needed.">
<polygon fill="white" stroke="#666666" points="525,-18.5 380,-18.5 380,0 525,0 525,-18.5"/>
<text xml:space="preserve" text-anchor="middle" x="452.5" y="-5" font-family="Helvetica,sans-Serif" font-size="10.00">RpgGame.Character.Position</text>
</a>
</g>
</g>
<!-- Node1&#45;&gt;Node4 -->
<g id="edge5_Node000001_Node000004" class="edge">
<title>Node1&#45;&gt;Node4</title>
<g id="a_edge5_Node000001_Node000004"><a xlink:title=" ">
<path fill="none" stroke="#63b8ff" d="M145.29,-14.57C157.18,-12.79 169.4,-11.24 181,-10.25 243.56,-4.93 314.55,-4.9 368.1,-6.08"/>
<polygon fill="#63b8ff" stroke="#63b8ff" points="368.01,-9.57 378.09,-6.32 368.17,-2.58 368.01,-9.57"/>
</a>
</g>
</g>
<!-- Node3&#45;&gt;Node4 -->
<g id="edge3_Node000003_Node000004" class="edge">
<title>Node3&#45;&gt;Node4</title>
<g id="a_edge3_Node000003_Node000004"><a xlink:title=" ">
<path fill="none" stroke="#63b8ff" d="M344.32,-20.08C352.3,-19.28 360.41,-18.46 368.42,-17.65"/>
<polygon fill="#63b8ff" stroke="#63b8ff" points="368.53,-21.15 378.13,-16.66 367.83,-14.19 368.53,-21.15"/>
</a>
</g>
</g>
<!-- Node4&#45;&gt;Node4 -->
<g id="edge4_Node000004_Node000004" class="edge">
<title>Node4&#45;&gt;Node4</title>
<g id="a_edge4_Node000004_Node000004"><a xlink:title=" ">
<path fill="none" stroke="#63b8ff" d="M423.22,-18.75C408.97,-27.32 418.73,-36.5 452.5,-36.5 472.55,-36.5 484.14,-33.26 487.26,-28.84"/>
<polygon fill="#63b8ff" stroke="#63b8ff" points="490.35,-27.2 482.51,-20.08 484.2,-30.53 490.35,-27.2"/>
</a>
</g>
</g>
</g>
</svg>
