<?xml version="1.0" encoding="UTF-8" standalone="no"?>
<!DOCTYPE svg PUBLIC "-//W3C//DTD SVG 1.1//EN"
 "http://www.w3.org/Graphics/SVG/1.1/DTD/svg11.dtd">
<!-- Generated by graphviz version 13.1.2 (20250808.2320)
 -->
<!-- Title: RpgGame.Character.Golem Pages: 1 -->
<svg width="154pt" height="204pt"
 viewBox="0.00 0.00 154.00 204.00" xmlns="http://www.w3.org/2000/svg" xmlns:xlink="http://www.w3.org/1999/xlink">
<g id="graph0" class="graph" transform="scale(1 1) rotate(0) translate(4 199.5)">
<title>RpgGame.Character.Golem</title>
<!-- Node1 -->
<g id="Node000001" class="node">
<title>Node1</title>
<g id="a_Node000001"><a xlink:title="Represents a Golem character in the game. Golems are typically non&#45;player characters (NPCs) that may ...">
<polygon fill="#999999" stroke="none" points="146.25,-62 0,-62 0,0 146.25,0 146.25,-62"/>
<text xml:space="preserve" text-anchor="start" x="12" y="-48.5" font-family="Helvetica,sans-Serif" font-size="10.00">RpgGame.Character.Golem</text>
<text xml:space="preserve" text-anchor="start" x="4" y="-34" font-family="Helvetica,sans-Serif" font-size="10.00">+</text>
<text xml:space="preserve" text-anchor="start" x="14" y="-34" font-family="Helvetica,sans-Serif" font-size="10.00">override char Symbol</text>
<text xml:space="preserve" text-anchor="start" x="4" y="-19.5" font-family="Helvetica,sans-Serif" font-size="10.00">+</text>
<text xml:space="preserve" text-anchor="start" x="14" y="-19.5" font-family="Helvetica,sans-Serif" font-size="10.00">IEquippable? EquippedItem</text>
<text xml:space="preserve" text-anchor="start" x="4" y="-5" font-family="Helvetica,sans-Serif" font-size="10.00">+</text>
<text xml:space="preserve" text-anchor="start" x="14" y="-5" font-family="Helvetica,sans-Serif" font-size="10.00">Golem(Position startPosition)</text>
<polygon fill="#666666" stroke="#666666" points="0,-45.5 0,-45.5 146.25,-45.5 146.25,-45.5 0,-45.5"/>
<polygon fill="#666666" stroke="#666666" points="0,-16.5 0,-16.5 12,-16.5 12,-16.5 0,-16.5"/>
<polygon fill="#666666" stroke="#666666" points="12,-16.5 12,-16.5 146.25,-16.5 146.25,-16.5 12,-16.5"/>
<polygon fill="none" stroke="#666666" points="0,0 0,-62 146.25,-62 146.25,0 0,0"/>
</a>
</g>
</g>
<!-- Node2 -->
<g id="Node000002" class="node">
<title>Node2</title>
<g id="a_Node000002"><a xlink:href="classRpgGame_1_1Character_1_1Character.html" target="_top" xlink:title="Base abstract class for both playable and non&#45;playable characters.">
<polygon fill="white" stroke="none" points="145.38,-195.5 0.88,-195.5 0.88,-98 145.38,-98 145.38,-195.5"/>
<text xml:space="preserve" text-anchor="start" x="4.88" y="-182" font-family="Helvetica,sans-Serif" font-size="10.00">RpgGame.Character.Character</text>
<text xml:space="preserve" text-anchor="start" x="16.06" y="-167.5" font-family="Helvetica,sans-Serif" font-size="10.00">+</text>
<text xml:space="preserve" text-anchor="start" x="37.25" y="-167.5" font-family="Helvetica,sans-Serif" font-size="10.00">char Symbol</text>
<text xml:space="preserve" text-anchor="start" x="16.06" y="-153" font-family="Helvetica,sans-Serif" font-size="10.00">+</text>
<text xml:space="preserve" text-anchor="start" x="37.25" y="-153" font-family="Helvetica,sans-Serif" font-size="10.00">Position Pos</text>
<text xml:space="preserve" text-anchor="start" x="16.06" y="-138.5" font-family="Helvetica,sans-Serif" font-size="10.00">+</text>
<text xml:space="preserve" text-anchor="start" x="37.25" y="-138.5" font-family="Helvetica,sans-Serif" font-size="10.00">void Move(Position</text>
<text xml:space="preserve" text-anchor="start" x="37.25" y="-128" font-family="Helvetica,sans-Serif" font-size="10.00"> newPos)</text>
<text xml:space="preserve" text-anchor="start" x="16.44" y="-113.5" font-family="Helvetica,sans-Serif" font-size="10.00">#</text>
<text xml:space="preserve" text-anchor="start" x="37.25" y="-113.5" font-family="Helvetica,sans-Serif" font-size="10.00">Character(Position</text>
<text xml:space="preserve" text-anchor="start" x="37.25" y="-103" font-family="Helvetica,sans-Serif" font-size="10.00"> startPosition)</text>
<polygon fill="#666666" stroke="#666666" points="0.88,-179 0.88,-179 145.38,-179 145.38,-179 0.88,-179"/>
<polygon fill="#666666" stroke="#666666" points="0.88,-150 0.88,-150 35.25,-150 35.25,-150 0.88,-150"/>
<polygon fill="#666666" stroke="#666666" points="35.25,-150 35.25,-150 145.38,-150 145.38,-150 35.25,-150"/>
<polygon fill="none" stroke="#666666" points="0.88,-98 0.88,-195.5 145.38,-195.5 145.38,-98 0.88,-98"/>
</a>
</g>
</g>
<!-- Node2&#45;&gt;Node1 -->
<g id="edge1_Node000001_Node000002" class="edge">
<title>Node2&#45;&gt;Node1</title>
<g id="a_edge1_Node000001_Node000002"><a xlink:title=" ">
<path fill="none" stroke="#63b8ff" d="M73.12,-86.83C73.12,-78.18 73.12,-69.59 73.12,-61.87"/>
<polygon fill="none" stroke="#63b8ff" points="69.63,-86.66 73.13,-96.66 76.63,-86.66 69.63,-86.66"/>
</a>
</g>
</g>
</g>
</svg>
