<?xml version="1.0" encoding="UTF-8" standalone="no"?>
<!DOCTYPE svg PUBLIC "-//W3C//DTD SVG 1.1//EN"
 "http://www.w3.org/Graphics/SVG/1.1/DTD/svg11.dtd">
<!-- Generated by graphviz version 13.1.2 (20250808.2320)
 -->
<!-- Title: RpgGame.Input.ControlDescriptor Pages: 1 -->
<svg width="181pt" height="120pt"
 viewBox="0.00 0.00 181.00 120.00" xmlns="http://www.w3.org/2000/svg" xmlns:xlink="http://www.w3.org/1999/xlink">
<g id="graph0" class="graph" transform="scale(1 1) rotate(0) translate(4 116)">
<title>RpgGame.Input.ControlDescriptor</title>
<!-- Node1 -->
<g id="Node000001" class="node">
<title>Node1</title>
<g id="a_Node000001"><a xlink:title="Holds information about a single key binding and a human readable description that can be shown in a ...">
<polygon fill="#999999" stroke="none" points="173.25,-112 0,-112 0,0 173.25,0 173.25,-112"/>
<text xml:space="preserve" text-anchor="start" x="12.38" y="-98.5" font-family="Helvetica,sans-Serif" font-size="10.00">RpgGame.Input.ControlDescriptor</text>
<text xml:space="preserve" text-anchor="start" x="4" y="-84" font-family="Helvetica,sans-Serif" font-size="10.00">+</text>
<text xml:space="preserve" text-anchor="start" x="14" y="-84" font-family="Helvetica,sans-Serif" font-size="10.00">ConsoleKey Key</text>
<text xml:space="preserve" text-anchor="start" x="4" y="-69.5" font-family="Helvetica,sans-Serif" font-size="10.00">+</text>
<text xml:space="preserve" text-anchor="start" x="14" y="-69.5" font-family="Helvetica,sans-Serif" font-size="10.00">ConsoleModifiers Modifiers</text>
<text xml:space="preserve" text-anchor="start" x="4" y="-55" font-family="Helvetica,sans-Serif" font-size="10.00">+</text>
<text xml:space="preserve" text-anchor="start" x="14" y="-55" font-family="Helvetica,sans-Serif" font-size="10.00">string Description</text>
<text xml:space="preserve" text-anchor="start" x="4" y="-40.5" font-family="Helvetica,sans-Serif" font-size="10.00">+</text>
<text xml:space="preserve" text-anchor="start" x="14" y="-40.5" font-family="Helvetica,sans-Serif" font-size="10.00">string DisplayText</text>
<text xml:space="preserve" text-anchor="start" x="4" y="-26" font-family="Helvetica,sans-Serif" font-size="10.00">+</text>
<text xml:space="preserve" text-anchor="start" x="14" y="-26" font-family="Helvetica,sans-Serif" font-size="10.00">ControlDescriptor</text>
<text xml:space="preserve" text-anchor="start" x="14" y="-15.5" font-family="Helvetica,sans-Serif" font-size="10.00">(ConsoleKey key, ConsoleModifiers</text>
<text xml:space="preserve" text-anchor="start" x="14" y="-5" font-family="Helvetica,sans-Serif" font-size="10.00"> modifiers, string description)</text>
<polygon fill="#666666" stroke="#666666" points="0,-95.5 0,-95.5 173.25,-95.5 173.25,-95.5 0,-95.5"/>
<polygon fill="#666666" stroke="#666666" points="0,-37.5 0,-37.5 12,-37.5 12,-37.5 0,-37.5"/>
<polygon fill="#666666" stroke="#666666" points="12,-37.5 12,-37.5 173.25,-37.5 173.25,-37.5 12,-37.5"/>
<polygon fill="none" stroke="#666666" points="0,0 0,-112 173.25,-112 173.25,0 0,0"/>
</a>
</g>
</g>
</g>
</svg>
