<?xml version="1.0" encoding="UTF-8" standalone="no"?>
<!DOCTYPE svg PUBLIC "-//W3C//DTD SVG 1.1//EN"
 "http://www.w3.org/Graphics/SVG/1.1/DTD/svg11.dtd">
<!-- Generated by graphviz version 2.43.0 (0)
 -->
<!-- Title: RpgGame.Input.DropLeftCommand Pages: 1 -->
<svg width="189pt" height="186pt"
 viewBox="0.00 0.00 189.00 186.00" xmlns="http://www.w3.org/2000/svg" xmlns:xlink="http://www.w3.org/1999/xlink">

<svg id="main" version="1.1" xmlns="http://www.w3.org/2000/svg" xmlns:xlink="http://www.w3.org/1999/xlink" xml:space="preserve" onload="init(evt)">
<style type="text/css"><![CDATA[
.node, .edge {opacity: 0.7;}
.node.selected, .edge.selected {opacity: 1;}
.edge:hover path { stroke: red; }
.edge:hover polygon { stroke: red; fill: red; }
]]></style>
<script type="application/ecmascript" xlink:href="svg.min.js"/>
<svg id="graph" class="graph">
<g id="graph0" class="graph" transform="scale(1 1) rotate(0) translate(4 182)">
<title>RpgGame.Input.DropLeftCommand</title>
<!-- Node1 -->
<g id="Node000001" class="node">
<title>Node1</title>
<g id="a_Node000001"><a xlink:title="Instructs the player to drop the item in their left hand onto the level.">
<polygon fill="#999999" stroke="transparent" points="181,-71 0,-71 0,0 181,0 181,-71"/>
<text text-anchor="start" x="5.5" y="-58.5" font-family="Helvetica,sans-Serif" font-size="10.00">RpgGame.Input.DropLeftCommand</text>
<text text-anchor="start" x="89" y="-43.5" font-family="Helvetica,sans-Serif" font-size="10.00"> </text>
<text text-anchor="start" x="14" y="-28.5" font-family="Helvetica,sans-Serif" font-size="10.00">+</text>
<text text-anchor="start" x="36.5" y="-28.5" font-family="Helvetica,sans-Serif" font-size="10.00">int Execute(Level level,</text>
<text text-anchor="start" x="36.5" y="-17.5" font-family="Helvetica,sans-Serif" font-size="10.00"> Player player, Inventory</text>
<text text-anchor="start" x="36.5" y="-6.5" font-family="Helvetica,sans-Serif" font-size="10.00"> inventory)</text>
<polygon fill="#666666" stroke="#666666" points="0.5,-53.5 0.5,-53.5 181.5,-53.5 181.5,-53.5 0.5,-53.5"/>
<polygon fill="#666666" stroke="#666666" points="0.5,-38.5 0.5,-38.5 181.5,-38.5 181.5,-38.5 0.5,-38.5"/>
<polygon fill="none" stroke="#666666" points="0,0 0,-71 181,-71 181,0 0,0"/>
</a>
</g>
</g>
<!-- Node2 -->
<g id="Node000002" class="node">
<title>Node2</title>
<g id="a_Node000002"><a xlink:href="interfaceRpgGame_1_1Input_1_1IInputCommand.html" target="_top" xlink:title="Represents a user input command that manipulates the game state (level, player, inventory) and return...">
<polygon fill="white" stroke="transparent" points="161.5,-178 19.5,-178 19.5,-107 161.5,-107 161.5,-178"/>
<text text-anchor="start" x="51" y="-165.5" font-family="Helvetica,sans-Serif" font-size="10.00">IInputCommand</text>
<text text-anchor="start" x="88.5" y="-150.5" font-family="Helvetica,sans-Serif" font-size="10.00"> </text>
<text text-anchor="start" x="23.5" y="-135.5" font-family="Helvetica,sans-Serif" font-size="10.00">+</text>
<text text-anchor="start" x="36.5" y="-135.5" font-family="Helvetica,sans-Serif" font-size="10.00">int Execute(Level level,</text>
<text text-anchor="start" x="36.5" y="-124.5" font-family="Helvetica,sans-Serif" font-size="10.00"> Player player, Inventory</text>
<text text-anchor="start" x="36.5" y="-113.5" font-family="Helvetica,sans-Serif" font-size="10.00"> inventory)</text>
<polygon fill="#666666" stroke="#666666" points="19.5,-160.5 19.5,-160.5 161.5,-160.5 161.5,-160.5 19.5,-160.5"/>
<polygon fill="#666666" stroke="#666666" points="19.5,-145.5 19.5,-145.5 161.5,-145.5 161.5,-145.5 19.5,-145.5"/>
<polygon fill="none" stroke="#666666" points="19.5,-107 19.5,-178 161.5,-178 161.5,-107 19.5,-107"/>
</a>
</g>
</g>
<!-- Node2&#45;&gt;Node1 -->
<g id="edge1_Node000001_Node000002" class="edge">
<title>Node2&#45;&gt;Node1</title>
<g id="a_edge1_Node000001_Node000002"><a xlink:title=" ">
<path fill="none" stroke="#63b8ff" d="M90.5,-96.62C90.5,-88.09 90.5,-79.29 90.5,-71.14"/>
<polygon fill="none" stroke="#63b8ff" points="87,-96.83 90.5,-106.83 94,-96.83 87,-96.83"/>
</a>
</g>
</g>
</g>
</svg>
</svg>

<style type='text/css'>
<![CDATA[
[data-mouse-over-selected='false'] { opacity: 0.7; }
[data-mouse-over-selected='true']  { opacity: 1.0; }
]]>
</style>
<script type="application/ecmascript"><![CDATA[
document.addEventListener('DOMContentLoaded', (event) => {
  highlightEdges();
  highlightAdjacentNodes();
});
]]></script>
</svg>
