<?xml version="1.0" encoding="UTF-8" standalone="no"?>
<!DOCTYPE svg PUBLIC "-//W3C//DTD SVG 1.1//EN"
 "http://www.w3.org/Graphics/SVG/1.1/DTD/svg11.dtd">
<!-- Generated by graphviz version 2.43.0 (0)
 -->
<!-- Title: RpgGame.Input.MoveUpCommand.Execute Pages: 1 -->
<svg width="803pt" height="73pt"
 viewBox="0.00 0.00 803.00 72.50" xmlns="http://www.w3.org/2000/svg" xmlns:xlink="http://www.w3.org/1999/xlink">
<g id="graph0" class="graph" transform="scale(1 1) rotate(0) translate(4 68.5)">
<title>RpgGame.Input.MoveUpCommand.Execute</title>
<!-- Node1 -->
<g id="Node000001" class="node">
<title>Node1</title>
<g id="a_Node000001"><a xlink:title="Executes the command using provided game objects.Typically 1 to indicate the game should continue,...">
<polygon fill="#999999" stroke="#666666" points="189,-51 0,-51 0,-21 189,-21 189,-51"/>
<text text-anchor="start" x="8" y="-39" font-family="Helvetica,sans-Serif" font-size="10.00">RpgGame.Input.MoveUpCommand.</text>
<text text-anchor="middle" x="94.5" y="-28" font-family="Helvetica,sans-Serif" font-size="10.00">Execute</text>
</a>
</g>
</g>
<!-- Node2 -->
<g id="Node000002" class="node">
<title>Node2</title>
<g id="a_Node000002"><a xlink:href="classRpgGame_1_1Core_1_1Level.html#ad48a7c23cc285da72a157194198e553a" target="_top" xlink:title="Retrieves the tile at the specified coordinates.">
<polygon fill="white" stroke="#666666" points="786,-64.5 628,-64.5 628,-45.5 786,-45.5 786,-64.5"/>
<text text-anchor="middle" x="707" y="-52.5" font-family="Helvetica,sans-Serif" font-size="10.00">RpgGame.Core.Level.GetTile</text>
</a>
</g>
</g>
<!-- Node1&#45;&gt;Node2 -->
<g id="edge1_Node000001_Node000002" class="edge">
<title>Node1&#45;&gt;Node2</title>
<g id="a_edge1_Node000001_Node000002"><a xlink:title=" ">
<path fill="none" stroke="#63b8ff" d="M189.22,-38.92C305.86,-42.55 503.57,-48.7 617.66,-52.25"/>
<polygon fill="#63b8ff" stroke="#63b8ff" points="617.65,-55.75 627.75,-52.56 617.87,-48.76 617.65,-55.75"/>
</a>
</g>
</g>
<!-- Node3 -->
<g id="Node000003" class="node">
<title>Node3</title>
<g id="a_Node000003"><a xlink:href="classRpgGame_1_1Core_1_1Level.html#a069520f8d4f28477ce45023ad97fbd95" target="_top" xlink:title="Attempts to move a character to a new position if the move is valid. Also handles item interactions f...">
<polygon fill="white" stroke="#666666" points="389,-30 225,-30 225,0 389,0 389,-30"/>
<text text-anchor="start" x="233" y="-18" font-family="Helvetica,sans-Serif" font-size="10.00">RpgGame.Core.Level.TryMove</text>
<text text-anchor="middle" x="307" y="-7" font-family="Helvetica,sans-Serif" font-size="10.00">Character</text>
</a>
</g>
</g>
<!-- Node1&#45;&gt;Node3 -->
<g id="edge2_Node000001_Node000003" class="edge">
<title>Node1&#45;&gt;Node3</title>
<g id="a_edge2_Node000001_Node000003"><a xlink:title=" ">
<path fill="none" stroke="#63b8ff" d="M189.05,-26.67C197.66,-25.81 206.36,-24.94 214.94,-24.08"/>
<polygon fill="#63b8ff" stroke="#63b8ff" points="215.34,-27.56 224.94,-23.09 214.65,-20.6 215.34,-27.56"/>
</a>
</g>
</g>
<!-- Node4 -->
<g id="Node000004" class="node">
<title>Node4</title>
<g id="a_Node000004"><a xlink:href="classRpgGame_1_1Core_1_1Level.html#af9e6a4b820c77f9390aed74bdc0f1c8a" target="_top" xlink:title="Determines whether a character can move to the specified position.">
<polygon fill="white" stroke="#666666" points="583,-30 425,-30 425,0 583,0 583,-30"/>
<text text-anchor="start" x="433" y="-18" font-family="Helvetica,sans-Serif" font-size="10.00">RpgGame.Core.Level.IsMove</text>
<text text-anchor="middle" x="504" y="-7" font-family="Helvetica,sans-Serif" font-size="10.00">Valid</text>
</a>
</g>
</g>
<!-- Node3&#45;&gt;Node4 -->
<g id="edge3_Node000003_Node000004" class="edge">
<title>Node3&#45;&gt;Node4</title>
<g id="a_edge3_Node000003_Node000004"><a xlink:title=" ">
<path fill="none" stroke="#63b8ff" d="M389,-15C397.5,-15 406.17,-15 414.75,-15"/>
<polygon fill="#63b8ff" stroke="#63b8ff" points="414.75,-18.5 424.75,-15 414.75,-11.5 414.75,-18.5"/>
</a>
</g>
</g>
<!-- Node4&#45;&gt;Node2 -->
<g id="edge4_Node000004_Node000002" class="edge">
<title>Node4&#45;&gt;Node2</title>
<g id="a_edge4_Node000004_Node000002"><a xlink:title=" ">
<path fill="none" stroke="#63b8ff" d="M580.42,-30.01C602.82,-34.47 626.99,-39.28 648.1,-43.48"/>
<polygon fill="#63b8ff" stroke="#63b8ff" points="647.7,-46.97 658.19,-45.49 649.06,-40.1 647.7,-46.97"/>
</a>
</g>
</g>
<!-- Node5 -->
<g id="Node000005" class="node">
<title>Node5</title>
<g id="a_Node000005"><a xlink:href="classRpgGame_1_1Core_1_1Level.html#a29d79bf5cda2e96ca6e823f9d5772db0" target="_top" xlink:title="Checks whether the specified position lies within the level boundaries.">
<polygon fill="white" stroke="#666666" points="795,-24.5 619,-24.5 619,-5.5 795,-5.5 795,-24.5"/>
<text text-anchor="middle" x="707" y="-12.5" font-family="Helvetica,sans-Serif" font-size="10.00">RpgGame.Core.Level.IsInBounds</text>
</a>
</g>
</g>
<!-- Node4&#45;&gt;Node5 -->
<g id="edge5_Node000004_Node000005" class="edge">
<title>Node4&#45;&gt;Node5</title>
<g id="a_edge5_Node000004_Node000005"><a xlink:title=" ">
<path fill="none" stroke="#63b8ff" d="M583.29,-15C591.69,-15 600.3,-15 608.88,-15"/>
<polygon fill="#63b8ff" stroke="#63b8ff" points="608.93,-18.5 618.93,-15 608.93,-11.5 608.93,-18.5"/>
</a>
</g>
</g>
</g>
</svg>
