<?xml version="1.0" encoding="UTF-8" standalone="no"?>
<!DOCTYPE svg PUBLIC "-//W3C//DTD SVG 1.1//EN"
 "http://www.w3.org/Graphics/SVG/1.1/DTD/svg11.dtd">
<!-- Generated by graphviz version 2.43.0 (0)
 -->
<!-- Title: RpgGame.Items.OneHandOccupation Pages: 1 -->
<svg width="200pt" height="216pt"
 viewBox="0.00 0.00 200.00 216.00" xmlns="http://www.w3.org/2000/svg" xmlns:xlink="http://www.w3.org/1999/xlink">
<g id="graph0" class="graph" transform="scale(1 1) rotate(0) translate(4 212)">
<title>RpgGame.Items.OneHandOccupation</title>
<!-- Node1 -->
<g id="Node000001" class="node">
<title>Node1</title>
<g id="a_Node000001"><a xlink:title="Represents a hand occupation strategy for one&#45;handed equipment.">
<polygon fill="#999999" stroke="transparent" points="192,-86 0,-86 0,0 192,0 192,-86"/>
<text text-anchor="start" x="5" y="-74" font-family="Helvetica,sans-Serif" font-size="10.00">RpgGame.Items.OneHandOccupation</text>
<text text-anchor="start" x="94" y="-59" font-family="Helvetica,sans-Serif" font-size="10.00"> </text>
<text text-anchor="start" x="6.5" y="-44" font-family="Helvetica,sans-Serif" font-size="10.00">+</text>
<text text-anchor="start" x="22" y="-44" font-family="Helvetica,sans-Serif" font-size="10.00">override bool EquipLeft</text>
<text text-anchor="start" x="22" y="-33" font-family="Helvetica,sans-Serif" font-size="10.00">(Player player, IEquippable item)</text>
<text text-anchor="start" x="6.5" y="-18" font-family="Helvetica,sans-Serif" font-size="10.00">+</text>
<text text-anchor="start" x="22" y="-18" font-family="Helvetica,sans-Serif" font-size="10.00">override bool EquipRight</text>
<text text-anchor="start" x="22" y="-7" font-family="Helvetica,sans-Serif" font-size="10.00">(Player player, IEquippable item)</text>
<polygon fill="#666666" stroke="#666666" points="0,-69 0,-69 192,-69 192,-69 0,-69"/>
<polygon fill="#666666" stroke="#666666" points="0,-54 0,-54 192,-54 192,-54 0,-54"/>
<polygon fill="none" stroke="#666666" points="0,0 0,-86 192,-86 192,0 0,0"/>
</a>
</g>
</g>
<!-- Node2 -->
<g id="Node000002" class="node">
<title>Node2</title>
<g id="a_Node000002"><a xlink:href="classRpgGame_1_1Items_1_1HandOccupation.html" target="_top" xlink:title="Defines the strategy for how an equippable item occupies the player&#39;s hands.">
<polygon fill="white" stroke="transparent" points="170,-208 22,-208 22,-122 170,-122 170,-208"/>
<text text-anchor="start" x="55.5" y="-196" font-family="Helvetica,sans-Serif" font-size="10.00">HandOccupation</text>
<text text-anchor="start" x="94" y="-181" font-family="Helvetica,sans-Serif" font-size="10.00"> </text>
<text text-anchor="start" x="26" y="-166" font-family="Helvetica,sans-Serif" font-size="10.00">+</text>
<text text-anchor="start" x="39" y="-166" font-family="Helvetica,sans-Serif" font-size="10.00">bool EquipLeft(Player</text>
<text text-anchor="start" x="39" y="-155" font-family="Helvetica,sans-Serif" font-size="10.00"> player, IEquippable item)</text>
<text text-anchor="start" x="26" y="-140" font-family="Helvetica,sans-Serif" font-size="10.00">+</text>
<text text-anchor="start" x="39" y="-140" font-family="Helvetica,sans-Serif" font-size="10.00">bool EquipRight(Player</text>
<text text-anchor="start" x="39" y="-129" font-family="Helvetica,sans-Serif" font-size="10.00"> player, IEquippable item)</text>
<polygon fill="#666666" stroke="#666666" points="22,-191 22,-191 170,-191 170,-191 22,-191"/>
<polygon fill="#666666" stroke="#666666" points="22,-176 22,-176 170,-176 170,-176 22,-176"/>
<polygon fill="none" stroke="#666666" points="22,-122 22,-208 170,-208 170,-122 22,-122"/>
</a>
</g>
</g>
<!-- Node2&#45;&gt;Node1 -->
<g id="edge1_Node000001_Node000002" class="edge">
<title>Node2&#45;&gt;Node1</title>
<g id="a_edge1_Node000001_Node000002"><a xlink:title=" ">
<path fill="none" stroke="#63b8ff" d="M96,-111.55C96,-103.12 96,-94.49 96,-86.33"/>
<polygon fill="none" stroke="#63b8ff" points="92.5,-111.69 96,-121.69 99.5,-111.69 92.5,-111.69"/>
</a>
</g>
</g>
</g>
</svg>
