<?xml version="1.0" encoding="UTF-8" standalone="no"?>
<!DOCTYPE svg PUBLIC "-//W3C//DTD SVG 1.1//EN"
 "http://www.w3.org/Graphics/SVG/1.1/DTD/svg11.dtd">
<!-- Generated by graphviz version 2.43.0 (0)
 -->
<!-- Title: RpgGame.Generation.MapSpawnHelper.SpawnSwordAsync Pages: 1 -->
<svg width="410pt" height="86pt"
 viewBox="0.00 0.00 410.00 86.00" xmlns="http://www.w3.org/2000/svg" xmlns:xlink="http://www.w3.org/1999/xlink">
<g id="graph0" class="graph" transform="scale(1 1) rotate(0) translate(4 82)">
<title>RpgGame.Generation.MapSpawnHelper.SpawnSwordAsync</title>
<!-- Node1 -->
<g id="Node000001" class="node">
<title>Node1</title>
<g id="a_Node000001"><a xlink:title="Convenience wrapper that spawns one&#45;handed swords.">
<polygon fill="#999999" stroke="#666666" points="402,-54 224,-54 224,-24 402,-24 402,-54"/>
<text text-anchor="start" x="232" y="-42" font-family="Helvetica,sans-Serif" font-size="10.00">RpgGame.Generation.MapSpawn</text>
<text text-anchor="middle" x="313" y="-31" font-family="Helvetica,sans-Serif" font-size="10.00">Helper.SpawnSwordAsync</text>
</a>
</g>
</g>
<!-- Node2 -->
<g id="Node000002" class="node">
<title>Node2</title>
<g id="a_Node000002"><a xlink:href="classRpgGame_1_1Generation_1_1Procedures_1_1AddWeaponsProcedure.html#a54e6c7a681a868a88538a89f75f6f01f" target="_top" xlink:title="Applies the weapon spawning to the level.">
<polygon fill="white" stroke="#666666" points="188,-78 0,-78 0,-48 188,-48 188,-78"/>
<text text-anchor="start" x="8" y="-66" font-family="Helvetica,sans-Serif" font-size="10.00">RpgGame.Generation.Procedures.</text>
<text text-anchor="middle" x="94" y="-55" font-family="Helvetica,sans-Serif" font-size="10.00">AddWeaponsProcedure.ApplyAsync</text>
</a>
</g>
</g>
<!-- Node1&#45;&gt;Node2 -->
<g id="edge1_Node000001_Node000002" class="edge">
<title>Node1&#45;&gt;Node2</title>
<g id="a_edge1_Node000001_Node000002"><a xlink:title=" ">
<path fill="none" stroke="#63b8ff" d="M213.77,-49.86C205.24,-50.81 196.62,-51.76 188.13,-52.7"/>
<polygon fill="#63b8ff" stroke="#63b8ff" points="214.18,-53.34 223.74,-48.76 213.41,-46.38 214.18,-53.34"/>
</a>
</g>
</g>
<!-- Node3 -->
<g id="Node000003" class="node">
<title>Node3</title>
<g id="a_Node000003"><a xlink:href="classRpgGame_1_1Generation_1_1SimpleRoomGenerator.html#a8caf609eb1559582bff3d5f1f4c28f64" target="_top" xlink:title="Asynchronously generates the level; uses the new async spawn helpers to perform item placement withou...">
<polygon fill="white" stroke="#666666" points="179,-30 9,-30 9,0 179,0 179,-30"/>
<text text-anchor="start" x="17" y="-18" font-family="Helvetica,sans-Serif" font-size="10.00">RpgGame.Generation.Simple</text>
<text text-anchor="middle" x="94" y="-7" font-family="Helvetica,sans-Serif" font-size="10.00">RoomGenerator.GenerateAsync</text>
</a>
</g>
</g>
<!-- Node1&#45;&gt;Node3 -->
<g id="edge2_Node000001_Node000003" class="edge">
<title>Node1&#45;&gt;Node3</title>
<g id="a_edge2_Node000001_Node000003"><a xlink:title=" ">
<path fill="none" stroke="#63b8ff" d="M213.7,-28.13C202.22,-26.86 190.59,-25.57 179.32,-24.33"/>
<polygon fill="#63b8ff" stroke="#63b8ff" points="213.41,-31.62 223.74,-29.24 214.18,-24.66 213.41,-31.62"/>
</a>
</g>
</g>
</g>
</svg>
