<?xml version="1.0" encoding="UTF-8" standalone="no"?>
<!DOCTYPE svg PUBLIC "-//W3C//DTD SVG 1.1//EN"
 "http://www.w3.org/Graphics/SVG/1.1/DTD/svg11.dtd">
<!-- Generated by graphviz version 13.1.2 (20250808.2320)
 -->
<!-- Title: RpgGame.Input.MoveUpCommand.Execute Pages: 1 -->
<svg width="928pt" height="101pt"
 viewBox="0.00 0.00 928.00 101.00" xmlns="http://www.w3.org/2000/svg" xmlns:xlink="http://www.w3.org/1999/xlink">
<g id="graph0" class="graph" transform="scale(1 1) rotate(0) translate(4 96.5)">
<title>RpgGame.Input.MoveUpCommand.Execute</title>
<!-- Node1 -->
<g id="Node000001" class="node">
<title>Node1</title>
<g id="a_Node000001"><a xlink:title="Executes the command using provided game objects.Typically 1 to indicate the game should continue,...">
<polygon fill="#999999" stroke="#666666" points="172,-75.75 0,-75.75 0,-46.75 172,-46.75 172,-75.75"/>
<text xml:space="preserve" text-anchor="start" x="8" y="-62.25" font-family="Helvetica,sans-Serif" font-size="10.00">RpgGame.Input.MoveUpCommand.</text>
<text xml:space="preserve" text-anchor="middle" x="86" y="-51.75" font-family="Helvetica,sans-Serif" font-size="10.00">Execute</text>
</a>
</g>
</g>
<!-- Node2 -->
<g id="Node000002" class="node">
<title>Node2</title>
<g id="a_Node000002"><a xlink:href="classRpgGame_1_1Core_1_1Level.html#ad48a7c23cc285da72a157194198e553a" target="_top" xlink:title="Retrieves the tile at the specified coordinates.">
<polygon fill="white" stroke="#666666" points="730,-92.5 585,-92.5 585,-74 730,-74 730,-92.5"/>
<text xml:space="preserve" text-anchor="middle" x="657.5" y="-79" font-family="Helvetica,sans-Serif" font-size="10.00">RpgGame.Core.Level.GetTile</text>
</a>
</g>
</g>
<!-- Node1&#45;&gt;Node2 -->
<g id="edge1_Node000001_Node000002" class="edge">
<title>Node1&#45;&gt;Node2</title>
<g id="a_edge1_Node000001_Node000002"><a xlink:title=" ">
<path fill="none" stroke="#63b8ff" d="M172.26,-64.54C280.49,-68.72 465.98,-75.89 573.25,-80.03"/>
<polygon fill="#63b8ff" stroke="#63b8ff" points="573.01,-83.53 583.14,-80.42 573.28,-76.53 573.01,-83.53"/>
</a>
</g>
</g>
<!-- Node3 -->
<g id="Node000003" class="node">
<title>Node3</title>
<g id="a_Node000003"><a xlink:href="classRpgGame_1_1Core_1_1Level.html#a069520f8d4f28477ce45023ad97fbd95" target="_top" xlink:title="Attempts to move a character to a new position if the move is valid. Also handles item interactions f...">
<polygon fill="white" stroke="#666666" points="359,-54.75 208,-54.75 208,-25.75 359,-25.75 359,-54.75"/>
<text xml:space="preserve" text-anchor="start" x="216" y="-41.25" font-family="Helvetica,sans-Serif" font-size="10.00">RpgGame.Core.Level.TryMove</text>
<text xml:space="preserve" text-anchor="middle" x="283.5" y="-30.75" font-family="Helvetica,sans-Serif" font-size="10.00">Character</text>
</a>
</g>
</g>
<!-- Node1&#45;&gt;Node3 -->
<g id="edge2_Node000001_Node000003" class="edge">
<title>Node1&#45;&gt;Node3</title>
<g id="a_edge2_Node000001_Node000003"><a xlink:title=" ">
<path fill="none" stroke="#63b8ff" d="M172.46,-52.07C180.33,-51.22 188.31,-50.37 196.19,-49.52"/>
<polygon fill="#63b8ff" stroke="#63b8ff" points="196.56,-53 206.13,-48.45 195.81,-46.04 196.56,-53"/>
</a>
</g>
</g>
<!-- Node4 -->
<g id="Node000004" class="node">
<title>Node4</title>
<g id="a_Node000004"><a xlink:href="classRpgGame_1_1Core_1_1Level.html#af9e6a4b820c77f9390aed74bdc0f1c8a" target="_top" xlink:title="Determines whether a character can move to the specified position.">
<polygon fill="white" stroke="#666666" points="540,-54.75 395,-54.75 395,-25.75 540,-25.75 540,-54.75"/>
<text xml:space="preserve" text-anchor="start" x="403" y="-41.25" font-family="Helvetica,sans-Serif" font-size="10.00">RpgGame.Core.Level.IsMove</text>
<text xml:space="preserve" text-anchor="middle" x="467.5" y="-30.75" font-family="Helvetica,sans-Serif" font-size="10.00">Valid</text>
</a>
</g>
</g>
<!-- Node3&#45;&gt;Node4 -->
<g id="edge3_Node000003_Node000004" class="edge">
<title>Node3&#45;&gt;Node4</title>
<g id="a_edge3_Node000003_Node000004"><a xlink:title=" ">
<path fill="none" stroke="#63b8ff" d="M359.31,-40.25C367.24,-40.25 375.34,-40.25 383.36,-40.25"/>
<polygon fill="#63b8ff" stroke="#63b8ff" points="383.1,-43.75 393.1,-40.25 383.1,-36.75 383.1,-43.75"/>
</a>
</g>
</g>
<!-- Node6 -->
<g id="Node000006" class="node">
<title>Node6</title>
<g id="a_Node000006"><a xlink:href="namespaceRpgGame_1_1Character.html#ab2e6f640f8bfc682c50e3c19e0d417f1" target="_top" xlink:title="A record for tracking the position of Characters, Items, and Tiles if needed.">
<polygon fill="white" stroke="#666666" points="920,-18.5 775,-18.5 775,0 920,0 920,-18.5"/>
<text xml:space="preserve" text-anchor="middle" x="847.5" y="-5" font-family="Helvetica,sans-Serif" font-size="10.00">RpgGame.Character.Position</text>
</a>
</g>
</g>
<!-- Node3&#45;&gt;Node6 -->
<g id="edge9_Node000003_Node000006" class="edge">
<title>Node3&#45;&gt;Node6</title>
<g id="a_edge9_Node000003_Node000006"><a xlink:title=" ">
<path fill="none" stroke="#63b8ff" d="M346.71,-25.29C362.38,-22.07 379.24,-19.09 395,-17.25 522.88,-2.3 672.49,-3.24 763.33,-5.83"/>
<polygon fill="#63b8ff" stroke="#63b8ff" points="763.04,-9.32 773.14,-6.13 763.25,-2.33 763.04,-9.32"/>
</a>
</g>
</g>
<!-- Node4&#45;&gt;Node2 -->
<g id="edge4_Node000004_Node000002" class="edge">
<title>Node4&#45;&gt;Node2</title>
<g id="a_edge4_Node000004_Node000002"><a xlink:title=" ">
<path fill="none" stroke="#63b8ff" d="M533.99,-55.23C556.45,-60.37 581.3,-66.05 602.72,-70.95"/>
<polygon fill="#63b8ff" stroke="#63b8ff" points="601.9,-74.35 612.43,-73.17 603.46,-67.53 601.9,-74.35"/>
</a>
</g>
</g>
<!-- Node5 -->
<g id="Node000005" class="node">
<title>Node5</title>
<g id="a_Node000005"><a xlink:href="classRpgGame_1_1Core_1_1Level.html#a29d79bf5cda2e96ca6e823f9d5772db0" target="_top" xlink:title="Checks whether the specified position lies within the level boundaries.">
<polygon fill="white" stroke="#666666" points="739,-55.5 576,-55.5 576,-37 739,-37 739,-55.5"/>
<text xml:space="preserve" text-anchor="middle" x="657.5" y="-42" font-family="Helvetica,sans-Serif" font-size="10.00">RpgGame.Core.Level.IsInBounds</text>
</a>
</g>
</g>
<!-- Node4&#45;&gt;Node5 -->
<g id="edge5_Node000004_Node000005" class="edge">
<title>Node4&#45;&gt;Node5</title>
<g id="a_edge5_Node000004_Node000005"><a xlink:title=" ">
<path fill="none" stroke="#63b8ff" d="M540.38,-42.54C548.2,-42.79 556.24,-43.05 564.26,-43.31"/>
<polygon fill="#63b8ff" stroke="#63b8ff" points="563.94,-46.8 574.05,-43.62 564.16,-39.8 563.94,-46.8"/>
</a>
</g>
</g>
<!-- Node4&#45;&gt;Node6 -->
<g id="edge8_Node000004_Node000006" class="edge">
<title>Node4&#45;&gt;Node6</title>
<g id="a_edge8_Node000004_Node000006"><a xlink:title=" ">
<path fill="none" stroke="#63b8ff" d="M540.45,-31.81C552.32,-30.53 564.5,-29.3 576,-28.25 638.68,-22.55 709.66,-17.62 763.19,-14.22"/>
<polygon fill="#63b8ff" stroke="#63b8ff" points="763.41,-17.71 773.16,-13.59 762.96,-10.72 763.41,-17.71"/>
</a>
</g>
</g>
<!-- Node5&#45;&gt;Node6 -->
<g id="edge6_Node000005_Node000006" class="edge">
<title>Node5&#45;&gt;Node6</title>
<g id="a_edge6_Node000005_Node000006"><a xlink:title=" ">
<path fill="none" stroke="#63b8ff" d="M707.89,-36.53C731.76,-31.83 760.63,-26.15 785.82,-21.19"/>
<polygon fill="#63b8ff" stroke="#63b8ff" points="786.49,-24.63 795.62,-19.26 785.14,-17.76 786.49,-24.63"/>
</a>
</g>
</g>
<!-- Node6&#45;&gt;Node6 -->
<g id="edge7_Node000006_Node000006" class="edge">
<title>Node6&#45;&gt;Node6</title>
<g id="a_edge7_Node000006_Node000006"><a xlink:title=" ">
<path fill="none" stroke="#63b8ff" d="M818.22,-18.75C803.97,-27.32 813.73,-36.5 847.5,-36.5 867.55,-36.5 879.14,-33.26 882.26,-28.84"/>
<polygon fill="#63b8ff" stroke="#63b8ff" points="885.35,-27.2 877.51,-20.08 879.2,-30.53 885.35,-27.2"/>
</a>
</g>
</g>
</g>
</svg>
