<?xml version="1.0" encoding="UTF-8" standalone="no"?>
<!DOCTYPE svg PUBLIC "-//W3C//DTD SVG 1.1//EN"
 "http://www.w3.org/Graphics/SVG/1.1/DTD/svg11.dtd">
<!-- Generated by graphviz version 2.43.0 (0)
 -->
<!-- Title: RpgGame.Items.TwoHandOccupation Pages: 1 -->
<svg width="199pt" height="216pt"
 viewBox="0.00 0.00 199.00 216.00" xmlns="http://www.w3.org/2000/svg" xmlns:xlink="http://www.w3.org/1999/xlink">
<g id="graph0" class="graph" transform="scale(1 1) rotate(0) translate(4 212)">
<title>RpgGame.Items.TwoHandOccupation</title>
<!-- Node1 -->
<g id="Node000001" class="node">
<title>Node1</title>
<g id="a_Node000001"><a xlink:title="Represents a hand occupation strategy for two&#45;handed equipment.">
<polygon fill="#999999" stroke="transparent" points="191,-86 0,-86 0,0 191,0 191,-86"/>
<text text-anchor="start" x="5.5" y="-74" font-family="Helvetica,sans-Serif" font-size="10.00">RpgGame.Items.TwoHandOccupation</text>
<text text-anchor="start" x="94" y="-59" font-family="Helvetica,sans-Serif" font-size="10.00"> </text>
<text text-anchor="start" x="6.5" y="-44" font-family="Helvetica,sans-Serif" font-size="10.00">+</text>
<text text-anchor="start" x="21.5" y="-44" font-family="Helvetica,sans-Serif" font-size="10.00">override bool EquipLeft</text>
<text text-anchor="start" x="21.5" y="-33" font-family="Helvetica,sans-Serif" font-size="10.00">(Player player, IEquippable item)</text>
<text text-anchor="start" x="6.5" y="-18" font-family="Helvetica,sans-Serif" font-size="10.00">+</text>
<text text-anchor="start" x="21.5" y="-18" font-family="Helvetica,sans-Serif" font-size="10.00">override bool EquipRight</text>
<text text-anchor="start" x="21.5" y="-7" font-family="Helvetica,sans-Serif" font-size="10.00">(Player player, IEquippable item)</text>
<polygon fill="#666666" stroke="#666666" points="0.5,-69 0.5,-69 191.5,-69 191.5,-69 0.5,-69"/>
<polygon fill="#666666" stroke="#666666" points="0.5,-54 0.5,-54 191.5,-54 191.5,-54 0.5,-54"/>
<polygon fill="none" stroke="#666666" points="0,0 0,-86 191,-86 191,0 0,0"/>
</a>
</g>
</g>
<!-- Node2 -->
<g id="Node000002" class="node">
<title>Node2</title>
<g id="a_Node000002"><a xlink:href="classRpgGame_1_1Items_1_1HandOccupation.html" target="_top" xlink:title="Defines the strategy for how an equippable item occupies the player&#39;s hands.">
<polygon fill="white" stroke="transparent" points="169.5,-208 21.5,-208 21.5,-122 169.5,-122 169.5,-208"/>
<text text-anchor="start" x="55" y="-196" font-family="Helvetica,sans-Serif" font-size="10.00">HandOccupation</text>
<text text-anchor="start" x="93.5" y="-181" font-family="Helvetica,sans-Serif" font-size="10.00"> </text>
<text text-anchor="start" x="25.5" y="-166" font-family="Helvetica,sans-Serif" font-size="10.00">+</text>
<text text-anchor="start" x="38.5" y="-166" font-family="Helvetica,sans-Serif" font-size="10.00">bool EquipLeft(Player</text>
<text text-anchor="start" x="38.5" y="-155" font-family="Helvetica,sans-Serif" font-size="10.00"> player, IEquippable item)</text>
<text text-anchor="start" x="25.5" y="-140" font-family="Helvetica,sans-Serif" font-size="10.00">+</text>
<text text-anchor="start" x="38.5" y="-140" font-family="Helvetica,sans-Serif" font-size="10.00">bool EquipRight(Player</text>
<text text-anchor="start" x="38.5" y="-129" font-family="Helvetica,sans-Serif" font-size="10.00"> player, IEquippable item)</text>
<polygon fill="#666666" stroke="#666666" points="21.5,-191 21.5,-191 169.5,-191 169.5,-191 21.5,-191"/>
<polygon fill="#666666" stroke="#666666" points="21.5,-176 21.5,-176 169.5,-176 169.5,-176 21.5,-176"/>
<polygon fill="none" stroke="#666666" points="21.5,-122 21.5,-208 169.5,-208 169.5,-122 21.5,-122"/>
</a>
</g>
</g>
<!-- Node2&#45;&gt;Node1 -->
<g id="edge1_Node000001_Node000002" class="edge">
<title>Node2&#45;&gt;Node1</title>
<g id="a_edge1_Node000001_Node000002"><a xlink:title=" ">
<path fill="none" stroke="#63b8ff" d="M95.5,-111.55C95.5,-103.12 95.5,-94.49 95.5,-86.33"/>
<polygon fill="none" stroke="#63b8ff" points="92,-111.69 95.5,-121.69 99,-111.69 92,-111.69"/>
</a>
</g>
</g>
</g>
</svg>
