<?xml version="1.0" encoding="UTF-8" standalone="no"?>
<!DOCTYPE svg PUBLIC "-//W3C//DTD SVG 1.1//EN"
 "http://www.w3.org/Graphics/SVG/1.1/DTD/svg11.dtd">
<!-- Generated by graphviz version 2.43.0 (0)
 -->
<!-- Title: RpgGame.Generation.Procedures.FilledDungeonProcedure Pages: 1 -->
<svg width="184pt" height="197pt"
 viewBox="0.00 0.00 184.00 197.00" xmlns="http://www.w3.org/2000/svg" xmlns:xlink="http://www.w3.org/1999/xlink">
<g id="graph0" class="graph" transform="scale(1 1) rotate(0) translate(4 193)">
<title>RpgGame.Generation.Procedures.FilledDungeonProcedure</title>
<!-- Node1 -->
<g id="Node000001" class="node">
<title>Node1</title>
<g id="a_Node000001"><a xlink:title="Fills the entire dungeon with wall tiles, creating a solid base for carving.">
<polygon fill="#999999" stroke="transparent" points="176,-82 0,-82 0,0 176,0 176,-82"/>
<text text-anchor="start" x="5" y="-70" font-family="Helvetica,sans-Serif" font-size="10.00">RpgGame.Generation.Procedures.</text>
<text text-anchor="start" x="28.5" y="-59" font-family="Helvetica,sans-Serif" font-size="10.00">FilledDungeonProcedure</text>
<text text-anchor="start" x="86" y="-44" font-family="Helvetica,sans-Serif" font-size="10.00"> </text>
<text text-anchor="start" x="14" y="-29" font-family="Helvetica,sans-Serif" font-size="10.00">+</text>
<text text-anchor="start" x="37" y="-29" font-family="Helvetica,sans-Serif" font-size="10.00">Task ApplyAsync(Level</text>
<text text-anchor="start" x="37" y="-18" font-family="Helvetica,sans-Serif" font-size="10.00"> level, DungeonContext</text>
<text text-anchor="start" x="37" y="-7" font-family="Helvetica,sans-Serif" font-size="10.00"> context)</text>
<polygon fill="#666666" stroke="#666666" points="0,-54 0,-54 176,-54 176,-54 0,-54"/>
<polygon fill="#666666" stroke="#666666" points="0,-39 0,-39 176,-39 176,-39 0,-39"/>
<polygon fill="none" stroke="#666666" points="0,0 0,-82 176,-82 176,0 0,0"/>
</a>
</g>
</g>
<!-- Node2 -->
<g id="Node000002" class="node">
<title>Node2</title>
<g id="a_Node000002"><a xlink:href="interfaceRpgGame_1_1Generation_1_1IDungeonProcedure.html" target="_top" xlink:title="Defines a procedural step in dungeon generation.">
<polygon fill="white" stroke="transparent" points="156,-189 20,-189 20,-118 156,-118 156,-189"/>
<text text-anchor="start" x="40" y="-176.5" font-family="Helvetica,sans-Serif" font-size="10.00">IDungeonProcedure</text>
<text text-anchor="start" x="86" y="-161.5" font-family="Helvetica,sans-Serif" font-size="10.00"> </text>
<text text-anchor="start" x="24" y="-146.5" font-family="Helvetica,sans-Serif" font-size="10.00">+</text>
<text text-anchor="start" x="37" y="-146.5" font-family="Helvetica,sans-Serif" font-size="10.00">Task ApplyAsync(Level</text>
<text text-anchor="start" x="37" y="-135.5" font-family="Helvetica,sans-Serif" font-size="10.00"> level, DungeonContext</text>
<text text-anchor="start" x="37" y="-124.5" font-family="Helvetica,sans-Serif" font-size="10.00"> context)</text>
<polygon fill="#666666" stroke="#666666" points="20,-171.5 20,-171.5 156,-171.5 156,-171.5 20,-171.5"/>
<polygon fill="#666666" stroke="#666666" points="20,-156.5 20,-156.5 156,-156.5 156,-156.5 20,-156.5"/>
<polygon fill="none" stroke="#666666" points="20,-118 20,-189 156,-189 156,-118 20,-118"/>
</a>
</g>
</g>
<!-- Node2&#45;&gt;Node1 -->
<g id="edge1_Node000001_Node000002" class="edge">
<title>Node2&#45;&gt;Node1</title>
<g id="a_edge1_Node000001_Node000002"><a xlink:title=" ">
<path fill="none" stroke="#63b8ff" d="M88,-107.79C88,-99.37 88,-90.61 88,-82.33"/>
<polygon fill="none" stroke="#63b8ff" points="84.5,-107.84 88,-117.84 91.5,-107.84 84.5,-107.84"/>
</a>
</g>
</g>
</g>
</svg>
