<?xml version="1.0" encoding="UTF-8" standalone="no"?>
<!DOCTYPE svg PUBLIC "-//W3C//DTD SVG 1.1//EN"
 "http://www.w3.org/Graphics/SVG/1.1/DTD/svg11.dtd">
<!-- Generated by graphviz version 2.43.0 (0)
 -->
<!-- Title: RpgGame.Items.Modifiers.WeaponModifierDecorator Pages: 1 -->
<svg width="204pt" height="969pt"
 viewBox="0.00 0.00 204.00 969.00" xmlns="http://www.w3.org/2000/svg" xmlns:xlink="http://www.w3.org/1999/xlink">
<g id="graph0" class="graph" transform="scale(1 1) rotate(0) translate(4 965)">
<title>RpgGame.Items.Modifiers.WeaponModifierDecorator</title>
<!-- Node1 -->
<g id="Node000001" class="node">
<title>Node1</title>
<g id="a_Node000001"><a xlink:title="Decorator base for Weapon stacks: forwards most behavior to an inner IEquippable while allowing subcl...">
<polygon fill="#999999" stroke="transparent" points="196,-439 0,-439 0,0 196,0 196,-439"/>
<text text-anchor="start" x="33" y="-426.5" font-family="Helvetica,sans-Serif" font-size="10.00">RpgGame.Items.Modifiers.</text>
<text text-anchor="start" x="34.5" y="-415.5" font-family="Helvetica,sans-Serif" font-size="10.00">WeaponModifierDecorator</text>
<text text-anchor="start" x="4" y="-400.5" font-family="Helvetica,sans-Serif" font-size="10.00">+</text>
<text text-anchor="start" x="17" y="-400.5" font-family="Helvetica,sans-Serif" font-size="10.00">IEquippable Inner</text>
<text text-anchor="start" x="4" y="-385.5" font-family="Helvetica,sans-Serif" font-size="10.00">+</text>
<text text-anchor="start" x="17" y="-385.5" font-family="Helvetica,sans-Serif" font-size="10.00">string Name</text>
<text text-anchor="start" x="4" y="-370.5" font-family="Helvetica,sans-Serif" font-size="10.00">+</text>
<text text-anchor="start" x="17" y="-370.5" font-family="Helvetica,sans-Serif" font-size="10.00">virtual char Symbol</text>
<text text-anchor="start" x="4" y="-355.5" font-family="Helvetica,sans-Serif" font-size="10.00">+</text>
<text text-anchor="start" x="17" y="-355.5" font-family="Helvetica,sans-Serif" font-size="10.00">virtual ConsoleColor</text>
<text text-anchor="start" x="17" y="-344.5" font-family="Helvetica,sans-Serif" font-size="10.00"> color</text>
<text text-anchor="start" x="4" y="-329.5" font-family="Helvetica,sans-Serif" font-size="10.00">+</text>
<text text-anchor="start" x="17" y="-329.5" font-family="Helvetica,sans-Serif" font-size="10.00">virtual int Damage</text>
<text text-anchor="start" x="4" y="-314.5" font-family="Helvetica,sans-Serif" font-size="10.00">+</text>
<text text-anchor="start" x="17" y="-314.5" font-family="Helvetica,sans-Serif" font-size="10.00">virtual int Defense</text>
<text text-anchor="start" x="4" y="-299.5" font-family="Helvetica,sans-Serif" font-size="10.00">+</text>
<text text-anchor="start" x="17" y="-299.5" font-family="Helvetica,sans-Serif" font-size="10.00">virtual void AcceptCombat</text>
<text text-anchor="start" x="17" y="-288.5" font-family="Helvetica,sans-Serif" font-size="10.00">Strike(ICombatAttack attack,</text>
<text text-anchor="start" x="17" y="-277.5" font-family="Helvetica,sans-Serif" font-size="10.00"> Player player, ICombatContribution</text>
<text text-anchor="start" x="17" y="-266.5" font-family="Helvetica,sans-Serif" font-size="10.00"> contribution)</text>
<text text-anchor="start" x="4" y="-251.5" font-family="Helvetica,sans-Serif" font-size="10.00">+</text>
<text text-anchor="start" x="17" y="-251.5" font-family="Helvetica,sans-Serif" font-size="10.00">virtual void ContributeCombat</text>
<text text-anchor="start" x="17" y="-240.5" font-family="Helvetica,sans-Serif" font-size="10.00">(ICombatAttack attack, Player</text>
<text text-anchor="start" x="17" y="-229.5" font-family="Helvetica,sans-Serif" font-size="10.00"> player, ICombatContribution</text>
<text text-anchor="start" x="17" y="-218.5" font-family="Helvetica,sans-Serif" font-size="10.00"> contribution)</text>
<text text-anchor="start" x="4" y="-203.5" font-family="Helvetica,sans-Serif" font-size="10.00">+</text>
<text text-anchor="start" x="17" y="-203.5" font-family="Helvetica,sans-Serif" font-size="10.00">virtual string GetDescription()</text>
<text text-anchor="start" x="4" y="-188.5" font-family="Helvetica,sans-Serif" font-size="10.00">+</text>
<text text-anchor="start" x="17" y="-188.5" font-family="Helvetica,sans-Serif" font-size="10.00">bool OnPickup(Player</text>
<text text-anchor="start" x="17" y="-177.5" font-family="Helvetica,sans-Serif" font-size="10.00"> player, Inventory inventory)</text>
<text text-anchor="start" x="4" y="-162.5" font-family="Helvetica,sans-Serif" font-size="10.00">+</text>
<text text-anchor="start" x="17" y="-162.5" font-family="Helvetica,sans-Serif" font-size="10.00">void OnDrop(Level level,</text>
<text text-anchor="start" x="17" y="-151.5" font-family="Helvetica,sans-Serif" font-size="10.00"> Player player)</text>
<text text-anchor="start" x="4" y="-136.5" font-family="Helvetica,sans-Serif" font-size="10.00">+</text>
<text text-anchor="start" x="17" y="-136.5" font-family="Helvetica,sans-Serif" font-size="10.00">bool TryEquipToLeft</text>
<text text-anchor="start" x="17" y="-125.5" font-family="Helvetica,sans-Serif" font-size="10.00">(Player player)</text>
<text text-anchor="start" x="4" y="-110.5" font-family="Helvetica,sans-Serif" font-size="10.00">+</text>
<text text-anchor="start" x="17" y="-110.5" font-family="Helvetica,sans-Serif" font-size="10.00">bool TryEquipToRight</text>
<text text-anchor="start" x="17" y="-99.5" font-family="Helvetica,sans-Serif" font-size="10.00">(Player player)</text>
<text text-anchor="start" x="4" y="-84.5" font-family="Helvetica,sans-Serif" font-size="10.00">+</text>
<text text-anchor="start" x="17" y="-84.5" font-family="Helvetica,sans-Serif" font-size="10.00">virtual void OnEquippedTo</text>
<text text-anchor="start" x="17" y="-73.5" font-family="Helvetica,sans-Serif" font-size="10.00">Hands(Player player)</text>
<text text-anchor="start" x="4" y="-58.5" font-family="Helvetica,sans-Serif" font-size="10.00">+</text>
<text text-anchor="start" x="17" y="-58.5" font-family="Helvetica,sans-Serif" font-size="10.00">virtual void OnRemovedFrom</text>
<text text-anchor="start" x="17" y="-47.5" font-family="Helvetica,sans-Serif" font-size="10.00">Hands(Player player)</text>
<text text-anchor="start" x="4" y="-32.5" font-family="Helvetica,sans-Serif" font-size="10.00">#</text>
<text text-anchor="start" x="17" y="-32.5" font-family="Helvetica,sans-Serif" font-size="10.00">WeaponModifierDecorator</text>
<text text-anchor="start" x="17" y="-21.5" font-family="Helvetica,sans-Serif" font-size="10.00">(IEquippable inner)</text>
<text text-anchor="start" x="4" y="-6.5" font-family="Helvetica,sans-Serif" font-size="10.00">#</text>
<text text-anchor="start" x="17" y="-6.5" font-family="Helvetica,sans-Serif" font-size="10.00">Weapon ResolveCoreWeapon()</text>
<polygon fill="#666666" stroke="#666666" points="0,-410.5 0,-410.5 196,-410.5 196,-410.5 0,-410.5"/>
<polygon fill="#666666" stroke="#666666" points="0,-309.5 0,-309.5 15,-309.5 15,-309.5 0,-309.5"/>
<polygon fill="#666666" stroke="#666666" points="15,-309.5 15,-309.5 196,-309.5 196,-309.5 15,-309.5"/>
<polygon fill="none" stroke="#666666" points="0,0 0,-439 196,-439 196,0 0,0"/>
</a>
</g>
</g>
<!-- Node2 -->
<g id="Node000002" class="node">
<title>Node2</title>
<g id="a_Node000002"><a xlink:href="interfaceRpgGame_1_1Items_1_1IWeapon.html" target="_top" xlink:title="An equippable item that contributes a damage value (typically a weapon).">
<polygon fill="white" stroke="transparent" points="196,-572 0,-572 0,-475 196,-475 196,-572"/>
<text text-anchor="start" x="76.5" y="-559.5" font-family="Helvetica,sans-Serif" font-size="10.00">IWeapon</text>
<text text-anchor="start" x="4" y="-544.5" font-family="Helvetica,sans-Serif" font-size="10.00">+</text>
<text text-anchor="start" x="17" y="-544.5" font-family="Helvetica,sans-Serif" font-size="10.00">int Damage</text>
<text text-anchor="start" x="4" y="-529.5" font-family="Helvetica,sans-Serif" font-size="10.00">+</text>
<text text-anchor="start" x="17" y="-529.5" font-family="Helvetica,sans-Serif" font-size="10.00">int Defense</text>
<text text-anchor="start" x="4" y="-514.5" font-family="Helvetica,sans-Serif" font-size="10.00">+</text>
<text text-anchor="start" x="17" y="-514.5" font-family="Helvetica,sans-Serif" font-size="10.00">void AcceptCombatStrike</text>
<text text-anchor="start" x="17" y="-503.5" font-family="Helvetica,sans-Serif" font-size="10.00">(ICombatAttack attack,</text>
<text text-anchor="start" x="17" y="-492.5" font-family="Helvetica,sans-Serif" font-size="10.00"> Player player, ICombatContribution</text>
<text text-anchor="start" x="17" y="-481.5" font-family="Helvetica,sans-Serif" font-size="10.00"> contribution)</text>
<polygon fill="#666666" stroke="#666666" points="0,-554.5 0,-554.5 196,-554.5 196,-554.5 0,-554.5"/>
<polygon fill="#666666" stroke="#666666" points="0,-524.5 0,-524.5 15,-524.5 15,-524.5 0,-524.5"/>
<polygon fill="#666666" stroke="#666666" points="15,-524.5 15,-524.5 196,-524.5 196,-524.5 15,-524.5"/>
<polygon fill="none" stroke="#666666" points="0,-475 0,-572 196,-572 196,-475 0,-475"/>
</a>
</g>
</g>
<!-- Node2&#45;&gt;Node1 -->
<g id="edge1_Node000001_Node000002" class="edge">
<title>Node2&#45;&gt;Node1</title>
<g id="a_edge1_Node000001_Node000002"><a xlink:title=" ">
<path fill="none" stroke="#63b8ff" d="M98,-464.75C98,-456.7 98,-448.07 98,-439.03"/>
<polygon fill="none" stroke="#63b8ff" points="94.5,-464.98 98,-474.98 101.5,-464.98 94.5,-464.98"/>
</a>
</g>
</g>
<!-- Node3 -->
<g id="Node000003" class="node">
<title>Node3</title>
<g id="a_Node000003"><a xlink:href="interfaceRpgGame_1_1Items_1_1IEquippable.html" target="_top" xlink:title="Represents an item that can be equipped by the player.">
<polygon fill="white" stroke="transparent" points="196,-794 0,-794 0,-608 196,-608 196,-794"/>
<text text-anchor="start" x="69" y="-782" font-family="Helvetica,sans-Serif" font-size="10.00">IEquippable</text>
<text text-anchor="start" x="96" y="-767" font-family="Helvetica,sans-Serif" font-size="10.00"> </text>
<text text-anchor="start" x="4" y="-752" font-family="Helvetica,sans-Serif" font-size="10.00">+</text>
<text text-anchor="start" x="17" y="-752" font-family="Helvetica,sans-Serif" font-size="10.00">bool TryEquipToLeft</text>
<text text-anchor="start" x="17" y="-741" font-family="Helvetica,sans-Serif" font-size="10.00">(Player player)</text>
<text text-anchor="start" x="4" y="-726" font-family="Helvetica,sans-Serif" font-size="10.00">+</text>
<text text-anchor="start" x="17" y="-726" font-family="Helvetica,sans-Serif" font-size="10.00">bool TryEquipToRight</text>
<text text-anchor="start" x="17" y="-715" font-family="Helvetica,sans-Serif" font-size="10.00">(Player player)</text>
<text text-anchor="start" x="4" y="-700" font-family="Helvetica,sans-Serif" font-size="10.00">+</text>
<text text-anchor="start" x="17" y="-700" font-family="Helvetica,sans-Serif" font-size="10.00">void ContributeCombat</text>
<text text-anchor="start" x="17" y="-689" font-family="Helvetica,sans-Serif" font-size="10.00">(ICombatAttack attack,</text>
<text text-anchor="start" x="17" y="-678" font-family="Helvetica,sans-Serif" font-size="10.00"> Player player, ICombatContribution</text>
<text text-anchor="start" x="17" y="-667" font-family="Helvetica,sans-Serif" font-size="10.00"> contribution)</text>
<text text-anchor="start" x="4" y="-652" font-family="Helvetica,sans-Serif" font-size="10.00">+</text>
<text text-anchor="start" x="17" y="-652" font-family="Helvetica,sans-Serif" font-size="10.00">void OnEquippedToHands</text>
<text text-anchor="start" x="17" y="-641" font-family="Helvetica,sans-Serif" font-size="10.00">(Player player)</text>
<text text-anchor="start" x="4" y="-626" font-family="Helvetica,sans-Serif" font-size="10.00">+</text>
<text text-anchor="start" x="17" y="-626" font-family="Helvetica,sans-Serif" font-size="10.00">void OnRemovedFromHands</text>
<text text-anchor="start" x="17" y="-615" font-family="Helvetica,sans-Serif" font-size="10.00">(Player player)</text>
<polygon fill="#666666" stroke="#666666" points="0,-777 0,-777 196,-777 196,-777 0,-777"/>
<polygon fill="#666666" stroke="#666666" points="0,-762 0,-762 196,-762 196,-762 0,-762"/>
<polygon fill="none" stroke="#666666" points="0,-608 0,-794 196,-794 196,-608 0,-608"/>
</a>
</g>
</g>
<!-- Node3&#45;&gt;Node2 -->
<g id="edge2_Node000002_Node000003" class="edge">
<title>Node3&#45;&gt;Node2</title>
<g id="a_edge2_Node000002_Node000003"><a xlink:title=" ">
<path fill="none" stroke="#63b8ff" d="M98,-597.88C98,-589.08 98,-580.47 98,-572.44"/>
<polygon fill="none" stroke="#63b8ff" points="94.5,-597.88 98,-607.88 101.5,-597.88 94.5,-597.88"/>
</a>
</g>
</g>
<!-- Node4 -->
<g id="Node000004" class="node">
<title>Node4</title>
<g id="a_Node000004"><a xlink:href="interfaceRpgGame_1_1Items_1_1IItem.html" target="_top" xlink:title="Defines the contract for all items that can exist within the game world.">
<polygon fill="white" stroke="transparent" points="178.5,-961 17.5,-961 17.5,-830 178.5,-830 178.5,-961"/>
<text text-anchor="start" x="85.5" y="-948.5" font-family="Helvetica,sans-Serif" font-size="10.00">IItem</text>
<text text-anchor="start" x="22" y="-933.5" font-family="Helvetica,sans-Serif" font-size="10.00">+</text>
<text text-anchor="start" x="35" y="-933.5" font-family="Helvetica,sans-Serif" font-size="10.00">string Name</text>
<text text-anchor="start" x="22" y="-918.5" font-family="Helvetica,sans-Serif" font-size="10.00">+</text>
<text text-anchor="start" x="35" y="-918.5" font-family="Helvetica,sans-Serif" font-size="10.00">char Symbol</text>
<text text-anchor="start" x="22" y="-903.5" font-family="Helvetica,sans-Serif" font-size="10.00">+</text>
<text text-anchor="start" x="35" y="-903.5" font-family="Helvetica,sans-Serif" font-size="10.00">ConsoleColor color</text>
<text text-anchor="start" x="22" y="-888.5" font-family="Helvetica,sans-Serif" font-size="10.00">+</text>
<text text-anchor="start" x="35" y="-888.5" font-family="Helvetica,sans-Serif" font-size="10.00">string GetDescription()</text>
<text text-anchor="start" x="22" y="-873.5" font-family="Helvetica,sans-Serif" font-size="10.00">+</text>
<text text-anchor="start" x="35" y="-873.5" font-family="Helvetica,sans-Serif" font-size="10.00">bool OnPickup(Player</text>
<text text-anchor="start" x="35" y="-862.5" font-family="Helvetica,sans-Serif" font-size="10.00"> player, Inventory inventory)</text>
<text text-anchor="start" x="22" y="-847.5" font-family="Helvetica,sans-Serif" font-size="10.00">+</text>
<text text-anchor="start" x="35" y="-847.5" font-family="Helvetica,sans-Serif" font-size="10.00">void OnDrop(Level level,</text>
<text text-anchor="start" x="35" y="-836.5" font-family="Helvetica,sans-Serif" font-size="10.00"> Player player)</text>
<polygon fill="#666666" stroke="#666666" points="18,-943.5 18,-943.5 179,-943.5 179,-943.5 18,-943.5"/>
<polygon fill="#666666" stroke="#666666" points="18,-898.5 18,-898.5 33,-898.5 33,-898.5 18,-898.5"/>
<polygon fill="#666666" stroke="#666666" points="33,-898.5 33,-898.5 179,-898.5 179,-898.5 33,-898.5"/>
<polygon fill="none" stroke="#666666" points="17.5,-830 17.5,-961 178.5,-961 178.5,-830 17.5,-830"/>
</a>
</g>
</g>
<!-- Node4&#45;&gt;Node3 -->
<g id="edge3_Node000003_Node000004" class="edge">
<title>Node4&#45;&gt;Node3</title>
<g id="a_edge3_Node000003_Node000004"><a xlink:title=" ">
<path fill="none" stroke="#63b8ff" d="M98,-819.77C98,-811.38 98,-802.77 98,-794.2"/>
<polygon fill="none" stroke="#63b8ff" points="94.5,-819.86 98,-829.86 101.5,-819.86 94.5,-819.86"/>
</a>
</g>
</g>
</g>
</svg>
