<?xml version="1.0" encoding="UTF-8" standalone="no"?>
<!DOCTYPE svg PUBLIC "-//W3C//DTD SVG 1.1//EN"
 "http://www.w3.org/Graphics/SVG/1.1/DTD/svg11.dtd">
<!-- Generated by graphviz version 2.43.0 (0)
 -->
<!-- Title: RpgGame.Core.Level.GetTopItem Pages: 1 -->
<svg width="397pt" height="86pt"
 viewBox="0.00 0.00 397.00 86.00" xmlns="http://www.w3.org/2000/svg" xmlns:xlink="http://www.w3.org/1999/xlink">
<g id="graph0" class="graph" transform="scale(1 1) rotate(0) translate(4 82)">
<title>RpgGame.Core.Level.GetTopItem</title>
<!-- Node1 -->
<g id="Node000001" class="node">
<title>Node1</title>
<g id="a_Node000001"><a xlink:title="Retrieves the top item at a position without removing it.">
<polygon fill="#999999" stroke="#666666" points="389,-48.5 210,-48.5 210,-29.5 389,-29.5 389,-48.5"/>
<text text-anchor="middle" x="299.5" y="-36.5" font-family="Helvetica,sans-Serif" font-size="10.00">RpgGame.Core.Level.GetTopItem</text>
</a>
</g>
</g>
<!-- Node2 -->
<g id="Node000002" class="node">
<title>Node2</title>
<g id="a_Node000002"><a xlink:href="classRpgGame_1_1Input_1_1TakeToInventoryCommand.html#a267b724b8c02cf1e7901f971131110fa" target="_top" xlink:title="Executes the command using provided game objects.Typically 1 to indicate the game should continue,...">
<polygon fill="white" stroke="#666666" points="174,-78 0,-78 0,-48 174,-48 174,-78"/>
<text text-anchor="start" x="8" y="-66" font-family="Helvetica,sans-Serif" font-size="10.00">RpgGame.Input.TakeToInventory</text>
<text text-anchor="middle" x="87" y="-55" font-family="Helvetica,sans-Serif" font-size="10.00">Command.Execute</text>
</a>
</g>
</g>
<!-- Node1&#45;&gt;Node2 -->
<g id="edge1_Node000001_Node000002" class="edge">
<title>Node1&#45;&gt;Node2</title>
<g id="a_edge1_Node000001_Node000002"><a xlink:title=" ">
<path fill="none" stroke="#63b8ff" d="M204.85,-49.68C194.64,-50.84 184.28,-52.02 174.16,-53.18"/>
<polygon fill="#63b8ff" stroke="#63b8ff" points="205.46,-53.13 215,-48.52 204.67,-46.18 205.46,-53.13"/>
</a>
</g>
</g>
<!-- Node3 -->
<g id="Node000003" class="node">
<title>Node3</title>
<g id="a_Node000003"><a xlink:href="classRpgGame_1_1Renderer_1_1ConsoleRenderer.html#a8165e28216b39fd3fbd460f3541ddcf3" target="_top" xlink:title="Renders the current level state and player information to the console. If the help flag is set,...">
<polygon fill="white" stroke="#666666" points="163.5,-30 10.5,-30 10.5,0 163.5,0 163.5,-30"/>
<text text-anchor="start" x="18.5" y="-18" font-family="Helvetica,sans-Serif" font-size="10.00">RpgGame.Renderer.Console</text>
<text text-anchor="middle" x="87" y="-7" font-family="Helvetica,sans-Serif" font-size="10.00">Renderer.Render</text>
</a>
</g>
</g>
<!-- Node1&#45;&gt;Node3 -->
<g id="edge2_Node000001_Node000003" class="edge">
<title>Node1&#45;&gt;Node3</title>
<g id="a_edge2_Node000001_Node000003"><a xlink:title=" ">
<path fill="none" stroke="#63b8ff" d="M204.97,-28.34C191.11,-26.76 176.97,-25.14 163.54,-23.61"/>
<polygon fill="#63b8ff" stroke="#63b8ff" points="204.67,-31.82 215,-29.48 205.46,-24.87 204.67,-31.82"/>
</a>
</g>
</g>
</g>
</svg>
