<?xml version="1.0" encoding="UTF-8" standalone="no"?>
<!DOCTYPE svg PUBLIC "-//W3C//DTD SVG 1.1//EN"
 "http://www.w3.org/Graphics/SVG/1.1/DTD/svg11.dtd">
<!-- Generated by graphviz version 2.43.0 (0)
 -->
<!-- Title: RpgGame.Input.DropRightCommand.Execute Pages: 1 -->
<svg width="591pt" height="38pt"
 viewBox="0.00 0.00 591.00 38.00" xmlns="http://www.w3.org/2000/svg" xmlns:xlink="http://www.w3.org/1999/xlink">
<g id="graph0" class="graph" transform="scale(1 1) rotate(0) translate(4 34)">
<title>RpgGame.Input.DropRightCommand.Execute</title>
<!-- Node1 -->
<g id="Node000001" class="node">
<title>Node1</title>
<g id="a_Node000001"><a xlink:title="Executes the command using provided game objects.Typically 1 to indicate the game should continue,...">
<polygon fill="#999999" stroke="#666666" points="197,-30 0,-30 0,0 197,0 197,-30"/>
<text text-anchor="start" x="8" y="-18" font-family="Helvetica,sans-Serif" font-size="10.00">RpgGame.Input.DropRightCommand.</text>
<text text-anchor="middle" x="98.5" y="-7" font-family="Helvetica,sans-Serif" font-size="10.00">Execute</text>
</a>
</g>
</g>
<!-- Node2 -->
<g id="Node000002" class="node">
<title>Node2</title>
<g id="a_Node000002"><a xlink:href="classRpgGame_1_1Character_1_1Player.html#a177a7696a43687bb2a9da970a2d4f559" target="_top" xlink:title="Drops the currently equipped right&#45;hand item onto the level.">
<polygon fill="white" stroke="#666666" points="383,-30 233,-30 233,0 383,0 383,-30"/>
<text text-anchor="start" x="241" y="-18" font-family="Helvetica,sans-Serif" font-size="10.00">RpgGame.Character.Player.</text>
<text text-anchor="middle" x="308" y="-7" font-family="Helvetica,sans-Serif" font-size="10.00">DropRight</text>
</a>
</g>
</g>
<!-- Node1&#45;&gt;Node2 -->
<g id="edge1_Node000001_Node000002" class="edge">
<title>Node1&#45;&gt;Node2</title>
<g id="a_edge1_Node000001_Node000002"><a xlink:title=" ">
<path fill="none" stroke="#63b8ff" d="M197.17,-15C205.69,-15 214.27,-15 222.67,-15"/>
<polygon fill="#63b8ff" stroke="#63b8ff" points="222.81,-18.5 232.81,-15 222.81,-11.5 222.81,-18.5"/>
</a>
</g>
</g>
<!-- Node3 -->
<g id="Node000003" class="node">
<title>Node3</title>
<g id="a_Node000003"><a xlink:href="interfaceRpgGame_1_1Items_1_1IItem.html#a1e48af01bc37df78332c728a7b096af2" target="_top" xlink:title="Handles the drop interaction for the item.">
<polygon fill="white" stroke="#666666" points="583,-24.5 419,-24.5 419,-5.5 583,-5.5 583,-24.5"/>
<text text-anchor="middle" x="501" y="-12.5" font-family="Helvetica,sans-Serif" font-size="10.00">RpgGame.Items.IItem.OnDrop</text>
</a>
</g>
</g>
<!-- Node2&#45;&gt;Node3 -->
<g id="edge2_Node000002_Node000003" class="edge">
<title>Node2&#45;&gt;Node3</title>
<g id="a_edge2_Node000002_Node000003"><a xlink:title=" ">
<path fill="none" stroke="#63b8ff" d="M383.12,-15C391.56,-15 400.24,-15 408.87,-15"/>
<polygon fill="#63b8ff" stroke="#63b8ff" points="408.96,-18.5 418.96,-15 408.96,-11.5 408.96,-18.5"/>
</a>
</g>
</g>
</g>
</svg>
