<?xml version="1.0" encoding="UTF-8" standalone="no"?>
<!DOCTYPE svg PUBLIC "-//W3C//DTD SVG 1.1//EN"
 "http://www.w3.org/Graphics/SVG/1.1/DTD/svg11.dtd">
<!-- Generated by graphviz version 13.1.2 (20250808.2320)
 -->
<!-- Title: RpgGame.Core.Level.GetItemsAt Pages: 1 -->
<svg width="353pt" height="45pt"
 viewBox="0.00 0.00 353.00 45.00" xmlns="http://www.w3.org/2000/svg" xmlns:xlink="http://www.w3.org/1999/xlink">
<g id="graph0" class="graph" transform="scale(1 1) rotate(0) translate(4 40.5)">
<title>RpgGame.Core.Level.GetItemsAt</title>
<!-- Node1 -->
<g id="Node000001" class="node">
<title>Node1</title>
<g id="a_Node000001"><a xlink:title="Retrieves all items located at a given position.">
<polygon fill="#999999" stroke="#666666" points="163.75,-18.5 0,-18.5 0,0 163.75,0 163.75,-18.5"/>
<text xml:space="preserve" text-anchor="middle" x="81.88" y="-5" font-family="Helvetica,sans-Serif" font-size="10.00">RpgGame.Core.Level.GetItemsAt</text>
</a>
</g>
</g>
<!-- Node2 -->
<g id="Node000002" class="node">
<title>Node2</title>
<g id="a_Node000002"><a xlink:href="namespaceRpgGame_1_1Character.html#ab2e6f640f8bfc682c50e3c19e0d417f1" target="_top" xlink:title="A record for tracking the position of Characters, Items, and Tiles if needed.">
<polygon fill="white" stroke="#666666" points="344.75,-18.5 199.75,-18.5 199.75,0 344.75,0 344.75,-18.5"/>
<text xml:space="preserve" text-anchor="middle" x="272.25" y="-5" font-family="Helvetica,sans-Serif" font-size="10.00">RpgGame.Character.Position</text>
</a>
</g>
</g>
<!-- Node1&#45;&gt;Node2 -->
<g id="edge1_Node000001_Node000002" class="edge">
<title>Node1&#45;&gt;Node2</title>
<g id="a_edge1_Node000001_Node000002"><a xlink:title=" ">
<path fill="none" stroke="#63b8ff" d="M164.13,-9.25C172.02,-9.25 180.04,-9.25 187.96,-9.25"/>
<polygon fill="#63b8ff" stroke="#63b8ff" points="187.94,-12.75 197.94,-9.25 187.94,-5.75 187.94,-12.75"/>
</a>
</g>
</g>
<!-- Node2&#45;&gt;Node2 -->
<g id="edge2_Node000002_Node000002" class="edge">
<title>Node2&#45;&gt;Node2</title>
<g id="a_edge2_Node000002_Node000002"><a xlink:title=" ">
<path fill="none" stroke="#63b8ff" d="M242.91,-18.75C228.63,-27.32 238.41,-36.5 272.25,-36.5 292.34,-36.5 303.95,-33.26 307.08,-28.84"/>
<polygon fill="#63b8ff" stroke="#63b8ff" points="310.17,-27.19 302.32,-20.08 304.02,-30.53 310.17,-27.19"/>
</a>
</g>
</g>
</g>
</svg>
