<?xml version="1.0" encoding="UTF-8" standalone="no"?>
<!DOCTYPE svg PUBLIC "-//W3C//DTD SVG 1.1//EN"
 "http://www.w3.org/Graphics/SVG/1.1/DTD/svg11.dtd">
<!-- Generated by graphviz version 2.43.0 (0)
 -->
<!-- Title: RpgGame.Items.Weapon Pages: 1 -->
<svg width="314pt" height="662pt"
 viewBox="0.00 0.00 313.50 662.00" xmlns="http://www.w3.org/2000/svg" xmlns:xlink="http://www.w3.org/1999/xlink">
<g id="graph0" class="graph" transform="scale(1 1) rotate(0) translate(4 658)">
<title>RpgGame.Items.Weapon</title>
<!-- Node1 -->
<g id="Node000001" class="node">
<title>Node1</title>
<g id="a_Node000001"><a xlink:title="Represents an abstract base class for all equippable weapons.">
<polygon fill="#999999" stroke="transparent" points="243,-365 76,-365 76,-141 243,-141 243,-365"/>
<text text-anchor="start" x="99.5" y="-353" font-family="Helvetica,sans-Serif" font-size="10.00">RpgGame.Items.Weapon</text>
<text text-anchor="start" x="80.5" y="-338" font-family="Helvetica,sans-Serif" font-size="10.00">+</text>
<text text-anchor="start" x="93.5" y="-338" font-family="Helvetica,sans-Serif" font-size="10.00">string Name</text>
<text text-anchor="start" x="80.5" y="-323" font-family="Helvetica,sans-Serif" font-size="10.00">+</text>
<text text-anchor="start" x="93.5" y="-323" font-family="Helvetica,sans-Serif" font-size="10.00">ConsoleColor color</text>
<text text-anchor="start" x="80.5" y="-308" font-family="Helvetica,sans-Serif" font-size="10.00">+</text>
<text text-anchor="start" x="93.5" y="-308" font-family="Helvetica,sans-Serif" font-size="10.00">char Symbol</text>
<text text-anchor="start" x="80.5" y="-293" font-family="Helvetica,sans-Serif" font-size="10.00">+</text>
<text text-anchor="start" x="93.5" y="-293" font-family="Helvetica,sans-Serif" font-size="10.00">int Damage</text>
<text text-anchor="start" x="80.5" y="-278" font-family="Helvetica,sans-Serif" font-size="10.00">+</text>
<text text-anchor="start" x="93.5" y="-278" font-family="Helvetica,sans-Serif" font-size="10.00">bool TryEquipToLeft</text>
<text text-anchor="start" x="93.5" y="-267" font-family="Helvetica,sans-Serif" font-size="10.00">(Player player)</text>
<text text-anchor="start" x="80.5" y="-252" font-family="Helvetica,sans-Serif" font-size="10.00">+</text>
<text text-anchor="start" x="93.5" y="-252" font-family="Helvetica,sans-Serif" font-size="10.00">bool TryEquipToRight</text>
<text text-anchor="start" x="93.5" y="-241" font-family="Helvetica,sans-Serif" font-size="10.00">(Player player)</text>
<text text-anchor="start" x="80.5" y="-226" font-family="Helvetica,sans-Serif" font-size="10.00">+</text>
<text text-anchor="start" x="93.5" y="-226" font-family="Helvetica,sans-Serif" font-size="10.00">virtual string GetDescription()</text>
<text text-anchor="start" x="80.5" y="-211" font-family="Helvetica,sans-Serif" font-size="10.00">+</text>
<text text-anchor="start" x="93.5" y="-211" font-family="Helvetica,sans-Serif" font-size="10.00">bool OnPickup(Player</text>
<text text-anchor="start" x="93.5" y="-200" font-family="Helvetica,sans-Serif" font-size="10.00"> player, Inventory inventory)</text>
<text text-anchor="start" x="80.5" y="-185" font-family="Helvetica,sans-Serif" font-size="10.00">+</text>
<text text-anchor="start" x="93.5" y="-185" font-family="Helvetica,sans-Serif" font-size="10.00">void OnDrop(Level level,</text>
<text text-anchor="start" x="93.5" y="-174" font-family="Helvetica,sans-Serif" font-size="10.00"> Player player)</text>
<text text-anchor="start" x="80.5" y="-159" font-family="Helvetica,sans-Serif" font-size="10.00">#</text>
<text text-anchor="start" x="93.5" y="-159" font-family="Helvetica,sans-Serif" font-size="10.00">Weapon(HandOccupation</text>
<text text-anchor="start" x="93.5" y="-148" font-family="Helvetica,sans-Serif" font-size="10.00"> occupation)</text>
<polygon fill="#666666" stroke="#666666" points="76.5,-348 76.5,-348 243.5,-348 243.5,-348 76.5,-348"/>
<polygon fill="#666666" stroke="#666666" points="76.5,-288 76.5,-288 91.5,-288 91.5,-288 76.5,-288"/>
<polygon fill="#666666" stroke="#666666" points="91.5,-288 91.5,-288 243.5,-288 243.5,-288 91.5,-288"/>
<polygon fill="none" stroke="#666666" points="76,-141 76,-365 243,-365 243,-141 76,-141"/>
</a>
</g>
</g>
<!-- Node4 -->
<g id="Node000004" class="node">
<title>Node4</title>
<g id="a_Node000004"><a xlink:href="classRpgGame_1_1Items_1_1DoubleSword.html" target="_top" xlink:title="Represents a powerful two&#45;handed sword weapon.">
<polygon fill="white" stroke="transparent" points="157,-105 0,-105 0,0 157,0 157,-105"/>
<text text-anchor="start" x="5.5" y="-92.5" font-family="Helvetica,sans-Serif" font-size="10.00">RpgGame.Items.DoubleSword</text>
<text text-anchor="start" x="11" y="-77.5" font-family="Helvetica,sans-Serif" font-size="10.00">+</text>
<text text-anchor="start" x="30.5" y="-77.5" font-family="Helvetica,sans-Serif" font-size="10.00">override string Name</text>
<text text-anchor="start" x="11" y="-62.5" font-family="Helvetica,sans-Serif" font-size="10.00">+</text>
<text text-anchor="start" x="30.5" y="-62.5" font-family="Helvetica,sans-Serif" font-size="10.00">override ConsoleColor</text>
<text text-anchor="start" x="30.5" y="-51.5" font-family="Helvetica,sans-Serif" font-size="10.00"> color</text>
<text text-anchor="start" x="11" y="-36.5" font-family="Helvetica,sans-Serif" font-size="10.00">+</text>
<text text-anchor="start" x="30.5" y="-36.5" font-family="Helvetica,sans-Serif" font-size="10.00">override char Symbol</text>
<text text-anchor="start" x="11" y="-21.5" font-family="Helvetica,sans-Serif" font-size="10.00">+</text>
<text text-anchor="start" x="30.5" y="-21.5" font-family="Helvetica,sans-Serif" font-size="10.00">override int Damage</text>
<text text-anchor="start" x="11" y="-6.5" font-family="Helvetica,sans-Serif" font-size="10.00">+</text>
<text text-anchor="start" x="30.5" y="-6.5" font-family="Helvetica,sans-Serif" font-size="10.00">DoubleSword()</text>
<polygon fill="#666666" stroke="#666666" points="0.5,-87.5 0.5,-87.5 157.5,-87.5 157.5,-87.5 0.5,-87.5"/>
<polygon fill="#666666" stroke="#666666" points="0.5,-16.5 0.5,-16.5 28.5,-16.5 28.5,-16.5 0.5,-16.5"/>
<polygon fill="#666666" stroke="#666666" points="28.5,-16.5 28.5,-16.5 157.5,-16.5 157.5,-16.5 28.5,-16.5"/>
<polygon fill="none" stroke="#666666" points="0,0 0,-105 157,-105 157,0 0,0"/>
</a>
</g>
</g>
<!-- Node1&#45;&gt;Node4 -->
<g id="edge3_Node000001_Node000004" class="edge">
<title>Node1&#45;&gt;Node4</title>
<g id="a_edge3_Node000001_Node000004"><a xlink:title=" ">
<path fill="none" stroke="#63b8ff" d="M110.26,-131.32C106.56,-122.25 102.96,-113.44 99.59,-105.19"/>
<polygon fill="none" stroke="#63b8ff" points="107.13,-132.92 114.15,-140.85 113.61,-130.27 107.13,-132.92"/>
</a>
</g>
</g>
<!-- Node5 -->
<g id="Node000005" class="node">
<title>Node5</title>
<g id="a_Node000005"><a xlink:href="classRpgGame_1_1Items_1_1Sword.html" target="_top" xlink:title="Represents a standard one&#45;handed sword weapon.">
<polygon fill="white" stroke="transparent" points="305.5,-105 175.5,-105 175.5,0 305.5,0 305.5,-105"/>
<text text-anchor="start" x="184.5" y="-92.5" font-family="Helvetica,sans-Serif" font-size="10.00">RpgGame.Items.Sword</text>
<text text-anchor="start" x="179.5" y="-77.5" font-family="Helvetica,sans-Serif" font-size="10.00">+</text>
<text text-anchor="start" x="192.5" y="-77.5" font-family="Helvetica,sans-Serif" font-size="10.00">override string Name</text>
<text text-anchor="start" x="179.5" y="-62.5" font-family="Helvetica,sans-Serif" font-size="10.00">+</text>
<text text-anchor="start" x="192.5" y="-62.5" font-family="Helvetica,sans-Serif" font-size="10.00">override ConsoleColor</text>
<text text-anchor="start" x="192.5" y="-51.5" font-family="Helvetica,sans-Serif" font-size="10.00"> color</text>
<text text-anchor="start" x="179.5" y="-36.5" font-family="Helvetica,sans-Serif" font-size="10.00">+</text>
<text text-anchor="start" x="192.5" y="-36.5" font-family="Helvetica,sans-Serif" font-size="10.00">override char Symbol</text>
<text text-anchor="start" x="179.5" y="-21.5" font-family="Helvetica,sans-Serif" font-size="10.00">+</text>
<text text-anchor="start" x="192.5" y="-21.5" font-family="Helvetica,sans-Serif" font-size="10.00">override int Damage</text>
<text text-anchor="start" x="179.5" y="-6.5" font-family="Helvetica,sans-Serif" font-size="10.00">+</text>
<text text-anchor="start" x="192.5" y="-6.5" font-family="Helvetica,sans-Serif" font-size="10.00">Sword()</text>
<polygon fill="#666666" stroke="#666666" points="175.5,-87.5 175.5,-87.5 305.5,-87.5 305.5,-87.5 175.5,-87.5"/>
<polygon fill="#666666" stroke="#666666" points="175.5,-16.5 175.5,-16.5 190.5,-16.5 190.5,-16.5 175.5,-16.5"/>
<polygon fill="#666666" stroke="#666666" points="190.5,-16.5 190.5,-16.5 305.5,-16.5 305.5,-16.5 190.5,-16.5"/>
<polygon fill="none" stroke="#666666" points="175.5,0 175.5,-105 305.5,-105 305.5,0 175.5,0"/>
</a>
</g>
</g>
<!-- Node1&#45;&gt;Node5 -->
<g id="edge4_Node000001_Node000005" class="edge">
<title>Node1&#45;&gt;Node5</title>
<g id="a_edge4_Node000001_Node000005"><a xlink:title=" ">
<path fill="none" stroke="#63b8ff" d="M208.74,-131.32C212.44,-122.25 216.04,-113.44 219.41,-105.19"/>
<polygon fill="none" stroke="#63b8ff" points="205.39,-130.27 204.85,-140.85 211.87,-132.92 205.39,-130.27"/>
</a>
</g>
</g>
<!-- Node2 -->
<g id="Node000002" class="node">
<title>Node2</title>
<g id="a_Node000002"><a xlink:href="interfaceRpgGame_1_1Items_1_1IEquippable.html" target="_top" xlink:title="Represents an item that can be equipped by the player.">
<polygon fill="white" stroke="transparent" points="221,-487 98,-487 98,-401 221,-401 221,-487"/>
<text text-anchor="start" x="131" y="-475" font-family="Helvetica,sans-Serif" font-size="10.00">IEquippable</text>
<text text-anchor="start" x="158" y="-460" font-family="Helvetica,sans-Serif" font-size="10.00"> </text>
<text text-anchor="start" x="102.5" y="-445" font-family="Helvetica,sans-Serif" font-size="10.00">+</text>
<text text-anchor="start" x="115.5" y="-445" font-family="Helvetica,sans-Serif" font-size="10.00">bool TryEquipToLeft</text>
<text text-anchor="start" x="115.5" y="-434" font-family="Helvetica,sans-Serif" font-size="10.00">(Player player)</text>
<text text-anchor="start" x="102.5" y="-419" font-family="Helvetica,sans-Serif" font-size="10.00">+</text>
<text text-anchor="start" x="115.5" y="-419" font-family="Helvetica,sans-Serif" font-size="10.00">bool TryEquipToRight</text>
<text text-anchor="start" x="115.5" y="-408" font-family="Helvetica,sans-Serif" font-size="10.00">(Player player)</text>
<polygon fill="#666666" stroke="#666666" points="98.5,-470 98.5,-470 221.5,-470 221.5,-470 98.5,-470"/>
<polygon fill="#666666" stroke="#666666" points="98.5,-455 98.5,-455 221.5,-455 221.5,-455 98.5,-455"/>
<polygon fill="none" stroke="#666666" points="98,-401 98,-487 221,-487 221,-401 98,-401"/>
</a>
</g>
</g>
<!-- Node2&#45;&gt;Node1 -->
<g id="edge1_Node000001_Node000002" class="edge">
<title>Node2&#45;&gt;Node1</title>
<g id="a_edge1_Node000001_Node000002"><a xlink:title=" ">
<path fill="none" stroke="#63b8ff" d="M159.5,-390.4C159.5,-382.41 159.5,-373.92 159.5,-365.23"/>
<polygon fill="none" stroke="#63b8ff" points="156,-390.58 159.5,-400.58 163,-390.58 156,-390.58"/>
</a>
</g>
</g>
<!-- Node3 -->
<g id="Node000003" class="node">
<title>Node3</title>
<g id="a_Node000003"><a xlink:href="interfaceRpgGame_1_1Items_1_1IItem.html" target="_top" xlink:title="Defines the contract for all items that can exist within the game world.">
<polygon fill="white" stroke="transparent" points="240,-654 79,-654 79,-523 240,-523 240,-654"/>
<text text-anchor="start" x="147" y="-641.5" font-family="Helvetica,sans-Serif" font-size="10.00">IItem</text>
<text text-anchor="start" x="83.5" y="-626.5" font-family="Helvetica,sans-Serif" font-size="10.00">+</text>
<text text-anchor="start" x="96.5" y="-626.5" font-family="Helvetica,sans-Serif" font-size="10.00">string Name</text>
<text text-anchor="start" x="83.5" y="-611.5" font-family="Helvetica,sans-Serif" font-size="10.00">+</text>
<text text-anchor="start" x="96.5" y="-611.5" font-family="Helvetica,sans-Serif" font-size="10.00">char Symbol</text>
<text text-anchor="start" x="83.5" y="-596.5" font-family="Helvetica,sans-Serif" font-size="10.00">+</text>
<text text-anchor="start" x="96.5" y="-596.5" font-family="Helvetica,sans-Serif" font-size="10.00">ConsoleColor color</text>
<text text-anchor="start" x="83.5" y="-581.5" font-family="Helvetica,sans-Serif" font-size="10.00">+</text>
<text text-anchor="start" x="96.5" y="-581.5" font-family="Helvetica,sans-Serif" font-size="10.00">string GetDescription()</text>
<text text-anchor="start" x="83.5" y="-566.5" font-family="Helvetica,sans-Serif" font-size="10.00">+</text>
<text text-anchor="start" x="96.5" y="-566.5" font-family="Helvetica,sans-Serif" font-size="10.00">bool OnPickup(Player</text>
<text text-anchor="start" x="96.5" y="-555.5" font-family="Helvetica,sans-Serif" font-size="10.00"> player, Inventory inventory)</text>
<text text-anchor="start" x="83.5" y="-540.5" font-family="Helvetica,sans-Serif" font-size="10.00">+</text>
<text text-anchor="start" x="96.5" y="-540.5" font-family="Helvetica,sans-Serif" font-size="10.00">void OnDrop(Level level,</text>
<text text-anchor="start" x="96.5" y="-529.5" font-family="Helvetica,sans-Serif" font-size="10.00"> Player player)</text>
<polygon fill="#666666" stroke="#666666" points="79.5,-636.5 79.5,-636.5 240.5,-636.5 240.5,-636.5 79.5,-636.5"/>
<polygon fill="#666666" stroke="#666666" points="79.5,-591.5 79.5,-591.5 94.5,-591.5 94.5,-591.5 79.5,-591.5"/>
<polygon fill="#666666" stroke="#666666" points="94.5,-591.5 94.5,-591.5 240.5,-591.5 240.5,-591.5 94.5,-591.5"/>
<polygon fill="none" stroke="#666666" points="79,-523 79,-654 240,-654 240,-523 79,-523"/>
</a>
</g>
</g>
<!-- Node3&#45;&gt;Node2 -->
<g id="edge2_Node000002_Node000003" class="edge">
<title>Node3&#45;&gt;Node2</title>
<g id="a_edge2_Node000002_Node000003"><a xlink:title=" ">
<path fill="none" stroke="#63b8ff" d="M159.5,-512.7C159.5,-504 159.5,-495.36 159.5,-487.32"/>
<polygon fill="none" stroke="#63b8ff" points="156,-512.92 159.5,-522.92 163,-512.92 156,-512.92"/>
</a>
</g>
</g>
</g>
</svg>
