<?xml version="1.0" encoding="UTF-8" standalone="no"?>
<!DOCTYPE svg PUBLIC "-//W3C//DTD SVG 1.1//EN"
 "http://www.w3.org/Graphics/SVG/1.1/DTD/svg11.dtd">
<!-- Generated by graphviz version 2.43.0 (0)
 -->
<!-- Title: RpgGame.Input.InputHandler Pages: 1 -->
<svg width="194pt" height="116pt"
 viewBox="0.00 0.00 194.00 116.00" xmlns="http://www.w3.org/2000/svg" xmlns:xlink="http://www.w3.org/1999/xlink">
<g id="graph0" class="graph" transform="scale(1 1) rotate(0) translate(4 112)">
<title>RpgGame.Input.InputHandler</title>
<!-- Node1 -->
<g id="Node000001" class="node">
<title>Node1</title>
<g id="a_Node000001"><a xlink:title="Maps console key combinations to their corresponding IInputCommand implementations and invokes them w...">
<polygon fill="#999999" stroke="transparent" points="186,-108 0,-108 0,0 186,0 186,-108"/>
<text text-anchor="start" x="22" y="-96" font-family="Helvetica,sans-Serif" font-size="10.00">RpgGame.Input.InputHandler</text>
<text text-anchor="start" x="4" y="-81" font-family="Helvetica,sans-Serif" font-size="10.00">+</text>
<text text-anchor="start" x="17" y="-81" font-family="Helvetica,sans-Serif" font-size="10.00">IReadOnlyList&lt; ControlDescriptor</text>
<text text-anchor="start" x="17" y="-70" font-family="Helvetica,sans-Serif" font-size="10.00"> &gt; Bindings</text>
<text text-anchor="start" x="4" y="-55" font-family="Helvetica,sans-Serif" font-size="10.00">+</text>
<text text-anchor="start" x="17" y="-55" font-family="Helvetica,sans-Serif" font-size="10.00">InputHandler()</text>
<text text-anchor="start" x="4" y="-40" font-family="Helvetica,sans-Serif" font-size="10.00">+</text>
<text text-anchor="start" x="17" y="-40" font-family="Helvetica,sans-Serif" font-size="10.00">int HandleInput(ConsoleKey</text>
<text text-anchor="start" x="17" y="-29" font-family="Helvetica,sans-Serif" font-size="10.00">Info key, Level level,</text>
<text text-anchor="start" x="17" y="-18" font-family="Helvetica,sans-Serif" font-size="10.00"> Player player, Inventory</text>
<text text-anchor="start" x="17" y="-7" font-family="Helvetica,sans-Serif" font-size="10.00"> inventory)</text>
<polygon fill="#666666" stroke="#666666" points="0,-91 0,-91 186,-91 186,-91 0,-91"/>
<polygon fill="#666666" stroke="#666666" points="0,-65 0,-65 15,-65 15,-65 0,-65"/>
<polygon fill="#666666" stroke="#666666" points="15,-65 15,-65 186,-65 186,-65 15,-65"/>
<polygon fill="none" stroke="#666666" points="0,0 0,-108 186,-108 186,0 0,0"/>
</a>
</g>
</g>
</g>
</svg>
