<?xml version="1.0" encoding="UTF-8" standalone="no"?>
<!DOCTYPE svg PUBLIC "-//W3C//DTD SVG 1.1//EN"
 "http://www.w3.org/Graphics/SVG/1.1/DTD/svg11.dtd">
<!-- Generated by graphviz version 2.43.0 (0)
 -->
<!-- Title: RpgGame.Generation.Strategies.DungeonSandboxStrategy.Create Pages: 1 -->
<svg width="389pt" height="56pt"
 viewBox="0.00 0.00 389.00 56.00" xmlns="http://www.w3.org/2000/svg" xmlns:xlink="http://www.w3.org/1999/xlink">
<g id="graph0" class="graph" transform="scale(1 1) rotate(0) translate(4 52)">
<title>RpgGame.Generation.Strategies.DungeonSandboxStrategy.Create</title>
<!-- Node1 -->
<g id="Node000001" class="node">
<title>Node1</title>
<g id="a_Node000001"><a xlink:title="Creates and returns a configured dungeon builder with the strategy&#39;s procedures.">
<polygon fill="#999999" stroke="#666666" points="177,-30 0,-30 0,0 177,0 177,-30"/>
<text text-anchor="start" x="8" y="-18" font-family="Helvetica,sans-Serif" font-size="10.00">RpgGame.Generation.Strategies.</text>
<text text-anchor="middle" x="88.5" y="-7" font-family="Helvetica,sans-Serif" font-size="10.00">DungeonSandboxStrategy.Create</text>
</a>
</g>
</g>
<!-- Node2 -->
<g id="Node000002" class="node">
<title>Node2</title>
<g id="a_Node000002"><a xlink:href="classRpgGame_1_1Generation_1_1DungeonBuilder.html#a8ade290e29e2b17b94912b4b6edd6b6e" target="_top" xlink:title="Adds a generation procedure to the sequence.">
<polygon fill="white" stroke="#666666" points="381,-30 213,-30 213,0 381,0 381,-30"/>
<text text-anchor="start" x="221" y="-18" font-family="Helvetica,sans-Serif" font-size="10.00">RpgGame.Generation.Dungeon</text>
<text text-anchor="middle" x="297" y="-7" font-family="Helvetica,sans-Serif" font-size="10.00">Builder.Add</text>
</a>
</g>
</g>
<!-- Node1&#45;&gt;Node2 -->
<g id="edge1_Node000001_Node000002" class="edge">
<title>Node1&#45;&gt;Node2</title>
<g id="a_edge1_Node000001_Node000002"><a xlink:title=" ">
<path fill="none" stroke="#63b8ff" d="M177.07,-15C185.61,-15 194.29,-15 202.87,-15"/>
<polygon fill="#63b8ff" stroke="#63b8ff" points="202.89,-18.5 212.89,-15 202.89,-11.5 202.89,-18.5"/>
</a>
</g>
</g>
<!-- Node2&#45;&gt;Node2 -->
<g id="edge2_Node000002_Node000002" class="edge">
<title>Node2&#45;&gt;Node2</title>
<g id="a_edge2_Node000002_Node000002"><a xlink:title=" ">
<path fill="none" stroke="#63b8ff" d="M260.44,-30.28C252.31,-39.41 264.5,-48 297,-48 316.3,-48 328.43,-44.97 333.41,-40.6"/>
<polygon fill="#63b8ff" stroke="#63b8ff" points="336.91,-40.33 333.56,-30.28 329.91,-40.22 336.91,-40.33"/>
</a>
</g>
</g>
</g>
</svg>
