<?xml version="1.0" encoding="UTF-8" standalone="no"?>
<!DOCTYPE svg PUBLIC "-//W3C//DTD SVG 1.1//EN"
 "http://www.w3.org/Graphics/SVG/1.1/DTD/svg11.dtd">
<!-- Generated by graphviz version 2.43.0 (0)
 -->
<!-- Title: RpgGame.Character.Character Pages: 1 -->
<svg width="354pt" height="608pt"
 viewBox="0.00 0.00 354.00 608.00" xmlns="http://www.w3.org/2000/svg" xmlns:xlink="http://www.w3.org/1999/xlink">
<g id="graph0" class="graph" transform="scale(1 1) rotate(0) translate(4 604)">
<title>RpgGame.Character.Character</title>
<!-- Node1 -->
<g id="Node000001" class="node">
<title>Node1</title>
<g id="a_Node000001"><a xlink:title="Base abstract class for both playable and non&#45;playable characters.">
<polygon fill="#999999" stroke="transparent" points="252.5,-600 94.5,-600 94.5,-499 252.5,-499 252.5,-600"/>
<text text-anchor="start" x="99.5" y="-587.5" font-family="Helvetica,sans-Serif" font-size="10.00">RpgGame.Character.Character</text>
<text text-anchor="start" x="109" y="-572.5" font-family="Helvetica,sans-Serif" font-size="10.00">+</text>
<text text-anchor="start" x="132.5" y="-572.5" font-family="Helvetica,sans-Serif" font-size="10.00">char Symbol</text>
<text text-anchor="start" x="109" y="-557.5" font-family="Helvetica,sans-Serif" font-size="10.00">+</text>
<text text-anchor="start" x="132.5" y="-557.5" font-family="Helvetica,sans-Serif" font-size="10.00">Position Pos</text>
<text text-anchor="start" x="109" y="-542.5" font-family="Helvetica,sans-Serif" font-size="10.00">+</text>
<text text-anchor="start" x="132.5" y="-542.5" font-family="Helvetica,sans-Serif" font-size="10.00">void Move(Position</text>
<text text-anchor="start" x="132.5" y="-531.5" font-family="Helvetica,sans-Serif" font-size="10.00"> newPos)</text>
<text text-anchor="start" x="109" y="-516.5" font-family="Helvetica,sans-Serif" font-size="10.00">#</text>
<text text-anchor="start" x="132.5" y="-516.5" font-family="Helvetica,sans-Serif" font-size="10.00">Character(Position</text>
<text text-anchor="start" x="132.5" y="-505.5" font-family="Helvetica,sans-Serif" font-size="10.00"> startPosition)</text>
<polygon fill="#666666" stroke="#666666" points="94.5,-582.5 94.5,-582.5 252.5,-582.5 252.5,-582.5 94.5,-582.5"/>
<polygon fill="#666666" stroke="#666666" points="94.5,-552.5 94.5,-552.5 130.5,-552.5 130.5,-552.5 94.5,-552.5"/>
<polygon fill="#666666" stroke="#666666" points="130.5,-552.5 130.5,-552.5 252.5,-552.5 252.5,-552.5 130.5,-552.5"/>
<polygon fill="none" stroke="#666666" points="94.5,-499 94.5,-600 252.5,-600 252.5,-499 94.5,-499"/>
</a>
</g>
</g>
<!-- Node2 -->
<g id="Node000002" class="node">
<title>Node2</title>
<g id="a_Node000002"><a xlink:href="classRpgGame_1_1Character_1_1Golem.html" target="_top" xlink:title="Represents a Golem character in the game. Golems are typically non&#45;player characters (NPCs) that may ...">
<polygon fill="white" stroke="transparent" points="165,-263.5 0,-263.5 0,-199.5 165,-199.5 165,-263.5"/>
<text text-anchor="start" x="16.5" y="-251.5" font-family="Helvetica,sans-Serif" font-size="10.00">RpgGame.Character.Golem</text>
<text text-anchor="start" x="4.5" y="-236.5" font-family="Helvetica,sans-Serif" font-size="10.00">+</text>
<text text-anchor="start" x="17.5" y="-236.5" font-family="Helvetica,sans-Serif" font-size="10.00">override char Symbol</text>
<text text-anchor="start" x="4.5" y="-221.5" font-family="Helvetica,sans-Serif" font-size="10.00">+</text>
<text text-anchor="start" x="17.5" y="-221.5" font-family="Helvetica,sans-Serif" font-size="10.00">IEquippable? EquippedItem</text>
<text text-anchor="start" x="4.5" y="-206.5" font-family="Helvetica,sans-Serif" font-size="10.00">+</text>
<text text-anchor="start" x="17.5" y="-206.5" font-family="Helvetica,sans-Serif" font-size="10.00">Golem(Position startPosition)</text>
<polygon fill="#666666" stroke="#666666" points="0.5,-246.5 0.5,-246.5 165.5,-246.5 165.5,-246.5 0.5,-246.5"/>
<polygon fill="#666666" stroke="#666666" points="0.5,-216.5 0.5,-216.5 15.5,-216.5 15.5,-216.5 0.5,-216.5"/>
<polygon fill="#666666" stroke="#666666" points="15.5,-216.5 15.5,-216.5 165.5,-216.5 165.5,-216.5 15.5,-216.5"/>
<polygon fill="none" stroke="#666666" points="0,-199.5 0,-263.5 165,-263.5 165,-199.5 0,-199.5"/>
</a>
</g>
</g>
<!-- Node1&#45;&gt;Node2 -->
<g id="edge1_Node000001_Node000002" class="edge">
<title>Node1&#45;&gt;Node2</title>
<g id="a_edge1_Node000001_Node000002"><a xlink:title=" ">
<path fill="none" stroke="#63b8ff" d="M156.31,-488.79C137.04,-421.89 106.54,-315.97 91.49,-263.73"/>
<polygon fill="none" stroke="#63b8ff" points="153.05,-490.14 159.18,-498.78 159.78,-488.2 153.05,-490.14"/>
</a>
</g>
</g>
<!-- Node3 -->
<g id="Node000003" class="node">
<title>Node3</title>
<g id="a_Node000003"><a xlink:href="classRpgGame_1_1Character_1_1Player.html" target="_top" xlink:title="Represents the player&#45;controlled character in the game.">
<polygon fill="white" stroke="transparent" points="346,-463 183,-463 183,0 346,0 346,-463"/>
<text text-anchor="start" x="199" y="-450.5" font-family="Helvetica,sans-Serif" font-size="10.00">RpgGame.Character.Player</text>
<text text-anchor="start" x="187.5" y="-435.5" font-family="Helvetica,sans-Serif" font-size="10.00">+</text>
<text text-anchor="start" x="200.5" y="-435.5" font-family="Helvetica,sans-Serif" font-size="10.00">override char Symbol</text>
<text text-anchor="start" x="187.5" y="-420.5" font-family="Helvetica,sans-Serif" font-size="10.00">+</text>
<text text-anchor="start" x="200.5" y="-420.5" font-family="Helvetica,sans-Serif" font-size="10.00">int Strength</text>
<text text-anchor="start" x="187.5" y="-405.5" font-family="Helvetica,sans-Serif" font-size="10.00">+</text>
<text text-anchor="start" x="200.5" y="-405.5" font-family="Helvetica,sans-Serif" font-size="10.00">int Dexterity</text>
<text text-anchor="start" x="187.5" y="-390.5" font-family="Helvetica,sans-Serif" font-size="10.00">+</text>
<text text-anchor="start" x="200.5" y="-390.5" font-family="Helvetica,sans-Serif" font-size="10.00">int Health</text>
<text text-anchor="start" x="187.5" y="-375.5" font-family="Helvetica,sans-Serif" font-size="10.00">+</text>
<text text-anchor="start" x="200.5" y="-375.5" font-family="Helvetica,sans-Serif" font-size="10.00">int Luck</text>
<text text-anchor="start" x="187.5" y="-360.5" font-family="Helvetica,sans-Serif" font-size="10.00">+</text>
<text text-anchor="start" x="200.5" y="-360.5" font-family="Helvetica,sans-Serif" font-size="10.00">int Aggression</text>
<text text-anchor="start" x="187.5" y="-345.5" font-family="Helvetica,sans-Serif" font-size="10.00">+</text>
<text text-anchor="start" x="200.5" y="-345.5" font-family="Helvetica,sans-Serif" font-size="10.00">int Wisdom</text>
<text text-anchor="start" x="187.5" y="-330.5" font-family="Helvetica,sans-Serif" font-size="10.00">+</text>
<text text-anchor="start" x="200.5" y="-330.5" font-family="Helvetica,sans-Serif" font-size="10.00">IEquippable? LeftHand</text>
<text text-anchor="start" x="187.5" y="-315.5" font-family="Helvetica,sans-Serif" font-size="10.00">+</text>
<text text-anchor="start" x="200.5" y="-315.5" font-family="Helvetica,sans-Serif" font-size="10.00">IEquippable? RightHand</text>
<text text-anchor="start" x="187.5" y="-300.5" font-family="Helvetica,sans-Serif" font-size="10.00">+</text>
<text text-anchor="start" x="200.5" y="-300.5" font-family="Helvetica,sans-Serif" font-size="10.00">int Coins</text>
<text text-anchor="start" x="187.5" y="-285.5" font-family="Helvetica,sans-Serif" font-size="10.00">+</text>
<text text-anchor="start" x="200.5" y="-285.5" font-family="Helvetica,sans-Serif" font-size="10.00">int Gold</text>
<text text-anchor="start" x="187.5" y="-270.5" font-family="Helvetica,sans-Serif" font-size="10.00">+</text>
<text text-anchor="start" x="200.5" y="-270.5" font-family="Helvetica,sans-Serif" font-size="10.00">void RestoreHealth</text>
<text text-anchor="start" x="200.5" y="-259.5" font-family="Helvetica,sans-Serif" font-size="10.00">(int amount)</text>
<text text-anchor="start" x="187.5" y="-244.5" font-family="Helvetica,sans-Serif" font-size="10.00">+</text>
<text text-anchor="start" x="200.5" y="-244.5" font-family="Helvetica,sans-Serif" font-size="10.00">void TakeDamage(int</text>
<text text-anchor="start" x="200.5" y="-233.5" font-family="Helvetica,sans-Serif" font-size="10.00"> amount)</text>
<text text-anchor="start" x="187.5" y="-218.5" font-family="Helvetica,sans-Serif" font-size="10.00">+</text>
<text text-anchor="start" x="200.5" y="-218.5" font-family="Helvetica,sans-Serif" font-size="10.00">void AddCoins(int amount)</text>
<text text-anchor="start" x="187.5" y="-203.5" font-family="Helvetica,sans-Serif" font-size="10.00">+</text>
<text text-anchor="start" x="200.5" y="-203.5" font-family="Helvetica,sans-Serif" font-size="10.00">void AddGold(int amount)</text>
<text text-anchor="start" x="187.5" y="-188.5" font-family="Helvetica,sans-Serif" font-size="10.00">+</text>
<text text-anchor="start" x="200.5" y="-188.5" font-family="Helvetica,sans-Serif" font-size="10.00">bool EquipLeft(IEquippable</text>
<text text-anchor="start" x="200.5" y="-177.5" font-family="Helvetica,sans-Serif" font-size="10.00"> item)</text>
<text text-anchor="start" x="187.5" y="-162.5" font-family="Helvetica,sans-Serif" font-size="10.00">+</text>
<text text-anchor="start" x="200.5" y="-162.5" font-family="Helvetica,sans-Serif" font-size="10.00">bool EquipRight(IEquippable</text>
<text text-anchor="start" x="200.5" y="-151.5" font-family="Helvetica,sans-Serif" font-size="10.00"> item)</text>
<text text-anchor="start" x="187.5" y="-136.5" font-family="Helvetica,sans-Serif" font-size="10.00">+</text>
<text text-anchor="start" x="200.5" y="-136.5" font-family="Helvetica,sans-Serif" font-size="10.00">void DropLeft(Level</text>
<text text-anchor="start" x="200.5" y="-125.5" font-family="Helvetica,sans-Serif" font-size="10.00"> level)</text>
<text text-anchor="start" x="187.5" y="-110.5" font-family="Helvetica,sans-Serif" font-size="10.00">+</text>
<text text-anchor="start" x="200.5" y="-110.5" font-family="Helvetica,sans-Serif" font-size="10.00">void DropRight(Level</text>
<text text-anchor="start" x="200.5" y="-99.5" font-family="Helvetica,sans-Serif" font-size="10.00"> level)</text>
<text text-anchor="start" x="187.5" y="-84.5" font-family="Helvetica,sans-Serif" font-size="10.00">+</text>
<text text-anchor="start" x="200.5" y="-84.5" font-family="Helvetica,sans-Serif" font-size="10.00">Player(Position startPosition)</text>
<text text-anchor="start" x="187.5" y="-69.5" font-family="Helvetica,sans-Serif" font-size="10.00">~</text>
<text text-anchor="start" x="200.5" y="-69.5" font-family="Helvetica,sans-Serif" font-size="10.00">bool InternalEquipLeft</text>
<text text-anchor="start" x="200.5" y="-58.5" font-family="Helvetica,sans-Serif" font-size="10.00">(IEquippable item)</text>
<text text-anchor="start" x="187.5" y="-43.5" font-family="Helvetica,sans-Serif" font-size="10.00">~</text>
<text text-anchor="start" x="200.5" y="-43.5" font-family="Helvetica,sans-Serif" font-size="10.00">bool InternalEquipRight</text>
<text text-anchor="start" x="200.5" y="-32.5" font-family="Helvetica,sans-Serif" font-size="10.00">(IEquippable item)</text>
<text text-anchor="start" x="187.5" y="-17.5" font-family="Helvetica,sans-Serif" font-size="10.00">~</text>
<text text-anchor="start" x="200.5" y="-17.5" font-family="Helvetica,sans-Serif" font-size="10.00">bool InternalEquipTwoHand</text>
<text text-anchor="start" x="200.5" y="-6.5" font-family="Helvetica,sans-Serif" font-size="10.00">(IEquippable item)</text>
<polygon fill="#666666" stroke="#666666" points="183.5,-445.5 183.5,-445.5 346.5,-445.5 346.5,-445.5 183.5,-445.5"/>
<polygon fill="#666666" stroke="#666666" points="183.5,-280.5 183.5,-280.5 198.5,-280.5 198.5,-280.5 183.5,-280.5"/>
<polygon fill="#666666" stroke="#666666" points="198.5,-280.5 198.5,-280.5 346.5,-280.5 346.5,-280.5 198.5,-280.5"/>
<polygon fill="none" stroke="#666666" points="183,0 183,-463 346,-463 346,0 183,0"/>
</a>
</g>
</g>
<!-- Node1&#45;&gt;Node3 -->
<g id="edge2_Node000001_Node000003" class="edge">
<title>Node1&#45;&gt;Node3</title>
<g id="a_edge2_Node000001_Node000003"><a xlink:title=" ">
<path fill="none" stroke="#63b8ff" d="M190.6,-489.12C192.95,-480.95 195.47,-472.2 198.11,-463.04"/>
<polygon fill="none" stroke="#63b8ff" points="187.22,-488.2 187.82,-498.78 193.95,-490.14 187.22,-488.2"/>
</a>
</g>
</g>
</g>
</svg>
