<?xml version="1.0" encoding="UTF-8" standalone="no"?>
<!DOCTYPE svg PUBLIC "-//W3C//DTD SVG 1.1//EN"
 "http://www.w3.org/Graphics/SVG/1.1/DTD/svg11.dtd">
<!-- Generated by graphviz version 13.1.2 (20250808.2320)
 -->
<!-- Title: RpgGame.Character.Player.Player Pages: 1 -->
<svg width="329pt" height="50pt"
 viewBox="0.00 0.00 329.00 50.00" xmlns="http://www.w3.org/2000/svg" xmlns:xlink="http://www.w3.org/1999/xlink">
<g id="graph0" class="graph" transform="scale(1 1) rotate(0) translate(4 45.75)">
<title>RpgGame.Character.Player.Player</title>
<!-- Node1 -->
<g id="Node000001" class="node">
<title>Node1</title>
<g id="a_Node000001"><a xlink:title="Initializes a new instance of the Player class.">
<polygon fill="#999999" stroke="#666666" points="139.75,-29 0,-29 0,0 139.75,0 139.75,-29"/>
<text xml:space="preserve" text-anchor="start" x="8" y="-15.5" font-family="Helvetica,sans-Serif" font-size="10.00">RpgGame.Character.Player.</text>
<text xml:space="preserve" text-anchor="middle" x="69.88" y="-5" font-family="Helvetica,sans-Serif" font-size="10.00">Player</text>
</a>
</g>
</g>
<!-- Node2 -->
<g id="Node000002" class="node">
<title>Node2</title>
<g id="a_Node000002"><a xlink:href="namespaceRpgGame_1_1Character.html#ab2e6f640f8bfc682c50e3c19e0d417f1" target="_top" xlink:title="A record for tracking the position of Characters, Items, and Tiles if needed.">
<polygon fill="white" stroke="#666666" points="320.75,-23.75 175.75,-23.75 175.75,-5.25 320.75,-5.25 320.75,-23.75"/>
<text xml:space="preserve" text-anchor="middle" x="248.25" y="-10.25" font-family="Helvetica,sans-Serif" font-size="10.00">RpgGame.Character.Position</text>
</a>
</g>
</g>
<!-- Node1&#45;&gt;Node2 -->
<g id="edge1_Node000001_Node000002" class="edge">
<title>Node1&#45;&gt;Node2</title>
<g id="a_edge1_Node000001_Node000002"><a xlink:title=" ">
<path fill="none" stroke="#63b8ff" d="M140.08,-14.5C147.95,-14.5 156.03,-14.5 164.06,-14.5"/>
<polygon fill="#63b8ff" stroke="#63b8ff" points="163.83,-18 173.83,-14.5 163.83,-11 163.83,-18"/>
</a>
</g>
</g>
<!-- Node2&#45;&gt;Node2 -->
<g id="edge2_Node000002_Node000002" class="edge">
<title>Node2&#45;&gt;Node2</title>
<g id="a_edge2_Node000002_Node000002"><a xlink:title=" ">
<path fill="none" stroke="#63b8ff" d="M220.76,-24C207.38,-32.57 216.55,-41.75 248.25,-41.75 267.07,-41.75 277.95,-38.51 280.88,-34.09"/>
<polygon fill="#63b8ff" stroke="#63b8ff" points="284.09,-32.67 276.43,-25.34 277.85,-35.84 284.09,-32.67"/>
</a>
</g>
</g>
</g>
</svg>
