<?xml version="1.0" encoding="UTF-8" standalone="no"?>
<!DOCTYPE svg PUBLIC "-//W3C//DTD SVG 1.1//EN"
 "http://www.w3.org/Graphics/SVG/1.1/DTD/svg11.dtd">
<!-- Generated by graphviz version 13.1.2 (20250808.2320)
 -->
<!-- Title: RpgGame.Generation.MapSpawnHelper.SpawnItemsAsync&lt; TItem &gt; Pages: 1 -->
<svg width="352pt" height="55pt"
 viewBox="0.00 0.00 352.00 55.00" xmlns="http://www.w3.org/2000/svg" xmlns:xlink="http://www.w3.org/1999/xlink">
<g id="graph0" class="graph" transform="scale(1 1) rotate(0) translate(4 51)">
<title>RpgGame.Generation.MapSpawnHelper.SpawnItemsAsync&lt; TItem &gt;</title>
<!-- Node1 -->
<g id="Node000001" class="node">
<title>Node1</title>
<g id="a_Node000001"><a xlink:title=" ">
<polygon fill="#999999" stroke="#666666" points="163,-39.5 0,-39.5 0,0 163,0 163,-39.5"/>
<text xml:space="preserve" text-anchor="start" x="8" y="-26" font-family="Helvetica,sans-Serif" font-size="10.00">RpgGame.Generation.MapSpawn</text>
<text xml:space="preserve" text-anchor="start" x="8" y="-15.5" font-family="Helvetica,sans-Serif" font-size="10.00">Helper.SpawnItemsAsync&lt;</text>
<text xml:space="preserve" text-anchor="middle" x="81.5" y="-5" font-family="Helvetica,sans-Serif" font-size="10.00"> TItem &gt;</text>
</a>
</g>
</g>
<!-- Node2 -->
<g id="Node000002" class="node">
<title>Node2</title>
<g id="a_Node000002"><a xlink:href="namespaceRpgGame_1_1Character.html#ab2e6f640f8bfc682c50e3c19e0d417f1" target="_top" xlink:title="A record for tracking the position of Characters, Items, and Tiles if needed.">
<polygon fill="white" stroke="#666666" points="344,-29 199,-29 199,-10.5 344,-10.5 344,-29"/>
<text xml:space="preserve" text-anchor="middle" x="271.5" y="-15.5" font-family="Helvetica,sans-Serif" font-size="10.00">RpgGame.Character.Position</text>
</a>
</g>
</g>
<!-- Node1&#45;&gt;Node2 -->
<g id="edge1_Node000001_Node000002" class="edge">
<title>Node1&#45;&gt;Node2</title>
<g id="a_edge1_Node000001_Node000002"><a xlink:title=" ">
<path fill="none" stroke="#63b8ff" d="M163.32,-19.75C171.21,-19.75 179.23,-19.75 187.14,-19.75"/>
<polygon fill="#63b8ff" stroke="#63b8ff" points="187.12,-23.25 197.12,-19.75 187.12,-16.25 187.12,-23.25"/>
</a>
</g>
</g>
<!-- Node2&#45;&gt;Node2 -->
<g id="edge2_Node000002_Node000002" class="edge">
<title>Node2&#45;&gt;Node2</title>
<g id="a_edge2_Node000002_Node000002"><a xlink:title=" ">
<path fill="none" stroke="#63b8ff" d="M242.22,-29.25C227.97,-37.82 237.73,-47 271.5,-47 291.55,-47 303.14,-43.76 306.26,-39.34"/>
<polygon fill="#63b8ff" stroke="#63b8ff" points="309.35,-37.7 301.51,-30.58 303.2,-41.03 309.35,-37.7"/>
</a>
</g>
</g>
</g>
</svg>
