<?xml version="1.0" encoding="UTF-8" standalone="no"?>
<!DOCTYPE svg PUBLIC "-//W3C//DTD SVG 1.1//EN"
 "http://www.w3.org/Graphics/SVG/1.1/DTD/svg11.dtd">
<!-- Generated by graphviz version 2.43.0 (0)
 -->
<!-- Title: RpgGame.Input.InventoryToRightHandCommand.Execute Pages: 1 -->
<svg width="746pt" height="38pt"
 viewBox="0.00 0.00 746.00 38.00" xmlns="http://www.w3.org/2000/svg" xmlns:xlink="http://www.w3.org/1999/xlink">
<g id="graph0" class="graph" transform="scale(1 1) rotate(0) translate(4 34)">
<title>RpgGame.Input.InventoryToRightHandCommand.Execute</title>
<!-- Node1 -->
<g id="Node000001" class="node">
<title>Node1</title>
<g id="a_Node000001"><a xlink:title="Executes the command using provided game objects.Typically 1 to indicate the game should continue,...">
<polygon fill="#999999" stroke="#666666" points="159,-30 0,-30 0,0 159,0 159,-30"/>
<text text-anchor="start" x="8" y="-18" font-family="Helvetica,sans-Serif" font-size="10.00">RpgGame.Input.InventoryTo</text>
<text text-anchor="middle" x="79.5" y="-7" font-family="Helvetica,sans-Serif" font-size="10.00">RightHandCommand.Execute</text>
</a>
</g>
</g>
<!-- Node2 -->
<g id="Node000002" class="node">
<title>Node2</title>
<g id="a_Node000002"><a xlink:href="classRpgGame_1_1Core_1_1Inventory.html#ac6f47b993f9088ebe1c950f9d26cbe1d" target="_top" xlink:title="Equips the selected item in the inventory to the player&#39;s right hand and removes it from inventory.">
<polygon fill="white" stroke="#666666" points="358,-30 195,-30 195,0 358,0 358,-30"/>
<text text-anchor="start" x="203" y="-18" font-family="Helvetica,sans-Serif" font-size="10.00">RpgGame.Core.Inventory.Take</text>
<text text-anchor="middle" x="276.5" y="-7" font-family="Helvetica,sans-Serif" font-size="10.00">ToRight</text>
</a>
</g>
</g>
<!-- Node1&#45;&gt;Node2 -->
<g id="edge1_Node000001_Node000002" class="edge">
<title>Node1&#45;&gt;Node2</title>
<g id="a_edge1_Node000001_Node000002"><a xlink:title=" ">
<path fill="none" stroke="#63b8ff" d="M159.25,-15C167.59,-15 176.12,-15 184.59,-15"/>
<polygon fill="#63b8ff" stroke="#63b8ff" points="184.87,-18.5 194.87,-15 184.87,-11.5 184.87,-18.5"/>
</a>
</g>
</g>
<!-- Node3 -->
<g id="Node000003" class="node">
<title>Node3</title>
<g id="a_Node000003"><a xlink:href="classRpgGame_1_1Character_1_1Player.html#ab5c26000021438899c9d3e4d36e8d2b7" target="_top" xlink:title="Attempts to equip an item into the right hand.">
<polygon fill="white" stroke="#666666" points="544,-30 394,-30 394,0 544,0 544,-30"/>
<text text-anchor="start" x="402" y="-18" font-family="Helvetica,sans-Serif" font-size="10.00">RpgGame.Character.Player.</text>
<text text-anchor="middle" x="469" y="-7" font-family="Helvetica,sans-Serif" font-size="10.00">EquipRight</text>
</a>
</g>
</g>
<!-- Node2&#45;&gt;Node3 -->
<g id="edge2_Node000002_Node000003" class="edge">
<title>Node2&#45;&gt;Node3</title>
<g id="a_edge2_Node000002_Node000003"><a xlink:title=" ">
<path fill="none" stroke="#63b8ff" d="M358.01,-15C366.46,-15 375.06,-15 383.55,-15"/>
<polygon fill="#63b8ff" stroke="#63b8ff" points="383.83,-18.5 393.83,-15 383.83,-11.5 383.83,-18.5"/>
</a>
</g>
</g>
<!-- Node4 -->
<g id="Node000004" class="node">
<title>Node4</title>
<g id="a_Node000004"><a xlink:href="interfaceRpgGame_1_1Items_1_1IEquippable.html#af848669fb642e88ff29ad90b4fda0892" target="_top" xlink:title="Attempts to equip the item in the player&#39;s right hand.">
<polygon fill="white" stroke="#666666" points="738,-30 580,-30 580,0 738,0 738,-30"/>
<text text-anchor="start" x="588" y="-18" font-family="Helvetica,sans-Serif" font-size="10.00">RpgGame.Items.IEquippable.</text>
<text text-anchor="middle" x="659" y="-7" font-family="Helvetica,sans-Serif" font-size="10.00">TryEquipToRight</text>
</a>
</g>
</g>
<!-- Node3&#45;&gt;Node4 -->
<g id="edge3_Node000003_Node000004" class="edge">
<title>Node3&#45;&gt;Node4</title>
<g id="a_edge3_Node000003_Node000004"><a xlink:title=" ">
<path fill="none" stroke="#63b8ff" d="M544.03,-15C552.45,-15 561.1,-15 569.68,-15"/>
<polygon fill="#63b8ff" stroke="#63b8ff" points="569.7,-18.5 579.7,-15 569.7,-11.5 569.7,-18.5"/>
</a>
</g>
</g>
</g>
</svg>
