<?xml version="1.0" encoding="UTF-8" standalone="no"?>
<!DOCTYPE svg PUBLIC "-//W3C//DTD SVG 1.1//EN"
 "http://www.w3.org/Graphics/SVG/1.1/DTD/svg11.dtd">
<!-- Generated by graphviz version 13.1.2 (20250808.2320)
 -->
<!-- Title: RpgGame.Core.Level.TryMoveCharacter Pages: 1 -->
<svg width="380pt" height="178pt"
 viewBox="0.00 0.00 380.00 178.00" xmlns="http://www.w3.org/2000/svg" xmlns:xlink="http://www.w3.org/1999/xlink">
<g id="graph0" class="graph" transform="scale(1 1) rotate(0) translate(4 174)">
<title>RpgGame.Core.Level.TryMoveCharacter</title>
<!-- Node1 -->
<g id="Node000001" class="node">
<title>Node1</title>
<g id="a_Node000001"><a xlink:title="Attempts to move a character to a new position if the move is valid. Also handles item interactions f...">
<polygon fill="#999999" stroke="#666666" points="371.75,-99 220.75,-99 220.75,-70 371.75,-70 371.75,-99"/>
<text xml:space="preserve" text-anchor="start" x="228.75" y="-85.5" font-family="Helvetica,sans-Serif" font-size="10.00">RpgGame.Core.Level.TryMove</text>
<text xml:space="preserve" text-anchor="middle" x="296.25" y="-75" font-family="Helvetica,sans-Serif" font-size="10.00">Character</text>
</a>
</g>
</g>
<!-- Node2 -->
<g id="Node000002" class="node">
<title>Node2</title>
<g id="a_Node000002"><a xlink:href="classRpgGame_1_1Input_1_1MoveDownCommand.html#ae2bb14b8cd81c7dfd4c024e7816d3856" target="_top" xlink:title="Executes the command using provided game objects.Typically 1 to indicate the game should continue,...">
<polygon fill="white" stroke="#666666" points="184.75,-170 0,-170 0,-141 184.75,-141 184.75,-170"/>
<text xml:space="preserve" text-anchor="start" x="8" y="-156.5" font-family="Helvetica,sans-Serif" font-size="10.00">RpgGame.Input.MoveDownCommand.</text>
<text xml:space="preserve" text-anchor="middle" x="92.38" y="-146" font-family="Helvetica,sans-Serif" font-size="10.00">Execute</text>
</a>
</g>
</g>
<!-- Node1&#45;&gt;Node2 -->
<g id="edge1_Node000001_Node000002" class="edge">
<title>Node1&#45;&gt;Node2</title>
<g id="a_edge1_Node000001_Node000002"><a xlink:title=" ">
<path fill="none" stroke="#63b8ff" d="M254.54,-104.08C233.94,-113.5 208.35,-124.46 184.75,-132.5 176.23,-135.4 167.16,-138.12 158.16,-140.59"/>
<polygon fill="#63b8ff" stroke="#63b8ff" points="255.84,-107.34 263.45,-99.96 252.9,-100.98 255.84,-107.34"/>
</a>
</g>
</g>
<!-- Node3 -->
<g id="Node000003" class="node">
<title>Node3</title>
<g id="a_Node000003"><a xlink:href="classRpgGame_1_1Input_1_1MoveLeftCommand.html#a6f72bae13e13dfec5271a62e066d6c6e" target="_top" xlink:title="Executes the command using provided game objects.Typically 1 to indicate the game should continue,...">
<polygon fill="white" stroke="#666666" points="180.25,-123 4.5,-123 4.5,-94 180.25,-94 180.25,-123"/>
<text xml:space="preserve" text-anchor="start" x="12.5" y="-109.5" font-family="Helvetica,sans-Serif" font-size="10.00">RpgGame.Input.MoveLeftCommand.</text>
<text xml:space="preserve" text-anchor="middle" x="92.38" y="-99" font-family="Helvetica,sans-Serif" font-size="10.00">Execute</text>
</a>
</g>
</g>
<!-- Node1&#45;&gt;Node3 -->
<g id="edge2_Node000001_Node000003" class="edge">
<title>Node1&#45;&gt;Node3</title>
<g id="a_edge2_Node000001_Node000003"><a xlink:title=" ">
<path fill="none" stroke="#63b8ff" d="M209.05,-94.75C199.68,-95.86 190.13,-97 180.75,-98.11"/>
<polygon fill="#63b8ff" stroke="#63b8ff" points="209.35,-98.24 218.86,-93.58 208.52,-91.29 209.35,-98.24"/>
</a>
</g>
</g>
<!-- Node4 -->
<g id="Node000004" class="node">
<title>Node4</title>
<g id="a_Node000004"><a xlink:href="classRpgGame_1_1Input_1_1MoveRightCommand.html#addf3f1cf8496209ebc90dca7ab2e8e44" target="_top" xlink:title="Executes the command using provided game objects.Typically 1 to indicate the game should continue,...">
<polygon fill="white" stroke="#666666" points="183.62,-76 1.12,-76 1.12,-47 183.62,-47 183.62,-76"/>
<text xml:space="preserve" text-anchor="start" x="9.12" y="-62.5" font-family="Helvetica,sans-Serif" font-size="10.00">RpgGame.Input.MoveRightCommand.</text>
<text xml:space="preserve" text-anchor="middle" x="92.38" y="-52" font-family="Helvetica,sans-Serif" font-size="10.00">Execute</text>
</a>
</g>
</g>
<!-- Node1&#45;&gt;Node4 -->
<g id="edge3_Node000001_Node000004" class="edge">
<title>Node1&#45;&gt;Node4</title>
<g id="a_edge3_Node000001_Node000004"><a xlink:title=" ">
<path fill="none" stroke="#63b8ff" d="M209.09,-74.68C200.73,-73.73 192.25,-72.76 183.85,-71.81"/>
<polygon fill="#63b8ff" stroke="#63b8ff" points="208.53,-78.14 218.86,-75.8 209.32,-71.19 208.53,-78.14"/>
</a>
</g>
</g>
<!-- Node5 -->
<g id="Node000005" class="node">
<title>Node5</title>
<g id="a_Node000005"><a xlink:href="classRpgGame_1_1Input_1_1MoveUpCommand.html#a0db6076a2d209af09ab0149e5fef7674" target="_top" xlink:title="Executes the command using provided game objects.Typically 1 to indicate the game should continue,...">
<polygon fill="white" stroke="#666666" points="178.38,-29 6.38,-29 6.38,0 178.38,0 178.38,-29"/>
<text xml:space="preserve" text-anchor="start" x="14.38" y="-15.5" font-family="Helvetica,sans-Serif" font-size="10.00">RpgGame.Input.MoveUpCommand.</text>
<text xml:space="preserve" text-anchor="middle" x="92.38" y="-5" font-family="Helvetica,sans-Serif" font-size="10.00">Execute</text>
</a>
</g>
</g>
<!-- Node1&#45;&gt;Node5 -->
<g id="edge4_Node000001_Node000005" class="edge">
<title>Node1&#45;&gt;Node5</title>
<g id="a_edge4_Node000001_Node000005"><a xlink:title=" ">
<path fill="none" stroke="#63b8ff" d="M252.37,-65.03C232.11,-56.25 207.45,-46.16 184.75,-38.5 175.27,-35.3 165.12,-32.26 155.16,-29.49"/>
<polygon fill="#63b8ff" stroke="#63b8ff" points="250.87,-68.2 261.44,-69.01 253.68,-61.79 250.87,-68.2"/>
</a>
</g>
</g>
</g>
</svg>
