<?xml version="1.0" encoding="UTF-8" standalone="no"?>
<!DOCTYPE svg PUBLIC "-//W3C//DTD SVG 1.1//EN"
 "http://www.w3.org/Graphics/SVG/1.1/DTD/svg11.dtd">
<!-- Generated by graphviz version 13.1.2 (20250808.2320)
 -->
<!-- Title: RpgGame.Core.Level.GetTile Pages: 1 -->
<svg width="742pt" height="240pt"
 viewBox="0.00 0.00 742.00 240.00" xmlns="http://www.w3.org/2000/svg" xmlns:xlink="http://www.w3.org/1999/xlink">
<g id="graph0" class="graph" transform="scale(1 1) rotate(0) translate(4 236)">
<title>RpgGame.Core.Level.GetTile</title>
<!-- Node1 -->
<g id="Node000001" class="node">
<title>Node1</title>
<g id="a_Node000001"><a xlink:title="Retrieves the tile at the specified coordinates.">
<polygon fill="#999999" stroke="#666666" points="733.75,-125.75 588.75,-125.75 588.75,-107.25 733.75,-107.25 733.75,-125.75"/>
<text xml:space="preserve" text-anchor="middle" x="661.25" y="-112.25" font-family="Helvetica,sans-Serif" font-size="10.00">RpgGame.Core.Level.GetTile</text>
</a>
</g>
</g>
<!-- Node2 -->
<g id="Node000002" class="node">
<title>Node2</title>
<g id="a_Node000002"><a xlink:href="classRpgGame_1_1Input_1_1MoveDownCommand.html#ae2bb14b8cd81c7dfd4c024e7816d3856" target="_top" xlink:title="Executes the command using provided game objects.Typically 1 to indicate the game should continue,...">
<polygon fill="white" stroke="#666666" points="184.75,-232 0,-232 0,-203 184.75,-203 184.75,-232"/>
<text xml:space="preserve" text-anchor="start" x="8" y="-218.5" font-family="Helvetica,sans-Serif" font-size="10.00">RpgGame.Input.MoveDownCommand.</text>
<text xml:space="preserve" text-anchor="middle" x="92.38" y="-208" font-family="Helvetica,sans-Serif" font-size="10.00">Execute</text>
</a>
</g>
</g>
<!-- Node1&#45;&gt;Node2 -->
<g id="edge1_Node000001_Node000002" class="edge">
<title>Node1&#45;&gt;Node2</title>
<g id="a_edge1_Node000001_Node000002"><a xlink:title=" ">
<path fill="none" stroke="#63b8ff" d="M640.66,-133.45C620.24,-150 586.55,-174.3 552.75,-185.5 430.2,-226.13 279.45,-228.23 184.85,-224.25"/>
<polygon fill="#63b8ff" stroke="#63b8ff" points="642.7,-136.3 648.15,-127.21 638.23,-130.92 642.7,-136.3"/>
</a>
</g>
</g>
<!-- Node3 -->
<g id="Node000003" class="node">
<title>Node3</title>
<g id="a_Node000003"><a xlink:href="classRpgGame_1_1Input_1_1MoveLeftCommand.html#a6f72bae13e13dfec5271a62e066d6c6e" target="_top" xlink:title="Executes the command using provided game objects.Typically 1 to indicate the game should continue,...">
<polygon fill="white" stroke="#666666" points="180.25,-184 4.5,-184 4.5,-155 180.25,-155 180.25,-184"/>
<text xml:space="preserve" text-anchor="start" x="12.5" y="-170.5" font-family="Helvetica,sans-Serif" font-size="10.00">RpgGame.Input.MoveLeftCommand.</text>
<text xml:space="preserve" text-anchor="middle" x="92.38" y="-160" font-family="Helvetica,sans-Serif" font-size="10.00">Execute</text>
</a>
</g>
</g>
<!-- Node1&#45;&gt;Node3 -->
<g id="edge2_Node000001_Node000003" class="edge">
<title>Node1&#45;&gt;Node3</title>
<g id="a_edge2_Node000001_Node000003"><a xlink:title=" ">
<path fill="none" stroke="#63b8ff" d="M633.28,-131.54C612.1,-142.47 581.49,-156.38 552.75,-162.5 425.39,-189.62 273.66,-185 180.43,-178.09"/>
<polygon fill="#63b8ff" stroke="#63b8ff" points="634.9,-134.64 642.1,-126.86 631.62,-128.46 634.9,-134.64"/>
</a>
</g>
</g>
<!-- Node4 -->
<g id="Node000004" class="node">
<title>Node4</title>
<g id="a_Node000004"><a xlink:href="classRpgGame_1_1Input_1_1MoveRightCommand.html#addf3f1cf8496209ebc90dca7ab2e8e44" target="_top" xlink:title="Executes the command using provided game objects.Typically 1 to indicate the game should continue,...">
<polygon fill="white" stroke="#666666" points="183.62,-134 1.12,-134 1.12,-105 183.62,-105 183.62,-134"/>
<text xml:space="preserve" text-anchor="start" x="9.12" y="-120.5" font-family="Helvetica,sans-Serif" font-size="10.00">RpgGame.Input.MoveRightCommand.</text>
<text xml:space="preserve" text-anchor="middle" x="92.38" y="-110" font-family="Helvetica,sans-Serif" font-size="10.00">Execute</text>
</a>
</g>
</g>
<!-- Node1&#45;&gt;Node4 -->
<g id="edge3_Node000001_Node000004" class="edge">
<title>Node1&#45;&gt;Node4</title>
<g id="a_edge3_Node000001_Node000004"><a xlink:title=" ">
<path fill="none" stroke="#63b8ff" d="M577.01,-115.42C488.61,-114.48 344.82,-113.55 220.75,-115.5 208.8,-115.69 196.23,-115.97 183.83,-116.31"/>
<polygon fill="#63b8ff" stroke="#63b8ff" points="576.75,-118.92 586.79,-115.53 576.83,-111.92 576.75,-118.92"/>
</a>
</g>
</g>
<!-- Node5 -->
<g id="Node000005" class="node">
<title>Node5</title>
<g id="a_Node000005"><a xlink:href="classRpgGame_1_1Input_1_1MoveUpCommand.html#a0db6076a2d209af09ab0149e5fef7674" target="_top" xlink:title="Executes the command using provided game objects.Typically 1 to indicate the game should continue,...">
<polygon fill="white" stroke="#666666" points="178.38,-82 6.38,-82 6.38,-53 178.38,-53 178.38,-82"/>
<text xml:space="preserve" text-anchor="start" x="14.38" y="-68.5" font-family="Helvetica,sans-Serif" font-size="10.00">RpgGame.Input.MoveUpCommand.</text>
<text xml:space="preserve" text-anchor="middle" x="92.38" y="-58" font-family="Helvetica,sans-Serif" font-size="10.00">Execute</text>
</a>
</g>
</g>
<!-- Node1&#45;&gt;Node5 -->
<g id="edge4_Node000001_Node000005" class="edge">
<title>Node1&#45;&gt;Node5</title>
<g id="a_edge4_Node000001_Node000005"><a xlink:title=" ">
<path fill="none" stroke="#63b8ff" d="M577.1,-109.31C470.35,-100.09 286.09,-84.16 178.43,-74.85"/>
<polygon fill="#63b8ff" stroke="#63b8ff" points="576.68,-112.79 586.95,-110.16 577.29,-105.82 576.68,-112.79"/>
</a>
</g>
</g>
<!-- Node6 -->
<g id="Node000006" class="node">
<title>Node6</title>
<g id="a_Node000006"><a xlink:href="classRpgGame_1_1Core_1_1Level.html#af9e6a4b820c77f9390aed74bdc0f1c8a" target="_top" xlink:title="Determines whether a character can move to the specified position.">
<polygon fill="white" stroke="#666666" points="552.75,-153 407.75,-153 407.75,-124 552.75,-124 552.75,-153"/>
<text xml:space="preserve" text-anchor="start" x="415.75" y="-139.5" font-family="Helvetica,sans-Serif" font-size="10.00">RpgGame.Core.Level.IsMove</text>
<text xml:space="preserve" text-anchor="middle" x="480.25" y="-129" font-family="Helvetica,sans-Serif" font-size="10.00">Valid</text>
</a>
</g>
</g>
<!-- Node1&#45;&gt;Node6 -->
<g id="edge5_Node000001_Node000006" class="edge">
<title>Node1&#45;&gt;Node6</title>
<g id="a_edge5_Node000001_Node000006"><a xlink:title=" ">
<path fill="none" stroke="#63b8ff" d="M577.16,-126.71C569.1,-127.7 560.97,-128.7 553.04,-129.68"/>
<polygon fill="#63b8ff" stroke="#63b8ff" points="577.47,-130.2 586.97,-125.51 576.62,-123.25 577.47,-130.2"/>
</a>
</g>
</g>
<!-- Node8 -->
<g id="Node000008" class="node">
<title>Node8</title>
<g id="a_Node000008"><a xlink:href="classRpgGame_1_1Renderer_1_1ConsoleRenderer.html#a8165e28216b39fd3fbd460f3541ddcf3" target="_top" xlink:title="Renders the current level state and player information to the console. If the help flag is set,...">
<polygon fill="white" stroke="#666666" points="551.25,-29 409.25,-29 409.25,0 551.25,0 551.25,-29"/>
<text xml:space="preserve" text-anchor="start" x="417.25" y="-15.5" font-family="Helvetica,sans-Serif" font-size="10.00">RpgGame.Renderer.Console</text>
<text xml:space="preserve" text-anchor="middle" x="480.25" y="-5" font-family="Helvetica,sans-Serif" font-size="10.00">Renderer.Render</text>
</a>
</g>
</g>
<!-- Node1&#45;&gt;Node8 -->
<g id="edge11_Node000001_Node000008" class="edge">
<title>Node1&#45;&gt;Node8</title>
<g id="a_edge11_Node000001_Node000008"><a xlink:title=" ">
<path fill="none" stroke="#63b8ff" d="M638.86,-99.98C617.76,-84.17 584.18,-60.3 552.75,-43.5 543.18,-38.38 532.51,-33.6 522.39,-29.46"/>
<polygon fill="#63b8ff" stroke="#63b8ff" points="636.6,-102.66 646.69,-105.91 640.83,-97.08 636.6,-102.66"/>
</a>
</g>
</g>
<!-- Node7 -->
<g id="Node000007" class="node">
<title>Node7</title>
<g id="a_Node000007"><a xlink:href="classRpgGame_1_1Core_1_1Level.html#a069520f8d4f28477ce45023ad97fbd95" target="_top" xlink:title="Attempts to move a character to a new position if the move is valid.">
<polygon fill="white" stroke="#666666" points="371.75,-153 220.75,-153 220.75,-124 371.75,-124 371.75,-153"/>
<text xml:space="preserve" text-anchor="start" x="228.75" y="-139.5" font-family="Helvetica,sans-Serif" font-size="10.00">RpgGame.Core.Level.TryMove</text>
<text xml:space="preserve" text-anchor="middle" x="296.25" y="-129" font-family="Helvetica,sans-Serif" font-size="10.00">Character</text>
</a>
</g>
</g>
<!-- Node6&#45;&gt;Node7 -->
<g id="edge6_Node000006_Node000007" class="edge">
<title>Node6&#45;&gt;Node7</title>
<g id="a_edge6_Node000006_Node000007"><a xlink:title=" ">
<path fill="none" stroke="#63b8ff" d="M395.86,-138.5C387.99,-138.5 380.04,-138.5 372.24,-138.5"/>
<polygon fill="#63b8ff" stroke="#63b8ff" points="395.81,-142 405.81,-138.5 395.81,-135 395.81,-142"/>
</a>
</g>
</g>
<!-- Node7&#45;&gt;Node2 -->
<g id="edge7_Node000007_Node000002" class="edge">
<title>Node7&#45;&gt;Node2</title>
<g id="a_edge7_Node000007_Node000002"><a xlink:title=" ">
<path fill="none" stroke="#63b8ff" d="M259.28,-158.75C238.07,-170.09 210.44,-183.85 184.75,-193.5 175.84,-196.85 166.28,-199.91 156.82,-202.64"/>
<polygon fill="#63b8ff" stroke="#63b8ff" points="260.69,-161.97 267.81,-154.13 257.35,-155.82 260.69,-161.97"/>
</a>
</g>
</g>
<!-- Node7&#45;&gt;Node3 -->
<g id="edge8_Node000007_Node000003" class="edge">
<title>Node7&#45;&gt;Node3</title>
<g id="a_edge8_Node000007_Node000003"><a xlink:title=" ">
<path fill="none" stroke="#63b8ff" d="M209.05,-151.74C199.68,-153.18 190.13,-154.64 180.75,-156.08"/>
<polygon fill="#63b8ff" stroke="#63b8ff" points="209.52,-155.21 218.87,-150.23 208.45,-148.29 209.52,-155.21"/>
</a>
</g>
</g>
<!-- Node7&#45;&gt;Node4 -->
<g id="edge9_Node000007_Node000004" class="edge">
<title>Node7&#45;&gt;Node4</title>
<g id="a_edge9_Node000007_Node000004"><a xlink:title=" ">
<path fill="none" stroke="#63b8ff" d="M209.09,-130.39C200.73,-129.6 192.25,-128.81 183.85,-128.02"/>
<polygon fill="#63b8ff" stroke="#63b8ff" points="208.58,-133.86 218.86,-131.31 209.23,-126.89 208.58,-133.86"/>
</a>
</g>
</g>
<!-- Node7&#45;&gt;Node5 -->
<g id="edge10_Node000007_Node000005" class="edge">
<title>Node7&#45;&gt;Node5</title>
<g id="a_edge10_Node000007_Node000005"><a xlink:title=" ">
<path fill="none" stroke="#63b8ff" d="M246.96,-119.47C227.69,-112.06 205.26,-103.65 184.75,-96.5 171.08,-91.74 156.14,-86.86 142.39,-82.5"/>
<polygon fill="#63b8ff" stroke="#63b8ff" points="245.6,-122.7 256.18,-123.04 248.12,-116.17 245.6,-122.7"/>
</a>
</g>
</g>
</g>
</svg>
