<?xml version="1.0" encoding="UTF-8" standalone="no"?>
<!DOCTYPE svg PUBLIC "-//W3C//DTD SVG 1.1//EN"
 "http://www.w3.org/Graphics/SVG/1.1/DTD/svg11.dtd">
<!-- Generated by graphviz version 2.43.0 (0)
 -->
<!-- Title: RpgGame.Items.HandOccupation Pages: 1 -->
<svg width="410pt" height="216pt"
 viewBox="0.00 0.00 409.50 216.00" xmlns="http://www.w3.org/2000/svg" xmlns:xlink="http://www.w3.org/1999/xlink">
<g id="graph0" class="graph" transform="scale(1 1) rotate(0) translate(4 212)">
<title>RpgGame.Items.HandOccupation</title>
<!-- Node1 -->
<g id="Node000001" class="node">
<title>Node1</title>
<g id="a_Node000001"><a xlink:title="Defines the strategy for how an equippable item occupies the player&#39;s hands.">
<polygon fill="#999999" stroke="transparent" points="287.5,-208 114.5,-208 114.5,-122 287.5,-122 287.5,-208"/>
<text text-anchor="start" x="120" y="-196" font-family="Helvetica,sans-Serif" font-size="10.00">RpgGame.Items.HandOccupation</text>
<text text-anchor="start" x="199.5" y="-181" font-family="Helvetica,sans-Serif" font-size="10.00"> </text>
<text text-anchor="start" x="125" y="-166" font-family="Helvetica,sans-Serif" font-size="10.00">+</text>
<text text-anchor="start" x="144" y="-166" font-family="Helvetica,sans-Serif" font-size="10.00">bool EquipLeft(Player</text>
<text text-anchor="start" x="144" y="-155" font-family="Helvetica,sans-Serif" font-size="10.00"> player, IEquippable item)</text>
<text text-anchor="start" x="125" y="-140" font-family="Helvetica,sans-Serif" font-size="10.00">+</text>
<text text-anchor="start" x="144" y="-140" font-family="Helvetica,sans-Serif" font-size="10.00">bool EquipRight(Player</text>
<text text-anchor="start" x="144" y="-129" font-family="Helvetica,sans-Serif" font-size="10.00"> player, IEquippable item)</text>
<polygon fill="#666666" stroke="#666666" points="115,-191 115,-191 288,-191 288,-191 115,-191"/>
<polygon fill="#666666" stroke="#666666" points="115,-176 115,-176 288,-176 288,-176 115,-176"/>
<polygon fill="none" stroke="#666666" points="114.5,-122 114.5,-208 287.5,-208 287.5,-122 114.5,-122"/>
</a>
</g>
</g>
<!-- Node2 -->
<g id="Node000002" class="node">
<title>Node2</title>
<g id="a_Node000002"><a xlink:href="classRpgGame_1_1Items_1_1OneHandOccupation.html" target="_top" xlink:title="Represents a hand occupation strategy for one&#45;handed equipment.">
<polygon fill="white" stroke="transparent" points="192,-86 0,-86 0,0 192,0 192,-86"/>
<text text-anchor="start" x="5" y="-74" font-family="Helvetica,sans-Serif" font-size="10.00">RpgGame.Items.OneHandOccupation</text>
<text text-anchor="start" x="94" y="-59" font-family="Helvetica,sans-Serif" font-size="10.00"> </text>
<text text-anchor="start" x="6.5" y="-44" font-family="Helvetica,sans-Serif" font-size="10.00">+</text>
<text text-anchor="start" x="22" y="-44" font-family="Helvetica,sans-Serif" font-size="10.00">override bool EquipLeft</text>
<text text-anchor="start" x="22" y="-33" font-family="Helvetica,sans-Serif" font-size="10.00">(Player player, IEquippable item)</text>
<text text-anchor="start" x="6.5" y="-18" font-family="Helvetica,sans-Serif" font-size="10.00">+</text>
<text text-anchor="start" x="22" y="-18" font-family="Helvetica,sans-Serif" font-size="10.00">override bool EquipRight</text>
<text text-anchor="start" x="22" y="-7" font-family="Helvetica,sans-Serif" font-size="10.00">(Player player, IEquippable item)</text>
<polygon fill="#666666" stroke="#666666" points="0,-69 0,-69 192,-69 192,-69 0,-69"/>
<polygon fill="#666666" stroke="#666666" points="0,-54 0,-54 192,-54 192,-54 0,-54"/>
<polygon fill="none" stroke="#666666" points="0,0 0,-86 192,-86 192,0 0,0"/>
</a>
</g>
</g>
<!-- Node1&#45;&gt;Node2 -->
<g id="edge1_Node000001_Node000002" class="edge">
<title>Node1&#45;&gt;Node2</title>
<g id="a_edge1_Node000001_Node000002"><a xlink:title=" ">
<path fill="none" stroke="#63b8ff" d="M157.29,-114.05C149.23,-104.83 140.88,-95.29 133.04,-86.33"/>
<polygon fill="none" stroke="#63b8ff" points="154.76,-116.47 163.98,-121.69 160.03,-111.86 154.76,-116.47"/>
</a>
</g>
</g>
<!-- Node3 -->
<g id="Node000003" class="node">
<title>Node3</title>
<g id="a_Node000003"><a xlink:href="classRpgGame_1_1Items_1_1TwoHandOccupation.html" target="_top" xlink:title="Represents a hand occupation strategy for two&#45;handed equipment.">
<polygon fill="white" stroke="transparent" points="401.5,-86 210.5,-86 210.5,0 401.5,0 401.5,-86"/>
<text text-anchor="start" x="216" y="-74" font-family="Helvetica,sans-Serif" font-size="10.00">RpgGame.Items.TwoHandOccupation</text>
<text text-anchor="start" x="304.5" y="-59" font-family="Helvetica,sans-Serif" font-size="10.00"> </text>
<text text-anchor="start" x="217" y="-44" font-family="Helvetica,sans-Serif" font-size="10.00">+</text>
<text text-anchor="start" x="232" y="-44" font-family="Helvetica,sans-Serif" font-size="10.00">override bool EquipLeft</text>
<text text-anchor="start" x="232" y="-33" font-family="Helvetica,sans-Serif" font-size="10.00">(Player player, IEquippable item)</text>
<text text-anchor="start" x="217" y="-18" font-family="Helvetica,sans-Serif" font-size="10.00">+</text>
<text text-anchor="start" x="232" y="-18" font-family="Helvetica,sans-Serif" font-size="10.00">override bool EquipRight</text>
<text text-anchor="start" x="232" y="-7" font-family="Helvetica,sans-Serif" font-size="10.00">(Player player, IEquippable item)</text>
<polygon fill="#666666" stroke="#666666" points="211,-69 211,-69 402,-69 402,-69 211,-69"/>
<polygon fill="#666666" stroke="#666666" points="211,-54 211,-54 402,-54 402,-54 211,-54"/>
<polygon fill="none" stroke="#666666" points="210.5,0 210.5,-86 401.5,-86 401.5,0 210.5,0"/>
</a>
</g>
</g>
<!-- Node1&#45;&gt;Node3 -->
<g id="edge2_Node000001_Node000003" class="edge">
<title>Node1&#45;&gt;Node3</title>
<g id="a_edge2_Node000001_Node000003"><a xlink:title=" ">
<path fill="none" stroke="#63b8ff" d="M244.71,-114.05C252.77,-104.83 261.12,-95.29 268.96,-86.33"/>
<polygon fill="none" stroke="#63b8ff" points="241.97,-111.86 238.02,-121.69 247.24,-116.47 241.97,-111.86"/>
</a>
</g>
</g>
</g>
</svg>
