<?xml version="1.0" encoding="UTF-8" standalone="no"?>
<!DOCTYPE svg PUBLIC "-//W3C//DTD SVG 1.1//EN"
 "http://www.w3.org/Graphics/SVG/1.1/DTD/svg11.dtd">
<!-- Generated by graphviz version 2.43.0 (0)
 -->
<!-- Title: RpgGame.Core.Level.SetTile Pages: 1 -->
<svg width="400pt" height="182pt"
 viewBox="0.00 0.00 400.00 182.00" xmlns="http://www.w3.org/2000/svg" xmlns:xlink="http://www.w3.org/1999/xlink">
<g id="graph0" class="graph" transform="scale(1 1) rotate(0) translate(4 178)">
<title>RpgGame.Core.Level.SetTile</title>
<!-- Node1 -->
<g id="Node000001" class="node">
<title>Node1</title>
<g id="a_Node000001"><a xlink:title="Sets the tile at the specified coordinates.">
<polygon fill="#999999" stroke="#666666" points="392,-96.5 236,-96.5 236,-77.5 392,-77.5 392,-96.5"/>
<text text-anchor="middle" x="314" y="-84.5" font-family="Helvetica,sans-Serif" font-size="10.00">RpgGame.Core.Level.SetTile</text>
</a>
</g>
</g>
<!-- Node2 -->
<g id="Node000002" class="node">
<title>Node2</title>
<g id="a_Node000002"><a xlink:href="classRpgGame_1_1Generation_1_1Procedures_1_1CentralRoomProcedure.html#afb7f92a179dab4685e6dfb1930615c41" target="_top" xlink:title="Applies the central room generation to the level.">
<polygon fill="white" stroke="#666666" points="194.5,-174 5.5,-174 5.5,-144 194.5,-144 194.5,-174"/>
<text text-anchor="start" x="13.5" y="-162" font-family="Helvetica,sans-Serif" font-size="10.00">RpgGame.Generation.Procedures.</text>
<text text-anchor="middle" x="100" y="-151" font-family="Helvetica,sans-Serif" font-size="10.00">CentralRoomProcedure.ApplyAsync</text>
</a>
</g>
</g>
<!-- Node1&#45;&gt;Node2 -->
<g id="edge1_Node000001_Node000002" class="edge">
<title>Node1&#45;&gt;Node2</title>
<g id="a_edge1_Node000001_Node000002"><a xlink:title=" ">
<path fill="none" stroke="#63b8ff" d="M284.05,-100.85C261.52,-111.25 229.26,-125.31 200,-135 190.18,-138.25 179.68,-141.27 169.32,-143.99"/>
<polygon fill="#63b8ff" stroke="#63b8ff" points="285.79,-103.9 293.38,-96.5 282.83,-97.56 285.79,-103.9"/>
</a>
</g>
</g>
<!-- Node3 -->
<g id="Node000003" class="node">
<title>Node3</title>
<g id="a_Node000003"><a xlink:href="classRpgGame_1_1Generation_1_1Procedures_1_1ChambersProcedure.html#a9e7db7e5862fca158da9aeb3617c4536" target="_top" xlink:title="Applies the chambers generation to the level.">
<polygon fill="white" stroke="#666666" points="191,-126 9,-126 9,-96 191,-96 191,-126"/>
<text text-anchor="start" x="17" y="-114" font-family="Helvetica,sans-Serif" font-size="10.00">RpgGame.Generation.Procedures.</text>
<text text-anchor="middle" x="100" y="-103" font-family="Helvetica,sans-Serif" font-size="10.00">ChambersProcedure.ApplyAsync</text>
</a>
</g>
</g>
<!-- Node1&#45;&gt;Node3 -->
<g id="edge2_Node000001_Node000003" class="edge">
<title>Node1&#45;&gt;Node3</title>
<g id="a_edge2_Node000001_Node000003"><a xlink:title=" ">
<path fill="none" stroke="#63b8ff" d="M225.86,-96.87C214.37,-98.17 202.57,-99.5 191.04,-100.81"/>
<polygon fill="#63b8ff" stroke="#63b8ff" points="226.32,-100.34 235.86,-95.73 225.53,-93.38 226.32,-100.34"/>
</a>
</g>
</g>
<!-- Node4 -->
<g id="Node000004" class="node">
<title>Node4</title>
<g id="a_Node000004"><a xlink:href="classRpgGame_1_1Generation_1_1Procedures_1_1EmptyDungeonProcedure.html#a41e008e6607a4c86ddf54ca7095f10c2" target="_top" xlink:title="Applies the empty dungeon generation to the level.">
<polygon fill="white" stroke="#666666" points="200,-78 0,-78 0,-48 200,-48 200,-78"/>
<text text-anchor="start" x="8" y="-66" font-family="Helvetica,sans-Serif" font-size="10.00">RpgGame.Generation.Procedures.</text>
<text text-anchor="middle" x="100" y="-55" font-family="Helvetica,sans-Serif" font-size="10.00">EmptyDungeonProcedure.ApplyAsync</text>
</a>
</g>
</g>
<!-- Node1&#45;&gt;Node4 -->
<g id="edge3_Node000001_Node000004" class="edge">
<title>Node1&#45;&gt;Node4</title>
<g id="a_edge3_Node000001_Node000004"><a xlink:title=" ">
<path fill="none" stroke="#63b8ff" d="M225.69,-77.12C217.27,-76.16 208.7,-75.19 200.17,-74.23"/>
<polygon fill="#63b8ff" stroke="#63b8ff" points="225.53,-80.62 235.86,-78.27 226.32,-73.66 225.53,-80.62"/>
</a>
</g>
</g>
<!-- Node5 -->
<g id="Node000005" class="node">
<title>Node5</title>
<g id="a_Node000005"><a xlink:href="classRpgGame_1_1Generation_1_1Procedures_1_1FilledDungeonProcedure.html#aea4afc1be959e1bd38494d48cd626674" target="_top" xlink:title="Applies the filled dungeon generation to the level.">
<polygon fill="white" stroke="#666666" points="197.5,-30 2.5,-30 2.5,0 197.5,0 197.5,-30"/>
<text text-anchor="start" x="10.5" y="-18" font-family="Helvetica,sans-Serif" font-size="10.00">RpgGame.Generation.Procedures.</text>
<text text-anchor="middle" x="100" y="-7" font-family="Helvetica,sans-Serif" font-size="10.00">FilledDungeonProcedure.ApplyAsync</text>
</a>
</g>
</g>
<!-- Node1&#45;&gt;Node5 -->
<g id="edge4_Node000001_Node000005" class="edge">
<title>Node1&#45;&gt;Node5</title>
<g id="a_edge4_Node000001_Node000005"><a xlink:title=" ">
<path fill="none" stroke="#63b8ff" d="M284.05,-73.15C261.52,-62.75 229.26,-48.69 200,-39 190.18,-35.75 179.68,-32.73 169.32,-30.01"/>
<polygon fill="#63b8ff" stroke="#63b8ff" points="282.83,-76.44 293.38,-77.5 285.79,-70.1 282.83,-76.44"/>
</a>
</g>
</g>
</g>
</svg>
