<?xml version="1.0" encoding="UTF-8" standalone="no"?>
<!DOCTYPE svg PUBLIC "-//W3C//DTD SVG 1.1//EN"
 "http://www.w3.org/Graphics/SVG/1.1/DTD/svg11.dtd">
<!-- Generated by graphviz version 2.43.0 (0)
 -->
<!-- Title: RpgGame.Generation.SimpleRoomGenerator.GenerateAsync Pages: 1 -->
<svg width="392pt" height="182pt"
 viewBox="0.00 0.00 392.00 182.00" xmlns="http://www.w3.org/2000/svg" xmlns:xlink="http://www.w3.org/1999/xlink">
<g id="graph0" class="graph" transform="scale(1 1) rotate(0) translate(4 178)">
<title>RpgGame.Generation.SimpleRoomGenerator.GenerateAsync</title>
<!-- Node1 -->
<g id="Node000001" class="node">
<title>Node1</title>
<g id="a_Node000001"><a xlink:title="Asynchronously generates the level; uses the new async spawn helpers to perform item placement withou...">
<polygon fill="#999999" stroke="#666666" points="170,-102 0,-102 0,-72 170,-72 170,-102"/>
<text text-anchor="start" x="8" y="-90" font-family="Helvetica,sans-Serif" font-size="10.00">RpgGame.Generation.Simple</text>
<text text-anchor="middle" x="85" y="-79" font-family="Helvetica,sans-Serif" font-size="10.00">RoomGenerator.GenerateAsync</text>
</a>
</g>
</g>
<!-- Node2 -->
<g id="Node000002" class="node">
<title>Node2</title>
<g id="a_Node000002"><a xlink:href="classRpgGame_1_1Generation_1_1MapSpawnHelper.html#aef5f182d21ac6ed160d15450118a6032" target="_top" xlink:title="Convenience wrapper that spawns coins.">
<polygon fill="white" stroke="#666666" points="384,-174 206,-174 206,-144 384,-144 384,-174"/>
<text text-anchor="start" x="214" y="-162" font-family="Helvetica,sans-Serif" font-size="10.00">RpgGame.Generation.MapSpawn</text>
<text text-anchor="middle" x="295" y="-151" font-family="Helvetica,sans-Serif" font-size="10.00">Helper.SpawnCoinsAsync</text>
</a>
</g>
</g>
<!-- Node1&#45;&gt;Node2 -->
<g id="edge1_Node000001_Node000002" class="edge">
<title>Node1&#45;&gt;Node2</title>
<g id="a_edge1_Node000001_Node000002"><a xlink:title=" ">
<path fill="none" stroke="#63b8ff" d="M120.53,-102.03C144.3,-112.08 176.75,-125.2 206,-135 212.25,-137.1 218.8,-139.15 225.39,-141.11"/>
<polygon fill="#63b8ff" stroke="#63b8ff" points="224.44,-144.48 235.02,-143.92 226.4,-137.76 224.44,-144.48"/>
</a>
</g>
</g>
<!-- Node3 -->
<g id="Node000003" class="node">
<title>Node3</title>
<g id="a_Node000003"><a xlink:href="classRpgGame_1_1Generation_1_1MapSpawnHelper.html#ac40bb8e43fb5b06d21638ff12bde806b" target="_top" xlink:title="Convenience wrapper that spawns two&#45;handed swords.">
<polygon fill="white" stroke="#666666" points="384,-126 206,-126 206,-96 384,-96 384,-126"/>
<text text-anchor="start" x="214" y="-114" font-family="Helvetica,sans-Serif" font-size="10.00">RpgGame.Generation.MapSpawn</text>
<text text-anchor="middle" x="295" y="-103" font-family="Helvetica,sans-Serif" font-size="10.00">Helper.SpawnDoubleSwordAsync</text>
</a>
</g>
</g>
<!-- Node1&#45;&gt;Node3 -->
<g id="edge2_Node000001_Node000003" class="edge">
<title>Node1&#45;&gt;Node3</title>
<g id="a_edge2_Node000001_Node000003"><a xlink:title=" ">
<path fill="none" stroke="#63b8ff" d="M170,-96.69C178.51,-97.67 187.21,-98.68 195.85,-99.67"/>
<polygon fill="#63b8ff" stroke="#63b8ff" points="195.62,-103.17 205.95,-100.84 196.42,-96.22 195.62,-103.17"/>
</a>
</g>
</g>
<!-- Node4 -->
<g id="Node000004" class="node">
<title>Node4</title>
<g id="a_Node000004"><a xlink:href="classRpgGame_1_1Generation_1_1MapSpawnHelper.html#a3d4f8e59572c78841b18c605691225b8" target="_top" xlink:title="Convenience wrapper that spawns gold piles.">
<polygon fill="white" stroke="#666666" points="384,-78 206,-78 206,-48 384,-48 384,-78"/>
<text text-anchor="start" x="214" y="-66" font-family="Helvetica,sans-Serif" font-size="10.00">RpgGame.Generation.MapSpawn</text>
<text text-anchor="middle" x="295" y="-55" font-family="Helvetica,sans-Serif" font-size="10.00">Helper.SpawnGoldAsync</text>
</a>
</g>
</g>
<!-- Node1&#45;&gt;Node4 -->
<g id="edge3_Node000001_Node000004" class="edge">
<title>Node1&#45;&gt;Node4</title>
<g id="a_edge3_Node000001_Node000004"><a xlink:title=" ">
<path fill="none" stroke="#63b8ff" d="M170,-77.31C178.51,-76.33 187.21,-75.32 195.85,-74.33"/>
<polygon fill="#63b8ff" stroke="#63b8ff" points="196.42,-77.78 205.95,-73.16 195.62,-70.83 196.42,-77.78"/>
</a>
</g>
</g>
<!-- Node5 -->
<g id="Node000005" class="node">
<title>Node5</title>
<g id="a_Node000005"><a xlink:href="classRpgGame_1_1Generation_1_1MapSpawnHelper.html#a67946efaa42f2f00637a21cd4be3ee74" target="_top" xlink:title="Convenience wrapper that spawns one&#45;handed swords.">
<polygon fill="white" stroke="#666666" points="384,-30 206,-30 206,0 384,0 384,-30"/>
<text text-anchor="start" x="214" y="-18" font-family="Helvetica,sans-Serif" font-size="10.00">RpgGame.Generation.MapSpawn</text>
<text text-anchor="middle" x="295" y="-7" font-family="Helvetica,sans-Serif" font-size="10.00">Helper.SpawnSwordAsync</text>
</a>
</g>
</g>
<!-- Node1&#45;&gt;Node5 -->
<g id="edge4_Node000001_Node000005" class="edge">
<title>Node1&#45;&gt;Node5</title>
<g id="a_edge4_Node000001_Node000005"><a xlink:title=" ">
<path fill="none" stroke="#63b8ff" d="M120.53,-71.97C144.3,-61.92 176.75,-48.8 206,-39 212.25,-36.9 218.8,-34.85 225.39,-32.89"/>
<polygon fill="#63b8ff" stroke="#63b8ff" points="226.4,-36.24 235.02,-30.08 224.44,-29.52 226.4,-36.24"/>
</a>
</g>
</g>
</g>
</svg>
