<?xml version="1.0" encoding="UTF-8" standalone="no"?>
<!DOCTYPE svg PUBLIC "-//W3C//DTD SVG 1.1//EN"
 "http://www.w3.org/Graphics/SVG/1.1/DTD/svg11.dtd">
<!-- Generated by graphviz version 13.1.2 (20250808.2320)
 -->
<!-- Title: RpgGame.Generation.DungeonBuilder Pages: 1 -->
<svg width="179pt" height="196pt"
 viewBox="0.00 0.00 179.00 196.00" xmlns="http://www.w3.org/2000/svg" xmlns:xlink="http://www.w3.org/1999/xlink">

<svg id="main" version="1.1" xmlns="http://www.w3.org/2000/svg" xmlns:xlink="http://www.w3.org/1999/xlink" xml:space="preserve">

<style type="text/css"><![CDATA[
.node, .edge {opacity: 0.7;}
.node.selected, .edge.selected {opacity: 1;}
.edge:hover path { stroke: red; }
.edge:hover polygon { stroke: red; fill: red; }
]]></style>
<script type="application/ecmascript" xlink:href="svg.min.js"/>
<svg id="graph" class="graph">
<g id="graph0" class="graph" transform="scale(1 1) rotate(0) translate(4 191.5)">
<title>RpgGame.Generation.DungeonBuilder</title>
<!-- Node1 -->
<g id="Node000001" class="node">
<title>Node1</title>
<g id="a_Node000001"><a xlink:title="Implements the Builder Pattern to compose multiple dungeon generation procedures.">
<polygon fill="#999999" stroke="none" points="163.38,-93.5 7.38,-93.5 7.38,0 163.38,0 163.38,-93.5"/>
<text xml:space="preserve" text-anchor="start" x="16.75" y="-80" font-family="Helvetica,sans-Serif" font-size="10.00">RpgGame.Generation.Dungeon</text>
<text xml:space="preserve" text-anchor="start" x="70.38" y="-69.5" font-family="Helvetica,sans-Serif" font-size="10.00">Builder</text>
<text xml:space="preserve" text-anchor="start" x="83.88" y="-55" font-family="Helvetica,sans-Serif" font-size="10.00"> </text>
<text xml:space="preserve" text-anchor="start" x="11.38" y="-40.5" font-family="Helvetica,sans-Serif" font-size="10.00">+</text>
<text xml:space="preserve" text-anchor="start" x="21.38" y="-40.5" font-family="Helvetica,sans-Serif" font-size="10.00">DungeonBuilder Add</text>
<text xml:space="preserve" text-anchor="start" x="21.38" y="-30" font-family="Helvetica,sans-Serif" font-size="10.00">(IDungeonProcedure procedure)</text>
<text xml:space="preserve" text-anchor="start" x="11.38" y="-15.5" font-family="Helvetica,sans-Serif" font-size="10.00">+</text>
<text xml:space="preserve" text-anchor="start" x="21.38" y="-15.5" font-family="Helvetica,sans-Serif" font-size="10.00">async Task GenerateAsync</text>
<text xml:space="preserve" text-anchor="start" x="21.38" y="-5" font-family="Helvetica,sans-Serif" font-size="10.00">(Level level)</text>
<polygon fill="#666666" stroke="#666666" points="7.38,-66.5 7.38,-66.5 163.38,-66.5 163.38,-66.5 7.38,-66.5"/>
<polygon fill="#666666" stroke="#666666" points="7.38,-52 7.38,-52 163.38,-52 163.38,-52 7.38,-52"/>
<polygon fill="none" stroke="#666666" points="7.38,0 7.38,-93.5 163.38,-93.5 163.38,0 7.38,0"/>
</a>
</g>
</g>
<!-- Node2 -->
<g id="Node000002" class="node">
<title>Node2</title>
<g id="a_Node000002"><a xlink:href="interfaceRpgGame_1_1Generation_1_1IMapGenerator.html" target="_top" xlink:title="Defines the contract for procedural level generation strategies.">
<polygon fill="white" stroke="none" points="170.75,-187.5 0,-187.5 0,-129.5 170.75,-129.5 170.75,-187.5"/>
<text xml:space="preserve" text-anchor="start" x="4" y="-174" font-family="Helvetica,sans-Serif" font-size="10.00">RpgGame.Generation.IMapGenerator</text>
<text xml:space="preserve" text-anchor="start" x="83.88" y="-159.5" font-family="Helvetica,sans-Serif" font-size="10.00"> </text>
<text xml:space="preserve" text-anchor="start" x="19.5" y="-145" font-family="Helvetica,sans-Serif" font-size="10.00">+</text>
<text xml:space="preserve" text-anchor="start" x="45" y="-145" font-family="Helvetica,sans-Serif" font-size="10.00">Task GenerateAsync</text>
<text xml:space="preserve" text-anchor="start" x="45" y="-134.5" font-family="Helvetica,sans-Serif" font-size="10.00">(Level level)</text>
<polygon fill="#666666" stroke="#666666" points="0,-171 0,-171 170.75,-171 170.75,-171 0,-171"/>
<polygon fill="#666666" stroke="#666666" points="0,-156.5 0,-156.5 170.75,-156.5 170.75,-156.5 0,-156.5"/>
<polygon fill="none" stroke="#666666" points="0,-129.5 0,-187.5 170.75,-187.5 170.75,-129.5 0,-129.5"/>
</a>
</g>
</g>
<!-- Node2&#45;&gt;Node1 -->
<g id="edge1_Node000001_Node000002" class="edge">
<title>Node2&#45;&gt;Node1</title>
<g id="a_edge1_Node000001_Node000002"><a xlink:title=" ">
<path fill="none" stroke="#63b8ff" d="M85.38,-118.11C85.38,-110.02 85.38,-101.44 85.38,-93.16"/>
<polygon fill="none" stroke="#63b8ff" points="81.88,-118.01 85.38,-128.01 88.88,-118.01 81.88,-118.01"/>
</a>
</g>
</g>
</g>
</svg>
</svg>

<style type='text/css'>
<![CDATA[
[data-mouse-over-selected='false'] { opacity: 0.7; }
[data-mouse-over-selected='true']  { opacity: 1.0; }
]]>
</style>
<script type="application/ecmascript"><![CDATA[
document.addEventListener('DOMContentLoaded', (event) => {
  highlightEdges();
  highlightAdjacentNodes();
});
]]></script>
</svg>
