<?xml version="1.0" encoding="UTF-8" standalone="no"?>
<!DOCTYPE svg PUBLIC "-//W3C//DTD SVG 1.1//EN"
 "http://www.w3.org/Graphics/SVG/1.1/DTD/svg11.dtd">
<!-- Generated by graphviz version 13.1.2 (20250808.2320)
 -->
<!-- Title: RpgGame.Rendering.ConsoleRenderer Pages: 1 -->
<svg width="147pt" height="87pt"
 viewBox="0.00 0.00 147.00 87.00" xmlns="http://www.w3.org/2000/svg" xmlns:xlink="http://www.w3.org/1999/xlink">
<g id="graph0" class="graph" transform="scale(1 1) rotate(0) translate(4 83)">
<title>RpgGame.Rendering.ConsoleRenderer</title>
<!-- Node1 -->
<g id="Node000001" class="node">
<title>Node1</title>
<g id="a_Node000001"><a xlink:title="Handles rendering the game world and sidebar to the console.">
<polygon fill="#999999" stroke="none" points="138.5,-79 0,-79 0,0 138.5,0 138.5,-79"/>
<text xml:space="preserve" text-anchor="start" x="4" y="-65.5" font-family="Helvetica,sans-Serif" font-size="10.00">RpgGame.Rendering.Console</text>
<text xml:space="preserve" text-anchor="start" x="49.75" y="-55" font-family="Helvetica,sans-Serif" font-size="10.00">Renderer</text>
<text xml:space="preserve" text-anchor="start" x="67.75" y="-40.5" font-family="Helvetica,sans-Serif" font-size="10.00"> </text>
<text xml:space="preserve" text-anchor="start" x="7.31" y="-26" font-family="Helvetica,sans-Serif" font-size="10.00">+</text>
<text xml:space="preserve" text-anchor="start" x="20.62" y="-26" font-family="Helvetica,sans-Serif" font-size="10.00">void Render(Level level,</text>
<text xml:space="preserve" text-anchor="start" x="20.62" y="-15.5" font-family="Helvetica,sans-Serif" font-size="10.00"> Character.Player player,</text>
<text xml:space="preserve" text-anchor="start" x="20.62" y="-5" font-family="Helvetica,sans-Serif" font-size="10.00"> Inventory inventory)</text>
<polygon fill="#666666" stroke="#666666" points="0,-52 0,-52 138.5,-52 138.5,-52 0,-52"/>
<polygon fill="#666666" stroke="#666666" points="0,-37.5 0,-37.5 138.5,-37.5 138.5,-37.5 0,-37.5"/>
<polygon fill="none" stroke="#666666" points="0,0 0,-79 138.5,-79 138.5,0 0,0"/>
</a>
</g>
</g>
</g>
</svg>
