<?xml version="1.0" encoding="UTF-8" standalone="no"?>
<!DOCTYPE svg PUBLIC "-//W3C//DTD SVG 1.1//EN"
 "http://www.w3.org/Graphics/SVG/1.1/DTD/svg11.dtd">
<!-- Generated by graphviz version 2.43.0 (0)
 -->
<!-- Title: RpgGame.Tiles.Tile Pages: 1 -->
<svg width="310pt" height="243pt"
 viewBox="0.00 0.00 310.00 243.00" xmlns="http://www.w3.org/2000/svg" xmlns:xlink="http://www.w3.org/1999/xlink">

<svg id="main" version="1.1" xmlns="http://www.w3.org/2000/svg" xmlns:xlink="http://www.w3.org/1999/xlink" xml:space="preserve" onload="init(evt)">
<style type="text/css"><![CDATA[
.node, .edge {opacity: 0.7;}
.node.selected, .edge.selected {opacity: 1;}
.edge:hover path { stroke: red; }
.edge:hover polygon { stroke: red; fill: red; }
]]></style>
<script type="application/ecmascript" xlink:href="svg.min.js"/>
<svg id="graph" class="graph">
<g id="graph0" class="graph" transform="scale(1 1) rotate(0) translate(4 239)">
<title>RpgGame.Tiles.Tile</title>
<!-- Node1 -->
<g id="Node000001" class="node">
<title>Node1</title>
<g id="a_Node000001"><a xlink:title="Base abstract class representing a tile in the game world.">
<polygon fill="#999999" stroke="transparent" points="209.5,-235 92.5,-235 92.5,-126 209.5,-126 209.5,-235"/>
<text text-anchor="start" x="103.5" y="-222.5" font-family="Helvetica,sans-Serif" font-size="10.00">RpgGame.Tiles.Tile</text>
<text text-anchor="start" x="97" y="-207.5" font-family="Helvetica,sans-Serif" font-size="10.00">+</text>
<text text-anchor="start" x="110" y="-207.5" font-family="Helvetica,sans-Serif" font-size="10.00">List&lt; Tile &gt; PosList</text>
<text text-anchor="start" x="97" y="-192.5" font-family="Helvetica,sans-Serif" font-size="10.00">+</text>
<text text-anchor="start" x="110" y="-192.5" font-family="Helvetica,sans-Serif" font-size="10.00">char Symbol</text>
<text text-anchor="start" x="97" y="-177.5" font-family="Helvetica,sans-Serif" font-size="10.00">+</text>
<text text-anchor="start" x="110" y="-177.5" font-family="Helvetica,sans-Serif" font-size="10.00">ConsoleColor color</text>
<text text-anchor="start" x="97" y="-162.5" font-family="Helvetica,sans-Serif" font-size="10.00">+</text>
<text text-anchor="start" x="110" y="-162.5" font-family="Helvetica,sans-Serif" font-size="10.00">bool IsWalkable</text>
<text text-anchor="start" x="97" y="-147.5" font-family="Helvetica,sans-Serif" font-size="10.00">+</text>
<text text-anchor="start" x="110" y="-147.5" font-family="Helvetica,sans-Serif" font-size="10.00">bool IsOccupied</text>
<text text-anchor="start" x="149.5" y="-132.5" font-family="Helvetica,sans-Serif" font-size="10.00"> </text>
<polygon fill="#666666" stroke="#666666" points="93,-217.5 93,-217.5 210,-217.5 210,-217.5 93,-217.5"/>
<polygon fill="#666666" stroke="#666666" points="93,-142.5 93,-142.5 108,-142.5 108,-142.5 93,-142.5"/>
<polygon fill="#666666" stroke="#666666" points="108,-142.5 108,-142.5 210,-142.5 210,-142.5 108,-142.5"/>
<polygon fill="none" stroke="#666666" points="92.5,-126 92.5,-235 209.5,-235 209.5,-126 92.5,-126"/>
</a>
</g>
</g>
<!-- Node2 -->
<g id="Node000002" class="node">
<title>Node2</title>
<g id="a_Node000002"><a xlink:href="classRpgGame_1_1Tiles_1_1FloorTile.html" target="_top" xlink:title="Represents a walkable floor tile where players and items can exist.">
<polygon fill="white" stroke="transparent" points="142,-90 0,-90 0,0 142,0 142,-90"/>
<text text-anchor="start" x="10.5" y="-78" font-family="Helvetica,sans-Serif" font-size="10.00">RpgGame.Tiles.FloorTile</text>
<text text-anchor="start" x="4" y="-63" font-family="Helvetica,sans-Serif" font-size="10.00">+</text>
<text text-anchor="start" x="17" y="-63" font-family="Helvetica,sans-Serif" font-size="10.00">override char Symbol</text>
<text text-anchor="start" x="4" y="-48" font-family="Helvetica,sans-Serif" font-size="10.00">+</text>
<text text-anchor="start" x="17" y="-48" font-family="Helvetica,sans-Serif" font-size="10.00">override ConsoleColor</text>
<text text-anchor="start" x="17" y="-37" font-family="Helvetica,sans-Serif" font-size="10.00"> color</text>
<text text-anchor="start" x="4" y="-22" font-family="Helvetica,sans-Serif" font-size="10.00">+</text>
<text text-anchor="start" x="17" y="-22" font-family="Helvetica,sans-Serif" font-size="10.00">override bool IsWalkable</text>
<text text-anchor="start" x="69" y="-7" font-family="Helvetica,sans-Serif" font-size="10.00"> </text>
<polygon fill="#666666" stroke="#666666" points="0,-73 0,-73 142,-73 142,-73 0,-73"/>
<polygon fill="#666666" stroke="#666666" points="0,-17 0,-17 15,-17 15,-17 0,-17"/>
<polygon fill="#666666" stroke="#666666" points="15,-17 15,-17 142,-17 142,-17 15,-17"/>
<polygon fill="none" stroke="#666666" points="0,0 0,-90 142,-90 142,0 0,0"/>
</a>
</g>
</g>
<!-- Node1&#45;&gt;Node2 -->
<g id="edge1_Node000001_Node000002" class="edge">
<title>Node1&#45;&gt;Node2</title>
<g id="a_edge1_Node000001_Node000002"><a xlink:title=" ">
<path fill="none" stroke="#63b8ff" d="M113.69,-117.25C108.21,-108.09 102.65,-98.82 97.44,-90.12"/>
<polygon fill="none" stroke="#63b8ff" points="110.78,-119.19 118.92,-125.97 116.78,-115.59 110.78,-119.19"/>
</a>
</g>
</g>
<!-- Node3 -->
<g id="Node000003" class="node">
<title>Node3</title>
<g id="a_Node000003"><a xlink:href="classRpgGame_1_1Tiles_1_1WallTile.html" target="_top" xlink:title="Represents a solid wall tile that blocks player movement.">
<polygon fill="white" stroke="transparent" points="302,-90 160,-90 160,0 302,0 302,-90"/>
<text text-anchor="start" x="172.5" y="-78" font-family="Helvetica,sans-Serif" font-size="10.00">RpgGame.Tiles.WallTile</text>
<text text-anchor="start" x="164" y="-63" font-family="Helvetica,sans-Serif" font-size="10.00">+</text>
<text text-anchor="start" x="177" y="-63" font-family="Helvetica,sans-Serif" font-size="10.00">override char Symbol</text>
<text text-anchor="start" x="164" y="-48" font-family="Helvetica,sans-Serif" font-size="10.00">+</text>
<text text-anchor="start" x="177" y="-48" font-family="Helvetica,sans-Serif" font-size="10.00">override ConsoleColor</text>
<text text-anchor="start" x="177" y="-37" font-family="Helvetica,sans-Serif" font-size="10.00"> color</text>
<text text-anchor="start" x="164" y="-22" font-family="Helvetica,sans-Serif" font-size="10.00">+</text>
<text text-anchor="start" x="177" y="-22" font-family="Helvetica,sans-Serif" font-size="10.00">override bool IsWalkable</text>
<text text-anchor="start" x="229" y="-7" font-family="Helvetica,sans-Serif" font-size="10.00"> </text>
<polygon fill="#666666" stroke="#666666" points="160,-73 160,-73 302,-73 302,-73 160,-73"/>
<polygon fill="#666666" stroke="#666666" points="160,-17 160,-17 175,-17 175,-17 160,-17"/>
<polygon fill="#666666" stroke="#666666" points="175,-17 175,-17 302,-17 302,-17 175,-17"/>
<polygon fill="none" stroke="#666666" points="160,0 160,-90 302,-90 302,0 160,0"/>
</a>
</g>
</g>
<!-- Node1&#45;&gt;Node3 -->
<g id="edge2_Node000001_Node000003" class="edge">
<title>Node1&#45;&gt;Node3</title>
<g id="a_edge2_Node000001_Node000003"><a xlink:title=" ">
<path fill="none" stroke="#63b8ff" d="M188.31,-117.25C193.79,-108.09 199.35,-98.82 204.56,-90.12"/>
<polygon fill="none" stroke="#63b8ff" points="185.22,-115.59 183.08,-125.97 191.22,-119.19 185.22,-115.59"/>
</a>
</g>
</g>
</g>
</svg>
</svg>

<style type='text/css'>
<![CDATA[
[data-mouse-over-selected='false'] { opacity: 0.7; }
[data-mouse-over-selected='true']  { opacity: 1.0; }
]]>
</style>
<script type="application/ecmascript"><![CDATA[
document.addEventListener('DOMContentLoaded', (event) => {
  highlightEdges();
  highlightAdjacentNodes();
});
]]></script>
</svg>
