<?xml version="1.0" encoding="UTF-8" standalone="no"?>
<!DOCTYPE svg PUBLIC "-//W3C//DTD SVG 1.1//EN"
 "http://www.w3.org/Graphics/SVG/1.1/DTD/svg11.dtd">
<!-- Generated by graphviz version 2.43.0 (0)
 -->
<!-- Title: RpgGame.Core.Level.TryMoveCharacter Pages: 1 -->
<svg width="578pt" height="64pt"
 viewBox="0.00 0.00 578.00 64.00" xmlns="http://www.w3.org/2000/svg" xmlns:xlink="http://www.w3.org/1999/xlink">
<g id="graph0" class="graph" transform="scale(1 1) rotate(0) translate(4 60)">
<title>RpgGame.Core.Level.TryMoveCharacter</title>
<!-- Node1 -->
<g id="Node000001" class="node">
<title>Node1</title>
<g id="a_Node000001"><a xlink:title="Attempts to move a character to a new position if the move is valid. Also handles item interactions f...">
<polygon fill="#999999" stroke="#666666" points="164,-42.5 0,-42.5 0,-12.5 164,-12.5 164,-42.5"/>
<text text-anchor="start" x="8" y="-30.5" font-family="Helvetica,sans-Serif" font-size="10.00">RpgGame.Core.Level.TryMove</text>
<text text-anchor="middle" x="82" y="-19.5" font-family="Helvetica,sans-Serif" font-size="10.00">Character</text>
</a>
</g>
</g>
<!-- Node2 -->
<g id="Node000002" class="node">
<title>Node2</title>
<g id="a_Node000002"><a xlink:href="classRpgGame_1_1Core_1_1Level.html#af9e6a4b820c77f9390aed74bdc0f1c8a" target="_top" xlink:title="Determines whether a character can move to the specified position.">
<polygon fill="white" stroke="#666666" points="358,-42.5 200,-42.5 200,-12.5 358,-12.5 358,-42.5"/>
<text text-anchor="start" x="208" y="-30.5" font-family="Helvetica,sans-Serif" font-size="10.00">RpgGame.Core.Level.IsMove</text>
<text text-anchor="middle" x="279" y="-19.5" font-family="Helvetica,sans-Serif" font-size="10.00">Valid</text>
</a>
</g>
</g>
<!-- Node1&#45;&gt;Node2 -->
<g id="edge1_Node000001_Node000002" class="edge">
<title>Node1&#45;&gt;Node2</title>
<g id="a_edge1_Node000001_Node000002"><a xlink:title=" ">
<path fill="none" stroke="#63b8ff" d="M164,-27.5C172.5,-27.5 181.17,-27.5 189.75,-27.5"/>
<polygon fill="#63b8ff" stroke="#63b8ff" points="189.75,-31 199.75,-27.5 189.75,-24 189.75,-31"/>
</a>
</g>
</g>
<!-- Node3 -->
<g id="Node000003" class="node">
<title>Node3</title>
<g id="a_Node000003"><a xlink:href="classRpgGame_1_1Core_1_1Level.html#ad48a7c23cc285da72a157194198e553a" target="_top" xlink:title="Retrieves the tile at the specified coordinates.">
<polygon fill="white" stroke="#666666" points="561,-56 403,-56 403,-37 561,-37 561,-56"/>
<text text-anchor="middle" x="482" y="-44" font-family="Helvetica,sans-Serif" font-size="10.00">RpgGame.Core.Level.GetTile</text>
</a>
</g>
</g>
<!-- Node2&#45;&gt;Node3 -->
<g id="edge2_Node000002_Node000003" class="edge">
<title>Node2&#45;&gt;Node3</title>
<g id="a_edge2_Node000002_Node000003"><a xlink:title=" ">
<path fill="none" stroke="#63b8ff" d="M358.29,-34.9C369.63,-35.97 381.36,-37.08 392.88,-38.17"/>
<polygon fill="#63b8ff" stroke="#63b8ff" points="392.64,-41.66 402.93,-39.12 393.3,-34.69 392.64,-41.66"/>
</a>
</g>
</g>
<!-- Node4 -->
<g id="Node000004" class="node">
<title>Node4</title>
<g id="a_Node000004"><a xlink:href="classRpgGame_1_1Core_1_1Level.html#a29d79bf5cda2e96ca6e823f9d5772db0" target="_top" xlink:title="Checks whether the specified position lies within the level boundaries.">
<polygon fill="white" stroke="#666666" points="570,-19 394,-19 394,0 570,0 570,-19"/>
<text text-anchor="middle" x="482" y="-7" font-family="Helvetica,sans-Serif" font-size="10.00">RpgGame.Core.Level.IsInBounds</text>
</a>
</g>
</g>
<!-- Node2&#45;&gt;Node4 -->
<g id="edge3_Node000002_Node000004" class="edge">
<title>Node2&#45;&gt;Node4</title>
<g id="a_edge3_Node000002_Node000004"><a xlink:title=" ">
<path fill="none" stroke="#63b8ff" d="M358.29,-20.49C366.69,-19.74 375.3,-18.97 383.88,-18.2"/>
<polygon fill="#63b8ff" stroke="#63b8ff" points="384.28,-21.68 393.93,-17.3 383.66,-14.7 384.28,-21.68"/>
</a>
</g>
</g>
</g>
</svg>
