<?xml version="1.0" encoding="UTF-8" standalone="no"?>
<!DOCTYPE svg PUBLIC "-//W3C//DTD SVG 1.1//EN"
 "http://www.w3.org/Graphics/SVG/1.1/DTD/svg11.dtd">
<!-- Generated by graphviz version 2.43.0 (0)
 -->
<!-- Title: RpgGame.Tiles.FloorTile Pages: 1 -->
<svg width="150pt" height="243pt"
 viewBox="0.00 0.00 150.00 243.00" xmlns="http://www.w3.org/2000/svg" xmlns:xlink="http://www.w3.org/1999/xlink">
<g id="graph0" class="graph" transform="scale(1 1) rotate(0) translate(4 239)">
<title>RpgGame.Tiles.FloorTile</title>
<!-- Node1 -->
<g id="Node000001" class="node">
<title>Node1</title>
<g id="a_Node000001"><a xlink:title="Represents a walkable floor tile where players and items can exist.">
<polygon fill="#999999" stroke="transparent" points="142,-90 0,-90 0,0 142,0 142,-90"/>
<text text-anchor="start" x="10.5" y="-78" font-family="Helvetica,sans-Serif" font-size="10.00">RpgGame.Tiles.FloorTile</text>
<text text-anchor="start" x="4" y="-63" font-family="Helvetica,sans-Serif" font-size="10.00">+</text>
<text text-anchor="start" x="17" y="-63" font-family="Helvetica,sans-Serif" font-size="10.00">override char Symbol</text>
<text text-anchor="start" x="4" y="-48" font-family="Helvetica,sans-Serif" font-size="10.00">+</text>
<text text-anchor="start" x="17" y="-48" font-family="Helvetica,sans-Serif" font-size="10.00">override ConsoleColor</text>
<text text-anchor="start" x="17" y="-37" font-family="Helvetica,sans-Serif" font-size="10.00"> color</text>
<text text-anchor="start" x="4" y="-22" font-family="Helvetica,sans-Serif" font-size="10.00">+</text>
<text text-anchor="start" x="17" y="-22" font-family="Helvetica,sans-Serif" font-size="10.00">override bool IsWalkable</text>
<text text-anchor="start" x="69" y="-7" font-family="Helvetica,sans-Serif" font-size="10.00"> </text>
<polygon fill="#666666" stroke="#666666" points="0,-73 0,-73 142,-73 142,-73 0,-73"/>
<polygon fill="#666666" stroke="#666666" points="0,-17 0,-17 15,-17 15,-17 0,-17"/>
<polygon fill="#666666" stroke="#666666" points="15,-17 15,-17 142,-17 142,-17 15,-17"/>
<polygon fill="none" stroke="#666666" points="0,0 0,-90 142,-90 142,0 0,0"/>
</a>
</g>
</g>
<!-- Node2 -->
<g id="Node000002" class="node">
<title>Node2</title>
<g id="a_Node000002"><a xlink:href="classRpgGame_1_1Tiles_1_1Tile.html" target="_top" xlink:title="Base abstract class representing a tile in the game world.">
<polygon fill="white" stroke="transparent" points="129.5,-235 12.5,-235 12.5,-126 129.5,-126 129.5,-235"/>
<text text-anchor="start" x="62" y="-222.5" font-family="Helvetica,sans-Serif" font-size="10.00">Tile</text>
<text text-anchor="start" x="17" y="-207.5" font-family="Helvetica,sans-Serif" font-size="10.00">+</text>
<text text-anchor="start" x="30" y="-207.5" font-family="Helvetica,sans-Serif" font-size="10.00">List&lt; Tile &gt; PosList</text>
<text text-anchor="start" x="17" y="-192.5" font-family="Helvetica,sans-Serif" font-size="10.00">+</text>
<text text-anchor="start" x="30" y="-192.5" font-family="Helvetica,sans-Serif" font-size="10.00">char Symbol</text>
<text text-anchor="start" x="17" y="-177.5" font-family="Helvetica,sans-Serif" font-size="10.00">+</text>
<text text-anchor="start" x="30" y="-177.5" font-family="Helvetica,sans-Serif" font-size="10.00">ConsoleColor color</text>
<text text-anchor="start" x="17" y="-162.5" font-family="Helvetica,sans-Serif" font-size="10.00">+</text>
<text text-anchor="start" x="30" y="-162.5" font-family="Helvetica,sans-Serif" font-size="10.00">bool IsWalkable</text>
<text text-anchor="start" x="17" y="-147.5" font-family="Helvetica,sans-Serif" font-size="10.00">+</text>
<text text-anchor="start" x="30" y="-147.5" font-family="Helvetica,sans-Serif" font-size="10.00">bool IsOccupied</text>
<text text-anchor="start" x="69.5" y="-132.5" font-family="Helvetica,sans-Serif" font-size="10.00"> </text>
<polygon fill="#666666" stroke="#666666" points="13,-217.5 13,-217.5 130,-217.5 130,-217.5 13,-217.5"/>
<polygon fill="#666666" stroke="#666666" points="13,-142.5 13,-142.5 28,-142.5 28,-142.5 13,-142.5"/>
<polygon fill="#666666" stroke="#666666" points="28,-142.5 28,-142.5 130,-142.5 130,-142.5 28,-142.5"/>
<polygon fill="none" stroke="#666666" points="12.5,-126 12.5,-235 129.5,-235 129.5,-126 12.5,-126"/>
</a>
</g>
</g>
<!-- Node2&#45;&gt;Node1 -->
<g id="edge1_Node000001_Node000002" class="edge">
<title>Node2&#45;&gt;Node1</title>
<g id="a_edge1_Node000001_Node000002"><a xlink:title=" ">
<path fill="none" stroke="#63b8ff" d="M71,-115.83C71,-107.13 71,-98.37 71,-90.12"/>
<polygon fill="none" stroke="#63b8ff" points="67.5,-115.97 71,-125.97 74.5,-115.97 67.5,-115.97"/>
</a>
</g>
</g>
</g>
</svg>
