<?xml version="1.0" encoding="UTF-8" standalone="no"?>
<!DOCTYPE svg PUBLIC "-//W3C//DTD SVG 1.1//EN"
 "http://www.w3.org/Graphics/SVG/1.1/DTD/svg11.dtd">
<!-- Generated by graphviz version 13.1.2 (20250808.2320)
 -->
<!-- Title: RpgGame.Items.HandOccupation Pages: 1 -->
<svg width="374pt" height="210pt"
 viewBox="0.00 0.00 374.00 210.00" xmlns="http://www.w3.org/2000/svg" xmlns:xlink="http://www.w3.org/1999/xlink">

<svg id="main" version="1.1" xmlns="http://www.w3.org/2000/svg" xmlns:xlink="http://www.w3.org/1999/xlink" xml:space="preserve">

<style type="text/css"><![CDATA[
.node, .edge {opacity: 0.7;}
.node.selected, .edge.selected {opacity: 1;}
.edge:hover path { stroke: red; }
.edge:hover polygon { stroke: red; fill: red; }
]]></style>
<script type="application/ecmascript" xlink:href="svg.min.js"/>
<svg id="graph" class="graph">
<g id="graph0" class="graph" transform="scale(1 1) rotate(0) translate(4 206)">
<title>RpgGame.Items.HandOccupation</title>
<!-- Node1 -->
<g id="Node000001" class="node">
<title>Node1</title>
<g id="a_Node000001"><a xlink:title="Defines the strategy for how an equippable item occupies the player&#39;s hands.">
<polygon fill="#999999" stroke="none" points="261.5,-202 105,-202 105,-119 261.5,-119 261.5,-202"/>
<text xml:space="preserve" text-anchor="start" x="109" y="-188.5" font-family="Helvetica,sans-Serif" font-size="10.00">RpgGame.Items.HandOccupation</text>
<text xml:space="preserve" text-anchor="start" x="181.75" y="-174" font-family="Helvetica,sans-Serif" font-size="10.00"> </text>
<text xml:space="preserve" text-anchor="start" x="116.06" y="-159.5" font-family="Helvetica,sans-Serif" font-size="10.00">+</text>
<text xml:space="preserve" text-anchor="start" x="133.12" y="-159.5" font-family="Helvetica,sans-Serif" font-size="10.00">bool EquipLeft(Player</text>
<text xml:space="preserve" text-anchor="start" x="133.12" y="-149" font-family="Helvetica,sans-Serif" font-size="10.00"> player, IEquippable item)</text>
<text xml:space="preserve" text-anchor="start" x="116.06" y="-134.5" font-family="Helvetica,sans-Serif" font-size="10.00">+</text>
<text xml:space="preserve" text-anchor="start" x="133.12" y="-134.5" font-family="Helvetica,sans-Serif" font-size="10.00">bool EquipRight(Player</text>
<text xml:space="preserve" text-anchor="start" x="133.12" y="-124" font-family="Helvetica,sans-Serif" font-size="10.00"> player, IEquippable item)</text>
<polygon fill="#666666" stroke="#666666" points="105,-185.5 105,-185.5 261.5,-185.5 261.5,-185.5 105,-185.5"/>
<polygon fill="#666666" stroke="#666666" points="105,-171 105,-171 261.5,-171 261.5,-171 105,-171"/>
<polygon fill="none" stroke="#666666" points="105,-119 105,-202 261.5,-202 261.5,-119 105,-119"/>
</a>
</g>
</g>
<!-- Node2 -->
<g id="Node000002" class="node">
<title>Node2</title>
<g id="a_Node000002"><a xlink:href="classRpgGame_1_1Items_1_1OneHandOccupation.html" target="_top" xlink:title="Represents a hand occupation strategy for one&#45;handed equipment.">
<polygon fill="white" stroke="none" points="174.5,-83 0,-83 0,0 174.5,0 174.5,-83"/>
<text xml:space="preserve" text-anchor="start" x="4" y="-69.5" font-family="Helvetica,sans-Serif" font-size="10.00">RpgGame.Items.OneHandOccupation</text>
<text xml:space="preserve" text-anchor="start" x="85.75" y="-55" font-family="Helvetica,sans-Serif" font-size="10.00"> </text>
<text xml:space="preserve" text-anchor="start" x="8.06" y="-40.5" font-family="Helvetica,sans-Serif" font-size="10.00">+</text>
<text xml:space="preserve" text-anchor="start" x="22.12" y="-40.5" font-family="Helvetica,sans-Serif" font-size="10.00">override bool EquipLeft</text>
<text xml:space="preserve" text-anchor="start" x="22.12" y="-30" font-family="Helvetica,sans-Serif" font-size="10.00">(Player player, IEquippable item)</text>
<text xml:space="preserve" text-anchor="start" x="8.06" y="-15.5" font-family="Helvetica,sans-Serif" font-size="10.00">+</text>
<text xml:space="preserve" text-anchor="start" x="22.12" y="-15.5" font-family="Helvetica,sans-Serif" font-size="10.00">override bool EquipRight</text>
<text xml:space="preserve" text-anchor="start" x="22.12" y="-5" font-family="Helvetica,sans-Serif" font-size="10.00">(Player player, IEquippable item)</text>
<polygon fill="#666666" stroke="#666666" points="0,-66.5 0,-66.5 174.5,-66.5 174.5,-66.5 0,-66.5"/>
<polygon fill="#666666" stroke="#666666" points="0,-52 0,-52 174.5,-52 174.5,-52 0,-52"/>
<polygon fill="none" stroke="#666666" points="0,0 0,-83 174.5,-83 174.5,0 0,0"/>
</a>
</g>
</g>
<!-- Node1&#45;&gt;Node2 -->
<g id="edge1_Node000001_Node000002" class="edge">
<title>Node1&#45;&gt;Node2</title>
<g id="a_edge1_Node000001_Node000002"><a xlink:title=" ">
<path fill="none" stroke="#63b8ff" d="M143.07,-110.53C135.5,-101.3 127.67,-91.76 120.35,-82.84"/>
<polygon fill="none" stroke="#63b8ff" points="140.2,-112.55 149.25,-118.07 145.61,-108.11 140.2,-112.55"/>
</a>
</g>
</g>
<!-- Node3 -->
<g id="Node000003" class="node">
<title>Node3</title>
<g id="a_Node000003"><a xlink:href="classRpgGame_1_1Items_1_1TwoHandOccupation.html" target="_top" xlink:title="Represents a hand occupation strategy for two&#45;handed equipment.">
<polygon fill="white" stroke="none" points="366.12,-83 192.38,-83 192.38,0 366.12,0 366.12,-83"/>
<text xml:space="preserve" text-anchor="start" x="196.38" y="-69.5" font-family="Helvetica,sans-Serif" font-size="10.00">RpgGame.Items.TwoHandOccupation</text>
<text xml:space="preserve" text-anchor="start" x="277.75" y="-55" font-family="Helvetica,sans-Serif" font-size="10.00"> </text>
<text xml:space="preserve" text-anchor="start" x="200.25" y="-40.5" font-family="Helvetica,sans-Serif" font-size="10.00">+</text>
<text xml:space="preserve" text-anchor="start" x="214.12" y="-40.5" font-family="Helvetica,sans-Serif" font-size="10.00">override bool EquipLeft</text>
<text xml:space="preserve" text-anchor="start" x="214.12" y="-30" font-family="Helvetica,sans-Serif" font-size="10.00">(Player player, IEquippable item)</text>
<text xml:space="preserve" text-anchor="start" x="200.25" y="-15.5" font-family="Helvetica,sans-Serif" font-size="10.00">+</text>
<text xml:space="preserve" text-anchor="start" x="214.12" y="-15.5" font-family="Helvetica,sans-Serif" font-size="10.00">override bool EquipRight</text>
<text xml:space="preserve" text-anchor="start" x="214.12" y="-5" font-family="Helvetica,sans-Serif" font-size="10.00">(Player player, IEquippable item)</text>
<polygon fill="#666666" stroke="#666666" points="192.38,-66.5 192.38,-66.5 366.12,-66.5 366.12,-66.5 192.38,-66.5"/>
<polygon fill="#666666" stroke="#666666" points="192.38,-52 192.38,-52 366.12,-52 366.12,-52 192.38,-52"/>
<polygon fill="none" stroke="#666666" points="192.38,0 192.38,-83 366.12,-83 366.12,0 192.38,0"/>
</a>
</g>
</g>
<!-- Node1&#45;&gt;Node3 -->
<g id="edge2_Node000001_Node000003" class="edge">
<title>Node1&#45;&gt;Node3</title>
<g id="a_edge2_Node000001_Node000003"><a xlink:title=" ">
<path fill="none" stroke="#63b8ff" d="M223.43,-110.53C231,-101.3 238.83,-91.76 246.15,-82.84"/>
<polygon fill="none" stroke="#63b8ff" points="220.89,-108.11 217.25,-118.07 226.3,-112.55 220.89,-108.11"/>
</a>
</g>
</g>
</g>
</svg>
</svg>

<style type='text/css'>
<![CDATA[
[data-mouse-over-selected='false'] { opacity: 0.7; }
[data-mouse-over-selected='true']  { opacity: 1.0; }
]]>
</style>
<script type="application/ecmascript"><![CDATA[
document.addEventListener('DOMContentLoaded', (event) => {
  highlightEdges();
  highlightAdjacentNodes();
});
]]></script>
</svg>
