<?xml version="1.0" encoding="UTF-8" standalone="no"?>
<!DOCTYPE svg PUBLIC "-//W3C//DTD SVG 1.1//EN"
 "http://www.w3.org/Graphics/SVG/1.1/DTD/svg11.dtd">
<!-- Generated by graphviz version 2.43.0 (0)
 -->
<!-- Title: Graphical Class Hierarchy Pages: 1 -->
<svg width="357pt" height="64pt"
 viewBox="0.00 0.00 357.00 64.00" xmlns="http://www.w3.org/2000/svg" xmlns:xlink="http://www.w3.org/1999/xlink">
<g id="graph0" class="graph" transform="scale(1 1) rotate(0) translate(4 60)">
<title>Graphical Class Hierarchy</title>
<!-- Node0 -->
<g id="Node000000" class="node">
<title>Node0</title>
<g id="a_Node000000"><a xlink:href="classRpgGame_1_1Character_1_1Character.html" target="_top" xlink:title="Base abstract class for both playable and non&#45;playable characters.">
<polygon fill="white" stroke="#666666" points="164,-37 0,-37 0,-18 164,-18 164,-37"/>
<text text-anchor="middle" x="82" y="-25" font-family="Helvetica,sans-Serif" font-size="10.00">RpgGame.Character.Character</text>
</a>
</g>
</g>
<!-- Node1 -->
<g id="Node000001" class="node">
<title>Node1</title>
<g id="a_Node000001"><a xlink:href="classRpgGame_1_1Character_1_1Golem.html" target="_top" xlink:title="Represents a Golem character in the game. Golems are typically non&#45;player characters (NPCs) that may ...">
<polygon fill="white" stroke="#666666" points="349,-56 200,-56 200,-37 349,-37 349,-56"/>
<text text-anchor="middle" x="274.5" y="-44" font-family="Helvetica,sans-Serif" font-size="10.00">RpgGame.Character.Golem</text>
</a>
</g>
</g>
<!-- Node0&#45;&gt;Node1 -->
<g id="edge1_Node000000_Node000001" class="edge">
<title>Node0&#45;&gt;Node1</title>
<g id="a_edge1_Node000000_Node000001"><a xlink:title=" ">
<path fill="none" stroke="#63b8ff" d="M174.12,-36.59C182.71,-37.44 191.35,-38.31 199.75,-39.14"/>
<polygon fill="#63b8ff" stroke="#63b8ff" points="174.36,-33.1 164.07,-35.59 173.67,-40.06 174.36,-33.1"/>
</a>
</g>
</g>
<!-- Node2 -->
<g id="Node000002" class="node">
<title>Node2</title>
<g id="a_Node000002"><a xlink:href="classRpgGame_1_1Character_1_1Player.html" target="_top" xlink:title="Represents the player&#45;controlled character in the game.">
<polygon fill="white" stroke="#666666" points="348.5,-19 200.5,-19 200.5,0 348.5,0 348.5,-19"/>
<text text-anchor="middle" x="274.5" y="-7" font-family="Helvetica,sans-Serif" font-size="10.00">RpgGame.Character.Player</text>
</a>
</g>
</g>
<!-- Node0&#45;&gt;Node2 -->
<g id="edge2_Node000000_Node000002" class="edge">
<title>Node0&#45;&gt;Node2</title>
<g id="a_edge2_Node000000_Node000002"><a xlink:title=" ">
<path fill="none" stroke="#63b8ff" d="M174.29,-18.87C183.03,-18.05 191.82,-17.22 200.35,-16.41"/>
<polygon fill="#63b8ff" stroke="#63b8ff" points="173.69,-15.42 164.07,-19.84 174.35,-22.38 173.69,-15.42"/>
</a>
</g>
</g>
</g>
</svg>
