<?xml version="1.0" encoding="UTF-8" standalone="no"?>
<!DOCTYPE svg PUBLIC "-//W3C//DTD SVG 1.1//EN"
 "http://www.w3.org/Graphics/SVG/1.1/DTD/svg11.dtd">
<!-- Generated by graphviz version 13.1.2 (20250808.2320)
 -->
<!-- Title: Graphical Class Hierarchy Pages: 1 -->
<svg width="335pt" height="64pt"
 viewBox="0.00 0.00 335.00 64.00" xmlns="http://www.w3.org/2000/svg" xmlns:xlink="http://www.w3.org/1999/xlink">
<g id="graph0" class="graph" transform="scale(1 1) rotate(0) translate(4 59.5)">
<title>Graphical Class Hierarchy</title>
<!-- Node0 -->
<g id="Node000000" class="node">
<title>Node0</title>
<g id="a_Node000000"><a xlink:href="classRpgGame_1_1Character_1_1Character.html" target="_top" xlink:title="Base abstract class for both playable and non&#45;playable characters.">
<polygon fill="white" stroke="#666666" points="152.5,-36.5 0,-36.5 0,-18 152.5,-18 152.5,-36.5"/>
<text xml:space="preserve" text-anchor="middle" x="76.25" y="-23" font-family="Helvetica,sans-Serif" font-size="10.00">RpgGame.Character.Character</text>
</a>
</g>
</g>
<!-- Node1 -->
<g id="Node000001" class="node">
<title>Node1</title>
<g id="a_Node000001"><a xlink:href="classRpgGame_1_1Character_1_1Golem.html" target="_top" xlink:title="Represents a Golem character in the game. Golems are typically non&#45;player characters (NPCs) that may ...">
<polygon fill="white" stroke="#666666" points="326.75,-55.5 188.5,-55.5 188.5,-37 326.75,-37 326.75,-55.5"/>
<text xml:space="preserve" text-anchor="middle" x="257.62" y="-42" font-family="Helvetica,sans-Serif" font-size="10.00">RpgGame.Character.Golem</text>
</a>
</g>
</g>
<!-- Node0&#45;&gt;Node1 -->
<g id="edge1_Node000000_Node000001" class="edge">
<title>Node0&#45;&gt;Node1</title>
<g id="a_edge1_Node000000_Node000001"><a xlink:title=" ">
<path fill="none" stroke="#63b8ff" d="M164.1,-36.45C172.13,-37.3 180.18,-38.15 188.01,-38.98"/>
<polygon fill="#63b8ff" stroke="#63b8ff" points="164.62,-32.98 154.31,-35.41 163.88,-39.95 164.62,-32.98"/>
</a>
</g>
</g>
<!-- Node2 -->
<g id="Node000002" class="node">
<title>Node2</title>
<g id="a_Node000002"><a xlink:href="classRpgGame_1_1Character_1_1Player.html" target="_top" xlink:title="Represents the player&#45;controlled character in the game.">
<polygon fill="white" stroke="#666666" points="326,-18.5 189.25,-18.5 189.25,0 326,0 326,-18.5"/>
<text xml:space="preserve" text-anchor="middle" x="257.62" y="-5" font-family="Helvetica,sans-Serif" font-size="10.00">RpgGame.Character.Player</text>
</a>
</g>
</g>
<!-- Node0&#45;&gt;Node2 -->
<g id="edge2_Node000000_Node000002" class="edge">
<title>Node0&#45;&gt;Node2</title>
<g id="a_edge2_Node000000_Node000002"><a xlink:title=" ">
<path fill="none" stroke="#63b8ff" d="M164.1,-18.54C172.41,-17.7 180.76,-16.86 188.86,-16.05"/>
<polygon fill="#63b8ff" stroke="#63b8ff" points="163.91,-15.04 154.31,-19.52 164.61,-22 163.91,-15.04"/>
</a>
</g>
</g>
</g>
</svg>
