<?xml version="1.0" encoding="UTF-8" standalone="no"?>
<!DOCTYPE svg PUBLIC "-//W3C//DTD SVG 1.1//EN"
 "http://www.w3.org/Graphics/SVG/1.1/DTD/svg11.dtd">
<!-- Generated by graphviz version 13.1.2 (20250808.2320)
 -->
<!-- Title: Graphical Class Hierarchy Pages: 1 -->
<svg width="384pt" height="437pt"
 viewBox="0.00 0.00 384.00 437.00" xmlns="http://www.w3.org/2000/svg" xmlns:xlink="http://www.w3.org/1999/xlink">
<g id="graph0" class="graph" transform="scale(1 1) rotate(0) translate(4 432.75)">
<title>Graphical Class Hierarchy</title>
<!-- Node0 -->
<g id="Node000000" class="node">
<title>Node0</title>
<g id="a_Node000000"><a xlink:href="interfaceRpgGame_1_1Input_1_1IInputCommand.html" target="_top" xlink:title="Represents a user input command that manipulates the game state (level, player, inventory) and return...">
<polygon fill="white" stroke="#666666" points="157.75,-223.75 0,-223.75 0,-205.25 157.75,-205.25 157.75,-223.75"/>
<text xml:space="preserve" text-anchor="middle" x="78.88" y="-210.25" font-family="Helvetica,sans-Serif" font-size="10.00">RpgGame.Input.IInputCommand</text>
</a>
</g>
</g>
<!-- Node1 -->
<g id="Node000001" class="node">
<title>Node1</title>
<g id="a_Node000001"><a xlink:href="classRpgGame_1_1Input_1_1DropLeftCommand.html" target="_top" xlink:title="Instructs the player to drop the item in their left hand onto the level.">
<polygon fill="white" stroke="#666666" points="369.88,-428.75 199.38,-428.75 199.38,-410.25 369.88,-410.25 369.88,-428.75"/>
<text xml:space="preserve" text-anchor="middle" x="284.62" y="-415.25" font-family="Helvetica,sans-Serif" font-size="10.00">RpgGame.Input.DropLeftCommand</text>
</a>
</g>
</g>
<!-- Node0&#45;&gt;Node1 -->
<g id="edge13_Node000000_Node000001" class="edge">
<title>Node0&#45;&gt;Node1</title>
<g id="a_edge13_Node000000_Node000001"><a xlink:title=" ">
<path fill="none" stroke="#63b8ff" d="M86.3,-235.03C99.61,-273.95 134.03,-358.32 193.75,-400.5 199.09,-404.27 205.03,-407.32 211.23,-409.79"/>
<polygon fill="#63b8ff" stroke="#63b8ff" points="89.63,-233.95 83.19,-225.54 82.98,-236.13 89.63,-233.95"/>
</a>
</g>
</g>
<!-- Node2 -->
<g id="Node000002" class="node">
<title>Node2</title>
<g id="a_Node000002"><a xlink:href="classRpgGame_1_1Input_1_1DropRightCommand.html" target="_top" xlink:title="Instructs the player to drop the item in their right hand onto the level.">
<polygon fill="white" stroke="#666666" points="373.25,-391.75 196,-391.75 196,-373.25 373.25,-373.25 373.25,-391.75"/>
<text xml:space="preserve" text-anchor="middle" x="284.62" y="-378.25" font-family="Helvetica,sans-Serif" font-size="10.00">RpgGame.Input.DropRightCommand</text>
</a>
</g>
</g>
<!-- Node0&#45;&gt;Node2 -->
<g id="edge14_Node000000_Node000002" class="edge">
<title>Node0&#45;&gt;Node2</title>
<g id="a_edge14_Node000000_Node000002"><a xlink:title=" ">
<path fill="none" stroke="#63b8ff" d="M88.95,-234.27C105.07,-267 141.95,-332.05 193.75,-364.5 199.14,-367.88 205.05,-370.64 211.17,-372.9"/>
<polygon fill="#63b8ff" stroke="#63b8ff" points="92.24,-233.03 84.78,-225.51 85.92,-236.04 92.24,-233.03"/>
</a>
</g>
</g>
<!-- Node3 -->
<g id="Node000003" class="node">
<title>Node3</title>
<g id="a_Node000003"><a xlink:href="classRpgGame_1_1Input_1_1InventoryToLeftHandCommand.html" target="_top" xlink:title="Transfers the currently selected inventory item to the player&#39;s left hand.">
<polygon fill="white" stroke="#666666" points="354.12,-355 215.12,-355 215.12,-326 354.12,-326 354.12,-355"/>
<text xml:space="preserve" text-anchor="start" x="223.12" y="-341.5" font-family="Helvetica,sans-Serif" font-size="10.00">RpgGame.Input.InventoryTo</text>
<text xml:space="preserve" text-anchor="middle" x="284.62" y="-331" font-family="Helvetica,sans-Serif" font-size="10.00">LeftHandCommand</text>
</a>
</g>
</g>
<!-- Node0&#45;&gt;Node3 -->
<g id="edge15_Node000000_Node000003" class="edge">
<title>Node0&#45;&gt;Node3</title>
<g id="a_edge15_Node000000_Node000003"><a xlink:title=" ">
<path fill="none" stroke="#63b8ff" d="M94.86,-232.67C114.96,-255.85 152.88,-295.55 193.75,-317.5 200.42,-321.08 207.67,-324.12 215.06,-326.7"/>
<polygon fill="#63b8ff" stroke="#63b8ff" points="97.72,-230.63 88.58,-225.27 92.38,-235.16 97.72,-230.63"/>
</a>
</g>
</g>
<!-- Node4 -->
<g id="Node000004" class="node">
<title>Node4</title>
<g id="a_Node000004"><a xlink:href="classRpgGame_1_1Input_1_1InventoryToRightHandCommand.html" target="_top" xlink:title="Transfers the currently selected inventory item to the player&#39;s right hand.">
<polygon fill="white" stroke="#666666" points="354.12,-308 215.12,-308 215.12,-279 354.12,-279 354.12,-308"/>
<text xml:space="preserve" text-anchor="start" x="223.12" y="-294.5" font-family="Helvetica,sans-Serif" font-size="10.00">RpgGame.Input.InventoryTo</text>
<text xml:space="preserve" text-anchor="middle" x="284.62" y="-284" font-family="Helvetica,sans-Serif" font-size="10.00">RightHandCommand</text>
</a>
</g>
</g>
<!-- Node0&#45;&gt;Node4 -->
<g id="edge16_Node000000_Node000004" class="edge">
<title>Node0&#45;&gt;Node4</title>
<g id="a_edge16_Node000000_Node000004"><a xlink:title=" ">
<path fill="none" stroke="#63b8ff" d="M107.09,-229.45C129.77,-241.47 163.19,-258.15 193.75,-269.5 202.68,-272.82 212.27,-275.88 221.74,-278.63"/>
<polygon fill="#63b8ff" stroke="#63b8ff" points="108.98,-226.49 98.51,-224.85 105.67,-232.66 108.98,-226.49"/>
</a>
</g>
</g>
<!-- Node5 -->
<g id="Node000005" class="node">
<title>Node5</title>
<g id="a_Node000005"><a xlink:href="classRpgGame_1_1Input_1_1MoveDownCommand.html" target="_top" xlink:title="Moves the player one tile down (south) on the level.">
<polygon fill="white" stroke="#666666" points="375.5,-260.75 193.75,-260.75 193.75,-242.25 375.5,-242.25 375.5,-260.75"/>
<text xml:space="preserve" text-anchor="middle" x="284.62" y="-247.25" font-family="Helvetica,sans-Serif" font-size="10.00">RpgGame.Input.MoveDownCommand</text>
</a>
</g>
</g>
<!-- Node0&#45;&gt;Node5 -->
<g id="edge17_Node000000_Node000005" class="edge">
<title>Node0&#45;&gt;Node5</title>
<g id="a_edge17_Node000000_Node000005"><a xlink:title=" ">
<path fill="none" stroke="#63b8ff" d="M144.54,-226.24C172.1,-231.25 203.88,-237.02 230.1,-241.78"/>
<polygon fill="#63b8ff" stroke="#63b8ff" points="145.36,-222.83 134.9,-224.49 144.11,-229.72 145.36,-222.83"/>
</a>
</g>
</g>
<!-- Node6 -->
<g id="Node000006" class="node">
<title>Node6</title>
<g id="a_Node000006"><a xlink:href="classRpgGame_1_1Input_1_1MoveLeftCommand.html" target="_top" xlink:title="Moves the player one tile left (west) on the level.">
<polygon fill="white" stroke="#666666" points="371,-223.75 198.25,-223.75 198.25,-205.25 371,-205.25 371,-223.75"/>
<text xml:space="preserve" text-anchor="middle" x="284.62" y="-210.25" font-family="Helvetica,sans-Serif" font-size="10.00">RpgGame.Input.MoveLeftCommand</text>
</a>
</g>
</g>
<!-- Node0&#45;&gt;Node6 -->
<g id="edge18_Node000000_Node000006" class="edge">
<title>Node0&#45;&gt;Node6</title>
<g id="a_edge18_Node000000_Node000006"><a xlink:title=" ">
<path fill="none" stroke="#63b8ff" d="M169.47,-214.5C178.9,-214.5 188.46,-214.5 197.84,-214.5"/>
<polygon fill="#63b8ff" stroke="#63b8ff" points="169.58,-211 159.58,-214.5 169.58,-218 169.58,-211"/>
</a>
</g>
</g>
<!-- Node7 -->
<g id="Node000007" class="node">
<title>Node7</title>
<g id="a_Node000007"><a xlink:href="classRpgGame_1_1Input_1_1MoveRightCommand.html" target="_top" xlink:title="Moves the player one tile right (east) on the level.">
<polygon fill="white" stroke="#666666" points="374.38,-186.75 194.88,-186.75 194.88,-168.25 374.38,-168.25 374.38,-186.75"/>
<text xml:space="preserve" text-anchor="middle" x="284.62" y="-173.25" font-family="Helvetica,sans-Serif" font-size="10.00">RpgGame.Input.MoveRightCommand</text>
</a>
</g>
</g>
<!-- Node0&#45;&gt;Node7 -->
<g id="edge19_Node000000_Node000007" class="edge">
<title>Node0&#45;&gt;Node7</title>
<g id="a_edge19_Node000000_Node000007"><a xlink:title=" ">
<path fill="none" stroke="#63b8ff" d="M144.54,-202.76C172.1,-197.75 203.88,-191.98 230.1,-187.22"/>
<polygon fill="#63b8ff" stroke="#63b8ff" points="144.11,-199.28 134.9,-204.51 145.36,-206.17 144.11,-199.28"/>
</a>
</g>
</g>
<!-- Node8 -->
<g id="Node000008" class="node">
<title>Node8</title>
<g id="a_Node000008"><a xlink:href="classRpgGame_1_1Input_1_1MoveUpCommand.html" target="_top" xlink:title="Moves the player one tile up (north) on the level.">
<polygon fill="white" stroke="#666666" points="369.12,-149.75 200.12,-149.75 200.12,-131.25 369.12,-131.25 369.12,-149.75"/>
<text xml:space="preserve" text-anchor="middle" x="284.62" y="-136.25" font-family="Helvetica,sans-Serif" font-size="10.00">RpgGame.Input.MoveUpCommand</text>
</a>
</g>
</g>
<!-- Node0&#45;&gt;Node8 -->
<g id="edge20_Node000000_Node000008" class="edge">
<title>Node0&#45;&gt;Node8</title>
<g id="a_edge20_Node000000_Node000008"><a xlink:title=" ">
<path fill="none" stroke="#63b8ff" d="M106.54,-199.33C129.14,-187.05 162.72,-170.1 193.75,-159.5 204.47,-155.84 216.15,-152.75 227.44,-150.19"/>
<polygon fill="#63b8ff" stroke="#63b8ff" points="105.08,-196.15 98.01,-204.04 108.46,-202.27 105.08,-196.15"/>
</a>
</g>
</g>
<!-- Node9 -->
<g id="Node000009" class="node">
<title>Node9</title>
<g id="a_Node000009"><a xlink:href="classRpgGame_1_1Input_1_1QuitGameCommand.html" target="_top" xlink:title="Command that causes the game loop to exit.">
<polygon fill="white" stroke="#666666" points="373.25,-112.75 196,-112.75 196,-94.25 373.25,-94.25 373.25,-112.75"/>
<text xml:space="preserve" text-anchor="middle" x="284.62" y="-99.25" font-family="Helvetica,sans-Serif" font-size="10.00">RpgGame.Input.QuitGameCommand</text>
</a>
</g>
</g>
<!-- Node0&#45;&gt;Node9 -->
<g id="edge21_Node000000_Node000009" class="edge">
<title>Node0&#45;&gt;Node9</title>
<g id="a_edge21_Node000000_Node000009"><a xlink:title=" ">
<path fill="none" stroke="#63b8ff" d="M96.36,-196.84C117.04,-175.79 154.59,-141.13 193.75,-122.5 201.82,-118.66 210.65,-115.6 219.54,-113.15"/>
<polygon fill="#63b8ff" stroke="#63b8ff" points="94.02,-194.22 89.62,-203.85 99.07,-199.07 94.02,-194.22"/>
</a>
</g>
</g>
<!-- Node10 -->
<g id="Node000010" class="node">
<title>Node10</title>
<g id="a_Node000010"><a xlink:href="classRpgGame_1_1Input_1_1SelectInventoryCommand.html" target="_top" xlink:title="Selects a specific inventory slot.">
<polygon fill="white" stroke="#666666" points="362.75,-76 206.5,-76 206.5,-47 362.75,-47 362.75,-76"/>
<text xml:space="preserve" text-anchor="start" x="214.5" y="-62.5" font-family="Helvetica,sans-Serif" font-size="10.00">RpgGame.Input.SelectInventory</text>
<text xml:space="preserve" text-anchor="middle" x="284.62" y="-52" font-family="Helvetica,sans-Serif" font-size="10.00">Command</text>
</a>
</g>
</g>
<!-- Node0&#45;&gt;Node10 -->
<g id="edge22_Node000000_Node000010" class="edge">
<title>Node0&#45;&gt;Node10</title>
<g id="a_edge22_Node000000_Node000010"><a xlink:title=" ">
<path fill="none" stroke="#63b8ff" d="M91.4,-195.46C109.56,-167.11 147.58,-114.08 193.75,-85.5 199.38,-82.01 205.51,-79.03 211.84,-76.48"/>
<polygon fill="#63b8ff" stroke="#63b8ff" points="88.56,-193.4 86.23,-203.73 94.5,-197.11 88.56,-193.4"/>
</a>
</g>
</g>
<!-- Node11 -->
<g id="Node000011" class="node">
<title>Node11</title>
<g id="a_Node000011"><a xlink:href="classRpgGame_1_1Input_1_1TakeToInventoryCommand.html" target="_top" xlink:title="Picks up the item resting on the player&#39;s current tile and places it into the inventory if possible.">
<polygon fill="white" stroke="#666666" points="364.25,-29 205,-29 205,0 364.25,0 364.25,-29"/>
<text xml:space="preserve" text-anchor="start" x="213" y="-15.5" font-family="Helvetica,sans-Serif" font-size="10.00">RpgGame.Input.TakeToInventory</text>
<text xml:space="preserve" text-anchor="middle" x="284.62" y="-5" font-family="Helvetica,sans-Serif" font-size="10.00">Command</text>
</a>
</g>
</g>
<!-- Node0&#45;&gt;Node11 -->
<g id="edge23_Node000000_Node000011" class="edge">
<title>Node0&#45;&gt;Node11</title>
<g id="a_edge23_Node000000_Node000011"><a xlink:title=" ">
<path fill="none" stroke="#63b8ff" d="M87.03,-194.82C101.36,-158.21 137.18,-79.64 193.75,-38.5 198.58,-34.99 203.9,-31.99 209.45,-29.43"/>
<polygon fill="#63b8ff" stroke="#63b8ff" points="83.93,-193.12 83.66,-203.71 90.47,-195.6 83.93,-193.12"/>
</a>
</g>
</g>
</g>
</svg>
