<?xml version="1.0" encoding="UTF-8" standalone="no"?>
<!DOCTYPE svg PUBLIC "-//W3C//DTD SVG 1.1//EN"
 "http://www.w3.org/Graphics/SVG/1.1/DTD/svg11.dtd">
<!-- Generated by graphviz version 2.43.0 (0)
 -->
<!-- Title: Graphical Class Hierarchy Pages: 1 -->
<svg width="417pt" height="443pt"
 viewBox="0.00 0.00 417.00 442.50" xmlns="http://www.w3.org/2000/svg" xmlns:xlink="http://www.w3.org/1999/xlink">
<g id="graph0" class="graph" transform="scale(1 1) rotate(0) translate(4 438.5)">
<title>Graphical Class Hierarchy</title>
<!-- Node0 -->
<g id="Node000000" class="node">
<title>Node0</title>
<g id="a_Node000000"><a xlink:href="interfaceRpgGame_1_1Input_1_1IInputCommand.html" target="_top" xlink:title="Represents a user input command that manipulates the game state (level, player, inventory) and return...">
<polygon fill="white" stroke="#666666" points="173,-226.5 0,-226.5 0,-207.5 173,-207.5 173,-226.5"/>
<text text-anchor="middle" x="86.5" y="-214.5" font-family="Helvetica,sans-Serif" font-size="10.00">RpgGame.Input.IInputCommand</text>
</a>
</g>
</g>
<!-- Node1 -->
<g id="Node000001" class="node">
<title>Node1</title>
<g id="a_Node000001"><a xlink:href="classRpgGame_1_1Input_1_1DropLeftCommand.html" target="_top" xlink:title="Instructs the player to drop the item in their left hand onto the level.">
<polygon fill="white" stroke="#666666" points="402.5,-434.5 215.5,-434.5 215.5,-415.5 402.5,-415.5 402.5,-434.5"/>
<text text-anchor="middle" x="309" y="-422.5" font-family="Helvetica,sans-Serif" font-size="10.00">RpgGame.Input.DropLeftCommand</text>
</a>
</g>
</g>
<!-- Node0&#45;&gt;Node1 -->
<g id="edge14_Node000000_Node000001" class="edge">
<title>Node0&#45;&gt;Node1</title>
<g id="a_edge14_Node000000_Node000001"><a xlink:title=" ">
<path fill="none" stroke="#63b8ff" d="M93.89,-236.36C107.89,-275.56 145.26,-364.24 209,-407 213.93,-410.31 219.3,-413.06 224.9,-415.33"/>
<polygon fill="#63b8ff" stroke="#63b8ff" points="97.19,-235.21 90.62,-226.9 90.57,-237.49 97.19,-235.21"/>
</a>
</g>
</g>
<!-- Node2 -->
<g id="Node000002" class="node">
<title>Node2</title>
<g id="a_Node000002"><a xlink:href="classRpgGame_1_1Input_1_1DropRightCommand.html" target="_top" xlink:title="Instructs the player to drop the item in their right hand onto the level.">
<polygon fill="white" stroke="#666666" points="406,-397.5 212,-397.5 212,-378.5 406,-378.5 406,-397.5"/>
<text text-anchor="middle" x="309" y="-385.5" font-family="Helvetica,sans-Serif" font-size="10.00">RpgGame.Input.DropRightCommand</text>
</a>
</g>
</g>
<!-- Node0&#45;&gt;Node2 -->
<g id="edge15_Node000000_Node000002" class="edge">
<title>Node0&#45;&gt;Node2</title>
<g id="a_edge15_Node000000_Node000002"><a xlink:title=" ">
<path fill="none" stroke="#63b8ff" d="M96.77,-235.79C113.99,-268.59 154.22,-335.94 209,-369 215.37,-372.84 222.35,-375.93 229.57,-378.42"/>
<polygon fill="#63b8ff" stroke="#63b8ff" points="99.84,-234.11 92.17,-226.8 93.6,-237.3 99.84,-234.11"/>
</a>
</g>
</g>
<!-- Node3 -->
<g id="Node000003" class="node">
<title>Node3</title>
<g id="a_Node000003"><a xlink:href="classRpgGame_1_1Input_1_1InventoryToLeftHandCommand.html" target="_top" xlink:title="Transfers the currently selected inventory item to the player&#39;s left hand.">
<polygon fill="white" stroke="#666666" points="385,-360 233,-360 233,-330 385,-330 385,-360"/>
<text text-anchor="start" x="241" y="-348" font-family="Helvetica,sans-Serif" font-size="10.00">RpgGame.Input.InventoryTo</text>
<text text-anchor="middle" x="309" y="-337" font-family="Helvetica,sans-Serif" font-size="10.00">LeftHandCommand</text>
</a>
</g>
</g>
<!-- Node0&#45;&gt;Node3 -->
<g id="edge16_Node000000_Node000003" class="edge">
<title>Node0&#45;&gt;Node3</title>
<g id="a_edge16_Node000000_Node000003"><a xlink:title=" ">
<path fill="none" stroke="#63b8ff" d="M102.81,-234.46C124.22,-257.77 165.41,-298.7 209,-321 216.48,-324.83 224.59,-328.06 232.84,-330.79"/>
<polygon fill="#63b8ff" stroke="#63b8ff" points="105.14,-231.82 95.85,-226.74 99.94,-236.51 105.14,-231.82"/>
</a>
</g>
</g>
<!-- Node4 -->
<g id="Node000004" class="node">
<title>Node4</title>
<g id="a_Node000004"><a xlink:href="classRpgGame_1_1Input_1_1InventoryToRightHandCommand.html" target="_top" xlink:title="Transfers the currently selected inventory item to the player&#39;s right hand.">
<polygon fill="white" stroke="#666666" points="385,-312 233,-312 233,-282 385,-282 385,-312"/>
<text text-anchor="start" x="241" y="-300" font-family="Helvetica,sans-Serif" font-size="10.00">RpgGame.Input.InventoryTo</text>
<text text-anchor="middle" x="309" y="-289" font-family="Helvetica,sans-Serif" font-size="10.00">RightHandCommand</text>
</a>
</g>
</g>
<!-- Node0&#45;&gt;Node4 -->
<g id="edge17_Node000000_Node000004" class="edge">
<title>Node0&#45;&gt;Node4</title>
<g id="a_edge17_Node000000_Node000004"><a xlink:title=" ">
<path fill="none" stroke="#63b8ff" d="M114.51,-231.3C138.73,-243.66 175.5,-261.34 209,-273 218.44,-276.28 228.53,-279.29 238.53,-281.97"/>
<polygon fill="#63b8ff" stroke="#63b8ff" points="116.06,-228.16 105.57,-226.68 112.85,-234.38 116.06,-228.16"/>
</a>
</g>
</g>
<!-- Node5 -->
<g id="Node000005" class="node">
<title>Node5</title>
<g id="a_Node000005"><a xlink:href="classRpgGame_1_1Input_1_1MoveDownCommand.html" target="_top" xlink:title="Moves the player one tile down (south) on the level.">
<polygon fill="white" stroke="#666666" points="409,-263.5 209,-263.5 209,-244.5 409,-244.5 409,-263.5"/>
<text text-anchor="middle" x="309" y="-251.5" font-family="Helvetica,sans-Serif" font-size="10.00">RpgGame.Input.MoveDownCommand</text>
</a>
</g>
</g>
<!-- Node0&#45;&gt;Node5 -->
<g id="edge18_Node000000_Node000005" class="edge">
<title>Node0&#45;&gt;Node5</title>
<g id="a_edge18_Node000000_Node000005"><a xlink:title=" ">
<path fill="none" stroke="#63b8ff" d="M154.52,-228.25C185.35,-233.42 221.53,-239.49 251.03,-244.44"/>
<polygon fill="#63b8ff" stroke="#63b8ff" points="154.73,-224.73 144.28,-226.53 153.57,-231.64 154.73,-224.73"/>
</a>
</g>
</g>
<!-- Node6 -->
<g id="Node000006" class="node">
<title>Node6</title>
<g id="a_Node000006"><a xlink:href="classRpgGame_1_1Input_1_1MoveLeftCommand.html" target="_top" xlink:title="Moves the player one tile left (west) on the level.">
<polygon fill="white" stroke="#666666" points="404.5,-226.5 213.5,-226.5 213.5,-207.5 404.5,-207.5 404.5,-226.5"/>
<text text-anchor="middle" x="309" y="-214.5" font-family="Helvetica,sans-Serif" font-size="10.00">RpgGame.Input.MoveLeftCommand</text>
</a>
</g>
</g>
<!-- Node0&#45;&gt;Node6 -->
<g id="edge19_Node000000_Node000006" class="edge">
<title>Node0&#45;&gt;Node6</title>
<g id="a_edge19_Node000000_Node000006"><a xlink:title=" ">
<path fill="none" stroke="#63b8ff" d="M183.36,-217C193.3,-217 203.4,-217 213.33,-217"/>
<polygon fill="#63b8ff" stroke="#63b8ff" points="183.07,-213.5 173.07,-217 183.07,-220.5 183.07,-213.5"/>
</a>
</g>
</g>
<!-- Node7 -->
<g id="Node000007" class="node">
<title>Node7</title>
<g id="a_Node000007"><a xlink:href="classRpgGame_1_1Input_1_1MoveRightCommand.html" target="_top" xlink:title="Moves the player one tile right (east) on the level.">
<polygon fill="white" stroke="#666666" points="408,-189.5 210,-189.5 210,-170.5 408,-170.5 408,-189.5"/>
<text text-anchor="middle" x="309" y="-177.5" font-family="Helvetica,sans-Serif" font-size="10.00">RpgGame.Input.MoveRightCommand</text>
</a>
</g>
</g>
<!-- Node0&#45;&gt;Node7 -->
<g id="edge20_Node000000_Node000007" class="edge">
<title>Node0&#45;&gt;Node7</title>
<g id="a_edge20_Node000000_Node000007"><a xlink:title=" ">
<path fill="none" stroke="#63b8ff" d="M154.52,-205.75C185.35,-200.58 221.53,-194.51 251.03,-189.56"/>
<polygon fill="#63b8ff" stroke="#63b8ff" points="153.57,-202.36 144.28,-207.47 154.73,-209.27 153.57,-202.36"/>
</a>
</g>
</g>
<!-- Node8 -->
<g id="Node000008" class="node">
<title>Node8</title>
<g id="a_Node000008"><a xlink:href="classRpgGame_1_1Input_1_1MoveUpCommand.html" target="_top" xlink:title="Moves the player one tile up (north) on the level.">
<polygon fill="white" stroke="#666666" points="402,-152.5 216,-152.5 216,-133.5 402,-133.5 402,-152.5"/>
<text text-anchor="middle" x="309" y="-140.5" font-family="Helvetica,sans-Serif" font-size="10.00">RpgGame.Input.MoveUpCommand</text>
</a>
</g>
</g>
<!-- Node0&#45;&gt;Node8 -->
<g id="edge21_Node000000_Node000008" class="edge">
<title>Node0&#45;&gt;Node8</title>
<g id="a_edge21_Node000000_Node000008"><a xlink:title=" ">
<path fill="none" stroke="#63b8ff" d="M113.99,-202.81C138.14,-190.41 175.1,-172.76 209,-162 220.84,-158.24 233.73,-155.11 246.18,-152.54"/>
<polygon fill="#63b8ff" stroke="#63b8ff" points="112.35,-199.72 105.09,-207.44 115.58,-205.93 112.35,-199.72"/>
</a>
</g>
</g>
<!-- Node9 -->
<g id="Node000009" class="node">
<title>Node9</title>
<g id="a_Node000009"><a xlink:href="classRpgGame_1_1Input_1_1QuitGameCommand.html" target="_top" xlink:title="Command that causes the game loop to exit.">
<polygon fill="white" stroke="#666666" points="406.5,-115.5 211.5,-115.5 211.5,-96.5 406.5,-96.5 406.5,-115.5"/>
<text text-anchor="middle" x="309" y="-103.5" font-family="Helvetica,sans-Serif" font-size="10.00">RpgGame.Input.QuitGameCommand</text>
</a>
</g>
</g>
<!-- Node0&#45;&gt;Node9 -->
<g id="edge22_Node000000_Node000009" class="edge">
<title>Node0&#45;&gt;Node9</title>
<g id="a_edge22_Node000000_Node000009"><a xlink:title=" ">
<path fill="none" stroke="#63b8ff" d="M104.09,-200.37C126.08,-179.36 167.02,-143.69 209,-125 217.79,-121.09 227.38,-117.98 237.01,-115.51"/>
<polygon fill="#63b8ff" stroke="#63b8ff" points="101.6,-197.91 96.88,-207.39 106.49,-202.93 101.6,-197.91"/>
</a>
</g>
</g>
<!-- Node10 -->
<g id="Node000010" class="node">
<title>Node10</title>
<g id="a_Node000010"><a xlink:href="classRpgGame_1_1Input_1_1SelectInventoryCommand.html" target="_top" xlink:title="Selects a specific inventory slot.">
<polygon fill="white" stroke="#666666" points="395,-78 223,-78 223,-48 395,-48 395,-78"/>
<text text-anchor="start" x="231" y="-66" font-family="Helvetica,sans-Serif" font-size="10.00">RpgGame.Input.SelectInventory</text>
<text text-anchor="middle" x="309" y="-55" font-family="Helvetica,sans-Serif" font-size="10.00">Command</text>
</a>
</g>
</g>
<!-- Node0&#45;&gt;Node10 -->
<g id="edge23_Node000000_Node000010" class="edge">
<title>Node0&#45;&gt;Node10</title>
<g id="a_edge23_Node000000_Node000010"><a xlink:title=" ">
<path fill="none" stroke="#63b8ff" d="M99.29,-199.02C118.7,-170.88 160.15,-116.71 209,-88 215.65,-84.09 222.9,-80.79 230.35,-78"/>
<polygon fill="#63b8ff" stroke="#63b8ff" points="96.27,-197.24 93.57,-207.49 102.07,-201.16 96.27,-197.24"/>
</a>
</g>
</g>
<!-- Node11 -->
<g id="Node000011" class="node">
<title>Node11</title>
<g id="a_Node000011"><a xlink:href="classRpgGame_1_1Input_1_1TakeToInventoryCommand.html" target="_top" xlink:title="Picks up the item resting on the player&#39;s current tile and places it into the inventory if possible.">
<polygon fill="white" stroke="#666666" points="396,-30 222,-30 222,0 396,0 396,-30"/>
<text text-anchor="start" x="230" y="-18" font-family="Helvetica,sans-Serif" font-size="10.00">RpgGame.Input.TakeToInventory</text>
<text text-anchor="middle" x="309" y="-7" font-family="Helvetica,sans-Serif" font-size="10.00">Command</text>
</a>
</g>
</g>
<!-- Node0&#45;&gt;Node11 -->
<g id="edge24_Node000000_Node000011" class="edge">
<title>Node0&#45;&gt;Node11</title>
<g id="a_edge24_Node000000_Node000011"><a xlink:title=" ">
<path fill="none" stroke="#63b8ff" d="M94.95,-197.92C110.36,-161.1 149.33,-80.25 209,-39 213.95,-35.58 219.32,-32.65 224.93,-30.13"/>
<polygon fill="#63b8ff" stroke="#63b8ff" points="91.6,-196.87 91.08,-207.46 98.09,-199.51 91.6,-196.87"/>
</a>
</g>
</g>
</g>
</svg>
