<?xml version="1.0" encoding="UTF-8" standalone="no"?>
<!DOCTYPE svg PUBLIC "-//W3C//DTD SVG 1.1//EN"
 "http://www.w3.org/Graphics/SVG/1.1/DTD/svg11.dtd">
<!-- Generated by graphviz version 13.1.2 (20250808.2320)
 -->
<!-- Title: Graphical Class Hierarchy Pages: 1 -->
<svg width="650pt" height="175pt"
 viewBox="0.00 0.00 650.00 175.00" xmlns="http://www.w3.org/2000/svg" xmlns:xlink="http://www.w3.org/1999/xlink">
<g id="graph0" class="graph" transform="scale(1 1) rotate(0) translate(4 170.5)">
<title>Graphical Class Hierarchy</title>
<!-- Node0 -->
<g id="Node000000" class="node">
<title>Node0</title>
<g id="a_Node000000"><a xlink:href="interfaceRpgGame_1_1Items_1_1IItem.html" target="_top" xlink:title="Defines the contract for all items that can exist within the game world.">
<polygon fill="white" stroke="#666666" points="114.25,-92.5 0,-92.5 0,-74 114.25,-74 114.25,-92.5"/>
<text xml:space="preserve" text-anchor="middle" x="57.12" y="-79" font-family="Helvetica,sans-Serif" font-size="10.00">RpgGame.Items.IItem</text>
</a>
</g>
</g>
<!-- Node1 -->
<g id="Node000001" class="node">
<title>Node1</title>
<g id="a_Node000001"><a xlink:href="classRpgGame_1_1Items_1_1Coin.html" target="_top" xlink:title="Represents a coin item that increases the player&#39;s currency when picked up.">
<polygon fill="white" stroke="#666666" points="277.62,-166.5 165.62,-166.5 165.62,-148 277.62,-148 277.62,-166.5"/>
<text xml:space="preserve" text-anchor="middle" x="221.62" y="-153" font-family="Helvetica,sans-Serif" font-size="10.00">RpgGame.Items.Coin</text>
</a>
</g>
</g>
<!-- Node0&#45;&gt;Node1 -->
<g id="edge27_Node000000_Node000001" class="edge">
<title>Node0&#45;&gt;Node1</title>
<g id="a_edge27_Node000000_Node000001"><a xlink:title=" ">
<path fill="none" stroke="#63b8ff" d="M80.93,-99.28C99.02,-111.4 125.33,-127.69 150.25,-138.25 158.76,-141.86 168.13,-144.95 177.19,-147.53"/>
<polygon fill="#63b8ff" stroke="#63b8ff" points="83.02,-96.48 72.79,-93.73 79.08,-102.26 83.02,-96.48"/>
</a>
</g>
</g>
<!-- Node2 -->
<g id="Node000002" class="node">
<title>Node2</title>
<g id="a_Node000002"><a xlink:href="classRpgGame_1_1Items_1_1Gold.html" target="_top" xlink:title="Represents a gold item that increases the player&#39;s gold currency when picked up.">
<polygon fill="white" stroke="#666666" points="277.62,-129.5 165.62,-129.5 165.62,-111 277.62,-111 277.62,-129.5"/>
<text xml:space="preserve" text-anchor="middle" x="221.62" y="-116" font-family="Helvetica,sans-Serif" font-size="10.00">RpgGame.Items.Gold</text>
</a>
</g>
</g>
<!-- Node0&#45;&gt;Node2 -->
<g id="edge28_Node000000_Node000002" class="edge">
<title>Node0&#45;&gt;Node2</title>
<g id="a_edge28_Node000000_Node000002"><a xlink:title=" ">
<path fill="none" stroke="#63b8ff" d="M111.76,-95.46C133.25,-100.36 157.67,-105.92 177.93,-110.53"/>
<polygon fill="#63b8ff" stroke="#63b8ff" points="112.82,-92.11 102.3,-93.31 111.27,-98.94 112.82,-92.11"/>
</a>
</g>
</g>
<!-- Node3 -->
<g id="Node000003" class="node">
<title>Node3</title>
<g id="a_Node000003"><a xlink:href="interfaceRpgGame_1_1Items_1_1IEquippable.html" target="_top" xlink:title="Represents an item that can be equipped by the player.">
<polygon fill="white" stroke="#666666" points="293,-92.5 150.25,-92.5 150.25,-74 293,-74 293,-92.5"/>
<text xml:space="preserve" text-anchor="middle" x="221.62" y="-79" font-family="Helvetica,sans-Serif" font-size="10.00">RpgGame.Items.IEquippable</text>
</a>
</g>
</g>
<!-- Node0&#45;&gt;Node3 -->
<g id="edge29_Node000000_Node000003" class="edge">
<title>Node0&#45;&gt;Node3</title>
<g id="a_edge29_Node000000_Node000003"><a xlink:title=" ">
<path fill="none" stroke="#63b8ff" d="M125.98,-83.25C133.93,-83.25 142.05,-83.25 150.03,-83.25"/>
<polygon fill="#63b8ff" stroke="#63b8ff" points="126.02,-79.75 116.02,-83.25 126.02,-86.75 126.02,-79.75"/>
</a>
</g>
</g>
<!-- Node7 -->
<g id="Node000007" class="node">
<title>Node7</title>
<g id="a_Node000007"><a xlink:href="classRpgGame_1_1Items_1_1Potion.html" target="_top" xlink:title="Represents a consumable health potion.">
<polygon fill="white" stroke="#666666" points="281.38,-55.5 161.88,-55.5 161.88,-37 281.38,-37 281.38,-55.5"/>
<text xml:space="preserve" text-anchor="middle" x="221.62" y="-42" font-family="Helvetica,sans-Serif" font-size="10.00">RpgGame.Items.Potion</text>
</a>
</g>
</g>
<!-- Node0&#45;&gt;Node7 -->
<g id="edge33_Node000000_Node000007" class="edge">
<title>Node0&#45;&gt;Node7</title>
<g id="a_edge33_Node000000_Node000007"><a xlink:title=" ">
<path fill="none" stroke="#63b8ff" d="M111.76,-71.04C133.25,-66.14 157.67,-60.58 177.93,-55.97"/>
<polygon fill="#63b8ff" stroke="#63b8ff" points="111.27,-67.56 102.3,-73.19 112.82,-74.39 111.27,-67.56"/>
</a>
</g>
</g>
<!-- Node8 -->
<g id="Node000008" class="node">
<title>Node8</title>
<g id="a_Node000008"><a xlink:href="classRpgGame_1_1Items_1_1Thorn.html" target="_top" xlink:title="Represents a Thorn on that map, and walking over it causes damange.">
<polygon fill="white" stroke="#666666" points="279.88,-18.5 163.38,-18.5 163.38,0 279.88,0 279.88,-18.5"/>
<text xml:space="preserve" text-anchor="middle" x="221.62" y="-5" font-family="Helvetica,sans-Serif" font-size="10.00">RpgGame.Items.Thorn</text>
</a>
</g>
</g>
<!-- Node0&#45;&gt;Node8 -->
<g id="edge34_Node000000_Node000008" class="edge">
<title>Node0&#45;&gt;Node8</title>
<g id="a_edge34_Node000000_Node000008"><a xlink:title=" ">
<path fill="none" stroke="#63b8ff" d="M80.93,-67.22C99.02,-55.1 125.33,-38.81 150.25,-28.25 158.76,-24.64 168.13,-21.55 177.19,-18.97"/>
<polygon fill="#63b8ff" stroke="#63b8ff" points="79.08,-64.24 72.79,-72.77 83.02,-70.02 79.08,-64.24"/>
</a>
</g>
</g>
<!-- Node4 -->
<g id="Node000004" class="node">
<title>Node4</title>
<g id="a_Node000004"><a xlink:href="classRpgGame_1_1Items_1_1Weapon.html" target="_top" xlink:title="Represents an abstract base class for all equippable weapons.">
<polygon fill="white" stroke="#666666" points="456,-92.5 329,-92.5 329,-74 456,-74 456,-92.5"/>
<text xml:space="preserve" text-anchor="middle" x="392.5" y="-79" font-family="Helvetica,sans-Serif" font-size="10.00">RpgGame.Items.Weapon</text>
</a>
</g>
</g>
<!-- Node3&#45;&gt;Node4 -->
<g id="edge30_Node000003_Node000004" class="edge">
<title>Node3&#45;&gt;Node4</title>
<g id="a_edge30_Node000003_Node000004"><a xlink:title=" ">
<path fill="none" stroke="#63b8ff" d="M304.64,-83.25C312.72,-83.25 320.83,-83.25 328.67,-83.25"/>
<polygon fill="#63b8ff" stroke="#63b8ff" points="304.78,-79.75 294.78,-83.25 304.78,-86.75 304.78,-79.75"/>
</a>
</g>
</g>
<!-- Node5 -->
<g id="Node000005" class="node">
<title>Node5</title>
<g id="a_Node000005"><a xlink:href="classRpgGame_1_1Items_1_1DoubleSword.html" target="_top" xlink:title="Represents a powerful two&#45;handed sword weapon.">
<polygon fill="white" stroke="#666666" points="641.5,-111.5 492,-111.5 492,-93 641.5,-93 641.5,-111.5"/>
<text xml:space="preserve" text-anchor="middle" x="566.75" y="-98" font-family="Helvetica,sans-Serif" font-size="10.00">RpgGame.Items.DoubleSword</text>
</a>
</g>
</g>
<!-- Node4&#45;&gt;Node5 -->
<g id="edge31_Node000004_Node000005" class="edge">
<title>Node4&#45;&gt;Node5</title>
<g id="a_edge31_Node000004_Node000005"><a xlink:title=" ">
<path fill="none" stroke="#63b8ff" d="M467.42,-91.4C475.47,-92.29 483.66,-93.2 491.71,-94.08"/>
<polygon fill="#63b8ff" stroke="#63b8ff" points="468,-87.95 457.68,-90.33 467.23,-94.9 468,-87.95"/>
</a>
</g>
</g>
<!-- Node6 -->
<g id="Node000006" class="node">
<title>Node6</title>
<g id="a_Node000006"><a xlink:href="classRpgGame_1_1Items_1_1Sword.html" target="_top" xlink:title="Represents a standard one&#45;handed sword weapon.">
<polygon fill="white" stroke="#666666" points="626.12,-74.5 507.38,-74.5 507.38,-56 626.12,-56 626.12,-74.5"/>
<text xml:space="preserve" text-anchor="middle" x="566.75" y="-61" font-family="Helvetica,sans-Serif" font-size="10.00">RpgGame.Items.Sword</text>
</a>
</g>
</g>
<!-- Node4&#45;&gt;Node6 -->
<g id="edge32_Node000004_Node000006" class="edge">
<title>Node4&#45;&gt;Node6</title>
<g id="a_edge32_Node000004_Node000006"><a xlink:title=" ">
<path fill="none" stroke="#63b8ff" d="M467.25,-75.54C480.58,-74.15 494.31,-72.72 507.14,-71.38"/>
<polygon fill="#63b8ff" stroke="#63b8ff" points="467.26,-72.02 457.68,-76.54 467.99,-78.98 467.26,-72.02"/>
</a>
</g>
</g>
</g>
</svg>
