<?xml version="1.0" encoding="UTF-8" standalone="no"?>
<!DOCTYPE svg PUBLIC "-//W3C//DTD SVG 1.1//EN"
 "http://www.w3.org/Graphics/SVG/1.1/DTD/svg11.dtd">
<!-- Generated by graphviz version 2.43.0 (0)
 -->
<!-- Title: Graphical Class Hierarchy Pages: 1 -->
<svg width="293pt" height="64pt"
 viewBox="0.00 0.00 293.00 64.00" xmlns="http://www.w3.org/2000/svg" xmlns:xlink="http://www.w3.org/1999/xlink">
<g id="graph0" class="graph" transform="scale(1 1) rotate(0) translate(4 60)">
<title>Graphical Class Hierarchy</title>
<!-- Node0 -->
<g id="Node000000" class="node">
<title>Node0</title>
<g id="a_Node000000"><a xlink:href="classRpgGame_1_1Tiles_1_1Tile.html" target="_top" xlink:title="Base abstract class representing a tile in the game world.">
<polygon fill="white" stroke="#666666" points="112,-37 0,-37 0,-18 112,-18 112,-37"/>
<text text-anchor="middle" x="56" y="-25" font-family="Helvetica,sans-Serif" font-size="10.00">RpgGame.Tiles.Tile</text>
</a>
</g>
</g>
<!-- Node1 -->
<g id="Node000001" class="node">
<title>Node1</title>
<g id="a_Node000001"><a xlink:href="classRpgGame_1_1Tiles_1_1FloorTile.html" target="_top" xlink:title="Represents a walkable floor tile where players and items can exist.">
<polygon fill="white" stroke="#666666" points="285,-56 148,-56 148,-37 285,-37 285,-56"/>
<text text-anchor="middle" x="216.5" y="-44" font-family="Helvetica,sans-Serif" font-size="10.00">RpgGame.Tiles.FloorTile</text>
</a>
</g>
</g>
<!-- Node0&#45;&gt;Node1 -->
<g id="edge35_Node000000_Node000001" class="edge">
<title>Node0&#45;&gt;Node1</title>
<g id="a_edge35_Node000000_Node000001"><a xlink:title=" ">
<path fill="none" stroke="#63b8ff" d="M122.5,-35.35C130.86,-36.35 139.43,-37.38 147.82,-38.39"/>
<polygon fill="#63b8ff" stroke="#63b8ff" points="122.78,-31.86 112.44,-34.15 121.95,-38.81 122.78,-31.86"/>
</a>
</g>
</g>
<!-- Node2 -->
<g id="Node000002" class="node">
<title>Node2</title>
<g id="a_Node000002"><a xlink:href="classRpgGame_1_1Tiles_1_1WallTile.html" target="_top" xlink:title="Represents a solid wall tile that blocks player movement.">
<polygon fill="white" stroke="#666666" points="283,-19 150,-19 150,0 283,0 283,-19"/>
<text text-anchor="middle" x="216.5" y="-7" font-family="Helvetica,sans-Serif" font-size="10.00">RpgGame.Tiles.WallTile</text>
</a>
</g>
</g>
<!-- Node0&#45;&gt;Node2 -->
<g id="edge36_Node000000_Node000002" class="edge">
<title>Node0&#45;&gt;Node2</title>
<g id="a_edge36_Node000000_Node000002"><a xlink:title=" ">
<path fill="none" stroke="#63b8ff" d="M122.48,-20.06C131.49,-19.04 140.74,-17.99 149.76,-16.97"/>
<polygon fill="#63b8ff" stroke="#63b8ff" points="121.98,-16.6 112.44,-21.2 122.77,-23.55 121.98,-16.6"/>
</a>
</g>
</g>
</g>
</svg>
