<?xml version="1.0" encoding="UTF-8" standalone="no"?>
<!DOCTYPE svg PUBLIC "-//W3C//DTD SVG 1.1//EN"
 "http://www.w3.org/Graphics/SVG/1.1/DTD/svg11.dtd">
<!-- Generated by graphviz version 2.43.0 (0)
 -->
<!-- Title: Graphical Class Hierarchy Pages: 1 -->
<svg width="695pt" height="175pt"
 viewBox="0.00 0.00 695.00 175.00" xmlns="http://www.w3.org/2000/svg" xmlns:xlink="http://www.w3.org/1999/xlink">
<g id="graph0" class="graph" transform="scale(1 1) rotate(0) translate(4 171)">
<title>Graphical Class Hierarchy</title>
<!-- Node0 -->
<g id="Node000000" class="node">
<title>Node0</title>
<g id="a_Node000000"><a xlink:href="interfaceRpgGame_1_1Items_1_1IItem.html" target="_top" xlink:title="Defines the contract for all items that can exist within the game world.">
<polygon fill="white" stroke="#666666" points="124,-93 0,-93 0,-74 124,-74 124,-93"/>
<text text-anchor="middle" x="62" y="-81" font-family="Helvetica,sans-Serif" font-size="10.00">RpgGame.Items.IItem</text>
</a>
</g>
</g>
<!-- Node1 -->
<g id="Node000001" class="node">
<title>Node1</title>
<g id="a_Node000001"><a xlink:href="classRpgGame_1_1Items_1_1Coin.html" target="_top" xlink:title="Represents a coin item that increases the player&#39;s currency when picked up.">
<polygon fill="white" stroke="#666666" points="297.5,-167 177.5,-167 177.5,-148 297.5,-148 297.5,-167"/>
<text text-anchor="middle" x="237.5" y="-155" font-family="Helvetica,sans-Serif" font-size="10.00">RpgGame.Items.Coin</text>
</a>
</g>
</g>
<!-- Node0&#45;&gt;Node1 -->
<g id="edge27_Node000000_Node000001" class="edge">
<title>Node0&#45;&gt;Node1</title>
<g id="a_edge27_Node000000_Node000001"><a xlink:title=" ">
<path fill="none" stroke="#63b8ff" d="M85.02,-98.73C104.09,-111.28 132.81,-128.73 160,-139.5 168.37,-142.82 177.51,-145.62 186.47,-147.96"/>
<polygon fill="#63b8ff" stroke="#63b8ff" points="86.74,-95.67 76.49,-93.01 82.84,-101.48 86.74,-95.67"/>
</a>
</g>
</g>
<!-- Node2 -->
<g id="Node000002" class="node">
<title>Node2</title>
<g id="a_Node000002"><a xlink:href="classRpgGame_1_1Items_1_1Gold.html" target="_top" xlink:title="Represents a gold item that increases the player&#39;s gold currency when picked up.">
<polygon fill="white" stroke="#666666" points="298,-130 177,-130 177,-111 298,-111 298,-130"/>
<text text-anchor="middle" x="237.5" y="-118" font-family="Helvetica,sans-Serif" font-size="10.00">RpgGame.Items.Gold</text>
</a>
</g>
</g>
<!-- Node0&#45;&gt;Node2 -->
<g id="edge28_Node000000_Node000002" class="edge">
<title>Node0&#45;&gt;Node2</title>
<g id="a_edge28_Node000000_Node000002"><a xlink:title=" ">
<path fill="none" stroke="#63b8ff" d="M117.64,-95.15C141.47,-100.23 169.07,-106.12 191.67,-110.94"/>
<polygon fill="#63b8ff" stroke="#63b8ff" points="118.19,-91.69 107.68,-93.03 116.73,-98.54 118.19,-91.69"/>
</a>
</g>
</g>
<!-- Node3 -->
<g id="Node000003" class="node">
<title>Node3</title>
<g id="a_Node000003"><a xlink:href="interfaceRpgGame_1_1Items_1_1IEquippable.html" target="_top" xlink:title="Represents an item that can be equipped by the player.">
<polygon fill="white" stroke="#666666" points="315,-93 160,-93 160,-74 315,-74 315,-93"/>
<text text-anchor="middle" x="237.5" y="-81" font-family="Helvetica,sans-Serif" font-size="10.00">RpgGame.Items.IEquippable</text>
</a>
</g>
</g>
<!-- Node0&#45;&gt;Node3 -->
<g id="edge29_Node000000_Node000003" class="edge">
<title>Node0&#45;&gt;Node3</title>
<g id="a_edge29_Node000000_Node000003"><a xlink:title=" ">
<path fill="none" stroke="#63b8ff" d="M134.3,-83.5C142.7,-83.5 151.3,-83.5 159.77,-83.5"/>
<polygon fill="#63b8ff" stroke="#63b8ff" points="134.17,-80 124.17,-83.5 134.17,-87 134.17,-80"/>
</a>
</g>
</g>
<!-- Node7 -->
<g id="Node000007" class="node">
<title>Node7</title>
<g id="a_Node000007"><a xlink:href="classRpgGame_1_1Items_1_1Potion.html" target="_top" xlink:title="Represents a consumable health potion.">
<polygon fill="white" stroke="#666666" points="302,-56 173,-56 173,-37 302,-37 302,-56"/>
<text text-anchor="middle" x="237.5" y="-44" font-family="Helvetica,sans-Serif" font-size="10.00">RpgGame.Items.Potion</text>
</a>
</g>
</g>
<!-- Node0&#45;&gt;Node7 -->
<g id="edge33_Node000000_Node000007" class="edge">
<title>Node0&#45;&gt;Node7</title>
<g id="a_edge33_Node000000_Node000007"><a xlink:title=" ">
<path fill="none" stroke="#63b8ff" d="M117.64,-71.85C141.47,-66.77 169.07,-60.88 191.67,-56.06"/>
<polygon fill="#63b8ff" stroke="#63b8ff" points="116.73,-68.46 107.68,-73.97 118.19,-75.31 116.73,-68.46"/>
</a>
</g>
</g>
<!-- Node8 -->
<g id="Node000008" class="node">
<title>Node8</title>
<g id="a_Node000008"><a xlink:href="classRpgGame_1_1Items_1_1Thorn.html" target="_top" xlink:title="Represents a Thorn on that map, and walking over it causes damange.">
<polygon fill="white" stroke="#666666" points="300.5,-19 174.5,-19 174.5,0 300.5,0 300.5,-19"/>
<text text-anchor="middle" x="237.5" y="-7" font-family="Helvetica,sans-Serif" font-size="10.00">RpgGame.Items.Thorn</text>
</a>
</g>
</g>
<!-- Node0&#45;&gt;Node8 -->
<g id="edge34_Node000000_Node000008" class="edge">
<title>Node0&#45;&gt;Node8</title>
<g id="a_edge34_Node000000_Node000008"><a xlink:title=" ">
<path fill="none" stroke="#63b8ff" d="M85.76,-68.23C104.87,-55.99 133.27,-39.17 160,-28.5 169.28,-24.8 179.49,-21.66 189.34,-19.07"/>
<polygon fill="#63b8ff" stroke="#63b8ff" points="83.64,-65.43 77.17,-73.82 87.46,-71.3 83.64,-65.43"/>
</a>
</g>
</g>
<!-- Node4 -->
<g id="Node000004" class="node">
<title>Node4</title>
<g id="a_Node000004"><a xlink:href="classRpgGame_1_1Items_1_1Weapon.html" target="_top" xlink:title="Represents an abstract base class for all equippable weapons.">
<polygon fill="white" stroke="#666666" points="488,-93 351,-93 351,-74 488,-74 488,-93"/>
<text text-anchor="middle" x="419.5" y="-81" font-family="Helvetica,sans-Serif" font-size="10.00">RpgGame.Items.Weapon</text>
</a>
</g>
</g>
<!-- Node3&#45;&gt;Node4 -->
<g id="edge30_Node000003_Node000004" class="edge">
<title>Node3&#45;&gt;Node4</title>
<g id="a_edge30_Node000003_Node000004"><a xlink:title=" ">
<path fill="none" stroke="#63b8ff" d="M325.16,-83.5C333.77,-83.5 342.42,-83.5 350.8,-83.5"/>
<polygon fill="#63b8ff" stroke="#63b8ff" points="325.1,-80 315.1,-83.5 325.1,-87 325.1,-80"/>
</a>
</g>
</g>
<!-- Node5 -->
<g id="Node000005" class="node">
<title>Node5</title>
<g id="a_Node000005"><a xlink:href="classRpgGame_1_1Items_1_1DoubleSword.html" target="_top" xlink:title="Represents a powerful two&#45;handed sword weapon.">
<polygon fill="white" stroke="#666666" points="687,-112 524,-112 524,-93 687,-93 687,-112"/>
<text text-anchor="middle" x="605.5" y="-100" font-family="Helvetica,sans-Serif" font-size="10.00">RpgGame.Items.DoubleSword</text>
</a>
</g>
</g>
<!-- Node4&#45;&gt;Node5 -->
<g id="edge31_Node000004_Node000005" class="edge">
<title>Node4&#45;&gt;Node5</title>
<g id="a_edge31_Node000004_Node000005"><a xlink:title=" ">
<path fill="none" stroke="#63b8ff" d="M498.39,-91.54C506.8,-92.41 515.37,-93.3 523.82,-94.17"/>
<polygon fill="#63b8ff" stroke="#63b8ff" points="498.54,-88.04 488.23,-90.49 497.82,-95 498.54,-88.04"/>
</a>
</g>
</g>
<!-- Node6 -->
<g id="Node000006" class="node">
<title>Node6</title>
<g id="a_Node000006"><a xlink:href="classRpgGame_1_1Items_1_1Sword.html" target="_top" xlink:title="Represents a standard one&#45;handed sword weapon.">
<polygon fill="white" stroke="#666666" points="669.5,-75 541.5,-75 541.5,-56 669.5,-56 669.5,-75"/>
<text text-anchor="middle" x="605.5" y="-63" font-family="Helvetica,sans-Serif" font-size="10.00">RpgGame.Items.Sword</text>
</a>
</g>
</g>
<!-- Node4&#45;&gt;Node6 -->
<g id="edge32_Node000004_Node000006" class="edge">
<title>Node4&#45;&gt;Node6</title>
<g id="a_edge32_Node000004_Node000006"><a xlink:title=" ">
<path fill="none" stroke="#63b8ff" d="M498.56,-75.86C512.89,-74.46 527.67,-73.02 541.49,-71.66"/>
<polygon fill="#63b8ff" stroke="#63b8ff" points="497.84,-72.42 488.23,-76.87 498.52,-79.38 497.84,-72.42"/>
</a>
</g>
</g>
</g>
</svg>
