<?xml version="1.0" encoding="UTF-8" standalone="no"?>
<!DOCTYPE svg PUBLIC "-//W3C//DTD SVG 1.1//EN"
 "http://www.w3.org/Graphics/SVG/1.1/DTD/svg11.dtd">
<!-- Generated by graphviz version 13.1.2 (20250808.2320)
 -->
<!-- Title: Graphical Class Hierarchy Pages: 1 -->
<svg width="384pt" height="390pt"
 viewBox="0.00 0.00 384.00 390.00" xmlns="http://www.w3.org/2000/svg" xmlns:xlink="http://www.w3.org/1999/xlink">
<g id="graph0" class="graph" transform="scale(1 1) rotate(0) translate(4 385.75)">
<title>Graphical Class Hierarchy</title>
<!-- Node0 -->
<g id="Node000000" class="node">
<title>Node0</title>
<g id="a_Node000000"><a xlink:href="interfaceRpgGame_1_1Input_1_1IInputCommand.html" target="_top" xlink:title="Represents a user input command that manipulates the game state (level, player, inventory) and return...">
<polygon fill="white" stroke="#666666" points="157.75,-194.75 0,-194.75 0,-176.25 157.75,-176.25 157.75,-194.75"/>
<text xml:space="preserve" text-anchor="middle" x="78.88" y="-181.25" font-family="Helvetica,sans-Serif" font-size="10.00">RpgGame.Input.IInputCommand</text>
</a>
</g>
</g>
<!-- Node1 -->
<g id="Node000001" class="node">
<title>Node1</title>
<g id="a_Node000001"><a xlink:href="classRpgGame_1_1Input_1_1DropLeftCommand.html" target="_top" xlink:title="Instructs the player to drop the item in their left hand onto the level.">
<polygon fill="white" stroke="#666666" points="369.88,-381.75 199.38,-381.75 199.38,-363.25 369.88,-363.25 369.88,-381.75"/>
<text xml:space="preserve" text-anchor="middle" x="284.62" y="-368.25" font-family="Helvetica,sans-Serif" font-size="10.00">RpgGame.Input.DropLeftCommand</text>
</a>
</g>
</g>
<!-- Node0&#45;&gt;Node1 -->
<g id="edge12_Node000000_Node000001" class="edge">
<title>Node0&#45;&gt;Node1</title>
<g id="a_edge12_Node000000_Node000001"><a xlink:title=" ">
<path fill="none" stroke="#63b8ff" d="M87.49,-205.53C102.2,-241.34 138.05,-316.07 193.75,-353.5 199.44,-357.33 205.76,-360.4 212.33,-362.87"/>
<polygon fill="#63b8ff" stroke="#63b8ff" points="90.81,-204.41 83.87,-196.4 84.3,-206.98 90.81,-204.41"/>
</a>
</g>
</g>
<!-- Node2 -->
<g id="Node000002" class="node">
<title>Node2</title>
<g id="a_Node000002"><a xlink:href="classRpgGame_1_1Input_1_1DropRightCommand.html" target="_top" xlink:title="Instructs the player to drop the item in their right hand onto the level.">
<polygon fill="white" stroke="#666666" points="373.25,-344.75 196,-344.75 196,-326.25 373.25,-326.25 373.25,-344.75"/>
<text xml:space="preserve" text-anchor="middle" x="284.62" y="-331.25" font-family="Helvetica,sans-Serif" font-size="10.00">RpgGame.Input.DropRightCommand</text>
</a>
</g>
</g>
<!-- Node0&#45;&gt;Node2 -->
<g id="edge13_Node000000_Node000002" class="edge">
<title>Node0&#45;&gt;Node2</title>
<g id="a_edge13_Node000000_Node000002"><a xlink:title=" ">
<path fill="none" stroke="#63b8ff" d="M90.8,-204.93C108.42,-234.33 146,-289.63 193.75,-317.5 199.52,-320.87 205.82,-323.62 212.31,-325.86"/>
<polygon fill="#63b8ff" stroke="#63b8ff" points="93.86,-203.23 85.81,-196.35 87.81,-206.75 93.86,-203.23"/>
</a>
</g>
</g>
<!-- Node3 -->
<g id="Node000003" class="node">
<title>Node3</title>
<g id="a_Node000003"><a xlink:href="classRpgGame_1_1Input_1_1InventoryToLeftHandCommand.html" target="_top" xlink:title="Transfers the currently selected inventory item to the player&#39;s left hand.">
<polygon fill="white" stroke="#666666" points="354.12,-308 215.12,-308 215.12,-279 354.12,-279 354.12,-308"/>
<text xml:space="preserve" text-anchor="start" x="223.12" y="-294.5" font-family="Helvetica,sans-Serif" font-size="10.00">RpgGame.Input.InventoryTo</text>
<text xml:space="preserve" text-anchor="middle" x="284.62" y="-284" font-family="Helvetica,sans-Serif" font-size="10.00">LeftHandCommand</text>
</a>
</g>
</g>
<!-- Node0&#45;&gt;Node3 -->
<g id="edge14_Node000000_Node000003" class="edge">
<title>Node0&#45;&gt;Node3</title>
<g id="a_edge14_Node000000_Node000003"><a xlink:title=" ">
<path fill="none" stroke="#63b8ff" d="M98.36,-202.95C119.72,-222.2 156.72,-252.8 193.75,-270.5 200.43,-273.7 207.62,-276.48 214.91,-278.91"/>
<polygon fill="#63b8ff" stroke="#63b8ff" points="100.8,-200.44 91.06,-196.25 96.06,-205.59 100.8,-200.44"/>
</a>
</g>
</g>
<!-- Node4 -->
<g id="Node000004" class="node">
<title>Node4</title>
<g id="a_Node000004"><a xlink:href="classRpgGame_1_1Input_1_1InventoryToRightHandCommand.html" target="_top" xlink:title="Transfers the currently selected inventory item to the player&#39;s right hand.">
<polygon fill="white" stroke="#666666" points="354.12,-261 215.12,-261 215.12,-232 354.12,-232 354.12,-261"/>
<text xml:space="preserve" text-anchor="start" x="223.12" y="-247.5" font-family="Helvetica,sans-Serif" font-size="10.00">RpgGame.Input.InventoryTo</text>
<text xml:space="preserve" text-anchor="middle" x="284.62" y="-237" font-family="Helvetica,sans-Serif" font-size="10.00">RightHandCommand</text>
</a>
</g>
</g>
<!-- Node0&#45;&gt;Node4 -->
<g id="edge15_Node000000_Node000004" class="edge">
<title>Node0&#45;&gt;Node4</title>
<g id="a_edge15_Node000000_Node000004"><a xlink:title=" ">
<path fill="none" stroke="#63b8ff" d="M119.15,-198.83C141.02,-206.11 168.8,-215.12 193.75,-222.5 204.13,-225.57 215.23,-228.68 225.96,-231.59"/>
<polygon fill="#63b8ff" stroke="#63b8ff" points="120.32,-195.53 109.73,-195.68 118.1,-202.17 120.32,-195.53"/>
</a>
</g>
</g>
<!-- Node5 -->
<g id="Node000005" class="node">
<title>Node5</title>
<g id="a_Node000005"><a xlink:href="classRpgGame_1_1Input_1_1MoveDownCommand.html" target="_top" xlink:title="Moves the player one tile down (south) on the level.">
<polygon fill="white" stroke="#666666" points="375.5,-213.75 193.75,-213.75 193.75,-195.25 375.5,-195.25 375.5,-213.75"/>
<text xml:space="preserve" text-anchor="middle" x="284.62" y="-200.25" font-family="Helvetica,sans-Serif" font-size="10.00">RpgGame.Input.MoveDownCommand</text>
</a>
</g>
</g>
<!-- Node0&#45;&gt;Node5 -->
<g id="edge16_Node000000_Node000005" class="edge">
<title>Node0&#45;&gt;Node5</title>
<g id="a_edge16_Node000000_Node000005"><a xlink:title=" ">
<path fill="none" stroke="#63b8ff" d="M169.29,-193.84C177.29,-194.58 185.39,-195.34 193.4,-196.09"/>
<polygon fill="#63b8ff" stroke="#63b8ff" points="169.86,-190.38 159.57,-192.93 169.21,-197.35 169.86,-190.38"/>
</a>
</g>
</g>
<!-- Node6 -->
<g id="Node000006" class="node">
<title>Node6</title>
<g id="a_Node000006"><a xlink:href="classRpgGame_1_1Input_1_1MoveLeftCommand.html" target="_top" xlink:title="Moves the player one tile left (west) on the level.">
<polygon fill="white" stroke="#666666" points="371,-176.75 198.25,-176.75 198.25,-158.25 371,-158.25 371,-176.75"/>
<text xml:space="preserve" text-anchor="middle" x="284.62" y="-163.25" font-family="Helvetica,sans-Serif" font-size="10.00">RpgGame.Input.MoveLeftCommand</text>
</a>
</g>
</g>
<!-- Node0&#45;&gt;Node6 -->
<g id="edge17_Node000000_Node000006" class="edge">
<title>Node0&#45;&gt;Node6</title>
<g id="a_edge17_Node000000_Node000006"><a xlink:title=" ">
<path fill="none" stroke="#63b8ff" d="M169.47,-177.58C178.9,-176.75 188.46,-175.91 197.84,-175.08"/>
<polygon fill="#63b8ff" stroke="#63b8ff" points="169.23,-174.09 159.58,-178.46 169.84,-181.07 169.23,-174.09"/>
</a>
</g>
</g>
<!-- Node7 -->
<g id="Node000007" class="node">
<title>Node7</title>
<g id="a_Node000007"><a xlink:href="classRpgGame_1_1Input_1_1MoveRightCommand.html" target="_top" xlink:title="Moves the player one tile right (east) on the level.">
<polygon fill="white" stroke="#666666" points="374.38,-139.75 194.88,-139.75 194.88,-121.25 374.38,-121.25 374.38,-139.75"/>
<text xml:space="preserve" text-anchor="middle" x="284.62" y="-126.25" font-family="Helvetica,sans-Serif" font-size="10.00">RpgGame.Input.MoveRightCommand</text>
</a>
</g>
</g>
<!-- Node0&#45;&gt;Node7 -->
<g id="edge18_Node000000_Node000007" class="edge">
<title>Node0&#45;&gt;Node7</title>
<g id="a_edge18_Node000000_Node000007"><a xlink:title=" ">
<path fill="none" stroke="#63b8ff" d="M118.58,-172.23C140.49,-164.98 168.48,-156.15 193.75,-149.5 206.55,-146.13 220.5,-142.95 233.5,-140.19"/>
<polygon fill="#63b8ff" stroke="#63b8ff" points="117.54,-168.88 109.17,-175.37 119.76,-175.52 117.54,-168.88"/>
</a>
</g>
</g>
<!-- Node8 -->
<g id="Node000008" class="node">
<title>Node8</title>
<g id="a_Node000008"><a xlink:href="classRpgGame_1_1Input_1_1MoveUpCommand.html" target="_top" xlink:title="Moves the player one tile up (north) on the level.">
<polygon fill="white" stroke="#666666" points="369.12,-102.75 200.12,-102.75 200.12,-84.25 369.12,-84.25 369.12,-102.75"/>
<text xml:space="preserve" text-anchor="middle" x="284.62" y="-89.25" font-family="Helvetica,sans-Serif" font-size="10.00">RpgGame.Input.MoveUpCommand</text>
</a>
</g>
</g>
<!-- Node0&#45;&gt;Node8 -->
<g id="edge19_Node000000_Node000008" class="edge">
<title>Node0&#45;&gt;Node8</title>
<g id="a_edge19_Node000000_Node000008"><a xlink:title=" ">
<path fill="none" stroke="#63b8ff" d="M100.71,-168.82C122.61,-152.11 158.7,-126.87 193.75,-112.5 202.9,-108.75 212.89,-105.7 222.77,-103.23"/>
<polygon fill="#63b8ff" stroke="#63b8ff" points="98.64,-166 92.89,-174.9 102.93,-171.52 98.64,-166"/>
</a>
</g>
</g>
<!-- Node9 -->
<g id="Node000009" class="node">
<title>Node9</title>
<g id="a_Node000009"><a xlink:href="classRpgGame_1_1Input_1_1QuitGameCommand.html" target="_top" xlink:title="Command that causes the game loop to exit.">
<polygon fill="white" stroke="#666666" points="373.25,-65.75 196,-65.75 196,-47.25 373.25,-47.25 373.25,-65.75"/>
<text xml:space="preserve" text-anchor="middle" x="284.62" y="-52.25" font-family="Helvetica,sans-Serif" font-size="10.00">RpgGame.Input.QuitGameCommand</text>
</a>
</g>
</g>
<!-- Node0&#45;&gt;Node9 -->
<g id="edge20_Node000000_Node000009" class="edge">
<title>Node0&#45;&gt;Node9</title>
<g id="a_edge20_Node000000_Node000009"><a xlink:title=" ">
<path fill="none" stroke="#63b8ff" d="M93.55,-166.92C112.94,-142 150.86,-98.28 193.75,-75.5 200.93,-71.68 208.82,-68.64 216.85,-66.2"/>
<polygon fill="#63b8ff" stroke="#63b8ff" points="90.8,-164.75 87.54,-174.83 96.38,-168.98 90.8,-164.75"/>
</a>
</g>
</g>
<!-- Node10 -->
<g id="Node000010" class="node">
<title>Node10</title>
<g id="a_Node000010"><a xlink:href="classRpgGame_1_1Input_1_1TakeToInventoryCommand.html" target="_top" xlink:title="Picks up the item resting on the player&#39;s current tile and places it into the inventory if possible.">
<polygon fill="white" stroke="#666666" points="364.25,-29 205,-29 205,0 364.25,0 364.25,-29"/>
<text xml:space="preserve" text-anchor="start" x="213" y="-15.5" font-family="Helvetica,sans-Serif" font-size="10.00">RpgGame.Input.TakeToInventory</text>
<text xml:space="preserve" text-anchor="middle" x="284.62" y="-5" font-family="Helvetica,sans-Serif" font-size="10.00">Command</text>
</a>
</g>
</g>
<!-- Node0&#45;&gt;Node10 -->
<g id="edge21_Node000000_Node000010" class="edge">
<title>Node0&#45;&gt;Node10</title>
<g id="a_edge21_Node000000_Node000010"><a xlink:title=" ">
<path fill="none" stroke="#63b8ff" d="M89.53,-166.02C106.26,-134.31 143.72,-71.73 193.75,-38.5 199,-35.02 204.73,-32.03 210.68,-29.49"/>
<polygon fill="#63b8ff" stroke="#63b8ff" points="86.62,-164.01 85.18,-174.51 92.85,-167.2 86.62,-164.01"/>
</a>
</g>
</g>
</g>
</svg>
