<?xml version="1.0" encoding="UTF-8" standalone="no"?>
<!DOCTYPE svg PUBLIC "-//W3C//DTD SVG 1.1//EN"
 "http://www.w3.org/Graphics/SVG/1.1/DTD/svg11.dtd">
<!-- Generated by graphviz version 13.1.2 (20250808.2320)
 -->
<!-- Title: Graphical Class Hierarchy Pages: 1 -->
<svg width="273pt" height="64pt"
 viewBox="0.00 0.00 273.00 64.00" xmlns="http://www.w3.org/2000/svg" xmlns:xlink="http://www.w3.org/1999/xlink">
<g id="graph0" class="graph" transform="scale(1 1) rotate(0) translate(4 59.5)">
<title>Graphical Class Hierarchy</title>
<!-- Node0 -->
<g id="Node000000" class="node">
<title>Node0</title>
<g id="a_Node000000"><a xlink:href="classRpgGame_1_1Tiles_1_1Tile.html" target="_top" xlink:title="Base abstract class representing a tile in the game world.">
<polygon fill="white" stroke="#666666" points="103.75,-36.5 0,-36.5 0,-18 103.75,-18 103.75,-36.5"/>
<text xml:space="preserve" text-anchor="middle" x="51.88" y="-23" font-family="Helvetica,sans-Serif" font-size="10.00">RpgGame.Tiles.Tile</text>
</a>
</g>
</g>
<!-- Node1 -->
<g id="Node000001" class="node">
<title>Node1</title>
<g id="a_Node000001"><a xlink:href="classRpgGame_1_1Tiles_1_1FloorTile.html" target="_top" xlink:title="Represents a walkable floor tile where players and items can exist.">
<polygon fill="white" stroke="#666666" points="265.25,-55.5 139.75,-55.5 139.75,-37 265.25,-37 265.25,-55.5"/>
<text xml:space="preserve" text-anchor="middle" x="202.5" y="-42" font-family="Helvetica,sans-Serif" font-size="10.00">RpgGame.Tiles.FloorTile</text>
</a>
</g>
</g>
<!-- Node0&#45;&gt;Node1 -->
<g id="edge35_Node000000_Node000001" class="edge">
<title>Node0&#45;&gt;Node1</title>
<g id="a_edge35_Node000000_Node000001"><a xlink:title=" ">
<path fill="none" stroke="#63b8ff" d="M115.21,-35.22C123.23,-36.24 131.45,-37.3 139.48,-38.32"/>
<polygon fill="#63b8ff" stroke="#63b8ff" points="115.89,-31.78 105.52,-33.98 115,-38.72 115.89,-31.78"/>
</a>
</g>
</g>
<!-- Node2 -->
<g id="Node000002" class="node">
<title>Node2</title>
<g id="a_Node000002"><a xlink:href="classRpgGame_1_1Tiles_1_1WallTile.html" target="_top" xlink:title="Represents a solid wall tile that blocks player movement.">
<polygon fill="white" stroke="#666666" points="263.75,-18.5 141.25,-18.5 141.25,0 263.75,0 263.75,-18.5"/>
<text xml:space="preserve" text-anchor="middle" x="202.5" y="-5" font-family="Helvetica,sans-Serif" font-size="10.00">RpgGame.Tiles.WallTile</text>
</a>
</g>
</g>
<!-- Node0&#45;&gt;Node2 -->
<g id="edge36_Node000000_Node000002" class="edge">
<title>Node0&#45;&gt;Node2</title>
<g id="a_edge36_Node000000_Node000002"><a xlink:title=" ">
<path fill="none" stroke="#63b8ff" d="M115.34,-19.69C123.76,-18.67 132.39,-17.62 140.78,-16.6"/>
<polygon fill="#63b8ff" stroke="#63b8ff" points="115.03,-16.2 105.53,-20.87 115.87,-23.15 115.03,-16.2"/>
</a>
</g>
</g>
</g>
</svg>
