<?xml version="1.0" encoding="UTF-8" standalone="no"?>
<!DOCTYPE svg PUBLIC "-//W3C//DTD SVG 1.1//EN"
 "http://www.w3.org/Graphics/SVG/1.1/DTD/svg11.dtd">
<!-- Generated by graphviz version 2.43.0 (0)
 -->
<!-- Title: Graphical Class Hierarchy Pages: 1 -->
<svg width="409pt" height="86pt"
 viewBox="0.00 0.00 409.00 86.00" xmlns="http://www.w3.org/2000/svg" xmlns:xlink="http://www.w3.org/1999/xlink">
<g id="graph0" class="graph" transform="scale(1 1) rotate(0) translate(4 82)">
<title>Graphical Class Hierarchy</title>
<!-- Node0 -->
<g id="Node000000" class="node">
<title>Node0</title>
<g id="a_Node000000"><a xlink:href="interfaceRpgGame_1_1Generation_1_1IMapGenerator.html" target="_top" xlink:title="Defines the contract for procedural level generation strategies.">
<polygon fill="white" stroke="#666666" points="197,-48.5 0,-48.5 0,-29.5 197,-29.5 197,-48.5"/>
<text text-anchor="middle" x="98.5" y="-36.5" font-family="Helvetica,sans-Serif" font-size="10.00">RpgGame.Generation.IMapGenerator</text>
</a>
</g>
</g>
<!-- Node1 -->
<g id="Node000001" class="node">
<title>Node1</title>
<g id="a_Node000001"><a xlink:href="classRpgGame_1_1Generation_1_1DungeonBuilder.html" target="_top" xlink:title="Implements the Builder Pattern to compose multiple dungeon generation procedures.">
<polygon fill="white" stroke="#666666" points="401,-78 233,-78 233,-48 401,-48 401,-78"/>
<text text-anchor="start" x="241" y="-66" font-family="Helvetica,sans-Serif" font-size="10.00">RpgGame.Generation.Dungeon</text>
<text text-anchor="middle" x="317" y="-55" font-family="Helvetica,sans-Serif" font-size="10.00">Builder</text>
</a>
</g>
</g>
<!-- Node0&#45;&gt;Node1 -->
<g id="edge10_Node000000_Node000001" class="edge">
<title>Node0&#45;&gt;Node1</title>
<g id="a_edge10_Node000000_Node000001"><a xlink:title=" ">
<path fill="none" stroke="#63b8ff" d="M195.68,-49.66C208.03,-51.03 220.58,-52.42 232.7,-53.77"/>
<polygon fill="#63b8ff" stroke="#63b8ff" points="195.7,-46.14 185.38,-48.52 194.93,-53.1 195.7,-46.14"/>
</a>
</g>
</g>
<!-- Node2 -->
<g id="Node000002" class="node">
<title>Node2</title>
<g id="a_Node000002"><a xlink:href="classRpgGame_1_1Generation_1_1SimpleRoomGenerator.html" target="_top" xlink:title="Generates a simple room&#45;based level layout with borders, random wall clusters, and predefined item sp...">
<polygon fill="white" stroke="#666666" points="396,-30 238,-30 238,0 396,0 396,-30"/>
<text text-anchor="start" x="246" y="-18" font-family="Helvetica,sans-Serif" font-size="10.00">RpgGame.Generation.Simple</text>
<text text-anchor="middle" x="317" y="-7" font-family="Helvetica,sans-Serif" font-size="10.00">RoomGenerator</text>
</a>
</g>
</g>
<!-- Node0&#45;&gt;Node2 -->
<g id="edge11_Node000000_Node000002" class="edge">
<title>Node0&#45;&gt;Node2</title>
<g id="a_edge11_Node000000_Node000002"><a xlink:title=" ">
<path fill="none" stroke="#63b8ff" d="M195.62,-28.34C209.78,-26.77 224.22,-25.17 237.96,-23.65"/>
<polygon fill="#63b8ff" stroke="#63b8ff" points="194.93,-24.9 185.38,-29.48 195.7,-31.86 194.93,-24.9"/>
</a>
</g>
</g>
</g>
</svg>
