<?xml version="1.0" encoding="UTF-8" standalone="no"?>
<!DOCTYPE svg PUBLIC "-//W3C//DTD SVG 1.1//EN"
 "http://www.w3.org/Graphics/SVG/1.1/DTD/svg11.dtd">
<!-- Generated by graphviz version 13.1.2 (20250808.2320)
 -->
<!-- Title: Graphical Class Hierarchy Pages: 1 -->
<svg width="391pt" height="64pt"
 viewBox="0.00 0.00 391.00 64.00" xmlns="http://www.w3.org/2000/svg" xmlns:xlink="http://www.w3.org/1999/xlink">
<g id="graph0" class="graph" transform="scale(1 1) rotate(0) translate(4 59.5)">
<title>Graphical Class Hierarchy</title>
<!-- Node0 -->
<g id="Node000000" class="node">
<title>Node0</title>
<g id="a_Node000000"><a xlink:href="classRpgGame_1_1Items_1_1HandOccupation.html" target="_top" xlink:title="Defines the strategy for how an equippable item occupies the player&#39;s hands.">
<polygon fill="white" stroke="#666666" points="164.5,-36.5 0,-36.5 0,-18 164.5,-18 164.5,-36.5"/>
<text xml:space="preserve" text-anchor="middle" x="82.25" y="-23" font-family="Helvetica,sans-Serif" font-size="10.00">RpgGame.Items.HandOccupation</text>
</a>
</g>
</g>
<!-- Node1 -->
<g id="Node000001" class="node">
<title>Node1</title>
<g id="a_Node000001"><a xlink:href="classRpgGame_1_1Items_1_1OneHandOccupation.html" target="_top" xlink:title="Represents a hand occupation strategy for one&#45;handed equipment.">
<polygon fill="white" stroke="#666666" points="383,-55.5 200.5,-55.5 200.5,-37 383,-37 383,-55.5"/>
<text xml:space="preserve" text-anchor="middle" x="291.75" y="-42" font-family="Helvetica,sans-Serif" font-size="10.00">RpgGame.Items.OneHandOccupation</text>
</a>
</g>
</g>
<!-- Node0&#45;&gt;Node1 -->
<g id="edge25_Node000000_Node000001" class="edge">
<title>Node0&#45;&gt;Node1</title>
<g id="a_edge25_Node000000_Node000001"><a xlink:title=" ">
<path fill="none" stroke="#63b8ff" d="M176.18,-35.76C184.16,-36.49 192.24,-37.23 200.2,-37.96"/>
<polygon fill="#63b8ff" stroke="#63b8ff" points="176.75,-32.3 166.47,-34.87 176.11,-39.27 176.75,-32.3"/>
</a>
</g>
</g>
<!-- Node2 -->
<g id="Node000002" class="node">
<title>Node2</title>
<g id="a_Node000002"><a xlink:href="classRpgGame_1_1Items_1_1TwoHandOccupation.html" target="_top" xlink:title="Represents a hand occupation strategy for two&#45;handed equipment.">
<polygon fill="white" stroke="#666666" points="382.62,-18.5 200.88,-18.5 200.88,0 382.62,0 382.62,-18.5"/>
<text xml:space="preserve" text-anchor="middle" x="291.75" y="-5" font-family="Helvetica,sans-Serif" font-size="10.00">RpgGame.Items.TwoHandOccupation</text>
</a>
</g>
</g>
<!-- Node0&#45;&gt;Node2 -->
<g id="edge26_Node000000_Node000002" class="edge">
<title>Node0&#45;&gt;Node2</title>
<g id="a_edge26_Node000000_Node000002"><a xlink:title=" ">
<path fill="none" stroke="#63b8ff" d="M176.29,-19.18C184.35,-18.48 192.51,-17.77 200.55,-17.07"/>
<polygon fill="#63b8ff" stroke="#63b8ff" points="176.13,-15.68 166.47,-20.03 176.73,-22.65 176.13,-15.68"/>
</a>
</g>
</g>
</g>
</svg>
