<?xml version="1.0" encoding="UTF-8" standalone="no"?>
<!DOCTYPE svg PUBLIC "-//W3C//DTD SVG 1.1//EN"
 "http://www.w3.org/Graphics/SVG/1.1/DTD/svg11.dtd">
<!-- Generated by graphviz version 13.1.2 (20250808.2320)
 -->
<!-- Title: Graphical Class Hierarchy Pages: 1 -->
<svg width="650pt" height="119pt"
 viewBox="0.00 0.00 650.00 119.00" xmlns="http://www.w3.org/2000/svg" xmlns:xlink="http://www.w3.org/1999/xlink">
<g id="graph0" class="graph" transform="scale(1 1) rotate(0) translate(4 114.5)">
<title>Graphical Class Hierarchy</title>
<!-- Node0 -->
<g id="Node000000" class="node">
<title>Node0</title>
<g id="a_Node000000"><a xlink:href="interfaceRpgGame_1_1Items_1_1IItem.html" target="_top" xlink:title="Defines the contract for all items that can exist within the game world.">
<polygon fill="white" stroke="#666666" points="114.25,-73.5 0,-73.5 0,-55 114.25,-55 114.25,-73.5"/>
<text xml:space="preserve" text-anchor="middle" x="57.12" y="-60" font-family="Helvetica,sans-Serif" font-size="10.00">RpgGame.Items.IItem</text>
</a>
</g>
</g>
<!-- Node1 -->
<g id="Node000001" class="node">
<title>Node1</title>
<g id="a_Node000001"><a xlink:href="classRpgGame_1_1Items_1_1Coin.html" target="_top" xlink:title="Represents a coin item that increases the player&#39;s currency when picked up.">
<polygon fill="white" stroke="#666666" points="277.62,-110.5 165.62,-110.5 165.62,-92 277.62,-92 277.62,-110.5"/>
<text xml:space="preserve" text-anchor="middle" x="221.62" y="-97" font-family="Helvetica,sans-Serif" font-size="10.00">RpgGame.Items.Coin</text>
</a>
</g>
</g>
<!-- Node0&#45;&gt;Node1 -->
<g id="edge26_Node000000_Node000001" class="edge">
<title>Node0&#45;&gt;Node1</title>
<g id="a_edge26_Node000000_Node000001"><a xlink:title=" ">
<path fill="none" stroke="#63b8ff" d="M111.76,-76.46C133.25,-81.36 157.67,-86.92 177.93,-91.53"/>
<polygon fill="#63b8ff" stroke="#63b8ff" points="112.82,-73.11 102.3,-74.31 111.27,-79.94 112.82,-73.11"/>
</a>
</g>
</g>
<!-- Node2 -->
<g id="Node000002" class="node">
<title>Node2</title>
<g id="a_Node000002"><a xlink:href="classRpgGame_1_1Items_1_1Gold.html" target="_top" xlink:title="Represents a gold item that increases the player&#39;s gold currency when picked up.">
<polygon fill="white" stroke="#666666" points="277.62,-73.5 165.62,-73.5 165.62,-55 277.62,-55 277.62,-73.5"/>
<text xml:space="preserve" text-anchor="middle" x="221.62" y="-60" font-family="Helvetica,sans-Serif" font-size="10.00">RpgGame.Items.Gold</text>
</a>
</g>
</g>
<!-- Node0&#45;&gt;Node2 -->
<g id="edge27_Node000000_Node000002" class="edge">
<title>Node0&#45;&gt;Node2</title>
<g id="a_edge27_Node000000_Node000002"><a xlink:title=" ">
<path fill="none" stroke="#63b8ff" d="M125.85,-64.25C138.95,-64.25 152.52,-64.25 165.17,-64.25"/>
<polygon fill="#63b8ff" stroke="#63b8ff" points="126.02,-60.75 116.02,-64.25 126.02,-67.75 126.02,-60.75"/>
</a>
</g>
</g>
<!-- Node3 -->
<g id="Node000003" class="node">
<title>Node3</title>
<g id="a_Node000003"><a xlink:href="interfaceRpgGame_1_1Items_1_1IEquippable.html" target="_top" xlink:title="Represents an item that can be equipped by the player.">
<polygon fill="white" stroke="#666666" points="293,-36.5 150.25,-36.5 150.25,-18 293,-18 293,-36.5"/>
<text xml:space="preserve" text-anchor="middle" x="221.62" y="-23" font-family="Helvetica,sans-Serif" font-size="10.00">RpgGame.Items.IEquippable</text>
</a>
</g>
</g>
<!-- Node0&#45;&gt;Node3 -->
<g id="edge28_Node000000_Node000003" class="edge">
<title>Node0&#45;&gt;Node3</title>
<g id="a_edge28_Node000000_Node000003"><a xlink:title=" ">
<path fill="none" stroke="#63b8ff" d="M111.76,-52.04C133.25,-47.14 157.67,-41.58 177.93,-36.97"/>
<polygon fill="#63b8ff" stroke="#63b8ff" points="111.27,-48.56 102.3,-54.19 112.82,-55.39 111.27,-48.56"/>
</a>
</g>
</g>
<!-- Node4 -->
<g id="Node000004" class="node">
<title>Node4</title>
<g id="a_Node000004"><a xlink:href="classRpgGame_1_1Items_1_1Weapon.html" target="_top" xlink:title="Represents an abstract base class for all equippable weapons.">
<polygon fill="white" stroke="#666666" points="456,-36.5 329,-36.5 329,-18 456,-18 456,-36.5"/>
<text xml:space="preserve" text-anchor="middle" x="392.5" y="-23" font-family="Helvetica,sans-Serif" font-size="10.00">RpgGame.Items.Weapon</text>
</a>
</g>
</g>
<!-- Node3&#45;&gt;Node4 -->
<g id="edge29_Node000003_Node000004" class="edge">
<title>Node3&#45;&gt;Node4</title>
<g id="a_edge29_Node000003_Node000004"><a xlink:title=" ">
<path fill="none" stroke="#63b8ff" d="M304.64,-27.25C312.72,-27.25 320.83,-27.25 328.67,-27.25"/>
<polygon fill="#63b8ff" stroke="#63b8ff" points="304.78,-23.75 294.78,-27.25 304.78,-30.75 304.78,-23.75"/>
</a>
</g>
</g>
<!-- Node5 -->
<g id="Node000005" class="node">
<title>Node5</title>
<g id="a_Node000005"><a xlink:href="classRpgGame_1_1Items_1_1DoubleSword.html" target="_top" xlink:title="Represents a powerful two&#45;handed sword weapon.">
<polygon fill="white" stroke="#666666" points="641.5,-55.5 492,-55.5 492,-37 641.5,-37 641.5,-55.5"/>
<text xml:space="preserve" text-anchor="middle" x="566.75" y="-42" font-family="Helvetica,sans-Serif" font-size="10.00">RpgGame.Items.DoubleSword</text>
</a>
</g>
</g>
<!-- Node4&#45;&gt;Node5 -->
<g id="edge30_Node000004_Node000005" class="edge">
<title>Node4&#45;&gt;Node5</title>
<g id="a_edge30_Node000004_Node000005"><a xlink:title=" ">
<path fill="none" stroke="#63b8ff" d="M467.42,-35.4C475.47,-36.29 483.66,-37.2 491.71,-38.08"/>
<polygon fill="#63b8ff" stroke="#63b8ff" points="468,-31.95 457.68,-34.33 467.23,-38.9 468,-31.95"/>
</a>
</g>
</g>
<!-- Node6 -->
<g id="Node000006" class="node">
<title>Node6</title>
<g id="a_Node000006"><a xlink:href="classRpgGame_1_1Items_1_1Sword.html" target="_top" xlink:title="Represents a standard one&#45;handed sword weapon.">
<polygon fill="white" stroke="#666666" points="626.12,-18.5 507.38,-18.5 507.38,0 626.12,0 626.12,-18.5"/>
<text xml:space="preserve" text-anchor="middle" x="566.75" y="-5" font-family="Helvetica,sans-Serif" font-size="10.00">RpgGame.Items.Sword</text>
</a>
</g>
</g>
<!-- Node4&#45;&gt;Node6 -->
<g id="edge31_Node000004_Node000006" class="edge">
<title>Node4&#45;&gt;Node6</title>
<g id="a_edge31_Node000004_Node000006"><a xlink:title=" ">
<path fill="none" stroke="#63b8ff" d="M467.25,-19.54C480.58,-18.15 494.31,-16.72 507.14,-15.38"/>
<polygon fill="#63b8ff" stroke="#63b8ff" points="467.26,-16.02 457.68,-20.54 467.99,-22.98 467.26,-16.02"/>
</a>
</g>
</g>
</g>
</svg>
