<?xml version="1.0" encoding="UTF-8" standalone="no"?>
<!DOCTYPE svg PUBLIC "-//W3C//DTD SVG 1.1//EN"
 "http://www.w3.org/Graphics/SVG/1.1/DTD/svg11.dtd">
<!-- Generated by graphviz version 2.43.0 (0)
 -->
<!-- Title: Graphical Class Hierarchy Pages: 1 -->
<svg width="397pt" height="326pt"
 viewBox="0.00 0.00 397.00 326.00" xmlns="http://www.w3.org/2000/svg" xmlns:xlink="http://www.w3.org/1999/xlink">
<g id="graph0" class="graph" transform="scale(1 1) rotate(0) translate(4 322)">
<title>Graphical Class Hierarchy</title>
<!-- Node0 -->
<g id="Node000000" class="node">
<title>Node0</title>
<g id="a_Node000000"><a xlink:href="interfaceRpgGame_1_1Generation_1_1IDungeonProcedure.html" target="_top" xlink:title="Defines a procedural step in dungeon generation.">
<polygon fill="white" stroke="#666666" points="171,-174 0,-174 0,-144 171,-144 171,-174"/>
<text text-anchor="start" x="8" y="-162" font-family="Helvetica,sans-Serif" font-size="10.00">RpgGame.Generation.IDungeon</text>
<text text-anchor="middle" x="85.5" y="-151" font-family="Helvetica,sans-Serif" font-size="10.00">Procedure</text>
</a>
</g>
</g>
<!-- Node1 -->
<g id="Node000001" class="node">
<title>Node1</title>
<g id="a_Node000001"><a xlink:href="classRpgGame_1_1Generation_1_1Procedures_1_1AddItemsProcedure.html" target="_top" xlink:title="Spawns treasure items (coins and gold) at random locations in the dungeon.">
<polygon fill="white" stroke="#666666" points="389,-318 207,-318 207,-288 389,-288 389,-318"/>
<text text-anchor="start" x="215" y="-306" font-family="Helvetica,sans-Serif" font-size="10.00">RpgGame.Generation.Procedures.</text>
<text text-anchor="middle" x="298" y="-295" font-family="Helvetica,sans-Serif" font-size="10.00">AddItemsProcedure</text>
</a>
</g>
</g>
<!-- Node0&#45;&gt;Node1 -->
<g id="edge3_Node000000_Node000001" class="edge">
<title>Node0&#45;&gt;Node1</title>
<g id="a_edge3_Node000000_Node000001"><a xlink:title=" ">
<path fill="none" stroke="#63b8ff" d="M103.56,-182.23C124.79,-209.46 163.58,-254.03 207,-279 212.89,-282.39 219.27,-285.31 225.81,-287.82"/>
<polygon fill="#63b8ff" stroke="#63b8ff" points="106.16,-179.86 97.31,-174.04 100.6,-184.11 106.16,-179.86"/>
</a>
</g>
</g>
<!-- Node2 -->
<g id="Node000002" class="node">
<title>Node2</title>
<g id="a_Node000002"><a xlink:href="classRpgGame_1_1Generation_1_1Procedures_1_1AddWeaponsProcedure.html" target="_top" xlink:title="Spawns weapons (swords and double swords) at random locations in the dungeon.">
<polygon fill="white" stroke="#666666" points="389,-270 207,-270 207,-240 389,-240 389,-270"/>
<text text-anchor="start" x="215" y="-258" font-family="Helvetica,sans-Serif" font-size="10.00">RpgGame.Generation.Procedures.</text>
<text text-anchor="middle" x="298" y="-247" font-family="Helvetica,sans-Serif" font-size="10.00">AddWeaponsProcedure</text>
</a>
</g>
</g>
<!-- Node0&#45;&gt;Node2 -->
<g id="edge4_Node000000_Node000002" class="edge">
<title>Node0&#45;&gt;Node2</title>
<g id="a_edge4_Node000000_Node000002"><a xlink:title=" ">
<path fill="none" stroke="#63b8ff" d="M116.25,-179.98C139.91,-195.86 174.35,-217.21 207,-231 214.9,-234.33 223.38,-237.32 231.87,-239.95"/>
<polygon fill="#63b8ff" stroke="#63b8ff" points="117.97,-176.92 107.74,-174.19 114.04,-182.71 117.97,-176.92"/>
</a>
</g>
</g>
<!-- Node3 -->
<g id="Node000003" class="node">
<title>Node3</title>
<g id="a_Node000003"><a xlink:href="classRpgGame_1_1Generation_1_1Procedures_1_1CentralRoomProcedure.html" target="_top" xlink:title="Generates a central room in the dungeon.">
<polygon fill="white" stroke="#666666" points="389,-222 207,-222 207,-192 389,-192 389,-222"/>
<text text-anchor="start" x="215" y="-210" font-family="Helvetica,sans-Serif" font-size="10.00">RpgGame.Generation.Procedures.</text>
<text text-anchor="middle" x="298" y="-199" font-family="Helvetica,sans-Serif" font-size="10.00">CentralRoomProcedure</text>
</a>
</g>
</g>
<!-- Node0&#45;&gt;Node3 -->
<g id="edge5_Node000000_Node000003" class="edge">
<title>Node0&#45;&gt;Node3</title>
<g id="a_edge5_Node000000_Node000003"><a xlink:title=" ">
<path fill="none" stroke="#63b8ff" d="M162.38,-176.3C184.91,-181.44 209.38,-187.02 231.21,-192"/>
<polygon fill="#63b8ff" stroke="#63b8ff" points="163.05,-172.87 152.53,-174.06 161.5,-179.69 163.05,-172.87"/>
</a>
</g>
</g>
<!-- Node4 -->
<g id="Node000004" class="node">
<title>Node4</title>
<g id="a_Node000004"><a xlink:href="classRpgGame_1_1Generation_1_1Procedures_1_1ChambersProcedure.html" target="_top" xlink:title="Generates multiple random chamber rooms in the dungeon.">
<polygon fill="white" stroke="#666666" points="389,-174 207,-174 207,-144 389,-144 389,-174"/>
<text text-anchor="start" x="215" y="-162" font-family="Helvetica,sans-Serif" font-size="10.00">RpgGame.Generation.Procedures.</text>
<text text-anchor="middle" x="298" y="-151" font-family="Helvetica,sans-Serif" font-size="10.00">ChambersProcedure</text>
</a>
</g>
</g>
<!-- Node0&#45;&gt;Node4 -->
<g id="edge6_Node000000_Node000004" class="edge">
<title>Node0&#45;&gt;Node4</title>
<g id="a_edge6_Node000000_Node000004"><a xlink:title=" ">
<path fill="none" stroke="#63b8ff" d="M181.49,-159C189.96,-159 198.53,-159 206.96,-159"/>
<polygon fill="#63b8ff" stroke="#63b8ff" points="181.21,-155.5 171.21,-159 181.21,-162.5 181.21,-155.5"/>
</a>
</g>
</g>
<!-- Node5 -->
<g id="Node000005" class="node">
<title>Node5</title>
<g id="a_Node000005"><a xlink:href="classRpgGame_1_1Generation_1_1Procedures_1_1EmptyDungeonProcedure.html" target="_top" xlink:title="Fills the entire dungeon with floor tiles, creating an empty open space.">
<polygon fill="white" stroke="#666666" points="389,-126 207,-126 207,-96 389,-96 389,-126"/>
<text text-anchor="start" x="215" y="-114" font-family="Helvetica,sans-Serif" font-size="10.00">RpgGame.Generation.Procedures.</text>
<text text-anchor="middle" x="298" y="-103" font-family="Helvetica,sans-Serif" font-size="10.00">EmptyDungeonProcedure</text>
</a>
</g>
</g>
<!-- Node0&#45;&gt;Node5 -->
<g id="edge7_Node000000_Node000005" class="edge">
<title>Node0&#45;&gt;Node5</title>
<g id="a_edge7_Node000000_Node000005"><a xlink:title=" ">
<path fill="none" stroke="#63b8ff" d="M162.38,-141.7C184.91,-136.56 209.38,-130.98 231.21,-126"/>
<polygon fill="#63b8ff" stroke="#63b8ff" points="161.5,-138.31 152.53,-143.94 163.05,-145.13 161.5,-138.31"/>
</a>
</g>
</g>
<!-- Node6 -->
<g id="Node000006" class="node">
<title>Node6</title>
<g id="a_Node000006"><a xlink:href="classRpgGame_1_1Generation_1_1Procedures_1_1FilledDungeonProcedure.html" target="_top" xlink:title="Fills the entire dungeon with wall tiles, creating a solid base for carving.">
<polygon fill="white" stroke="#666666" points="389,-78 207,-78 207,-48 389,-48 389,-78"/>
<text text-anchor="start" x="215" y="-66" font-family="Helvetica,sans-Serif" font-size="10.00">RpgGame.Generation.Procedures.</text>
<text text-anchor="middle" x="298" y="-55" font-family="Helvetica,sans-Serif" font-size="10.00">FilledDungeonProcedure</text>
</a>
</g>
</g>
<!-- Node0&#45;&gt;Node6 -->
<g id="edge8_Node000000_Node000006" class="edge">
<title>Node0&#45;&gt;Node6</title>
<g id="a_edge8_Node000000_Node000006"><a xlink:title=" ">
<path fill="none" stroke="#63b8ff" d="M116.25,-138.02C139.91,-122.14 174.35,-100.79 207,-87 214.9,-83.67 223.38,-80.68 231.87,-78.05"/>
<polygon fill="#63b8ff" stroke="#63b8ff" points="114.04,-135.29 107.74,-143.81 117.97,-141.08 114.04,-135.29"/>
</a>
</g>
</g>
<!-- Node7 -->
<g id="Node000007" class="node">
<title>Node7</title>
<g id="a_Node000007"><a xlink:href="classRpgGame_1_1Generation_1_1Procedures_1_1PathsProcedure.html" target="_top" xlink:title="Generates corridors connecting all rooms to a central room.">
<polygon fill="white" stroke="#666666" points="389,-30 207,-30 207,0 389,0 389,-30"/>
<text text-anchor="start" x="215" y="-18" font-family="Helvetica,sans-Serif" font-size="10.00">RpgGame.Generation.Procedures.</text>
<text text-anchor="middle" x="298" y="-7" font-family="Helvetica,sans-Serif" font-size="10.00">PathsProcedure</text>
</a>
</g>
</g>
<!-- Node0&#45;&gt;Node7 -->
<g id="edge9_Node000000_Node000007" class="edge">
<title>Node0&#45;&gt;Node7</title>
<g id="a_edge9_Node000000_Node000007"><a xlink:title=" ">
<path fill="none" stroke="#63b8ff" d="M103.56,-135.77C124.79,-108.54 163.58,-63.97 207,-39 212.89,-35.61 219.27,-32.69 225.81,-30.18"/>
<polygon fill="#63b8ff" stroke="#63b8ff" points="100.6,-133.89 97.31,-143.96 106.16,-138.14 100.6,-133.89"/>
</a>
</g>
</g>
</g>
</svg>
