<?xml version="1.0" encoding="UTF-8" standalone="no"?>
<!DOCTYPE svg PUBLIC "-//W3C//DTD SVG 1.1//EN"
 "http://www.w3.org/Graphics/SVG/1.1/DTD/svg11.dtd">
<!-- Generated by graphviz version 2.43.0 (0)
 -->
<!-- Title: Graphical Class Hierarchy Pages: 1 -->
<svg width="421pt" height="64pt"
 viewBox="0.00 0.00 421.00 64.00" xmlns="http://www.w3.org/2000/svg" xmlns:xlink="http://www.w3.org/1999/xlink">
<g id="graph0" class="graph" transform="scale(1 1) rotate(0) translate(4 60)">
<title>Graphical Class Hierarchy</title>
<!-- Node0 -->
<g id="Node000000" class="node">
<title>Node0</title>
<g id="a_Node000000"><a xlink:href="classRpgGame_1_1Items_1_1HandOccupation.html" target="_top" xlink:title="Defines the strategy for how an equippable item occupies the player&#39;s hands.">
<polygon fill="white" stroke="#666666" points="179,-37 0,-37 0,-18 179,-18 179,-37"/>
<text text-anchor="middle" x="89.5" y="-25" font-family="Helvetica,sans-Serif" font-size="10.00">RpgGame.Items.HandOccupation</text>
</a>
</g>
</g>
<!-- Node1 -->
<g id="Node000001" class="node">
<title>Node1</title>
<g id="a_Node000001"><a xlink:href="classRpgGame_1_1Items_1_1OneHandOccupation.html" target="_top" xlink:title="Represents a hand occupation strategy for one&#45;handed equipment.">
<polygon fill="white" stroke="#666666" points="413,-56 215,-56 215,-37 413,-37 413,-56"/>
<text text-anchor="middle" x="314" y="-44" font-family="Helvetica,sans-Serif" font-size="10.00">RpgGame.Items.OneHandOccupation</text>
</a>
</g>
</g>
<!-- Node0&#45;&gt;Node1 -->
<g id="edge25_Node000000_Node000001" class="edge">
<title>Node0&#45;&gt;Node1</title>
<g id="a_edge25_Node000000_Node000001"><a xlink:title=" ">
<path fill="none" stroke="#63b8ff" d="M189.07,-35.92C197.63,-36.65 206.29,-37.39 214.85,-38.12"/>
<polygon fill="#63b8ff" stroke="#63b8ff" points="189.34,-32.43 179.08,-35.06 188.74,-39.4 189.34,-32.43"/>
</a>
</g>
</g>
<!-- Node2 -->
<g id="Node000002" class="node">
<title>Node2</title>
<g id="a_Node000002"><a xlink:href="classRpgGame_1_1Items_1_1TwoHandOccupation.html" target="_top" xlink:title="Represents a hand occupation strategy for two&#45;handed equipment.">
<polygon fill="white" stroke="#666666" points="412.5,-19 215.5,-19 215.5,0 412.5,0 412.5,-19"/>
<text text-anchor="middle" x="314" y="-7" font-family="Helvetica,sans-Serif" font-size="10.00">RpgGame.Items.TwoHandOccupation</text>
</a>
</g>
</g>
<!-- Node0&#45;&gt;Node2 -->
<g id="edge26_Node000000_Node000002" class="edge">
<title>Node0&#45;&gt;Node2</title>
<g id="a_edge26_Node000000_Node000002"><a xlink:title=" ">
<path fill="none" stroke="#63b8ff" d="M189.17,-19.52C197.82,-18.82 206.57,-18.11 215.21,-17.41"/>
<polygon fill="#63b8ff" stroke="#63b8ff" points="188.76,-16.04 179.08,-20.33 189.33,-23.02 188.76,-16.04"/>
</a>
</g>
</g>
</g>
</svg>
