<?xml version="1.0" encoding="UTF-8" standalone="no"?>
<!DOCTYPE svg PUBLIC "-//W3C//DTD SVG 1.1//EN"
 "http://www.w3.org/Graphics/SVG/1.1/DTD/svg11.dtd">
<!-- Generated by graphviz version 2.43.0 (0)
 -->
<!-- Title: RpgGame.Items.IItem.OnDrop Pages: 1 -->
<svg width="591pt" height="86pt"
 viewBox="0.00 0.00 591.00 86.00" xmlns="http://www.w3.org/2000/svg" xmlns:xlink="http://www.w3.org/1999/xlink">
<g id="graph0" class="graph" transform="scale(1 1) rotate(0) translate(4 82)">
<title>RpgGame.Items.IItem.OnDrop</title>
<!-- Node1 -->
<g id="Node000001" class="node">
<title>Node1</title>
<g id="a_Node000001"><a xlink:title="Handles the drop interaction for the item.">
<polygon fill="#999999" stroke="#666666" points="583,-48.5 419,-48.5 419,-29.5 583,-29.5 583,-48.5"/>
<text text-anchor="middle" x="501" y="-36.5" font-family="Helvetica,sans-Serif" font-size="10.00">RpgGame.Items.IItem.OnDrop</text>
</a>
</g>
</g>
<!-- Node2 -->
<g id="Node000002" class="node">
<title>Node2</title>
<g id="a_Node000002"><a xlink:href="classRpgGame_1_1Character_1_1Player.html#adee02bad168da8ab19d0f52146bf9310" target="_top" xlink:title="Drops the currently equipped left&#45;hand item onto the level.">
<polygon fill="white" stroke="#666666" points="383,-78 233,-78 233,-48 383,-48 383,-78"/>
<text text-anchor="start" x="241" y="-66" font-family="Helvetica,sans-Serif" font-size="10.00">RpgGame.Character.Player.</text>
<text text-anchor="middle" x="308" y="-55" font-family="Helvetica,sans-Serif" font-size="10.00">DropLeft</text>
</a>
</g>
</g>
<!-- Node1&#45;&gt;Node2 -->
<g id="edge1_Node000001_Node000002" class="edge">
<title>Node1&#45;&gt;Node2</title>
<g id="a_edge1_Node000001_Node000002"><a xlink:title=" ">
<path fill="none" stroke="#63b8ff" d="M414,-49.81C403.69,-51.1 393.23,-52.42 383.11,-53.69"/>
<polygon fill="#63b8ff" stroke="#63b8ff" points="414.75,-53.24 424.24,-48.52 413.88,-46.29 414.75,-53.24"/>
</a>
</g>
</g>
<!-- Node4 -->
<g id="Node000004" class="node">
<title>Node4</title>
<g id="a_Node000004"><a xlink:href="classRpgGame_1_1Character_1_1Player.html#a177a7696a43687bb2a9da970a2d4f559" target="_top" xlink:title="Drops the currently equipped right&#45;hand item onto the level.">
<polygon fill="white" stroke="#666666" points="383,-30 233,-30 233,0 383,0 383,-30"/>
<text text-anchor="start" x="241" y="-18" font-family="Helvetica,sans-Serif" font-size="10.00">RpgGame.Character.Player.</text>
<text text-anchor="middle" x="308" y="-7" font-family="Helvetica,sans-Serif" font-size="10.00">DropRight</text>
</a>
</g>
</g>
<!-- Node1&#45;&gt;Node4 -->
<g id="edge3_Node000001_Node000004" class="edge">
<title>Node1&#45;&gt;Node4</title>
<g id="a_edge3_Node000001_Node000004"><a xlink:title=" ">
<path fill="none" stroke="#63b8ff" d="M414,-28.19C403.69,-26.9 393.23,-25.58 383.11,-24.31"/>
<polygon fill="#63b8ff" stroke="#63b8ff" points="413.88,-31.71 424.24,-29.48 414.75,-24.76 413.88,-31.71"/>
</a>
</g>
</g>
<!-- Node3 -->
<g id="Node000003" class="node">
<title>Node3</title>
<g id="a_Node000003"><a xlink:href="classRpgGame_1_1Input_1_1DropLeftCommand.html#adfa777e251b22900e3bea5203f888373" target="_top" xlink:title="Executes the command using provided game objects.Typically 1 to indicate the game should continue,...">
<polygon fill="white" stroke="#666666" points="193.5,-78 3.5,-78 3.5,-48 193.5,-48 193.5,-78"/>
<text text-anchor="start" x="11.5" y="-66" font-family="Helvetica,sans-Serif" font-size="10.00">RpgGame.Input.DropLeftCommand.</text>
<text text-anchor="middle" x="98.5" y="-55" font-family="Helvetica,sans-Serif" font-size="10.00">Execute</text>
</a>
</g>
</g>
<!-- Node2&#45;&gt;Node3 -->
<g id="edge2_Node000002_Node000003" class="edge">
<title>Node2&#45;&gt;Node3</title>
<g id="a_edge2_Node000002_Node000003"><a xlink:title=" ">
<path fill="none" stroke="#63b8ff" d="M222.74,-63C213.21,-63 203.46,-63 193.82,-63"/>
<polygon fill="#63b8ff" stroke="#63b8ff" points="222.97,-66.5 232.97,-63 222.97,-59.5 222.97,-66.5"/>
</a>
</g>
</g>
<!-- Node5 -->
<g id="Node000005" class="node">
<title>Node5</title>
<g id="a_Node000005"><a xlink:href="classRpgGame_1_1Input_1_1DropRightCommand.html#a9c276b3f89036aeec18cc97116d13007" target="_top" xlink:title="Executes the command using provided game objects.Typically 1 to indicate the game should continue,...">
<polygon fill="white" stroke="#666666" points="197,-30 0,-30 0,0 197,0 197,-30"/>
<text text-anchor="start" x="8" y="-18" font-family="Helvetica,sans-Serif" font-size="10.00">RpgGame.Input.DropRightCommand.</text>
<text text-anchor="middle" x="98.5" y="-7" font-family="Helvetica,sans-Serif" font-size="10.00">Execute</text>
</a>
</g>
</g>
<!-- Node4&#45;&gt;Node5 -->
<g id="edge4_Node000004_Node000005" class="edge">
<title>Node4&#45;&gt;Node5</title>
<g id="a_edge4_Node000004_Node000005"><a xlink:title=" ">
<path fill="none" stroke="#63b8ff" d="M222.75,-15C214.29,-15 205.65,-15 197.07,-15"/>
<polygon fill="#63b8ff" stroke="#63b8ff" points="222.97,-18.5 232.97,-15 222.97,-11.5 222.97,-18.5"/>
</a>
</g>
</g>
</g>
</svg>
