<?xml version="1.0" encoding="UTF-8" standalone="no"?>
<!DOCTYPE svg PUBLIC "-//W3C//DTD SVG 1.1//EN"
 "http://www.w3.org/Graphics/SVG/1.1/DTD/svg11.dtd">
<!-- Generated by graphviz version 2.43.0 (0)
 -->
<!-- Title: RpgGame.Items.IItem Pages: 1 -->
<!--zoomable 707 -->

<svg id="main" version="1.1" xmlns="http://www.w3.org/2000/svg" xmlns:xlink="http://www.w3.org/1999/xlink" xml:space="preserve" onload="init(evt)">
<style type="text/css"><![CDATA[
.node, .edge {opacity: 0.7;}
.node.selected, .edge.selected {opacity: 1;}
.edge:hover path { stroke: red; }
.edge:hover polygon { stroke: red; fill: red; }
]]></style>

<defs>
  <circle id="rim" cx="0" cy="0" r="7"/>
  <circle id="rim2" cx="0" cy="0" r="3.5"/>
  <g id="zoomPlus">
    <use xlink:href="#rim" fill="#404040"><set attributeName="fill" to="#808080" begin="zoomplus.mouseover" end="zoomplus.mouseout"/></use>
    <path d="M-4,0h8M0,-4v8" fill="none" stroke="white" stroke-width="1.5" pointer-events="none"/>
  </g>
  <g id="zoomMin">
    <use xlink:href="#rim" fill="#404040"><set attributeName="fill" to="#808080" begin="zoomminus.mouseover" end="zoomminus.mouseout"/></use>
    <path d="M-4,0h8" fill="none" stroke="white" stroke-width="1.5" pointer-events="none"/>
  </g>
  <g id="arrowUp" transform="translate(30 24)">
    <use xlink:href="#rim"/>
    <path pointer-events="none" fill="none" stroke="white" stroke-width="1.5" d="M0,-3.0v7 M-2.5,-0.5L0,-3.0L2.5,-0.5"/>
  </g>
  <g id="arrowRight" transform="rotate(90) translate(36 -43)">
    <use xlink:href="#rim"/>
    <path pointer-events="none" fill="none" stroke="white" stroke-width="1.5" d="M0,-3.0v7 M-2.5,-0.5L0,-3.0L2.5,-0.5"/>
  </g>
  <g id="arrowDown" transform="rotate(180) translate(-30 -48)">
    <use xlink:href="#rim"/>
    <path pointer-events="none" fill="none" stroke="white" stroke-width="1.5" d="M0,-3.0v7 M-2.5,-0.5L0,-3.0L2.5,-0.5"/>
  </g>
  <g id="arrowLeft" transform="rotate(270) translate(-36 17)">
    <use xlink:href="#rim"/>
    <path pointer-events="none" fill="none" stroke="white" stroke-width="1.5" d="M0,-3.0v7 M-2.5,-0.5L0,-3.0L2.5,-0.5"/>
  </g>
  <g id="resetDef">
    <use xlink:href="#rim2" fill="#404040"><set attributeName="fill" to="#808080" begin="reset.mouseover" end="reset.mouseout"/></use>
  </g>
</defs>
<script type="application/ecmascript">
var viewWidth = 873;
var viewHeight = 707;
var sectionId = 'dynsection-0';
</script>
<script type="application/ecmascript" xlink:href="svg.min.js"/>
<svg id="graph" class="graph">
<g id="viewport">
<title>RpgGame.Items.IItem</title>
<!-- Node1 -->
<g id="Node000001" class="node">
<title>Node1</title>
<g id="a_Node000001"><a xlink:title="Defines the contract for all items that can exist within the game world.">
<polygon fill="#999999" stroke="transparent" points="513,-699 352,-699 352,-568 513,-568 513,-699"/>
<text text-anchor="start" x="379" y="-686.5" font-family="Helvetica,sans-Serif" font-size="10.00">RpgGame.Items.IItem</text>
<text text-anchor="start" x="356.5" y="-671.5" font-family="Helvetica,sans-Serif" font-size="10.00">+</text>
<text text-anchor="start" x="369.5" y="-671.5" font-family="Helvetica,sans-Serif" font-size="10.00">string Name</text>
<text text-anchor="start" x="356.5" y="-656.5" font-family="Helvetica,sans-Serif" font-size="10.00">+</text>
<text text-anchor="start" x="369.5" y="-656.5" font-family="Helvetica,sans-Serif" font-size="10.00">char Symbol</text>
<text text-anchor="start" x="356.5" y="-641.5" font-family="Helvetica,sans-Serif" font-size="10.00">+</text>
<text text-anchor="start" x="369.5" y="-641.5" font-family="Helvetica,sans-Serif" font-size="10.00">ConsoleColor color</text>
<text text-anchor="start" x="356.5" y="-626.5" font-family="Helvetica,sans-Serif" font-size="10.00">+</text>
<text text-anchor="start" x="369.5" y="-626.5" font-family="Helvetica,sans-Serif" font-size="10.00">string GetDescription()</text>
<text text-anchor="start" x="356.5" y="-611.5" font-family="Helvetica,sans-Serif" font-size="10.00">+</text>
<text text-anchor="start" x="369.5" y="-611.5" font-family="Helvetica,sans-Serif" font-size="10.00">bool OnPickup(Player</text>
<text text-anchor="start" x="369.5" y="-600.5" font-family="Helvetica,sans-Serif" font-size="10.00"> player, Inventory inventory)</text>
<text text-anchor="start" x="356.5" y="-585.5" font-family="Helvetica,sans-Serif" font-size="10.00">+</text>
<text text-anchor="start" x="369.5" y="-585.5" font-family="Helvetica,sans-Serif" font-size="10.00">void OnDrop(Level level,</text>
<text text-anchor="start" x="369.5" y="-574.5" font-family="Helvetica,sans-Serif" font-size="10.00"> Player player)</text>
<polygon fill="#666666" stroke="#666666" points="352.5,-681.5 352.5,-681.5 513.5,-681.5 513.5,-681.5 352.5,-681.5"/>
<polygon fill="#666666" stroke="#666666" points="352.5,-636.5 352.5,-636.5 367.5,-636.5 367.5,-636.5 352.5,-636.5"/>
<polygon fill="#666666" stroke="#666666" points="367.5,-636.5 367.5,-636.5 513.5,-636.5 513.5,-636.5 367.5,-636.5"/>
<polygon fill="none" stroke="#666666" points="352,-568 352,-699 513,-699 513,-568 352,-568"/>
</a>
</g>
</g>
<!-- Node2 -->
<g id="Node000002" class="node">
<title>Node2</title>
<g id="a_Node000002"><a xlink:href="classRpgGame_1_1Items_1_1Coin.html" target="_top" xlink:title="Represents a coin item that increases the player&#39;s currency when picked up.">
<polygon fill="white" stroke="transparent" points="161,-532 0,-532 0,-401 161,-401 161,-532"/>
<text text-anchor="start" x="29" y="-519.5" font-family="Helvetica,sans-Serif" font-size="10.00">RpgGame.Items.Coin</text>
<text text-anchor="start" x="4.5" y="-504.5" font-family="Helvetica,sans-Serif" font-size="10.00">+</text>
<text text-anchor="start" x="17.5" y="-504.5" font-family="Helvetica,sans-Serif" font-size="10.00">string Name</text>
<text text-anchor="start" x="4.5" y="-489.5" font-family="Helvetica,sans-Serif" font-size="10.00">+</text>
<text text-anchor="start" x="17.5" y="-489.5" font-family="Helvetica,sans-Serif" font-size="10.00">char Symbol</text>
<text text-anchor="start" x="4.5" y="-474.5" font-family="Helvetica,sans-Serif" font-size="10.00">+</text>
<text text-anchor="start" x="17.5" y="-474.5" font-family="Helvetica,sans-Serif" font-size="10.00">ConsoleColor color</text>
<text text-anchor="start" x="4.5" y="-459.5" font-family="Helvetica,sans-Serif" font-size="10.00">+</text>
<text text-anchor="start" x="17.5" y="-459.5" font-family="Helvetica,sans-Serif" font-size="10.00">string GetDescription()</text>
<text text-anchor="start" x="4.5" y="-444.5" font-family="Helvetica,sans-Serif" font-size="10.00">+</text>
<text text-anchor="start" x="17.5" y="-444.5" font-family="Helvetica,sans-Serif" font-size="10.00">bool OnPickup(Player</text>
<text text-anchor="start" x="17.5" y="-433.5" font-family="Helvetica,sans-Serif" font-size="10.00"> player, Inventory inventory)</text>
<text text-anchor="start" x="4.5" y="-418.5" font-family="Helvetica,sans-Serif" font-size="10.00">+</text>
<text text-anchor="start" x="17.5" y="-418.5" font-family="Helvetica,sans-Serif" font-size="10.00">void OnDrop(Level level,</text>
<text text-anchor="start" x="17.5" y="-407.5" font-family="Helvetica,sans-Serif" font-size="10.00"> Player player)</text>
<polygon fill="#666666" stroke="#666666" points="0.5,-514.5 0.5,-514.5 161.5,-514.5 161.5,-514.5 0.5,-514.5"/>
<polygon fill="#666666" stroke="#666666" points="0.5,-469.5 0.5,-469.5 15.5,-469.5 15.5,-469.5 0.5,-469.5"/>
<polygon fill="#666666" stroke="#666666" points="15.5,-469.5 15.5,-469.5 161.5,-469.5 161.5,-469.5 15.5,-469.5"/>
<polygon fill="none" stroke="#666666" points="0,-401 0,-532 161,-532 161,-401 0,-401"/>
</a>
</g>
</g>
<!-- Node1&#45;&gt;Node2 -->
<g id="edge1_Node000001_Node000002" class="edge">
<title>Node1&#45;&gt;Node2</title>
<g id="a_edge1_Node000001_Node000002"><a xlink:title=" ">
<path fill="none" stroke="#63b8ff" d="M342.43,-604.34C290.69,-586.62 225.31,-561.52 170.5,-532 167.37,-530.31 164.22,-528.53 161.07,-526.68"/>
<polygon fill="none" stroke="#63b8ff" points="341.33,-607.67 351.92,-607.57 343.58,-601.04 341.33,-607.67"/>
</a>
</g>
</g>
<!-- Node3 -->
<g id="Node000003" class="node">
<title>Node3</title>
<g id="a_Node000003"><a xlink:href="classRpgGame_1_1Items_1_1Gold.html" target="_top" xlink:title="Represents a gold item that increases the player&#39;s gold currency when picked up.">
<polygon fill="white" stroke="transparent" points="340,-532 179,-532 179,-401 340,-401 340,-532"/>
<text text-anchor="start" x="207.5" y="-519.5" font-family="Helvetica,sans-Serif" font-size="10.00">RpgGame.Items.Gold</text>
<text text-anchor="start" x="183.5" y="-504.5" font-family="Helvetica,sans-Serif" font-size="10.00">+</text>
<text text-anchor="start" x="196.5" y="-504.5" font-family="Helvetica,sans-Serif" font-size="10.00">string Name</text>
<text text-anchor="start" x="183.5" y="-489.5" font-family="Helvetica,sans-Serif" font-size="10.00">+</text>
<text text-anchor="start" x="196.5" y="-489.5" font-family="Helvetica,sans-Serif" font-size="10.00">char Symbol</text>
<text text-anchor="start" x="183.5" y="-474.5" font-family="Helvetica,sans-Serif" font-size="10.00">+</text>
<text text-anchor="start" x="196.5" y="-474.5" font-family="Helvetica,sans-Serif" font-size="10.00">ConsoleColor color</text>
<text text-anchor="start" x="183.5" y="-459.5" font-family="Helvetica,sans-Serif" font-size="10.00">+</text>
<text text-anchor="start" x="196.5" y="-459.5" font-family="Helvetica,sans-Serif" font-size="10.00">string GetDescription()</text>
<text text-anchor="start" x="183.5" y="-444.5" font-family="Helvetica,sans-Serif" font-size="10.00">+</text>
<text text-anchor="start" x="196.5" y="-444.5" font-family="Helvetica,sans-Serif" font-size="10.00">bool OnPickup(Player</text>
<text text-anchor="start" x="196.5" y="-433.5" font-family="Helvetica,sans-Serif" font-size="10.00"> player, Inventory inventory)</text>
<text text-anchor="start" x="183.5" y="-418.5" font-family="Helvetica,sans-Serif" font-size="10.00">+</text>
<text text-anchor="start" x="196.5" y="-418.5" font-family="Helvetica,sans-Serif" font-size="10.00">void OnDrop(Level level,</text>
<text text-anchor="start" x="196.5" y="-407.5" font-family="Helvetica,sans-Serif" font-size="10.00"> Player player)</text>
<polygon fill="#666666" stroke="#666666" points="179.5,-514.5 179.5,-514.5 340.5,-514.5 340.5,-514.5 179.5,-514.5"/>
<polygon fill="#666666" stroke="#666666" points="179.5,-469.5 179.5,-469.5 194.5,-469.5 194.5,-469.5 179.5,-469.5"/>
<polygon fill="#666666" stroke="#666666" points="194.5,-469.5 194.5,-469.5 340.5,-469.5 340.5,-469.5 194.5,-469.5"/>
<polygon fill="none" stroke="#666666" points="179,-401 179,-532 340,-532 340,-401 179,-401"/>
</a>
</g>
</g>
<!-- Node1&#45;&gt;Node3 -->
<g id="edge2_Node000001_Node000003" class="edge">
<title>Node1&#45;&gt;Node3</title>
<g id="a_edge2_Node000001_Node000003"><a xlink:title=" ">
<path fill="none" stroke="#63b8ff" d="M357.36,-560.83C347.32,-551.26 337.08,-541.49 327.18,-532.05"/>
<polygon fill="none" stroke="#63b8ff" points="354.97,-563.39 364.62,-567.76 359.8,-558.33 354.97,-563.39"/>
</a>
</g>
</g>
<!-- Node4 -->
<g id="Node000004" class="node">
<title>Node4</title>
<g id="a_Node000004"><a xlink:href="interfaceRpgGame_1_1Items_1_1IEquippable.html" target="_top" xlink:title="Represents an item that can be equipped by the player.">
<polygon fill="white" stroke="transparent" points="507,-509.5 358,-509.5 358,-423.5 507,-423.5 507,-509.5"/>
<text text-anchor="start" x="363.5" y="-497.5" font-family="Helvetica,sans-Serif" font-size="10.00">RpgGame.Items.IEquippable</text>
<text text-anchor="start" x="431" y="-482.5" font-family="Helvetica,sans-Serif" font-size="10.00"> </text>
<text text-anchor="start" x="369" y="-467.5" font-family="Helvetica,sans-Serif" font-size="10.00">+</text>
<text text-anchor="start" x="388.5" y="-467.5" font-family="Helvetica,sans-Serif" font-size="10.00">bool TryEquipToLeft</text>
<text text-anchor="start" x="388.5" y="-456.5" font-family="Helvetica,sans-Serif" font-size="10.00">(Player player)</text>
<text text-anchor="start" x="369" y="-441.5" font-family="Helvetica,sans-Serif" font-size="10.00">+</text>
<text text-anchor="start" x="388.5" y="-441.5" font-family="Helvetica,sans-Serif" font-size="10.00">bool TryEquipToRight</text>
<text text-anchor="start" x="388.5" y="-430.5" font-family="Helvetica,sans-Serif" font-size="10.00">(Player player)</text>
<polygon fill="#666666" stroke="#666666" points="358.5,-492.5 358.5,-492.5 507.5,-492.5 507.5,-492.5 358.5,-492.5"/>
<polygon fill="#666666" stroke="#666666" points="358.5,-477.5 358.5,-477.5 507.5,-477.5 507.5,-477.5 358.5,-477.5"/>
<polygon fill="none" stroke="#666666" points="358,-423.5 358,-509.5 507,-509.5 507,-423.5 358,-423.5"/>
</a>
</g>
</g>
<!-- Node1&#45;&gt;Node4 -->
<g id="edge3_Node000001_Node000004" class="edge">
<title>Node1&#45;&gt;Node4</title>
<g id="a_edge3_Node000001_Node000004"><a xlink:title=" ">
<path fill="none" stroke="#63b8ff" d="M432.5,-557.61C432.5,-541.17 432.5,-524.34 432.5,-509.73"/>
<polygon fill="none" stroke="#63b8ff" points="429,-557.76 432.5,-567.76 436,-557.76 429,-557.76"/>
</a>
</g>
</g>
<!-- Node8 -->
<g id="Node000008" class="node">
<title>Node8</title>
<g id="a_Node000008"><a xlink:href="classRpgGame_1_1Items_1_1Potion.html" target="_top" xlink:title="Represents a consumable health potion.">
<polygon fill="white" stroke="transparent" points="686,-532 525,-532 525,-401 686,-401 686,-532"/>
<text text-anchor="start" x="549.5" y="-519.5" font-family="Helvetica,sans-Serif" font-size="10.00">RpgGame.Items.Potion</text>
<text text-anchor="start" x="529.5" y="-504.5" font-family="Helvetica,sans-Serif" font-size="10.00">+</text>
<text text-anchor="start" x="542.5" y="-504.5" font-family="Helvetica,sans-Serif" font-size="10.00">string Name</text>
<text text-anchor="start" x="529.5" y="-489.5" font-family="Helvetica,sans-Serif" font-size="10.00">+</text>
<text text-anchor="start" x="542.5" y="-489.5" font-family="Helvetica,sans-Serif" font-size="10.00">char Symbol</text>
<text text-anchor="start" x="529.5" y="-474.5" font-family="Helvetica,sans-Serif" font-size="10.00">+</text>
<text text-anchor="start" x="542.5" y="-474.5" font-family="Helvetica,sans-Serif" font-size="10.00">ConsoleColor color</text>
<text text-anchor="start" x="529.5" y="-459.5" font-family="Helvetica,sans-Serif" font-size="10.00">+</text>
<text text-anchor="start" x="542.5" y="-459.5" font-family="Helvetica,sans-Serif" font-size="10.00">string GetDescription()</text>
<text text-anchor="start" x="529.5" y="-444.5" font-family="Helvetica,sans-Serif" font-size="10.00">+</text>
<text text-anchor="start" x="542.5" y="-444.5" font-family="Helvetica,sans-Serif" font-size="10.00">bool OnPickup(Player</text>
<text text-anchor="start" x="542.5" y="-433.5" font-family="Helvetica,sans-Serif" font-size="10.00"> player, Inventory inventory)</text>
<text text-anchor="start" x="529.5" y="-418.5" font-family="Helvetica,sans-Serif" font-size="10.00">+</text>
<text text-anchor="start" x="542.5" y="-418.5" font-family="Helvetica,sans-Serif" font-size="10.00">void OnDrop(Level level,</text>
<text text-anchor="start" x="542.5" y="-407.5" font-family="Helvetica,sans-Serif" font-size="10.00"> Player player)</text>
<polygon fill="#666666" stroke="#666666" points="525.5,-514.5 525.5,-514.5 686.5,-514.5 686.5,-514.5 525.5,-514.5"/>
<polygon fill="#666666" stroke="#666666" points="525.5,-469.5 525.5,-469.5 540.5,-469.5 540.5,-469.5 525.5,-469.5"/>
<polygon fill="#666666" stroke="#666666" points="540.5,-469.5 540.5,-469.5 686.5,-469.5 686.5,-469.5 540.5,-469.5"/>
<polygon fill="none" stroke="#666666" points="525,-401 525,-532 686,-532 686,-401 525,-401"/>
</a>
</g>
</g>
<!-- Node1&#45;&gt;Node8 -->
<g id="edge7_Node000001_Node000008" class="edge">
<title>Node1&#45;&gt;Node8</title>
<g id="a_edge7_Node000001_Node000008"><a xlink:title=" ">
<path fill="none" stroke="#63b8ff" d="M507.64,-560.83C517.68,-551.26 527.92,-541.49 537.82,-532.05"/>
<polygon fill="none" stroke="#63b8ff" points="505.2,-558.33 500.38,-567.76 510.03,-563.39 505.2,-558.33"/>
</a>
</g>
</g>
<!-- Node9 -->
<g id="Node000009" class="node">
<title>Node9</title>
<g id="a_Node000009"><a xlink:href="classRpgGame_1_1Items_1_1Thorn.html" target="_top" xlink:title="Represents a Thorn on that map, and walking over it causes damange.">
<polygon fill="white" stroke="transparent" points="865,-532 704,-532 704,-401 865,-401 865,-532"/>
<text text-anchor="start" x="730" y="-519.5" font-family="Helvetica,sans-Serif" font-size="10.00">RpgGame.Items.Thorn</text>
<text text-anchor="start" x="708.5" y="-504.5" font-family="Helvetica,sans-Serif" font-size="10.00">+</text>
<text text-anchor="start" x="721.5" y="-504.5" font-family="Helvetica,sans-Serif" font-size="10.00">string Name</text>
<text text-anchor="start" x="708.5" y="-489.5" font-family="Helvetica,sans-Serif" font-size="10.00">+</text>
<text text-anchor="start" x="721.5" y="-489.5" font-family="Helvetica,sans-Serif" font-size="10.00">char Symbol</text>
<text text-anchor="start" x="708.5" y="-474.5" font-family="Helvetica,sans-Serif" font-size="10.00">+</text>
<text text-anchor="start" x="721.5" y="-474.5" font-family="Helvetica,sans-Serif" font-size="10.00">ConsoleColor color</text>
<text text-anchor="start" x="708.5" y="-459.5" font-family="Helvetica,sans-Serif" font-size="10.00">+</text>
<text text-anchor="start" x="721.5" y="-459.5" font-family="Helvetica,sans-Serif" font-size="10.00">string GetDescription()</text>
<text text-anchor="start" x="708.5" y="-444.5" font-family="Helvetica,sans-Serif" font-size="10.00">+</text>
<text text-anchor="start" x="721.5" y="-444.5" font-family="Helvetica,sans-Serif" font-size="10.00">bool OnPickup(Player</text>
<text text-anchor="start" x="721.5" y="-433.5" font-family="Helvetica,sans-Serif" font-size="10.00"> player, Inventory inventory)</text>
<text text-anchor="start" x="708.5" y="-418.5" font-family="Helvetica,sans-Serif" font-size="10.00">+</text>
<text text-anchor="start" x="721.5" y="-418.5" font-family="Helvetica,sans-Serif" font-size="10.00">void OnDrop(Level level,</text>
<text text-anchor="start" x="721.5" y="-407.5" font-family="Helvetica,sans-Serif" font-size="10.00"> Player player)</text>
<polygon fill="#666666" stroke="#666666" points="704.5,-514.5 704.5,-514.5 865.5,-514.5 865.5,-514.5 704.5,-514.5"/>
<polygon fill="#666666" stroke="#666666" points="704.5,-469.5 704.5,-469.5 719.5,-469.5 719.5,-469.5 704.5,-469.5"/>
<polygon fill="#666666" stroke="#666666" points="719.5,-469.5 719.5,-469.5 865.5,-469.5 865.5,-469.5 719.5,-469.5"/>
<polygon fill="none" stroke="#666666" points="704,-401 704,-532 865,-532 865,-401 704,-401"/>
</a>
</g>
</g>
<!-- Node1&#45;&gt;Node9 -->
<g id="edge8_Node000001_Node000009" class="edge">
<title>Node1&#45;&gt;Node9</title>
<g id="a_edge8_Node000001_Node000009"><a xlink:title=" ">
<path fill="none" stroke="#63b8ff" d="M522.69,-604.6C574.69,-586.92 640.46,-561.79 695.5,-532 698.27,-530.5 701.05,-528.93 703.83,-527.3"/>
<polygon fill="none" stroke="#63b8ff" points="521.51,-601.3 513.15,-607.81 523.74,-607.94 521.51,-601.3"/>
</a>
</g>
</g>
<!-- Node5 -->
<g id="Node000005" class="node">
<title>Node5</title>
<g id="a_Node000005"><a xlink:href="classRpgGame_1_1Items_1_1Weapon.html" target="_top" xlink:title="Represents an abstract base class for all equippable weapons.">
<polygon fill="white" stroke="transparent" points="516,-365 349,-365 349,-141 516,-141 516,-365"/>
<text text-anchor="start" x="372.5" y="-353" font-family="Helvetica,sans-Serif" font-size="10.00">RpgGame.Items.Weapon</text>
<text text-anchor="start" x="353.5" y="-338" font-family="Helvetica,sans-Serif" font-size="10.00">+</text>
<text text-anchor="start" x="366.5" y="-338" font-family="Helvetica,sans-Serif" font-size="10.00">string Name</text>
<text text-anchor="start" x="353.5" y="-323" font-family="Helvetica,sans-Serif" font-size="10.00">+</text>
<text text-anchor="start" x="366.5" y="-323" font-family="Helvetica,sans-Serif" font-size="10.00">ConsoleColor color</text>
<text text-anchor="start" x="353.5" y="-308" font-family="Helvetica,sans-Serif" font-size="10.00">+</text>
<text text-anchor="start" x="366.5" y="-308" font-family="Helvetica,sans-Serif" font-size="10.00">char Symbol</text>
<text text-anchor="start" x="353.5" y="-293" font-family="Helvetica,sans-Serif" font-size="10.00">+</text>
<text text-anchor="start" x="366.5" y="-293" font-family="Helvetica,sans-Serif" font-size="10.00">int Damage</text>
<text text-anchor="start" x="353.5" y="-278" font-family="Helvetica,sans-Serif" font-size="10.00">+</text>
<text text-anchor="start" x="366.5" y="-278" font-family="Helvetica,sans-Serif" font-size="10.00">bool TryEquipToLeft</text>
<text text-anchor="start" x="366.5" y="-267" font-family="Helvetica,sans-Serif" font-size="10.00">(Player player)</text>
<text text-anchor="start" x="353.5" y="-252" font-family="Helvetica,sans-Serif" font-size="10.00">+</text>
<text text-anchor="start" x="366.5" y="-252" font-family="Helvetica,sans-Serif" font-size="10.00">bool TryEquipToRight</text>
<text text-anchor="start" x="366.5" y="-241" font-family="Helvetica,sans-Serif" font-size="10.00">(Player player)</text>
<text text-anchor="start" x="353.5" y="-226" font-family="Helvetica,sans-Serif" font-size="10.00">+</text>
<text text-anchor="start" x="366.5" y="-226" font-family="Helvetica,sans-Serif" font-size="10.00">virtual string GetDescription()</text>
<text text-anchor="start" x="353.5" y="-211" font-family="Helvetica,sans-Serif" font-size="10.00">+</text>
<text text-anchor="start" x="366.5" y="-211" font-family="Helvetica,sans-Serif" font-size="10.00">bool OnPickup(Player</text>
<text text-anchor="start" x="366.5" y="-200" font-family="Helvetica,sans-Serif" font-size="10.00"> player, Inventory inventory)</text>
<text text-anchor="start" x="353.5" y="-185" font-family="Helvetica,sans-Serif" font-size="10.00">+</text>
<text text-anchor="start" x="366.5" y="-185" font-family="Helvetica,sans-Serif" font-size="10.00">void OnDrop(Level level,</text>
<text text-anchor="start" x="366.5" y="-174" font-family="Helvetica,sans-Serif" font-size="10.00"> Player player)</text>
<text text-anchor="start" x="353.5" y="-159" font-family="Helvetica,sans-Serif" font-size="10.00">#</text>
<text text-anchor="start" x="366.5" y="-159" font-family="Helvetica,sans-Serif" font-size="10.00">Weapon(HandOccupation</text>
<text text-anchor="start" x="366.5" y="-148" font-family="Helvetica,sans-Serif" font-size="10.00"> occupation)</text>
<polygon fill="#666666" stroke="#666666" points="349.5,-348 349.5,-348 516.5,-348 516.5,-348 349.5,-348"/>
<polygon fill="#666666" stroke="#666666" points="349.5,-288 349.5,-288 364.5,-288 364.5,-288 349.5,-288"/>
<polygon fill="#666666" stroke="#666666" points="364.5,-288 364.5,-288 516.5,-288 516.5,-288 364.5,-288"/>
<polygon fill="none" stroke="#666666" points="349,-141 349,-365 516,-365 516,-141 349,-141"/>
</a>
</g>
</g>
<!-- Node4&#45;&gt;Node5 -->
<g id="edge4_Node000004_Node000005" class="edge">
<title>Node4&#45;&gt;Node5</title>
<g id="a_edge4_Node000004_Node000005"><a xlink:title=" ">
<path fill="none" stroke="#63b8ff" d="M432.5,-413.13C432.5,-398.46 432.5,-381.94 432.5,-365.23"/>
<polygon fill="none" stroke="#63b8ff" points="429,-413.46 432.5,-423.46 436,-413.46 429,-413.46"/>
</a>
</g>
</g>
<!-- Node6 -->
<g id="Node000006" class="node">
<title>Node6</title>
<g id="a_Node000006"><a xlink:href="classRpgGame_1_1Items_1_1DoubleSword.html" target="_top" xlink:title="Represents a powerful two&#45;handed sword weapon.">
<polygon fill="white" stroke="transparent" points="430,-105 273,-105 273,0 430,0 430,-105"/>
<text text-anchor="start" x="278.5" y="-92.5" font-family="Helvetica,sans-Serif" font-size="10.00">RpgGame.Items.DoubleSword</text>
<text text-anchor="start" x="284" y="-77.5" font-family="Helvetica,sans-Serif" font-size="10.00">+</text>
<text text-anchor="start" x="303.5" y="-77.5" font-family="Helvetica,sans-Serif" font-size="10.00">override string Name</text>
<text text-anchor="start" x="284" y="-62.5" font-family="Helvetica,sans-Serif" font-size="10.00">+</text>
<text text-anchor="start" x="303.5" y="-62.5" font-family="Helvetica,sans-Serif" font-size="10.00">override ConsoleColor</text>
<text text-anchor="start" x="303.5" y="-51.5" font-family="Helvetica,sans-Serif" font-size="10.00"> color</text>
<text text-anchor="start" x="284" y="-36.5" font-family="Helvetica,sans-Serif" font-size="10.00">+</text>
<text text-anchor="start" x="303.5" y="-36.5" font-family="Helvetica,sans-Serif" font-size="10.00">override char Symbol</text>
<text text-anchor="start" x="284" y="-21.5" font-family="Helvetica,sans-Serif" font-size="10.00">+</text>
<text text-anchor="start" x="303.5" y="-21.5" font-family="Helvetica,sans-Serif" font-size="10.00">override int Damage</text>
<text text-anchor="start" x="284" y="-6.5" font-family="Helvetica,sans-Serif" font-size="10.00">+</text>
<text text-anchor="start" x="303.5" y="-6.5" font-family="Helvetica,sans-Serif" font-size="10.00">DoubleSword()</text>
<polygon fill="#666666" stroke="#666666" points="273.5,-87.5 273.5,-87.5 430.5,-87.5 430.5,-87.5 273.5,-87.5"/>
<polygon fill="#666666" stroke="#666666" points="273.5,-16.5 273.5,-16.5 301.5,-16.5 301.5,-16.5 273.5,-16.5"/>
<polygon fill="#666666" stroke="#666666" points="301.5,-16.5 301.5,-16.5 430.5,-16.5 430.5,-16.5 301.5,-16.5"/>
<polygon fill="none" stroke="#666666" points="273,0 273,-105 430,-105 430,0 273,0"/>
</a>
</g>
</g>
<!-- Node5&#45;&gt;Node6 -->
<g id="edge5_Node000005_Node000006" class="edge">
<title>Node5&#45;&gt;Node6</title>
<g id="a_edge5_Node000005_Node000006"><a xlink:title=" ">
<path fill="none" stroke="#63b8ff" d="M383.26,-131.32C379.56,-122.25 375.96,-113.44 372.59,-105.19"/>
<polygon fill="none" stroke="#63b8ff" points="380.13,-132.92 387.15,-140.85 386.61,-130.27 380.13,-132.92"/>
</a>
</g>
</g>
<!-- Node7 -->
<g id="Node000007" class="node">
<title>Node7</title>
<g id="a_Node000007"><a xlink:href="classRpgGame_1_1Items_1_1Sword.html" target="_top" xlink:title="Represents a standard one&#45;handed sword weapon.">
<polygon fill="white" stroke="transparent" points="578.5,-105 448.5,-105 448.5,0 578.5,0 578.5,-105"/>
<text text-anchor="start" x="457.5" y="-92.5" font-family="Helvetica,sans-Serif" font-size="10.00">RpgGame.Items.Sword</text>
<text text-anchor="start" x="452.5" y="-77.5" font-family="Helvetica,sans-Serif" font-size="10.00">+</text>
<text text-anchor="start" x="465.5" y="-77.5" font-family="Helvetica,sans-Serif" font-size="10.00">override string Name</text>
<text text-anchor="start" x="452.5" y="-62.5" font-family="Helvetica,sans-Serif" font-size="10.00">+</text>
<text text-anchor="start" x="465.5" y="-62.5" font-family="Helvetica,sans-Serif" font-size="10.00">override ConsoleColor</text>
<text text-anchor="start" x="465.5" y="-51.5" font-family="Helvetica,sans-Serif" font-size="10.00"> color</text>
<text text-anchor="start" x="452.5" y="-36.5" font-family="Helvetica,sans-Serif" font-size="10.00">+</text>
<text text-anchor="start" x="465.5" y="-36.5" font-family="Helvetica,sans-Serif" font-size="10.00">override char Symbol</text>
<text text-anchor="start" x="452.5" y="-21.5" font-family="Helvetica,sans-Serif" font-size="10.00">+</text>
<text text-anchor="start" x="465.5" y="-21.5" font-family="Helvetica,sans-Serif" font-size="10.00">override int Damage</text>
<text text-anchor="start" x="452.5" y="-6.5" font-family="Helvetica,sans-Serif" font-size="10.00">+</text>
<text text-anchor="start" x="465.5" y="-6.5" font-family="Helvetica,sans-Serif" font-size="10.00">Sword()</text>
<polygon fill="#666666" stroke="#666666" points="448.5,-87.5 448.5,-87.5 578.5,-87.5 578.5,-87.5 448.5,-87.5"/>
<polygon fill="#666666" stroke="#666666" points="448.5,-16.5 448.5,-16.5 463.5,-16.5 463.5,-16.5 448.5,-16.5"/>
<polygon fill="#666666" stroke="#666666" points="463.5,-16.5 463.5,-16.5 578.5,-16.5 578.5,-16.5 463.5,-16.5"/>
<polygon fill="none" stroke="#666666" points="448.5,0 448.5,-105 578.5,-105 578.5,0 448.5,0"/>
</a>
</g>
</g>
<!-- Node5&#45;&gt;Node7 -->
<g id="edge6_Node000005_Node000007" class="edge">
<title>Node5&#45;&gt;Node7</title>
<g id="a_edge6_Node000005_Node000007"><a xlink:title=" ">
<path fill="none" stroke="#63b8ff" d="M481.74,-131.32C485.44,-122.25 489.04,-113.44 492.41,-105.19"/>
<polygon fill="none" stroke="#63b8ff" points="478.39,-130.27 477.85,-140.85 484.87,-132.92 478.39,-130.27"/>
</a>
</g>
</g>
</g>
</svg>

<g id="navigator" transform="translate(0 0)" fill="#404254">
  <rect fill="#f2f5e9" fill-opacity="0.5" stroke="#606060" stroke-width=".5" x="0" y="0" width="60" height="60"/>
  <use id="zoomplus" xlink:href="#zoomPlus" x="17" y="9" onmousedown="handleZoom(evt,'in')"/>
  <use id="zoomminus" xlink:href="#zoomMin" x="42" y="9" onmousedown="handleZoom(evt,'out')"/>
  <use id="reset" xlink:href="#resetDef" x="30" y="36" onmousedown="handleReset()"/>
   <use id="arrowup" xlink:href="#arrowUp" x="0" y="0" onmousedown="handlePan(0,-1)"/>
  <use id="arrowright" xlink:href="#arrowRight" x="0" y="0" onmousedown="handlePan(1,0)"/>
  <use id="arrowdown" xlink:href="#arrowDown" x="0" y="0" onmousedown="handlePan(0,1)"/>
  <use id="arrowleft" xlink:href="#arrowLeft" x="0" y="0" onmousedown="handlePan(-1,0)"/>
</g>
<svg viewBox="0 0 15 15" width="100%" height="30px" preserveAspectRatio="xMaxYMin meet">
 <g id="arrow_out" transform="scale(0.3 0.3)">
  <a xlink:href="interfaceRpgGame_1_1Items_1_1IItem__inherit__graph_org.svg" target="_base">
   <rect id="button" ry="5" rx="5" y="6" x="6" height="38" width="38"
        fill="#f2f5e9" fill-opacity="0.5" stroke="#606060" stroke-width="1.0"/>
   <path id="arrow"
     d="M 11.500037,31.436501 C 11.940474,20.09759 22.043105,11.32322 32.158766,21.979434 L 37.068811,17.246167 C 37.068811,17.246167 37.088388,32 37.088388,32 L 22.160133,31.978069 C 22.160133,31.978069 26.997745,27.140456 26.997745,27.140456 C 18.528582,18.264221 13.291696,25.230495 11.500037,31.436501 z"
     style="fill:#404040;"/>
  </a>
 </g>
</svg>

<style type='text/css'>
<![CDATA[
[data-mouse-over-selected='false'] { opacity: 0.7; }
[data-mouse-over-selected='true']  { opacity: 1.0; }
]]>
</style>
<script type="application/ecmascript"><![CDATA[
document.addEventListener('DOMContentLoaded', (event) => {
  highlightEdges();
  highlightAdjacentNodes();
});
]]></script>
</svg>
