<?xml version="1.0" encoding="UTF-8" standalone="no"?>
<!DOCTYPE svg PUBLIC "-//W3C//DTD SVG 1.1//EN"
 "http://www.w3.org/Graphics/SVG/1.1/DTD/svg11.dtd">
<!-- Generated by graphviz version 13.1.2 (20250808.2320)
 -->
<!-- Title: RpgGame.Items.IItem Pages: 1 -->
<svg width="519pt" height="687pt"
 viewBox="0.00 0.00 519.00 687.00" xmlns="http://www.w3.org/2000/svg" xmlns:xlink="http://www.w3.org/1999/xlink">
<g id="graph0" class="graph" transform="scale(1 1) rotate(0) translate(4 682.5)">
<title>RpgGame.Items.IItem</title>
<!-- Node1 -->
<g id="Node000001" class="node">
<title>Node1</title>
<g id="a_Node000001"><a xlink:title="Defines the contract for all items that can exist within the game world.">
<polygon fill="#999999" stroke="none" points="295.75,-678.5 157,-678.5 157,-552 295.75,-552 295.75,-678.5"/>
<text xml:space="preserve" text-anchor="start" x="177.25" y="-665" font-family="Helvetica,sans-Serif" font-size="10.00">RpgGame.Items.IItem</text>
<text xml:space="preserve" text-anchor="start" x="161" y="-650.5" font-family="Helvetica,sans-Serif" font-size="10.00">+</text>
<text xml:space="preserve" text-anchor="start" x="171" y="-650.5" font-family="Helvetica,sans-Serif" font-size="10.00">string Name</text>
<text xml:space="preserve" text-anchor="start" x="161" y="-636" font-family="Helvetica,sans-Serif" font-size="10.00">+</text>
<text xml:space="preserve" text-anchor="start" x="171" y="-636" font-family="Helvetica,sans-Serif" font-size="10.00">char Symbol</text>
<text xml:space="preserve" text-anchor="start" x="161" y="-621.5" font-family="Helvetica,sans-Serif" font-size="10.00">+</text>
<text xml:space="preserve" text-anchor="start" x="171" y="-621.5" font-family="Helvetica,sans-Serif" font-size="10.00">ConsoleColor color</text>
<text xml:space="preserve" text-anchor="start" x="161" y="-607" font-family="Helvetica,sans-Serif" font-size="10.00">+</text>
<text xml:space="preserve" text-anchor="start" x="171" y="-607" font-family="Helvetica,sans-Serif" font-size="10.00">string GetDescription()</text>
<text xml:space="preserve" text-anchor="start" x="161" y="-592.5" font-family="Helvetica,sans-Serif" font-size="10.00">+</text>
<text xml:space="preserve" text-anchor="start" x="171" y="-592.5" font-family="Helvetica,sans-Serif" font-size="10.00">bool OnPickup(Player</text>
<text xml:space="preserve" text-anchor="start" x="171" y="-582" font-family="Helvetica,sans-Serif" font-size="10.00"> player, Inventory inventory)</text>
<text xml:space="preserve" text-anchor="start" x="161" y="-567.5" font-family="Helvetica,sans-Serif" font-size="10.00">+</text>
<text xml:space="preserve" text-anchor="start" x="171" y="-567.5" font-family="Helvetica,sans-Serif" font-size="10.00">void OnDrop(Level level,</text>
<text xml:space="preserve" text-anchor="start" x="171" y="-557" font-family="Helvetica,sans-Serif" font-size="10.00"> Player player)</text>
<polygon fill="#666666" stroke="#666666" points="157,-662 157,-662 295.75,-662 295.75,-662 157,-662"/>
<polygon fill="#666666" stroke="#666666" points="157,-618.5 157,-618.5 169,-618.5 169,-618.5 157,-618.5"/>
<polygon fill="#666666" stroke="#666666" points="169,-618.5 169,-618.5 295.75,-618.5 295.75,-618.5 169,-618.5"/>
<polygon fill="none" stroke="#666666" points="157,-552 157,-678.5 295.75,-678.5 295.75,-552 157,-552"/>
</a>
</g>
</g>
<!-- Node2 -->
<g id="Node000002" class="node">
<title>Node2</title>
<g id="a_Node000002"><a xlink:href="classRpgGame_1_1Items_1_1Coin.html" target="_top" xlink:title="Represents a coin item that increases the player&#39;s currency when picked up.">
<polygon fill="white" stroke="none" points="138.75,-516 0,-516 0,-389.5 138.75,-389.5 138.75,-516"/>
<text xml:space="preserve" text-anchor="start" x="21.38" y="-502.5" font-family="Helvetica,sans-Serif" font-size="10.00">RpgGame.Items.Coin</text>
<text xml:space="preserve" text-anchor="start" x="4" y="-488" font-family="Helvetica,sans-Serif" font-size="10.00">+</text>
<text xml:space="preserve" text-anchor="start" x="14" y="-488" font-family="Helvetica,sans-Serif" font-size="10.00">string Name</text>
<text xml:space="preserve" text-anchor="start" x="4" y="-473.5" font-family="Helvetica,sans-Serif" font-size="10.00">+</text>
<text xml:space="preserve" text-anchor="start" x="14" y="-473.5" font-family="Helvetica,sans-Serif" font-size="10.00">char Symbol</text>
<text xml:space="preserve" text-anchor="start" x="4" y="-459" font-family="Helvetica,sans-Serif" font-size="10.00">+</text>
<text xml:space="preserve" text-anchor="start" x="14" y="-459" font-family="Helvetica,sans-Serif" font-size="10.00">ConsoleColor color</text>
<text xml:space="preserve" text-anchor="start" x="4" y="-444.5" font-family="Helvetica,sans-Serif" font-size="10.00">+</text>
<text xml:space="preserve" text-anchor="start" x="14" y="-444.5" font-family="Helvetica,sans-Serif" font-size="10.00">string GetDescription()</text>
<text xml:space="preserve" text-anchor="start" x="4" y="-430" font-family="Helvetica,sans-Serif" font-size="10.00">+</text>
<text xml:space="preserve" text-anchor="start" x="14" y="-430" font-family="Helvetica,sans-Serif" font-size="10.00">bool OnPickup(Player</text>
<text xml:space="preserve" text-anchor="start" x="14" y="-419.5" font-family="Helvetica,sans-Serif" font-size="10.00"> player, Inventory inventory)</text>
<text xml:space="preserve" text-anchor="start" x="4" y="-405" font-family="Helvetica,sans-Serif" font-size="10.00">+</text>
<text xml:space="preserve" text-anchor="start" x="14" y="-405" font-family="Helvetica,sans-Serif" font-size="10.00">void OnDrop(Level level,</text>
<text xml:space="preserve" text-anchor="start" x="14" y="-394.5" font-family="Helvetica,sans-Serif" font-size="10.00"> Player player)</text>
<polygon fill="#666666" stroke="#666666" points="0,-499.5 0,-499.5 138.75,-499.5 138.75,-499.5 0,-499.5"/>
<polygon fill="#666666" stroke="#666666" points="0,-456 0,-456 12,-456 12,-456 0,-456"/>
<polygon fill="#666666" stroke="#666666" points="12,-456 12,-456 138.75,-456 138.75,-456 12,-456"/>
<polygon fill="none" stroke="#666666" points="0,-389.5 0,-516 138.75,-516 138.75,-389.5 0,-389.5"/>
</a>
</g>
</g>
<!-- Node1&#45;&gt;Node2 -->
<g id="edge1_Node000001_Node000002" class="edge">
<title>Node1&#45;&gt;Node2</title>
<g id="a_edge1_Node000001_Node000002"><a xlink:title=" ">
<path fill="none" stroke="#63b8ff" d="M157.68,-544.03C148.53,-534.66 139.18,-525.12 130.17,-515.9"/>
<polygon fill="none" stroke="#63b8ff" points="155.12,-546.41 164.62,-551.11 160.13,-541.52 155.12,-546.41"/>
</a>
</g>
</g>
<!-- Node3 -->
<g id="Node000003" class="node">
<title>Node3</title>
<g id="a_Node000003"><a xlink:href="classRpgGame_1_1Items_1_1Gold.html" target="_top" xlink:title="Represents a gold item that increases the player&#39;s gold currency when picked up.">
<polygon fill="white" stroke="none" points="295.75,-516 157,-516 157,-389.5 295.75,-389.5 295.75,-516"/>
<text xml:space="preserve" text-anchor="start" x="178.38" y="-502.5" font-family="Helvetica,sans-Serif" font-size="10.00">RpgGame.Items.Gold</text>
<text xml:space="preserve" text-anchor="start" x="161" y="-488" font-family="Helvetica,sans-Serif" font-size="10.00">+</text>
<text xml:space="preserve" text-anchor="start" x="171" y="-488" font-family="Helvetica,sans-Serif" font-size="10.00">string Name</text>
<text xml:space="preserve" text-anchor="start" x="161" y="-473.5" font-family="Helvetica,sans-Serif" font-size="10.00">+</text>
<text xml:space="preserve" text-anchor="start" x="171" y="-473.5" font-family="Helvetica,sans-Serif" font-size="10.00">char Symbol</text>
<text xml:space="preserve" text-anchor="start" x="161" y="-459" font-family="Helvetica,sans-Serif" font-size="10.00">+</text>
<text xml:space="preserve" text-anchor="start" x="171" y="-459" font-family="Helvetica,sans-Serif" font-size="10.00">ConsoleColor color</text>
<text xml:space="preserve" text-anchor="start" x="161" y="-444.5" font-family="Helvetica,sans-Serif" font-size="10.00">+</text>
<text xml:space="preserve" text-anchor="start" x="171" y="-444.5" font-family="Helvetica,sans-Serif" font-size="10.00">string GetDescription()</text>
<text xml:space="preserve" text-anchor="start" x="161" y="-430" font-family="Helvetica,sans-Serif" font-size="10.00">+</text>
<text xml:space="preserve" text-anchor="start" x="171" y="-430" font-family="Helvetica,sans-Serif" font-size="10.00">bool OnPickup(Player</text>
<text xml:space="preserve" text-anchor="start" x="171" y="-419.5" font-family="Helvetica,sans-Serif" font-size="10.00"> player, Inventory inventory)</text>
<text xml:space="preserve" text-anchor="start" x="161" y="-405" font-family="Helvetica,sans-Serif" font-size="10.00">+</text>
<text xml:space="preserve" text-anchor="start" x="171" y="-405" font-family="Helvetica,sans-Serif" font-size="10.00">void OnDrop(Level level,</text>
<text xml:space="preserve" text-anchor="start" x="171" y="-394.5" font-family="Helvetica,sans-Serif" font-size="10.00"> Player player)</text>
<polygon fill="#666666" stroke="#666666" points="157,-499.5 157,-499.5 295.75,-499.5 295.75,-499.5 157,-499.5"/>
<polygon fill="#666666" stroke="#666666" points="157,-456 157,-456 169,-456 169,-456 157,-456"/>
<polygon fill="#666666" stroke="#666666" points="169,-456 169,-456 295.75,-456 295.75,-456 169,-456"/>
<polygon fill="none" stroke="#666666" points="157,-389.5 157,-516 295.75,-516 295.75,-389.5 157,-389.5"/>
</a>
</g>
</g>
<!-- Node1&#45;&gt;Node3 -->
<g id="edge2_Node000001_Node000003" class="edge">
<title>Node1&#45;&gt;Node3</title>
<g id="a_edge2_Node000001_Node000003"><a xlink:title=" ">
<path fill="none" stroke="#63b8ff" d="M226.38,-540.9C226.38,-532.55 226.38,-524.09 226.38,-515.9"/>
<polygon fill="none" stroke="#63b8ff" points="222.88,-540.68 226.38,-550.68 229.88,-540.68 222.88,-540.68"/>
</a>
</g>
</g>
<!-- Node4 -->
<g id="Node000004" class="node">
<title>Node4</title>
<g id="a_Node000004"><a xlink:href="interfaceRpgGame_1_1Items_1_1IEquippable.html" target="_top" xlink:title="Represents an item that can be equipped by the player.">
<polygon fill="white" stroke="none" points="448.75,-494.25 314,-494.25 314,-411.25 448.75,-411.25 448.75,-494.25"/>
<text xml:space="preserve" text-anchor="start" x="318" y="-480.75" font-family="Helvetica,sans-Serif" font-size="10.00">RpgGame.Items.IEquippable</text>
<text xml:space="preserve" text-anchor="start" x="379.88" y="-466.25" font-family="Helvetica,sans-Serif" font-size="10.00"> </text>
<text xml:space="preserve" text-anchor="start" x="323.75" y="-451.75" font-family="Helvetica,sans-Serif" font-size="10.00">+</text>
<text xml:space="preserve" text-anchor="start" x="339.5" y="-451.75" font-family="Helvetica,sans-Serif" font-size="10.00">bool TryEquipToLeft</text>
<text xml:space="preserve" text-anchor="start" x="339.5" y="-441.25" font-family="Helvetica,sans-Serif" font-size="10.00">(Player player)</text>
<text xml:space="preserve" text-anchor="start" x="323.75" y="-426.75" font-family="Helvetica,sans-Serif" font-size="10.00">+</text>
<text xml:space="preserve" text-anchor="start" x="339.5" y="-426.75" font-family="Helvetica,sans-Serif" font-size="10.00">bool TryEquipToRight</text>
<text xml:space="preserve" text-anchor="start" x="339.5" y="-416.25" font-family="Helvetica,sans-Serif" font-size="10.00">(Player player)</text>
<polygon fill="#666666" stroke="#666666" points="314,-477.75 314,-477.75 448.75,-477.75 448.75,-477.75 314,-477.75"/>
<polygon fill="#666666" stroke="#666666" points="314,-463.25 314,-463.25 448.75,-463.25 448.75,-463.25 314,-463.25"/>
<polygon fill="none" stroke="#666666" points="314,-411.25 314,-494.25 448.75,-494.25 448.75,-411.25 314,-411.25"/>
</a>
</g>
</g>
<!-- Node1&#45;&gt;Node4 -->
<g id="edge3_Node000001_Node000004" class="edge">
<title>Node1&#45;&gt;Node4</title>
<g id="a_edge3_Node000001_Node000004"><a xlink:title=" ">
<path fill="none" stroke="#63b8ff" d="M293.9,-544.32C310.57,-527.07 327.86,-509.16 342.63,-493.87"/>
<polygon fill="none" stroke="#63b8ff" points="291.78,-541.48 287.35,-551.11 296.82,-546.35 291.78,-541.48"/>
</a>
</g>
</g>
<!-- Node5 -->
<g id="Node000005" class="node">
<title>Node5</title>
<g id="a_Node000005"><a xlink:href="classRpgGame_1_1Items_1_1Weapon.html" target="_top" xlink:title="Represents an abstract base class for all equippable weapons.">
<polygon fill="white" stroke="none" points="454.5,-353.5 308.25,-353.5 308.25,-137.5 454.5,-137.5 454.5,-353.5"/>
<text xml:space="preserve" text-anchor="start" x="325.88" y="-340" font-family="Helvetica,sans-Serif" font-size="10.00">RpgGame.Items.Weapon</text>
<text xml:space="preserve" text-anchor="start" x="312.25" y="-325.5" font-family="Helvetica,sans-Serif" font-size="10.00">+</text>
<text xml:space="preserve" text-anchor="start" x="322.25" y="-325.5" font-family="Helvetica,sans-Serif" font-size="10.00">string Name</text>
<text xml:space="preserve" text-anchor="start" x="312.25" y="-311" font-family="Helvetica,sans-Serif" font-size="10.00">+</text>
<text xml:space="preserve" text-anchor="start" x="322.25" y="-311" font-family="Helvetica,sans-Serif" font-size="10.00">ConsoleColor color</text>
<text xml:space="preserve" text-anchor="start" x="312.25" y="-296.5" font-family="Helvetica,sans-Serif" font-size="10.00">+</text>
<text xml:space="preserve" text-anchor="start" x="322.25" y="-296.5" font-family="Helvetica,sans-Serif" font-size="10.00">char Symbol</text>
<text xml:space="preserve" text-anchor="start" x="312.25" y="-282" font-family="Helvetica,sans-Serif" font-size="10.00">+</text>
<text xml:space="preserve" text-anchor="start" x="322.25" y="-282" font-family="Helvetica,sans-Serif" font-size="10.00">int Damage</text>
<text xml:space="preserve" text-anchor="start" x="312.25" y="-267.5" font-family="Helvetica,sans-Serif" font-size="10.00">+</text>
<text xml:space="preserve" text-anchor="start" x="322.25" y="-267.5" font-family="Helvetica,sans-Serif" font-size="10.00">bool TryEquipToLeft</text>
<text xml:space="preserve" text-anchor="start" x="322.25" y="-257" font-family="Helvetica,sans-Serif" font-size="10.00">(Player player)</text>
<text xml:space="preserve" text-anchor="start" x="312.25" y="-242.5" font-family="Helvetica,sans-Serif" font-size="10.00">+</text>
<text xml:space="preserve" text-anchor="start" x="322.25" y="-242.5" font-family="Helvetica,sans-Serif" font-size="10.00">bool TryEquipToRight</text>
<text xml:space="preserve" text-anchor="start" x="322.25" y="-232" font-family="Helvetica,sans-Serif" font-size="10.00">(Player player)</text>
<text xml:space="preserve" text-anchor="start" x="312.25" y="-217.5" font-family="Helvetica,sans-Serif" font-size="10.00">+</text>
<text xml:space="preserve" text-anchor="start" x="322.25" y="-217.5" font-family="Helvetica,sans-Serif" font-size="10.00">virtual string GetDescription()</text>
<text xml:space="preserve" text-anchor="start" x="312.25" y="-203" font-family="Helvetica,sans-Serif" font-size="10.00">+</text>
<text xml:space="preserve" text-anchor="start" x="322.25" y="-203" font-family="Helvetica,sans-Serif" font-size="10.00">bool OnPickup(Player</text>
<text xml:space="preserve" text-anchor="start" x="322.25" y="-192.5" font-family="Helvetica,sans-Serif" font-size="10.00"> player, Inventory inventory)</text>
<text xml:space="preserve" text-anchor="start" x="312.25" y="-178" font-family="Helvetica,sans-Serif" font-size="10.00">+</text>
<text xml:space="preserve" text-anchor="start" x="322.25" y="-178" font-family="Helvetica,sans-Serif" font-size="10.00">void OnDrop(Level level,</text>
<text xml:space="preserve" text-anchor="start" x="322.25" y="-167.5" font-family="Helvetica,sans-Serif" font-size="10.00"> Player player)</text>
<text xml:space="preserve" text-anchor="start" x="312.62" y="-153" font-family="Helvetica,sans-Serif" font-size="10.00">#</text>
<text xml:space="preserve" text-anchor="start" x="322.25" y="-153" font-family="Helvetica,sans-Serif" font-size="10.00">Weapon(HandOccupation</text>
<text xml:space="preserve" text-anchor="start" x="322.25" y="-142.5" font-family="Helvetica,sans-Serif" font-size="10.00"> occupation)</text>
<polygon fill="#666666" stroke="#666666" points="308.25,-337 308.25,-337 454.5,-337 454.5,-337 308.25,-337"/>
<polygon fill="#666666" stroke="#666666" points="308.25,-279 308.25,-279 320.25,-279 320.25,-279 308.25,-279"/>
<polygon fill="#666666" stroke="#666666" points="320.25,-279 320.25,-279 454.5,-279 454.5,-279 320.25,-279"/>
<polygon fill="none" stroke="#666666" points="308.25,-137.5 308.25,-353.5 454.5,-353.5 454.5,-137.5 308.25,-137.5"/>
</a>
</g>
</g>
<!-- Node4&#45;&gt;Node5 -->
<g id="edge4_Node000004_Node000005" class="edge">
<title>Node4&#45;&gt;Node5</title>
<g id="a_edge4_Node000004_Node000005"><a xlink:title=" ">
<path fill="none" stroke="#63b8ff" d="M381.38,-400.53C381.38,-386.08 381.38,-369.8 381.38,-353.37"/>
<polygon fill="none" stroke="#63b8ff" points="377.88,-400.17 381.38,-410.17 384.88,-400.17 377.88,-400.17"/>
</a>
</g>
</g>
<!-- Node6 -->
<g id="Node000006" class="node">
<title>Node6</title>
<g id="a_Node000006"><a xlink:href="classRpgGame_1_1Items_1_1DoubleSword.html" target="_top" xlink:title="Represents a powerful two&#45;handed sword weapon.">
<polygon fill="white" stroke="none" points="379.12,-101.5 237.62,-101.5 237.62,0 379.12,0 379.12,-101.5"/>
<text xml:space="preserve" text-anchor="start" x="241.62" y="-88" font-family="Helvetica,sans-Serif" font-size="10.00">RpgGame.Items.DoubleSword</text>
<text xml:space="preserve" text-anchor="start" x="248.5" y="-73.5" font-family="Helvetica,sans-Serif" font-size="10.00">+</text>
<text xml:space="preserve" text-anchor="start" x="265.38" y="-73.5" font-family="Helvetica,sans-Serif" font-size="10.00">override string Name</text>
<text xml:space="preserve" text-anchor="start" x="248.5" y="-59" font-family="Helvetica,sans-Serif" font-size="10.00">+</text>
<text xml:space="preserve" text-anchor="start" x="265.38" y="-59" font-family="Helvetica,sans-Serif" font-size="10.00">override ConsoleColor</text>
<text xml:space="preserve" text-anchor="start" x="265.38" y="-48.5" font-family="Helvetica,sans-Serif" font-size="10.00"> color</text>
<text xml:space="preserve" text-anchor="start" x="248.5" y="-34" font-family="Helvetica,sans-Serif" font-size="10.00">+</text>
<text xml:space="preserve" text-anchor="start" x="265.38" y="-34" font-family="Helvetica,sans-Serif" font-size="10.00">override char Symbol</text>
<text xml:space="preserve" text-anchor="start" x="248.5" y="-19.5" font-family="Helvetica,sans-Serif" font-size="10.00">+</text>
<text xml:space="preserve" text-anchor="start" x="265.38" y="-19.5" font-family="Helvetica,sans-Serif" font-size="10.00">override int Damage</text>
<text xml:space="preserve" text-anchor="start" x="248.5" y="-5" font-family="Helvetica,sans-Serif" font-size="10.00">+</text>
<text xml:space="preserve" text-anchor="start" x="265.38" y="-5" font-family="Helvetica,sans-Serif" font-size="10.00">DoubleSword()</text>
<polygon fill="#666666" stroke="#666666" points="237.62,-85 237.62,-85 379.12,-85 379.12,-85 237.62,-85"/>
<polygon fill="#666666" stroke="#666666" points="237.62,-16.5 237.62,-16.5 263.38,-16.5 263.38,-16.5 237.62,-16.5"/>
<polygon fill="#666666" stroke="#666666" points="263.38,-16.5 263.38,-16.5 379.12,-16.5 379.12,-16.5 263.38,-16.5"/>
<polygon fill="none" stroke="#666666" points="237.62,0 237.62,-101.5 379.12,-101.5 379.12,0 237.62,0"/>
</a>
</g>
</g>
<!-- Node5&#45;&gt;Node6 -->
<g id="edge5_Node000005_Node000006" class="edge">
<title>Node5&#45;&gt;Node6</title>
<g id="a_edge5_Node000005_Node000006"><a xlink:title=" ">
<path fill="none" stroke="#63b8ff" d="M336.9,-127.07C333.51,-118.11 330.21,-109.4 327.13,-101.28"/>
<polygon fill="none" stroke="#63b8ff" points="333.57,-128.17 340.39,-136.28 340.12,-125.69 333.57,-128.17"/>
</a>
</g>
</g>
<!-- Node7 -->
<g id="Node000007" class="node">
<title>Node7</title>
<g id="a_Node000007"><a xlink:href="classRpgGame_1_1Items_1_1Sword.html" target="_top" xlink:title="Represents a standard one&#45;handed sword weapon.">
<polygon fill="white" stroke="none" points="511.38,-101.5 397.38,-101.5 397.38,0 511.38,0 511.38,-101.5"/>
<text xml:space="preserve" text-anchor="start" x="403" y="-88" font-family="Helvetica,sans-Serif" font-size="10.00">RpgGame.Items.Sword</text>
<text xml:space="preserve" text-anchor="start" x="401.38" y="-73.5" font-family="Helvetica,sans-Serif" font-size="10.00">+</text>
<text xml:space="preserve" text-anchor="start" x="411.38" y="-73.5" font-family="Helvetica,sans-Serif" font-size="10.00">override string Name</text>
<text xml:space="preserve" text-anchor="start" x="401.38" y="-59" font-family="Helvetica,sans-Serif" font-size="10.00">+</text>
<text xml:space="preserve" text-anchor="start" x="411.38" y="-59" font-family="Helvetica,sans-Serif" font-size="10.00">override ConsoleColor</text>
<text xml:space="preserve" text-anchor="start" x="411.38" y="-48.5" font-family="Helvetica,sans-Serif" font-size="10.00"> color</text>
<text xml:space="preserve" text-anchor="start" x="401.38" y="-34" font-family="Helvetica,sans-Serif" font-size="10.00">+</text>
<text xml:space="preserve" text-anchor="start" x="411.38" y="-34" font-family="Helvetica,sans-Serif" font-size="10.00">override char Symbol</text>
<text xml:space="preserve" text-anchor="start" x="401.38" y="-19.5" font-family="Helvetica,sans-Serif" font-size="10.00">+</text>
<text xml:space="preserve" text-anchor="start" x="411.38" y="-19.5" font-family="Helvetica,sans-Serif" font-size="10.00">override int Damage</text>
<text xml:space="preserve" text-anchor="start" x="401.38" y="-5" font-family="Helvetica,sans-Serif" font-size="10.00">+</text>
<text xml:space="preserve" text-anchor="start" x="411.38" y="-5" font-family="Helvetica,sans-Serif" font-size="10.00">Sword()</text>
<polygon fill="#666666" stroke="#666666" points="397.38,-85 397.38,-85 511.38,-85 511.38,-85 397.38,-85"/>
<polygon fill="#666666" stroke="#666666" points="397.38,-16.5 397.38,-16.5 409.38,-16.5 409.38,-16.5 397.38,-16.5"/>
<polygon fill="#666666" stroke="#666666" points="409.38,-16.5 409.38,-16.5 511.38,-16.5 511.38,-16.5 409.38,-16.5"/>
<polygon fill="none" stroke="#666666" points="397.38,0 397.38,-101.5 511.38,-101.5 511.38,0 397.38,0"/>
</a>
</g>
</g>
<!-- Node5&#45;&gt;Node7 -->
<g id="edge6_Node000005_Node000007" class="edge">
<title>Node5&#45;&gt;Node7</title>
<g id="a_edge6_Node000005_Node000007"><a xlink:title=" ">
<path fill="none" stroke="#63b8ff" d="M425.85,-127.07C429.24,-118.11 432.54,-109.4 435.62,-101.28"/>
<polygon fill="none" stroke="#63b8ff" points="422.63,-125.69 422.36,-136.28 429.18,-128.17 422.63,-125.69"/>
</a>
</g>
</g>
</g>
</svg>
