<?xml version="1.0" encoding="UTF-8" standalone="no"?>
<!DOCTYPE svg PUBLIC "-//W3C//DTD SVG 1.1//EN"
 "http://www.w3.org/Graphics/SVG/1.1/DTD/svg11.dtd">
<!-- Generated by graphviz version 2.43.0 (0)
 -->
<!-- Title: RpgGame.Logger.ILogSink Pages: 1 -->
<svg width="588pt" height="380pt"
 viewBox="0.00 0.00 588.00 380.00" xmlns="http://www.w3.org/2000/svg" xmlns:xlink="http://www.w3.org/1999/xlink">
<g id="graph0" class="graph" transform="scale(1 1) rotate(0) translate(4 376)">
<title>RpgGame.Logger.ILogSink</title>
<!-- Node1 -->
<g id="Node000001" class="node">
<title>Node1</title>
<g id="a_Node000001"><a xlink:title="Contract for log storage backends used by the game.">
<polygon fill="#999999" stroke="transparent" points="361,-372 216,-372 216,-241 361,-241 361,-372"/>
<text text-anchor="start" x="225" y="-359.5" font-family="Helvetica,sans-Serif" font-size="10.00">RpgGame.Logger.ILogSink</text>
<text text-anchor="start" x="287" y="-344.5" font-family="Helvetica,sans-Serif" font-size="10.00"> </text>
<text text-anchor="start" x="220.5" y="-329.5" font-family="Helvetica,sans-Serif" font-size="10.00">+</text>
<text text-anchor="start" x="233.5" y="-329.5" font-family="Helvetica,sans-Serif" font-size="10.00">void Log(LogEntry entry)</text>
<text text-anchor="start" x="220.5" y="-314.5" font-family="Helvetica,sans-Serif" font-size="10.00">+</text>
<text text-anchor="start" x="233.5" y="-314.5" font-family="Helvetica,sans-Serif" font-size="10.00">void Log(string message)</text>
<text text-anchor="start" x="220.5" y="-299.5" font-family="Helvetica,sans-Serif" font-size="10.00">+</text>
<text text-anchor="start" x="233.5" y="-299.5" font-family="Helvetica,sans-Serif" font-size="10.00">IReadOnlyList&lt; LogEntry</text>
<text text-anchor="start" x="233.5" y="-288.5" font-family="Helvetica,sans-Serif" font-size="10.00"> &gt; GetRecent(int count)</text>
<text text-anchor="start" x="220.5" y="-273.5" font-family="Helvetica,sans-Serif" font-size="10.00">+</text>
<text text-anchor="start" x="233.5" y="-273.5" font-family="Helvetica,sans-Serif" font-size="10.00">IReadOnlyList&lt; LogEntry</text>
<text text-anchor="start" x="233.5" y="-262.5" font-family="Helvetica,sans-Serif" font-size="10.00"> &gt; GetAll()</text>
<text text-anchor="start" x="220.5" y="-247.5" font-family="Helvetica,sans-Serif" font-size="10.00">+</text>
<text text-anchor="start" x="233.5" y="-247.5" font-family="Helvetica,sans-Serif" font-size="10.00">void Flush()</text>
<polygon fill="#666666" stroke="#666666" points="216.5,-354.5 216.5,-354.5 361.5,-354.5 361.5,-354.5 216.5,-354.5"/>
<polygon fill="#666666" stroke="#666666" points="216.5,-339.5 216.5,-339.5 361.5,-339.5 361.5,-339.5 216.5,-339.5"/>
<polygon fill="none" stroke="#666666" points="216,-241 216,-372 361,-372 361,-241 216,-241"/>
</a>
</g>
</g>
<!-- Node2 -->
<g id="Node000002" class="node">
<title>Node2</title>
<g id="a_Node000002"><a xlink:href="classRpgGame_1_1Logger_1_1BufferedJournalLogSink.html" target="_top" xlink:title="Keeps all entries in memory and periodically flushes pending items to file.">
<polygon fill="white" stroke="transparent" points="181,-205 0,-205 0,0 181,0 181,-205"/>
<text text-anchor="start" x="10" y="-192.5" font-family="Helvetica,sans-Serif" font-size="10.00">RpgGame.Logger.BufferedJournal</text>
<text text-anchor="start" x="71.5" y="-181.5" font-family="Helvetica,sans-Serif" font-size="10.00">LogSink</text>
<text text-anchor="start" x="4.5" y="-166.5" font-family="Helvetica,sans-Serif" font-size="10.00">+</text>
<text text-anchor="start" x="17.5" y="-166.5" font-family="Helvetica,sans-Serif" font-size="10.00">string FilePath</text>
<text text-anchor="start" x="4.5" y="-151.5" font-family="Helvetica,sans-Serif" font-size="10.00">+</text>
<text text-anchor="start" x="17.5" y="-151.5" font-family="Helvetica,sans-Serif" font-size="10.00">BufferedJournalLogSink</text>
<text text-anchor="start" x="17.5" y="-140.5" font-family="Helvetica,sans-Serif" font-size="10.00">(InMemoryLogSink memorySink,</text>
<text text-anchor="start" x="17.5" y="-129.5" font-family="Helvetica,sans-Serif" font-size="10.00"> FileLogSink fileSink, int</text>
<text text-anchor="start" x="17.5" y="-118.5" font-family="Helvetica,sans-Serif" font-size="10.00"> flushEveryNFrames)</text>
<text text-anchor="start" x="4.5" y="-103.5" font-family="Helvetica,sans-Serif" font-size="10.00">+</text>
<text text-anchor="start" x="17.5" y="-103.5" font-family="Helvetica,sans-Serif" font-size="10.00">void Log(LogEntry entry)</text>
<text text-anchor="start" x="4.5" y="-88.5" font-family="Helvetica,sans-Serif" font-size="10.00">+</text>
<text text-anchor="start" x="17.5" y="-88.5" font-family="Helvetica,sans-Serif" font-size="10.00">void Log(string message)</text>
<text text-anchor="start" x="4.5" y="-73.5" font-family="Helvetica,sans-Serif" font-size="10.00">+</text>
<text text-anchor="start" x="17.5" y="-73.5" font-family="Helvetica,sans-Serif" font-size="10.00">IReadOnlyList&lt; LogEntry</text>
<text text-anchor="start" x="17.5" y="-62.5" font-family="Helvetica,sans-Serif" font-size="10.00"> &gt; GetRecent(int count)</text>
<text text-anchor="start" x="4.5" y="-47.5" font-family="Helvetica,sans-Serif" font-size="10.00">+</text>
<text text-anchor="start" x="17.5" y="-47.5" font-family="Helvetica,sans-Serif" font-size="10.00">IReadOnlyList&lt; LogEntry</text>
<text text-anchor="start" x="17.5" y="-36.5" font-family="Helvetica,sans-Serif" font-size="10.00"> &gt; GetAll()</text>
<text text-anchor="start" x="4.5" y="-21.5" font-family="Helvetica,sans-Serif" font-size="10.00">+</text>
<text text-anchor="start" x="17.5" y="-21.5" font-family="Helvetica,sans-Serif" font-size="10.00">void AdvanceFrame()</text>
<text text-anchor="start" x="4.5" y="-6.5" font-family="Helvetica,sans-Serif" font-size="10.00">+</text>
<text text-anchor="start" x="17.5" y="-6.5" font-family="Helvetica,sans-Serif" font-size="10.00">void Flush()</text>
<polygon fill="#666666" stroke="#666666" points="0.5,-176.5 0.5,-176.5 181.5,-176.5 181.5,-176.5 0.5,-176.5"/>
<polygon fill="#666666" stroke="#666666" points="0.5,-161.5 0.5,-161.5 15.5,-161.5 15.5,-161.5 0.5,-161.5"/>
<polygon fill="#666666" stroke="#666666" points="15.5,-161.5 15.5,-161.5 181.5,-161.5 181.5,-161.5 15.5,-161.5"/>
<polygon fill="none" stroke="#666666" points="0,0 0,-205 181,-205 181,0 0,0"/>
</a>
</g>
</g>
<!-- Node1&#45;&gt;Node2 -->
<g id="edge1_Node000001_Node000002" class="edge">
<title>Node1&#45;&gt;Node2</title>
<g id="a_edge1_Node000001_Node000002"><a xlink:title=" ">
<path fill="none" stroke="#63b8ff" d="M217.71,-233.28C205.82,-221.15 193.33,-208.41 181.02,-195.85"/>
<polygon fill="none" stroke="#63b8ff" points="215.54,-236.06 225.03,-240.75 220.53,-231.16 215.54,-236.06"/>
</a>
</g>
</g>
<!-- Node3 -->
<g id="Node000003" class="node">
<title>Node3</title>
<g id="a_Node000003"><a xlink:href="classRpgGame_1_1Logger_1_1FileLogSink.html" target="_top" xlink:title="Persists log entries to a dedicated text file for the current game session.">
<polygon fill="white" stroke="transparent" points="377.5,-199.5 199.5,-199.5 199.5,-5.5 377.5,-5.5 377.5,-199.5"/>
<text text-anchor="start" x="217.5" y="-187.5" font-family="Helvetica,sans-Serif" font-size="10.00">RpgGame.Logger.FileLogSink</text>
<text text-anchor="start" x="203.5" y="-172.5" font-family="Helvetica,sans-Serif" font-size="10.00">+</text>
<text text-anchor="start" x="216.5" y="-172.5" font-family="Helvetica,sans-Serif" font-size="10.00">string FilePath</text>
<text text-anchor="start" x="203.5" y="-157.5" font-family="Helvetica,sans-Serif" font-size="10.00">+</text>
<text text-anchor="start" x="216.5" y="-157.5" font-family="Helvetica,sans-Serif" font-size="10.00">FileLogSink(string</text>
<text text-anchor="start" x="216.5" y="-146.5" font-family="Helvetica,sans-Serif" font-size="10.00"> directory, string playerName,</text>
<text text-anchor="start" x="216.5" y="-135.5" font-family="Helvetica,sans-Serif" font-size="10.00"> DateTime sessionStart)</text>
<text text-anchor="start" x="203.5" y="-120.5" font-family="Helvetica,sans-Serif" font-size="10.00">+</text>
<text text-anchor="start" x="216.5" y="-120.5" font-family="Helvetica,sans-Serif" font-size="10.00">void Log(LogEntry entry)</text>
<text text-anchor="start" x="203.5" y="-105.5" font-family="Helvetica,sans-Serif" font-size="10.00">+</text>
<text text-anchor="start" x="216.5" y="-105.5" font-family="Helvetica,sans-Serif" font-size="10.00">void Log(string message)</text>
<text text-anchor="start" x="203.5" y="-90.5" font-family="Helvetica,sans-Serif" font-size="10.00">+</text>
<text text-anchor="start" x="216.5" y="-90.5" font-family="Helvetica,sans-Serif" font-size="10.00">void AppendRange(IEnumerable</text>
<text text-anchor="start" x="216.5" y="-79.5" font-family="Helvetica,sans-Serif" font-size="10.00">&lt; LogEntry &gt; entries)</text>
<text text-anchor="start" x="203.5" y="-64.5" font-family="Helvetica,sans-Serif" font-size="10.00">+</text>
<text text-anchor="start" x="216.5" y="-64.5" font-family="Helvetica,sans-Serif" font-size="10.00">IReadOnlyList&lt; LogEntry</text>
<text text-anchor="start" x="216.5" y="-53.5" font-family="Helvetica,sans-Serif" font-size="10.00"> &gt; GetRecent(int count)</text>
<text text-anchor="start" x="203.5" y="-38.5" font-family="Helvetica,sans-Serif" font-size="10.00">+</text>
<text text-anchor="start" x="216.5" y="-38.5" font-family="Helvetica,sans-Serif" font-size="10.00">IReadOnlyList&lt; LogEntry</text>
<text text-anchor="start" x="216.5" y="-27.5" font-family="Helvetica,sans-Serif" font-size="10.00"> &gt; GetAll()</text>
<text text-anchor="start" x="203.5" y="-12.5" font-family="Helvetica,sans-Serif" font-size="10.00">+</text>
<text text-anchor="start" x="216.5" y="-12.5" font-family="Helvetica,sans-Serif" font-size="10.00">void Flush()</text>
<polygon fill="#666666" stroke="#666666" points="199.5,-182.5 199.5,-182.5 377.5,-182.5 377.5,-182.5 199.5,-182.5"/>
<polygon fill="#666666" stroke="#666666" points="199.5,-167.5 199.5,-167.5 214.5,-167.5 214.5,-167.5 199.5,-167.5"/>
<polygon fill="#666666" stroke="#666666" points="214.5,-167.5 214.5,-167.5 377.5,-167.5 377.5,-167.5 214.5,-167.5"/>
<polygon fill="none" stroke="#666666" points="199.5,-5.5 199.5,-199.5 377.5,-199.5 377.5,-5.5 199.5,-5.5"/>
</a>
</g>
</g>
<!-- Node1&#45;&gt;Node3 -->
<g id="edge2_Node000001_Node000003" class="edge">
<title>Node1&#45;&gt;Node3</title>
<g id="a_edge2_Node000001_Node000003"><a xlink:title=" ">
<path fill="none" stroke="#63b8ff" d="M288.5,-230.73C288.5,-220.55 288.5,-210 288.5,-199.52"/>
<polygon fill="none" stroke="#63b8ff" points="285,-230.75 288.5,-240.75 292,-230.75 285,-230.75"/>
</a>
</g>
</g>
<!-- Node4 -->
<g id="Node000004" class="node">
<title>Node4</title>
<g id="a_Node000004"><a xlink:href="classRpgGame_1_1Logger_1_1InMemoryLogSink.html" target="_top" xlink:title="Stores all log entries in memory for UI views (recent and full journal).">
<polygon fill="white" stroke="transparent" points="580,-168 395,-168 395,-37 580,-37 580,-168"/>
<text text-anchor="start" x="400.5" y="-155.5" font-family="Helvetica,sans-Serif" font-size="10.00">RpgGame.Logger.InMemoryLogSink</text>
<text text-anchor="start" x="486" y="-140.5" font-family="Helvetica,sans-Serif" font-size="10.00"> </text>
<text text-anchor="start" x="409.5" y="-125.5" font-family="Helvetica,sans-Serif" font-size="10.00">+</text>
<text text-anchor="start" x="432.5" y="-125.5" font-family="Helvetica,sans-Serif" font-size="10.00">void Log(LogEntry entry)</text>
<text text-anchor="start" x="409.5" y="-110.5" font-family="Helvetica,sans-Serif" font-size="10.00">+</text>
<text text-anchor="start" x="432.5" y="-110.5" font-family="Helvetica,sans-Serif" font-size="10.00">void Log(string message)</text>
<text text-anchor="start" x="409.5" y="-95.5" font-family="Helvetica,sans-Serif" font-size="10.00">+</text>
<text text-anchor="start" x="432.5" y="-95.5" font-family="Helvetica,sans-Serif" font-size="10.00">IReadOnlyList&lt; LogEntry</text>
<text text-anchor="start" x="432.5" y="-84.5" font-family="Helvetica,sans-Serif" font-size="10.00"> &gt; GetRecent(int count)</text>
<text text-anchor="start" x="409.5" y="-69.5" font-family="Helvetica,sans-Serif" font-size="10.00">+</text>
<text text-anchor="start" x="432.5" y="-69.5" font-family="Helvetica,sans-Serif" font-size="10.00">IReadOnlyList&lt; LogEntry</text>
<text text-anchor="start" x="432.5" y="-58.5" font-family="Helvetica,sans-Serif" font-size="10.00"> &gt; GetAll()</text>
<text text-anchor="start" x="409.5" y="-43.5" font-family="Helvetica,sans-Serif" font-size="10.00">+</text>
<text text-anchor="start" x="432.5" y="-43.5" font-family="Helvetica,sans-Serif" font-size="10.00">void Flush()</text>
<polygon fill="#666666" stroke="#666666" points="395.5,-150.5 395.5,-150.5 580.5,-150.5 580.5,-150.5 395.5,-150.5"/>
<polygon fill="#666666" stroke="#666666" points="395.5,-135.5 395.5,-135.5 580.5,-135.5 580.5,-135.5 395.5,-135.5"/>
<polygon fill="none" stroke="#666666" points="395,-37 395,-168 580,-168 580,-37 395,-37"/>
</a>
</g>
</g>
<!-- Node1&#45;&gt;Node4 -->
<g id="edge3_Node000001_Node000004" class="edge">
<title>Node1&#45;&gt;Node4</title>
<g id="a_edge3_Node000001_Node000004"><a xlink:title=" ">
<path fill="none" stroke="#63b8ff" d="M359.33,-233.6C380.34,-212.28 403.21,-189.07 423.73,-168.23"/>
<polygon fill="none" stroke="#63b8ff" points="356.81,-231.17 352.29,-240.75 361.8,-236.08 356.81,-231.17"/>
</a>
</g>
</g>
</g>
</svg>
