<?xml version="1.0" encoding="UTF-8" standalone="no"?>
<!DOCTYPE svg PUBLIC "-//W3C//DTD SVG 1.1//EN"
 "http://www.w3.org/Graphics/SVG/1.1/DTD/svg11.dtd">
<!-- Generated by graphviz version 13.1.2 (20250808.2320)
 -->
<!-- Title: RpgGame.Input.IInputCommand Pages: 1 -->
<!--zoomable 217 -->

<svg id="main" version="1.1" xmlns="http://www.w3.org/2000/svg" xmlns:xlink="http://www.w3.org/1999/xlink" xml:space="preserve" onload="init(evt)">

<style type="text/css"><![CDATA[
.node, .edge {opacity: 0.7;}
.node.selected, .edge.selected {opacity: 1;}
.edge:hover path { stroke: red; }
.edge:hover polygon { stroke: red; fill: red; }
]]></style>

<defs>
  <circle id="rim" cx="0" cy="0" r="7"/>
  <circle id="rim2" cx="0" cy="0" r="3.5"/>
  <g id="zoomPlus">
    <use xlink:href="#rim" fill="#404040"><set attributeName="fill" to="#808080" begin="zoomplus.mouseover" end="zoomplus.mouseout"/></use>
    <path d="M-4,0h8M0,-4v8" fill="none" stroke="white" stroke-width="1.5" pointer-events="none"/>
  </g>
  <g id="zoomMin">
    <use xlink:href="#rim" fill="#404040"><set attributeName="fill" to="#808080" begin="zoomminus.mouseover" end="zoomminus.mouseout"/></use>
    <path d="M-4,0h8" fill="none" stroke="white" stroke-width="1.5" pointer-events="none"/>
  </g>
  <g id="arrowUp" transform="translate(30 24)">
    <use xlink:href="#rim"/>
    <path pointer-events="none" fill="none" stroke="white" stroke-width="1.5" d="M0,-3.0v7 M-2.5,-0.5L0,-3.0L2.5,-0.5"/>
  </g>
  <g id="arrowRight" transform="rotate(90) translate(36 -43)">
    <use xlink:href="#rim"/>
    <path pointer-events="none" fill="none" stroke="white" stroke-width="1.5" d="M0,-3.0v7 M-2.5,-0.5L0,-3.0L2.5,-0.5"/>
  </g>
  <g id="arrowDown" transform="rotate(180) translate(-30 -48)">
    <use xlink:href="#rim"/>
    <path pointer-events="none" fill="none" stroke="white" stroke-width="1.5" d="M0,-3.0v7 M-2.5,-0.5L0,-3.0L2.5,-0.5"/>
  </g>
  <g id="arrowLeft" transform="rotate(270) translate(-36 17)">
    <use xlink:href="#rim"/>
    <path pointer-events="none" fill="none" stroke="white" stroke-width="1.5" d="M0,-3.0v7 M-2.5,-0.5L0,-3.0L2.5,-0.5"/>
  </g>
  <g id="resetDef">
    <use xlink:href="#rim2" fill="#404040"><set attributeName="fill" to="#808080" begin="reset.mouseover" end="reset.mouseout"/></use>
  </g>
</defs>
<script type="application/ecmascript">
var viewWidth = 1921;
var viewHeight = 217;
var sectionId = 'dynsection-0';
</script>
<script type="application/ecmascript" xlink:href="svg.min.js"/>
<svg id="graph" class="graph">
<g id="viewport">
<title>RpgGame.Input.IInputCommand</title>
<!-- Node1 -->
<g id="Node000001" class="node">
<title>Node1</title>
<g id="a_Node000001"><a xlink:title="Represents a user input command that manipulates the game state (level, player, inventory) and return...">
<polygon fill="#999999" stroke="none" points="1014.12,-208.5 864.38,-208.5 864.38,-140 1014.12,-140 1014.12,-208.5"/>
<text xml:space="preserve" text-anchor="start" x="868.38" y="-195" font-family="Helvetica,sans-Serif" font-size="10.00">RpgGame.Input.IInputCommand</text>
<text xml:space="preserve" text-anchor="start" x="937.75" y="-180.5" font-family="Helvetica,sans-Serif" font-size="10.00"> </text>
<text xml:space="preserve" text-anchor="start" x="875.06" y="-166" font-family="Helvetica,sans-Serif" font-size="10.00">+</text>
<text xml:space="preserve" text-anchor="start" x="891.75" y="-166" font-family="Helvetica,sans-Serif" font-size="10.00">int Execute(Level level,</text>
<text xml:space="preserve" text-anchor="start" x="891.75" y="-155.5" font-family="Helvetica,sans-Serif" font-size="10.00"> Player player, Inventory</text>
<text xml:space="preserve" text-anchor="start" x="891.75" y="-145" font-family="Helvetica,sans-Serif" font-size="10.00"> inventory)</text>
<polygon fill="#666666" stroke="#666666" points="864.38,-192 864.38,-192 1014.12,-192 1014.12,-192 864.38,-192"/>
<polygon fill="#666666" stroke="#666666" points="864.38,-177.5 864.38,-177.5 1014.12,-177.5 1014.12,-177.5 864.38,-177.5"/>
<polygon fill="none" stroke="#666666" points="864.38,-140 864.38,-208.5 1014.12,-208.5 1014.12,-140 864.38,-140"/>
</a>
</g>
</g>
<!-- Node2 -->
<g id="Node000002" class="node">
<title>Node2</title>
<g id="a_Node000002"><a xlink:href="classRpgGame_1_1Input_1_1DropLeftCommand.html" target="_top" xlink:title="Instructs the player to drop the item in their left hand onto the level.">
<polygon fill="white" stroke="none" points="162.5,-86.25 0,-86.25 0,-17.75 162.5,-17.75 162.5,-86.25"/>
<text xml:space="preserve" text-anchor="start" x="4" y="-72.75" font-family="Helvetica,sans-Serif" font-size="10.00">RpgGame.Input.DropLeftCommand</text>
<text xml:space="preserve" text-anchor="start" x="79.75" y="-58.25" font-family="Helvetica,sans-Serif" font-size="10.00"> </text>
<text xml:space="preserve" text-anchor="start" x="13.88" y="-43.75" font-family="Helvetica,sans-Serif" font-size="10.00">+</text>
<text xml:space="preserve" text-anchor="start" x="33.75" y="-43.75" font-family="Helvetica,sans-Serif" font-size="10.00">int Execute(Level level,</text>
<text xml:space="preserve" text-anchor="start" x="33.75" y="-33.25" font-family="Helvetica,sans-Serif" font-size="10.00"> Player player, Inventory</text>
<text xml:space="preserve" text-anchor="start" x="33.75" y="-22.75" font-family="Helvetica,sans-Serif" font-size="10.00"> inventory)</text>
<polygon fill="#666666" stroke="#666666" points="0,-69.75 0,-69.75 162.5,-69.75 162.5,-69.75 0,-69.75"/>
<polygon fill="#666666" stroke="#666666" points="0,-55.25 0,-55.25 162.5,-55.25 162.5,-55.25 0,-55.25"/>
<polygon fill="none" stroke="#666666" points="0,-17.75 0,-86.25 162.5,-86.25 162.5,-17.75 0,-17.75"/>
</a>
</g>
</g>
<!-- Node1&#45;&gt;Node2 -->
<g id="edge1_Node000001_Node000002" class="edge">
<title>Node1&#45;&gt;Node2</title>
<g id="a_edge1_Node000001_Node000002"><a xlink:title=" ">
<path fill="none" stroke="#63b8ff" d="M853.35,-170.08C680.51,-162.95 296.54,-143.13 171.25,-104 157.54,-99.72 143.6,-93.13 130.93,-86.1"/>
<polygon fill="none" stroke="#63b8ff" points="853.03,-173.57 863.16,-170.48 853.31,-166.57 853.03,-173.57"/>
</a>
</g>
</g>
<!-- Node3 -->
<g id="Node000003" class="node">
<title>Node3</title>
<g id="a_Node000003"><a xlink:href="classRpgGame_1_1Input_1_1DropRightCommand.html" target="_top" xlink:title="Instructs the player to drop the item in their right hand onto the level.">
<polygon fill="white" stroke="none" points="349.88,-86.25 180.62,-86.25 180.62,-17.75 349.88,-17.75 349.88,-86.25"/>
<text xml:space="preserve" text-anchor="start" x="184.62" y="-72.75" font-family="Helvetica,sans-Serif" font-size="10.00">RpgGame.Input.DropRightCommand</text>
<text xml:space="preserve" text-anchor="start" x="263.75" y="-58.25" font-family="Helvetica,sans-Serif" font-size="10.00"> </text>
<text xml:space="preserve" text-anchor="start" x="196.19" y="-43.75" font-family="Helvetica,sans-Serif" font-size="10.00">+</text>
<text xml:space="preserve" text-anchor="start" x="217.75" y="-43.75" font-family="Helvetica,sans-Serif" font-size="10.00">int Execute(Level level,</text>
<text xml:space="preserve" text-anchor="start" x="217.75" y="-33.25" font-family="Helvetica,sans-Serif" font-size="10.00"> Player player, Inventory</text>
<text xml:space="preserve" text-anchor="start" x="217.75" y="-22.75" font-family="Helvetica,sans-Serif" font-size="10.00"> inventory)</text>
<polygon fill="#666666" stroke="#666666" points="180.62,-69.75 180.62,-69.75 349.88,-69.75 349.88,-69.75 180.62,-69.75"/>
<polygon fill="#666666" stroke="#666666" points="180.62,-55.25 180.62,-55.25 349.88,-55.25 349.88,-55.25 180.62,-55.25"/>
<polygon fill="none" stroke="#666666" points="180.62,-17.75 180.62,-86.25 349.88,-86.25 349.88,-17.75 180.62,-17.75"/>
</a>
</g>
</g>
<!-- Node1&#45;&gt;Node3 -->
<g id="edge2_Node000001_Node000003" class="edge">
<title>Node1&#45;&gt;Node3</title>
<g id="a_edge2_Node000001_Node000003"><a xlink:title=" ">
<path fill="none" stroke="#63b8ff" d="M853.21,-173.15C737.86,-170.75 527.93,-158.38 358.25,-104 344.4,-99.56 330.24,-93 317.28,-86.06"/>
<polygon fill="none" stroke="#63b8ff" points="852.84,-176.64 862.9,-173.33 852.97,-169.64 852.84,-176.64"/>
</a>
</g>
</g>
<!-- Node4 -->
<g id="Node000004" class="node">
<title>Node4</title>
<g id="a_Node000004"><a xlink:href="classRpgGame_1_1Input_1_1InventoryToLeftHandCommand.html" target="_top" xlink:title="Transfers the currently selected inventory item to the player&#39;s left hand.">
<polygon fill="white" stroke="none" points="498.75,-91.5 367.75,-91.5 367.75,-12.5 498.75,-12.5 498.75,-91.5"/>
<text xml:space="preserve" text-anchor="start" x="371.75" y="-78" font-family="Helvetica,sans-Serif" font-size="10.00">RpgGame.Input.InventoryTo</text>
<text xml:space="preserve" text-anchor="start" x="390.88" y="-67.5" font-family="Helvetica,sans-Serif" font-size="10.00">LeftHandCommand</text>
<text xml:space="preserve" text-anchor="start" x="431.75" y="-53" font-family="Helvetica,sans-Serif" font-size="10.00"> </text>
<text xml:space="preserve" text-anchor="start" x="373.75" y="-38.5" font-family="Helvetica,sans-Serif" font-size="10.00">+</text>
<text xml:space="preserve" text-anchor="start" x="385.75" y="-38.5" font-family="Helvetica,sans-Serif" font-size="10.00">int Execute(Level level,</text>
<text xml:space="preserve" text-anchor="start" x="385.75" y="-28" font-family="Helvetica,sans-Serif" font-size="10.00"> Player player, Inventory</text>
<text xml:space="preserve" text-anchor="start" x="385.75" y="-17.5" font-family="Helvetica,sans-Serif" font-size="10.00"> inventory)</text>
<polygon fill="#666666" stroke="#666666" points="367.75,-64.5 367.75,-64.5 498.75,-64.5 498.75,-64.5 367.75,-64.5"/>
<polygon fill="#666666" stroke="#666666" points="367.75,-50 367.75,-50 498.75,-50 498.75,-50 367.75,-50"/>
<polygon fill="none" stroke="#666666" points="367.75,-12.5 367.75,-91.5 498.75,-91.5 498.75,-12.5 367.75,-12.5"/>
</a>
</g>
</g>
<!-- Node1&#45;&gt;Node4 -->
<g id="edge3_Node000001_Node000004" class="edge">
<title>Node1&#45;&gt;Node4</title>
<g id="a_edge3_Node000001_Node000004"><a xlink:title=" ">
<path fill="none" stroke="#63b8ff" d="M853.33,-170.6C763.95,-165.33 621.4,-149.75 507.25,-104 498.85,-100.63 490.46,-96.17 482.5,-91.29"/>
<polygon fill="none" stroke="#63b8ff" points="853.08,-174.09 863.26,-171.15 853.47,-167.11 853.08,-174.09"/>
</a>
</g>
</g>
<!-- Node5 -->
<g id="Node000005" class="node">
<title>Node5</title>
<g id="a_Node000005"><a xlink:href="classRpgGame_1_1Input_1_1InventoryToRightHandCommand.html" target="_top" xlink:title="Transfers the currently selected inventory item to the player&#39;s right hand.">
<polygon fill="white" stroke="none" points="647.75,-91.5 516.75,-91.5 516.75,-12.5 647.75,-12.5 647.75,-91.5"/>
<text xml:space="preserve" text-anchor="start" x="520.75" y="-78" font-family="Helvetica,sans-Serif" font-size="10.00">RpgGame.Input.InventoryTo</text>
<text xml:space="preserve" text-anchor="start" x="536.5" y="-67.5" font-family="Helvetica,sans-Serif" font-size="10.00">RightHandCommand</text>
<text xml:space="preserve" text-anchor="start" x="580.75" y="-53" font-family="Helvetica,sans-Serif" font-size="10.00"> </text>
<text xml:space="preserve" text-anchor="start" x="522.75" y="-38.5" font-family="Helvetica,sans-Serif" font-size="10.00">+</text>
<text xml:space="preserve" text-anchor="start" x="534.75" y="-38.5" font-family="Helvetica,sans-Serif" font-size="10.00">int Execute(Level level,</text>
<text xml:space="preserve" text-anchor="start" x="534.75" y="-28" font-family="Helvetica,sans-Serif" font-size="10.00"> Player player, Inventory</text>
<text xml:space="preserve" text-anchor="start" x="534.75" y="-17.5" font-family="Helvetica,sans-Serif" font-size="10.00"> inventory)</text>
<polygon fill="#666666" stroke="#666666" points="516.75,-64.5 516.75,-64.5 647.75,-64.5 647.75,-64.5 516.75,-64.5"/>
<polygon fill="#666666" stroke="#666666" points="516.75,-50 516.75,-50 647.75,-50 647.75,-50 516.75,-50"/>
<polygon fill="none" stroke="#666666" points="516.75,-12.5 516.75,-91.5 647.75,-91.5 647.75,-12.5 516.75,-12.5"/>
</a>
</g>
</g>
<!-- Node1&#45;&gt;Node5 -->
<g id="edge4_Node000001_Node000005" class="edge">
<title>Node1&#45;&gt;Node5</title>
<g id="a_edge4_Node000001_Node000005"><a xlink:title=" ">
<path fill="none" stroke="#63b8ff" d="M853.18,-160.58C795.68,-150.11 719.31,-132.29 656.25,-104 648.42,-100.49 640.54,-96.13 632.99,-91.45"/>
<polygon fill="none" stroke="#63b8ff" points="852.47,-164 862.93,-162.31 853.7,-157.11 852.47,-164"/>
</a>
</g>
</g>
<!-- Node6 -->
<g id="Node000006" class="node">
<title>Node6</title>
<g id="a_Node000006"><a xlink:href="classRpgGame_1_1Input_1_1MoveDownCommand.html" target="_top" xlink:title="Moves the player one tile down (south) on the level.">
<polygon fill="white" stroke="none" points="839.12,-86.25 665.38,-86.25 665.38,-17.75 839.12,-17.75 839.12,-86.25"/>
<text xml:space="preserve" text-anchor="start" x="669.38" y="-72.75" font-family="Helvetica,sans-Serif" font-size="10.00">RpgGame.Input.MoveDownCommand</text>
<text xml:space="preserve" text-anchor="start" x="750.75" y="-58.25" font-family="Helvetica,sans-Serif" font-size="10.00"> </text>
<text xml:space="preserve" text-anchor="start" x="682.06" y="-43.75" font-family="Helvetica,sans-Serif" font-size="10.00">+</text>
<text xml:space="preserve" text-anchor="start" x="704.75" y="-43.75" font-family="Helvetica,sans-Serif" font-size="10.00">int Execute(Level level,</text>
<text xml:space="preserve" text-anchor="start" x="704.75" y="-33.25" font-family="Helvetica,sans-Serif" font-size="10.00"> Player player, Inventory</text>
<text xml:space="preserve" text-anchor="start" x="704.75" y="-22.75" font-family="Helvetica,sans-Serif" font-size="10.00"> inventory)</text>
<polygon fill="#666666" stroke="#666666" points="665.38,-69.75 665.38,-69.75 839.12,-69.75 839.12,-69.75 665.38,-69.75"/>
<polygon fill="#666666" stroke="#666666" points="665.38,-55.25 665.38,-55.25 839.12,-55.25 839.12,-55.25 665.38,-55.25"/>
<polygon fill="none" stroke="#666666" points="665.38,-17.75 665.38,-86.25 839.12,-86.25 839.12,-17.75 665.38,-17.75"/>
</a>
</g>
</g>
<!-- Node1&#45;&gt;Node6 -->
<g id="edge5_Node000001_Node000006" class="edge">
<title>Node1&#45;&gt;Node6</title>
<g id="a_edge5_Node000001_Node000006"><a xlink:title=" ">
<path fill="none" stroke="#63b8ff" d="M878.25,-134.02C854.15,-118.52 826.75,-100.91 803.68,-86.07"/>
<polygon fill="none" stroke="#63b8ff" points="876.08,-136.79 886.38,-139.25 879.87,-130.9 876.08,-136.79"/>
</a>
</g>
</g>
<!-- Node7 -->
<g id="Node000007" class="node">
<title>Node7</title>
<g id="a_Node000007"><a xlink:href="classRpgGame_1_1Input_1_1MoveLeftCommand.html" target="_top" xlink:title="Moves the player one tile left (west) on the level.">
<polygon fill="white" stroke="none" points="1021.62,-86.25 856.88,-86.25 856.88,-17.75 1021.62,-17.75 1021.62,-86.25"/>
<text xml:space="preserve" text-anchor="start" x="860.88" y="-72.75" font-family="Helvetica,sans-Serif" font-size="10.00">RpgGame.Input.MoveLeftCommand</text>
<text xml:space="preserve" text-anchor="start" x="937.75" y="-58.25" font-family="Helvetica,sans-Serif" font-size="10.00"> </text>
<text xml:space="preserve" text-anchor="start" x="871.31" y="-43.75" font-family="Helvetica,sans-Serif" font-size="10.00">+</text>
<text xml:space="preserve" text-anchor="start" x="891.75" y="-43.75" font-family="Helvetica,sans-Serif" font-size="10.00">int Execute(Level level,</text>
<text xml:space="preserve" text-anchor="start" x="891.75" y="-33.25" font-family="Helvetica,sans-Serif" font-size="10.00"> Player player, Inventory</text>
<text xml:space="preserve" text-anchor="start" x="891.75" y="-22.75" font-family="Helvetica,sans-Serif" font-size="10.00"> inventory)</text>
<polygon fill="#666666" stroke="#666666" points="856.88,-69.75 856.88,-69.75 1021.62,-69.75 1021.62,-69.75 856.88,-69.75"/>
<polygon fill="#666666" stroke="#666666" points="856.88,-55.25 856.88,-55.25 1021.62,-55.25 1021.62,-55.25 856.88,-55.25"/>
<polygon fill="none" stroke="#666666" points="856.88,-17.75 856.88,-86.25 1021.62,-86.25 1021.62,-17.75 856.88,-17.75"/>
</a>
</g>
</g>
<!-- Node1&#45;&gt;Node7 -->
<g id="edge6_Node000001_Node000007" class="edge">
<title>Node1&#45;&gt;Node7</title>
<g id="a_edge6_Node000001_Node000007"><a xlink:title=" ">
<path fill="none" stroke="#63b8ff" d="M939.25,-128.6C939.25,-114.51 939.25,-99.2 939.25,-86.07"/>
<polygon fill="none" stroke="#63b8ff" points="935.75,-128.56 939.25,-138.56 942.75,-128.56 935.75,-128.56"/>
</a>
</g>
</g>
<!-- Node8 -->
<g id="Node000008" class="node">
<title>Node8</title>
<g id="a_Node000008"><a xlink:href="classRpgGame_1_1Input_1_1MoveRightCommand.html" target="_top" xlink:title="Moves the player one tile right (east) on the level.">
<polygon fill="white" stroke="none" points="1211,-86.25 1039.5,-86.25 1039.5,-17.75 1211,-17.75 1211,-86.25"/>
<text xml:space="preserve" text-anchor="start" x="1043.5" y="-72.75" font-family="Helvetica,sans-Serif" font-size="10.00">RpgGame.Input.MoveRightCommand</text>
<text xml:space="preserve" text-anchor="start" x="1123.75" y="-58.25" font-family="Helvetica,sans-Serif" font-size="10.00"> </text>
<text xml:space="preserve" text-anchor="start" x="1055.62" y="-43.75" font-family="Helvetica,sans-Serif" font-size="10.00">+</text>
<text xml:space="preserve" text-anchor="start" x="1077.75" y="-43.75" font-family="Helvetica,sans-Serif" font-size="10.00">int Execute(Level level,</text>
<text xml:space="preserve" text-anchor="start" x="1077.75" y="-33.25" font-family="Helvetica,sans-Serif" font-size="10.00"> Player player, Inventory</text>
<text xml:space="preserve" text-anchor="start" x="1077.75" y="-22.75" font-family="Helvetica,sans-Serif" font-size="10.00"> inventory)</text>
<polygon fill="#666666" stroke="#666666" points="1039.5,-69.75 1039.5,-69.75 1211,-69.75 1211,-69.75 1039.5,-69.75"/>
<polygon fill="#666666" stroke="#666666" points="1039.5,-55.25 1039.5,-55.25 1211,-55.25 1211,-55.25 1039.5,-55.25"/>
<polygon fill="none" stroke="#666666" points="1039.5,-17.75 1039.5,-86.25 1211,-86.25 1211,-17.75 1039.5,-17.75"/>
</a>
</g>
</g>
<!-- Node1&#45;&gt;Node8 -->
<g id="edge7_Node000001_Node000008" class="edge">
<title>Node1&#45;&gt;Node8</title>
<g id="a_edge7_Node000001_Node000008"><a xlink:title=" ">
<path fill="none" stroke="#63b8ff" d="M999.92,-134.02C1023.9,-118.52 1051.15,-100.91 1074.1,-86.07"/>
<polygon fill="none" stroke="#63b8ff" points="998.34,-130.88 991.84,-139.25 1002.14,-136.76 998.34,-130.88"/>
</a>
</g>
</g>
<!-- Node9 -->
<g id="Node000009" class="node">
<title>Node9</title>
<g id="a_Node000009"><a xlink:href="classRpgGame_1_1Input_1_1MoveUpCommand.html" target="_top" xlink:title="Moves the player one tile up (north) on the level.">
<polygon fill="white" stroke="none" points="1389.75,-86.25 1228.75,-86.25 1228.75,-17.75 1389.75,-17.75 1389.75,-86.25"/>
<text xml:space="preserve" text-anchor="start" x="1232.75" y="-72.75" font-family="Helvetica,sans-Serif" font-size="10.00">RpgGame.Input.MoveUpCommand</text>
<text xml:space="preserve" text-anchor="start" x="1307.75" y="-58.25" font-family="Helvetica,sans-Serif" font-size="10.00"> </text>
<text xml:space="preserve" text-anchor="start" x="1242.25" y="-43.75" font-family="Helvetica,sans-Serif" font-size="10.00">+</text>
<text xml:space="preserve" text-anchor="start" x="1261.75" y="-43.75" font-family="Helvetica,sans-Serif" font-size="10.00">int Execute(Level level,</text>
<text xml:space="preserve" text-anchor="start" x="1261.75" y="-33.25" font-family="Helvetica,sans-Serif" font-size="10.00"> Player player, Inventory</text>
<text xml:space="preserve" text-anchor="start" x="1261.75" y="-22.75" font-family="Helvetica,sans-Serif" font-size="10.00"> inventory)</text>
<polygon fill="#666666" stroke="#666666" points="1228.75,-69.75 1228.75,-69.75 1389.75,-69.75 1389.75,-69.75 1228.75,-69.75"/>
<polygon fill="#666666" stroke="#666666" points="1228.75,-55.25 1228.75,-55.25 1389.75,-55.25 1389.75,-55.25 1228.75,-55.25"/>
<polygon fill="none" stroke="#666666" points="1228.75,-17.75 1228.75,-86.25 1389.75,-86.25 1389.75,-17.75 1228.75,-17.75"/>
</a>
</g>
</g>
<!-- Node1&#45;&gt;Node9 -->
<g id="edge8_Node000001_Node000009" class="edge">
<title>Node1&#45;&gt;Node9</title>
<g id="a_edge8_Node000001_Node000009"><a xlink:title=" ">
<path fill="none" stroke="#63b8ff" d="M1025.15,-158.54C1081.81,-147.29 1156.96,-129.35 1220.25,-104 1232.48,-99.1 1245.08,-92.77 1256.81,-86.25"/>
<polygon fill="none" stroke="#63b8ff" points="1024.71,-155.06 1015.56,-160.41 1026.05,-161.93 1024.71,-155.06"/>
</a>
</g>
</g>
<!-- Node10 -->
<g id="Node000010" class="node">
<title>Node10</title>
<g id="a_Node000010"><a xlink:href="classRpgGame_1_1Input_1_1QuitGameCommand.html" target="_top" xlink:title="Command that causes the game loop to exit.">
<polygon fill="white" stroke="none" points="1576.88,-86.25 1407.62,-86.25 1407.62,-17.75 1576.88,-17.75 1576.88,-86.25"/>
<text xml:space="preserve" text-anchor="start" x="1411.62" y="-72.75" font-family="Helvetica,sans-Serif" font-size="10.00">RpgGame.Input.QuitGameCommand</text>
<text xml:space="preserve" text-anchor="start" x="1490.75" y="-58.25" font-family="Helvetica,sans-Serif" font-size="10.00"> </text>
<text xml:space="preserve" text-anchor="start" x="1423.19" y="-43.75" font-family="Helvetica,sans-Serif" font-size="10.00">+</text>
<text xml:space="preserve" text-anchor="start" x="1444.75" y="-43.75" font-family="Helvetica,sans-Serif" font-size="10.00">int Execute(Level level,</text>
<text xml:space="preserve" text-anchor="start" x="1444.75" y="-33.25" font-family="Helvetica,sans-Serif" font-size="10.00"> Player player, Inventory</text>
<text xml:space="preserve" text-anchor="start" x="1444.75" y="-22.75" font-family="Helvetica,sans-Serif" font-size="10.00"> inventory)</text>
<polygon fill="#666666" stroke="#666666" points="1407.62,-69.75 1407.62,-69.75 1576.88,-69.75 1576.88,-69.75 1407.62,-69.75"/>
<polygon fill="#666666" stroke="#666666" points="1407.62,-55.25 1407.62,-55.25 1576.88,-55.25 1576.88,-55.25 1407.62,-55.25"/>
<polygon fill="none" stroke="#666666" points="1407.62,-17.75 1407.62,-86.25 1576.88,-86.25 1576.88,-17.75 1407.62,-17.75"/>
</a>
</g>
</g>
<!-- Node1&#45;&gt;Node10 -->
<g id="edge9_Node000001_Node000010" class="edge">
<title>Node1&#45;&gt;Node10</title>
<g id="a_edge9_Node000001_Node000010"><a xlink:title=" ">
<path fill="none" stroke="#63b8ff" d="M1025.48,-169.3C1119.53,-162.94 1273.46,-146.46 1399.25,-104 1412.86,-99.41 1426.81,-92.88 1439.63,-86.02"/>
<polygon fill="none" stroke="#63b8ff" points="1025.29,-165.81 1015.54,-169.95 1025.75,-172.79 1025.29,-165.81"/>
</a>
</g>
</g>
<!-- Node11 -->
<g id="Node000011" class="node">
<title>Node11</title>
<g id="a_Node000011"><a xlink:href="classRpgGame_1_1Input_1_1SelectInventoryCommand.html" target="_top" xlink:title="Selects a specific inventory slot.">
<polygon fill="white" stroke="none" points="1743.38,-104 1595.12,-104 1595.12,0 1743.38,0 1743.38,-104"/>
<text xml:space="preserve" text-anchor="start" x="1599.12" y="-90.5" font-family="Helvetica,sans-Serif" font-size="10.00">RpgGame.Input.SelectInventory</text>
<text xml:space="preserve" text-anchor="start" x="1646.75" y="-80" font-family="Helvetica,sans-Serif" font-size="10.00">Command</text>
<text xml:space="preserve" text-anchor="start" x="1667.75" y="-65.5" font-family="Helvetica,sans-Serif" font-size="10.00"> </text>
<text xml:space="preserve" text-anchor="start" x="1603.38" y="-51" font-family="Helvetica,sans-Serif" font-size="10.00">+</text>
<text xml:space="preserve" text-anchor="start" x="1617.62" y="-51" font-family="Helvetica,sans-Serif" font-size="10.00">SelectInventoryCommand</text>
<text xml:space="preserve" text-anchor="start" x="1617.62" y="-40.5" font-family="Helvetica,sans-Serif" font-size="10.00">(int slotIndex)</text>
<text xml:space="preserve" text-anchor="start" x="1603.38" y="-26" font-family="Helvetica,sans-Serif" font-size="10.00">+</text>
<text xml:space="preserve" text-anchor="start" x="1617.62" y="-26" font-family="Helvetica,sans-Serif" font-size="10.00">int Execute(Level level,</text>
<text xml:space="preserve" text-anchor="start" x="1617.62" y="-15.5" font-family="Helvetica,sans-Serif" font-size="10.00"> Player player, Inventory</text>
<text xml:space="preserve" text-anchor="start" x="1617.62" y="-5" font-family="Helvetica,sans-Serif" font-size="10.00"> inventory)</text>
<polygon fill="#666666" stroke="#666666" points="1595.12,-77 1595.12,-77 1743.38,-77 1743.38,-77 1595.12,-77"/>
<polygon fill="#666666" stroke="#666666" points="1595.12,-62.5 1595.12,-62.5 1743.38,-62.5 1743.38,-62.5 1595.12,-62.5"/>
<polygon fill="none" stroke="#666666" points="1595.12,0 1595.12,-104 1743.38,-104 1743.38,0 1595.12,0"/>
</a>
</g>
</g>
<!-- Node1&#45;&gt;Node11 -->
<g id="edge10_Node000001_Node000011" class="edge">
<title>Node1&#45;&gt;Node11</title>
<g id="a_edge10_Node000001_Node000011"><a xlink:title=" ">
<path fill="none" stroke="#63b8ff" d="M1024.97,-168.77C1176.31,-160.1 1484.49,-138.72 1586.25,-104 1589.29,-102.96 1592.34,-101.8 1595.37,-100.53"/>
<polygon fill="none" stroke="#63b8ff" points="1025.21,-165.26 1015.42,-169.32 1025.6,-172.24 1025.21,-165.26"/>
</a>
</g>
</g>
<!-- Node12 -->
<g id="Node000012" class="node">
<title>Node12</title>
<g id="a_Node000012"><a xlink:href="classRpgGame_1_1Input_1_1TakeToInventoryCommand.html" target="_top" xlink:title="Picks up the item resting on the player&#39;s current tile and places it into the inventory if possible.">
<polygon fill="white" stroke="none" points="1912.88,-91.5 1761.62,-91.5 1761.62,-12.5 1912.88,-12.5 1912.88,-91.5"/>
<text xml:space="preserve" text-anchor="start" x="1765.62" y="-78" font-family="Helvetica,sans-Serif" font-size="10.00">RpgGame.Input.TakeToInventory</text>
<text xml:space="preserve" text-anchor="start" x="1814.75" y="-67.5" font-family="Helvetica,sans-Serif" font-size="10.00">Command</text>
<text xml:space="preserve" text-anchor="start" x="1835.75" y="-53" font-family="Helvetica,sans-Serif" font-size="10.00"> </text>
<text xml:space="preserve" text-anchor="start" x="1772.69" y="-38.5" font-family="Helvetica,sans-Serif" font-size="10.00">+</text>
<text xml:space="preserve" text-anchor="start" x="1789.75" y="-38.5" font-family="Helvetica,sans-Serif" font-size="10.00">int Execute(Level level,</text>
<text xml:space="preserve" text-anchor="start" x="1789.75" y="-28" font-family="Helvetica,sans-Serif" font-size="10.00"> Player player, Inventory</text>
<text xml:space="preserve" text-anchor="start" x="1789.75" y="-17.5" font-family="Helvetica,sans-Serif" font-size="10.00"> inventory)</text>
<polygon fill="#666666" stroke="#666666" points="1761.62,-64.5 1761.62,-64.5 1912.88,-64.5 1912.88,-64.5 1761.62,-64.5"/>
<polygon fill="#666666" stroke="#666666" points="1761.62,-50 1761.62,-50 1912.88,-50 1912.88,-50 1761.62,-50"/>
<polygon fill="none" stroke="#666666" points="1761.62,-12.5 1761.62,-91.5 1912.88,-91.5 1912.88,-12.5 1761.62,-12.5"/>
</a>
</g>
</g>
<!-- Node1&#45;&gt;Node12 -->
<g id="edge11_Node000001_Node000012" class="edge">
<title>Node1&#45;&gt;Node12</title>
<g id="a_edge11_Node000001_Node000012"><a xlink:title=" ">
<path fill="none" stroke="#63b8ff" d="M1025.31,-170.83C1205.94,-164.95 1618.89,-147.12 1752.25,-104 1762.07,-100.82 1771.96,-96.33 1781.35,-91.32"/>
<polygon fill="none" stroke="#63b8ff" points="1025.41,-167.32 1015.53,-171.14 1025.64,-174.32 1025.41,-167.32"/>
</a>
</g>
</g>
</g>
</svg>

<g id="navigator" transform="translate(0 0)" fill="#404254">
  <rect fill="#f2f5e9" fill-opacity="0.5" stroke="#606060" stroke-width=".5" x="0" y="0" width="60" height="60"/>
  <use id="zoomplus" xlink:href="#zoomPlus" x="17" y="9" onmousedown="handleZoom(evt,'in')"/>
  <use id="zoomminus" xlink:href="#zoomMin" x="42" y="9" onmousedown="handleZoom(evt,'out')"/>
  <use id="reset" xlink:href="#resetDef" x="30" y="36" onmousedown="handleReset()"/>
   <use id="arrowup" xlink:href="#arrowUp" x="0" y="0" onmousedown="handlePan(0,-1)"/>
  <use id="arrowright" xlink:href="#arrowRight" x="0" y="0" onmousedown="handlePan(1,0)"/>
  <use id="arrowdown" xlink:href="#arrowDown" x="0" y="0" onmousedown="handlePan(0,1)"/>
  <use id="arrowleft" xlink:href="#arrowLeft" x="0" y="0" onmousedown="handlePan(-1,0)"/>
</g>
<svg viewBox="0 0 15 15" width="100%" height="30px" preserveAspectRatio="xMaxYMin meet">
 <g id="arrow_out" transform="scale(0.3 0.3)">
  <a xlink:href="interfaceRpgGame_1_1Input_1_1IInputCommand__inherit__graph_org.svg" target="_base">
   <rect id="button" ry="5" rx="5" y="6" x="6" height="38" width="38"
        fill="#f2f5e9" fill-opacity="0.5" stroke="#606060" stroke-width="1.0"/>
   <path id="arrow"
     d="M 11.500037,31.436501 C 11.940474,20.09759 22.043105,11.32322 32.158766,21.979434 L 37.068811,17.246167 C 37.068811,17.246167 37.088388,32 37.088388,32 L 22.160133,31.978069 C 22.160133,31.978069 26.997745,27.140456 26.997745,27.140456 C 18.528582,18.264221 13.291696,25.230495 11.500037,31.436501 z"
     style="fill:#404040;"/>
  </a>
 </g>
</svg>

<style type='text/css'>
<![CDATA[
[data-mouse-over-selected='false'] { opacity: 0.7; }
[data-mouse-over-selected='true']  { opacity: 1.0; }
]]>
</style>
<script type="application/ecmascript"><![CDATA[
document.addEventListener('DOMContentLoaded', (event) => {
  highlightEdges();
  highlightAdjacentNodes();
});
]]></script>
</svg>
