<?xml version="1.0" encoding="UTF-8" standalone="no"?>
<!DOCTYPE svg PUBLIC "-//W3C//DTD SVG 1.1//EN"
 "http://www.w3.org/Graphics/SVG/1.1/DTD/svg11.dtd">
<!-- Generated by graphviz version 2.43.0 (0)
 -->
<!-- Title: RpgGame.Generation.IMapGenerator Pages: 1 -->
<svg width="354pt" height="201pt"
 viewBox="0.00 0.00 354.00 201.00" xmlns="http://www.w3.org/2000/svg" xmlns:xlink="http://www.w3.org/1999/xlink">

<svg id="main" version="1.1" xmlns="http://www.w3.org/2000/svg" xmlns:xlink="http://www.w3.org/1999/xlink" xml:space="preserve" onload="init(evt)">
<style type="text/css"><![CDATA[
.node, .edge {opacity: 0.7;}
.node.selected, .edge.selected {opacity: 1;}
.edge:hover path { stroke: red; }
.edge:hover polygon { stroke: red; fill: red; }
]]></style>
<script type="application/ecmascript" xlink:href="svg.min.js"/>
<svg id="graph" class="graph">
<g id="graph0" class="graph" transform="scale(1 1) rotate(0) translate(4 197)">
<title>RpgGame.Generation.IMapGenerator</title>
<!-- Node1 -->
<g id="Node000001" class="node">
<title>Node1</title>
<g id="a_Node000001"><a xlink:title="Defines the contract for procedural level generation strategies.">
<polygon fill="#999999" stroke="transparent" points="274.5,-193 83.5,-193 83.5,-133 274.5,-133 274.5,-193"/>
<text text-anchor="start" x="89" y="-181" font-family="Helvetica,sans-Serif" font-size="10.00">RpgGame.Generation.IMapGenerator</text>
<text text-anchor="start" x="177.5" y="-166" font-family="Helvetica,sans-Serif" font-size="10.00"> </text>
<text text-anchor="start" x="105.5" y="-151" font-family="Helvetica,sans-Serif" font-size="10.00">+</text>
<text text-anchor="start" x="136" y="-151" font-family="Helvetica,sans-Serif" font-size="10.00">Task GenerateAsync</text>
<text text-anchor="start" x="136" y="-140" font-family="Helvetica,sans-Serif" font-size="10.00">(Level level)</text>
<polygon fill="#666666" stroke="#666666" points="84,-176 84,-176 275,-176 275,-176 84,-176"/>
<polygon fill="#666666" stroke="#666666" points="84,-161 84,-161 275,-161 275,-161 84,-161"/>
<polygon fill="none" stroke="#666666" points="83.5,-133 83.5,-193 274.5,-193 274.5,-133 83.5,-133"/>
</a>
</g>
</g>
<!-- Node2 -->
<g id="Node000002" class="node">
<title>Node2</title>
<g id="a_Node000002"><a xlink:href="classRpgGame_1_1Generation_1_1DungeonBuilder.html" target="_top" xlink:title="Implements the Builder Pattern to compose multiple dungeon generation procedures.">
<polygon fill="white" stroke="transparent" points="176,-97 0,-97 0,0 176,0 176,-97"/>
<text text-anchor="start" x="12" y="-84.5" font-family="Helvetica,sans-Serif" font-size="10.00">RpgGame.Generation.Dungeon</text>
<text text-anchor="start" x="70.5" y="-73.5" font-family="Helvetica,sans-Serif" font-size="10.00">Builder</text>
<text text-anchor="start" x="86" y="-58.5" font-family="Helvetica,sans-Serif" font-size="10.00"> </text>
<text text-anchor="start" x="4" y="-43.5" font-family="Helvetica,sans-Serif" font-size="10.00">+</text>
<text text-anchor="start" x="17" y="-43.5" font-family="Helvetica,sans-Serif" font-size="10.00">DungeonBuilder Add</text>
<text text-anchor="start" x="17" y="-32.5" font-family="Helvetica,sans-Serif" font-size="10.00">(IDungeonProcedure procedure)</text>
<text text-anchor="start" x="4" y="-17.5" font-family="Helvetica,sans-Serif" font-size="10.00">+</text>
<text text-anchor="start" x="17" y="-17.5" font-family="Helvetica,sans-Serif" font-size="10.00">async Task GenerateAsync</text>
<text text-anchor="start" x="17" y="-6.5" font-family="Helvetica,sans-Serif" font-size="10.00">(Level level)</text>
<polygon fill="#666666" stroke="#666666" points="0,-68.5 0,-68.5 176,-68.5 176,-68.5 0,-68.5"/>
<polygon fill="#666666" stroke="#666666" points="0,-53.5 0,-53.5 176,-53.5 176,-53.5 0,-53.5"/>
<polygon fill="none" stroke="#666666" points="0,0 0,-97 176,-97 176,0 0,0"/>
</a>
</g>
</g>
<!-- Node1&#45;&gt;Node2 -->
<g id="edge1_Node000001_Node000002" class="edge">
<title>Node1&#45;&gt;Node2</title>
<g id="a_edge1_Node000001_Node000002"><a xlink:title=" ">
<path fill="none" stroke="#63b8ff" d="M148.97,-124.88C141.85,-116.07 134.16,-106.56 126.71,-97.35"/>
<polygon fill="none" stroke="#63b8ff" points="146.32,-127.16 155.33,-132.74 151.76,-122.76 146.32,-127.16"/>
</a>
</g>
</g>
<!-- Node3 -->
<g id="Node000003" class="node">
<title>Node3</title>
<g id="a_Node000003"><a xlink:href="classRpgGame_1_1Generation_1_1SimpleRoomGenerator.html" target="_top" xlink:title="Generates a simple room&#45;based level layout with borders, random wall clusters, and predefined item sp...">
<polygon fill="white" stroke="transparent" points="346,-84 194,-84 194,-13 346,-13 346,-84"/>
<text text-anchor="start" x="199" y="-71.5" font-family="Helvetica,sans-Serif" font-size="10.00">RpgGame.Generation.Simple</text>
<text text-anchor="start" x="231" y="-60.5" font-family="Helvetica,sans-Serif" font-size="10.00">RoomGenerator</text>
<text text-anchor="start" x="268" y="-45.5" font-family="Helvetica,sans-Serif" font-size="10.00"> </text>
<text text-anchor="start" x="198" y="-30.5" font-family="Helvetica,sans-Serif" font-size="10.00">+</text>
<text text-anchor="start" x="211" y="-30.5" font-family="Helvetica,sans-Serif" font-size="10.00">async Task GenerateAsync</text>
<text text-anchor="start" x="211" y="-19.5" font-family="Helvetica,sans-Serif" font-size="10.00">(Level level)</text>
<polygon fill="#666666" stroke="#666666" points="194,-55.5 194,-55.5 346,-55.5 346,-55.5 194,-55.5"/>
<polygon fill="#666666" stroke="#666666" points="194,-40.5 194,-40.5 346,-40.5 346,-40.5 194,-40.5"/>
<polygon fill="none" stroke="#666666" points="194,-13 194,-84 346,-84 346,-13 194,-13"/>
</a>
</g>
</g>
<!-- Node1&#45;&gt;Node3 -->
<g id="edge2_Node000001_Node000003" class="edge">
<title>Node1&#45;&gt;Node3</title>
<g id="a_edge2_Node000001_Node000003"><a xlink:title=" ">
<path fill="none" stroke="#63b8ff" d="M209.07,-124.82C219.66,-111.74 231.5,-97.09 241.92,-84.22"/>
<polygon fill="none" stroke="#63b8ff" points="206.24,-122.76 202.67,-132.74 211.68,-127.16 206.24,-122.76"/>
</a>
</g>
</g>
</g>
</svg>
</svg>

<style type='text/css'>
<![CDATA[
[data-mouse-over-selected='false'] { opacity: 0.7; }
[data-mouse-over-selected='true']  { opacity: 1.0; }
]]>
</style>
<script type="application/ecmascript"><![CDATA[
document.addEventListener('DOMContentLoaded', (event) => {
  highlightEdges();
  highlightAdjacentNodes();
});
]]></script>
</svg>
