<?xml version="1.0" encoding="UTF-8" standalone="no"?>
<!DOCTYPE svg PUBLIC "-//W3C//DTD SVG 1.1//EN"
 "http://www.w3.org/Graphics/SVG/1.1/DTD/svg11.dtd">
<!-- Generated by graphviz version 13.1.2 (20250808.2320)
 -->
<!-- Title: RpgGame.Items.IEquippable Pages: 1 -->
<svg width="282pt" height="643pt"
 viewBox="0.00 0.00 282.00 643.00" xmlns="http://www.w3.org/2000/svg" xmlns:xlink="http://www.w3.org/1999/xlink">
<g id="graph0" class="graph" transform="scale(1 1) rotate(0) translate(4 639)">
<title>RpgGame.Items.IEquippable</title>
<!-- Node1 -->
<g id="Node000001" class="node">
<title>Node1</title>
<g id="a_Node000001"><a xlink:title="Represents an item that can be equipped by the player.">
<polygon fill="#999999" stroke="none" points="211.12,-472.5 76.38,-472.5 76.38,-389.5 211.12,-389.5 211.12,-472.5"/>
<text xml:space="preserve" text-anchor="start" x="80.38" y="-459" font-family="Helvetica,sans-Serif" font-size="10.00">RpgGame.Items.IEquippable</text>
<text xml:space="preserve" text-anchor="start" x="142.25" y="-444.5" font-family="Helvetica,sans-Serif" font-size="10.00"> </text>
<text xml:space="preserve" text-anchor="start" x="86.12" y="-430" font-family="Helvetica,sans-Serif" font-size="10.00">+</text>
<text xml:space="preserve" text-anchor="start" x="101.88" y="-430" font-family="Helvetica,sans-Serif" font-size="10.00">bool TryEquipToLeft</text>
<text xml:space="preserve" text-anchor="start" x="101.88" y="-419.5" font-family="Helvetica,sans-Serif" font-size="10.00">(Player player)</text>
<text xml:space="preserve" text-anchor="start" x="86.12" y="-405" font-family="Helvetica,sans-Serif" font-size="10.00">+</text>
<text xml:space="preserve" text-anchor="start" x="101.88" y="-405" font-family="Helvetica,sans-Serif" font-size="10.00">bool TryEquipToRight</text>
<text xml:space="preserve" text-anchor="start" x="101.88" y="-394.5" font-family="Helvetica,sans-Serif" font-size="10.00">(Player player)</text>
<polygon fill="#666666" stroke="#666666" points="76.38,-456 76.38,-456 211.12,-456 211.12,-456 76.38,-456"/>
<polygon fill="#666666" stroke="#666666" points="76.38,-441.5 76.38,-441.5 211.12,-441.5 211.12,-441.5 76.38,-441.5"/>
<polygon fill="none" stroke="#666666" points="76.38,-389.5 76.38,-472.5 211.12,-472.5 211.12,-389.5 76.38,-389.5"/>
</a>
</g>
</g>
<!-- Node3 -->
<g id="Node000003" class="node">
<title>Node3</title>
<g id="a_Node000003"><a xlink:href="classRpgGame_1_1Items_1_1Weapon.html" target="_top" xlink:title="Represents an abstract base class for all equippable weapons.">
<polygon fill="white" stroke="none" points="216.88,-353.5 70.62,-353.5 70.62,-137.5 216.88,-137.5 216.88,-353.5"/>
<text xml:space="preserve" text-anchor="start" x="88.25" y="-340" font-family="Helvetica,sans-Serif" font-size="10.00">RpgGame.Items.Weapon</text>
<text xml:space="preserve" text-anchor="start" x="74.62" y="-325.5" font-family="Helvetica,sans-Serif" font-size="10.00">+</text>
<text xml:space="preserve" text-anchor="start" x="84.62" y="-325.5" font-family="Helvetica,sans-Serif" font-size="10.00">string Name</text>
<text xml:space="preserve" text-anchor="start" x="74.62" y="-311" font-family="Helvetica,sans-Serif" font-size="10.00">+</text>
<text xml:space="preserve" text-anchor="start" x="84.62" y="-311" font-family="Helvetica,sans-Serif" font-size="10.00">ConsoleColor color</text>
<text xml:space="preserve" text-anchor="start" x="74.62" y="-296.5" font-family="Helvetica,sans-Serif" font-size="10.00">+</text>
<text xml:space="preserve" text-anchor="start" x="84.62" y="-296.5" font-family="Helvetica,sans-Serif" font-size="10.00">char Symbol</text>
<text xml:space="preserve" text-anchor="start" x="74.62" y="-282" font-family="Helvetica,sans-Serif" font-size="10.00">+</text>
<text xml:space="preserve" text-anchor="start" x="84.62" y="-282" font-family="Helvetica,sans-Serif" font-size="10.00">int Damage</text>
<text xml:space="preserve" text-anchor="start" x="74.62" y="-267.5" font-family="Helvetica,sans-Serif" font-size="10.00">+</text>
<text xml:space="preserve" text-anchor="start" x="84.62" y="-267.5" font-family="Helvetica,sans-Serif" font-size="10.00">bool TryEquipToLeft</text>
<text xml:space="preserve" text-anchor="start" x="84.62" y="-257" font-family="Helvetica,sans-Serif" font-size="10.00">(Player player)</text>
<text xml:space="preserve" text-anchor="start" x="74.62" y="-242.5" font-family="Helvetica,sans-Serif" font-size="10.00">+</text>
<text xml:space="preserve" text-anchor="start" x="84.62" y="-242.5" font-family="Helvetica,sans-Serif" font-size="10.00">bool TryEquipToRight</text>
<text xml:space="preserve" text-anchor="start" x="84.62" y="-232" font-family="Helvetica,sans-Serif" font-size="10.00">(Player player)</text>
<text xml:space="preserve" text-anchor="start" x="74.62" y="-217.5" font-family="Helvetica,sans-Serif" font-size="10.00">+</text>
<text xml:space="preserve" text-anchor="start" x="84.62" y="-217.5" font-family="Helvetica,sans-Serif" font-size="10.00">virtual string GetDescription()</text>
<text xml:space="preserve" text-anchor="start" x="74.62" y="-203" font-family="Helvetica,sans-Serif" font-size="10.00">+</text>
<text xml:space="preserve" text-anchor="start" x="84.62" y="-203" font-family="Helvetica,sans-Serif" font-size="10.00">bool OnPickup(Player</text>
<text xml:space="preserve" text-anchor="start" x="84.62" y="-192.5" font-family="Helvetica,sans-Serif" font-size="10.00"> player, Inventory inventory)</text>
<text xml:space="preserve" text-anchor="start" x="74.62" y="-178" font-family="Helvetica,sans-Serif" font-size="10.00">+</text>
<text xml:space="preserve" text-anchor="start" x="84.62" y="-178" font-family="Helvetica,sans-Serif" font-size="10.00">void OnDrop(Level level,</text>
<text xml:space="preserve" text-anchor="start" x="84.62" y="-167.5" font-family="Helvetica,sans-Serif" font-size="10.00"> Player player)</text>
<text xml:space="preserve" text-anchor="start" x="75" y="-153" font-family="Helvetica,sans-Serif" font-size="10.00">#</text>
<text xml:space="preserve" text-anchor="start" x="84.62" y="-153" font-family="Helvetica,sans-Serif" font-size="10.00">Weapon(HandOccupation</text>
<text xml:space="preserve" text-anchor="start" x="84.62" y="-142.5" font-family="Helvetica,sans-Serif" font-size="10.00"> occupation)</text>
<polygon fill="#666666" stroke="#666666" points="70.62,-337 70.62,-337 216.88,-337 216.88,-337 70.62,-337"/>
<polygon fill="#666666" stroke="#666666" points="70.62,-279 70.62,-279 82.62,-279 82.62,-279 70.62,-279"/>
<polygon fill="#666666" stroke="#666666" points="82.62,-279 82.62,-279 216.88,-279 216.88,-279 82.62,-279"/>
<polygon fill="none" stroke="#666666" points="70.62,-137.5 70.62,-353.5 216.88,-353.5 216.88,-137.5 70.62,-137.5"/>
</a>
</g>
</g>
<!-- Node1&#45;&gt;Node3 -->
<g id="edge2_Node000001_Node000003" class="edge">
<title>Node1&#45;&gt;Node3</title>
<g id="a_edge2_Node000001_Node000003"><a xlink:title=" ">
<path fill="none" stroke="#63b8ff" d="M143.75,-378.22C143.75,-370.36 143.75,-362.02 143.75,-353.5"/>
<polygon fill="none" stroke="#63b8ff" points="140.25,-378.22 143.75,-388.22 147.25,-378.22 140.25,-378.22"/>
</a>
</g>
</g>
<!-- Node2 -->
<g id="Node000002" class="node">
<title>Node2</title>
<g id="a_Node000002"><a xlink:href="interfaceRpgGame_1_1Items_1_1IItem.html" target="_top" xlink:title="Defines the contract for all items that can exist within the game world.">
<polygon fill="white" stroke="none" points="213.12,-635 74.38,-635 74.38,-508.5 213.12,-508.5 213.12,-635"/>
<text xml:space="preserve" text-anchor="start" x="94.62" y="-621.5" font-family="Helvetica,sans-Serif" font-size="10.00">RpgGame.Items.IItem</text>
<text xml:space="preserve" text-anchor="start" x="78.38" y="-607" font-family="Helvetica,sans-Serif" font-size="10.00">+</text>
<text xml:space="preserve" text-anchor="start" x="88.38" y="-607" font-family="Helvetica,sans-Serif" font-size="10.00">string Name</text>
<text xml:space="preserve" text-anchor="start" x="78.38" y="-592.5" font-family="Helvetica,sans-Serif" font-size="10.00">+</text>
<text xml:space="preserve" text-anchor="start" x="88.38" y="-592.5" font-family="Helvetica,sans-Serif" font-size="10.00">char Symbol</text>
<text xml:space="preserve" text-anchor="start" x="78.38" y="-578" font-family="Helvetica,sans-Serif" font-size="10.00">+</text>
<text xml:space="preserve" text-anchor="start" x="88.38" y="-578" font-family="Helvetica,sans-Serif" font-size="10.00">ConsoleColor color</text>
<text xml:space="preserve" text-anchor="start" x="78.38" y="-563.5" font-family="Helvetica,sans-Serif" font-size="10.00">+</text>
<text xml:space="preserve" text-anchor="start" x="88.38" y="-563.5" font-family="Helvetica,sans-Serif" font-size="10.00">string GetDescription()</text>
<text xml:space="preserve" text-anchor="start" x="78.38" y="-549" font-family="Helvetica,sans-Serif" font-size="10.00">+</text>
<text xml:space="preserve" text-anchor="start" x="88.38" y="-549" font-family="Helvetica,sans-Serif" font-size="10.00">bool OnPickup(Player</text>
<text xml:space="preserve" text-anchor="start" x="88.38" y="-538.5" font-family="Helvetica,sans-Serif" font-size="10.00"> player, Inventory inventory)</text>
<text xml:space="preserve" text-anchor="start" x="78.38" y="-524" font-family="Helvetica,sans-Serif" font-size="10.00">+</text>
<text xml:space="preserve" text-anchor="start" x="88.38" y="-524" font-family="Helvetica,sans-Serif" font-size="10.00">void OnDrop(Level level,</text>
<text xml:space="preserve" text-anchor="start" x="88.38" y="-513.5" font-family="Helvetica,sans-Serif" font-size="10.00"> Player player)</text>
<polygon fill="#666666" stroke="#666666" points="74.38,-618.5 74.38,-618.5 213.12,-618.5 213.12,-618.5 74.38,-618.5"/>
<polygon fill="#666666" stroke="#666666" points="74.38,-575 74.38,-575 86.38,-575 86.38,-575 74.38,-575"/>
<polygon fill="#666666" stroke="#666666" points="86.38,-575 86.38,-575 213.12,-575 213.12,-575 86.38,-575"/>
<polygon fill="none" stroke="#666666" points="74.38,-508.5 74.38,-635 213.12,-635 213.12,-508.5 74.38,-508.5"/>
</a>
</g>
</g>
<!-- Node2&#45;&gt;Node1 -->
<g id="edge1_Node000001_Node000002" class="edge">
<title>Node2&#45;&gt;Node1</title>
<g id="a_edge1_Node000001_Node000002"><a xlink:title=" ">
<path fill="none" stroke="#63b8ff" d="M143.75,-497.29C143.75,-488.63 143.75,-480.06 143.75,-472.11"/>
<polygon fill="none" stroke="#63b8ff" points="140.25,-497.17 143.75,-507.17 147.25,-497.17 140.25,-497.17"/>
</a>
</g>
</g>
<!-- Node4 -->
<g id="Node000004" class="node">
<title>Node4</title>
<g id="a_Node000004"><a xlink:href="classRpgGame_1_1Items_1_1DoubleSword.html" target="_top" xlink:title="Represents a powerful two&#45;handed sword weapon.">
<polygon fill="white" stroke="none" points="141.5,-101.5 0,-101.5 0,0 141.5,0 141.5,-101.5"/>
<text xml:space="preserve" text-anchor="start" x="4" y="-88" font-family="Helvetica,sans-Serif" font-size="10.00">RpgGame.Items.DoubleSword</text>
<text xml:space="preserve" text-anchor="start" x="10.88" y="-73.5" font-family="Helvetica,sans-Serif" font-size="10.00">+</text>
<text xml:space="preserve" text-anchor="start" x="27.75" y="-73.5" font-family="Helvetica,sans-Serif" font-size="10.00">override string Name</text>
<text xml:space="preserve" text-anchor="start" x="10.88" y="-59" font-family="Helvetica,sans-Serif" font-size="10.00">+</text>
<text xml:space="preserve" text-anchor="start" x="27.75" y="-59" font-family="Helvetica,sans-Serif" font-size="10.00">override ConsoleColor</text>
<text xml:space="preserve" text-anchor="start" x="27.75" y="-48.5" font-family="Helvetica,sans-Serif" font-size="10.00"> color</text>
<text xml:space="preserve" text-anchor="start" x="10.88" y="-34" font-family="Helvetica,sans-Serif" font-size="10.00">+</text>
<text xml:space="preserve" text-anchor="start" x="27.75" y="-34" font-family="Helvetica,sans-Serif" font-size="10.00">override char Symbol</text>
<text xml:space="preserve" text-anchor="start" x="10.88" y="-19.5" font-family="Helvetica,sans-Serif" font-size="10.00">+</text>
<text xml:space="preserve" text-anchor="start" x="27.75" y="-19.5" font-family="Helvetica,sans-Serif" font-size="10.00">override int Damage</text>
<text xml:space="preserve" text-anchor="start" x="10.88" y="-5" font-family="Helvetica,sans-Serif" font-size="10.00">+</text>
<text xml:space="preserve" text-anchor="start" x="27.75" y="-5" font-family="Helvetica,sans-Serif" font-size="10.00">DoubleSword()</text>
<polygon fill="#666666" stroke="#666666" points="0,-85 0,-85 141.5,-85 141.5,-85 0,-85"/>
<polygon fill="#666666" stroke="#666666" points="0,-16.5 0,-16.5 25.75,-16.5 25.75,-16.5 0,-16.5"/>
<polygon fill="#666666" stroke="#666666" points="25.75,-16.5 25.75,-16.5 141.5,-16.5 141.5,-16.5 25.75,-16.5"/>
<polygon fill="none" stroke="#666666" points="0,0 0,-101.5 141.5,-101.5 141.5,0 0,0"/>
</a>
</g>
</g>
<!-- Node3&#45;&gt;Node4 -->
<g id="edge3_Node000003_Node000004" class="edge">
<title>Node3&#45;&gt;Node4</title>
<g id="a_edge3_Node000003_Node000004"><a xlink:title=" ">
<path fill="none" stroke="#63b8ff" d="M99.28,-127.07C95.88,-118.11 92.58,-109.4 89.51,-101.28"/>
<polygon fill="none" stroke="#63b8ff" points="95.95,-128.17 102.76,-136.28 102.5,-125.69 95.95,-128.17"/>
</a>
</g>
</g>
<!-- Node5 -->
<g id="Node000005" class="node">
<title>Node5</title>
<g id="a_Node000005"><a xlink:href="classRpgGame_1_1Items_1_1Sword.html" target="_top" xlink:title="Represents a standard one&#45;handed sword weapon.">
<polygon fill="white" stroke="none" points="273.75,-101.5 159.75,-101.5 159.75,0 273.75,0 273.75,-101.5"/>
<text xml:space="preserve" text-anchor="start" x="165.38" y="-88" font-family="Helvetica,sans-Serif" font-size="10.00">RpgGame.Items.Sword</text>
<text xml:space="preserve" text-anchor="start" x="163.75" y="-73.5" font-family="Helvetica,sans-Serif" font-size="10.00">+</text>
<text xml:space="preserve" text-anchor="start" x="173.75" y="-73.5" font-family="Helvetica,sans-Serif" font-size="10.00">override string Name</text>
<text xml:space="preserve" text-anchor="start" x="163.75" y="-59" font-family="Helvetica,sans-Serif" font-size="10.00">+</text>
<text xml:space="preserve" text-anchor="start" x="173.75" y="-59" font-family="Helvetica,sans-Serif" font-size="10.00">override ConsoleColor</text>
<text xml:space="preserve" text-anchor="start" x="173.75" y="-48.5" font-family="Helvetica,sans-Serif" font-size="10.00"> color</text>
<text xml:space="preserve" text-anchor="start" x="163.75" y="-34" font-family="Helvetica,sans-Serif" font-size="10.00">+</text>
<text xml:space="preserve" text-anchor="start" x="173.75" y="-34" font-family="Helvetica,sans-Serif" font-size="10.00">override char Symbol</text>
<text xml:space="preserve" text-anchor="start" x="163.75" y="-19.5" font-family="Helvetica,sans-Serif" font-size="10.00">+</text>
<text xml:space="preserve" text-anchor="start" x="173.75" y="-19.5" font-family="Helvetica,sans-Serif" font-size="10.00">override int Damage</text>
<text xml:space="preserve" text-anchor="start" x="163.75" y="-5" font-family="Helvetica,sans-Serif" font-size="10.00">+</text>
<text xml:space="preserve" text-anchor="start" x="173.75" y="-5" font-family="Helvetica,sans-Serif" font-size="10.00">Sword()</text>
<polygon fill="#666666" stroke="#666666" points="159.75,-85 159.75,-85 273.75,-85 273.75,-85 159.75,-85"/>
<polygon fill="#666666" stroke="#666666" points="159.75,-16.5 159.75,-16.5 171.75,-16.5 171.75,-16.5 159.75,-16.5"/>
<polygon fill="#666666" stroke="#666666" points="171.75,-16.5 171.75,-16.5 273.75,-16.5 273.75,-16.5 171.75,-16.5"/>
<polygon fill="none" stroke="#666666" points="159.75,0 159.75,-101.5 273.75,-101.5 273.75,0 159.75,0"/>
</a>
</g>
</g>
<!-- Node3&#45;&gt;Node5 -->
<g id="edge4_Node000003_Node000005" class="edge">
<title>Node3&#45;&gt;Node5</title>
<g id="a_edge4_Node000003_Node000005"><a xlink:title=" ">
<path fill="none" stroke="#63b8ff" d="M188.22,-127.07C191.62,-118.11 194.92,-109.4 197.99,-101.28"/>
<polygon fill="none" stroke="#63b8ff" points="185,-125.69 184.74,-136.28 191.55,-128.17 185,-125.69"/>
</a>
</g>
</g>
</g>
</svg>
