<?xml version="1.0" encoding="UTF-8" standalone="no"?>
<!DOCTYPE svg PUBLIC "-//W3C//DTD SVG 1.1//EN"
 "http://www.w3.org/Graphics/SVG/1.1/DTD/svg11.dtd">
<!-- Generated by graphviz version 13.1.2 (20250808.2320)
 -->
<!-- Title: RpgGame.Generation.IMapGenerator Pages: 1 -->
<svg width="320pt" height="196pt"
 viewBox="0.00 0.00 320.00 196.00" xmlns="http://www.w3.org/2000/svg" xmlns:xlink="http://www.w3.org/1999/xlink">
<g id="graph0" class="graph" transform="scale(1 1) rotate(0) translate(4 191.5)">
<title>RpgGame.Generation.IMapGenerator</title>
<!-- Node1 -->
<g id="Node000001" class="node">
<title>Node1</title>
<g id="a_Node000001"><a xlink:title="Defines the contract for procedural level generation strategies.">
<polygon fill="#999999" stroke="none" points="245.38,-187.5 74.62,-187.5 74.62,-129.5 245.38,-129.5 245.38,-187.5"/>
<text xml:space="preserve" text-anchor="start" x="78.62" y="-174" font-family="Helvetica,sans-Serif" font-size="10.00">RpgGame.Generation.IMapGenerator</text>
<text xml:space="preserve" text-anchor="start" x="158.5" y="-159.5" font-family="Helvetica,sans-Serif" font-size="10.00"> </text>
<text xml:space="preserve" text-anchor="start" x="94.12" y="-145" font-family="Helvetica,sans-Serif" font-size="10.00">+</text>
<text xml:space="preserve" text-anchor="start" x="119.62" y="-145" font-family="Helvetica,sans-Serif" font-size="10.00">Task GenerateAsync</text>
<text xml:space="preserve" text-anchor="start" x="119.62" y="-134.5" font-family="Helvetica,sans-Serif" font-size="10.00">(Level level)</text>
<polygon fill="#666666" stroke="#666666" points="74.62,-171 74.62,-171 245.38,-171 245.38,-171 74.62,-171"/>
<polygon fill="#666666" stroke="#666666" points="74.62,-156.5 74.62,-156.5 245.38,-156.5 245.38,-156.5 74.62,-156.5"/>
<polygon fill="none" stroke="#666666" points="74.62,-129.5 74.62,-187.5 245.38,-187.5 245.38,-129.5 74.62,-129.5"/>
</a>
</g>
</g>
<!-- Node2 -->
<g id="Node000002" class="node">
<title>Node2</title>
<g id="a_Node000002"><a xlink:href="classRpgGame_1_1Generation_1_1DungeonBuilder.html" target="_top" xlink:title="Implements the Builder Pattern to compose multiple dungeon generation procedures.">
<polygon fill="white" stroke="none" points="156,-93.5 0,-93.5 0,0 156,0 156,-93.5"/>
<text xml:space="preserve" text-anchor="start" x="9.38" y="-80" font-family="Helvetica,sans-Serif" font-size="10.00">RpgGame.Generation.Dungeon</text>
<text xml:space="preserve" text-anchor="start" x="63" y="-69.5" font-family="Helvetica,sans-Serif" font-size="10.00">Builder</text>
<text xml:space="preserve" text-anchor="start" x="76.5" y="-55" font-family="Helvetica,sans-Serif" font-size="10.00"> </text>
<text xml:space="preserve" text-anchor="start" x="4" y="-40.5" font-family="Helvetica,sans-Serif" font-size="10.00">+</text>
<text xml:space="preserve" text-anchor="start" x="14" y="-40.5" font-family="Helvetica,sans-Serif" font-size="10.00">DungeonBuilder Add</text>
<text xml:space="preserve" text-anchor="start" x="14" y="-30" font-family="Helvetica,sans-Serif" font-size="10.00">(IDungeonProcedure procedure)</text>
<text xml:space="preserve" text-anchor="start" x="4" y="-15.5" font-family="Helvetica,sans-Serif" font-size="10.00">+</text>
<text xml:space="preserve" text-anchor="start" x="14" y="-15.5" font-family="Helvetica,sans-Serif" font-size="10.00">async Task GenerateAsync</text>
<text xml:space="preserve" text-anchor="start" x="14" y="-5" font-family="Helvetica,sans-Serif" font-size="10.00">(Level level)</text>
<polygon fill="#666666" stroke="#666666" points="0,-66.5 0,-66.5 156,-66.5 156,-66.5 0,-66.5"/>
<polygon fill="#666666" stroke="#666666" points="0,-52 0,-52 156,-52 156,-52 0,-52"/>
<polygon fill="none" stroke="#666666" points="0,0 0,-93.5 156,-93.5 156,0 0,0"/>
</a>
</g>
</g>
<!-- Node1&#45;&gt;Node2 -->
<g id="edge1_Node000001_Node000002" class="edge">
<title>Node1&#45;&gt;Node2</title>
<g id="a_edge1_Node000001_Node000002"><a xlink:title=" ">
<path fill="none" stroke="#63b8ff" d="M132.25,-120.35C125.72,-111.62 118.69,-102.21 111.93,-93.16"/>
<polygon fill="none" stroke="#63b8ff" points="129.4,-122.39 138.19,-128.31 135.01,-118.2 129.4,-122.39"/>
</a>
</g>
</g>
<!-- Node3 -->
<g id="Node000003" class="node">
<title>Node3</title>
<g id="a_Node000003"><a xlink:href="classRpgGame_1_1Generation_1_1SimpleRoomGenerator.html" target="_top" xlink:title="Generates a simple room&#45;based level layout with borders, random wall clusters, and predefined item sp...">
<polygon fill="white" stroke="none" points="311.62,-81 174.38,-81 174.38,-12.5 311.62,-12.5 311.62,-81"/>
<text xml:space="preserve" text-anchor="start" x="178.88" y="-67.5" font-family="Helvetica,sans-Serif" font-size="10.00">RpgGame.Generation.Simple</text>
<text xml:space="preserve" text-anchor="start" x="208.5" y="-57" font-family="Helvetica,sans-Serif" font-size="10.00">RoomGenerator</text>
<text xml:space="preserve" text-anchor="start" x="241.5" y="-42.5" font-family="Helvetica,sans-Serif" font-size="10.00"> </text>
<text xml:space="preserve" text-anchor="start" x="178.38" y="-28" font-family="Helvetica,sans-Serif" font-size="10.00">+</text>
<text xml:space="preserve" text-anchor="start" x="188.38" y="-28" font-family="Helvetica,sans-Serif" font-size="10.00">async Task GenerateAsync</text>
<text xml:space="preserve" text-anchor="start" x="188.38" y="-17.5" font-family="Helvetica,sans-Serif" font-size="10.00">(Level level)</text>
<polygon fill="#666666" stroke="#666666" points="174.38,-54 174.38,-54 311.62,-54 311.62,-54 174.38,-54"/>
<polygon fill="#666666" stroke="#666666" points="174.38,-39.5 174.38,-39.5 311.62,-39.5 311.62,-39.5 174.38,-39.5"/>
<polygon fill="none" stroke="#666666" points="174.38,-12.5 174.38,-81 311.62,-81 311.62,-12.5 174.38,-12.5"/>
</a>
</g>
</g>
<!-- Node1&#45;&gt;Node3 -->
<g id="edge2_Node000001_Node000003" class="edge">
<title>Node1&#45;&gt;Node3</title>
<g id="a_edge2_Node000001_Node000003"><a xlink:title=" ">
<path fill="none" stroke="#63b8ff" d="M188.01,-120.46C197.74,-107.6 208.58,-93.27 218.04,-80.75"/>
<polygon fill="none" stroke="#63b8ff" points="185.31,-118.23 182.07,-128.31 190.9,-122.45 185.31,-118.23"/>
</a>
</g>
</g>
</g>
</svg>
