<?xml version="1.0" encoding="UTF-8" standalone="no"?>
<!DOCTYPE svg PUBLIC "-//W3C//DTD SVG 1.1//EN"
 "http://www.w3.org/Graphics/SVG/1.1/DTD/svg11.dtd">
<!-- Generated by graphviz version 2.43.0 (0)
 -->
<!-- Title: RpgGame.Items.IEquippable Pages: 1 -->
<svg width="169pt" height="261pt"
 viewBox="0.00 0.00 169.00 261.00" xmlns="http://www.w3.org/2000/svg" xmlns:xlink="http://www.w3.org/1999/xlink">
<g id="graph0" class="graph" transform="scale(1 1) rotate(0) translate(4 257)">
<title>RpgGame.Items.IEquippable</title>
<!-- Node1 -->
<g id="Node000001" class="node">
<title>Node1</title>
<g id="a_Node000001"><a xlink:title="Represents an item that can be equipped by the player.">
<polygon fill="#999999" stroke="transparent" points="155,-86 6,-86 6,0 155,0 155,-86"/>
<text text-anchor="start" x="11.5" y="-74" font-family="Helvetica,sans-Serif" font-size="10.00">RpgGame.Items.IEquippable</text>
<text text-anchor="start" x="79" y="-59" font-family="Helvetica,sans-Serif" font-size="10.00"> </text>
<text text-anchor="start" x="17" y="-44" font-family="Helvetica,sans-Serif" font-size="10.00">+</text>
<text text-anchor="start" x="36.5" y="-44" font-family="Helvetica,sans-Serif" font-size="10.00">bool TryEquipToLeft</text>
<text text-anchor="start" x="36.5" y="-33" font-family="Helvetica,sans-Serif" font-size="10.00">(Player player)</text>
<text text-anchor="start" x="17" y="-18" font-family="Helvetica,sans-Serif" font-size="10.00">+</text>
<text text-anchor="start" x="36.5" y="-18" font-family="Helvetica,sans-Serif" font-size="10.00">bool TryEquipToRight</text>
<text text-anchor="start" x="36.5" y="-7" font-family="Helvetica,sans-Serif" font-size="10.00">(Player player)</text>
<polygon fill="#666666" stroke="#666666" points="6.5,-69 6.5,-69 155.5,-69 155.5,-69 6.5,-69"/>
<polygon fill="#666666" stroke="#666666" points="6.5,-54 6.5,-54 155.5,-54 155.5,-54 6.5,-54"/>
<polygon fill="none" stroke="#666666" points="6,0 6,-86 155,-86 155,0 6,0"/>
</a>
</g>
</g>
<!-- Node2 -->
<g id="Node000002" class="node">
<title>Node2</title>
<g id="a_Node000002"><a xlink:href="interfaceRpgGame_1_1Items_1_1IItem.html" target="_top" xlink:title="Defines the contract for all items that can exist within the game world.">
<polygon fill="white" stroke="transparent" points="161,-253 0,-253 0,-122 161,-122 161,-253"/>
<text text-anchor="start" x="68" y="-240.5" font-family="Helvetica,sans-Serif" font-size="10.00">IItem</text>
<text text-anchor="start" x="4.5" y="-225.5" font-family="Helvetica,sans-Serif" font-size="10.00">+</text>
<text text-anchor="start" x="17.5" y="-225.5" font-family="Helvetica,sans-Serif" font-size="10.00">string Name</text>
<text text-anchor="start" x="4.5" y="-210.5" font-family="Helvetica,sans-Serif" font-size="10.00">+</text>
<text text-anchor="start" x="17.5" y="-210.5" font-family="Helvetica,sans-Serif" font-size="10.00">char Symbol</text>
<text text-anchor="start" x="4.5" y="-195.5" font-family="Helvetica,sans-Serif" font-size="10.00">+</text>
<text text-anchor="start" x="17.5" y="-195.5" font-family="Helvetica,sans-Serif" font-size="10.00">ConsoleColor color</text>
<text text-anchor="start" x="4.5" y="-180.5" font-family="Helvetica,sans-Serif" font-size="10.00">+</text>
<text text-anchor="start" x="17.5" y="-180.5" font-family="Helvetica,sans-Serif" font-size="10.00">string GetDescription()</text>
<text text-anchor="start" x="4.5" y="-165.5" font-family="Helvetica,sans-Serif" font-size="10.00">+</text>
<text text-anchor="start" x="17.5" y="-165.5" font-family="Helvetica,sans-Serif" font-size="10.00">bool OnPickup(Player</text>
<text text-anchor="start" x="17.5" y="-154.5" font-family="Helvetica,sans-Serif" font-size="10.00"> player, Inventory inventory)</text>
<text text-anchor="start" x="4.5" y="-139.5" font-family="Helvetica,sans-Serif" font-size="10.00">+</text>
<text text-anchor="start" x="17.5" y="-139.5" font-family="Helvetica,sans-Serif" font-size="10.00">void OnDrop(Level level,</text>
<text text-anchor="start" x="17.5" y="-128.5" font-family="Helvetica,sans-Serif" font-size="10.00"> Player player)</text>
<polygon fill="#666666" stroke="#666666" points="0.5,-235.5 0.5,-235.5 161.5,-235.5 161.5,-235.5 0.5,-235.5"/>
<polygon fill="#666666" stroke="#666666" points="0.5,-190.5 0.5,-190.5 15.5,-190.5 15.5,-190.5 0.5,-190.5"/>
<polygon fill="#666666" stroke="#666666" points="15.5,-190.5 15.5,-190.5 161.5,-190.5 161.5,-190.5 15.5,-190.5"/>
<polygon fill="none" stroke="#666666" points="0,-122 0,-253 161,-253 161,-122 0,-122"/>
</a>
</g>
</g>
<!-- Node2&#45;&gt;Node1 -->
<g id="edge1_Node000001_Node000002" class="edge">
<title>Node2&#45;&gt;Node1</title>
<g id="a_edge1_Node000001_Node000002"><a xlink:title=" ">
<path fill="none" stroke="#63b8ff" d="M80.5,-111.7C80.5,-103 80.5,-94.36 80.5,-86.32"/>
<polygon fill="none" stroke="#63b8ff" points="77,-111.92 80.5,-121.92 84,-111.92 77,-111.92"/>
</a>
</g>
</g>
</g>
</svg>
