<?xml version="1.0" encoding="UTF-8" standalone="no"?>
<!DOCTYPE svg PUBLIC "-//W3C//DTD SVG 1.1//EN"
 "http://www.w3.org/Graphics/SVG/1.1/DTD/svg11.dtd">
<!-- Generated by graphviz version 2.43.0 (0)
 -->
<!-- Title: RpgGame.Generation.IDungeonProcedure Pages: 1 -->
<!--zoomable 256 -->

<svg id="main" version="1.1" xmlns="http://www.w3.org/2000/svg" xmlns:xlink="http://www.w3.org/1999/xlink" xml:space="preserve" onload="init(evt)">
<style type="text/css"><![CDATA[
.node, .edge {opacity: 0.7;}
.node.selected, .edge.selected {opacity: 1;}
.edge:hover path { stroke: red; }
.edge:hover polygon { stroke: red; fill: red; }
]]></style>

<defs>
  <circle id="rim" cx="0" cy="0" r="7"/>
  <circle id="rim2" cx="0" cy="0" r="3.5"/>
  <g id="zoomPlus">
    <use xlink:href="#rim" fill="#404040"><set attributeName="fill" to="#808080" begin="zoomplus.mouseover" end="zoomplus.mouseout"/></use>
    <path d="M-4,0h8M0,-4v8" fill="none" stroke="white" stroke-width="1.5" pointer-events="none"/>
  </g>
  <g id="zoomMin">
    <use xlink:href="#rim" fill="#404040"><set attributeName="fill" to="#808080" begin="zoomminus.mouseover" end="zoomminus.mouseout"/></use>
    <path d="M-4,0h8" fill="none" stroke="white" stroke-width="1.5" pointer-events="none"/>
  </g>
  <g id="arrowUp" transform="translate(30 24)">
    <use xlink:href="#rim"/>
    <path pointer-events="none" fill="none" stroke="white" stroke-width="1.5" d="M0,-3.0v7 M-2.5,-0.5L0,-3.0L2.5,-0.5"/>
  </g>
  <g id="arrowRight" transform="rotate(90) translate(36 -43)">
    <use xlink:href="#rim"/>
    <path pointer-events="none" fill="none" stroke="white" stroke-width="1.5" d="M0,-3.0v7 M-2.5,-0.5L0,-3.0L2.5,-0.5"/>
  </g>
  <g id="arrowDown" transform="rotate(180) translate(-30 -48)">
    <use xlink:href="#rim"/>
    <path pointer-events="none" fill="none" stroke="white" stroke-width="1.5" d="M0,-3.0v7 M-2.5,-0.5L0,-3.0L2.5,-0.5"/>
  </g>
  <g id="arrowLeft" transform="rotate(270) translate(-36 17)">
    <use xlink:href="#rim"/>
    <path pointer-events="none" fill="none" stroke="white" stroke-width="1.5" d="M0,-3.0v7 M-2.5,-0.5L0,-3.0L2.5,-0.5"/>
  </g>
  <g id="resetDef">
    <use xlink:href="#rim2" fill="#404040"><set attributeName="fill" to="#808080" begin="reset.mouseover" end="reset.mouseout"/></use>
  </g>
</defs>
<script type="application/ecmascript">
var viewWidth = 1348;
var viewHeight = 256;
var sectionId = 'dynsection-0';
</script>
<script type="application/ecmascript" xlink:href="svg.min.js"/>
<svg id="graph" class="graph">
<g id="viewport">
<title>RpgGame.Generation.IDungeonProcedure</title>
<!-- Node1 -->
<g id="Node000001" class="node">
<title>Node1</title>
<g id="a_Node000001"><a xlink:title="Defines a procedural step in dungeon generation.">
<polygon fill="#999999" stroke="transparent" points="752.5,-248 587.5,-248 587.5,-166 752.5,-166 752.5,-248"/>
<text text-anchor="start" x="593" y="-236" font-family="Helvetica,sans-Serif" font-size="10.00">RpgGame.Generation.IDungeon</text>
<text text-anchor="start" x="646" y="-225" font-family="Helvetica,sans-Serif" font-size="10.00">Procedure</text>
<text text-anchor="start" x="668.5" y="-210" font-family="Helvetica,sans-Serif" font-size="10.00"> </text>
<text text-anchor="start" x="599" y="-195" font-family="Helvetica,sans-Serif" font-size="10.00">+</text>
<text text-anchor="start" x="619" y="-195" font-family="Helvetica,sans-Serif" font-size="10.00">Task ApplyAsync(Level</text>
<text text-anchor="start" x="619" y="-184" font-family="Helvetica,sans-Serif" font-size="10.00"> level, DungeonContext</text>
<text text-anchor="start" x="619" y="-173" font-family="Helvetica,sans-Serif" font-size="10.00"> context)</text>
<polygon fill="#666666" stroke="#666666" points="588,-220 588,-220 753,-220 753,-220 588,-220"/>
<polygon fill="#666666" stroke="#666666" points="588,-205 588,-205 753,-205 753,-205 588,-205"/>
<polygon fill="none" stroke="#666666" points="587.5,-166 587.5,-248 752.5,-248 752.5,-166 587.5,-166"/>
</a>
</g>
</g>
<!-- Node2 -->
<g id="Node000002" class="node">
<title>Node2</title>
<g id="a_Node000002"><a xlink:href="classRpgGame_1_1Generation_1_1Procedures_1_1AddItemsProcedure.html" target="_top" xlink:title="Spawns treasure items (coins and gold) at random locations in the dungeon.">
<polygon fill="white" stroke="transparent" points="176,-130 0,-130 0,0 176,0 176,-130"/>
<text text-anchor="start" x="5" y="-118" font-family="Helvetica,sans-Serif" font-size="10.00">RpgGame.Generation.Procedures.</text>
<text text-anchor="start" x="40" y="-107" font-family="Helvetica,sans-Serif" font-size="10.00">AddItemsProcedure</text>
<text text-anchor="start" x="86" y="-92" font-family="Helvetica,sans-Serif" font-size="10.00"> </text>
<text text-anchor="start" x="5" y="-77" font-family="Helvetica,sans-Serif" font-size="10.00">+</text>
<text text-anchor="start" x="19" y="-77" font-family="Helvetica,sans-Serif" font-size="10.00">AddItemsProcedure</text>
<text text-anchor="start" x="19" y="-66" font-family="Helvetica,sans-Serif" font-size="10.00">(int CoinCount=5, int</text>
<text text-anchor="start" x="19" y="-55" font-family="Helvetica,sans-Serif" font-size="10.00"> GoldCount=2, int PotionCount</text>
<text text-anchor="start" x="19" y="-44" font-family="Helvetica,sans-Serif" font-size="10.00">=2, int ThornCount=1)</text>
<text text-anchor="start" x="5" y="-29" font-family="Helvetica,sans-Serif" font-size="10.00">+</text>
<text text-anchor="start" x="19" y="-29" font-family="Helvetica,sans-Serif" font-size="10.00">async Task ApplyAsync</text>
<text text-anchor="start" x="19" y="-18" font-family="Helvetica,sans-Serif" font-size="10.00">(Level level, DungeonContext</text>
<text text-anchor="start" x="19" y="-7" font-family="Helvetica,sans-Serif" font-size="10.00"> context)</text>
<polygon fill="#666666" stroke="#666666" points="0,-102 0,-102 176,-102 176,-102 0,-102"/>
<polygon fill="#666666" stroke="#666666" points="0,-87 0,-87 176,-87 176,-87 0,-87"/>
<polygon fill="none" stroke="#666666" points="0,0 0,-130 176,-130 176,0 0,0"/>
</a>
</g>
</g>
<!-- Node1&#45;&gt;Node2 -->
<g id="edge1_Node000001_Node000002" class="edge">
<title>Node1&#45;&gt;Node2</title>
<g id="a_edge1_Node000001_Node000002"><a xlink:title=" ">
<path fill="none" stroke="#63b8ff" d="M577.38,-203.15C477.48,-197.43 315.25,-180.42 185,-130 182.08,-128.87 179.16,-127.64 176.25,-126.34"/>
<polygon fill="none" stroke="#63b8ff" points="577.27,-206.64 587.45,-203.69 577.65,-199.65 577.27,-206.64"/>
</a>
</g>
</g>
<!-- Node3 -->
<g id="Node000003" class="node">
<title>Node3</title>
<g id="a_Node000003"><a xlink:href="classRpgGame_1_1Generation_1_1Procedures_1_1AddWeaponsProcedure.html" target="_top" xlink:title="Spawns weapons (swords and double swords) at random locations in the dungeon.">
<polygon fill="white" stroke="transparent" points="370,-124.5 194,-124.5 194,-5.5 370,-5.5 370,-124.5"/>
<text text-anchor="start" x="199" y="-112" font-family="Helvetica,sans-Serif" font-size="10.00">RpgGame.Generation.Procedures.</text>
<text text-anchor="start" x="226" y="-101" font-family="Helvetica,sans-Serif" font-size="10.00">AddWeaponsProcedure</text>
<text text-anchor="start" x="280" y="-86" font-family="Helvetica,sans-Serif" font-size="10.00"> </text>
<text text-anchor="start" x="200.5" y="-71" font-family="Helvetica,sans-Serif" font-size="10.00">+</text>
<text text-anchor="start" x="216" y="-71" font-family="Helvetica,sans-Serif" font-size="10.00">AddWeaponsProcedure</text>
<text text-anchor="start" x="216" y="-60" font-family="Helvetica,sans-Serif" font-size="10.00">(int SwordCount=2, int</text>
<text text-anchor="start" x="216" y="-49" font-family="Helvetica,sans-Serif" font-size="10.00"> DoubleSwordCount=1)</text>
<text text-anchor="start" x="200.5" y="-34" font-family="Helvetica,sans-Serif" font-size="10.00">+</text>
<text text-anchor="start" x="216" y="-34" font-family="Helvetica,sans-Serif" font-size="10.00">async Task ApplyAsync</text>
<text text-anchor="start" x="216" y="-23" font-family="Helvetica,sans-Serif" font-size="10.00">(Level level, DungeonContext</text>
<text text-anchor="start" x="216" y="-12" font-family="Helvetica,sans-Serif" font-size="10.00"> context)</text>
<polygon fill="#666666" stroke="#666666" points="194,-96 194,-96 370,-96 370,-96 194,-96"/>
<polygon fill="#666666" stroke="#666666" points="194,-81 194,-81 370,-81 370,-81 194,-81"/>
<polygon fill="none" stroke="#666666" points="194,-5.5 194,-124.5 370,-124.5 370,-5.5 194,-5.5"/>
</a>
</g>
</g>
<!-- Node1&#45;&gt;Node3 -->
<g id="edge2_Node000001_Node000003" class="edge">
<title>Node1&#45;&gt;Node3</title>
<g id="a_edge2_Node000001_Node000003"><a xlink:title=" ">
<path fill="none" stroke="#63b8ff" d="M577.33,-189.89C518.83,-177.77 442.57,-158.34 379,-130 375.22,-128.32 371.43,-126.49 367.64,-124.56"/>
<polygon fill="none" stroke="#63b8ff" points="576.8,-193.35 587.3,-191.92 578.2,-186.49 576.8,-193.35"/>
</a>
</g>
</g>
<!-- Node4 -->
<g id="Node000004" class="node">
<title>Node4</title>
<g id="a_Node000004"><a xlink:href="classRpgGame_1_1Generation_1_1Procedures_1_1CentralRoomProcedure.html" target="_top" xlink:title="Generates a central room in the dungeon.">
<polygon fill="white" stroke="transparent" points="564,-119 388,-119 388,-11 564,-11 564,-119"/>
<text text-anchor="start" x="393" y="-107" font-family="Helvetica,sans-Serif" font-size="10.00">RpgGame.Generation.Procedures.</text>
<text text-anchor="start" x="419.5" y="-96" font-family="Helvetica,sans-Serif" font-size="10.00">CentralRoomProcedure</text>
<text text-anchor="start" x="474" y="-81" font-family="Helvetica,sans-Serif" font-size="10.00"> </text>
<text text-anchor="start" x="402" y="-66" font-family="Helvetica,sans-Serif" font-size="10.00">+</text>
<text text-anchor="start" x="425" y="-66" font-family="Helvetica,sans-Serif" font-size="10.00">CentralRoomProcedure</text>
<text text-anchor="start" x="425" y="-55" font-family="Helvetica,sans-Serif" font-size="10.00">(int width, int height)</text>
<text text-anchor="start" x="402" y="-40" font-family="Helvetica,sans-Serif" font-size="10.00">+</text>
<text text-anchor="start" x="425" y="-40" font-family="Helvetica,sans-Serif" font-size="10.00">Task ApplyAsync(Level</text>
<text text-anchor="start" x="425" y="-29" font-family="Helvetica,sans-Serif" font-size="10.00"> level, DungeonContext</text>
<text text-anchor="start" x="425" y="-18" font-family="Helvetica,sans-Serif" font-size="10.00"> context)</text>
<polygon fill="#666666" stroke="#666666" points="388,-91 388,-91 564,-91 564,-91 388,-91"/>
<polygon fill="#666666" stroke="#666666" points="388,-76 388,-76 564,-76 564,-76 388,-76"/>
<polygon fill="none" stroke="#666666" points="388,-11 388,-119 564,-119 564,-11 388,-11"/>
</a>
</g>
</g>
<!-- Node1&#45;&gt;Node4 -->
<g id="edge3_Node000001_Node000004" class="edge">
<title>Node1&#45;&gt;Node4</title>
<g id="a_edge3_Node000001_Node000004"><a xlink:title=" ">
<path fill="none" stroke="#63b8ff" d="M606.23,-159.98C588.15,-146.93 568.31,-132.62 549.69,-119.18"/>
<polygon fill="none" stroke="#63b8ff" points="604.25,-162.87 614.41,-165.88 608.35,-157.19 604.25,-162.87"/>
</a>
</g>
</g>
<!-- Node5 -->
<g id="Node000005" class="node">
<title>Node5</title>
<g id="a_Node000005"><a xlink:href="classRpgGame_1_1Generation_1_1Procedures_1_1ChambersProcedure.html" target="_top" xlink:title="Generates multiple random chamber rooms in the dungeon.">
<polygon fill="white" stroke="transparent" points="758,-119 582,-119 582,-11 758,-11 758,-119"/>
<text text-anchor="start" x="587" y="-107" font-family="Helvetica,sans-Serif" font-size="10.00">RpgGame.Generation.Procedures.</text>
<text text-anchor="start" x="620.5" y="-96" font-family="Helvetica,sans-Serif" font-size="10.00">ChambersProcedure</text>
<text text-anchor="start" x="668" y="-81" font-family="Helvetica,sans-Serif" font-size="10.00"> </text>
<text text-anchor="start" x="596" y="-66" font-family="Helvetica,sans-Serif" font-size="10.00">+</text>
<text text-anchor="start" x="619" y="-66" font-family="Helvetica,sans-Serif" font-size="10.00">ChambersProcedure</text>
<text text-anchor="start" x="619" y="-55" font-family="Helvetica,sans-Serif" font-size="10.00">(int roomCount)</text>
<text text-anchor="start" x="596" y="-40" font-family="Helvetica,sans-Serif" font-size="10.00">+</text>
<text text-anchor="start" x="619" y="-40" font-family="Helvetica,sans-Serif" font-size="10.00">Task ApplyAsync(Level</text>
<text text-anchor="start" x="619" y="-29" font-family="Helvetica,sans-Serif" font-size="10.00"> level, DungeonContext</text>
<text text-anchor="start" x="619" y="-18" font-family="Helvetica,sans-Serif" font-size="10.00"> context)</text>
<polygon fill="#666666" stroke="#666666" points="582,-91 582,-91 758,-91 758,-91 582,-91"/>
<polygon fill="#666666" stroke="#666666" points="582,-76 582,-76 758,-76 758,-76 582,-76"/>
<polygon fill="none" stroke="#666666" points="582,-11 582,-119 758,-119 758,-11 582,-11"/>
</a>
</g>
</g>
<!-- Node1&#45;&gt;Node5 -->
<g id="edge4_Node000001_Node000005" class="edge">
<title>Node1&#45;&gt;Node5</title>
<g id="a_edge4_Node000001_Node000005"><a xlink:title=" ">
<path fill="none" stroke="#63b8ff" d="M670,-155.71C670,-143.85 670,-131.16 670,-119.18"/>
<polygon fill="none" stroke="#63b8ff" points="666.5,-155.88 670,-165.88 673.5,-155.88 666.5,-155.88"/>
</a>
</g>
</g>
<!-- Node6 -->
<g id="Node000006" class="node">
<title>Node6</title>
<g id="a_Node000006"><a xlink:href="classRpgGame_1_1Generation_1_1Procedures_1_1EmptyDungeonProcedure.html" target="_top" xlink:title="Fills the entire dungeon with floor tiles, creating an empty open space.">
<polygon fill="white" stroke="transparent" points="952,-106 776,-106 776,-24 952,-24 952,-106"/>
<text text-anchor="start" x="781" y="-94" font-family="Helvetica,sans-Serif" font-size="10.00">RpgGame.Generation.Procedures.</text>
<text text-anchor="start" x="802" y="-83" font-family="Helvetica,sans-Serif" font-size="10.00">EmptyDungeonProcedure</text>
<text text-anchor="start" x="862" y="-68" font-family="Helvetica,sans-Serif" font-size="10.00"> </text>
<text text-anchor="start" x="790" y="-53" font-family="Helvetica,sans-Serif" font-size="10.00">+</text>
<text text-anchor="start" x="813" y="-53" font-family="Helvetica,sans-Serif" font-size="10.00">Task ApplyAsync(Level</text>
<text text-anchor="start" x="813" y="-42" font-family="Helvetica,sans-Serif" font-size="10.00"> level, DungeonContext</text>
<text text-anchor="start" x="813" y="-31" font-family="Helvetica,sans-Serif" font-size="10.00"> context)</text>
<polygon fill="#666666" stroke="#666666" points="776,-78 776,-78 952,-78 952,-78 776,-78"/>
<polygon fill="#666666" stroke="#666666" points="776,-63 776,-63 952,-63 952,-63 776,-63"/>
<polygon fill="none" stroke="#666666" points="776,-24 776,-106 952,-106 952,-24 776,-24"/>
</a>
</g>
</g>
<!-- Node1&#45;&gt;Node6 -->
<g id="edge5_Node000001_Node000006" class="edge">
<title>Node1&#45;&gt;Node6</title>
<g id="a_edge5_Node000001_Node000006"><a xlink:title=" ">
<path fill="none" stroke="#63b8ff" d="M733.96,-159.84C758.02,-142.48 785.16,-122.89 808.4,-106.12"/>
<polygon fill="none" stroke="#63b8ff" points="731.65,-157.19 725.59,-165.88 735.75,-162.87 731.65,-157.19"/>
</a>
</g>
</g>
<!-- Node7 -->
<g id="Node000007" class="node">
<title>Node7</title>
<g id="a_Node000007"><a xlink:href="classRpgGame_1_1Generation_1_1Procedures_1_1FilledDungeonProcedure.html" target="_top" xlink:title="Fills the entire dungeon with wall tiles, creating a solid base for carving.">
<polygon fill="white" stroke="transparent" points="1146,-106 970,-106 970,-24 1146,-24 1146,-106"/>
<text text-anchor="start" x="975" y="-94" font-family="Helvetica,sans-Serif" font-size="10.00">RpgGame.Generation.Procedures.</text>
<text text-anchor="start" x="998.5" y="-83" font-family="Helvetica,sans-Serif" font-size="10.00">FilledDungeonProcedure</text>
<text text-anchor="start" x="1056" y="-68" font-family="Helvetica,sans-Serif" font-size="10.00"> </text>
<text text-anchor="start" x="984" y="-53" font-family="Helvetica,sans-Serif" font-size="10.00">+</text>
<text text-anchor="start" x="1007" y="-53" font-family="Helvetica,sans-Serif" font-size="10.00">Task ApplyAsync(Level</text>
<text text-anchor="start" x="1007" y="-42" font-family="Helvetica,sans-Serif" font-size="10.00"> level, DungeonContext</text>
<text text-anchor="start" x="1007" y="-31" font-family="Helvetica,sans-Serif" font-size="10.00"> context)</text>
<polygon fill="#666666" stroke="#666666" points="970,-78 970,-78 1146,-78 1146,-78 970,-78"/>
<polygon fill="#666666" stroke="#666666" points="970,-63 970,-63 1146,-63 1146,-63 970,-63"/>
<polygon fill="none" stroke="#666666" points="970,-24 970,-106 1146,-106 1146,-24 970,-24"/>
</a>
</g>
</g>
<!-- Node1&#45;&gt;Node7 -->
<g id="edge6_Node000001_Node000007" class="edge">
<title>Node1&#45;&gt;Node7</title>
<g id="a_edge6_Node000001_Node000007"><a xlink:title=" ">
<path fill="none" stroke="#63b8ff" d="M762.67,-189.89C821.17,-177.77 897.43,-158.34 961,-130 975.65,-123.47 990.56,-114.82 1004.14,-106"/>
<polygon fill="none" stroke="#63b8ff" points="761.8,-186.49 752.7,-191.92 763.2,-193.35 761.8,-186.49"/>
</a>
</g>
</g>
<!-- Node8 -->
<g id="Node000008" class="node">
<title>Node8</title>
<g id="a_Node000008"><a xlink:href="classRpgGame_1_1Generation_1_1Procedures_1_1PathsProcedure.html" target="_top" xlink:title="Generates corridors connecting all rooms to a central room.">
<polygon fill="white" stroke="transparent" points="1340,-106 1164,-106 1164,-24 1340,-24 1340,-106"/>
<text text-anchor="start" x="1169" y="-94" font-family="Helvetica,sans-Serif" font-size="10.00">RpgGame.Generation.Procedures.</text>
<text text-anchor="start" x="1214" y="-83" font-family="Helvetica,sans-Serif" font-size="10.00">PathsProcedure</text>
<text text-anchor="start" x="1250" y="-68" font-family="Helvetica,sans-Serif" font-size="10.00"> </text>
<text text-anchor="start" x="1178" y="-53" font-family="Helvetica,sans-Serif" font-size="10.00">+</text>
<text text-anchor="start" x="1201" y="-53" font-family="Helvetica,sans-Serif" font-size="10.00">Task ApplyAsync(Level</text>
<text text-anchor="start" x="1201" y="-42" font-family="Helvetica,sans-Serif" font-size="10.00"> level, DungeonContext</text>
<text text-anchor="start" x="1201" y="-31" font-family="Helvetica,sans-Serif" font-size="10.00"> context)</text>
<polygon fill="#666666" stroke="#666666" points="1164,-78 1164,-78 1340,-78 1340,-78 1164,-78"/>
<polygon fill="#666666" stroke="#666666" points="1164,-63 1164,-63 1340,-63 1340,-63 1164,-63"/>
<polygon fill="none" stroke="#666666" points="1164,-24 1164,-106 1340,-106 1340,-24 1164,-24"/>
</a>
</g>
</g>
<!-- Node1&#45;&gt;Node8 -->
<g id="edge7_Node000001_Node000008" class="edge">
<title>Node1&#45;&gt;Node8</title>
<g id="a_edge7_Node000001_Node000008"><a xlink:title=" ">
<path fill="none" stroke="#63b8ff" d="M762.62,-203.15C862.52,-197.43 1024.75,-180.42 1155,-130 1170.52,-123.99 1186.11,-115.21 1200.12,-106.06"/>
<polygon fill="none" stroke="#63b8ff" points="762.35,-199.65 752.55,-203.69 762.73,-206.64 762.35,-199.65"/>
</a>
</g>
</g>
</g>
</svg>

<g id="navigator" transform="translate(0 0)" fill="#404254">
  <rect fill="#f2f5e9" fill-opacity="0.5" stroke="#606060" stroke-width=".5" x="0" y="0" width="60" height="60"/>
  <use id="zoomplus" xlink:href="#zoomPlus" x="17" y="9" onmousedown="handleZoom(evt,'in')"/>
  <use id="zoomminus" xlink:href="#zoomMin" x="42" y="9" onmousedown="handleZoom(evt,'out')"/>
  <use id="reset" xlink:href="#resetDef" x="30" y="36" onmousedown="handleReset()"/>
   <use id="arrowup" xlink:href="#arrowUp" x="0" y="0" onmousedown="handlePan(0,-1)"/>
  <use id="arrowright" xlink:href="#arrowRight" x="0" y="0" onmousedown="handlePan(1,0)"/>
  <use id="arrowdown" xlink:href="#arrowDown" x="0" y="0" onmousedown="handlePan(0,1)"/>
  <use id="arrowleft" xlink:href="#arrowLeft" x="0" y="0" onmousedown="handlePan(-1,0)"/>
</g>
<svg viewBox="0 0 15 15" width="100%" height="30px" preserveAspectRatio="xMaxYMin meet">
 <g id="arrow_out" transform="scale(0.3 0.3)">
  <a xlink:href="interfaceRpgGame_1_1Generation_1_1IDungeonProcedure__inherit__graph_org.svg" target="_base">
   <rect id="button" ry="5" rx="5" y="6" x="6" height="38" width="38"
        fill="#f2f5e9" fill-opacity="0.5" stroke="#606060" stroke-width="1.0"/>
   <path id="arrow"
     d="M 11.500037,31.436501 C 11.940474,20.09759 22.043105,11.32322 32.158766,21.979434 L 37.068811,17.246167 C 37.068811,17.246167 37.088388,32 37.088388,32 L 22.160133,31.978069 C 22.160133,31.978069 26.997745,27.140456 26.997745,27.140456 C 18.528582,18.264221 13.291696,25.230495 11.500037,31.436501 z"
     style="fill:#404040;"/>
  </a>
 </g>
</svg>

<style type='text/css'>
<![CDATA[
[data-mouse-over-selected='false'] { opacity: 0.7; }
[data-mouse-over-selected='true']  { opacity: 1.0; }
]]>
</style>
<script type="application/ecmascript"><![CDATA[
document.addEventListener('DOMContentLoaded', (event) => {
  highlightEdges();
  highlightAdjacentNodes();
});
]]></script>
</svg>
