<?xml version="1.0" encoding="UTF-8" standalone="no"?>
<!DOCTYPE svg PUBLIC "-//W3C//DTD SVG 1.1//EN"
 "http://www.w3.org/Graphics/SVG/1.1/DTD/svg11.dtd">
<!-- Generated by graphviz version 2.43.0 (0)
 -->
<!-- Title: RpgGame.Generation.Strategies.IDungeonStrategy Pages: 1 -->
<svg width="368pt" height="164pt"
 viewBox="0.00 0.00 368.00 164.00" xmlns="http://www.w3.org/2000/svg" xmlns:xlink="http://www.w3.org/1999/xlink">

<svg id="main" version="1.1" xmlns="http://www.w3.org/2000/svg" xmlns:xlink="http://www.w3.org/1999/xlink" xml:space="preserve" onload="init(evt)">
<style type="text/css"><![CDATA[
.node, .edge {opacity: 0.7;}
.node.selected, .edge.selected {opacity: 1;}
.edge:hover path { stroke: red; }
.edge:hover polygon { stroke: red; fill: red; }
]]></style>
<script type="application/ecmascript" xlink:href="svg.min.js"/>
<svg id="graph" class="graph">
<g id="graph0" class="graph" transform="scale(1 1) rotate(0) translate(4 160)">
<title>RpgGame.Generation.Strategies.IDungeonStrategy</title>
<!-- Node1 -->
<g id="Node000001" class="node">
<title>Node1</title>
<g id="a_Node000001"><a xlink:title="Defines the contract for dungeon generation strategies.">
<polygon fill="#999999" stroke="transparent" points="265,-156 94,-156 94,-96 265,-96 265,-156"/>
<text text-anchor="start" x="99.5" y="-144" font-family="Helvetica,sans-Serif" font-size="10.00">RpgGame.Generation.Strategies.</text>
<text text-anchor="start" x="136" y="-133" font-family="Helvetica,sans-Serif" font-size="10.00">IDungeonStrategy</text>
<text text-anchor="start" x="178" y="-118" font-family="Helvetica,sans-Serif" font-size="10.00"> </text>
<text text-anchor="start" x="105.5" y="-103" font-family="Helvetica,sans-Serif" font-size="10.00">+</text>
<text text-anchor="start" x="125.5" y="-103" font-family="Helvetica,sans-Serif" font-size="10.00">DungeonBuilder Create()</text>
<polygon fill="#666666" stroke="#666666" points="94.5,-128 94.5,-128 265.5,-128 265.5,-128 94.5,-128"/>
<polygon fill="#666666" stroke="#666666" points="94.5,-113 94.5,-113 265.5,-113 265.5,-113 94.5,-113"/>
<polygon fill="none" stroke="#666666" points="94,-96 94,-156 265,-156 265,-96 94,-96"/>
</a>
</g>
</g>
<!-- Node2 -->
<g id="Node000002" class="node">
<title>Node2</title>
<g id="a_Node000002"><a xlink:href="classRpgGame_1_1Generation_1_1Strategies_1_1DungeonGroundsStrategy.html" target="_top" xlink:title="A concrete dungeon generation strategy that creates a complex dungeon with rooms, corridors,...">
<polygon fill="white" stroke="transparent" points="171,-60 0,-60 0,0 171,0 171,-60"/>
<text text-anchor="start" x="5.5" y="-48" font-family="Helvetica,sans-Serif" font-size="10.00">RpgGame.Generation.Strategies.</text>
<text text-anchor="start" x="23" y="-37" font-family="Helvetica,sans-Serif" font-size="10.00">DungeonGroundsStrategy</text>
<text text-anchor="start" x="84" y="-22" font-family="Helvetica,sans-Serif" font-size="10.00"> </text>
<text text-anchor="start" x="11.5" y="-7" font-family="Helvetica,sans-Serif" font-size="10.00">+</text>
<text text-anchor="start" x="31.5" y="-7" font-family="Helvetica,sans-Serif" font-size="10.00">DungeonBuilder Create()</text>
<polygon fill="#666666" stroke="#666666" points="0.5,-32 0.5,-32 171.5,-32 171.5,-32 0.5,-32"/>
<polygon fill="#666666" stroke="#666666" points="0.5,-17 0.5,-17 171.5,-17 171.5,-17 0.5,-17"/>
<polygon fill="none" stroke="#666666" points="0,0 0,-60 171,-60 171,0 0,0"/>
</a>
</g>
</g>
<!-- Node1&#45;&gt;Node2 -->
<g id="edge1_Node000001_Node000002" class="edge">
<title>Node1&#45;&gt;Node2</title>
<g id="a_edge1_Node000001_Node000002"><a xlink:title=" ">
<path fill="none" stroke="#63b8ff" d="M142.93,-88.43C133.57,-79.07 123.64,-69.14 114.71,-60.21"/>
<polygon fill="none" stroke="#63b8ff" points="140.73,-91.18 150.27,-95.77 145.68,-86.23 140.73,-91.18"/>
</a>
</g>
</g>
<!-- Node3 -->
<g id="Node000003" class="node">
<title>Node3</title>
<g id="a_Node000003"><a xlink:href="classRpgGame_1_1Generation_1_1Strategies_1_1DungeonSandboxStrategy.html" target="_top" xlink:title="A concrete dungeon generation strategy that creates an empty dungeon with on central room,...">
<polygon fill="white" stroke="transparent" points="360,-60 189,-60 189,0 360,0 360,-60"/>
<text text-anchor="start" x="194.5" y="-48" font-family="Helvetica,sans-Serif" font-size="10.00">RpgGame.Generation.Strategies.</text>
<text text-anchor="start" x="211.5" y="-37" font-family="Helvetica,sans-Serif" font-size="10.00">DungeonSandboxStrategy</text>
<text text-anchor="start" x="273" y="-22" font-family="Helvetica,sans-Serif" font-size="10.00"> </text>
<text text-anchor="start" x="200.5" y="-7" font-family="Helvetica,sans-Serif" font-size="10.00">+</text>
<text text-anchor="start" x="220.5" y="-7" font-family="Helvetica,sans-Serif" font-size="10.00">DungeonBuilder Create()</text>
<polygon fill="#666666" stroke="#666666" points="189.5,-32 189.5,-32 360.5,-32 360.5,-32 189.5,-32"/>
<polygon fill="#666666" stroke="#666666" points="189.5,-17 189.5,-17 360.5,-17 360.5,-17 189.5,-17"/>
<polygon fill="none" stroke="#666666" points="189,0 189,-60 360,-60 360,0 189,0"/>
</a>
</g>
</g>
<!-- Node1&#45;&gt;Node3 -->
<g id="edge2_Node000001_Node000003" class="edge">
<title>Node1&#45;&gt;Node3</title>
<g id="a_edge2_Node000001_Node000003"><a xlink:title=" ">
<path fill="none" stroke="#63b8ff" d="M216.18,-88.7C225.72,-79.27 235.87,-69.23 244.98,-60.21"/>
<polygon fill="none" stroke="#63b8ff" points="213.68,-86.25 209.04,-95.77 218.61,-91.23 213.68,-86.25"/>
</a>
</g>
</g>
</g>
</svg>
</svg>

<style type='text/css'>
<![CDATA[
[data-mouse-over-selected='false'] { opacity: 0.7; }
[data-mouse-over-selected='true']  { opacity: 1.0; }
]]>
</style>
<script type="application/ecmascript"><![CDATA[
document.addEventListener('DOMContentLoaded', (event) => {
  highlightEdges();
  highlightAdjacentNodes();
});
]]></script>
</svg>
