<?xml version="1.0" encoding="UTF-8" standalone="no"?>
<!DOCTYPE svg PUBLIC "-//W3C//DTD SVG 1.1//EN"
 "http://www.w3.org/Graphics/SVG/1.1/DTD/svg11.dtd">
<!-- Generated by graphviz version 2.43.0 (0)
 -->
<!-- Title: RpgGame.Combat.ICombatAttack Pages: 1 -->
<!--zoomable 615 -->

<svg id="main" version="1.1" xmlns="http://www.w3.org/2000/svg" xmlns:xlink="http://www.w3.org/1999/xlink" xml:space="preserve" onload="init(evt)">
<style type="text/css"><![CDATA[
.node, .edge {opacity: 0.7;}
.node.selected, .edge.selected {opacity: 1;}
.edge:hover path { stroke: red; }
.edge:hover polygon { stroke: red; fill: red; }
]]></style>

<defs>
  <circle id="rim" cx="0" cy="0" r="7"/>
  <circle id="rim2" cx="0" cy="0" r="3.5"/>
  <g id="zoomPlus">
    <use xlink:href="#rim" fill="#404040"><set attributeName="fill" to="#808080" begin="zoomplus.mouseover" end="zoomplus.mouseout"/></use>
    <path d="M-4,0h8M0,-4v8" fill="none" stroke="white" stroke-width="1.5" pointer-events="none"/>
  </g>
  <g id="zoomMin">
    <use xlink:href="#rim" fill="#404040"><set attributeName="fill" to="#808080" begin="zoomminus.mouseover" end="zoomminus.mouseout"/></use>
    <path d="M-4,0h8" fill="none" stroke="white" stroke-width="1.5" pointer-events="none"/>
  </g>
  <g id="arrowUp" transform="translate(30 24)">
    <use xlink:href="#rim"/>
    <path pointer-events="none" fill="none" stroke="white" stroke-width="1.5" d="M0,-3.0v7 M-2.5,-0.5L0,-3.0L2.5,-0.5"/>
  </g>
  <g id="arrowRight" transform="rotate(90) translate(36 -43)">
    <use xlink:href="#rim"/>
    <path pointer-events="none" fill="none" stroke="white" stroke-width="1.5" d="M0,-3.0v7 M-2.5,-0.5L0,-3.0L2.5,-0.5"/>
  </g>
  <g id="arrowDown" transform="rotate(180) translate(-30 -48)">
    <use xlink:href="#rim"/>
    <path pointer-events="none" fill="none" stroke="white" stroke-width="1.5" d="M0,-3.0v7 M-2.5,-0.5L0,-3.0L2.5,-0.5"/>
  </g>
  <g id="arrowLeft" transform="rotate(270) translate(-36 17)">
    <use xlink:href="#rim"/>
    <path pointer-events="none" fill="none" stroke="white" stroke-width="1.5" d="M0,-3.0v7 M-2.5,-0.5L0,-3.0L2.5,-0.5"/>
  </g>
  <g id="resetDef">
    <use xlink:href="#rim2" fill="#404040"><set attributeName="fill" to="#808080" begin="reset.mouseover" end="reset.mouseout"/></use>
  </g>
</defs>
<script type="application/ecmascript">
var viewWidth = 635;
var viewHeight = 615;
var sectionId = 'dynsection-0';
</script>
<script type="application/ecmascript" xlink:href="svg.min.js"/>
<svg id="graph" class="graph">
<g id="viewport">
<title>RpgGame.Combat.ICombatAttack</title>
<!-- Node1 -->
<g id="Node000001" class="node">
<title>Node1</title>
<g id="a_Node000001"><a xlink:title="Visitor for combat resolution: each concrete attack implements how damage and defense combine with he...">
<polygon fill="#999999" stroke="transparent" points="412,-607 215,-607 215,-377 412,-377 412,-607"/>
<text text-anchor="start" x="231" y="-595" font-family="Helvetica,sans-Serif" font-size="10.00">RpgGame.Combat.ICombatAttack</text>
<text text-anchor="start" x="312" y="-580" font-family="Helvetica,sans-Serif" font-size="10.00"> </text>
<text text-anchor="start" x="219.5" y="-565" font-family="Helvetica,sans-Serif" font-size="10.00">+</text>
<text text-anchor="start" x="232.5" y="-565" font-family="Helvetica,sans-Serif" font-size="10.00">void VisitHeavy(IWeapon</text>
<text text-anchor="start" x="232.5" y="-554" font-family="Helvetica,sans-Serif" font-size="10.00"> weapon, Player player,</text>
<text text-anchor="start" x="232.5" y="-543" font-family="Helvetica,sans-Serif" font-size="10.00"> ICombatContribution contribution)</text>
<text text-anchor="start" x="219.5" y="-528" font-family="Helvetica,sans-Serif" font-size="10.00">+</text>
<text text-anchor="start" x="232.5" y="-528" font-family="Helvetica,sans-Serif" font-size="10.00">void VisitLight(IWeapon</text>
<text text-anchor="start" x="232.5" y="-517" font-family="Helvetica,sans-Serif" font-size="10.00"> weapon, Player player,</text>
<text text-anchor="start" x="232.5" y="-506" font-family="Helvetica,sans-Serif" font-size="10.00"> ICombatContribution contribution)</text>
<text text-anchor="start" x="219.5" y="-491" font-family="Helvetica,sans-Serif" font-size="10.00">+</text>
<text text-anchor="start" x="232.5" y="-491" font-family="Helvetica,sans-Serif" font-size="10.00">void VisitMagical(IWeapon</text>
<text text-anchor="start" x="232.5" y="-480" font-family="Helvetica,sans-Serif" font-size="10.00"> weapon, Player player,</text>
<text text-anchor="start" x="232.5" y="-469" font-family="Helvetica,sans-Serif" font-size="10.00"> ICombatContribution contribution)</text>
<text text-anchor="start" x="219.5" y="-454" font-family="Helvetica,sans-Serif" font-size="10.00">+</text>
<text text-anchor="start" x="232.5" y="-454" font-family="Helvetica,sans-Serif" font-size="10.00">void VisitEquippedNonWeapon</text>
<text text-anchor="start" x="232.5" y="-443" font-family="Helvetica,sans-Serif" font-size="10.00">(IEquippable item, Player</text>
<text text-anchor="start" x="232.5" y="-432" font-family="Helvetica,sans-Serif" font-size="10.00"> player, ICombatContribution</text>
<text text-anchor="start" x="232.5" y="-421" font-family="Helvetica,sans-Serif" font-size="10.00"> contribution)</text>
<text text-anchor="start" x="219.5" y="-406" font-family="Helvetica,sans-Serif" font-size="10.00">+</text>
<text text-anchor="start" x="232.5" y="-406" font-family="Helvetica,sans-Serif" font-size="10.00">void VisitBareFists</text>
<text text-anchor="start" x="232.5" y="-395" font-family="Helvetica,sans-Serif" font-size="10.00">(Player player, ICombatContribution</text>
<text text-anchor="start" x="232.5" y="-384" font-family="Helvetica,sans-Serif" font-size="10.00"> contribution)</text>
<polygon fill="#666666" stroke="#666666" points="215.5,-590 215.5,-590 412.5,-590 412.5,-590 215.5,-590"/>
<polygon fill="#666666" stroke="#666666" points="215.5,-575 215.5,-575 412.5,-575 412.5,-575 215.5,-575"/>
<polygon fill="none" stroke="#666666" points="215,-377 215,-607 412,-607 412,-377 215,-377"/>
</a>
</g>
</g>
<!-- Node2 -->
<g id="Node000002" class="node">
<title>Node2</title>
<g id="a_Node000002"><a xlink:href="classRpgGame_1_1Combat_1_1MagicalStrikeAttack.html" target="_top" xlink:title="Magical strike: magical weapons use full category damage; other weapons deal 1.">
<polygon fill="white" stroke="transparent" points="197,-296.5 0,-296.5 0,-44.5 197,-44.5 197,-296.5"/>
<text text-anchor="start" x="19.5" y="-284.5" font-family="Helvetica,sans-Serif" font-size="10.00">RpgGame.Combat.MagicalStrike</text>
<text text-anchor="start" x="83" y="-273.5" font-family="Helvetica,sans-Serif" font-size="10.00">Attack</text>
<text text-anchor="start" x="4.5" y="-258.5" font-family="Helvetica,sans-Serif" font-size="10.00">+</text>
<text text-anchor="start" x="17.5" y="-258.5" font-family="Helvetica,sans-Serif" font-size="10.00">static MagicalStrikeAttack</text>
<text text-anchor="start" x="17.5" y="-247.5" font-family="Helvetica,sans-Serif" font-size="10.00"> Instance</text>
<text text-anchor="start" x="4.5" y="-232.5" font-family="Helvetica,sans-Serif" font-size="10.00">+</text>
<text text-anchor="start" x="17.5" y="-232.5" font-family="Helvetica,sans-Serif" font-size="10.00">void VisitHeavy(IWeapon</text>
<text text-anchor="start" x="17.5" y="-221.5" font-family="Helvetica,sans-Serif" font-size="10.00"> weapon, Player player,</text>
<text text-anchor="start" x="17.5" y="-210.5" font-family="Helvetica,sans-Serif" font-size="10.00"> ICombatContribution contribution)</text>
<text text-anchor="start" x="4.5" y="-195.5" font-family="Helvetica,sans-Serif" font-size="10.00">+</text>
<text text-anchor="start" x="17.5" y="-195.5" font-family="Helvetica,sans-Serif" font-size="10.00">void VisitLight(IWeapon</text>
<text text-anchor="start" x="17.5" y="-184.5" font-family="Helvetica,sans-Serif" font-size="10.00"> weapon, Player player,</text>
<text text-anchor="start" x="17.5" y="-173.5" font-family="Helvetica,sans-Serif" font-size="10.00"> ICombatContribution contribution)</text>
<text text-anchor="start" x="4.5" y="-158.5" font-family="Helvetica,sans-Serif" font-size="10.00">+</text>
<text text-anchor="start" x="17.5" y="-158.5" font-family="Helvetica,sans-Serif" font-size="10.00">void VisitMagical(IWeapon</text>
<text text-anchor="start" x="17.5" y="-147.5" font-family="Helvetica,sans-Serif" font-size="10.00"> weapon, Player player,</text>
<text text-anchor="start" x="17.5" y="-136.5" font-family="Helvetica,sans-Serif" font-size="10.00"> ICombatContribution contribution)</text>
<text text-anchor="start" x="4.5" y="-121.5" font-family="Helvetica,sans-Serif" font-size="10.00">+</text>
<text text-anchor="start" x="17.5" y="-121.5" font-family="Helvetica,sans-Serif" font-size="10.00">void VisitEquippedNonWeapon</text>
<text text-anchor="start" x="17.5" y="-110.5" font-family="Helvetica,sans-Serif" font-size="10.00">(IEquippable item, Player</text>
<text text-anchor="start" x="17.5" y="-99.5" font-family="Helvetica,sans-Serif" font-size="10.00"> player, ICombatContribution</text>
<text text-anchor="start" x="17.5" y="-88.5" font-family="Helvetica,sans-Serif" font-size="10.00"> contribution)</text>
<text text-anchor="start" x="4.5" y="-73.5" font-family="Helvetica,sans-Serif" font-size="10.00">+</text>
<text text-anchor="start" x="17.5" y="-73.5" font-family="Helvetica,sans-Serif" font-size="10.00">void VisitBareFists</text>
<text text-anchor="start" x="17.5" y="-62.5" font-family="Helvetica,sans-Serif" font-size="10.00">(Player player, ICombatContribution</text>
<text text-anchor="start" x="17.5" y="-51.5" font-family="Helvetica,sans-Serif" font-size="10.00"> contribution)</text>
<polygon fill="#666666" stroke="#666666" points="0.5,-268.5 0.5,-268.5 197.5,-268.5 197.5,-268.5 0.5,-268.5"/>
<polygon fill="#666666" stroke="#666666" points="0.5,-242.5 0.5,-242.5 15.5,-242.5 15.5,-242.5 0.5,-242.5"/>
<polygon fill="#666666" stroke="#666666" points="15.5,-242.5 15.5,-242.5 197.5,-242.5 197.5,-242.5 15.5,-242.5"/>
<polygon fill="none" stroke="#666666" points="0,-44.5 0,-296.5 197,-296.5 197,-44.5 0,-44.5"/>
</a>
</g>
</g>
<!-- Node1&#45;&gt;Node2 -->
<g id="edge1_Node000001_Node000002" class="edge">
<title>Node1&#45;&gt;Node2</title>
<g id="a_edge1_Node000001_Node000002"><a xlink:title=" ">
<path fill="none" stroke="#63b8ff" d="M224.3,-368.38C217.87,-359.16 211.55,-349.96 205.5,-341 195.87,-326.72 185.96,-311.63 176.24,-296.57"/>
<polygon fill="none" stroke="#63b8ff" points="221.62,-370.66 230.22,-376.85 227.36,-366.65 221.62,-370.66"/>
</a>
</g>
</g>
<!-- Node3 -->
<g id="Node000003" class="node">
<title>Node3</title>
<g id="a_Node000003"><a xlink:href="classRpgGame_1_1Combat_1_1NormalAttack.html" target="_top" xlink:title="Standard strike: heavy/light use full category damage; magical weapons deal 1.">
<polygon fill="white" stroke="transparent" points="412,-341 215,-341 215,0 412,0 412,-341"/>
<text text-anchor="start" x="234" y="-328.5" font-family="Helvetica,sans-Serif" font-size="10.00">RpgGame.Combat.NormalAttack</text>
<text text-anchor="start" x="219.5" y="-313.5" font-family="Helvetica,sans-Serif" font-size="10.00">+</text>
<text text-anchor="start" x="232.5" y="-313.5" font-family="Helvetica,sans-Serif" font-size="10.00">static NormalAttack</text>
<text text-anchor="start" x="232.5" y="-302.5" font-family="Helvetica,sans-Serif" font-size="10.00"> Instance</text>
<text text-anchor="start" x="219.5" y="-287.5" font-family="Helvetica,sans-Serif" font-size="10.00">+</text>
<text text-anchor="start" x="232.5" y="-287.5" font-family="Helvetica,sans-Serif" font-size="10.00">void VisitHeavy(IWeapon</text>
<text text-anchor="start" x="232.5" y="-276.5" font-family="Helvetica,sans-Serif" font-size="10.00"> weapon, Player player,</text>
<text text-anchor="start" x="232.5" y="-265.5" font-family="Helvetica,sans-Serif" font-size="10.00"> ICombatContribution contribution)</text>
<text text-anchor="start" x="219.5" y="-250.5" font-family="Helvetica,sans-Serif" font-size="10.00">+</text>
<text text-anchor="start" x="232.5" y="-250.5" font-family="Helvetica,sans-Serif" font-size="10.00">void VisitLight(IWeapon</text>
<text text-anchor="start" x="232.5" y="-239.5" font-family="Helvetica,sans-Serif" font-size="10.00"> weapon, Player player,</text>
<text text-anchor="start" x="232.5" y="-228.5" font-family="Helvetica,sans-Serif" font-size="10.00"> ICombatContribution contribution)</text>
<text text-anchor="start" x="219.5" y="-213.5" font-family="Helvetica,sans-Serif" font-size="10.00">+</text>
<text text-anchor="start" x="232.5" y="-213.5" font-family="Helvetica,sans-Serif" font-size="10.00">void VisitMagical(IWeapon</text>
<text text-anchor="start" x="232.5" y="-202.5" font-family="Helvetica,sans-Serif" font-size="10.00"> weapon, Player player,</text>
<text text-anchor="start" x="232.5" y="-191.5" font-family="Helvetica,sans-Serif" font-size="10.00"> ICombatContribution contribution)</text>
<text text-anchor="start" x="219.5" y="-176.5" font-family="Helvetica,sans-Serif" font-size="10.00">+</text>
<text text-anchor="start" x="232.5" y="-176.5" font-family="Helvetica,sans-Serif" font-size="10.00">void VisitEquippedNonWeapon</text>
<text text-anchor="start" x="232.5" y="-165.5" font-family="Helvetica,sans-Serif" font-size="10.00">(IEquippable item, Player</text>
<text text-anchor="start" x="232.5" y="-154.5" font-family="Helvetica,sans-Serif" font-size="10.00"> player, ICombatContribution</text>
<text text-anchor="start" x="232.5" y="-143.5" font-family="Helvetica,sans-Serif" font-size="10.00"> contribution)</text>
<text text-anchor="start" x="219.5" y="-128.5" font-family="Helvetica,sans-Serif" font-size="10.00">+</text>
<text text-anchor="start" x="232.5" y="-128.5" font-family="Helvetica,sans-Serif" font-size="10.00">void VisitBareFists</text>
<text text-anchor="start" x="232.5" y="-117.5" font-family="Helvetica,sans-Serif" font-size="10.00">(Player player, ICombatContribution</text>
<text text-anchor="start" x="232.5" y="-106.5" font-family="Helvetica,sans-Serif" font-size="10.00"> contribution)</text>
<text text-anchor="start" x="219.5" y="-91.5" font-family="Helvetica,sans-Serif" font-size="10.00">~</text>
<text text-anchor="start" x="232.5" y="-91.5" font-family="Helvetica,sans-Serif" font-size="10.00">static int BaseHeavyDamage</text>
<text text-anchor="start" x="232.5" y="-80.5" font-family="Helvetica,sans-Serif" font-size="10.00">(IWeapon weapon, Player</text>
<text text-anchor="start" x="232.5" y="-69.5" font-family="Helvetica,sans-Serif" font-size="10.00"> player)</text>
<text text-anchor="start" x="219.5" y="-54.5" font-family="Helvetica,sans-Serif" font-size="10.00">~</text>
<text text-anchor="start" x="232.5" y="-54.5" font-family="Helvetica,sans-Serif" font-size="10.00">static int BaseLightDamage</text>
<text text-anchor="start" x="232.5" y="-43.5" font-family="Helvetica,sans-Serif" font-size="10.00">(IWeapon weapon, Player</text>
<text text-anchor="start" x="232.5" y="-32.5" font-family="Helvetica,sans-Serif" font-size="10.00"> player)</text>
<text text-anchor="start" x="219.5" y="-17.5" font-family="Helvetica,sans-Serif" font-size="10.00">~</text>
<text text-anchor="start" x="232.5" y="-17.5" font-family="Helvetica,sans-Serif" font-size="10.00">static int BaseMagicalDamage</text>
<text text-anchor="start" x="232.5" y="-6.5" font-family="Helvetica,sans-Serif" font-size="10.00">(IWeapon weapon, Player player)</text>
<polygon fill="#666666" stroke="#666666" points="215.5,-323.5 215.5,-323.5 412.5,-323.5 412.5,-323.5 215.5,-323.5"/>
<polygon fill="#666666" stroke="#666666" points="215.5,-297.5 215.5,-297.5 230.5,-297.5 230.5,-297.5 215.5,-297.5"/>
<polygon fill="#666666" stroke="#666666" points="230.5,-297.5 230.5,-297.5 412.5,-297.5 412.5,-297.5 230.5,-297.5"/>
<polygon fill="none" stroke="#666666" points="215,0 215,-341 412,-341 412,0 215,0"/>
</a>
</g>
</g>
<!-- Node1&#45;&gt;Node3 -->
<g id="edge2_Node000001_Node000003" class="edge">
<title>Node1&#45;&gt;Node3</title>
<g id="a_edge2_Node000001_Node000003"><a xlink:title=" ">
<path fill="none" stroke="#63b8ff" d="M313.5,-366.46C313.5,-358.12 313.5,-349.65 313.5,-341.14"/>
<polygon fill="none" stroke="#63b8ff" points="310,-366.56 313.5,-376.56 317,-366.56 310,-366.56"/>
</a>
</g>
</g>
<!-- Node4 -->
<g id="Node000004" class="node">
<title>Node4</title>
<g id="a_Node000004"><a xlink:href="classRpgGame_1_1Combat_1_1StealthAttack.html" target="_top" xlink:title="Stealth strike: light damage doubled, heavy halved, magical weapon damage 1.">
<polygon fill="white" stroke="transparent" points="627,-291 430,-291 430,-50 627,-50 627,-291"/>
<text text-anchor="start" x="449.5" y="-278.5" font-family="Helvetica,sans-Serif" font-size="10.00">RpgGame.Combat.StealthAttack</text>
<text text-anchor="start" x="434.5" y="-263.5" font-family="Helvetica,sans-Serif" font-size="10.00">+</text>
<text text-anchor="start" x="447.5" y="-263.5" font-family="Helvetica,sans-Serif" font-size="10.00">static StealthAttack</text>
<text text-anchor="start" x="447.5" y="-252.5" font-family="Helvetica,sans-Serif" font-size="10.00"> Instance</text>
<text text-anchor="start" x="434.5" y="-237.5" font-family="Helvetica,sans-Serif" font-size="10.00">+</text>
<text text-anchor="start" x="447.5" y="-237.5" font-family="Helvetica,sans-Serif" font-size="10.00">void VisitHeavy(IWeapon</text>
<text text-anchor="start" x="447.5" y="-226.5" font-family="Helvetica,sans-Serif" font-size="10.00"> weapon, Player player,</text>
<text text-anchor="start" x="447.5" y="-215.5" font-family="Helvetica,sans-Serif" font-size="10.00"> ICombatContribution contribution)</text>
<text text-anchor="start" x="434.5" y="-200.5" font-family="Helvetica,sans-Serif" font-size="10.00">+</text>
<text text-anchor="start" x="447.5" y="-200.5" font-family="Helvetica,sans-Serif" font-size="10.00">void VisitLight(IWeapon</text>
<text text-anchor="start" x="447.5" y="-189.5" font-family="Helvetica,sans-Serif" font-size="10.00"> weapon, Player player,</text>
<text text-anchor="start" x="447.5" y="-178.5" font-family="Helvetica,sans-Serif" font-size="10.00"> ICombatContribution contribution)</text>
<text text-anchor="start" x="434.5" y="-163.5" font-family="Helvetica,sans-Serif" font-size="10.00">+</text>
<text text-anchor="start" x="447.5" y="-163.5" font-family="Helvetica,sans-Serif" font-size="10.00">void VisitMagical(IWeapon</text>
<text text-anchor="start" x="447.5" y="-152.5" font-family="Helvetica,sans-Serif" font-size="10.00"> weapon, Player player,</text>
<text text-anchor="start" x="447.5" y="-141.5" font-family="Helvetica,sans-Serif" font-size="10.00"> ICombatContribution contribution)</text>
<text text-anchor="start" x="434.5" y="-126.5" font-family="Helvetica,sans-Serif" font-size="10.00">+</text>
<text text-anchor="start" x="447.5" y="-126.5" font-family="Helvetica,sans-Serif" font-size="10.00">void VisitEquippedNonWeapon</text>
<text text-anchor="start" x="447.5" y="-115.5" font-family="Helvetica,sans-Serif" font-size="10.00">(IEquippable item, Player</text>
<text text-anchor="start" x="447.5" y="-104.5" font-family="Helvetica,sans-Serif" font-size="10.00"> player, ICombatContribution</text>
<text text-anchor="start" x="447.5" y="-93.5" font-family="Helvetica,sans-Serif" font-size="10.00"> contribution)</text>
<text text-anchor="start" x="434.5" y="-78.5" font-family="Helvetica,sans-Serif" font-size="10.00">+</text>
<text text-anchor="start" x="447.5" y="-78.5" font-family="Helvetica,sans-Serif" font-size="10.00">void VisitBareFists</text>
<text text-anchor="start" x="447.5" y="-67.5" font-family="Helvetica,sans-Serif" font-size="10.00">(Player player, ICombatContribution</text>
<text text-anchor="start" x="447.5" y="-56.5" font-family="Helvetica,sans-Serif" font-size="10.00"> contribution)</text>
<polygon fill="#666666" stroke="#666666" points="430.5,-273.5 430.5,-273.5 627.5,-273.5 627.5,-273.5 430.5,-273.5"/>
<polygon fill="#666666" stroke="#666666" points="430.5,-247.5 430.5,-247.5 445.5,-247.5 445.5,-247.5 430.5,-247.5"/>
<polygon fill="#666666" stroke="#666666" points="445.5,-247.5 445.5,-247.5 627.5,-247.5 627.5,-247.5 445.5,-247.5"/>
<polygon fill="none" stroke="#666666" points="430,-50 430,-291 627,-291 627,-50 430,-50"/>
</a>
</g>
</g>
<!-- Node1&#45;&gt;Node4 -->
<g id="edge3_Node000001_Node000004" class="edge">
<title>Node1&#45;&gt;Node4</title>
<g id="a_edge3_Node000001_Node000004"><a xlink:title=" ">
<path fill="none" stroke="#63b8ff" d="M402.7,-368.38C409.13,-359.16 415.45,-349.96 421.5,-341 432.3,-324.99 443.45,-307.95 454.29,-291.09"/>
<polygon fill="none" stroke="#63b8ff" points="399.64,-366.65 396.78,-376.85 405.38,-370.66 399.64,-366.65"/>
</a>
</g>
</g>
</g>
</svg>

<g id="navigator" transform="translate(0 0)" fill="#404254">
  <rect fill="#f2f5e9" fill-opacity="0.5" stroke="#606060" stroke-width=".5" x="0" y="0" width="60" height="60"/>
  <use id="zoomplus" xlink:href="#zoomPlus" x="17" y="9" onmousedown="handleZoom(evt,'in')"/>
  <use id="zoomminus" xlink:href="#zoomMin" x="42" y="9" onmousedown="handleZoom(evt,'out')"/>
  <use id="reset" xlink:href="#resetDef" x="30" y="36" onmousedown="handleReset()"/>
   <use id="arrowup" xlink:href="#arrowUp" x="0" y="0" onmousedown="handlePan(0,-1)"/>
  <use id="arrowright" xlink:href="#arrowRight" x="0" y="0" onmousedown="handlePan(1,0)"/>
  <use id="arrowdown" xlink:href="#arrowDown" x="0" y="0" onmousedown="handlePan(0,1)"/>
  <use id="arrowleft" xlink:href="#arrowLeft" x="0" y="0" onmousedown="handlePan(-1,0)"/>
</g>
<svg viewBox="0 0 15 15" width="100%" height="30px" preserveAspectRatio="xMaxYMin meet">
 <g id="arrow_out" transform="scale(0.3 0.3)">
  <a xlink:href="interfaceRpgGame_1_1Combat_1_1ICombatAttack__inherit__graph_org.svg" target="_base">
   <rect id="button" ry="5" rx="5" y="6" x="6" height="38" width="38"
        fill="#f2f5e9" fill-opacity="0.5" stroke="#606060" stroke-width="1.0"/>
   <path id="arrow"
     d="M 11.500037,31.436501 C 11.940474,20.09759 22.043105,11.32322 32.158766,21.979434 L 37.068811,17.246167 C 37.068811,17.246167 37.088388,32 37.088388,32 L 22.160133,31.978069 C 22.160133,31.978069 26.997745,27.140456 26.997745,27.140456 C 18.528582,18.264221 13.291696,25.230495 11.500037,31.436501 z"
     style="fill:#404040;"/>
  </a>
 </g>
</svg>

<style type='text/css'>
<![CDATA[
[data-mouse-over-selected='false'] { opacity: 0.7; }
[data-mouse-over-selected='true']  { opacity: 1.0; }
]]>
</style>
<script type="application/ecmascript"><![CDATA[
document.addEventListener('DOMContentLoaded', (event) => {
  highlightEdges();
  highlightAdjacentNodes();
});
]]></script>
</svg>
