<?xml version="1.0" encoding="UTF-8" standalone="no"?>
<!DOCTYPE svg PUBLIC "-//W3C//DTD SVG 1.1//EN"
 "http://www.w3.org/Graphics/SVG/1.1/DTD/svg11.dtd">
<!-- Generated by graphviz version 2.43.0 (0)
 -->
<!-- Title: RpgGame.Items.IEquippable.TryEquipToLeft Pages: 1 -->
<svg width="739pt" height="38pt"
 viewBox="0.00 0.00 739.00 38.00" xmlns="http://www.w3.org/2000/svg" xmlns:xlink="http://www.w3.org/1999/xlink">
<g id="graph0" class="graph" transform="scale(1 1) rotate(0) translate(4 34)">
<title>RpgGame.Items.IEquippable.TryEquipToLeft</title>
<!-- Node1 -->
<g id="Node000001" class="node">
<title>Node1</title>
<g id="a_Node000001"><a xlink:title="Attempts to equip the item in the player&#39;s left hand.">
<polygon fill="#999999" stroke="#666666" points="731,-30 573,-30 573,0 731,0 731,-30"/>
<text text-anchor="start" x="581" y="-18" font-family="Helvetica,sans-Serif" font-size="10.00">RpgGame.Items.IEquippable.</text>
<text text-anchor="middle" x="652" y="-7" font-family="Helvetica,sans-Serif" font-size="10.00">TryEquipToLeft</text>
</a>
</g>
</g>
<!-- Node2 -->
<g id="Node000002" class="node">
<title>Node2</title>
<g id="a_Node000002"><a xlink:href="classRpgGame_1_1Character_1_1Player.html#a8fbd9664d432e62eaba416e06ea76d3f" target="_top" xlink:title="Attempts to equip an item into the left hand.">
<polygon fill="white" stroke="#666666" points="537,-30 387,-30 387,0 537,0 537,-30"/>
<text text-anchor="start" x="395" y="-18" font-family="Helvetica,sans-Serif" font-size="10.00">RpgGame.Character.Player.</text>
<text text-anchor="middle" x="462" y="-7" font-family="Helvetica,sans-Serif" font-size="10.00">EquipLeft</text>
</a>
</g>
</g>
<!-- Node1&#45;&gt;Node2 -->
<g id="edge1_Node000001_Node000002" class="edge">
<title>Node1&#45;&gt;Node2</title>
<g id="a_edge1_Node000001_Node000002"><a xlink:title=" ">
<path fill="none" stroke="#63b8ff" d="M562.88,-15C554.3,-15 545.66,-15 537.23,-15"/>
<polygon fill="#63b8ff" stroke="#63b8ff" points="562.9,-18.5 572.9,-15 562.9,-11.5 562.9,-18.5"/>
</a>
</g>
</g>
<!-- Node3 -->
<g id="Node000003" class="node">
<title>Node3</title>
<g id="a_Node000003"><a xlink:href="classRpgGame_1_1Core_1_1Inventory.html#a948c021afddac012e053aabbaaa1045d" target="_top" xlink:title="Equips the selected item in the inventory to the player&#39;s left hand and removes it from inventory.">
<polygon fill="white" stroke="#666666" points="351,-30 188,-30 188,0 351,0 351,-30"/>
<text text-anchor="start" x="196" y="-18" font-family="Helvetica,sans-Serif" font-size="10.00">RpgGame.Core.Inventory.Take</text>
<text text-anchor="middle" x="269.5" y="-7" font-family="Helvetica,sans-Serif" font-size="10.00">ToLeft</text>
</a>
</g>
</g>
<!-- Node2&#45;&gt;Node3 -->
<g id="edge2_Node000002_Node000003" class="edge">
<title>Node2&#45;&gt;Node3</title>
<g id="a_edge2_Node000002_Node000003"><a xlink:title=" ">
<path fill="none" stroke="#63b8ff" d="M376.56,-15C368.1,-15 359.53,-15 351.12,-15"/>
<polygon fill="#63b8ff" stroke="#63b8ff" points="376.8,-18.5 386.8,-15 376.8,-11.5 376.8,-18.5"/>
</a>
</g>
</g>
<!-- Node4 -->
<g id="Node000004" class="node">
<title>Node4</title>
<g id="a_Node000004"><a xlink:href="classRpgGame_1_1Input_1_1InventoryToLeftHandCommand.html#aaac59bc026f4203bb5f3f909c216beed" target="_top" xlink:title="Executes the command using provided game objects.Typically 1 to indicate the game should continue,...">
<polygon fill="white" stroke="#666666" points="152,-30 0,-30 0,0 152,0 152,-30"/>
<text text-anchor="start" x="8" y="-18" font-family="Helvetica,sans-Serif" font-size="10.00">RpgGame.Input.InventoryTo</text>
<text text-anchor="middle" x="76" y="-7" font-family="Helvetica,sans-Serif" font-size="10.00">LeftHandCommand.Execute</text>
</a>
</g>
</g>
<!-- Node3&#45;&gt;Node4 -->
<g id="edge3_Node000003_Node000004" class="edge">
<title>Node3&#45;&gt;Node4</title>
<g id="a_edge3_Node000003_Node000004"><a xlink:title=" ">
<path fill="none" stroke="#63b8ff" d="M177.78,-15C169.17,-15 160.51,-15 152.07,-15"/>
<polygon fill="#63b8ff" stroke="#63b8ff" points="177.84,-18.5 187.84,-15 177.84,-11.5 177.84,-18.5"/>
</a>
</g>
</g>
</g>
</svg>
