<?xml version="1.0" encoding="UTF-8" standalone="no"?>
<!DOCTYPE svg PUBLIC "-//W3C//DTD SVG 1.1//EN"
 "http://www.w3.org/Graphics/SVG/1.1/DTD/svg11.dtd">
<!-- Generated by graphviz version 2.43.0 (0)
 -->
<!-- Title: RpgGame.Input.IInputCommand Pages: 1 -->
<svg width="2125pt" height="223pt"
 viewBox="0.00 0.00 2124.50 223.00" xmlns="http://www.w3.org/2000/svg" xmlns:xlink="http://www.w3.org/1999/xlink">
<g id="graph0" class="graph" transform="scale(1 1) rotate(0) translate(4 219)">
<title>RpgGame.Input.IInputCommand</title>
<!-- Node1 -->
<g id="Node000001" class="node">
<title>Node1</title>
<g id="a_Node000001"><a xlink:title="Represents a user input command that manipulates the game state (level, player, inventory) and return...">
<polygon fill="#999999" stroke="transparent" points="1121,-215 954,-215 954,-144 1121,-144 1121,-215"/>
<text text-anchor="start" x="959.5" y="-202.5" font-family="Helvetica,sans-Serif" font-size="10.00">RpgGame.Input.IInputCommand</text>
<text text-anchor="start" x="1036" y="-187.5" font-family="Helvetica,sans-Serif" font-size="10.00"> </text>
<text text-anchor="start" x="964.5" y="-172.5" font-family="Helvetica,sans-Serif" font-size="10.00">+</text>
<text text-anchor="start" x="983.5" y="-172.5" font-family="Helvetica,sans-Serif" font-size="10.00">int Execute(Level level,</text>
<text text-anchor="start" x="983.5" y="-161.5" font-family="Helvetica,sans-Serif" font-size="10.00"> Player player, Inventory</text>
<text text-anchor="start" x="983.5" y="-150.5" font-family="Helvetica,sans-Serif" font-size="10.00"> inventory)</text>
<polygon fill="#666666" stroke="#666666" points="954.5,-197.5 954.5,-197.5 1121.5,-197.5 1121.5,-197.5 954.5,-197.5"/>
<polygon fill="#666666" stroke="#666666" points="954.5,-182.5 954.5,-182.5 1121.5,-182.5 1121.5,-182.5 954.5,-182.5"/>
<polygon fill="none" stroke="#666666" points="954,-144 954,-215 1121,-215 1121,-144 954,-144"/>
</a>
</g>
</g>
<!-- Node2 -->
<g id="Node000002" class="node">
<title>Node2</title>
<g id="a_Node000002"><a xlink:href="classRpgGame_1_1Input_1_1DropLeftCommand.html" target="_top" xlink:title="Instructs the player to drop the item in their left hand onto the level.">
<polygon fill="white" stroke="transparent" points="181,-89.5 0,-89.5 0,-18.5 181,-18.5 181,-89.5"/>
<text text-anchor="start" x="5.5" y="-77" font-family="Helvetica,sans-Serif" font-size="10.00">RpgGame.Input.DropLeftCommand</text>
<text text-anchor="start" x="89" y="-62" font-family="Helvetica,sans-Serif" font-size="10.00"> </text>
<text text-anchor="start" x="14" y="-47" font-family="Helvetica,sans-Serif" font-size="10.00">+</text>
<text text-anchor="start" x="36.5" y="-47" font-family="Helvetica,sans-Serif" font-size="10.00">int Execute(Level level,</text>
<text text-anchor="start" x="36.5" y="-36" font-family="Helvetica,sans-Serif" font-size="10.00"> Player player, Inventory</text>
<text text-anchor="start" x="36.5" y="-25" font-family="Helvetica,sans-Serif" font-size="10.00"> inventory)</text>
<polygon fill="#666666" stroke="#666666" points="0.5,-72 0.5,-72 181.5,-72 181.5,-72 0.5,-72"/>
<polygon fill="#666666" stroke="#666666" points="0.5,-57 0.5,-57 181.5,-57 181.5,-57 0.5,-57"/>
<polygon fill="none" stroke="#666666" points="0,-18.5 0,-89.5 181,-89.5 181,-18.5 0,-18.5"/>
</a>
</g>
</g>
<!-- Node1&#45;&gt;Node2 -->
<g id="edge1_Node000001_Node000002" class="edge">
<title>Node1&#45;&gt;Node2</title>
<g id="a_edge1_Node000001_Node000002"><a xlink:title=" ">
<path fill="none" stroke="#63b8ff" d="M943.72,-175.44C753.71,-168.47 329.54,-148.77 190.5,-108 175.51,-103.61 160.19,-96.83 146.18,-89.57"/>
<polygon fill="none" stroke="#63b8ff" points="943.85,-178.95 953.97,-175.82 944.1,-171.95 943.85,-178.95"/>
</a>
</g>
</g>
<!-- Node3 -->
<g id="Node000003" class="node">
<title>Node3</title>
<g id="a_Node000003"><a xlink:href="classRpgGame_1_1Input_1_1DropRightCommand.html" target="_top" xlink:title="Instructs the player to drop the item in their right hand onto the level.">
<polygon fill="white" stroke="transparent" points="387.5,-89.5 199.5,-89.5 199.5,-18.5 387.5,-18.5 387.5,-89.5"/>
<text text-anchor="start" x="204.5" y="-77" font-family="Helvetica,sans-Serif" font-size="10.00">RpgGame.Input.DropRightCommand</text>
<text text-anchor="start" x="291.5" y="-62" font-family="Helvetica,sans-Serif" font-size="10.00"> </text>
<text text-anchor="start" x="215" y="-47" font-family="Helvetica,sans-Serif" font-size="10.00">+</text>
<text text-anchor="start" x="239.5" y="-47" font-family="Helvetica,sans-Serif" font-size="10.00">int Execute(Level level,</text>
<text text-anchor="start" x="239.5" y="-36" font-family="Helvetica,sans-Serif" font-size="10.00"> Player player, Inventory</text>
<text text-anchor="start" x="239.5" y="-25" font-family="Helvetica,sans-Serif" font-size="10.00"> inventory)</text>
<polygon fill="#666666" stroke="#666666" points="199.5,-72 199.5,-72 387.5,-72 387.5,-72 199.5,-72"/>
<polygon fill="#666666" stroke="#666666" points="199.5,-57 199.5,-57 387.5,-57 387.5,-57 199.5,-57"/>
<polygon fill="none" stroke="#666666" points="199.5,-18.5 199.5,-89.5 387.5,-89.5 387.5,-18.5 199.5,-18.5"/>
</a>
</g>
</g>
<!-- Node1&#45;&gt;Node3 -->
<g id="edge2_Node000001_Node000003" class="edge">
<title>Node1&#45;&gt;Node3</title>
<g id="a_edge2_Node000001_Node000003"><a xlink:title=" ">
<path fill="none" stroke="#63b8ff" d="M943.81,-178.78C817.03,-176.8 585.03,-164.75 396.5,-108 381.38,-103.45 365.85,-96.71 351.58,-89.54"/>
<polygon fill="none" stroke="#63b8ff" points="943.83,-182.28 953.88,-178.92 943.93,-175.28 943.83,-182.28"/>
</a>
</g>
</g>
<!-- Node4 -->
<g id="Node000004" class="node">
<title>Node4</title>
<g id="a_Node000004"><a xlink:href="classRpgGame_1_1Input_1_1InventoryToLeftHandCommand.html" target="_top" xlink:title="Transfers the currently selected inventory item to the player&#39;s left hand.">
<polygon fill="white" stroke="transparent" points="551.5,-95 405.5,-95 405.5,-13 551.5,-13 551.5,-95"/>
<text text-anchor="start" x="410.5" y="-83" font-family="Helvetica,sans-Serif" font-size="10.00">RpgGame.Input.InventoryTo</text>
<text text-anchor="start" x="431.5" y="-72" font-family="Helvetica,sans-Serif" font-size="10.00">LeftHandCommand</text>
<text text-anchor="start" x="476.5" y="-57" font-family="Helvetica,sans-Serif" font-size="10.00"> </text>
<text text-anchor="start" x="410.5" y="-42" font-family="Helvetica,sans-Serif" font-size="10.00">+</text>
<text text-anchor="start" x="424.5" y="-42" font-family="Helvetica,sans-Serif" font-size="10.00">int Execute(Level level,</text>
<text text-anchor="start" x="424.5" y="-31" font-family="Helvetica,sans-Serif" font-size="10.00"> Player player, Inventory</text>
<text text-anchor="start" x="424.5" y="-20" font-family="Helvetica,sans-Serif" font-size="10.00"> inventory)</text>
<polygon fill="#666666" stroke="#666666" points="405.5,-67 405.5,-67 551.5,-67 551.5,-67 405.5,-67"/>
<polygon fill="#666666" stroke="#666666" points="405.5,-52 405.5,-52 551.5,-52 551.5,-52 405.5,-52"/>
<polygon fill="none" stroke="#666666" points="405.5,-13 405.5,-95 551.5,-95 551.5,-13 405.5,-13"/>
</a>
</g>
</g>
<!-- Node1&#45;&gt;Node4 -->
<g id="edge3_Node000001_Node000004" class="edge">
<title>Node1&#45;&gt;Node4</title>
<g id="a_edge3_Node000001_Node000004"><a xlink:title=" ">
<path fill="none" stroke="#63b8ff" d="M943.59,-176.33C845.21,-171.39 687.61,-155.88 560.5,-108 551.46,-104.59 542.38,-100.08 533.72,-95.11"/>
<polygon fill="none" stroke="#63b8ff" points="943.66,-179.83 953.81,-176.81 943.99,-172.84 943.66,-179.83"/>
</a>
</g>
</g>
<!-- Node5 -->
<g id="Node000005" class="node">
<title>Node5</title>
<g id="a_Node000005"><a xlink:href="classRpgGame_1_1Input_1_1InventoryToRightHandCommand.html" target="_top" xlink:title="Transfers the currently selected inventory item to the player&#39;s right hand.">
<polygon fill="white" stroke="transparent" points="715.5,-95 569.5,-95 569.5,-13 715.5,-13 715.5,-95"/>
<text text-anchor="start" x="574.5" y="-83" font-family="Helvetica,sans-Serif" font-size="10.00">RpgGame.Input.InventoryTo</text>
<text text-anchor="start" x="591.5" y="-72" font-family="Helvetica,sans-Serif" font-size="10.00">RightHandCommand</text>
<text text-anchor="start" x="640.5" y="-57" font-family="Helvetica,sans-Serif" font-size="10.00"> </text>
<text text-anchor="start" x="574.5" y="-42" font-family="Helvetica,sans-Serif" font-size="10.00">+</text>
<text text-anchor="start" x="588.5" y="-42" font-family="Helvetica,sans-Serif" font-size="10.00">int Execute(Level level,</text>
<text text-anchor="start" x="588.5" y="-31" font-family="Helvetica,sans-Serif" font-size="10.00"> Player player, Inventory</text>
<text text-anchor="start" x="588.5" y="-20" font-family="Helvetica,sans-Serif" font-size="10.00"> inventory)</text>
<polygon fill="#666666" stroke="#666666" points="569.5,-67 569.5,-67 715.5,-67 715.5,-67 569.5,-67"/>
<polygon fill="#666666" stroke="#666666" points="569.5,-52 569.5,-52 715.5,-52 715.5,-52 569.5,-52"/>
<polygon fill="none" stroke="#666666" points="569.5,-13 569.5,-95 715.5,-95 715.5,-13 569.5,-13"/>
</a>
</g>
</g>
<!-- Node1&#45;&gt;Node5 -->
<g id="edge4_Node000001_Node000005" class="edge">
<title>Node1&#45;&gt;Node5</title>
<g id="a_edge4_Node000001_Node000005"><a xlink:title=" ">
<path fill="none" stroke="#63b8ff" d="M943.97,-166.26C880.34,-155.83 795.18,-137.69 724.5,-108 715.9,-104.39 707.22,-99.88 698.87,-95.03"/>
<polygon fill="none" stroke="#63b8ff" points="943.57,-169.74 953.99,-167.87 944.67,-162.83 943.57,-169.74"/>
</a>
</g>
</g>
<!-- Node6 -->
<g id="Node000006" class="node">
<title>Node6</title>
<g id="a_Node000006"><a xlink:href="classRpgGame_1_1Input_1_1MoveDownCommand.html" target="_top" xlink:title="Moves the player one tile down (south) on the level.">
<polygon fill="white" stroke="transparent" points="927.5,-89.5 733.5,-89.5 733.5,-18.5 927.5,-18.5 927.5,-89.5"/>
<text text-anchor="start" x="738.5" y="-77" font-family="Helvetica,sans-Serif" font-size="10.00">RpgGame.Input.MoveDownCommand</text>
<text text-anchor="start" x="828.5" y="-62" font-family="Helvetica,sans-Serif" font-size="10.00"> </text>
<text text-anchor="start" x="750.5" y="-47" font-family="Helvetica,sans-Serif" font-size="10.00">+</text>
<text text-anchor="start" x="776.5" y="-47" font-family="Helvetica,sans-Serif" font-size="10.00">int Execute(Level level,</text>
<text text-anchor="start" x="776.5" y="-36" font-family="Helvetica,sans-Serif" font-size="10.00"> Player player, Inventory</text>
<text text-anchor="start" x="776.5" y="-25" font-family="Helvetica,sans-Serif" font-size="10.00"> inventory)</text>
<polygon fill="#666666" stroke="#666666" points="733.5,-72 733.5,-72 927.5,-72 927.5,-72 733.5,-72"/>
<polygon fill="#666666" stroke="#666666" points="733.5,-57 733.5,-57 927.5,-57 927.5,-57 733.5,-57"/>
<polygon fill="none" stroke="#666666" points="733.5,-18.5 733.5,-89.5 927.5,-89.5 927.5,-18.5 733.5,-18.5"/>
</a>
</g>
</g>
<!-- Node1&#45;&gt;Node6 -->
<g id="edge5_Node000001_Node000006" class="edge">
<title>Node1&#45;&gt;Node6</title>
<g id="a_edge5_Node000001_Node000006"><a xlink:title=" ">
<path fill="none" stroke="#63b8ff" d="M970.72,-138.66C944.21,-122.84 914,-104.82 888.42,-89.56"/>
<polygon fill="none" stroke="#63b8ff" points="969.18,-141.82 979.56,-143.93 972.77,-135.8 969.18,-141.82"/>
</a>
</g>
</g>
<!-- Node7 -->
<g id="Node000007" class="node">
<title>Node7</title>
<g id="a_Node000007"><a xlink:href="classRpgGame_1_1Input_1_1MoveLeftCommand.html" target="_top" xlink:title="Moves the player one tile left (west) on the level.">
<polygon fill="white" stroke="transparent" points="1130,-89.5 945,-89.5 945,-18.5 1130,-18.5 1130,-89.5"/>
<text text-anchor="start" x="950.5" y="-77" font-family="Helvetica,sans-Serif" font-size="10.00">RpgGame.Input.MoveLeftCommand</text>
<text text-anchor="start" x="1036" y="-62" font-family="Helvetica,sans-Serif" font-size="10.00"> </text>
<text text-anchor="start" x="960" y="-47" font-family="Helvetica,sans-Serif" font-size="10.00">+</text>
<text text-anchor="start" x="983.5" y="-47" font-family="Helvetica,sans-Serif" font-size="10.00">int Execute(Level level,</text>
<text text-anchor="start" x="983.5" y="-36" font-family="Helvetica,sans-Serif" font-size="10.00"> Player player, Inventory</text>
<text text-anchor="start" x="983.5" y="-25" font-family="Helvetica,sans-Serif" font-size="10.00"> inventory)</text>
<polygon fill="#666666" stroke="#666666" points="945.5,-72 945.5,-72 1130.5,-72 1130.5,-72 945.5,-72"/>
<polygon fill="#666666" stroke="#666666" points="945.5,-57 945.5,-57 1130.5,-57 1130.5,-57 945.5,-57"/>
<polygon fill="none" stroke="#666666" points="945,-18.5 945,-89.5 1130,-89.5 1130,-18.5 945,-18.5"/>
</a>
</g>
</g>
<!-- Node1&#45;&gt;Node7 -->
<g id="edge6_Node000001_Node000007" class="edge">
<title>Node1&#45;&gt;Node7</title>
<g id="a_edge6_Node000001_Node000007"><a xlink:title=" ">
<path fill="none" stroke="#63b8ff" d="M1037.5,-133.57C1037.5,-119.18 1037.5,-103.46 1037.5,-89.9"/>
<polygon fill="none" stroke="#63b8ff" points="1034,-133.77 1037.5,-143.77 1041,-133.77 1034,-133.77"/>
</a>
</g>
</g>
<!-- Node8 -->
<g id="Node000008" class="node">
<title>Node8</title>
<g id="a_Node000008"><a xlink:href="classRpgGame_1_1Input_1_1MoveRightCommand.html" target="_top" xlink:title="Moves the player one tile right (east) on the level.">
<polygon fill="white" stroke="transparent" points="1340.5,-89.5 1148.5,-89.5 1148.5,-18.5 1340.5,-18.5 1340.5,-89.5"/>
<text text-anchor="start" x="1153.5" y="-77" font-family="Helvetica,sans-Serif" font-size="10.00">RpgGame.Input.MoveRightCommand</text>
<text text-anchor="start" x="1242.5" y="-62" font-family="Helvetica,sans-Serif" font-size="10.00"> </text>
<text text-anchor="start" x="1165" y="-47" font-family="Helvetica,sans-Serif" font-size="10.00">+</text>
<text text-anchor="start" x="1190.5" y="-47" font-family="Helvetica,sans-Serif" font-size="10.00">int Execute(Level level,</text>
<text text-anchor="start" x="1190.5" y="-36" font-family="Helvetica,sans-Serif" font-size="10.00"> Player player, Inventory</text>
<text text-anchor="start" x="1190.5" y="-25" font-family="Helvetica,sans-Serif" font-size="10.00"> inventory)</text>
<polygon fill="#666666" stroke="#666666" points="1148.5,-72 1148.5,-72 1340.5,-72 1340.5,-72 1148.5,-72"/>
<polygon fill="#666666" stroke="#666666" points="1148.5,-57 1148.5,-57 1340.5,-57 1340.5,-57 1148.5,-57"/>
<polygon fill="none" stroke="#666666" points="1148.5,-18.5 1148.5,-89.5 1340.5,-89.5 1340.5,-18.5 1148.5,-18.5"/>
</a>
</g>
</g>
<!-- Node1&#45;&gt;Node8 -->
<g id="edge7_Node000001_Node000008" class="edge">
<title>Node1&#45;&gt;Node8</title>
<g id="a_edge7_Node000001_Node000008"><a xlink:title=" ">
<path fill="none" stroke="#63b8ff" d="M1104.28,-138.66C1130.79,-122.84 1161,-104.82 1186.58,-89.56"/>
<polygon fill="none" stroke="#63b8ff" points="1102.23,-135.8 1095.44,-143.93 1105.82,-141.82 1102.23,-135.8"/>
</a>
</g>
</g>
<!-- Node9 -->
<g id="Node000009" class="node">
<title>Node9</title>
<g id="a_Node000009"><a xlink:href="classRpgGame_1_1Input_1_1MoveUpCommand.html" target="_top" xlink:title="Moves the player one tile up (north) on the level.">
<polygon fill="white" stroke="transparent" points="1538.5,-89.5 1358.5,-89.5 1358.5,-18.5 1538.5,-18.5 1538.5,-89.5"/>
<text text-anchor="start" x="1363.5" y="-77" font-family="Helvetica,sans-Serif" font-size="10.00">RpgGame.Input.MoveUpCommand</text>
<text text-anchor="start" x="1446.5" y="-62" font-family="Helvetica,sans-Serif" font-size="10.00"> </text>
<text text-anchor="start" x="1372" y="-47" font-family="Helvetica,sans-Serif" font-size="10.00">+</text>
<text text-anchor="start" x="1394.5" y="-47" font-family="Helvetica,sans-Serif" font-size="10.00">int Execute(Level level,</text>
<text text-anchor="start" x="1394.5" y="-36" font-family="Helvetica,sans-Serif" font-size="10.00"> Player player, Inventory</text>
<text text-anchor="start" x="1394.5" y="-25" font-family="Helvetica,sans-Serif" font-size="10.00"> inventory)</text>
<polygon fill="#666666" stroke="#666666" points="1358.5,-72 1358.5,-72 1538.5,-72 1538.5,-72 1358.5,-72"/>
<polygon fill="#666666" stroke="#666666" points="1358.5,-57 1358.5,-57 1538.5,-57 1538.5,-57 1358.5,-57"/>
<polygon fill="none" stroke="#666666" points="1358.5,-18.5 1358.5,-89.5 1538.5,-89.5 1538.5,-18.5 1358.5,-18.5"/>
</a>
</g>
</g>
<!-- Node1&#45;&gt;Node9 -->
<g id="edge8_Node000001_Node000009" class="edge">
<title>Node1&#45;&gt;Node9</title>
<g id="a_edge8_Node000001_Node000009"><a xlink:title=" ">
<path fill="none" stroke="#63b8ff" d="M1130.97,-164.17C1193.96,-152.88 1278.25,-134.56 1349.5,-108 1363.02,-102.96 1376.99,-96.41 1390.03,-89.63"/>
<polygon fill="none" stroke="#63b8ff" points="1130.28,-160.74 1121.05,-165.92 1131.5,-167.63 1130.28,-160.74"/>
</a>
</g>
</g>
<!-- Node10 -->
<g id="Node000010" class="node">
<title>Node10</title>
<g id="a_Node000010"><a xlink:href="classRpgGame_1_1Input_1_1QuitGameCommand.html" target="_top" xlink:title="Command that causes the game loop to exit.">
<polygon fill="white" stroke="transparent" points="1746,-89.5 1557,-89.5 1557,-18.5 1746,-18.5 1746,-89.5"/>
<text text-anchor="start" x="1562.5" y="-77" font-family="Helvetica,sans-Serif" font-size="10.00">RpgGame.Input.QuitGameCommand</text>
<text text-anchor="start" x="1650" y="-62" font-family="Helvetica,sans-Serif" font-size="10.00"> </text>
<text text-anchor="start" x="1573" y="-47" font-family="Helvetica,sans-Serif" font-size="10.00">+</text>
<text text-anchor="start" x="1597.5" y="-47" font-family="Helvetica,sans-Serif" font-size="10.00">int Execute(Level level,</text>
<text text-anchor="start" x="1597.5" y="-36" font-family="Helvetica,sans-Serif" font-size="10.00"> Player player, Inventory</text>
<text text-anchor="start" x="1597.5" y="-25" font-family="Helvetica,sans-Serif" font-size="10.00"> inventory)</text>
<polygon fill="#666666" stroke="#666666" points="1557.5,-72 1557.5,-72 1746.5,-72 1746.5,-72 1557.5,-72"/>
<polygon fill="#666666" stroke="#666666" points="1557.5,-57 1557.5,-57 1746.5,-57 1746.5,-57 1557.5,-57"/>
<polygon fill="none" stroke="#666666" points="1557,-18.5 1557,-89.5 1746,-89.5 1746,-18.5 1557,-18.5"/>
</a>
</g>
</g>
<!-- Node1&#45;&gt;Node10 -->
<g id="edge9_Node000001_Node000010" class="edge">
<title>Node1&#45;&gt;Node10</title>
<g id="a_edge9_Node000001_Node000010"><a xlink:title=" ">
<path fill="none" stroke="#63b8ff" d="M1131.21,-174.89C1235.09,-168.76 1406.58,-152.26 1547.5,-108 1562.48,-103.29 1577.93,-96.58 1592.18,-89.5"/>
<polygon fill="none" stroke="#63b8ff" points="1130.84,-171.4 1121.06,-175.47 1131.24,-178.39 1130.84,-171.4"/>
</a>
</g>
</g>
<!-- Node11 -->
<g id="Node000011" class="node">
<title>Node11</title>
<g id="a_Node000011"><a xlink:href="classRpgGame_1_1Input_1_1SelectInventoryCommand.html" target="_top" xlink:title="Selects a specific inventory slot.">
<polygon fill="white" stroke="transparent" points="1930.5,-108 1764.5,-108 1764.5,0 1930.5,0 1930.5,-108"/>
<text text-anchor="start" x="1769.5" y="-96" font-family="Helvetica,sans-Serif" font-size="10.00">RpgGame.Input.SelectInventory</text>
<text text-anchor="start" x="1822" y="-85" font-family="Helvetica,sans-Serif" font-size="10.00">Command</text>
<text text-anchor="start" x="1845.5" y="-70" font-family="Helvetica,sans-Serif" font-size="10.00"> </text>
<text text-anchor="start" x="1773" y="-55" font-family="Helvetica,sans-Serif" font-size="10.00">+</text>
<text text-anchor="start" x="1790.5" y="-55" font-family="Helvetica,sans-Serif" font-size="10.00">SelectInventoryCommand</text>
<text text-anchor="start" x="1790.5" y="-44" font-family="Helvetica,sans-Serif" font-size="10.00">(int slotIndex)</text>
<text text-anchor="start" x="1773" y="-29" font-family="Helvetica,sans-Serif" font-size="10.00">+</text>
<text text-anchor="start" x="1790.5" y="-29" font-family="Helvetica,sans-Serif" font-size="10.00">int Execute(Level level,</text>
<text text-anchor="start" x="1790.5" y="-18" font-family="Helvetica,sans-Serif" font-size="10.00"> Player player, Inventory</text>
<text text-anchor="start" x="1790.5" y="-7" font-family="Helvetica,sans-Serif" font-size="10.00"> inventory)</text>
<polygon fill="#666666" stroke="#666666" points="1764.5,-80 1764.5,-80 1930.5,-80 1930.5,-80 1764.5,-80"/>
<polygon fill="#666666" stroke="#666666" points="1764.5,-65 1764.5,-65 1930.5,-65 1930.5,-65 1764.5,-65"/>
<polygon fill="none" stroke="#666666" points="1764.5,0 1764.5,-108 1930.5,-108 1930.5,0 1764.5,0"/>
</a>
</g>
</g>
<!-- Node1&#45;&gt;Node11 -->
<g id="edge10_Node000001_Node000011" class="edge">
<title>Node1&#45;&gt;Node11</title>
<g id="a_edge10_Node000001_Node000011"><a xlink:title=" ">
<path fill="none" stroke="#63b8ff" d="M1131.22,-174.22C1298.51,-165.76 1641.68,-144.49 1755.5,-108 1758.48,-107.04 1761.48,-105.98 1764.47,-104.83"/>
<polygon fill="none" stroke="#63b8ff" points="1131,-170.72 1121.19,-174.72 1131.35,-177.71 1131,-170.72"/>
</a>
</g>
</g>
<!-- Node12 -->
<g id="Node000012" class="node">
<title>Node12</title>
<g id="a_Node000012"><a xlink:href="classRpgGame_1_1Input_1_1TakeToInventoryCommand.html" target="_top" xlink:title="Picks up the item resting on the player&#39;s current tile and places it into the inventory if possible.">
<polygon fill="white" stroke="transparent" points="2116.5,-95 1948.5,-95 1948.5,-13 2116.5,-13 2116.5,-95"/>
<text text-anchor="start" x="1953.5" y="-83" font-family="Helvetica,sans-Serif" font-size="10.00">RpgGame.Input.TakeToInventory</text>
<text text-anchor="start" x="2007" y="-72" font-family="Helvetica,sans-Serif" font-size="10.00">Command</text>
<text text-anchor="start" x="2030.5" y="-57" font-family="Helvetica,sans-Serif" font-size="10.00"> </text>
<text text-anchor="start" x="1959" y="-42" font-family="Helvetica,sans-Serif" font-size="10.00">+</text>
<text text-anchor="start" x="1978.5" y="-42" font-family="Helvetica,sans-Serif" font-size="10.00">int Execute(Level level,</text>
<text text-anchor="start" x="1978.5" y="-31" font-family="Helvetica,sans-Serif" font-size="10.00"> Player player, Inventory</text>
<text text-anchor="start" x="1978.5" y="-20" font-family="Helvetica,sans-Serif" font-size="10.00"> inventory)</text>
<polygon fill="#666666" stroke="#666666" points="1948.5,-67 1948.5,-67 2116.5,-67 2116.5,-67 1948.5,-67"/>
<polygon fill="#666666" stroke="#666666" points="1948.5,-52 1948.5,-52 2116.5,-52 2116.5,-52 1948.5,-52"/>
<polygon fill="none" stroke="#666666" points="1948.5,-13 1948.5,-95 2116.5,-95 2116.5,-13 1948.5,-13"/>
</a>
</g>
</g>
<!-- Node1&#45;&gt;Node12 -->
<g id="edge11_Node000001_Node000012" class="edge">
<title>Node1&#45;&gt;Node12</title>
<g id="a_edge11_Node000001_Node000012"><a xlink:title=" ">
<path fill="none" stroke="#63b8ff" d="M1131.25,-176.35C1330.59,-170.94 1790.53,-153.75 1939.5,-108 1950.07,-104.75 1960.75,-100.15 1970.92,-95"/>
<polygon fill="none" stroke="#63b8ff" points="1130.99,-172.85 1121.09,-176.62 1131.18,-179.85 1130.99,-172.85"/>
</a>
</g>
</g>
</g>
</svg>
