<?xml version="1.0" encoding="UTF-8" standalone="no"?>
<!DOCTYPE svg PUBLIC "-//W3C//DTD SVG 1.1//EN"
 "http://www.w3.org/Graphics/SVG/1.1/DTD/svg11.dtd">
<!-- Generated by graphviz version 13.1.2 (20250808.2320)
 -->
<!-- Title: RpgGame.Character.Position Pages: 1 -->
<!--zoomable 560 -->

<svg id="main" version="1.1" xmlns="http://www.w3.org/2000/svg" xmlns:xlink="http://www.w3.org/1999/xlink" xml:space="preserve" onload="init(evt)">

<style type="text/css"><![CDATA[
.node, .edge {opacity: 0.7;}
.node.selected, .edge.selected {opacity: 1;}
.edge:hover path { stroke: red; }
.edge:hover polygon { stroke: red; fill: red; }
]]></style>

<defs>
  <circle id="rim" cx="0" cy="0" r="7"/>
  <circle id="rim2" cx="0" cy="0" r="3.5"/>
  <g id="zoomPlus">
    <use xlink:href="#rim" fill="#404040"><set attributeName="fill" to="#808080" begin="zoomplus.mouseover" end="zoomplus.mouseout"/></use>
    <path d="M-4,0h8M0,-4v8" fill="none" stroke="white" stroke-width="1.5" pointer-events="none"/>
  </g>
  <g id="zoomMin">
    <use xlink:href="#rim" fill="#404040"><set attributeName="fill" to="#808080" begin="zoomminus.mouseover" end="zoomminus.mouseout"/></use>
    <path d="M-4,0h8" fill="none" stroke="white" stroke-width="1.5" pointer-events="none"/>
  </g>
  <g id="arrowUp" transform="translate(30 24)">
    <use xlink:href="#rim"/>
    <path pointer-events="none" fill="none" stroke="white" stroke-width="1.5" d="M0,-3.0v7 M-2.5,-0.5L0,-3.0L2.5,-0.5"/>
  </g>
  <g id="arrowRight" transform="rotate(90) translate(36 -43)">
    <use xlink:href="#rim"/>
    <path pointer-events="none" fill="none" stroke="white" stroke-width="1.5" d="M0,-3.0v7 M-2.5,-0.5L0,-3.0L2.5,-0.5"/>
  </g>
  <g id="arrowDown" transform="rotate(180) translate(-30 -48)">
    <use xlink:href="#rim"/>
    <path pointer-events="none" fill="none" stroke="white" stroke-width="1.5" d="M0,-3.0v7 M-2.5,-0.5L0,-3.0L2.5,-0.5"/>
  </g>
  <g id="arrowLeft" transform="rotate(270) translate(-36 17)">
    <use xlink:href="#rim"/>
    <path pointer-events="none" fill="none" stroke="white" stroke-width="1.5" d="M0,-3.0v7 M-2.5,-0.5L0,-3.0L2.5,-0.5"/>
  </g>
  <g id="resetDef">
    <use xlink:href="#rim2" fill="#404040"><set attributeName="fill" to="#808080" begin="reset.mouseover" end="reset.mouseout"/></use>
  </g>
</defs>
<script type="application/ecmascript">
var viewWidth = 975;
var viewHeight = 560;
var sectionId = 'dynsection-1';
</script>
<script type="application/ecmascript" xlink:href="svg.min.js"/>
<svg id="graph" class="graph">
<g id="viewport">
<title>RpgGame.Character.Position</title>
<!-- Node1 -->
<g id="Node000001" class="node">
<title>Node1</title>
<g id="a_Node000001"><a xlink:title="A record for tracking the position of Characters, Items, and Tiles if needed.">
<polygon fill="#999999" stroke="#666666" points="967.25,-300.75 822.25,-300.75 822.25,-282.25 967.25,-282.25 967.25,-300.75"/>
<text xml:space="preserve" text-anchor="middle" x="894.75" y="-287.25" font-family="Helvetica,sans-Serif" font-size="10.00">RpgGame.Character.Position</text>
</a>
</g>
</g>
<!-- Node1&#45;&gt;Node1 -->
<g id="edge19_Node000001_Node000001" class="edge">
<title>Node1&#45;&gt;Node1</title>
<g id="a_edge19_Node000001_Node000001"><a xlink:title=" ">
<path fill="none" stroke="#63b8ff" d="M931.19,-310.74C928.33,-315.34 916.18,-318.75 894.75,-318.75 859.58,-318.75 849.41,-309.57 864.25,-301"/>
<polygon fill="#63b8ff" stroke="#63b8ff" points="934.23,-309 926.04,-302.29 928.26,-312.65 934.23,-309"/>
</a>
</g>
</g>
<!-- Node2 -->
<g id="Node000002" class="node">
<title>Node2</title>
<g id="a_Node000002"><a xlink:href="classRpgGame_1_1Core_1_1Level.html#a377e083189e74d5d6ed5fd3234ebfa0f" target="_top" xlink:title="Adds an item to the specified position in the level.">
<polygon fill="white" stroke="#666666" points="772,-551.75 621.75,-551.75 621.75,-533.25 772,-533.25 772,-551.75"/>
<text xml:space="preserve" text-anchor="middle" x="696.88" y="-538.25" font-family="Helvetica,sans-Serif" font-size="10.00">RpgGame.Core.Level.AddItem</text>
</a>
</g>
</g>
<!-- Node1&#45;&gt;Node2 -->
<g id="edge1_Node000001_Node000002" class="edge">
<title>Node1&#45;&gt;Node2</title>
<g id="a_edge1_Node000001_Node000002"><a xlink:title=" ">
<path fill="none" stroke="#63b8ff" d="M890.62,-312.01C882.47,-357.89 856.17,-469.14 786.25,-524.5 781.95,-527.9 777.18,-530.71 772.14,-533.02"/>
<polygon fill="#63b8ff" stroke="#63b8ff" points="894.03,-312.83 892.21,-302.39 887.12,-311.69 894.03,-312.83"/>
</a>
</g>
</g>
<!-- Node4 -->
<g id="Node000004" class="node">
<title>Node4</title>
<g id="a_Node000004"><a xlink:href="classRpgGame_1_1Character_1_1Character.html#a0ac1d1e2c82ab8bf5f82c829d841f5a9" target="_top" xlink:title="Initializes a new instance of the Character class.">
<polygon fill="white" stroke="#666666" points="774.62,-515 619.12,-515 619.12,-486 774.62,-486 774.62,-515"/>
<text xml:space="preserve" text-anchor="start" x="627.12" y="-501.5" font-family="Helvetica,sans-Serif" font-size="10.00">RpgGame.Character.Character.</text>
<text xml:space="preserve" text-anchor="middle" x="696.88" y="-491" font-family="Helvetica,sans-Serif" font-size="10.00">Character</text>
</a>
</g>
</g>
<!-- Node1&#45;&gt;Node4 -->
<g id="edge3_Node000001_Node000004" class="edge">
<title>Node1&#45;&gt;Node4</title>
<g id="a_edge3_Node000001_Node000004"><a xlink:title=" ">
<path fill="none" stroke="#63b8ff" d="M887.77,-311.6C875.37,-349.77 843.15,-432.82 786.25,-476.5 781.71,-479.99 776.7,-482.97 771.44,-485.51"/>
<polygon fill="#63b8ff" stroke="#63b8ff" points="891.03,-312.93 890.66,-302.34 884.34,-310.85 891.03,-312.93"/>
</a>
</g>
</g>
<!-- Node5 -->
<g id="Node000005" class="node">
<title>Node5</title>
<g id="a_Node000005"><a xlink:href="classRpgGame_1_1Core_1_1Level.html#a8dc5a0a4583fa3f25b481b2302ac296a" target="_top" xlink:title="Retrieves all items located at a given position.">
<polygon fill="white" stroke="#666666" points="778.75,-467.75 615,-467.75 615,-449.25 778.75,-449.25 778.75,-467.75"/>
<text xml:space="preserve" text-anchor="middle" x="696.88" y="-454.25" font-family="Helvetica,sans-Serif" font-size="10.00">RpgGame.Core.Level.GetItemsAt</text>
</a>
</g>
</g>
<!-- Node1&#45;&gt;Node5 -->
<g id="edge4_Node000001_Node000005" class="edge">
<title>Node1&#45;&gt;Node5</title>
<g id="a_edge4_Node000001_Node000005"><a xlink:title=" ">
<path fill="none" stroke="#63b8ff" d="M884.64,-311.03C869.05,-342.27 834.21,-403.25 786.25,-435.5 777.7,-441.25 767.79,-445.56 757.77,-448.8"/>
<polygon fill="#63b8ff" stroke="#63b8ff" points="887.65,-312.86 888.85,-302.33 881.34,-309.81 887.65,-312.86"/>
</a>
</g>
</g>
<!-- Node6 -->
<g id="Node000006" class="node">
<title>Node6</title>
<g id="a_Node000006"><a xlink:href="classRpgGame_1_1Core_1_1Level.html#a50c45cab6083fa428e8534c83d841f57" target="_top" xlink:title="Retrieves the top item at a position without removing it.">
<polygon fill="white" stroke="#666666" points="779.12,-393.75 614.62,-393.75 614.62,-375.25 779.12,-375.25 779.12,-393.75"/>
<text xml:space="preserve" text-anchor="middle" x="696.88" y="-380.25" font-family="Helvetica,sans-Serif" font-size="10.00">RpgGame.Core.Level.GetTopItem</text>
</a>
</g>
</g>
<!-- Node1&#45;&gt;Node6 -->
<g id="edge5_Node000001_Node000006" class="edge">
<title>Node1&#45;&gt;Node6</title>
<g id="a_edge5_Node000001_Node000006"><a xlink:title=" ">
<path fill="none" stroke="#63b8ff" d="M874.33,-308.4C853.81,-325.37 819.83,-351.01 786.25,-365.5 777.46,-369.29 767.84,-372.36 758.29,-374.82"/>
<polygon fill="#63b8ff" stroke="#63b8ff" points="876.47,-311.17 881.85,-302.05 871.95,-305.83 876.47,-311.17"/>
</a>
</g>
</g>
<!-- Node8 -->
<g id="Node000008" class="node">
<title>Node8</title>
<g id="a_Node000008"><a xlink:href="classRpgGame_1_1Renderer_1_1ConsoleRenderer.html#a8165e28216b39fd3fbd460f3541ddcf3" target="_top" xlink:title="Renders the current level state and player information to the console. If the help flag is set,...">
<polygon fill="white" stroke="#666666" points="560.62,-417 418.62,-417 418.62,-388 560.62,-388 560.62,-417"/>
<text xml:space="preserve" text-anchor="start" x="426.62" y="-403.5" font-family="Helvetica,sans-Serif" font-size="10.00">RpgGame.Renderer.Console</text>
<text xml:space="preserve" text-anchor="middle" x="489.62" y="-393" font-family="Helvetica,sans-Serif" font-size="10.00">Renderer.Render</text>
</a>
</g>
</g>
<!-- Node1&#45;&gt;Node8 -->
<g id="edge20_Node000001_Node000008" class="edge">
<title>Node1&#45;&gt;Node8</title>
<g id="a_edge20_Node000001_Node000008"><a xlink:title=" ">
<path fill="none" stroke="#63b8ff" d="M882.26,-310.76C865.18,-337.27 830.32,-383.83 786.25,-402.5 714.06,-433.08 622.77,-427.17 560.87,-417.42"/>
<polygon fill="#63b8ff" stroke="#63b8ff" points="885.18,-312.7 887.48,-302.36 879.23,-309 885.18,-312.7"/>
</a>
</g>
</g>
<!-- Node9 -->
<g id="Node000009" class="node">
<title>Node9</title>
<g id="a_Node000009"><a xlink:href="classRpgGame_1_1Core_1_1Level.html#ac68b41346b7e69417e0d275e9dba7f4b" target="_top" xlink:title="Determines whether any items exist at a given position.">
<polygon fill="white" stroke="#666666" points="775,-356.75 618.75,-356.75 618.75,-338.25 775,-338.25 775,-356.75"/>
<text xml:space="preserve" text-anchor="middle" x="696.88" y="-343.25" font-family="Helvetica,sans-Serif" font-size="10.00">RpgGame.Core.Level.HasItems</text>
</a>
</g>
</g>
<!-- Node1&#45;&gt;Node9 -->
<g id="edge8_Node000001_Node000009" class="edge">
<title>Node1&#45;&gt;Node9</title>
<g id="a_edge8_Node000001_Node000009"><a xlink:title=" ">
<path fill="none" stroke="#63b8ff" d="M857.84,-305.07C837.11,-312.59 810.43,-321.77 786.25,-328.5 774,-331.91 760.66,-335.07 748.14,-337.78"/>
<polygon fill="#63b8ff" stroke="#63b8ff" points="858.79,-308.45 866.97,-301.71 856.38,-301.88 858.79,-308.45"/>
</a>
</g>
</g>
<!-- Node10 -->
<g id="Node000010" class="node">
<title>Node10</title>
<g id="a_Node000010"><a xlink:href="classRpgGame_1_1Core_1_1Level.html#a29d79bf5cda2e96ca6e823f9d5772db0" target="_top" xlink:title="Checks whether the specified position lies within the level boundaries.">
<polygon fill="white" stroke="#666666" points="778.38,-245.75 615.38,-245.75 615.38,-227.25 778.38,-227.25 778.38,-245.75"/>
<text xml:space="preserve" text-anchor="middle" x="696.88" y="-232.25" font-family="Helvetica,sans-Serif" font-size="10.00">RpgGame.Core.Level.IsInBounds</text>
</a>
</g>
</g>
<!-- Node1&#45;&gt;Node10 -->
<g id="edge9_Node000001_Node000010" class="edge">
<title>Node1&#45;&gt;Node10</title>
<g id="a_edge9_Node000001_Node000010"><a xlink:title=" ">
<path fill="none" stroke="#63b8ff" d="M851.5,-278.55C831.73,-272.59 807.83,-265.52 786.25,-259.5 769.91,-254.94 751.79,-250.18 736.23,-246.17"/>
<polygon fill="#63b8ff" stroke="#63b8ff" points="850.28,-281.84 860.87,-281.39 852.31,-275.14 850.28,-281.84"/>
</a>
</g>
</g>
<!-- Node11 -->
<g id="Node000011" class="node">
<title>Node11</title>
<g id="a_Node000011"><a xlink:href="classRpgGame_1_1Core_1_1Level.html#af9e6a4b820c77f9390aed74bdc0f1c8a" target="_top" xlink:title="Determines whether a character can move to the specified position.">
<polygon fill="white" stroke="#666666" points="562.12,-245 417.12,-245 417.12,-216 562.12,-216 562.12,-245"/>
<text xml:space="preserve" text-anchor="start" x="425.12" y="-231.5" font-family="Helvetica,sans-Serif" font-size="10.00">RpgGame.Core.Level.IsMove</text>
<text xml:space="preserve" text-anchor="middle" x="489.62" y="-221" font-family="Helvetica,sans-Serif" font-size="10.00">Valid</text>
</a>
</g>
</g>
<!-- Node1&#45;&gt;Node11 -->
<g id="edge16_Node000001_Node000011" class="edge">
<title>Node1&#45;&gt;Node11</title>
<g id="a_edge16_Node000001_Node000011"><a xlink:title=" ">
<path fill="none" stroke="#63b8ff" d="M890.62,-270.66C882.63,-225.69 856.84,-120.13 786.25,-76.5 718.67,-34.73 678.66,-41.17 607.5,-76.5 547.37,-106.35 509.86,-183.55 496.32,-215.9"/>
<polygon fill="#63b8ff" stroke="#63b8ff" points="887.14,-271.06 892.22,-280.36 894.05,-269.93 887.14,-271.06"/>
</a>
</g>
</g>
<!-- Node12 -->
<g id="Node000012" class="node">
<title>Node12</title>
<g id="a_Node000012"><a xlink:href="classRpgGame_1_1Core_1_1Level.html#a069520f8d4f28477ce45023ad97fbd95" target="_top" xlink:title="Attempts to move a character to a new position if the move is valid. Also handles item interactions f...">
<polygon fill="white" stroke="#666666" points="371.75,-266 220.75,-266 220.75,-237 371.75,-237 371.75,-266"/>
<text xml:space="preserve" text-anchor="start" x="228.75" y="-252.5" font-family="Helvetica,sans-Serif" font-size="10.00">RpgGame.Core.Level.TryMove</text>
<text xml:space="preserve" text-anchor="middle" x="296.25" y="-242" font-family="Helvetica,sans-Serif" font-size="10.00">Character</text>
</a>
</g>
</g>
<!-- Node1&#45;&gt;Node12 -->
<g id="edge25_Node000001_Node000012" class="edge">
<title>Node1&#45;&gt;Node12</title>
<g id="a_edge25_Node000001_Node000012"><a xlink:title=" ">
<path fill="none" stroke="#63b8ff" d="M810.46,-285.91C693.81,-278.09 483.55,-263.99 371.8,-256.5"/>
<polygon fill="#63b8ff" stroke="#63b8ff" points="810.08,-289.4 820.29,-286.57 810.54,-282.41 810.08,-289.4"/>
</a>
</g>
</g>
<!-- Node17 -->
<g id="Node000017" class="node">
<title>Node17</title>
<g id="a_Node000017"><a xlink:href="classRpgGame_1_1Character_1_1Character.html#a20a9733d47e107044963881b844a7fec" target="_top" xlink:title="Moves the character to a new position.">
<polygon fill="white" stroke="#666666" points="786.25,-208.75 607.5,-208.75 607.5,-190.25 786.25,-190.25 786.25,-208.75"/>
<text xml:space="preserve" text-anchor="middle" x="696.88" y="-195.25" font-family="Helvetica,sans-Serif" font-size="10.00">RpgGame.Character.Character.Move</text>
</a>
</g>
</g>
<!-- Node1&#45;&gt;Node17 -->
<g id="edge17_Node000001_Node000017" class="edge">
<title>Node1&#45;&gt;Node17</title>
<g id="a_edge17_Node000001_Node000017"><a xlink:title=" ">
<path fill="none" stroke="#63b8ff" d="M873.96,-274.57C853.37,-257.84 819.56,-232.74 786.25,-218.5 777.45,-214.74 767.82,-211.69 758.27,-209.23"/>
<polygon fill="#63b8ff" stroke="#63b8ff" points="871.59,-277.15 881.52,-280.85 876.06,-271.77 871.59,-277.15"/>
</a>
</g>
</g>
<!-- Node18 -->
<g id="Node000018" class="node">
<title>Node18</title>
<g id="a_Node000018"><a xlink:href="classRpgGame_1_1Character_1_1Player.html#a3f2914f11b2b3e355196bb214a6bfc36" target="_top" xlink:title="Initializes a new instance of the Player class.">
<polygon fill="white" stroke="#666666" points="766.75,-172 627,-172 627,-143 766.75,-143 766.75,-172"/>
<text xml:space="preserve" text-anchor="start" x="635" y="-158.5" font-family="Helvetica,sans-Serif" font-size="10.00">RpgGame.Character.Player.</text>
<text xml:space="preserve" text-anchor="middle" x="696.88" y="-148" font-family="Helvetica,sans-Serif" font-size="10.00">Player</text>
</a>
</g>
</g>
<!-- Node1&#45;&gt;Node18 -->
<g id="edge18_Node000001_Node000018" class="edge">
<title>Node1&#45;&gt;Node18</title>
<g id="a_edge18_Node000001_Node000018"><a xlink:title=" ">
<path fill="none" stroke="#63b8ff" d="M880.62,-272.87C862.3,-248.26 826.72,-205.27 786.25,-181.5 780.22,-177.96 773.65,-174.92 766.91,-172.33"/>
<polygon fill="#63b8ff" stroke="#63b8ff" points="877.58,-274.64 886.29,-280.67 883.24,-270.52 877.58,-274.64"/>
</a>
</g>
</g>
<!-- Node19 -->
<g id="Node000019" class="node">
<title>Node19</title>
<g id="a_Node000019"><a xlink:href="classRpgGame_1_1Generation_1_1MapSpawnHelper.html#a1d4ada95af130a739159a6b306a5cf3b" target="_top" xlink:title=" ">
<polygon fill="white" stroke="#666666" points="778.38,-125.25 615.38,-125.25 615.38,-85.75 778.38,-85.75 778.38,-125.25"/>
<text xml:space="preserve" text-anchor="start" x="623.38" y="-111.75" font-family="Helvetica,sans-Serif" font-size="10.00">RpgGame.Generation.MapSpawn</text>
<text xml:space="preserve" text-anchor="start" x="623.38" y="-101.25" font-family="Helvetica,sans-Serif" font-size="10.00">Helper.SpawnItemsAsync&lt;</text>
<text xml:space="preserve" text-anchor="middle" x="696.88" y="-90.75" font-family="Helvetica,sans-Serif" font-size="10.00"> TItem &gt;</text>
</a>
</g>
</g>
<!-- Node1&#45;&gt;Node19 -->
<g id="edge21_Node000001_Node000019" class="edge">
<title>Node1&#45;&gt;Node19</title>
<g id="a_edge21_Node000001_Node000019"><a xlink:title=" ">
<path fill="none" stroke="#63b8ff" d="M885.29,-271.49C870.23,-238.23 835.65,-171.57 786.25,-134.5 781.86,-131.2 777.07,-128.27 772.08,-125.67"/>
<polygon fill="#63b8ff" stroke="#63b8ff" points="881.96,-272.62 889.19,-280.37 888.37,-269.81 881.96,-272.62"/>
</a>
</g>
</g>
<!-- Node20 -->
<g id="Node000020" class="node">
<title>Node20</title>
<g id="a_Node000020"><a xlink:href="classRpgGame_1_1Core_1_1Level.html#a0755988cf7c365fe2e38416a4f62272f" target="_top" xlink:title="Removes and returns the top item at a given position.">
<polygon fill="white" stroke="#666666" points="781.38,-319.75 612.38,-319.75 612.38,-301.25 781.38,-301.25 781.38,-319.75"/>
<text xml:space="preserve" text-anchor="middle" x="696.88" y="-306.25" font-family="Helvetica,sans-Serif" font-size="10.00">RpgGame.Core.Level.TakeTopItem</text>
</a>
</g>
</g>
<!-- Node1&#45;&gt;Node20 -->
<g id="edge22_Node000001_Node000020" class="edge">
<title>Node1&#45;&gt;Node20</title>
<g id="a_edge22_Node000001_Node000020"><a xlink:title=" ">
<path fill="none" stroke="#63b8ff" d="M810.73,-299.55C801.1,-300.49 791.28,-301.44 781.64,-302.38"/>
<polygon fill="#63b8ff" stroke="#63b8ff" points="810.8,-303.06 820.42,-298.61 810.13,-296.1 810.8,-303.06"/>
</a>
</g>
</g>
<!-- Node21 -->
<g id="Node000021" class="node">
<title>Node21</title>
<g id="a_Node000021"><a xlink:href="classRpgGame_1_1Core_1_1Level.html#a3f7bc3368d44ad1e29bbe628c0f93750" target="_top" xlink:title="Returns the total number of items at a given position.">
<polygon fill="white" stroke="#666666" points="764.12,-29 629.62,-29 629.62,0 764.12,0 764.12,-29"/>
<text xml:space="preserve" text-anchor="start" x="637.62" y="-15.5" font-family="Helvetica,sans-Serif" font-size="10.00">RpgGame.Core.Level.Total</text>
<text xml:space="preserve" text-anchor="middle" x="696.88" y="-5" font-family="Helvetica,sans-Serif" font-size="10.00">ItemsAt</text>
</a>
</g>
</g>
<!-- Node1&#45;&gt;Node21 -->
<g id="edge24_Node000001_Node000021" class="edge">
<title>Node1&#45;&gt;Node21</title>
<g id="a_edge24_Node000001_Node000021"><a xlink:title=" ">
<path fill="none" stroke="#63b8ff" d="M890.6,-270.6C882.36,-223.24 855.8,-106.94 786.25,-43.5 779.93,-37.73 772.43,-33.11 764.53,-29.41"/>
<polygon fill="#63b8ff" stroke="#63b8ff" points="887.12,-270.99 892.18,-280.3 894.03,-269.87 887.12,-270.99"/>
</a>
</g>
</g>
<!-- Node3 -->
<g id="Node000003" class="node">
<title>Node3</title>
<g id="a_Node000003"><a xlink:href="classRpgGame_1_1Items_1_1Weapon.html#a339e37ae4e04120d793116e8ab6b48d7" target="_top" xlink:title="Drops the weapon onto the current level at the player&#39;s position.">
<polygon fill="white" stroke="#666666" points="571.5,-551.75 407.75,-551.75 407.75,-533.25 571.5,-533.25 571.5,-551.75"/>
<text xml:space="preserve" text-anchor="middle" x="489.62" y="-538.25" font-family="Helvetica,sans-Serif" font-size="10.00">RpgGame.Items.Weapon.OnDrop</text>
</a>
</g>
</g>
<!-- Node2&#45;&gt;Node3 -->
<g id="edge2_Node000002_Node000003" class="edge">
<title>Node2&#45;&gt;Node3</title>
<g id="a_edge2_Node000002_Node000003"><a xlink:title=" ">
<path fill="none" stroke="#63b8ff" d="M610.35,-542.5C597.56,-542.5 584.4,-542.5 571.7,-542.5"/>
<polygon fill="#63b8ff" stroke="#63b8ff" points="609.97,-546 619.97,-542.5 609.97,-539 609.97,-546"/>
</a>
</g>
</g>
<!-- Node7 -->
<g id="Node000007" class="node">
<title>Node7</title>
<g id="a_Node000007"><a xlink:href="classRpgGame_1_1Input_1_1TakeToInventoryCommand.html#a267b724b8c02cf1e7901f971131110fa" target="_top" xlink:title="Executes the command using provided game objects.Typically 1 to indicate the game should continue,...">
<polygon fill="white" stroke="#666666" points="569.25,-360 410,-360 410,-331 569.25,-331 569.25,-360"/>
<text xml:space="preserve" text-anchor="start" x="418" y="-346.5" font-family="Helvetica,sans-Serif" font-size="10.00">RpgGame.Input.TakeToInventory</text>
<text xml:space="preserve" text-anchor="middle" x="489.62" y="-336" font-family="Helvetica,sans-Serif" font-size="10.00">Command.Execute</text>
</a>
</g>
</g>
<!-- Node6&#45;&gt;Node7 -->
<g id="edge6_Node000006_Node000007" class="edge">
<title>Node6&#45;&gt;Node7</title>
<g id="a_edge6_Node000006_Node000007"><a xlink:title=" ">
<path fill="none" stroke="#63b8ff" d="M633.33,-372.62C613.1,-368.77 590.41,-364.46 569.17,-360.43"/>
<polygon fill="#63b8ff" stroke="#63b8ff" points="632.65,-376.05 643.12,-374.48 633.95,-369.17 632.65,-376.05"/>
</a>
</g>
</g>
<!-- Node6&#45;&gt;Node8 -->
<g id="edge7_Node000006_Node000008" class="edge">
<title>Node6&#45;&gt;Node8</title>
<g id="a_edge7_Node000006_Node000008"><a xlink:title=" ">
<path fill="none" stroke="#63b8ff" d="M602.89,-392.65C588.75,-393.89 574.35,-395.16 560.8,-396.35"/>
<polygon fill="#63b8ff" stroke="#63b8ff" points="603,-396.16 612.66,-391.8 602.39,-389.19 603,-396.16"/>
</a>
</g>
</g>
<!-- Node10&#45;&gt;Node11 -->
<g id="edge10_Node000010_Node000011" class="edge">
<title>Node10&#45;&gt;Node11</title>
<g id="a_edge10_Node000010_Node000011"><a xlink:title=" ">
<path fill="none" stroke="#63b8ff" d="M603.95,-233.81C590.01,-233.41 575.81,-232.99 562.38,-232.6"/>
<polygon fill="#63b8ff" stroke="#63b8ff" points="603.44,-237.3 613.54,-234.09 603.64,-230.3 603.44,-237.3"/>
</a>
</g>
</g>
<!-- Node11&#45;&gt;Node12 -->
<g id="edge11_Node000011_Node000012" class="edge">
<title>Node11&#45;&gt;Node12</title>
<g id="a_edge11_Node000011_Node000012"><a xlink:title=" ">
<path fill="none" stroke="#63b8ff" d="M405.72,-239.6C394.51,-240.83 383.07,-242.08 372.01,-243.3"/>
<polygon fill="#63b8ff" stroke="#63b8ff" points="405.76,-243.11 415.32,-238.54 404.99,-236.16 405.76,-243.11"/>
</a>
</g>
</g>
<!-- Node13 -->
<g id="Node000013" class="node">
<title>Node13</title>
<g id="a_Node000013"><a xlink:href="classRpgGame_1_1Input_1_1MoveDownCommand.html#ae2bb14b8cd81c7dfd4c024e7816d3856" target="_top" xlink:title="Executes the command using provided game objects.Typically 1 to indicate the game should continue,...">
<polygon fill="white" stroke="#666666" points="184.75,-337 0,-337 0,-308 184.75,-308 184.75,-337"/>
<text xml:space="preserve" text-anchor="start" x="8" y="-323.5" font-family="Helvetica,sans-Serif" font-size="10.00">RpgGame.Input.MoveDownCommand.</text>
<text xml:space="preserve" text-anchor="middle" x="92.38" y="-313" font-family="Helvetica,sans-Serif" font-size="10.00">Execute</text>
</a>
</g>
</g>
<!-- Node12&#45;&gt;Node13 -->
<g id="edge12_Node000012_Node000013" class="edge">
<title>Node12&#45;&gt;Node13</title>
<g id="a_edge12_Node000012_Node000013"><a xlink:title=" ">
<path fill="none" stroke="#63b8ff" d="M254.54,-271.08C233.94,-280.5 208.35,-291.46 184.75,-299.5 176.23,-302.4 167.16,-305.12 158.16,-307.59"/>
<polygon fill="#63b8ff" stroke="#63b8ff" points="255.84,-274.34 263.45,-266.96 252.9,-267.98 255.84,-274.34"/>
</a>
</g>
</g>
<!-- Node14 -->
<g id="Node000014" class="node">
<title>Node14</title>
<g id="a_Node000014"><a xlink:href="classRpgGame_1_1Input_1_1MoveLeftCommand.html#a6f72bae13e13dfec5271a62e066d6c6e" target="_top" xlink:title="Executes the command using provided game objects.Typically 1 to indicate the game should continue,...">
<polygon fill="white" stroke="#666666" points="180.25,-290 4.5,-290 4.5,-261 180.25,-261 180.25,-290"/>
<text xml:space="preserve" text-anchor="start" x="12.5" y="-276.5" font-family="Helvetica,sans-Serif" font-size="10.00">RpgGame.Input.MoveLeftCommand.</text>
<text xml:space="preserve" text-anchor="middle" x="92.38" y="-266" font-family="Helvetica,sans-Serif" font-size="10.00">Execute</text>
</a>
</g>
</g>
<!-- Node12&#45;&gt;Node14 -->
<g id="edge13_Node000012_Node000014" class="edge">
<title>Node12&#45;&gt;Node14</title>
<g id="a_edge13_Node000012_Node000014"><a xlink:title=" ">
<path fill="none" stroke="#63b8ff" d="M209.05,-261.75C199.68,-262.86 190.13,-264 180.75,-265.11"/>
<polygon fill="#63b8ff" stroke="#63b8ff" points="209.35,-265.24 218.86,-260.58 208.52,-258.29 209.35,-265.24"/>
</a>
</g>
</g>
<!-- Node15 -->
<g id="Node000015" class="node">
<title>Node15</title>
<g id="a_Node000015"><a xlink:href="classRpgGame_1_1Input_1_1MoveRightCommand.html#addf3f1cf8496209ebc90dca7ab2e8e44" target="_top" xlink:title="Executes the command using provided game objects.Typically 1 to indicate the game should continue,...">
<polygon fill="white" stroke="#666666" points="183.62,-243 1.12,-243 1.12,-214 183.62,-214 183.62,-243"/>
<text xml:space="preserve" text-anchor="start" x="9.12" y="-229.5" font-family="Helvetica,sans-Serif" font-size="10.00">RpgGame.Input.MoveRightCommand.</text>
<text xml:space="preserve" text-anchor="middle" x="92.38" y="-219" font-family="Helvetica,sans-Serif" font-size="10.00">Execute</text>
</a>
</g>
</g>
<!-- Node12&#45;&gt;Node15 -->
<g id="edge14_Node000012_Node000015" class="edge">
<title>Node12&#45;&gt;Node15</title>
<g id="a_edge14_Node000012_Node000015"><a xlink:title=" ">
<path fill="none" stroke="#63b8ff" d="M209.09,-241.68C200.73,-240.73 192.25,-239.76 183.85,-238.81"/>
<polygon fill="#63b8ff" stroke="#63b8ff" points="208.53,-245.14 218.86,-242.8 209.32,-238.19 208.53,-245.14"/>
</a>
</g>
</g>
<!-- Node16 -->
<g id="Node000016" class="node">
<title>Node16</title>
<g id="a_Node000016"><a xlink:href="classRpgGame_1_1Input_1_1MoveUpCommand.html#a0db6076a2d209af09ab0149e5fef7674" target="_top" xlink:title="Executes the command using provided game objects.Typically 1 to indicate the game should continue,...">
<polygon fill="white" stroke="#666666" points="178.38,-196 6.38,-196 6.38,-167 178.38,-167 178.38,-196"/>
<text xml:space="preserve" text-anchor="start" x="14.38" y="-182.5" font-family="Helvetica,sans-Serif" font-size="10.00">RpgGame.Input.MoveUpCommand.</text>
<text xml:space="preserve" text-anchor="middle" x="92.38" y="-172" font-family="Helvetica,sans-Serif" font-size="10.00">Execute</text>
</a>
</g>
</g>
<!-- Node12&#45;&gt;Node16 -->
<g id="edge15_Node000012_Node000016" class="edge">
<title>Node12&#45;&gt;Node16</title>
<g id="a_edge15_Node000012_Node000016"><a xlink:title=" ">
<path fill="none" stroke="#63b8ff" d="M252.37,-232.03C232.11,-223.25 207.45,-213.16 184.75,-205.5 175.27,-202.3 165.12,-199.26 155.16,-196.49"/>
<polygon fill="#63b8ff" stroke="#63b8ff" points="250.87,-235.2 261.44,-236.01 253.68,-228.79 250.87,-235.2"/>
</a>
</g>
</g>
<!-- Node20&#45;&gt;Node7 -->
<g id="edge23_Node000020_Node000007" class="edge">
<title>Node20&#45;&gt;Node7</title>
<g id="a_edge23_Node000020_Node000007"><a xlink:title=" ">
<path fill="none" stroke="#63b8ff" d="M627.43,-322.17C608.93,-325.33 588.76,-328.77 569.73,-332.01"/>
<polygon fill="#63b8ff" stroke="#63b8ff" points="627.94,-325.64 637.21,-320.5 626.76,-318.73 627.94,-325.64"/>
</a>
</g>
</g>
</g>
</svg>

<g id="navigator" transform="translate(0 0)" fill="#404254">
  <rect fill="#f2f5e9" fill-opacity="0.5" stroke="#606060" stroke-width=".5" x="0" y="0" width="60" height="60"/>
  <use id="zoomplus" xlink:href="#zoomPlus" x="17" y="9" onmousedown="handleZoom(evt,'in')"/>
  <use id="zoomminus" xlink:href="#zoomMin" x="42" y="9" onmousedown="handleZoom(evt,'out')"/>
  <use id="reset" xlink:href="#resetDef" x="30" y="36" onmousedown="handleReset()"/>
   <use id="arrowup" xlink:href="#arrowUp" x="0" y="0" onmousedown="handlePan(0,-1)"/>
  <use id="arrowright" xlink:href="#arrowRight" x="0" y="0" onmousedown="handlePan(1,0)"/>
  <use id="arrowdown" xlink:href="#arrowDown" x="0" y="0" onmousedown="handlePan(0,1)"/>
  <use id="arrowleft" xlink:href="#arrowLeft" x="0" y="0" onmousedown="handlePan(-1,0)"/>
</g>
<svg viewBox="0 0 15 15" width="100%" height="30px" preserveAspectRatio="xMaxYMin meet">
 <g id="arrow_out" transform="scale(0.3 0.3)">
  <a xlink:href="namespaceRpgGame_1_1Character_ab2e6f640f8bfc682c50e3c19e0d417f1_icgraph_org.svg" target="_base">
   <rect id="button" ry="5" rx="5" y="6" x="6" height="38" width="38"
        fill="#f2f5e9" fill-opacity="0.5" stroke="#606060" stroke-width="1.0"/>
   <path id="arrow"
     d="M 11.500037,31.436501 C 11.940474,20.09759 22.043105,11.32322 32.158766,21.979434 L 37.068811,17.246167 C 37.068811,17.246167 37.088388,32 37.088388,32 L 22.160133,31.978069 C 22.160133,31.978069 26.997745,27.140456 26.997745,27.140456 C 18.528582,18.264221 13.291696,25.230495 11.500037,31.436501 z"
     style="fill:#404040;"/>
  </a>
 </g>
</svg>

<style type='text/css'>
<![CDATA[
[data-mouse-over-selected='false'] { opacity: 0.7; }
[data-mouse-over-selected='true']  { opacity: 1.0; }
]]>
</style>
<script type="application/ecmascript"><![CDATA[
document.addEventListener('DOMContentLoaded', (event) => {
  highlightEdges();
  highlightAdjacentNodes();
});
]]></script>
</svg>
