<?xml version="1.0" encoding="us-ascii" standalone="no"?><svg xmlns="http://www.w3.org/2000/svg" xmlns:xlink="http://www.w3.org/1999/xlink" contentStyleType="text/css" height="1262px" preserveAspectRatio="none" style="width:5174px;height:1262px;background:#FFFFFF;" version="1.1" viewBox="0 0 5174 1262" width="5174px" zoomAndPan="magnify"><defs/><g><!--class IItem--><g id="elem_IItem"><rect codeLine="4" fill="#F1F1F1" height="105.2038" id="IItem" rx="2.5" ry="2.5" style="stroke:#181818;stroke-width:0.5;" width="309" x="852.5" y="489.95"/><ellipse cx="985.75" cy="505.95" fill="#B4A7E5" rx="11" ry="11" style="stroke:#181818;stroke-width:1.0;"/><path d="M987.8438,512.45 L982.9375,512.45 L982.9375,511.075 L984.3594,510.7625 L984.3594,501.4813 L982.9375,501.1375 L982.9375,499.7781 L987.8438,499.7781 L987.8438,501.1375 L986.4219,501.4813 L986.4219,510.7625 L987.8438,511.075 L987.8438,512.45 Z " fill="#000000"/><text fill="#000000" font-family="sans-serif" font-size="14" font-style="italic" lengthAdjust="spacing" textLength="34" x="1006.25" y="511.382">IItem</text><line style="stroke:#181818;stroke-width:0.5;" x1="853.5" x2="1160.5" y1="521.95" y2="521.95"/><text fill="#000000" font-family="sans-serif" font-size="14" lengthAdjust="spacing" textLength="96" x="858.5" y="540.9159">+Name: string</text><line style="stroke:#181818;stroke-width:0.5;" x1="853.5" x2="1160.5" y1="549.0179" y2="549.0179"/><text fill="#000000" font-family="sans-serif" font-size="14" lengthAdjust="spacing" textLength="259" x="858.5" y="567.9839">+Symbol: char  GetDescription(): string</text><text fill="#000000" font-family="sans-serif" font-size="14" lengthAdjust="spacing" textLength="297" x="858.5" y="587.0518">PickUp(player: Player, pickUpLeft: bool): bool</text></g><!--class IEquippable--><g id="elem_IEquippable"><rect codeLine="10" fill="#F1F1F1" height="86.1358" id="IEquippable" rx="2.5" ry="2.5" style="stroke:#181818;stroke-width:0.5;" width="260" x="481" y="712.36"/><ellipse cx="569.25" cy="728.36" fill="#B4A7E5" rx="11" ry="11" style="stroke:#181818;stroke-width:1.0;"/><path d="M571.3438,734.86 L566.4375,734.86 L566.4375,733.485 L567.8594,733.1725 L567.8594,723.8913 L566.4375,723.5475 L566.4375,722.1881 L571.3438,722.1881 L571.3438,723.5475 L569.9219,723.8913 L569.9219,733.1725 L571.3438,733.485 L571.3438,734.86 Z " fill="#000000"/><text fill="#000000" font-family="sans-serif" font-size="14" font-style="italic" lengthAdjust="spacing" textLength="75" x="589.75" y="733.792">IEquippable</text><line style="stroke:#181818;stroke-width:0.5;" x1="482" x2="740" y1="744.36" y2="744.36"/><line style="stroke:#181818;stroke-width:0.5;" x1="482" x2="740" y1="752.36" y2="752.36"/><text fill="#000000" font-family="sans-serif" font-size="14" lengthAdjust="spacing" textLength="237" x="487" y="771.3259">TryEquipToLeft(player: Player): bool</text><text fill="#000000" font-family="sans-serif" font-size="14" lengthAdjust="spacing" textLength="248" x="487" y="790.3939">TryEquipToRight(player: Player): bool</text></g><!--class Weapon--><g id="elem_Weapon"><rect codeLine="15" fill="#F1F1F1" height="124.2717" id="Weapon" rx="2.5" ry="2.5" style="stroke:#181818;stroke-width:0.5;" width="216" x="503" y="896.63"/><ellipse cx="581.25" cy="912.63" fill="#A9DCDF" rx="11" ry="11" style="stroke:#181818;stroke-width:1.0;"/><path d="M584.5938,917.88 L583.125,914.13 L578.6875,914.13 L577.25,917.88 L575.125,917.88 L580.0781,905.1613 L581.8281,905.1613 L586.75,917.88 L584.5938,917.88 Z M581.25,908.9269 Q581.2031,908.7706 581.0781,908.4113 Q580.9531,908.0519 580.8438,907.6769 Q580.7344,907.2863 580.9219,907.2238 Q581.0469,907.5988 580.8906,908.1144 Q580.75,908.6144 580.6406,908.9269 L579.4063,912.2394 L582.4844,912.2394 L581.25,908.9269 Z " fill="#000000"/><text fill="#000000" font-family="sans-serif" font-size="14" font-style="italic" lengthAdjust="spacing" textLength="51" x="601.75" y="918.062">Weapon</text><line style="stroke:#181818;stroke-width:0.5;" x1="504" x2="718" y1="928.63" y2="928.63"/><text fill="#000000" font-family="sans-serif" font-size="14" lengthAdjust="spacing" textLength="204" x="509" y="947.5959">#occupation: HandOccupation</text><text fill="#000000" font-family="sans-serif" font-size="14" lengthAdjust="spacing" textLength="96" x="509" y="966.6639">+Name: string</text><text fill="#000000" font-family="sans-serif" font-size="14" lengthAdjust="spacing" textLength="95" x="509" y="985.7318">+Symbol: char</text><text fill="#000000" font-family="sans-serif" font-size="14" lengthAdjust="spacing" textLength="90" x="509" y="1004.7997">+Damage: int</text><line style="stroke:#181818;stroke-width:0.5;" x1="504" x2="718" y1="1012.9017" y2="1012.9017"/></g><!--class Coin--><g id="elem_Coin"><rect codeLine="22" fill="#F1F1F1" height="48" id="Coin" rx="2.5" ry="2.5" style="stroke:#181818;stroke-width:0.5;" width="62" x="988" y="731.43"/><ellipse cx="1003" cy="747.43" fill="#ADD1B2" rx="11" ry="11" style="stroke:#181818;stroke-width:1.0;"/><path d="M1003.1094,742.7113 Q1001.2813,742.7113 1000.2344,743.9456 Q999.1875,745.1644 999.1875,747.3519 Q999.1875,749.5081 1000.1563,750.7425 Q1001.1406,751.9769 1003.0938,751.9769 Q1003.875,751.9769 1004.5625,751.8519 Q1005.2656,751.7113 1006.2656,751.3988 L1006.2656,753.2738 Q1005.4063,753.6019 1004.6406,753.7269 Q1003.8906,753.8519 1002.875,753.8519 Q1000.9531,753.8519 999.6406,753.055 Q998.3438,752.2425 997.6875,750.7738 Q997.0313,749.2894 997.0313,747.3206 Q997.0313,745.43 997.7344,743.9613 Q998.4375,742.4925 999.8125,741.6644 Q1001.1875,740.8363 1003.1406,740.8363 Q1005.1094,740.8363 1006.8281,741.6956 L1006,743.4769 Q1005.2188,743.1019 1004.5625,742.9144 Q1003.9063,742.7113 1003.1094,742.7113 Z " fill="#000000"/><text fill="#000000" font-family="sans-serif" font-size="14" lengthAdjust="spacing" textLength="30" x="1017" y="752.862">Coin</text><line style="stroke:#181818;stroke-width:0.5;" x1="989" x2="1049" y1="763.43" y2="763.43"/><line style="stroke:#181818;stroke-width:0.5;" x1="989" x2="1049" y1="771.43" y2="771.43"/></g><!--class Gold--><g id="elem_Gold"><rect codeLine="23" fill="#F1F1F1" height="48" id="Gold" rx="2.5" ry="2.5" style="stroke:#181818;stroke-width:0.5;" width="63" x="890.5" y="731.43"/><ellipse cx="905.5" cy="747.43" fill="#ADD1B2" rx="11" ry="11" style="stroke:#181818;stroke-width:1.0;"/><path d="M905.6094,742.7113 Q903.7813,742.7113 902.7344,743.9456 Q901.6875,745.1644 901.6875,747.3519 Q901.6875,749.5081 902.6563,750.7425 Q903.6406,751.9769 905.5938,751.9769 Q906.375,751.9769 907.0625,751.8519 Q907.7656,751.7113 908.7656,751.3988 L908.7656,753.2738 Q907.9063,753.6019 907.1406,753.7269 Q906.3906,753.8519 905.375,753.8519 Q903.4531,753.8519 902.1406,753.055 Q900.8438,752.2425 900.1875,750.7738 Q899.5313,749.2894 899.5313,747.3206 Q899.5313,745.43 900.2344,743.9613 Q900.9375,742.4925 902.3125,741.6644 Q903.6875,740.8363 905.6406,740.8363 Q907.6094,740.8363 909.3281,741.6956 L908.5,743.4769 Q907.7188,743.1019 907.0625,742.9144 Q906.4063,742.7113 905.6094,742.7113 Z " fill="#000000"/><text fill="#000000" font-family="sans-serif" font-size="14" lengthAdjust="spacing" textLength="31" x="919.5" y="752.862">Gold</text><line style="stroke:#181818;stroke-width:0.5;" x1="891.5" x2="952.5" y1="763.43" y2="763.43"/><line style="stroke:#181818;stroke-width:0.5;" x1="891.5" x2="952.5" y1="771.43" y2="771.43"/></g><!--class Sword--><g id="elem_Sword"><rect codeLine="25" fill="#F1F1F1" height="48" id="Sword" rx="2.5" ry="2.5" style="stroke:#181818;stroke-width:0.5;" width="74" x="441" y="1090.44"/><ellipse cx="456" cy="1106.44" fill="#ADD1B2" rx="11" ry="11" style="stroke:#181818;stroke-width:1.0;"/><path d="M456.1094,1101.7213 Q454.2813,1101.7213 453.2344,1102.9556 Q452.1875,1104.1744 452.1875,1106.3619 Q452.1875,1108.5181 453.1563,1109.7525 Q454.1406,1110.9869 456.0938,1110.9869 Q456.875,1110.9869 457.5625,1110.8619 Q458.2656,1110.7213 459.2656,1110.4088 L459.2656,1112.2838 Q458.4063,1112.6119 457.6406,1112.7369 Q456.8906,1112.8619 455.875,1112.8619 Q453.9531,1112.8619 452.6406,1112.065 Q451.3438,1111.2525 450.6875,1109.7838 Q450.0313,1108.2994 450.0313,1106.3306 Q450.0313,1104.44 450.7344,1102.9713 Q451.4375,1101.5025 452.8125,1100.6744 Q454.1875,1099.8463 456.1406,1099.8463 Q458.1094,1099.8463 459.8281,1100.7056 L459,1102.4869 Q458.2188,1102.1119 457.5625,1101.9244 Q456.9063,1101.7213 456.1094,1101.7213 Z " fill="#000000"/><text fill="#000000" font-family="sans-serif" font-size="14" lengthAdjust="spacing" textLength="42" x="470" y="1111.872">Sword</text><line style="stroke:#181818;stroke-width:0.5;" x1="442" x2="514" y1="1122.44" y2="1122.44"/><line style="stroke:#181818;stroke-width:0.5;" x1="442" x2="514" y1="1130.44" y2="1130.44"/></g><!--class DoubleSword--><g id="elem_DoubleSword"><rect codeLine="26" fill="#F1F1F1" height="48" id="DoubleSword" rx="2.5" ry="2.5" style="stroke:#181818;stroke-width:0.5;" width="122" x="550" y="1090.44"/><ellipse cx="565" cy="1106.44" fill="#ADD1B2" rx="11" ry="11" style="stroke:#181818;stroke-width:1.0;"/><path d="M565.1094,1101.7213 Q563.2813,1101.7213 562.2344,1102.9556 Q561.1875,1104.1744 561.1875,1106.3619 Q561.1875,1108.5181 562.1563,1109.7525 Q563.1406,1110.9869 565.0938,1110.9869 Q565.875,1110.9869 566.5625,1110.8619 Q567.2656,1110.7213 568.2656,1110.4088 L568.2656,1112.2838 Q567.4063,1112.6119 566.6406,1112.7369 Q565.8906,1112.8619 564.875,1112.8619 Q562.9531,1112.8619 561.6406,1112.065 Q560.3438,1111.2525 559.6875,1109.7838 Q559.0313,1108.2994 559.0313,1106.3306 Q559.0313,1104.44 559.7344,1102.9713 Q560.4375,1101.5025 561.8125,1100.6744 Q563.1875,1099.8463 565.1406,1099.8463 Q567.1094,1099.8463 568.8281,1100.7056 L568,1102.4869 Q567.2188,1102.1119 566.5625,1101.9244 Q565.9063,1101.7213 565.1094,1101.7213 Z " fill="#000000"/><text fill="#000000" font-family="sans-serif" font-size="14" lengthAdjust="spacing" textLength="90" x="579" y="1111.872">DoubleSword</text><line style="stroke:#181818;stroke-width:0.5;" x1="551" x2="671" y1="1122.44" y2="1122.44"/><line style="stroke:#181818;stroke-width:0.5;" x1="551" x2="671" y1="1130.44" y2="1130.44"/></g><!--class HandOccupation--><g id="elem_HandOccupation"><rect codeLine="28" fill="#F1F1F1" height="67.0679" id="HandOccupation" rx="2.5" ry="2.5" style="stroke:#181818;stroke-width:0.5;" width="213" x="706.5" y="1080.9"/><ellipse cx="756.25" cy="1096.9" fill="#A9DCDF" rx="11" ry="11" style="stroke:#181818;stroke-width:1.0;"/><path d="M759.5938,1102.15 L758.125,1098.4 L753.6875,1098.4 L752.25,1102.15 L750.125,1102.15 L755.0781,1089.4313 L756.8281,1089.4313 L761.75,1102.15 L759.5938,1102.15 Z M756.25,1093.1969 Q756.2031,1093.0406 756.0781,1092.6813 Q755.9531,1092.3219 755.8438,1091.9469 Q755.7344,1091.5563 755.9219,1091.4938 Q756.0469,1091.8688 755.8906,1092.3844 Q755.75,1092.8844 755.6406,1093.1969 L754.4063,1096.5094 L757.4844,1096.5094 L756.25,1093.1969 Z " fill="#000000"/><text fill="#000000" font-family="sans-serif" font-size="14" font-style="italic" lengthAdjust="spacing" textLength="105" x="776.75" y="1102.332">HandOccupation</text><line style="stroke:#181818;stroke-width:0.5;" x1="707.5" x2="918.5" y1="1112.9" y2="1112.9"/><line style="stroke:#181818;stroke-width:0.5;" x1="707.5" x2="918.5" y1="1120.9" y2="1120.9"/><text fill="#000000" font-family="sans-serif" font-size="14" lengthAdjust="spacing" textLength="201" x="712.5" y="1139.8659">CanEquip(player: Player): bool</text></g><!--class OneHandOccupation--><g id="elem_OneHandOccupation"><rect codeLine="32" fill="#F1F1F1" height="48" id="OneHandOccupation" rx="2.5" ry="2.5" style="stroke:#181818;stroke-width:0.5;" width="173" x="622.5" y="1207.97"/><ellipse cx="637.5" cy="1223.97" fill="#ADD1B2" rx="11" ry="11" style="stroke:#181818;stroke-width:1.0;"/><path d="M637.6094,1219.2513 Q635.7813,1219.2513 634.7344,1220.4856 Q633.6875,1221.7044 633.6875,1223.8919 Q633.6875,1226.0481 634.6563,1227.2825 Q635.6406,1228.5169 637.5938,1228.5169 Q638.375,1228.5169 639.0625,1228.3919 Q639.7656,1228.2513 640.7656,1227.9388 L640.7656,1229.8138 Q639.9063,1230.1419 639.1406,1230.2669 Q638.3906,1230.3919 637.375,1230.3919 Q635.4531,1230.3919 634.1406,1229.595 Q632.8438,1228.7825 632.1875,1227.3138 Q631.5313,1225.8294 631.5313,1223.8606 Q631.5313,1221.97 632.2344,1220.5013 Q632.9375,1219.0325 634.3125,1218.2044 Q635.6875,1217.3763 637.6406,1217.3763 Q639.6094,1217.3763 641.3281,1218.2356 L640.5,1220.0169 Q639.7188,1219.6419 639.0625,1219.4544 Q638.4063,1219.2513 637.6094,1219.2513 Z " fill="#000000"/><text fill="#000000" font-family="sans-serif" font-size="14" lengthAdjust="spacing" textLength="141" x="651.5" y="1229.402">OneHandOccupation</text><line style="stroke:#181818;stroke-width:0.5;" x1="623.5" x2="794.5" y1="1239.97" y2="1239.97"/><line style="stroke:#181818;stroke-width:0.5;" x1="623.5" x2="794.5" y1="1247.97" y2="1247.97"/></g><!--class TwoHandOccupation--><g id="elem_TwoHandOccupation"><rect codeLine="33" fill="#F1F1F1" height="48" id="TwoHandOccupation" rx="2.5" ry="2.5" style="stroke:#181818;stroke-width:0.5;" width="172" x="831" y="1207.97"/><ellipse cx="846" cy="1223.97" fill="#ADD1B2" rx="11" ry="11" style="stroke:#181818;stroke-width:1.0;"/><path d="M846.1094,1219.2513 Q844.2813,1219.2513 843.2344,1220.4856 Q842.1875,1221.7044 842.1875,1223.8919 Q842.1875,1226.0481 843.1563,1227.2825 Q844.1406,1228.5169 846.0938,1228.5169 Q846.875,1228.5169 847.5625,1228.3919 Q848.2656,1228.2513 849.2656,1227.9388 L849.2656,1229.8138 Q848.4063,1230.1419 847.6406,1230.2669 Q846.8906,1230.3919 845.875,1230.3919 Q843.9531,1230.3919 842.6406,1229.595 Q841.3438,1228.7825 840.6875,1227.3138 Q840.0313,1225.8294 840.0313,1223.8606 Q840.0313,1221.97 840.7344,1220.5013 Q841.4375,1219.0325 842.8125,1218.2044 Q844.1875,1217.3763 846.1406,1217.3763 Q848.1094,1217.3763 849.8281,1218.2356 L849,1220.0169 Q848.2188,1219.6419 847.5625,1219.4544 Q846.9063,1219.2513 846.1094,1219.2513 Z " fill="#000000"/><text fill="#000000" font-family="sans-serif" font-size="14" lengthAdjust="spacing" textLength="140" x="860" y="1229.402">TwoHandOccupation</text><line style="stroke:#181818;stroke-width:0.5;" x1="832" x2="1002" y1="1239.97" y2="1239.97"/><line style="stroke:#181818;stroke-width:0.5;" x1="832" x2="1002" y1="1247.97" y2="1247.97"/></g><!--class Tile--><g id="elem_Tile"><rect codeLine="36" fill="#F1F1F1" height="86.1358" id="Tile" rx="2.5" ry="2.5" style="stroke:#181818;stroke-width:0.5;" width="130" x="1197" y="499.49"/><ellipse cx="1246.75" cy="515.49" fill="#A9DCDF" rx="11" ry="11" style="stroke:#181818;stroke-width:1.0;"/><path d="M1250.0938,520.74 L1248.625,516.99 L1244.1875,516.99 L1242.75,520.74 L1240.625,520.74 L1245.5781,508.0213 L1247.3281,508.0213 L1252.25,520.74 L1250.0938,520.74 Z M1246.75,511.7869 Q1246.7031,511.6306 1246.5781,511.2713 Q1246.4531,510.9119 1246.3438,510.5369 Q1246.2344,510.1463 1246.4219,510.0838 Q1246.5469,510.4588 1246.3906,510.9744 Q1246.25,511.4744 1246.1406,511.7869 L1244.9063,515.0994 L1247.9844,515.0994 L1246.75,511.7869 Z " fill="#000000"/><text fill="#000000" font-family="sans-serif" font-size="14" font-style="italic" lengthAdjust="spacing" textLength="22" x="1267.25" y="520.922">Tile</text><line style="stroke:#181818;stroke-width:0.5;" x1="1198" x2="1326" y1="531.49" y2="531.49"/><text fill="#000000" font-family="sans-serif" font-size="14" lengthAdjust="spacing" textLength="118" x="1203" y="550.4559">+IsWalkable: bool</text><text fill="#000000" font-family="sans-serif" font-size="14" lengthAdjust="spacing" textLength="95" x="1203" y="569.5239">+Symbol: char</text><line style="stroke:#181818;stroke-width:0.5;" x1="1198" x2="1326" y1="577.6258" y2="577.6258"/></g><!--class FloorTile--><g id="elem_FloorTile"><rect codeLine="41" fill="#F1F1F1" height="48" id="FloorTile" rx="2.5" ry="2.5" style="stroke:#181818;stroke-width:0.5;" width="89" x="1278.5" y="731.43"/><ellipse cx="1293.5" cy="747.43" fill="#ADD1B2" rx="11" ry="11" style="stroke:#181818;stroke-width:1.0;"/><path d="M1293.6094,742.7113 Q1291.7813,742.7113 1290.7344,743.9456 Q1289.6875,745.1644 1289.6875,747.3519 Q1289.6875,749.5081 1290.6563,750.7425 Q1291.6406,751.9769 1293.5938,751.9769 Q1294.375,751.9769 1295.0625,751.8519 Q1295.7656,751.7113 1296.7656,751.3988 L1296.7656,753.2738 Q1295.9063,753.6019 1295.1406,753.7269 Q1294.3906,753.8519 1293.375,753.8519 Q1291.4531,753.8519 1290.1406,753.055 Q1288.8438,752.2425 1288.1875,750.7738 Q1287.5313,749.2894 1287.5313,747.3206 Q1287.5313,745.43 1288.2344,743.9613 Q1288.9375,742.4925 1290.3125,741.6644 Q1291.6875,740.8363 1293.6406,740.8363 Q1295.6094,740.8363 1297.3281,741.6956 L1296.5,743.4769 Q1295.7188,743.1019 1295.0625,742.9144 Q1294.4063,742.7113 1293.6094,742.7113 Z " fill="#000000"/><text fill="#000000" font-family="sans-serif" font-size="14" lengthAdjust="spacing" textLength="57" x="1307.5" y="752.862">FloorTile</text><line style="stroke:#181818;stroke-width:0.5;" x1="1279.5" x2="1366.5" y1="763.43" y2="763.43"/><line style="stroke:#181818;stroke-width:0.5;" x1="1279.5" x2="1366.5" y1="771.43" y2="771.43"/></g><!--class WallTile--><g id="elem_WallTile"><rect codeLine="42" fill="#F1F1F1" height="48" id="WallTile" rx="2.5" ry="2.5" style="stroke:#181818;stroke-width:0.5;" width="85" x="1158.5" y="731.43"/><ellipse cx="1173.5" cy="747.43" fill="#ADD1B2" rx="11" ry="11" style="stroke:#181818;stroke-width:1.0;"/><path d="M1173.6094,742.7113 Q1171.7813,742.7113 1170.7344,743.9456 Q1169.6875,745.1644 1169.6875,747.3519 Q1169.6875,749.5081 1170.6563,750.7425 Q1171.6406,751.9769 1173.5938,751.9769 Q1174.375,751.9769 1175.0625,751.8519 Q1175.7656,751.7113 1176.7656,751.3988 L1176.7656,753.2738 Q1175.9063,753.6019 1175.1406,753.7269 Q1174.3906,753.8519 1173.375,753.8519 Q1171.4531,753.8519 1170.1406,753.055 Q1168.8438,752.2425 1168.1875,750.7738 Q1167.5313,749.2894 1167.5313,747.3206 Q1167.5313,745.43 1168.2344,743.9613 Q1168.9375,742.4925 1170.3125,741.6644 Q1171.6875,740.8363 1173.6406,740.8363 Q1175.6094,740.8363 1177.3281,741.6956 L1176.5,743.4769 Q1175.7188,743.1019 1175.0625,742.9144 Q1174.4063,742.7113 1173.6094,742.7113 Z " fill="#000000"/><text fill="#000000" font-family="sans-serif" font-size="14" lengthAdjust="spacing" textLength="53" x="1187.5" y="752.862">WallTile</text><line style="stroke:#181818;stroke-width:0.5;" x1="1159.5" x2="1242.5" y1="763.43" y2="763.43"/><line style="stroke:#181818;stroke-width:0.5;" x1="1159.5" x2="1242.5" y1="771.43" y2="771.43"/></g><!--class Position--><g id="elem_Position"><rect codeLine="45" fill="#F1F1F1" height="105.2038" id="Position" rx="2.5" ry="2.5" style="stroke:#181818;stroke-width:0.5;" width="214" x="7" y="7"/><ellipse cx="83.25" cy="23" fill="#ADD1B2" rx="11" ry="11" style="stroke:#181818;stroke-width:1.0;"/><path d="M83.3594,18.2813 Q81.5313,18.2813 80.4844,19.5156 Q79.4375,20.7344 79.4375,22.9219 Q79.4375,25.0781 80.4063,26.3125 Q81.3906,27.5469 83.3438,27.5469 Q84.125,27.5469 84.8125,27.4219 Q85.5156,27.2813 86.5156,26.9688 L86.5156,28.8438 Q85.6563,29.1719 84.8906,29.2969 Q84.1406,29.4219 83.125,29.4219 Q81.2031,29.4219 79.8906,28.625 Q78.5938,27.8125 77.9375,26.3438 Q77.2813,24.8594 77.2813,22.8906 Q77.2813,21 77.9844,19.5313 Q78.6875,18.0625 80.0625,17.2344 Q81.4375,16.4063 83.3906,16.4063 Q85.3594,16.4063 87.0781,17.2656 L86.25,19.0469 Q85.4688,18.6719 84.8125,18.4844 Q84.1563,18.2813 83.3594,18.2813 Z " fill="#000000"/><text fill="#000000" font-family="sans-serif" font-size="14" lengthAdjust="spacing" textLength="53" x="103.75" y="28.432">Position</text><line style="stroke:#181818;stroke-width:0.5;" x1="8" x2="220" y1="39" y2="39"/><text fill="#000000" font-family="sans-serif" font-size="14" lengthAdjust="spacing" textLength="42" x="13" y="57.9659">+X: int</text><text fill="#000000" font-family="sans-serif" font-size="14" lengthAdjust="spacing" textLength="42" x="13" y="77.0339">+Y: int</text><line style="stroke:#181818;stroke-width:0.5;" x1="8" x2="220" y1="85.1358" y2="85.1358"/><text fill="#000000" font-family="sans-serif" font-size="14" lengthAdjust="spacing" textLength="202" x="13" y="104.1018">Offset(dx: int, dy: int): Position</text></g><!--class Character--><g id="elem_Character"><rect codeLine="51" fill="#F1F1F1" height="105.2038" id="Character" rx="2.5" ry="2.5" style="stroke:#181818;stroke-width:0.5;" width="134" x="297" y="489.95"/><ellipse cx="330" cy="505.95" fill="#A9DCDF" rx="11" ry="11" style="stroke:#181818;stroke-width:1.0;"/><path d="M333.3438,511.2 L331.875,507.45 L327.4375,507.45 L326,511.2 L323.875,511.2 L328.8281,498.4813 L330.5781,498.4813 L335.5,511.2 L333.3438,511.2 Z M330,502.2469 Q329.9531,502.0906 329.8281,501.7313 Q329.7031,501.3719 329.5938,500.9969 Q329.4844,500.6063 329.6719,500.5438 Q329.7969,500.9188 329.6406,501.4344 Q329.5,501.9344 329.3906,502.2469 L328.1563,505.5594 L331.2344,505.5594 L330,502.2469 Z " fill="#000000"/><text fill="#000000" font-family="sans-serif" font-size="14" font-style="italic" lengthAdjust="spacing" textLength="62" x="348" y="511.382">Character</text><line style="stroke:#181818;stroke-width:0.5;" x1="298" x2="430" y1="521.95" y2="521.95"/><text fill="#000000" font-family="sans-serif" font-size="14" lengthAdjust="spacing" textLength="96" x="303" y="540.9159">+Name: string</text><text fill="#000000" font-family="sans-serif" font-size="14" lengthAdjust="spacing" textLength="122" x="303" y="559.9839">+Position: Position</text><text fill="#000000" font-family="sans-serif" font-size="14" lengthAdjust="spacing" textLength="95" x="303" y="579.0518">+Symbol: char</text><line style="stroke:#181818;stroke-width:0.5;" x1="298" x2="430" y1="587.1538" y2="587.1538"/></g><!--class Player--><g id="elem_Player"><rect codeLine="57" fill="#F1F1F1" height="238.6792" id="Player" rx="2.5" ry="2.5" style="stroke:#181818;stroke-width:0.5;" width="188" x="413" y="172.2"/><ellipse cx="482.25" cy="188.2" fill="#ADD1B2" rx="11" ry="11" style="stroke:#181818;stroke-width:1.0;"/><path d="M482.3594,183.4813 Q480.5313,183.4813 479.4844,184.7156 Q478.4375,185.9344 478.4375,188.1219 Q478.4375,190.2781 479.4063,191.5125 Q480.3906,192.7469 482.3438,192.7469 Q483.125,192.7469 483.8125,192.6219 Q484.5156,192.4813 485.5156,192.1688 L485.5156,194.0438 Q484.6563,194.3719 483.8906,194.4969 Q483.1406,194.6219 482.125,194.6219 Q480.2031,194.6219 478.8906,193.825 Q477.5938,193.0125 476.9375,191.5438 Q476.2813,190.0594 476.2813,188.0906 Q476.2813,186.2 476.9844,184.7313 Q477.6875,183.2625 479.0625,182.4344 Q480.4375,181.6063 482.3906,181.6063 Q484.3594,181.6063 486.0781,182.4656 L485.25,184.2469 Q484.4688,183.8719 483.8125,183.6844 Q483.1563,183.4813 482.3594,183.4813 Z " fill="#000000"/><text fill="#000000" font-family="sans-serif" font-size="14" lengthAdjust="spacing" textLength="41" x="502.75" y="193.632">Player</text><line style="stroke:#181818;stroke-width:0.5;" x1="414" x2="600" y1="204.2" y2="204.2"/><text fill="#000000" font-family="sans-serif" font-size="14" lengthAdjust="spacing" textLength="93" x="419" y="223.1659">+Strength: int</text><text fill="#000000" font-family="sans-serif" font-size="14" lengthAdjust="spacing" textLength="94" x="419" y="242.2339">+Dexterity: int</text><text fill="#000000" font-family="sans-serif" font-size="14" lengthAdjust="spacing" textLength="78" x="419" y="261.3018">+Health: int</text><text fill="#000000" font-family="sans-serif" font-size="14" lengthAdjust="spacing" textLength="64" x="419" y="280.3697">+Luck: int</text><text fill="#000000" font-family="sans-serif" font-size="14" lengthAdjust="spacing" textLength="110" x="419" y="299.4376">+Aggression: int</text><text fill="#000000" font-family="sans-serif" font-size="14" lengthAdjust="spacing" textLength="88" x="419" y="318.5055">+Wisdom: int</text><text fill="#000000" font-family="sans-serif" font-size="14" lengthAdjust="spacing" textLength="165" x="419" y="337.5734">+LeftHand: IEquippable?</text><text fill="#000000" font-family="sans-serif" font-size="14" lengthAdjust="spacing" textLength="176" x="419" y="356.6414">+RightHand: IEquippable?</text><text fill="#000000" font-family="sans-serif" font-size="14" lengthAdjust="spacing" textLength="71" x="419" y="375.7093">+Coins: int</text><text fill="#000000" font-family="sans-serif" font-size="14" lengthAdjust="spacing" textLength="65" x="419" y="394.7772">+Gold: int</text><line style="stroke:#181818;stroke-width:0.5;" x1="414" x2="600" y1="402.8792" y2="402.8792"/></g><!--class Level--><g id="elem_Level"><rect codeLine="71" fill="#F1F1F1" height="181.4754" id="Level" rx="2.5" ry="2.5" style="stroke:#181818;stroke-width:0.5;" width="308" x="853" y="200.81"/><ellipse cx="985.75" cy="216.81" fill="#ADD1B2" rx="11" ry="11" style="stroke:#181818;stroke-width:1.0;"/><path d="M985.8594,212.0912 Q984.0313,212.0912 982.9844,213.3256 Q981.9375,214.5444 981.9375,216.7319 Q981.9375,218.8881 982.9063,220.1225 Q983.8906,221.3569 985.8438,221.3569 Q986.625,221.3569 987.3125,221.2319 Q988.0156,221.0912 989.0156,220.7787 L989.0156,222.6537 Q988.1563,222.9819 987.3906,223.1069 Q986.6406,223.2319 985.625,223.2319 Q983.7031,223.2319 982.3906,222.435 Q981.0938,221.6225 980.4375,220.1537 Q979.7813,218.6694 979.7813,216.7006 Q979.7813,214.81 980.4844,213.3412 Q981.1875,211.8725 982.5625,211.0444 Q983.9375,210.2162 985.8906,210.2162 Q987.8594,210.2162 989.5781,211.0756 L988.75,212.8569 Q987.9688,212.4819 987.3125,212.2944 Q986.6563,212.0912 985.8594,212.0912 Z " fill="#000000"/><text fill="#000000" font-family="sans-serif" font-size="14" lengthAdjust="spacing" textLength="34" x="1006.25" y="222.242">Level</text><line style="stroke:#181818;stroke-width:0.5;" x1="854" x2="1160" y1="232.81" y2="232.81"/><text fill="#000000" font-family="sans-serif" font-size="14" lengthAdjust="spacing" textLength="74" x="859" y="251.7759">+Width: int</text><text fill="#000000" font-family="sans-serif" font-size="14" lengthAdjust="spacing" textLength="79" x="859" y="270.8439">+Height: int</text><line style="stroke:#181818;stroke-width:0.5;" x1="854" x2="1160" y1="278.9458" y2="278.9458"/><text fill="#000000" font-family="sans-serif" font-size="14" lengthAdjust="spacing" textLength="161" x="859" y="297.9118">GetTile(x: int, y: int): Tile</text><text fill="#000000" font-family="sans-serif" font-size="14" lengthAdjust="spacing" textLength="224" x="859" y="316.9797">SetTile(x: int, y: int, tile: Tile): void</text><text fill="#000000" font-family="sans-serif" font-size="14" lengthAdjust="spacing" textLength="177" x="859" y="336.0476">CanWalk(x: int, y: int): bool</text><text fill="#000000" font-family="sans-serif" font-size="14" lengthAdjust="spacing" textLength="269" x="859" y="355.1155">AddItem(pos: Position, item: IItem): void</text><text fill="#000000" font-family="sans-serif" font-size="14" lengthAdjust="spacing" textLength="296" x="859" y="374.1834">RemoveItem(pos: Position, item: IItem): bool</text></g><!--class Inventory--><g id="elem_Inventory"><rect codeLine="81" fill="#F1F1F1" height="143.3396" id="Inventory" rx="2.5" ry="2.5" style="stroke:#181818;stroke-width:0.5;" width="280" x="537" y="470.88"/><ellipse cx="640.75" cy="486.88" fill="#ADD1B2" rx="11" ry="11" style="stroke:#181818;stroke-width:1.0;"/><path d="M640.8594,482.1613 Q639.0313,482.1613 637.9844,483.3956 Q636.9375,484.6144 636.9375,486.8019 Q636.9375,488.9581 637.9063,490.1925 Q638.8906,491.4269 640.8438,491.4269 Q641.625,491.4269 642.3125,491.3019 Q643.0156,491.1613 644.0156,490.8488 L644.0156,492.7238 Q643.1563,493.0519 642.3906,493.1769 Q641.6406,493.3019 640.625,493.3019 Q638.7031,493.3019 637.3906,492.505 Q636.0938,491.6925 635.4375,490.2238 Q634.7813,488.7394 634.7813,486.7706 Q634.7813,484.88 635.4844,483.4113 Q636.1875,481.9425 637.5625,481.1144 Q638.9375,480.2863 640.8906,480.2863 Q642.8594,480.2863 644.5781,481.1456 L643.75,482.9269 Q642.9688,482.5519 642.3125,482.3644 Q641.6563,482.1613 640.8594,482.1613 Z " fill="#000000"/><text fill="#000000" font-family="sans-serif" font-size="14" lengthAdjust="spacing" textLength="64" x="661.25" y="492.312">Inventory</text><line style="stroke:#181818;stroke-width:0.5;" x1="538" x2="816" y1="502.88" y2="502.88"/><text fill="#000000" font-family="sans-serif" font-size="14" lengthAdjust="spacing" textLength="61" x="543" y="521.8459">+Size: int</text><text fill="#000000" font-family="sans-serif" font-size="14" lengthAdjust="spacing" textLength="74" x="543" y="540.9139">+Count: int</text><line style="stroke:#181818;stroke-width:0.5;" x1="538" x2="816" y1="549.0158" y2="549.0158"/><text fill="#000000" font-family="sans-serif" font-size="14" lengthAdjust="spacing" textLength="192" x="543" y="567.9818">Add(item: IEquippable): bool</text><text fill="#000000" font-family="sans-serif" font-size="14" lengthAdjust="spacing" textLength="129" x="543" y="587.0497">Pop(): IEquippable?</text><text fill="#000000" font-family="sans-serif" font-size="14" lengthAdjust="spacing" textLength="268" x="543" y="606.1176">GetItems(): IReadOnlyList&lt;IEquippable&gt;</text></g><!--class Config--><g id="elem_Config"><rect codeLine="89" fill="#F1F1F1" height="105.2038" id="Config" rx="2.5" ry="2.5" style="stroke:#181818;stroke-width:0.5;" width="177" x="255.5" y="7"/><ellipse cx="317.75" cy="23" fill="#ADD1B2" rx="11" ry="11" style="stroke:#181818;stroke-width:1.0;"/><path d="M317.8594,18.2813 Q316.0313,18.2813 314.9844,19.5156 Q313.9375,20.7344 313.9375,22.9219 Q313.9375,25.0781 314.9063,26.3125 Q315.8906,27.5469 317.8438,27.5469 Q318.625,27.5469 319.3125,27.4219 Q320.0156,27.2813 321.0156,26.9688 L321.0156,28.8438 Q320.1563,29.1719 319.3906,29.2969 Q318.6406,29.4219 317.625,29.4219 Q315.7031,29.4219 314.3906,28.625 Q313.0938,27.8125 312.4375,26.3438 Q311.7813,24.8594 311.7813,22.8906 Q311.7813,21 312.4844,19.5313 Q313.1875,18.0625 314.5625,17.2344 Q315.9375,16.4063 317.8906,16.4063 Q319.8594,16.4063 321.5781,17.2656 L320.75,19.0469 Q319.9688,18.6719 319.3125,18.4844 Q318.6563,18.2813 317.8594,18.2813 Z " fill="#000000"/><text fill="#000000" font-family="sans-serif" font-size="14" lengthAdjust="spacing" textLength="44" x="338.25" y="28.432">Config</text><line style="stroke:#181818;stroke-width:0.5;" x1="256.5" x2="431.5" y1="39" y2="39"/><text fill="#000000" font-family="sans-serif" font-size="14" lengthAdjust="spacing" text-decoration="underline" textLength="160" x="261.5" y="57.9659">+WindowWidth: int = 40</text><text fill="#000000" font-family="sans-serif" font-size="14" lengthAdjust="spacing" text-decoration="underline" textLength="165" x="261.5" y="77.0339">+WindowHeight: int = 20</text><text fill="#000000" font-family="sans-serif" font-size="14" lengthAdjust="spacing" text-decoration="underline" textLength="133" x="261.5" y="96.1018">+TargetFPS: int = 60</text><line style="stroke:#181818;stroke-width:0.5;" x1="256.5" x2="431.5" y1="104.2038" y2="104.2038"/></g><!--class Directions--><g id="elem_Directions"><rect codeLine="95" fill="#F1F1F1" height="124.2717" id="Directions" rx="2.5" ry="2.5" style="stroke:#181818;stroke-width:0.5;" width="119" x="54.5" y="229.41"/><ellipse cx="78.05" cy="245.41" fill="#ADD1B2" rx="11" ry="11" style="stroke:#181818;stroke-width:1.0;"/><path d="M78.1594,240.6913 Q76.3313,240.6913 75.2844,241.9256 Q74.2375,243.1444 74.2375,245.3319 Q74.2375,247.4881 75.2063,248.7225 Q76.1906,249.9569 78.1438,249.9569 Q78.925,249.9569 79.6125,249.8319 Q80.3156,249.6913 81.3156,249.3788 L81.3156,251.2538 Q80.4563,251.5819 79.6906,251.7069 Q78.9406,251.8319 77.925,251.8319 Q76.0031,251.8319 74.6906,251.035 Q73.3938,250.2225 72.7375,248.7538 Q72.0813,247.2694 72.0813,245.3006 Q72.0813,243.41 72.7844,241.9413 Q73.4875,240.4725 74.8625,239.6444 Q76.2375,238.8163 78.1906,238.8163 Q80.1594,238.8163 81.8781,239.6756 L81.05,241.4569 Q80.2688,241.0819 79.6125,240.8944 Q78.9563,240.6913 78.1594,240.6913 Z " fill="#000000"/><text fill="#000000" font-family="sans-serif" font-size="14" lengthAdjust="spacing" textLength="68" x="93.95" y="250.842">Directions</text><line style="stroke:#181818;stroke-width:0.5;" x1="55.5" x2="172.5" y1="261.41" y2="261.41"/><text fill="#000000" font-family="sans-serif" font-size="14" lengthAdjust="spacing" text-decoration="underline" textLength="88" x="60.5" y="280.3759">+Up: Position</text><text fill="#000000" font-family="sans-serif" font-size="14" lengthAdjust="spacing" text-decoration="underline" textLength="107" x="60.5" y="299.4439">+Down: Position</text><text fill="#000000" font-family="sans-serif" font-size="14" lengthAdjust="spacing" text-decoration="underline" textLength="94" x="60.5" y="318.5118">+Left: Position</text><text fill="#000000" font-family="sans-serif" font-size="14" lengthAdjust="spacing" text-decoration="underline" textLength="105" x="60.5" y="337.5797">+Right: Position</text><line style="stroke:#181818;stroke-width:0.5;" x1="55.5" x2="172.5" y1="345.6817" y2="345.6817"/></g><!--class IMapGenerator--><g id="elem_IMapGenerator"><rect codeLine="103" fill="#F1F1F1" height="67.0679" id="IMapGenerator" rx="2.5" ry="2.5" style="stroke:#181818;stroke-width:0.5;" width="232" x="2451" y="26.07"/><ellipse cx="2514.25" cy="42.07" fill="#B4A7E5" rx="11" ry="11" style="stroke:#181818;stroke-width:1.0;"/><path d="M2516.3438,48.57 L2511.4375,48.57 L2511.4375,47.195 L2512.8594,46.8825 L2512.8594,37.6012 L2511.4375,37.2575 L2511.4375,35.8981 L2516.3438,35.8981 L2516.3438,37.2575 L2514.9219,37.6012 L2514.9219,46.8825 L2516.3438,47.195 L2516.3438,48.57 Z " fill="#000000"/><text fill="#000000" font-family="sans-serif" font-size="14" font-style="italic" lengthAdjust="spacing" textLength="97" x="2534.75" y="47.502">IMapGenerator</text><line style="stroke:#181818;stroke-width:0.5;" x1="2452" x2="2682" y1="58.07" y2="58.07"/><line style="stroke:#181818;stroke-width:0.5;" x1="2452" x2="2682" y1="66.07" y2="66.07"/><text fill="#000000" font-family="sans-serif" font-size="14" lengthAdjust="spacing" textLength="220" x="2457" y="85.0359">GenerateAsync(level: Level): Task</text></g><!--class IDungeonProcedure--><g id="elem_IDungeonProcedure"><rect codeLine="107" fill="#F1F1F1" height="67.0679" id="IDungeonProcedure" rx="2.5" ry="2.5" style="stroke:#181818;stroke-width:0.5;" width="386" x="2085" y="509.02"/><ellipse cx="2211.25" cy="525.02" fill="#B4A7E5" rx="11" ry="11" style="stroke:#181818;stroke-width:1.0;"/><path d="M2213.3438,531.52 L2208.4375,531.52 L2208.4375,530.145 L2209.8594,529.8325 L2209.8594,520.5513 L2208.4375,520.2075 L2208.4375,518.8481 L2213.3438,518.8481 L2213.3438,520.2075 L2211.9219,520.5513 L2211.9219,529.8325 L2213.3438,530.145 L2213.3438,531.52 Z " fill="#000000"/><text fill="#000000" font-family="sans-serif" font-size="14" font-style="italic" lengthAdjust="spacing" textLength="125" x="2231.75" y="530.452">IDungeonProcedure</text><line style="stroke:#181818;stroke-width:0.5;" x1="2086" x2="2470" y1="541.02" y2="541.02"/><line style="stroke:#181818;stroke-width:0.5;" x1="2086" x2="2470" y1="549.02" y2="549.02"/><text fill="#000000" font-family="sans-serif" font-size="14" lengthAdjust="spacing" textLength="374" x="2091" y="567.9859">ApplyAsync(level: Level, context: DungeonContext): Task</text></g><!--class DungeonBuilder--><g id="elem_DungeonBuilder"><rect codeLine="111" fill="#F1F1F1" height="86.1358" id="DungeonBuilder" rx="2.5" ry="2.5" style="stroke:#181818;stroke-width:0.5;" width="380" x="2377" y="248.48"/><ellipse cx="2507.25" cy="264.48" fill="#ADD1B2" rx="11" ry="11" style="stroke:#181818;stroke-width:1.0;"/><path d="M2507.3594,259.7613 Q2505.5313,259.7613 2504.4844,260.9956 Q2503.4375,262.2144 2503.4375,264.4019 Q2503.4375,266.5581 2504.4063,267.7925 Q2505.3906,269.0269 2507.3438,269.0269 Q2508.125,269.0269 2508.8125,268.9019 Q2509.5156,268.7613 2510.5156,268.4488 L2510.5156,270.3238 Q2509.6563,270.6519 2508.8906,270.7769 Q2508.1406,270.9019 2507.125,270.9019 Q2505.2031,270.9019 2503.8906,270.105 Q2502.5938,269.2925 2501.9375,267.8238 Q2501.2813,266.3394 2501.2813,264.3706 Q2501.2813,262.48 2501.9844,261.0113 Q2502.6875,259.5425 2504.0625,258.7144 Q2505.4375,257.8863 2507.3906,257.8863 Q2509.3594,257.8863 2511.0781,258.7456 L2510.25,260.5269 Q2509.4688,260.1519 2508.8125,259.9644 Q2508.1563,259.7613 2507.3594,259.7613 Z " fill="#000000"/><text fill="#000000" font-family="sans-serif" font-size="14" lengthAdjust="spacing" textLength="111" x="2527.75" y="269.912">DungeonBuilder</text><line style="stroke:#181818;stroke-width:0.5;" x1="2378" x2="2756" y1="280.48" y2="280.48"/><line style="stroke:#181818;stroke-width:0.5;" x1="2378" x2="2756" y1="288.48" y2="288.48"/><text fill="#000000" font-family="sans-serif" font-size="14" lengthAdjust="spacing" textLength="368" x="2383" y="307.4459">Add(procedure: IDungeonProcedure): DungeonBuilder</text><text fill="#000000" font-family="sans-serif" font-size="14" lengthAdjust="spacing" textLength="220" x="2383" y="326.5139">GenerateAsync(level: Level): Task</text></g><!--class DungeonContext--><g id="elem_DungeonContext"><rect codeLine="116" fill="#F1F1F1" height="67.0679" id="DungeonContext" rx="2.5" ry="2.5" style="stroke:#181818;stroke-width:0.5;" width="179" x="2765.5" y="509.02"/><ellipse cx="2795.8" cy="525.02" fill="#ADD1B2" rx="11" ry="11" style="stroke:#181818;stroke-width:1.0;"/><path d="M2795.9094,520.3013 Q2794.0813,520.3013 2793.0344,521.5356 Q2791.9875,522.7544 2791.9875,524.9419 Q2791.9875,527.0981 2792.9563,528.3325 Q2793.9406,529.5669 2795.8938,529.5669 Q2796.675,529.5669 2797.3625,529.4419 Q2798.0656,529.3013 2799.0656,528.9888 L2799.0656,530.8638 Q2798.2063,531.1919 2797.4406,531.3169 Q2796.6906,531.4419 2795.675,531.4419 Q2793.7531,531.4419 2792.4406,530.645 Q2791.1438,529.8325 2790.4875,528.3638 Q2789.8313,526.8794 2789.8313,524.9106 Q2789.8313,523.02 2790.5344,521.5513 Q2791.2375,520.0825 2792.6125,519.2544 Q2793.9875,518.4263 2795.9406,518.4263 Q2797.9094,518.4263 2799.6281,519.2856 L2798.8,521.0669 Q2798.0188,520.6919 2797.3625,520.5044 Q2796.7063,520.3013 2795.9094,520.3013 Z " fill="#000000"/><text fill="#000000" font-family="sans-serif" font-size="14" lengthAdjust="spacing" textLength="113" x="2813.2" y="530.452">DungeonContext</text><line style="stroke:#181818;stroke-width:0.5;" x1="2766.5" x2="2943.5" y1="541.02" y2="541.02"/><text fill="#000000" font-family="sans-serif" font-size="14" lengthAdjust="spacing" textLength="167" x="2771.5" y="559.9859">+Rooms: List&lt;RectRoom&gt;</text><line style="stroke:#181818;stroke-width:0.5;" x1="2766.5" x2="2943.5" y1="568.0879" y2="568.0879"/></g><!--class RectRoom--><g id="elem_RectRoom"><rect codeLine="120" fill="#F1F1F1" height="162.4075" id="RectRoom" rx="2.5" ry="2.5" style="stroke:#181818;stroke-width:0.5;" width="235" x="2903.5" y="674.22"/><ellipse cx="2983.25" cy="690.22" fill="#ADD1B2" rx="11" ry="11" style="stroke:#181818;stroke-width:1.0;"/><path d="M2983.3594,685.5013 Q2981.5313,685.5013 2980.4844,686.7356 Q2979.4375,687.9544 2979.4375,690.1419 Q2979.4375,692.2981 2980.4063,693.5325 Q2981.3906,694.7669 2983.3438,694.7669 Q2984.125,694.7669 2984.8125,694.6419 Q2985.5156,694.5013 2986.5156,694.1888 L2986.5156,696.0638 Q2985.6563,696.3919 2984.8906,696.5169 Q2984.1406,696.6419 2983.125,696.6419 Q2981.2031,696.6419 2979.8906,695.845 Q2978.5938,695.0325 2977.9375,693.5638 Q2977.2813,692.0794 2977.2813,690.1106 Q2977.2813,688.22 2977.9844,686.7513 Q2978.6875,685.2825 2980.0625,684.4544 Q2981.4375,683.6263 2983.3906,683.6263 Q2985.3594,683.6263 2987.0781,684.4856 L2986.25,686.2669 Q2985.4688,685.8919 2984.8125,685.7044 Q2984.1563,685.5013 2983.3594,685.5013 Z " fill="#000000"/><text fill="#000000" font-family="sans-serif" font-size="14" lengthAdjust="spacing" textLength="67" x="3003.75" y="695.652">RectRoom</text><line style="stroke:#181818;stroke-width:0.5;" x1="2904.5" x2="3137.5" y1="706.22" y2="706.22"/><text fill="#000000" font-family="sans-serif" font-size="14" lengthAdjust="spacing" textLength="42" x="2909.5" y="725.1859">+X: int</text><text fill="#000000" font-family="sans-serif" font-size="14" lengthAdjust="spacing" textLength="42" x="2909.5" y="744.2539">+Y: int</text><text fill="#000000" font-family="sans-serif" font-size="14" lengthAdjust="spacing" textLength="74" x="2909.5" y="763.3218">+Width: int</text><text fill="#000000" font-family="sans-serif" font-size="14" lengthAdjust="spacing" textLength="79" x="2909.5" y="782.3897">+Height: int</text><text fill="#000000" font-family="sans-serif" font-size="14" lengthAdjust="spacing" textLength="114" x="2909.5" y="801.4576">+Center: Position</text><line style="stroke:#181818;stroke-width:0.5;" x1="2904.5" x2="3137.5" y1="809.5596" y2="809.5596"/><text fill="#000000" font-family="sans-serif" font-size="14" lengthAdjust="spacing" textLength="223" x="2909.5" y="828.5255">Intersects(other: RectRoom): bool</text></g><!--class FilledDungeonProcedure--><g id="elem_FilledDungeonProcedure"><rect codeLine="129" fill="#F1F1F1" height="48" id="FilledDungeonProcedure" rx="2.5" ry="2.5" style="stroke:#181818;stroke-width:0.5;" width="199" x="1402.5" y="731.43"/><ellipse cx="1417.5" cy="747.43" fill="#ADD1B2" rx="11" ry="11" style="stroke:#181818;stroke-width:1.0;"/><path d="M1417.6094,742.7113 Q1415.7813,742.7113 1414.7344,743.9456 Q1413.6875,745.1644 1413.6875,747.3519 Q1413.6875,749.5081 1414.6563,750.7425 Q1415.6406,751.9769 1417.5938,751.9769 Q1418.375,751.9769 1419.0625,751.8519 Q1419.7656,751.7113 1420.7656,751.3988 L1420.7656,753.2738 Q1419.9063,753.6019 1419.1406,753.7269 Q1418.3906,753.8519 1417.375,753.8519 Q1415.4531,753.8519 1414.1406,753.055 Q1412.8438,752.2425 1412.1875,750.7738 Q1411.5313,749.2894 1411.5313,747.3206 Q1411.5313,745.43 1412.2344,743.9613 Q1412.9375,742.4925 1414.3125,741.6644 Q1415.6875,740.8363 1417.6406,740.8363 Q1419.6094,740.8363 1421.3281,741.6956 L1420.5,743.4769 Q1419.7188,743.1019 1419.0625,742.9144 Q1418.4063,742.7113 1417.6094,742.7113 Z " fill="#000000"/><text fill="#000000" font-family="sans-serif" font-size="14" lengthAdjust="spacing" textLength="167" x="1431.5" y="752.862">FilledDungeonProcedure</text><line style="stroke:#181818;stroke-width:0.5;" x1="1403.5" x2="1600.5" y1="763.43" y2="763.43"/><line style="stroke:#181818;stroke-width:0.5;" x1="1403.5" x2="1600.5" y1="771.43" y2="771.43"/></g><!--class EmptyDungeonProcedure--><g id="elem_EmptyDungeonProcedure"><rect codeLine="130" fill="#F1F1F1" height="48" id="EmptyDungeonProcedure" rx="2.5" ry="2.5" style="stroke:#181818;stroke-width:0.5;" width="205" x="1636.5" y="731.43"/><ellipse cx="1651.5" cy="747.43" fill="#ADD1B2" rx="11" ry="11" style="stroke:#181818;stroke-width:1.0;"/><path d="M1651.6094,742.7113 Q1649.7813,742.7113 1648.7344,743.9456 Q1647.6875,745.1644 1647.6875,747.3519 Q1647.6875,749.5081 1648.6563,750.7425 Q1649.6406,751.9769 1651.5938,751.9769 Q1652.375,751.9769 1653.0625,751.8519 Q1653.7656,751.7113 1654.7656,751.3988 L1654.7656,753.2738 Q1653.9063,753.6019 1653.1406,753.7269 Q1652.3906,753.8519 1651.375,753.8519 Q1649.4531,753.8519 1648.1406,753.055 Q1646.8438,752.2425 1646.1875,750.7738 Q1645.5313,749.2894 1645.5313,747.3206 Q1645.5313,745.43 1646.2344,743.9613 Q1646.9375,742.4925 1648.3125,741.6644 Q1649.6875,740.8363 1651.6406,740.8363 Q1653.6094,740.8363 1655.3281,741.6956 L1654.5,743.4769 Q1653.7188,743.1019 1653.0625,742.9144 Q1652.4063,742.7113 1651.6094,742.7113 Z " fill="#000000"/><text fill="#000000" font-family="sans-serif" font-size="14" lengthAdjust="spacing" textLength="173" x="1665.5" y="752.862">EmptyDungeonProcedure</text><line style="stroke:#181818;stroke-width:0.5;" x1="1637.5" x2="1840.5" y1="763.43" y2="763.43"/><line style="stroke:#181818;stroke-width:0.5;" x1="1637.5" x2="1840.5" y1="771.43" y2="771.43"/></g><!--class CentralRoomProcedure--><g id="elem_CentralRoomProcedure"><rect codeLine="131" fill="#F1F1F1" height="48" id="CentralRoomProcedure" rx="2.5" ry="2.5" style="stroke:#181818;stroke-width:0.5;" width="188" x="1876" y="731.43"/><ellipse cx="1891" cy="747.43" fill="#ADD1B2" rx="11" ry="11" style="stroke:#181818;stroke-width:1.0;"/><path d="M1891.1094,742.7113 Q1889.2813,742.7113 1888.2344,743.9456 Q1887.1875,745.1644 1887.1875,747.3519 Q1887.1875,749.5081 1888.1563,750.7425 Q1889.1406,751.9769 1891.0938,751.9769 Q1891.875,751.9769 1892.5625,751.8519 Q1893.2656,751.7113 1894.2656,751.3988 L1894.2656,753.2738 Q1893.4063,753.6019 1892.6406,753.7269 Q1891.8906,753.8519 1890.875,753.8519 Q1888.9531,753.8519 1887.6406,753.055 Q1886.3438,752.2425 1885.6875,750.7738 Q1885.0313,749.2894 1885.0313,747.3206 Q1885.0313,745.43 1885.7344,743.9613 Q1886.4375,742.4925 1887.8125,741.6644 Q1889.1875,740.8363 1891.1406,740.8363 Q1893.1094,740.8363 1894.8281,741.6956 L1894,743.4769 Q1893.2188,743.1019 1892.5625,742.9144 Q1891.9063,742.7113 1891.1094,742.7113 Z " fill="#000000"/><text fill="#000000" font-family="sans-serif" font-size="14" lengthAdjust="spacing" textLength="156" x="1905" y="752.862">CentralRoomProcedure</text><line style="stroke:#181818;stroke-width:0.5;" x1="1877" x2="2063" y1="763.43" y2="763.43"/><line style="stroke:#181818;stroke-width:0.5;" x1="1877" x2="2063" y1="771.43" y2="771.43"/></g><!--class ChambersProcedure--><g id="elem_ChambersProcedure"><rect codeLine="132" fill="#F1F1F1" height="48" id="ChambersProcedure" rx="2.5" ry="2.5" style="stroke:#181818;stroke-width:0.5;" width="170" x="2099" y="731.43"/><ellipse cx="2114" cy="747.43" fill="#ADD1B2" rx="11" ry="11" style="stroke:#181818;stroke-width:1.0;"/><path d="M2114.1094,742.7113 Q2112.2813,742.7113 2111.2344,743.9456 Q2110.1875,745.1644 2110.1875,747.3519 Q2110.1875,749.5081 2111.1563,750.7425 Q2112.1406,751.9769 2114.0938,751.9769 Q2114.875,751.9769 2115.5625,751.8519 Q2116.2656,751.7113 2117.2656,751.3988 L2117.2656,753.2738 Q2116.4063,753.6019 2115.6406,753.7269 Q2114.8906,753.8519 2113.875,753.8519 Q2111.9531,753.8519 2110.6406,753.055 Q2109.3438,752.2425 2108.6875,750.7738 Q2108.0313,749.2894 2108.0313,747.3206 Q2108.0313,745.43 2108.7344,743.9613 Q2109.4375,742.4925 2110.8125,741.6644 Q2112.1875,740.8363 2114.1406,740.8363 Q2116.1094,740.8363 2117.8281,741.6956 L2117,743.4769 Q2116.2188,743.1019 2115.5625,742.9144 Q2114.9063,742.7113 2114.1094,742.7113 Z " fill="#000000"/><text fill="#000000" font-family="sans-serif" font-size="14" lengthAdjust="spacing" textLength="138" x="2128" y="752.862">ChambersProcedure</text><line style="stroke:#181818;stroke-width:0.5;" x1="2100" x2="2268" y1="763.43" y2="763.43"/><line style="stroke:#181818;stroke-width:0.5;" x1="2100" x2="2268" y1="771.43" y2="771.43"/></g><!--class PathsProcedure--><g id="elem_PathsProcedure"><rect codeLine="133" fill="#F1F1F1" height="48" id="PathsProcedure" rx="2.5" ry="2.5" style="stroke:#181818;stroke-width:0.5;" width="138" x="2304" y="731.43"/><ellipse cx="2319" cy="747.43" fill="#ADD1B2" rx="11" ry="11" style="stroke:#181818;stroke-width:1.0;"/><path d="M2319.1094,742.7113 Q2317.2813,742.7113 2316.2344,743.9456 Q2315.1875,745.1644 2315.1875,747.3519 Q2315.1875,749.5081 2316.1563,750.7425 Q2317.1406,751.9769 2319.0938,751.9769 Q2319.875,751.9769 2320.5625,751.8519 Q2321.2656,751.7113 2322.2656,751.3988 L2322.2656,753.2738 Q2321.4063,753.6019 2320.6406,753.7269 Q2319.8906,753.8519 2318.875,753.8519 Q2316.9531,753.8519 2315.6406,753.055 Q2314.3438,752.2425 2313.6875,750.7738 Q2313.0313,749.2894 2313.0313,747.3206 Q2313.0313,745.43 2313.7344,743.9613 Q2314.4375,742.4925 2315.8125,741.6644 Q2317.1875,740.8363 2319.1406,740.8363 Q2321.1094,740.8363 2322.8281,741.6956 L2322,743.4769 Q2321.2188,743.1019 2320.5625,742.9144 Q2319.9063,742.7113 2319.1094,742.7113 Z " fill="#000000"/><text fill="#000000" font-family="sans-serif" font-size="14" lengthAdjust="spacing" textLength="106" x="2333" y="752.862">PathsProcedure</text><line style="stroke:#181818;stroke-width:0.5;" x1="2305" x2="2441" y1="763.43" y2="763.43"/><line style="stroke:#181818;stroke-width:0.5;" x1="2305" x2="2441" y1="771.43" y2="771.43"/></g><!--class AddItemsProcedure--><g id="elem_AddItemsProcedure"><rect codeLine="134" fill="#F1F1F1" height="48" id="AddItemsProcedure" rx="2.5" ry="2.5" style="stroke:#181818;stroke-width:0.5;" width="166" x="2477" y="731.43"/><ellipse cx="2492" cy="747.43" fill="#ADD1B2" rx="11" ry="11" style="stroke:#181818;stroke-width:1.0;"/><path d="M2492.1094,742.7113 Q2490.2813,742.7113 2489.2344,743.9456 Q2488.1875,745.1644 2488.1875,747.3519 Q2488.1875,749.5081 2489.1563,750.7425 Q2490.1406,751.9769 2492.0938,751.9769 Q2492.875,751.9769 2493.5625,751.8519 Q2494.2656,751.7113 2495.2656,751.3988 L2495.2656,753.2738 Q2494.4063,753.6019 2493.6406,753.7269 Q2492.8906,753.8519 2491.875,753.8519 Q2489.9531,753.8519 2488.6406,753.055 Q2487.3438,752.2425 2486.6875,750.7738 Q2486.0313,749.2894 2486.0313,747.3206 Q2486.0313,745.43 2486.7344,743.9613 Q2487.4375,742.4925 2488.8125,741.6644 Q2490.1875,740.8363 2492.1406,740.8363 Q2494.1094,740.8363 2495.8281,741.6956 L2495,743.4769 Q2494.2188,743.1019 2493.5625,742.9144 Q2492.9063,742.7113 2492.1094,742.7113 Z " fill="#000000"/><text fill="#000000" font-family="sans-serif" font-size="14" lengthAdjust="spacing" textLength="134" x="2506" y="752.862">AddItemsProcedure</text><line style="stroke:#181818;stroke-width:0.5;" x1="2478" x2="2642" y1="763.43" y2="763.43"/><line style="stroke:#181818;stroke-width:0.5;" x1="2478" x2="2642" y1="771.43" y2="771.43"/></g><!--class AddWeaponsProcedure--><g id="elem_AddWeaponsProcedure"><rect codeLine="135" fill="#F1F1F1" height="48" id="AddWeaponsProcedure" rx="2.5" ry="2.5" style="stroke:#181818;stroke-width:0.5;" width="190" x="2678" y="731.43"/><ellipse cx="2693" cy="747.43" fill="#ADD1B2" rx="11" ry="11" style="stroke:#181818;stroke-width:1.0;"/><path d="M2693.1094,742.7113 Q2691.2813,742.7113 2690.2344,743.9456 Q2689.1875,745.1644 2689.1875,747.3519 Q2689.1875,749.5081 2690.1563,750.7425 Q2691.1406,751.9769 2693.0938,751.9769 Q2693.875,751.9769 2694.5625,751.8519 Q2695.2656,751.7113 2696.2656,751.3988 L2696.2656,753.2738 Q2695.4063,753.6019 2694.6406,753.7269 Q2693.8906,753.8519 2692.875,753.8519 Q2690.9531,753.8519 2689.6406,753.055 Q2688.3438,752.2425 2687.6875,750.7738 Q2687.0313,749.2894 2687.0313,747.3206 Q2687.0313,745.43 2687.7344,743.9613 Q2688.4375,742.4925 2689.8125,741.6644 Q2691.1875,740.8363 2693.1406,740.8363 Q2695.1094,740.8363 2696.8281,741.6956 L2696,743.4769 Q2695.2188,743.1019 2694.5625,742.9144 Q2693.9063,742.7113 2693.1094,742.7113 Z " fill="#000000"/><text fill="#000000" font-family="sans-serif" font-size="14" lengthAdjust="spacing" textLength="158" x="2707" y="752.862">AddWeaponsProcedure</text><line style="stroke:#181818;stroke-width:0.5;" x1="2679" x2="2867" y1="763.43" y2="763.43"/><line style="stroke:#181818;stroke-width:0.5;" x1="2679" x2="2867" y1="771.43" y2="771.43"/></g><!--class IDungeonStrategy--><g id="elem_IDungeonStrategy"><rect codeLine="137" fill="#F1F1F1" height="67.0679" id="IDungeonStrategy" rx="2.5" ry="2.5" style="stroke:#181818;stroke-width:0.5;" width="183" x="3024.5" y="26.07"/><ellipse cx="3056.15" cy="42.07" fill="#B4A7E5" rx="11" ry="11" style="stroke:#181818;stroke-width:1.0;"/><path d="M3058.2438,48.57 L3053.3375,48.57 L3053.3375,47.195 L3054.7594,46.8825 L3054.7594,37.6012 L3053.3375,37.2575 L3053.3375,35.8981 L3058.2438,35.8981 L3058.2438,37.2575 L3056.8219,37.6012 L3056.8219,46.8825 L3058.2438,47.195 L3058.2438,48.57 Z " fill="#000000"/><text fill="#000000" font-family="sans-serif" font-size="14" font-style="italic" lengthAdjust="spacing" textLength="114" x="3073.85" y="47.502">IDungeonStrategy</text><line style="stroke:#181818;stroke-width:0.5;" x1="3025.5" x2="3206.5" y1="58.07" y2="58.07"/><line style="stroke:#181818;stroke-width:0.5;" x1="3025.5" x2="3206.5" y1="66.07" y2="66.07"/><text fill="#000000" font-family="sans-serif" font-size="14" lengthAdjust="spacing" textLength="171" x="3030.5" y="85.0359">Create(): DungeonBuilder</text></g><!--class DungeonGroundsStrategy--><g id="elem_DungeonGroundsStrategy"><rect codeLine="141" fill="#F1F1F1" height="48" id="DungeonGroundsStrategy" rx="2.5" ry="2.5" style="stroke:#181818;stroke-width:0.5;" width="208" x="3012" y="267.54"/><ellipse cx="3027" cy="283.54" fill="#ADD1B2" rx="11" ry="11" style="stroke:#181818;stroke-width:1.0;"/><path d="M3027.1094,278.8213 Q3025.2813,278.8213 3024.2344,280.0556 Q3023.1875,281.2744 3023.1875,283.4619 Q3023.1875,285.6181 3024.1563,286.8525 Q3025.1406,288.0869 3027.0938,288.0869 Q3027.875,288.0869 3028.5625,287.9619 Q3029.2656,287.8213 3030.2656,287.5088 L3030.2656,289.3838 Q3029.4063,289.7119 3028.6406,289.8369 Q3027.8906,289.9619 3026.875,289.9619 Q3024.9531,289.9619 3023.6406,289.165 Q3022.3438,288.3525 3021.6875,286.8838 Q3021.0313,285.3994 3021.0313,283.4306 Q3021.0313,281.54 3021.7344,280.0713 Q3022.4375,278.6025 3023.8125,277.7744 Q3025.1875,276.9463 3027.1406,276.9463 Q3029.1094,276.9463 3030.8281,277.8056 L3030,279.5869 Q3029.2188,279.2119 3028.5625,279.0244 Q3027.9063,278.8213 3027.1094,278.8213 Z " fill="#000000"/><text fill="#000000" font-family="sans-serif" font-size="14" lengthAdjust="spacing" textLength="176" x="3041" y="288.972">DungeonGroundsStrategy</text><line style="stroke:#181818;stroke-width:0.5;" x1="3013" x2="3219" y1="299.54" y2="299.54"/><line style="stroke:#181818;stroke-width:0.5;" x1="3013" x2="3219" y1="307.54" y2="307.54"/></g><!--class ConsoleRenderer--><g id="elem_ConsoleRenderer"><rect codeLine="144" fill="#F1F1F1" height="67.0679" id="ConsoleRenderer" rx="2.5" ry="2.5" style="stroke:#181818;stroke-width:0.5;" width="420" x="467" y="26.07"/><ellipse cx="614.75" cy="42.07" fill="#ADD1B2" rx="11" ry="11" style="stroke:#181818;stroke-width:1.0;"/><path d="M614.8594,37.3512 Q613.0313,37.3512 611.9844,38.5856 Q610.9375,39.8044 610.9375,41.9919 Q610.9375,44.1481 611.9063,45.3825 Q612.8906,46.6169 614.8438,46.6169 Q615.625,46.6169 616.3125,46.4919 Q617.0156,46.3512 618.0156,46.0387 L618.0156,47.9137 Q617.1563,48.2419 616.3906,48.3669 Q615.6406,48.4919 614.625,48.4919 Q612.7031,48.4919 611.3906,47.695 Q610.0938,46.8825 609.4375,45.4137 Q608.7813,43.9294 608.7813,41.9606 Q608.7813,40.07 609.4844,38.6012 Q610.1875,37.1325 611.5625,36.3044 Q612.9375,35.4762 614.8906,35.4762 Q616.8594,35.4762 618.5781,36.3356 L617.75,38.1169 Q616.9688,37.7419 616.3125,37.5544 Q615.6563,37.3512 614.8594,37.3512 Z " fill="#000000"/><text fill="#000000" font-family="sans-serif" font-size="14" lengthAdjust="spacing" textLength="116" x="635.25" y="47.502">ConsoleRenderer</text><line style="stroke:#181818;stroke-width:0.5;" x1="468" x2="886" y1="58.07" y2="58.07"/><line style="stroke:#181818;stroke-width:0.5;" x1="468" x2="886" y1="66.07" y2="66.07"/><text fill="#000000" font-family="sans-serif" font-size="14" lengthAdjust="spacing" textLength="408" x="473" y="85.0359">Render(level: Level, player: Player, inventory: Inventory): void</text></g><!--class IInputCommand--><g id="elem_IInputCommand"><rect codeLine="149" fill="#F1F1F1" height="67.0679" id="IInputCommand" rx="2.5" ry="2.5" style="stroke:#181818;stroke-width:0.5;" width="280" x="3910" y="258.01"/><ellipse cx="3994.25" cy="274.01" fill="#B4A7E5" rx="11" ry="11" style="stroke:#181818;stroke-width:1.0;"/><path d="M3996.3438,280.51 L3991.4375,280.51 L3991.4375,279.135 L3992.8594,278.8225 L3992.8594,269.5413 L3991.4375,269.1975 L3991.4375,267.8381 L3996.3438,267.8381 L3996.3438,269.1975 L3994.9219,269.5413 L3994.9219,278.8225 L3996.3438,279.135 L3996.3438,280.51 Z " fill="#000000"/><text fill="#000000" font-family="sans-serif" font-size="14" font-style="italic" lengthAdjust="spacing" textLength="103" x="4014.75" y="279.442">IInputCommand</text><line style="stroke:#181818;stroke-width:0.5;" x1="3911" x2="4189" y1="290.01" y2="290.01"/><line style="stroke:#181818;stroke-width:0.5;" x1="3911" x2="4189" y1="298.01" y2="298.01"/><text fill="#000000" font-family="sans-serif" font-size="14" lengthAdjust="spacing" textLength="268" x="3916" y="316.9759">Execute(player: Player, level: Level): void</text></g><!--class InputHandler--><g id="elem_InputHandler"><rect codeLine="153" fill="#F1F1F1" height="67.0679" id="InputHandler" rx="2.5" ry="2.5" style="stroke:#181818;stroke-width:0.5;" width="316" x="3892" y="26.07"/><ellipse cx="4000.25" cy="42.07" fill="#ADD1B2" rx="11" ry="11" style="stroke:#181818;stroke-width:1.0;"/><path d="M4000.3594,37.3512 Q3998.5313,37.3512 3997.4844,38.5856 Q3996.4375,39.8044 3996.4375,41.9919 Q3996.4375,44.1481 3997.4063,45.3825 Q3998.3906,46.6169 4000.3438,46.6169 Q4001.125,46.6169 4001.8125,46.4919 Q4002.5156,46.3512 4003.5156,46.0387 L4003.5156,47.9137 Q4002.6563,48.2419 4001.8906,48.3669 Q4001.1406,48.4919 4000.125,48.4919 Q3998.2031,48.4919 3996.8906,47.695 Q3995.5938,46.8825 3994.9375,45.4137 Q3994.2813,43.9294 3994.2813,41.9606 Q3994.2813,40.07 3994.9844,38.6012 Q3995.6875,37.1325 3997.0625,36.3044 Q3998.4375,35.4762 4000.3906,35.4762 Q4002.3594,35.4762 4004.0781,36.3356 L4003.25,38.1169 Q4002.4688,37.7419 4001.8125,37.5544 Q4001.1563,37.3512 4000.3594,37.3512 Z " fill="#000000"/><text fill="#000000" font-family="sans-serif" font-size="14" lengthAdjust="spacing" textLength="91" x="4020.75" y="47.502">InputHandler</text><line style="stroke:#181818;stroke-width:0.5;" x1="3893" x2="4207" y1="58.07" y2="58.07"/><line style="stroke:#181818;stroke-width:0.5;" x1="3893" x2="4207" y1="66.07" y2="66.07"/><text fill="#000000" font-family="sans-serif" font-size="14" lengthAdjust="spacing" textLength="304" x="3898" y="85.0359">ProcessInput(player: Player, level: Level): void</text></g><!--class MoveUpCommand--><g id="elem_MoveUpCommand"><rect codeLine="157" fill="#F1F1F1" height="48" id="MoveUpCommand" rx="2.5" ry="2.5" style="stroke:#181818;stroke-width:0.5;" width="156" x="2980" y="518.55"/><ellipse cx="2995" cy="534.55" fill="#ADD1B2" rx="11" ry="11" style="stroke:#181818;stroke-width:1.0;"/><path d="M2995.1094,529.8313 Q2993.2813,529.8313 2992.2344,531.0656 Q2991.1875,532.2844 2991.1875,534.4719 Q2991.1875,536.6281 2992.1563,537.8625 Q2993.1406,539.0969 2995.0938,539.0969 Q2995.875,539.0969 2996.5625,538.9719 Q2997.2656,538.8313 2998.2656,538.5188 L2998.2656,540.3938 Q2997.4063,540.7219 2996.6406,540.8469 Q2995.8906,540.9719 2994.875,540.9719 Q2992.9531,540.9719 2991.6406,540.175 Q2990.3438,539.3625 2989.6875,537.8938 Q2989.0313,536.4094 2989.0313,534.4406 Q2989.0313,532.55 2989.7344,531.0813 Q2990.4375,529.6125 2991.8125,528.7844 Q2993.1875,527.9563 2995.1406,527.9563 Q2997.1094,527.9563 2998.8281,528.8156 L2998,530.5969 Q2997.2188,530.2219 2996.5625,530.0344 Q2995.9063,529.8313 2995.1094,529.8313 Z " fill="#000000"/><text fill="#000000" font-family="sans-serif" font-size="14" lengthAdjust="spacing" textLength="124" x="3009" y="539.982">MoveUpCommand</text><line style="stroke:#181818;stroke-width:0.5;" x1="2981" x2="3135" y1="550.55" y2="550.55"/><line style="stroke:#181818;stroke-width:0.5;" x1="2981" x2="3135" y1="558.55" y2="558.55"/></g><!--class MoveDownCommand--><g id="elem_MoveDownCommand"><rect codeLine="158" fill="#F1F1F1" height="48" id="MoveDownCommand" rx="2.5" ry="2.5" style="stroke:#181818;stroke-width:0.5;" width="175" x="3171.5" y="518.55"/><ellipse cx="3186.5" cy="534.55" fill="#ADD1B2" rx="11" ry="11" style="stroke:#181818;stroke-width:1.0;"/><path d="M3186.6094,529.8313 Q3184.7813,529.8313 3183.7344,531.0656 Q3182.6875,532.2844 3182.6875,534.4719 Q3182.6875,536.6281 3183.6563,537.8625 Q3184.6406,539.0969 3186.5938,539.0969 Q3187.375,539.0969 3188.0625,538.9719 Q3188.7656,538.8313 3189.7656,538.5188 L3189.7656,540.3938 Q3188.9063,540.7219 3188.1406,540.8469 Q3187.3906,540.9719 3186.375,540.9719 Q3184.4531,540.9719 3183.1406,540.175 Q3181.8438,539.3625 3181.1875,537.8938 Q3180.5313,536.4094 3180.5313,534.4406 Q3180.5313,532.55 3181.2344,531.0813 Q3181.9375,529.6125 3183.3125,528.7844 Q3184.6875,527.9563 3186.6406,527.9563 Q3188.6094,527.9563 3190.3281,528.8156 L3189.5,530.5969 Q3188.7188,530.2219 3188.0625,530.0344 Q3187.4063,529.8313 3186.6094,529.8313 Z " fill="#000000"/><text fill="#000000" font-family="sans-serif" font-size="14" lengthAdjust="spacing" textLength="143" x="3200.5" y="539.982">MoveDownCommand</text><line style="stroke:#181818;stroke-width:0.5;" x1="3172.5" x2="3345.5" y1="550.55" y2="550.55"/><line style="stroke:#181818;stroke-width:0.5;" x1="3172.5" x2="3345.5" y1="558.55" y2="558.55"/></g><!--class MoveLeftCommand--><g id="elem_MoveLeftCommand"><rect codeLine="159" fill="#F1F1F1" height="48" id="MoveLeftCommand" rx="2.5" ry="2.5" style="stroke:#181818;stroke-width:0.5;" width="162" x="3382" y="518.55"/><ellipse cx="3397" cy="534.55" fill="#ADD1B2" rx="11" ry="11" style="stroke:#181818;stroke-width:1.0;"/><path d="M3397.1094,529.8313 Q3395.2813,529.8313 3394.2344,531.0656 Q3393.1875,532.2844 3393.1875,534.4719 Q3393.1875,536.6281 3394.1563,537.8625 Q3395.1406,539.0969 3397.0938,539.0969 Q3397.875,539.0969 3398.5625,538.9719 Q3399.2656,538.8313 3400.2656,538.5188 L3400.2656,540.3938 Q3399.4063,540.7219 3398.6406,540.8469 Q3397.8906,540.9719 3396.875,540.9719 Q3394.9531,540.9719 3393.6406,540.175 Q3392.3438,539.3625 3391.6875,537.8938 Q3391.0313,536.4094 3391.0313,534.4406 Q3391.0313,532.55 3391.7344,531.0813 Q3392.4375,529.6125 3393.8125,528.7844 Q3395.1875,527.9563 3397.1406,527.9563 Q3399.1094,527.9563 3400.8281,528.8156 L3400,530.5969 Q3399.2188,530.2219 3398.5625,530.0344 Q3397.9063,529.8313 3397.1094,529.8313 Z " fill="#000000"/><text fill="#000000" font-family="sans-serif" font-size="14" lengthAdjust="spacing" textLength="130" x="3411" y="539.982">MoveLeftCommand</text><line style="stroke:#181818;stroke-width:0.5;" x1="3383" x2="3543" y1="550.55" y2="550.55"/><line style="stroke:#181818;stroke-width:0.5;" x1="3383" x2="3543" y1="558.55" y2="558.55"/></g><!--class MoveRightCommand--><g id="elem_MoveRightCommand"><rect codeLine="160" fill="#F1F1F1" height="48" id="MoveRightCommand" rx="2.5" ry="2.5" style="stroke:#181818;stroke-width:0.5;" width="173" x="3579.5" y="518.55"/><ellipse cx="3594.5" cy="534.55" fill="#ADD1B2" rx="11" ry="11" style="stroke:#181818;stroke-width:1.0;"/><path d="M3594.6094,529.8313 Q3592.7813,529.8313 3591.7344,531.0656 Q3590.6875,532.2844 3590.6875,534.4719 Q3590.6875,536.6281 3591.6563,537.8625 Q3592.6406,539.0969 3594.5938,539.0969 Q3595.375,539.0969 3596.0625,538.9719 Q3596.7656,538.8313 3597.7656,538.5188 L3597.7656,540.3938 Q3596.9063,540.7219 3596.1406,540.8469 Q3595.3906,540.9719 3594.375,540.9719 Q3592.4531,540.9719 3591.1406,540.175 Q3589.8438,539.3625 3589.1875,537.8938 Q3588.5313,536.4094 3588.5313,534.4406 Q3588.5313,532.55 3589.2344,531.0813 Q3589.9375,529.6125 3591.3125,528.7844 Q3592.6875,527.9563 3594.6406,527.9563 Q3596.6094,527.9563 3598.3281,528.8156 L3597.5,530.5969 Q3596.7188,530.2219 3596.0625,530.0344 Q3595.4063,529.8313 3594.6094,529.8313 Z " fill="#000000"/><text fill="#000000" font-family="sans-serif" font-size="14" lengthAdjust="spacing" textLength="141" x="3608.5" y="539.982">MoveRightCommand</text><line style="stroke:#181818;stroke-width:0.5;" x1="3580.5" x2="3751.5" y1="550.55" y2="550.55"/><line style="stroke:#181818;stroke-width:0.5;" x1="3580.5" x2="3751.5" y1="558.55" y2="558.55"/></g><!--class InventoryToLeftHandCommand--><g id="elem_InventoryToLeftHandCommand"><rect codeLine="161" fill="#F1F1F1" height="48" id="InventoryToLeftHandCommand" rx="2.5" ry="2.5" style="stroke:#181818;stroke-width:0.5;" width="242" x="3788" y="518.55"/><ellipse cx="3803" cy="534.55" fill="#ADD1B2" rx="11" ry="11" style="stroke:#181818;stroke-width:1.0;"/><path d="M3803.1094,529.8313 Q3801.2813,529.8313 3800.2344,531.0656 Q3799.1875,532.2844 3799.1875,534.4719 Q3799.1875,536.6281 3800.1563,537.8625 Q3801.1406,539.0969 3803.0938,539.0969 Q3803.875,539.0969 3804.5625,538.9719 Q3805.2656,538.8313 3806.2656,538.5188 L3806.2656,540.3938 Q3805.4063,540.7219 3804.6406,540.8469 Q3803.8906,540.9719 3802.875,540.9719 Q3800.9531,540.9719 3799.6406,540.175 Q3798.3438,539.3625 3797.6875,537.8938 Q3797.0313,536.4094 3797.0313,534.4406 Q3797.0313,532.55 3797.7344,531.0813 Q3798.4375,529.6125 3799.8125,528.7844 Q3801.1875,527.9563 3803.1406,527.9563 Q3805.1094,527.9563 3806.8281,528.8156 L3806,530.5969 Q3805.2188,530.2219 3804.5625,530.0344 Q3803.9063,529.8313 3803.1094,529.8313 Z " fill="#000000"/><text fill="#000000" font-family="sans-serif" font-size="14" lengthAdjust="spacing" textLength="210" x="3817" y="539.982">InventoryToLeftHandCommand</text><line style="stroke:#181818;stroke-width:0.5;" x1="3789" x2="4029" y1="550.55" y2="550.55"/><line style="stroke:#181818;stroke-width:0.5;" x1="3789" x2="4029" y1="558.55" y2="558.55"/></g><!--class InventoryToRightHandCommand--><g id="elem_InventoryToRightHandCommand"><rect codeLine="162" fill="#F1F1F1" height="48" id="InventoryToRightHandCommand" rx="2.5" ry="2.5" style="stroke:#181818;stroke-width:0.5;" width="253" x="4065.5" y="518.55"/><ellipse cx="4080.5" cy="534.55" fill="#ADD1B2" rx="11" ry="11" style="stroke:#181818;stroke-width:1.0;"/><path d="M4080.6094,529.8313 Q4078.7813,529.8313 4077.7344,531.0656 Q4076.6875,532.2844 4076.6875,534.4719 Q4076.6875,536.6281 4077.6563,537.8625 Q4078.6406,539.0969 4080.5938,539.0969 Q4081.375,539.0969 4082.0625,538.9719 Q4082.7656,538.8313 4083.7656,538.5188 L4083.7656,540.3938 Q4082.9063,540.7219 4082.1406,540.8469 Q4081.3906,540.9719 4080.375,540.9719 Q4078.4531,540.9719 4077.1406,540.175 Q4075.8438,539.3625 4075.1875,537.8938 Q4074.5313,536.4094 4074.5313,534.4406 Q4074.5313,532.55 4075.2344,531.0813 Q4075.9375,529.6125 4077.3125,528.7844 Q4078.6875,527.9563 4080.6406,527.9563 Q4082.6094,527.9563 4084.3281,528.8156 L4083.5,530.5969 Q4082.7188,530.2219 4082.0625,530.0344 Q4081.4063,529.8313 4080.6094,529.8313 Z " fill="#000000"/><text fill="#000000" font-family="sans-serif" font-size="14" lengthAdjust="spacing" textLength="221" x="4094.5" y="539.982">InventoryToRightHandCommand</text><line style="stroke:#181818;stroke-width:0.5;" x1="4066.5" x2="4317.5" y1="550.55" y2="550.55"/><line style="stroke:#181818;stroke-width:0.5;" x1="4066.5" x2="4317.5" y1="558.55" y2="558.55"/></g><!--class DropLeftCommand--><g id="elem_DropLeftCommand"><rect codeLine="163" fill="#F1F1F1" height="48" id="DropLeftCommand" rx="2.5" ry="2.5" style="stroke:#181818;stroke-width:0.5;" width="159" x="4353.5" y="518.55"/><ellipse cx="4368.5" cy="534.55" fill="#ADD1B2" rx="11" ry="11" style="stroke:#181818;stroke-width:1.0;"/><path d="M4368.6094,529.8313 Q4366.7813,529.8313 4365.7344,531.0656 Q4364.6875,532.2844 4364.6875,534.4719 Q4364.6875,536.6281 4365.6563,537.8625 Q4366.6406,539.0969 4368.5938,539.0969 Q4369.375,539.0969 4370.0625,538.9719 Q4370.7656,538.8313 4371.7656,538.5188 L4371.7656,540.3938 Q4370.9063,540.7219 4370.1406,540.8469 Q4369.3906,540.9719 4368.375,540.9719 Q4366.4531,540.9719 4365.1406,540.175 Q4363.8438,539.3625 4363.1875,537.8938 Q4362.5313,536.4094 4362.5313,534.4406 Q4362.5313,532.55 4363.2344,531.0813 Q4363.9375,529.6125 4365.3125,528.7844 Q4366.6875,527.9563 4368.6406,527.9563 Q4370.6094,527.9563 4372.3281,528.8156 L4371.5,530.5969 Q4370.7188,530.2219 4370.0625,530.0344 Q4369.4063,529.8313 4368.6094,529.8313 Z " fill="#000000"/><text fill="#000000" font-family="sans-serif" font-size="14" lengthAdjust="spacing" textLength="127" x="4382.5" y="539.982">DropLeftCommand</text><line style="stroke:#181818;stroke-width:0.5;" x1="4354.5" x2="4511.5" y1="550.55" y2="550.55"/><line style="stroke:#181818;stroke-width:0.5;" x1="4354.5" x2="4511.5" y1="558.55" y2="558.55"/></g><!--class DropRightCommand--><g id="elem_DropRightCommand"><rect codeLine="164" fill="#F1F1F1" height="48" id="DropRightCommand" rx="2.5" ry="2.5" style="stroke:#181818;stroke-width:0.5;" width="170" x="4547" y="518.55"/><ellipse cx="4562" cy="534.55" fill="#ADD1B2" rx="11" ry="11" style="stroke:#181818;stroke-width:1.0;"/><path d="M4562.1094,529.8313 Q4560.2813,529.8313 4559.2344,531.0656 Q4558.1875,532.2844 4558.1875,534.4719 Q4558.1875,536.6281 4559.1563,537.8625 Q4560.1406,539.0969 4562.0938,539.0969 Q4562.875,539.0969 4563.5625,538.9719 Q4564.2656,538.8313 4565.2656,538.5188 L4565.2656,540.3938 Q4564.4063,540.7219 4563.6406,540.8469 Q4562.8906,540.9719 4561.875,540.9719 Q4559.9531,540.9719 4558.6406,540.175 Q4557.3438,539.3625 4556.6875,537.8938 Q4556.0313,536.4094 4556.0313,534.4406 Q4556.0313,532.55 4556.7344,531.0813 Q4557.4375,529.6125 4558.8125,528.7844 Q4560.1875,527.9563 4562.1406,527.9563 Q4564.1094,527.9563 4565.8281,528.8156 L4565,530.5969 Q4564.2188,530.2219 4563.5625,530.0344 Q4562.9063,529.8313 4562.1094,529.8313 Z " fill="#000000"/><text fill="#000000" font-family="sans-serif" font-size="14" lengthAdjust="spacing" textLength="138" x="4576" y="539.982">DropRightCommand</text><line style="stroke:#181818;stroke-width:0.5;" x1="4548" x2="4716" y1="550.55" y2="550.55"/><line style="stroke:#181818;stroke-width:0.5;" x1="4548" x2="4716" y1="558.55" y2="558.55"/></g><!--class TakeToInventoryCommand--><g id="elem_TakeToInventoryCommand"><rect codeLine="165" fill="#F1F1F1" height="48" id="TakeToInventoryCommand" rx="2.5" ry="2.5" style="stroke:#181818;stroke-width:0.5;" width="212" x="4752" y="518.55"/><ellipse cx="4767" cy="534.55" fill="#ADD1B2" rx="11" ry="11" style="stroke:#181818;stroke-width:1.0;"/><path d="M4767.1094,529.8313 Q4765.2813,529.8313 4764.2344,531.0656 Q4763.1875,532.2844 4763.1875,534.4719 Q4763.1875,536.6281 4764.1563,537.8625 Q4765.1406,539.0969 4767.0938,539.0969 Q4767.875,539.0969 4768.5625,538.9719 Q4769.2656,538.8313 4770.2656,538.5188 L4770.2656,540.3938 Q4769.4063,540.7219 4768.6406,540.8469 Q4767.8906,540.9719 4766.875,540.9719 Q4764.9531,540.9719 4763.6406,540.175 Q4762.3438,539.3625 4761.6875,537.8938 Q4761.0313,536.4094 4761.0313,534.4406 Q4761.0313,532.55 4761.7344,531.0813 Q4762.4375,529.6125 4763.8125,528.7844 Q4765.1875,527.9563 4767.1406,527.9563 Q4769.1094,527.9563 4770.8281,528.8156 L4770,530.5969 Q4769.2188,530.2219 4768.5625,530.0344 Q4767.9063,529.8313 4767.1094,529.8313 Z " fill="#000000"/><text fill="#000000" font-family="sans-serif" font-size="14" lengthAdjust="spacing" textLength="180" x="4781" y="539.982">TakeToInventoryCommand</text><line style="stroke:#181818;stroke-width:0.5;" x1="4753" x2="4963" y1="550.55" y2="550.55"/><line style="stroke:#181818;stroke-width:0.5;" x1="4753" x2="4963" y1="558.55" y2="558.55"/></g><!--class QuitGameCommand--><g id="elem_QuitGameCommand"><rect codeLine="166" fill="#F1F1F1" height="48" id="QuitGameCommand" rx="2.5" ry="2.5" style="stroke:#181818;stroke-width:0.5;" width="169" x="4998.5" y="518.55"/><ellipse cx="5013.5" cy="534.55" fill="#ADD1B2" rx="11" ry="11" style="stroke:#181818;stroke-width:1.0;"/><path d="M5013.6094,529.8313 Q5011.7813,529.8313 5010.7344,531.0656 Q5009.6875,532.2844 5009.6875,534.4719 Q5009.6875,536.6281 5010.6563,537.8625 Q5011.6406,539.0969 5013.5938,539.0969 Q5014.375,539.0969 5015.0625,538.9719 Q5015.7656,538.8313 5016.7656,538.5188 L5016.7656,540.3938 Q5015.9063,540.7219 5015.1406,540.8469 Q5014.3906,540.9719 5013.375,540.9719 Q5011.4531,540.9719 5010.1406,540.175 Q5008.8438,539.3625 5008.1875,537.8938 Q5007.5313,536.4094 5007.5313,534.4406 Q5007.5313,532.55 5008.2344,531.0813 Q5008.9375,529.6125 5010.3125,528.7844 Q5011.6875,527.9563 5013.6406,527.9563 Q5015.6094,527.9563 5017.3281,528.8156 L5016.5,530.5969 Q5015.7188,530.2219 5015.0625,530.0344 Q5014.4063,529.8313 5013.6094,529.8313 Z " fill="#000000"/><text fill="#000000" font-family="sans-serif" font-size="14" lengthAdjust="spacing" textLength="137" x="5027.5" y="539.982">QuitGameCommand</text><line style="stroke:#181818;stroke-width:0.5;" x1="4999.5" x2="5166.5" y1="550.55" y2="550.55"/><line style="stroke:#181818;stroke-width:0.5;" x1="4999.5" x2="5166.5" y1="558.55" y2="558.55"/></g><!--reverse link IItem to IEquippable--><g id="link_IItem_IEquippable"><path codeLine="169" d="M893.4827,604.0013 C826.2627,639.8013 753.95,678.3 690.91,711.87 " fill="none" id="IItem-backto-IEquippable" style="stroke:#181818;stroke-width:1.0;stroke-dasharray:7.0,7.0;"/><polygon fill="none" points="909.37,595.54,890.6623,598.7055,896.3031,609.297,909.37,595.54" style="stroke:#181818;stroke-width:1.0;"/></g><!--reverse link IEquippable to Weapon--><g id="link_IEquippable_Weapon"><path codeLine="170" d="M611,816.63 C611,845 611,864.84 611,896.51 " fill="none" id="IEquippable-backto-Weapon" style="stroke:#181818;stroke-width:1.0;stroke-dasharray:7.0,7.0;"/><polygon fill="none" points="611,798.63,605,816.63,617,816.63,611,798.63" style="stroke:#181818;stroke-width:1.0;"/></g><!--reverse link Weapon to Sword--><g id="link_Weapon_Sword"><path codeLine="171" d="M545.8911,1034.9909 C524.9311,1059.2109 513.94,1071.91 498.13,1090.18 " fill="none" id="Weapon-backto-Sword" style="stroke:#181818;stroke-width:1.0;"/><polygon fill="none" points="557.67,1021.38,541.3541,1031.0646,550.4281,1038.9172,557.67,1021.38" style="stroke:#181818;stroke-width:1.0;"/></g><!--reverse link Weapon to DoubleSword--><g id="link_Weapon_DoubleSword"><path codeLine="172" d="M611,1039.38 C611,1063.6 611,1071.91 611,1090.18 " fill="none" id="Weapon-backto-DoubleSword" style="stroke:#181818;stroke-width:1.0;"/><polygon fill="none" points="611,1021.38,605,1039.38,617,1039.38,611,1021.38" style="stroke:#181818;stroke-width:1.0;"/></g><!--reverse link IItem to Coin--><g id="link_IItem_Coin"><path codeLine="173" d="M1010.9712,613.381 C1013.4312,656.671 1015.81,698.41 1017.66,730.95 " fill="none" id="IItem-backto-Coin" style="stroke:#181818;stroke-width:1.0;stroke-dasharray:7.0,7.0;"/><polygon fill="none" points="1009.95,595.41,1004.9809,613.7214,1016.9616,613.0406,1009.95,595.41" style="stroke:#181818;stroke-width:1.0;"/></g><!--reverse link IItem to Gold--><g id="link_IItem_Gold"><path codeLine="174" d="M979.3704,612.1047 C961.9204,655.3947 944.58,698.41 931.46,730.95 " fill="none" id="IItem-backto-Gold" style="stroke:#181818;stroke-width:1.0;stroke-dasharray:7.0,7.0;"/><polygon fill="none" points="986.1,595.41,973.8055,609.8615,984.9353,614.3479,986.1,595.41" style="stroke:#181818;stroke-width:1.0;"/></g><!--reverse link Tile to FloorTile--><g id="link_Tile_FloorTile"><path codeLine="176" d="M1279.272,603.261 C1291.902,646.921 1306.12,696.06 1316.23,731.02 " fill="none" id="Tile-backto-FloorTile" style="stroke:#181818;stroke-width:1.0;"/><polygon fill="none" points="1274.27,585.97,1273.5083,604.9284,1285.0357,601.5937,1274.27,585.97" style="stroke:#181818;stroke-width:1.0;"/></g><!--reverse link Tile to WallTile--><g id="link_Tile_WallTile"><path codeLine="177" d="M1244.728,603.261 C1232.098,646.921 1217.88,696.06 1207.77,731.02 " fill="none" id="Tile-backto-WallTile" style="stroke:#181818;stroke-width:1.0;"/><polygon fill="none" points="1249.73,585.97,1238.9643,601.5937,1250.4917,604.9284,1249.73,585.97" style="stroke:#181818;stroke-width:1.0;"/></g><!--reverse link Character to Player--><g id="link_Character_Player"><path codeLine="179" d="M414.464,474.4854 C429.214,451.5754 436.26,438.77 451.96,411.21 " fill="none" id="Character-backto-Player" style="stroke:#181818;stroke-width:1.0;"/><polygon fill="none" points="404.72,489.62,419.5088,477.7334,409.4191,471.2374,404.72,489.62" style="stroke:#181818;stroke-width:1.0;"/></g><!--link Player to Character--><g id="link_Player_Character"><path codeLine="212" d="M425.74,411.21 C409.79,438.77 397.181,461.3524 385.631,484.2624 " fill="none" id="Player-to-Character" style="stroke:#181818;stroke-width:1.0;"/><polygon fill="#181818" points="382.93,489.62,390.5533,483.3842,385.1809,485.1553,383.4098,479.7828,382.93,489.62" style="stroke:#181818;stroke-width:1.0;"/></g><!--reverse link HandOccupation to OneHandOccupation--><g id="link_HandOccupation_OneHandOccupation"><path codeLine="181" d="M771.4367,1161.6075 C754.3767,1180.5575 745.37,1190.56 730.01,1207.63 " fill="none" id="HandOccupation-backto-OneHandOccupation" style="stroke:#181818;stroke-width:1.0;"/><polygon fill="none" points="783.48,1148.23,766.9775,1157.5931,775.8959,1165.622,783.48,1148.23" style="stroke:#181818;stroke-width:1.0;"/></g><!--reverse link HandOccupation to TwoHandOccupation--><g id="link_HandOccupation_TwoHandOccupation"><path codeLine="182" d="M854.5633,1161.6075 C871.6233,1180.5575 880.63,1190.56 895.99,1207.63 " fill="none" id="HandOccupation-backto-TwoHandOccupation" style="stroke:#181818;stroke-width:1.0;"/><polygon fill="none" points="842.52,1148.23,850.1041,1165.622,859.0225,1157.5931,842.52,1148.23" style="stroke:#181818;stroke-width:1.0;"/></g><!--reverse link IMapGenerator to DungeonBuilder--><g id="link_IMapGenerator_DungeonBuilder"><path codeLine="184" d="M2567,111.55 C2567,152.28 2567,203.67 2567,248.29 " fill="none" id="IMapGenerator-backto-DungeonBuilder" style="stroke:#181818;stroke-width:1.0;stroke-dasharray:7.0,7.0;"/><polygon fill="none" points="2567,93.55,2561,111.55,2573,111.55,2567,93.55" style="stroke:#181818;stroke-width:1.0;"/></g><!--reverse link IDungeonProcedure to FilledDungeonProcedure--><g id="link_IDungeonProcedure_FilledDungeonProcedure"><path codeLine="185" d="M2066.6541,563.3531 C1932.0141,580.4931 1768.43,611.34 1619,674.22 C1585.41,688.36 1551.55,712.96 1528.96,731.2 " fill="none" id="IDungeonProcedure-backto-FilledDungeonProcedure" style="stroke:#181818;stroke-width:1.0;stroke-dasharray:7.0,7.0;"/><polygon fill="none" points="2084.51,561.08,2065.8964,557.4011,2067.4118,569.3051,2084.51,561.08" style="stroke:#181818;stroke-width:1.0;"/></g><!--reverse link IDungeonProcedure to EmptyDungeonProcedure--><g id="link_IDungeonProcedure_EmptyDungeonProcedure"><path codeLine="186" d="M2120.0065,581.2132 C2036.8165,603.3732 1948.04,631.68 1859,674.22 C1826.22,689.89 1792.07,713.54 1768.63,731.1 " fill="none" id="IDungeonProcedure-backto-EmptyDungeonProcedure" style="stroke:#181818;stroke-width:1.0;stroke-dasharray:7.0,7.0;"/><polygon fill="none" points="2137.4,576.58,2118.4621,575.4154,2121.5509,587.0111,2137.4,576.58" style="stroke:#181818;stroke-width:1.0;"/></g><!--reverse link IDungeonProcedure to CentralRoomProcedure--><g id="link_IDungeonProcedure_CentralRoomProcedure"><path codeLine="187" d="M2212.7006,586.2802 C2172.9206,612.4402 2131.12,640.28 2082,674.22 C2054.85,692.99 2024.42,714.83 2002.15,730.97 " fill="none" id="IDungeonProcedure-backto-CentralRoomProcedure" style="stroke:#181818;stroke-width:1.0;stroke-dasharray:7.0,7.0;"/><polygon fill="none" points="2227.74,576.39,2209.4038,581.267,2215.9973,591.2933,2227.74,576.39" style="stroke:#181818;stroke-width:1.0;"/></g><!--reverse link IDungeonProcedure to ChambersProcedure--><g id="link_IDungeonProcedure_ChambersProcedure"><path codeLine="188" d="M2255.9842,592.9418 C2236.8342,635.9218 2211.12,693.59 2194.37,731.16 " fill="none" id="IDungeonProcedure-backto-ChambersProcedure" style="stroke:#181818;stroke-width:1.0;stroke-dasharray:7.0,7.0;"/><polygon fill="none" points="2263.31,576.5,2250.5036,590.4999,2261.4649,595.3837,2263.31,576.5" style="stroke:#181818;stroke-width:1.0;"/></g><!--reverse link IDungeonProcedure to PathsProcedure--><g id="link_IDungeonProcedure_PathsProcedure"><path codeLine="189" d="M2300.2326,592.9119 C2319.5926,635.8919 2345.59,693.59 2362.52,731.16 " fill="none" id="IDungeonProcedure-backto-PathsProcedure" style="stroke:#181818;stroke-width:1.0;stroke-dasharray:7.0,7.0;"/><polygon fill="none" points="2292.84,576.5,2294.762,595.3761,2305.7032,590.4477,2292.84,576.5" style="stroke:#181818;stroke-width:1.0;"/></g><!--reverse link IDungeonProcedure to AddItemsProcedure--><g id="link_IDungeonProcedure_AddItemsProcedure"><path codeLine="190" d="M2339.9877,586.7987 C2377.0177,612.8187 2414.92,640 2460,674.22 C2484.64,692.93 2512,714.97 2531.87,731.2 " fill="none" id="IDungeonProcedure-backto-AddItemsProcedure" style="stroke:#181818;stroke-width:1.0;stroke-dasharray:7.0,7.0;"/><polygon fill="none" points="2325.26,576.45,2336.5381,591.7079,2343.4372,581.8895,2325.26,576.45" style="stroke:#181818;stroke-width:1.0;"/></g><!--reverse link IDungeonProcedure to AddWeaponsProcedure--><g id="link_IDungeonProcedure_AddWeaponsProcedure"><path codeLine="191" d="M2421.5051,581.5366 C2498.0651,603.9466 2579.16,632.12 2661,674.22 C2691.84,690.09 2723.67,713.71 2745.48,731.21 " fill="none" id="IDungeonProcedure-backto-AddWeaponsProcedure" style="stroke:#181818;stroke-width:1.0;stroke-dasharray:7.0,7.0;"/><polygon fill="none" points="2404.23,576.48,2419.8196,587.295,2423.1907,575.7783,2404.23,576.48" style="stroke:#181818;stroke-width:1.0;"/></g><!--reverse link IDungeonStrategy to DungeonGroundsStrategy--><g id="link_IDungeonStrategy_DungeonGroundsStrategy"><path codeLine="193" d="M3116,111.55 C3116,158.61 3116,225.94 3116,267.1 " fill="none" id="IDungeonStrategy-backto-DungeonGroundsStrategy" style="stroke:#181818;stroke-width:1.0;stroke-dasharray:7.0,7.0;"/><polygon fill="none" points="3116,93.55,3110,111.55,3122,111.55,3116,93.55" style="stroke:#181818;stroke-width:1.0;"/></g><!--reverse link IInputCommand to MoveUpCommand--><g id="link_IInputCommand_MoveUpCommand"><path codeLine="195" d="M3891.7178,303.0903 C3710.3578,318.8703 3405.95,359.72 3154,470.88 C3127.49,482.58 3101.27,502.62 3082.94,518.38 " fill="none" id="IInputCommand-backto-MoveUpCommand" style="stroke:#181818;stroke-width:1.0;stroke-dasharray:7.0,7.0;"/><polygon fill="none" points="3909.65,301.53,3891.1977,297.1129,3892.2378,309.0677,3909.65,301.53" style="stroke:#181818;stroke-width:1.0;"/></g><!--reverse link IInputCommand to MoveDownCommand--><g id="link_IInputCommand_MoveDownCommand"><path codeLine="196" d="M3891.9115,318.1462 C3750.1315,343.9762 3544.7,390.34 3365,470.88 C3337.15,483.37 3308.52,502.93 3288.05,518.31 " fill="none" id="IInputCommand-backto-MoveDownCommand" style="stroke:#181818;stroke-width:1.0;stroke-dasharray:7.0,7.0;"/><polygon fill="none" points="3909.62,314.92,3890.8361,312.2434,3892.9869,324.049,3909.62,314.92" style="stroke:#181818;stroke-width:1.0;"/></g><!--reverse link IInputCommand to MoveLeftCommand--><g id="link_IInputCommand_MoveLeftCommand"><path codeLine="197" d="M3915.6498,330.8107 C3814.3798,361.6307 3682.89,407.15 3562,470.88 C3536.59,484.28 3510.24,503.38 3491.12,518.36 " fill="none" id="IInputCommand-backto-MoveLeftCommand" style="stroke:#181818;stroke-width:1.0;stroke-dasharray:7.0,7.0;"/><polygon fill="none" points="3932.87,325.57,3913.9029,325.0706,3917.3967,336.5508,3932.87,325.57" style="stroke:#181818;stroke-width:1.0;"/></g><!--reverse link IInputCommand to MoveRightCommand--><g id="link_IInputCommand_MoveRightCommand"><path codeLine="198" d="M3982.3504,335.1507 C3926.1004,370.6707 3849.47,419.41 3771,470.88 C3747.3,486.43 3720.82,504.25 3700.39,518.11 " fill="none" id="IInputCommand-backto-MoveRightCommand" style="stroke:#181818;stroke-width:1.0;stroke-dasharray:7.0,7.0;"/><polygon fill="none" points="3997.57,325.54,3979.1469,330.0775,3985.554,340.2238,3997.57,325.54" style="stroke:#181818;stroke-width:1.0;"/></g><!--reverse link IInputCommand to InventoryToLeftHandCommand--><g id="link_IInputCommand_InventoryToLeftHandCommand"><path codeLine="199" d="M4022.551,341.0133 C3993.611,392.1233 3947.35,473.83 3922.15,518.32 " fill="none" id="IInputCommand-backto-InventoryToLeftHandCommand" style="stroke:#181818;stroke-width:1.0;stroke-dasharray:7.0,7.0;"/><polygon fill="none" points="4031.42,325.35,4017.3298,338.057,4027.7721,343.9697,4031.42,325.35" style="stroke:#181818;stroke-width:1.0;"/></g><!--reverse link IInputCommand to InventoryToRightHandCommand--><g id="link_IInputCommand_InventoryToRightHandCommand"><path codeLine="200" d="M4077.6276,340.9857 C4106.7776,392.0957 4153.38,473.83 4178.75,518.32 " fill="none" id="IInputCommand-backto-InventoryToRightHandCommand" style="stroke:#181818;stroke-width:1.0;stroke-dasharray:7.0,7.0;"/><polygon fill="none" points="4068.71,325.35,4072.4157,343.9583,4082.8396,338.0132,4068.71,325.35" style="stroke:#181818;stroke-width:1.0;"/></g><!--reverse link IInputCommand to DropLeftCommand--><g id="link_IInputCommand_DropLeftCommand"><path codeLine="201" d="M4121.0088,334.8411 C4179.1888,369.8011 4257.42,417.86 4336,470.88 C4358.45,486.03 4383.12,504.02 4401.95,518.06 " fill="none" id="IInputCommand-backto-DropLeftCommand" style="stroke:#181818;stroke-width:1.0;stroke-dasharray:7.0,7.0;"/><polygon fill="none" points="4105.58,325.57,4117.9184,339.984,4124.0991,329.6981,4105.58,325.57" style="stroke:#181818;stroke-width:1.0;"/></g><!--reverse link IInputCommand to DropRightCommand--><g id="link_IInputCommand_DropRightCommand"><path codeLine="202" d="M4179.6748,330.9077 C4279.1648,362.1177 4409.6,408.08 4530,470.88 C4555.79,484.33 4582.74,503.25 4602.46,518.13 " fill="none" id="IInputCommand-backto-DropRightCommand" style="stroke:#181818;stroke-width:1.0;stroke-dasharray:7.0,7.0;"/><polygon fill="none" points="4162.5,325.52,4177.8789,336.6326,4181.4707,325.1828,4162.5,325.52" style="stroke:#181818;stroke-width:1.0;"/></g><!--reverse link IInputCommand to TakeToInventoryCommand--><g id="link_IInputCommand_TakeToInventoryCommand"><path codeLine="203" d="M4208.0145,321.3896 C4348.7645,349.3696 4552.42,396.98 4734,470.88 C4765.33,483.63 4798.5,502.88 4822.65,518.07 " fill="none" id="IInputCommand-backto-TakeToInventoryCommand" style="stroke:#181818;stroke-width:1.0;stroke-dasharray:7.0,7.0;"/><polygon fill="none" points="4190.36,317.88,4206.8447,327.2744,4209.1844,315.5047,4190.36,317.88" style="stroke:#181818;stroke-width:1.0;"/></g><!--reverse link IInputCommand to QuitGameCommand--><g id="link_IInputCommand_QuitGameCommand"><path codeLine="204" d="M4208.4173,302.7806 C4395.3673,318.4206 4715.28,359.29 4981,470.88 C5008.81,482.56 5036.71,502.6 5056.28,518.37 " fill="none" id="IInputCommand-backto-QuitGameCommand" style="stroke:#181818;stroke-width:1.0;stroke-dasharray:7.0,7.0;"/><polygon fill="none" points="4190.48,301.28,4207.9171,308.7597,4208.9175,296.8015,4190.48,301.28" style="stroke:#181818;stroke-width:1.0;"/></g><!--link Level to Tile--><g id="link_Level_Tile"><path codeLine="207" d="M1099.06,382.44 C1139.86,422.28 1181.6278,463.0675 1214.3378,495.0175 " fill="none" id="Level-to-Tile" style="stroke:#181818;stroke-width:1.0;"/><polygon fill="#181818" points="1218.63,499.21,1214.9867,490.0598,1215.0532,495.7163,1209.3967,495.7827,1218.63,499.21" style="stroke:#181818;stroke-width:1.0;"/></g><!--link Level to IItem--><g id="link_Level_IItem"><path codeLine="208" d="M1007,382.44 C1007,418.38 1007,452.5 1007,483.47 " fill="none" id="Level-to-IItem" style="stroke:#181818;stroke-width:1.0;"/><polygon fill="#181818" points="1007,489.47,1011,480.47,1007,484.47,1003,480.47,1007,489.47" style="stroke:#181818;stroke-width:1.0;"/></g><!--link Player to IItem--><g id="link_Player_IItem"><path codeLine="209" d="M601.34,339.53 C687.23,382.3 808.4693,442.6749 897.3293,486.9349 " fill="none" id="Player-to-IItem" style="stroke:#181818;stroke-width:1.0;"/><polygon fill="#181818" points="902.7,489.61,896.4274,482.017,898.2244,487.3808,892.8606,489.1779,902.7,489.61" style="stroke:#181818;stroke-width:1.0;"/></g><!--link Player to Inventory--><g id="link_Player_Inventory"><path codeLine="210" d="M588.02,411.21 C601.87,431.51 612.4865,447.055 625.1465,465.595 " fill="none" id="Player-to-Inventory" style="stroke:#181818;stroke-width:1.0;"/><polygon fill="#181818" points="628.53,470.55,626.7581,460.8618,625.7104,466.4208,620.1514,465.3732,628.53,470.55" style="stroke:#181818;stroke-width:1.0;"/></g><!--link Player to IEquippable--><g id="link_Player_IEquippable"><path codeLine="211" d="M496.38,411.3 C494.57,473.17 498.27,549.27 519,614.22 C530.47,650.14 550.1967,680.8558 570.5367,707.1258 " fill="none" id="Player-to-IEquippable" style="stroke:#181818;stroke-width:1.0;"/><polygon fill="#181818" points="574.21,711.87,571.8629,702.3049,571.149,707.9165,565.5373,707.2026,574.21,711.87" style="stroke:#181818;stroke-width:1.0;"/></g><!--link ConsoleRenderer to Level--><g id="link_ConsoleRenderer_Level"><path codeLine="214" d="M724.28,93.55 C764.29,121.43 818.6472,159.2998 872.6072,196.8998 " fill="none" id="ConsoleRenderer-to-Level" style="stroke:#181818;stroke-width:1.0;"/><polygon fill="#181818" points="877.53,200.33,872.4327,191.9028,873.4277,197.4715,867.859,198.4665,877.53,200.33" style="stroke:#181818;stroke-width:1.0;"/></g><!--link ConsoleRenderer to Player--><g id="link_ConsoleRenderer_Player"><path codeLine="215" d="M652.64,93.55 C637.17,114.47 619.677,138.1354 598.377,166.9454 " fill="none" id="ConsoleRenderer-to-Player" style="stroke:#181818;stroke-width:1.0;"/><polygon fill="#181818" points="594.81,171.77,603.3768,166.9111,597.7825,167.7495,596.944,162.1551,594.81,171.77" style="stroke:#181818;stroke-width:1.0;"/></g><!--link ConsoleRenderer to Inventory--><g id="link_ConsoleRenderer_Inventory"><path codeLine="216" d="M677,93.28 C677,170.35 677,358.88 677,464.57 " fill="none" id="ConsoleRenderer-to-Inventory" style="stroke:#181818;stroke-width:1.0;"/><polygon fill="#181818" points="677,470.57,681,461.57,677,465.57,673,461.57,677,470.57" style="stroke:#181818;stroke-width:1.0;"/></g><!--link Weapon to HandOccupation--><g id="link_Weapon_HandOccupation"><path codeLine="218" d="M692,1021.38 C718.56,1041.59 742.2649,1059.627 764.9249,1076.867 " fill="none" id="Weapon-to-HandOccupation" style="stroke:#181818;stroke-width:1.0;"/><polygon fill="#181818" points="769.7,1080.5,764.9593,1071.8672,765.7207,1077.4725,760.1154,1078.234,769.7,1080.5" style="stroke:#181818;stroke-width:1.0;"/></g><!--link DungeonBuilder to IDungeonProcedure--><g id="link_DungeonBuilder_IDungeonProcedure"><path codeLine="220" d="M2517.65,335.07 C2460.58,384.24 2372.4052,460.2133 2320.6252,504.8333 " fill="none" id="DungeonBuilder-to-IDungeonProcedure" style="stroke:#181818;stroke-width:1.0;"/><polygon fill="#181818" points="2316.08,508.75,2325.509,505.9051,2319.8677,505.4861,2320.2867,499.8447,2316.08,508.75" style="stroke:#181818;stroke-width:1.0;"/></g><!--link DungeonBuilder to DungeonContext--><g id="link_DungeonBuilder_DungeonContext"><path codeLine="221" d="M2616.18,335.07 C2673.05,384.24 2760.9111,460.2059 2812.5211,504.8259 " fill="none" id="DungeonBuilder-to-DungeonContext" style="stroke:#181818;stroke-width:1.0;"/><polygon fill="#181818" points="2817.06,508.75,2812.8678,499.8379,2813.2776,505.4799,2807.6356,505.8897,2817.06,508.75" style="stroke:#181818;stroke-width:1.0;"/></g><!--link DungeonContext to RectRoom--><g id="link_DungeonContext_RectRoom"><path codeLine="222" d="M2880.94,576.5 C2901.45,602.57 2927.279,635.3653 2953.939,669.2353 " fill="none" id="DungeonContext-to-RectRoom" style="stroke:#181818;stroke-width:1.0;"/><polygon fill="#181818" points="2957.65,673.95,2955.2265,664.404,2954.5575,670.0211,2948.9403,669.352,2957.65,673.95" style="stroke:#181818;stroke-width:1.0;"/></g><!--link InputHandler to IInputCommand--><g id="link_InputHandler_IInputCommand"><path codeLine="224" d="M4050,93.55 C4050,137.26 4050,207.98 4050,251.66 " fill="none" id="InputHandler-to-IInputCommand" style="stroke:#181818;stroke-width:1.0;"/><polygon fill="#181818" points="4050,257.66,4054,248.66,4050,252.66,4046,248.66,4050,257.66" style="stroke:#181818;stroke-width:1.0;"/></g><!--SRC=[bLTBR-Cs4BxhLn3eOHt4MGH5qOEGRk7AZYCWiLrPGTeZBJ4sOObKHJg9z_7VEoJre2WfQK_MF3WpdCV7iJXILk0IvoZ9i10pAKkwEqaI9fnjwLU2hZtl4mhZnSCMUPH9KZxZXA0mb2H7tpo4BbSu9puIS8xj5RqzvpkU-IWvu1AX9P5p8fAI5f9oDhcmD3SqEJuMaoB3PrBwQAD_fwZGx7loB7squpoxC3_U3y_sl_ZdH8i2xpAYeuZBi-R4N1rqRDOMRBM8xWzZUk09xo1Cd4YJ5VH4SC6PzlGJJv9JWTLjV7I7MRfkw8-oeUWvpl4UDE0goeyn7t3AgiybpzAQlNtbPLfzp_a9xceuRdJTA7IK0MRwekCtD4VNZ3XtCFpubJjyw88ul5z05pZUOrhLu38KJpWxgfeq2U_Ult5xct5UgeCL3USoJOANu6uMpO9u4Q5AkE62DXUx_Cla3hx-hh_Mpy-2o4dwfXbJb9xr1rosFZfGqW020egKmrrSdxHiZDx6vDROsSgIiBqyD57EoHiueVBSSEu8pYo5-rDoR8ZPVbyI8RJZYlL4HShpLXtwMvN6jsVWToNHBJqiKWqc6XEgnveEX8IleqMTwtloGZ9paoUQMb7U4MMz9c6gLRacTSQRXEiY8hGTb4-HfAetb0XqNpXDJQkgjkdRgbfebgOAR2O55sqnfeW2ppSurDgAICvVoCVgtI48sGjXafVdgeG0Uysz0tvYpRKXb4bbg4rm6-c65mhWdEH3hfHNeKKHmUcQPUTxAkIDfVZ51WFsJFSwb6z2ml0bFrGnMCfVsvAWtz0lrmCQLfb0vUUkIepBFP6tcsqj__MwTJkd9KbKheJZ-h7ep40hcFDNDY8ow3qeYao0zcH-Gil5QX7Dud2zwZmo3xXO4aPA3CNHKLKKcOapIoQPQbRVzApgFIoEpYinFx4zuMnJyeIafzBWrAmeidFVmXJ1aoTXMdrK7GiCRPckKcN4VvnebbPphpgZgBtuVSSNldFglrwcux4AoBHfn7aEBQuxAOBIATfgeverYfhl3lXbG5GMEpKC5KU0MJ7Xyg24jO_UHDtIB2EfcuHAkCWBUHwHARSbpfJHdkY0ynq4uF8tM1vwp0eqXlZcBRSa0mq3A0w5sHj024e2nAHVGhSyonB08XNrOTNOqM8rNqJXQedQwHOy8n5XOA5g7aCupUYkHRG6AR_5gnhuz0o5gyrZtDtHM76I0SzpU1EqeyKRIM2twwrSJk_LDcjq12lgMScgS7NcXD3y_sVg0S3viQWYidWAIVfS1I9zhiQFBhl9Xzd-LAoZ2iqZsTMObxpe-rFS0NynFfAODqQxmZzFL2vXcQYvK1aepHqqGJnR1V3GcjNvvlldp_PBuTaRhHQQFlMgrVFc-zLLjH3Q77ijj0phXTAYpLQfDpLzhDs_MbwxWxMhaHQOqdgUisPgMNz_7D8Qs2QxsAw3TAQh3zvQQmHQHhI7iMP4UH1yndHxQ3IYwC3JY5OVhyOL-m3MWoqxdprKwkA2LkqEveY2FQKZAlO8ZQXqvcb0vvrXVb-xDza3wkwOZwXy5EC800ne3g71RBjT1w7UTk3VbDcuhww-cDsv9VNuUjL_Ys567K27QM6AnMvc6iRRUOAKMBiTb5JJFoHg_TUOfBZkf3lRaZxOcyW1fUxEupahaDAermzeQVkDChcoIk7z2m00]--></g></svg>