<?xml version="1.0" encoding="UTF-8" standalone="no"?>
<!DOCTYPE svg PUBLIC "-//W3C//DTD SVG 1.1//EN"
 "http://www.w3.org/Graphics/SVG/1.1/DTD/svg11.dtd">
<!-- Generated by graphviz version 13.1.2 (20250808.2320)
 -->
<!-- Title: RpgGame.Generation.SimpleRoomGenerator.GenerateAsync Pages: 1 -->
<svg width="362pt" height="178pt"
 viewBox="0.00 0.00 362.00 178.00" xmlns="http://www.w3.org/2000/svg" xmlns:xlink="http://www.w3.org/1999/xlink">
<g id="graph0" class="graph" transform="scale(1 1) rotate(0) translate(4 174)">
<title>RpgGame.Generation.SimpleRoomGenerator.GenerateAsync</title>
<!-- Node1 -->
<g id="Node000001" class="node">
<title>Node1</title>
<g id="a_Node000001"><a xlink:title="Asynchronously generates the level; uses the new async spawn helpers to perform item placement withou...">
<polygon fill="#999999" stroke="#666666" points="154.75,-99 0,-99 0,-70 154.75,-70 154.75,-99"/>
<text xml:space="preserve" text-anchor="start" x="8" y="-85.5" font-family="Helvetica,sans-Serif" font-size="10.00">RpgGame.Generation.Simple</text>
<text xml:space="preserve" text-anchor="middle" x="77.38" y="-75" font-family="Helvetica,sans-Serif" font-size="10.00">RoomGenerator.GenerateAsync</text>
</a>
</g>
</g>
<!-- Node2 -->
<g id="Node000002" class="node">
<title>Node2</title>
<g id="a_Node000002"><a xlink:href="classRpgGame_1_1Generation_1_1MapSpawnHelper.html#aef5f182d21ac6ed160d15450118a6032" target="_top" xlink:title="Convenience wrapper that spawns coins.">
<polygon fill="white" stroke="#666666" points="353.75,-170 190.75,-170 190.75,-141 353.75,-141 353.75,-170"/>
<text xml:space="preserve" text-anchor="start" x="198.75" y="-156.5" font-family="Helvetica,sans-Serif" font-size="10.00">RpgGame.Generation.MapSpawn</text>
<text xml:space="preserve" text-anchor="middle" x="272.25" y="-146" font-family="Helvetica,sans-Serif" font-size="10.00">Helper.SpawnCoinsAsync</text>
</a>
</g>
</g>
<!-- Node1&#45;&gt;Node2 -->
<g id="edge1_Node000001_Node000002" class="edge">
<title>Node1&#45;&gt;Node2</title>
<g id="a_edge1_Node000001_Node000002"><a xlink:title=" ">
<path fill="none" stroke="#63b8ff" d="M110.41,-99.45C132.66,-109.53 163.16,-122.71 190.75,-132.5 195.22,-134.09 199.86,-135.64 204.55,-137.15"/>
<polygon fill="#63b8ff" stroke="#63b8ff" points="203.5,-140.49 214.09,-140.12 205.58,-133.8 203.5,-140.49"/>
</a>
</g>
</g>
<!-- Node3 -->
<g id="Node000003" class="node">
<title>Node3</title>
<g id="a_Node000003"><a xlink:href="classRpgGame_1_1Generation_1_1MapSpawnHelper.html#ac40bb8e43fb5b06d21638ff12bde806b" target="_top" xlink:title="Convenience wrapper that spawns two&#45;handed swords.">
<polygon fill="white" stroke="#666666" points="353.75,-123 190.75,-123 190.75,-94 353.75,-94 353.75,-123"/>
<text xml:space="preserve" text-anchor="start" x="198.75" y="-109.5" font-family="Helvetica,sans-Serif" font-size="10.00">RpgGame.Generation.MapSpawn</text>
<text xml:space="preserve" text-anchor="middle" x="272.25" y="-99" font-family="Helvetica,sans-Serif" font-size="10.00">Helper.SpawnDoubleSwordAsync</text>
</a>
</g>
</g>
<!-- Node1&#45;&gt;Node3 -->
<g id="edge2_Node000001_Node000003" class="edge">
<title>Node1&#45;&gt;Node3</title>
<g id="a_edge2_Node000001_Node000003"><a xlink:title=" ">
<path fill="none" stroke="#63b8ff" d="M155.16,-94.05C163.01,-95.03 171.05,-96.03 179.05,-97.03"/>
<polygon fill="#63b8ff" stroke="#63b8ff" points="178.45,-100.48 188.8,-98.24 179.31,-93.53 178.45,-100.48"/>
</a>
</g>
</g>
<!-- Node4 -->
<g id="Node000004" class="node">
<title>Node4</title>
<g id="a_Node000004"><a xlink:href="classRpgGame_1_1Generation_1_1MapSpawnHelper.html#a3d4f8e59572c78841b18c605691225b8" target="_top" xlink:title="Convenience wrapper that spawns gold piles.">
<polygon fill="white" stroke="#666666" points="353.75,-76 190.75,-76 190.75,-47 353.75,-47 353.75,-76"/>
<text xml:space="preserve" text-anchor="start" x="198.75" y="-62.5" font-family="Helvetica,sans-Serif" font-size="10.00">RpgGame.Generation.MapSpawn</text>
<text xml:space="preserve" text-anchor="middle" x="272.25" y="-52" font-family="Helvetica,sans-Serif" font-size="10.00">Helper.SpawnGoldAsync</text>
</a>
</g>
</g>
<!-- Node1&#45;&gt;Node4 -->
<g id="edge3_Node000001_Node000004" class="edge">
<title>Node1&#45;&gt;Node4</title>
<g id="a_edge3_Node000001_Node000004"><a xlink:title=" ">
<path fill="none" stroke="#63b8ff" d="M155.16,-75.34C163.01,-74.41 171.05,-73.45 179.05,-72.5"/>
<polygon fill="#63b8ff" stroke="#63b8ff" points="179.28,-75.99 188.8,-71.33 178.46,-69.04 179.28,-75.99"/>
</a>
</g>
</g>
<!-- Node5 -->
<g id="Node000005" class="node">
<title>Node5</title>
<g id="a_Node000005"><a xlink:href="classRpgGame_1_1Generation_1_1MapSpawnHelper.html#a67946efaa42f2f00637a21cd4be3ee74" target="_top" xlink:title="Convenience wrapper that spawns one&#45;handed swords.">
<polygon fill="white" stroke="#666666" points="353.75,-29 190.75,-29 190.75,0 353.75,0 353.75,-29"/>
<text xml:space="preserve" text-anchor="start" x="198.75" y="-15.5" font-family="Helvetica,sans-Serif" font-size="10.00">RpgGame.Generation.MapSpawn</text>
<text xml:space="preserve" text-anchor="middle" x="272.25" y="-5" font-family="Helvetica,sans-Serif" font-size="10.00">Helper.SpawnSwordAsync</text>
</a>
</g>
</g>
<!-- Node1&#45;&gt;Node5 -->
<g id="edge4_Node000001_Node000005" class="edge">
<title>Node1&#45;&gt;Node5</title>
<g id="a_edge4_Node000001_Node000005"><a xlink:title=" ">
<path fill="none" stroke="#63b8ff" d="M112.46,-69.52C134.57,-60.06 164.11,-47.9 190.75,-38.5 196.34,-36.53 202.18,-34.58 208.05,-32.69"/>
<polygon fill="#63b8ff" stroke="#63b8ff" points="208.68,-36.17 217.17,-29.83 206.58,-29.49 208.68,-36.17"/>
</a>
</g>
</g>
</g>
</svg>
