<?xml version="1.0" encoding="UTF-8" standalone="no"?>
<!DOCTYPE svg PUBLIC "-//W3C//DTD SVG 1.1//EN"
 "http://www.w3.org/Graphics/SVG/1.1/DTD/svg11.dtd">
<!-- Generated by graphviz version 13.1.2 (20250808.2320)
 -->
<!-- Title: RpgGame.Generation.DungeonBuilder.Add Pages: 1 -->
<svg width="359pt" height="55pt"
 viewBox="0.00 0.00 359.00 55.00" xmlns="http://www.w3.org/2000/svg" xmlns:xlink="http://www.w3.org/1999/xlink">
<g id="graph0" class="graph" transform="scale(1 1) rotate(0) translate(4 51)">
<title>RpgGame.Generation.DungeonBuilder.Add</title>
<!-- Node1 -->
<g id="Node000001" class="node">
<title>Node1</title>
<g id="a_Node000001"><a xlink:title="Adds a generation procedure to the sequence.">
<polygon fill="#999999" stroke="#666666" points="350.75,-29 197.5,-29 197.5,0 350.75,0 350.75,-29"/>
<text xml:space="preserve" text-anchor="start" x="205.5" y="-15.5" font-family="Helvetica,sans-Serif" font-size="10.00">RpgGame.Generation.Dungeon</text>
<text xml:space="preserve" text-anchor="middle" x="274.12" y="-5" font-family="Helvetica,sans-Serif" font-size="10.00">Builder.Add</text>
</a>
</g>
</g>
<!-- Node1&#45;&gt;Node1 -->
<g id="edge1_Node000001_Node000001" class="edge">
<title>Node1&#45;&gt;Node1</title>
<g id="a_edge1_Node000001_Node000001"><a xlink:title=" ">
<path fill="none" stroke="#63b8ff" d="M306.95,-40.56C301.8,-44.41 290.86,-47 274.12,-47 243.53,-47 232.3,-38.32 240.43,-29.21"/>
<polygon fill="#63b8ff" stroke="#63b8ff" points="310.43,-40.96 307.71,-30.72 303.45,-40.42 310.43,-40.96"/>
</a>
</g>
</g>
<!-- Node2 -->
<g id="Node000002" class="node">
<title>Node2</title>
<g id="a_Node000002"><a xlink:href="classRpgGame_1_1Generation_1_1Strategies_1_1DungeonGroundsStrategy.html#ad7a63b7c9a9ce022c954a55c1cdb1a76" target="_top" xlink:title="Creates and returns a configured dungeon builder with the strategy&#39;s procedures.">
<polygon fill="white" stroke="#666666" points="161.5,-29 0,-29 0,0 161.5,0 161.5,-29"/>
<text xml:space="preserve" text-anchor="start" x="8" y="-15.5" font-family="Helvetica,sans-Serif" font-size="10.00">RpgGame.Generation.Strategies.</text>
<text xml:space="preserve" text-anchor="middle" x="80.75" y="-5" font-family="Helvetica,sans-Serif" font-size="10.00">DungeonGroundsStrategy.Create</text>
</a>
</g>
</g>
<!-- Node1&#45;&gt;Node2 -->
<g id="edge2_Node000001_Node000002" class="edge">
<title>Node1&#45;&gt;Node2</title>
<g id="a_edge2_Node000001_Node000002"><a xlink:title=" ">
<path fill="none" stroke="#63b8ff" d="M185.71,-14.5C177.8,-14.5 169.81,-14.5 161.97,-14.5"/>
<polygon fill="#63b8ff" stroke="#63b8ff" points="185.7,-18 195.7,-14.5 185.7,-11 185.7,-18"/>
</a>
</g>
</g>
</g>
</svg>
