<?xml version="1.0" encoding="UTF-8" standalone="no"?>
<!DOCTYPE svg PUBLIC "-//W3C//DTD SVG 1.1//EN"
 "http://www.w3.org/Graphics/SVG/1.1/DTD/svg11.dtd">
<!-- Generated by graphviz version 13.1.2 (20250808.2320)
 -->
<!-- Title: RpgGame.Input.TakeToInventoryCommand.Execute Pages: 1 -->
<svg width="553pt" height="64pt"
 viewBox="0.00 0.00 553.00 64.00" xmlns="http://www.w3.org/2000/svg" xmlns:xlink="http://www.w3.org/1999/xlink">
<g id="graph0" class="graph" transform="scale(1 1) rotate(0) translate(4 59.5)">
<title>RpgGame.Input.TakeToInventoryCommand.Execute</title>
<!-- Node1 -->
<g id="Node000001" class="node">
<title>Node1</title>
<g id="a_Node000001"><a xlink:title="Executes the command using provided game objects.Typically 1 to indicate the game should continue,...">
<polygon fill="#999999" stroke="#666666" points="159.25,-41.75 0,-41.75 0,-12.75 159.25,-12.75 159.25,-41.75"/>
<text xml:space="preserve" text-anchor="start" x="8" y="-28.25" font-family="Helvetica,sans-Serif" font-size="10.00">RpgGame.Input.TakeToInventory</text>
<text xml:space="preserve" text-anchor="middle" x="79.62" y="-17.75" font-family="Helvetica,sans-Serif" font-size="10.00">Command.Execute</text>
</a>
</g>
</g>
<!-- Node2 -->
<g id="Node000002" class="node">
<title>Node2</title>
<g id="a_Node000002"><a xlink:href="classRpgGame_1_1Core_1_1Level.html#a50c45cab6083fa428e8534c83d841f57" target="_top" xlink:title="Retrieves the top item at a position without removing it.">
<polygon fill="white" stroke="#666666" points="362,-55.5 197.5,-55.5 197.5,-37 362,-37 362,-55.5"/>
<text xml:space="preserve" text-anchor="middle" x="279.75" y="-42" font-family="Helvetica,sans-Serif" font-size="10.00">RpgGame.Core.Level.GetTopItem</text>
</a>
</g>
</g>
<!-- Node1&#45;&gt;Node2 -->
<g id="edge1_Node000001_Node000002" class="edge">
<title>Node1&#45;&gt;Node2</title>
<g id="a_edge1_Node000001_Node000002"><a xlink:title=" ">
<path fill="none" stroke="#63b8ff" d="M159.5,-34.81C168.22,-35.65 177.17,-36.51 186.04,-37.36"/>
<polygon fill="#63b8ff" stroke="#63b8ff" points="185.43,-40.82 195.72,-38.29 186.1,-33.85 185.43,-40.82"/>
</a>
</g>
</g>
<!-- Node4 -->
<g id="Node000004" class="node">
<title>Node4</title>
<g id="a_Node000004"><a xlink:href="classRpgGame_1_1Core_1_1Level.html#a0755988cf7c365fe2e38416a4f62272f" target="_top" xlink:title="Removes and returns the top item at a given position.">
<polygon fill="white" stroke="#666666" points="364.25,-18.5 195.25,-18.5 195.25,0 364.25,0 364.25,-18.5"/>
<text xml:space="preserve" text-anchor="middle" x="279.75" y="-5" font-family="Helvetica,sans-Serif" font-size="10.00">RpgGame.Core.Level.TakeTopItem</text>
</a>
</g>
</g>
<!-- Node1&#45;&gt;Node4 -->
<g id="edge4_Node000001_Node000004" class="edge">
<title>Node1&#45;&gt;Node4</title>
<g id="a_edge4_Node000001_Node000004"><a xlink:title=" ">
<path fill="none" stroke="#63b8ff" d="M159.5,-20.08C167.42,-19.36 175.52,-18.63 183.59,-17.9"/>
<polygon fill="#63b8ff" stroke="#63b8ff" points="183.8,-21.39 193.44,-17 183.16,-14.42 183.8,-21.39"/>
</a>
</g>
</g>
<!-- Node3 -->
<g id="Node000003" class="node">
<title>Node3</title>
<g id="a_Node000003"><a xlink:href="namespaceRpgGame_1_1Character.html#ab2e6f640f8bfc682c50e3c19e0d417f1" target="_top" xlink:title="A record for tracking the position of Characters, Items, and Tiles if needed.">
<polygon fill="white" stroke="#666666" points="545.25,-36.5 400.25,-36.5 400.25,-18 545.25,-18 545.25,-36.5"/>
<text xml:space="preserve" text-anchor="middle" x="472.75" y="-23" font-family="Helvetica,sans-Serif" font-size="10.00">RpgGame.Character.Position</text>
</a>
</g>
</g>
<!-- Node2&#45;&gt;Node3 -->
<g id="edge2_Node000002_Node000003" class="edge">
<title>Node2&#45;&gt;Node3</title>
<g id="a_edge2_Node000002_Node000003"><a xlink:title=" ">
<path fill="none" stroke="#63b8ff" d="M362.31,-38.14C370.98,-37.27 379.8,-36.4 388.5,-35.53"/>
<polygon fill="#63b8ff" stroke="#63b8ff" points="388.71,-39.03 398.31,-34.56 388.01,-32.06 388.71,-39.03"/>
</a>
</g>
</g>
<!-- Node3&#45;&gt;Node3 -->
<g id="edge3_Node000003_Node000003" class="edge">
<title>Node3&#45;&gt;Node3</title>
<g id="a_edge3_Node000003_Node000003"><a xlink:title=" ">
<path fill="none" stroke="#63b8ff" d="M443,-36.75C428.53,-45.32 438.45,-54.5 472.75,-54.5 493.65,-54.5 505.5,-51.09 508.29,-46.49"/>
<polygon fill="#63b8ff" stroke="#63b8ff" points="511.39,-44.85 503.27,-38.05 505.38,-48.43 511.39,-44.85"/>
</a>
</g>
</g>
<!-- Node4&#45;&gt;Node3 -->
<g id="edge5_Node000004_Node000003" class="edge">
<title>Node4&#45;&gt;Node3</title>
<g id="a_edge5_Node000004_Node000003"><a xlink:title=" ">
<path fill="none" stroke="#63b8ff" d="M364.53,-17.15C372.56,-17.9 380.72,-18.67 388.75,-19.43"/>
<polygon fill="#63b8ff" stroke="#63b8ff" points="388.21,-22.89 398.49,-20.35 388.86,-15.92 388.21,-22.89"/>
</a>
</g>
</g>
</g>
</svg>
