<?xml version="1.0" encoding="UTF-8" standalone="no"?>
<!DOCTYPE svg PUBLIC "-//W3C//DTD SVG 1.1//EN"
 "http://www.w3.org/Graphics/SVG/1.1/DTD/svg11.dtd">
<!-- Generated by graphviz version 13.1.2 (20250808.2320)
 -->
<!-- Title: RpgGame.Items.Weapon Pages: 1 -->
<!--zoomable 506 -->

<svg id="main" version="1.1" xmlns="http://www.w3.org/2000/svg" xmlns:xlink="http://www.w3.org/1999/xlink" xml:space="preserve" onload="init(evt)">

<style type="text/css"><![CDATA[
.node, .edge {opacity: 0.7;}
.node.selected, .edge.selected {opacity: 1;}
.edge:hover path { stroke: red; }
.edge:hover polygon { stroke: red; fill: red; }
]]></style>

<defs>
  <circle id="rim" cx="0" cy="0" r="7"/>
  <circle id="rim2" cx="0" cy="0" r="3.5"/>
  <g id="zoomPlus">
    <use xlink:href="#rim" fill="#404040"><set attributeName="fill" to="#808080" begin="zoomplus.mouseover" end="zoomplus.mouseout"/></use>
    <path d="M-4,0h8M0,-4v8" fill="none" stroke="white" stroke-width="1.5" pointer-events="none"/>
  </g>
  <g id="zoomMin">
    <use xlink:href="#rim" fill="#404040"><set attributeName="fill" to="#808080" begin="zoomminus.mouseover" end="zoomminus.mouseout"/></use>
    <path d="M-4,0h8" fill="none" stroke="white" stroke-width="1.5" pointer-events="none"/>
  </g>
  <g id="arrowUp" transform="translate(30 24)">
    <use xlink:href="#rim"/>
    <path pointer-events="none" fill="none" stroke="white" stroke-width="1.5" d="M0,-3.0v7 M-2.5,-0.5L0,-3.0L2.5,-0.5"/>
  </g>
  <g id="arrowRight" transform="rotate(90) translate(36 -43)">
    <use xlink:href="#rim"/>
    <path pointer-events="none" fill="none" stroke="white" stroke-width="1.5" d="M0,-3.0v7 M-2.5,-0.5L0,-3.0L2.5,-0.5"/>
  </g>
  <g id="arrowDown" transform="rotate(180) translate(-30 -48)">
    <use xlink:href="#rim"/>
    <path pointer-events="none" fill="none" stroke="white" stroke-width="1.5" d="M0,-3.0v7 M-2.5,-0.5L0,-3.0L2.5,-0.5"/>
  </g>
  <g id="arrowLeft" transform="rotate(270) translate(-36 17)">
    <use xlink:href="#rim"/>
    <path pointer-events="none" fill="none" stroke="white" stroke-width="1.5" d="M0,-3.0v7 M-2.5,-0.5L0,-3.0L2.5,-0.5"/>
  </g>
  <g id="resetDef">
    <use xlink:href="#rim2" fill="#404040"><set attributeName="fill" to="#808080" begin="reset.mouseover" end="reset.mouseout"/></use>
  </g>
</defs>
<script type="application/ecmascript">
var viewWidth = 154;
var viewHeight = 506;
var sectionId = 'dynsection-1';
</script>
<script type="application/ecmascript" xlink:href="svg.min.js"/>
<svg id="graph" class="graph">
<g id="viewport">
<title>RpgGame.Items.Weapon</title>
<!-- Node1 -->
<g id="Node000001" class="node">
<title>Node1</title>
<g id="a_Node000001"><a xlink:title="Represents an abstract base class for all equippable weapons.">
<polygon fill="#999999" stroke="none" points="146.25,-216 0,-216 0,0 146.25,0 146.25,-216"/>
<text xml:space="preserve" text-anchor="start" x="17.62" y="-202.5" font-family="Helvetica,sans-Serif" font-size="10.00">RpgGame.Items.Weapon</text>
<text xml:space="preserve" text-anchor="start" x="4" y="-188" font-family="Helvetica,sans-Serif" font-size="10.00">+</text>
<text xml:space="preserve" text-anchor="start" x="14" y="-188" font-family="Helvetica,sans-Serif" font-size="10.00">string Name</text>
<text xml:space="preserve" text-anchor="start" x="4" y="-173.5" font-family="Helvetica,sans-Serif" font-size="10.00">+</text>
<text xml:space="preserve" text-anchor="start" x="14" y="-173.5" font-family="Helvetica,sans-Serif" font-size="10.00">ConsoleColor color</text>
<text xml:space="preserve" text-anchor="start" x="4" y="-159" font-family="Helvetica,sans-Serif" font-size="10.00">+</text>
<text xml:space="preserve" text-anchor="start" x="14" y="-159" font-family="Helvetica,sans-Serif" font-size="10.00">char Symbol</text>
<text xml:space="preserve" text-anchor="start" x="4" y="-144.5" font-family="Helvetica,sans-Serif" font-size="10.00">+</text>
<text xml:space="preserve" text-anchor="start" x="14" y="-144.5" font-family="Helvetica,sans-Serif" font-size="10.00">int Damage</text>
<text xml:space="preserve" text-anchor="start" x="4" y="-130" font-family="Helvetica,sans-Serif" font-size="10.00">+</text>
<text xml:space="preserve" text-anchor="start" x="14" y="-130" font-family="Helvetica,sans-Serif" font-size="10.00">bool TryEquipToLeft</text>
<text xml:space="preserve" text-anchor="start" x="14" y="-119.5" font-family="Helvetica,sans-Serif" font-size="10.00">(Player player)</text>
<text xml:space="preserve" text-anchor="start" x="4" y="-105" font-family="Helvetica,sans-Serif" font-size="10.00">+</text>
<text xml:space="preserve" text-anchor="start" x="14" y="-105" font-family="Helvetica,sans-Serif" font-size="10.00">bool TryEquipToRight</text>
<text xml:space="preserve" text-anchor="start" x="14" y="-94.5" font-family="Helvetica,sans-Serif" font-size="10.00">(Player player)</text>
<text xml:space="preserve" text-anchor="start" x="4" y="-80" font-family="Helvetica,sans-Serif" font-size="10.00">+</text>
<text xml:space="preserve" text-anchor="start" x="14" y="-80" font-family="Helvetica,sans-Serif" font-size="10.00">virtual string GetDescription()</text>
<text xml:space="preserve" text-anchor="start" x="4" y="-65.5" font-family="Helvetica,sans-Serif" font-size="10.00">+</text>
<text xml:space="preserve" text-anchor="start" x="14" y="-65.5" font-family="Helvetica,sans-Serif" font-size="10.00">bool OnPickup(Player</text>
<text xml:space="preserve" text-anchor="start" x="14" y="-55" font-family="Helvetica,sans-Serif" font-size="10.00"> player, Inventory inventory)</text>
<text xml:space="preserve" text-anchor="start" x="4" y="-40.5" font-family="Helvetica,sans-Serif" font-size="10.00">+</text>
<text xml:space="preserve" text-anchor="start" x="14" y="-40.5" font-family="Helvetica,sans-Serif" font-size="10.00">void OnDrop(Level level,</text>
<text xml:space="preserve" text-anchor="start" x="14" y="-30" font-family="Helvetica,sans-Serif" font-size="10.00"> Player player)</text>
<text xml:space="preserve" text-anchor="start" x="4.38" y="-15.5" font-family="Helvetica,sans-Serif" font-size="10.00">#</text>
<text xml:space="preserve" text-anchor="start" x="14" y="-15.5" font-family="Helvetica,sans-Serif" font-size="10.00">Weapon(HandOccupation</text>
<text xml:space="preserve" text-anchor="start" x="14" y="-5" font-family="Helvetica,sans-Serif" font-size="10.00"> occupation)</text>
<polygon fill="#666666" stroke="#666666" points="0,-199.5 0,-199.5 146.25,-199.5 146.25,-199.5 0,-199.5"/>
<polygon fill="#666666" stroke="#666666" points="0,-141.5 0,-141.5 12,-141.5 12,-141.5 0,-141.5"/>
<polygon fill="#666666" stroke="#666666" points="12,-141.5 12,-141.5 146.25,-141.5 146.25,-141.5 12,-141.5"/>
<polygon fill="none" stroke="#666666" points="0,0 0,-216 146.25,-216 146.25,0 0,0"/>
</a>
</g>
</g>
<!-- Node2 -->
<g id="Node000002" class="node">
<title>Node2</title>
<g id="a_Node000002"><a xlink:href="interfaceRpgGame_1_1Items_1_1IEquippable.html" target="_top" xlink:title="Represents an item that can be equipped by the player.">
<polygon fill="white" stroke="none" points="140.5,-335 5.75,-335 5.75,-252 140.5,-252 140.5,-335"/>
<text xml:space="preserve" text-anchor="start" x="9.75" y="-321.5" font-family="Helvetica,sans-Serif" font-size="10.00">RpgGame.Items.IEquippable</text>
<text xml:space="preserve" text-anchor="start" x="71.62" y="-307" font-family="Helvetica,sans-Serif" font-size="10.00"> </text>
<text xml:space="preserve" text-anchor="start" x="15.5" y="-292.5" font-family="Helvetica,sans-Serif" font-size="10.00">+</text>
<text xml:space="preserve" text-anchor="start" x="31.25" y="-292.5" font-family="Helvetica,sans-Serif" font-size="10.00">bool TryEquipToLeft</text>
<text xml:space="preserve" text-anchor="start" x="31.25" y="-282" font-family="Helvetica,sans-Serif" font-size="10.00">(Player player)</text>
<text xml:space="preserve" text-anchor="start" x="15.5" y="-267.5" font-family="Helvetica,sans-Serif" font-size="10.00">+</text>
<text xml:space="preserve" text-anchor="start" x="31.25" y="-267.5" font-family="Helvetica,sans-Serif" font-size="10.00">bool TryEquipToRight</text>
<text xml:space="preserve" text-anchor="start" x="31.25" y="-257" font-family="Helvetica,sans-Serif" font-size="10.00">(Player player)</text>
<polygon fill="#666666" stroke="#666666" points="5.75,-318.5 5.75,-318.5 140.5,-318.5 140.5,-318.5 5.75,-318.5"/>
<polygon fill="#666666" stroke="#666666" points="5.75,-304 5.75,-304 140.5,-304 140.5,-304 5.75,-304"/>
<polygon fill="none" stroke="#666666" points="5.75,-252 5.75,-335 140.5,-335 140.5,-252 5.75,-252"/>
</a>
</g>
</g>
<!-- Node2&#45;&gt;Node1 -->
<g id="edge1_Node000001_Node000002" class="edge">
<title>Node2&#45;&gt;Node1</title>
<g id="a_edge1_Node000001_Node000002"><a xlink:title=" ">
<path fill="none" stroke="#63b8ff" d="M73.12,-240.72C73.12,-232.86 73.12,-224.52 73.12,-216"/>
<polygon fill="none" stroke="#63b8ff" points="69.63,-240.72 73.13,-250.72 76.63,-240.72 69.63,-240.72"/>
</a>
</g>
</g>
<!-- Node3 -->
<g id="Node000003" class="node">
<title>Node3</title>
<g id="a_Node000003"><a xlink:href="interfaceRpgGame_1_1Items_1_1IItem.html" target="_top" xlink:title="Defines the contract for all items that can exist within the game world.">
<polygon fill="white" stroke="none" points="142.5,-497.5 3.75,-497.5 3.75,-371 142.5,-371 142.5,-497.5"/>
<text xml:space="preserve" text-anchor="start" x="24" y="-484" font-family="Helvetica,sans-Serif" font-size="10.00">RpgGame.Items.IItem</text>
<text xml:space="preserve" text-anchor="start" x="7.75" y="-469.5" font-family="Helvetica,sans-Serif" font-size="10.00">+</text>
<text xml:space="preserve" text-anchor="start" x="17.75" y="-469.5" font-family="Helvetica,sans-Serif" font-size="10.00">string Name</text>
<text xml:space="preserve" text-anchor="start" x="7.75" y="-455" font-family="Helvetica,sans-Serif" font-size="10.00">+</text>
<text xml:space="preserve" text-anchor="start" x="17.75" y="-455" font-family="Helvetica,sans-Serif" font-size="10.00">char Symbol</text>
<text xml:space="preserve" text-anchor="start" x="7.75" y="-440.5" font-family="Helvetica,sans-Serif" font-size="10.00">+</text>
<text xml:space="preserve" text-anchor="start" x="17.75" y="-440.5" font-family="Helvetica,sans-Serif" font-size="10.00">ConsoleColor color</text>
<text xml:space="preserve" text-anchor="start" x="7.75" y="-426" font-family="Helvetica,sans-Serif" font-size="10.00">+</text>
<text xml:space="preserve" text-anchor="start" x="17.75" y="-426" font-family="Helvetica,sans-Serif" font-size="10.00">string GetDescription()</text>
<text xml:space="preserve" text-anchor="start" x="7.75" y="-411.5" font-family="Helvetica,sans-Serif" font-size="10.00">+</text>
<text xml:space="preserve" text-anchor="start" x="17.75" y="-411.5" font-family="Helvetica,sans-Serif" font-size="10.00">bool OnPickup(Player</text>
<text xml:space="preserve" text-anchor="start" x="17.75" y="-401" font-family="Helvetica,sans-Serif" font-size="10.00"> player, Inventory inventory)</text>
<text xml:space="preserve" text-anchor="start" x="7.75" y="-386.5" font-family="Helvetica,sans-Serif" font-size="10.00">+</text>
<text xml:space="preserve" text-anchor="start" x="17.75" y="-386.5" font-family="Helvetica,sans-Serif" font-size="10.00">void OnDrop(Level level,</text>
<text xml:space="preserve" text-anchor="start" x="17.75" y="-376" font-family="Helvetica,sans-Serif" font-size="10.00"> Player player)</text>
<polygon fill="#666666" stroke="#666666" points="3.75,-481 3.75,-481 142.5,-481 142.5,-481 3.75,-481"/>
<polygon fill="#666666" stroke="#666666" points="3.75,-437.5 3.75,-437.5 15.75,-437.5 15.75,-437.5 3.75,-437.5"/>
<polygon fill="#666666" stroke="#666666" points="15.75,-437.5 15.75,-437.5 142.5,-437.5 142.5,-437.5 15.75,-437.5"/>
<polygon fill="none" stroke="#666666" points="3.75,-371 3.75,-497.5 142.5,-497.5 142.5,-371 3.75,-371"/>
</a>
</g>
</g>
<!-- Node3&#45;&gt;Node2 -->
<g id="edge2_Node000002_Node000003" class="edge">
<title>Node3&#45;&gt;Node2</title>
<g id="a_edge2_Node000002_Node000003"><a xlink:title=" ">
<path fill="none" stroke="#63b8ff" d="M73.12,-359.79C73.12,-351.13 73.12,-342.56 73.12,-334.61"/>
<polygon fill="none" stroke="#63b8ff" points="69.63,-359.67 73.13,-369.67 76.63,-359.67 69.63,-359.67"/>
</a>
</g>
</g>
</g>
</svg>

<g id="navigator" transform="translate(0 0)" fill="#404254">
  <rect fill="#f2f5e9" fill-opacity="0.5" stroke="#606060" stroke-width=".5" x="0" y="0" width="60" height="60"/>
  <use id="zoomplus" xlink:href="#zoomPlus" x="17" y="9" onmousedown="handleZoom(evt,'in')"/>
  <use id="zoomminus" xlink:href="#zoomMin" x="42" y="9" onmousedown="handleZoom(evt,'out')"/>
  <use id="reset" xlink:href="#resetDef" x="30" y="36" onmousedown="handleReset()"/>
   <use id="arrowup" xlink:href="#arrowUp" x="0" y="0" onmousedown="handlePan(0,-1)"/>
  <use id="arrowright" xlink:href="#arrowRight" x="0" y="0" onmousedown="handlePan(1,0)"/>
  <use id="arrowdown" xlink:href="#arrowDown" x="0" y="0" onmousedown="handlePan(0,1)"/>
  <use id="arrowleft" xlink:href="#arrowLeft" x="0" y="0" onmousedown="handlePan(-1,0)"/>
</g>
<svg viewBox="0 0 15 15" width="100%" height="30px" preserveAspectRatio="xMaxYMin meet">
 <g id="arrow_out" transform="scale(0.3 0.3)">
  <a xlink:href="classRpgGame_1_1Items_1_1Weapon__coll__graph_org.svg" target="_base">
   <rect id="button" ry="5" rx="5" y="6" x="6" height="38" width="38"
        fill="#f2f5e9" fill-opacity="0.5" stroke="#606060" stroke-width="1.0"/>
   <path id="arrow"
     d="M 11.500037,31.436501 C 11.940474,20.09759 22.043105,11.32322 32.158766,21.979434 L 37.068811,17.246167 C 37.068811,17.246167 37.088388,32 37.088388,32 L 22.160133,31.978069 C 22.160133,31.978069 26.997745,27.140456 26.997745,27.140456 C 18.528582,18.264221 13.291696,25.230495 11.500037,31.436501 z"
     style="fill:#404040;"/>
  </a>
 </g>
</svg>

<style type='text/css'>
<![CDATA[
[data-mouse-over-selected='false'] { opacity: 0.7; }
[data-mouse-over-selected='true']  { opacity: 1.0; }
]]>
</style>
<script type="application/ecmascript"><![CDATA[
document.addEventListener('DOMContentLoaded', (event) => {
  highlightEdges();
  highlightAdjacentNodes();
});
]]></script>
</svg>
