<?xml version="1.0" encoding="UTF-8" standalone="no"?>
<!DOCTYPE svg PUBLIC "-//W3C//DTD SVG 1.1//EN"
 "http://www.w3.org/Graphics/SVG/1.1/DTD/svg11.dtd">
<!-- Generated by graphviz version 13.1.2 (20250808.2320)
 -->
<!-- Title: RpgGame.Core.Level.GetTopItem Pages: 1 -->
<svg width="354pt" height="45pt"
 viewBox="0.00 0.00 354.00 45.00" xmlns="http://www.w3.org/2000/svg" xmlns:xlink="http://www.w3.org/1999/xlink">
<g id="graph0" class="graph" transform="scale(1 1) rotate(0) translate(4 40.5)">
<title>RpgGame.Core.Level.GetTopItem</title>
<!-- Node1 -->
<g id="Node000001" class="node">
<title>Node1</title>
<g id="a_Node000001"><a xlink:title="Retrieves the top item at a position without removing it.">
<polygon fill="#999999" stroke="#666666" points="164.5,-18.5 0,-18.5 0,0 164.5,0 164.5,-18.5"/>
<text xml:space="preserve" text-anchor="middle" x="82.25" y="-5" font-family="Helvetica,sans-Serif" font-size="10.00">RpgGame.Core.Level.GetTopItem</text>
</a>
</g>
</g>
<!-- Node2 -->
<g id="Node000002" class="node">
<title>Node2</title>
<g id="a_Node000002"><a xlink:href="namespaceRpgGame_1_1Character.html#ab2e6f640f8bfc682c50e3c19e0d417f1" target="_top" xlink:title="A record for tracking the position of Characters, Items, and Tiles if needed.">
<polygon fill="white" stroke="#666666" points="345.5,-18.5 200.5,-18.5 200.5,0 345.5,0 345.5,-18.5"/>
<text xml:space="preserve" text-anchor="middle" x="273" y="-5" font-family="Helvetica,sans-Serif" font-size="10.00">RpgGame.Character.Position</text>
</a>
</g>
</g>
<!-- Node1&#45;&gt;Node2 -->
<g id="edge1_Node000001_Node000002" class="edge">
<title>Node1&#45;&gt;Node2</title>
<g id="a_edge1_Node000001_Node000002"><a xlink:title=" ">
<path fill="none" stroke="#63b8ff" d="M164.94,-9.25C172.84,-9.25 180.86,-9.25 188.77,-9.25"/>
<polygon fill="#63b8ff" stroke="#63b8ff" points="188.75,-12.75 198.75,-9.25 188.75,-5.75 188.75,-12.75"/>
</a>
</g>
</g>
<!-- Node2&#45;&gt;Node2 -->
<g id="edge2_Node000002_Node000002" class="edge">
<title>Node2&#45;&gt;Node2</title>
<g id="a_edge2_Node000002_Node000002"><a xlink:title=" ">
<path fill="none" stroke="#63b8ff" d="M243.6,-18.75C229.3,-27.32 239.1,-36.5 273,-36.5 293.13,-36.5 304.76,-33.26 307.9,-28.84"/>
<polygon fill="#63b8ff" stroke="#63b8ff" points="310.98,-27.18 303.12,-20.07 304.83,-30.53 310.98,-27.18"/>
</a>
</g>
</g>
</g>
</svg>
