<?xml version="1.0" encoding="UTF-8" standalone="no"?>
<!DOCTYPE svg PUBLIC "-//W3C//DTD SVG 1.1//EN"
 "http://www.w3.org/Graphics/SVG/1.1/DTD/svg11.dtd">
<!-- Generated by graphviz version 13.1.2 (20250808.2320)
 -->
<!-- Title: RpgGame.Items.DoubleSword Pages: 1 -->
<!--zoomable 643 -->

<svg id="main" version="1.1" xmlns="http://www.w3.org/2000/svg" xmlns:xlink="http://www.w3.org/1999/xlink" xml:space="preserve" onload="init(evt)">

<style type="text/css"><![CDATA[
.node, .edge {opacity: 0.7;}
.node.selected, .edge.selected {opacity: 1;}
.edge:hover path { stroke: red; }
.edge:hover polygon { stroke: red; fill: red; }
]]></style>

<defs>
  <circle id="rim" cx="0" cy="0" r="7"/>
  <circle id="rim2" cx="0" cy="0" r="3.5"/>
  <g id="zoomPlus">
    <use xlink:href="#rim" fill="#404040"><set attributeName="fill" to="#808080" begin="zoomplus.mouseover" end="zoomplus.mouseout"/></use>
    <path d="M-4,0h8M0,-4v8" fill="none" stroke="white" stroke-width="1.5" pointer-events="none"/>
  </g>
  <g id="zoomMin">
    <use xlink:href="#rim" fill="#404040"><set attributeName="fill" to="#808080" begin="zoomminus.mouseover" end="zoomminus.mouseout"/></use>
    <path d="M-4,0h8" fill="none" stroke="white" stroke-width="1.5" pointer-events="none"/>
  </g>
  <g id="arrowUp" transform="translate(30 24)">
    <use xlink:href="#rim"/>
    <path pointer-events="none" fill="none" stroke="white" stroke-width="1.5" d="M0,-3.0v7 M-2.5,-0.5L0,-3.0L2.5,-0.5"/>
  </g>
  <g id="arrowRight" transform="rotate(90) translate(36 -43)">
    <use xlink:href="#rim"/>
    <path pointer-events="none" fill="none" stroke="white" stroke-width="1.5" d="M0,-3.0v7 M-2.5,-0.5L0,-3.0L2.5,-0.5"/>
  </g>
  <g id="arrowDown" transform="rotate(180) translate(-30 -48)">
    <use xlink:href="#rim"/>
    <path pointer-events="none" fill="none" stroke="white" stroke-width="1.5" d="M0,-3.0v7 M-2.5,-0.5L0,-3.0L2.5,-0.5"/>
  </g>
  <g id="arrowLeft" transform="rotate(270) translate(-36 17)">
    <use xlink:href="#rim"/>
    <path pointer-events="none" fill="none" stroke="white" stroke-width="1.5" d="M0,-3.0v7 M-2.5,-0.5L0,-3.0L2.5,-0.5"/>
  </g>
  <g id="resetDef">
    <use xlink:href="#rim2" fill="#404040"><set attributeName="fill" to="#808080" begin="reset.mouseover" end="reset.mouseout"/></use>
  </g>
</defs>
<script type="application/ecmascript">
var viewWidth = 154;
var viewHeight = 643;
var sectionId = 'dynsection-1';
</script>
<script type="application/ecmascript" xlink:href="svg.min.js"/>
<svg id="graph" class="graph">
<g id="viewport">
<title>RpgGame.Items.DoubleSword</title>
<!-- Node1 -->
<g id="Node000001" class="node">
<title>Node1</title>
<g id="a_Node000001"><a xlink:title="Represents a powerful two&#45;handed sword weapon.">
<polygon fill="#999999" stroke="none" points="143.88,-101.5 2.38,-101.5 2.38,0 143.88,0 143.88,-101.5"/>
<text xml:space="preserve" text-anchor="start" x="6.38" y="-88" font-family="Helvetica,sans-Serif" font-size="10.00">RpgGame.Items.DoubleSword</text>
<text xml:space="preserve" text-anchor="start" x="13.25" y="-73.5" font-family="Helvetica,sans-Serif" font-size="10.00">+</text>
<text xml:space="preserve" text-anchor="start" x="30.12" y="-73.5" font-family="Helvetica,sans-Serif" font-size="10.00">override string Name</text>
<text xml:space="preserve" text-anchor="start" x="13.25" y="-59" font-family="Helvetica,sans-Serif" font-size="10.00">+</text>
<text xml:space="preserve" text-anchor="start" x="30.12" y="-59" font-family="Helvetica,sans-Serif" font-size="10.00">override ConsoleColor</text>
<text xml:space="preserve" text-anchor="start" x="30.12" y="-48.5" font-family="Helvetica,sans-Serif" font-size="10.00"> color</text>
<text xml:space="preserve" text-anchor="start" x="13.25" y="-34" font-family="Helvetica,sans-Serif" font-size="10.00">+</text>
<text xml:space="preserve" text-anchor="start" x="30.12" y="-34" font-family="Helvetica,sans-Serif" font-size="10.00">override char Symbol</text>
<text xml:space="preserve" text-anchor="start" x="13.25" y="-19.5" font-family="Helvetica,sans-Serif" font-size="10.00">+</text>
<text xml:space="preserve" text-anchor="start" x="30.12" y="-19.5" font-family="Helvetica,sans-Serif" font-size="10.00">override int Damage</text>
<text xml:space="preserve" text-anchor="start" x="13.25" y="-5" font-family="Helvetica,sans-Serif" font-size="10.00">+</text>
<text xml:space="preserve" text-anchor="start" x="30.12" y="-5" font-family="Helvetica,sans-Serif" font-size="10.00">DoubleSword()</text>
<polygon fill="#666666" stroke="#666666" points="2.38,-85 2.38,-85 143.88,-85 143.88,-85 2.38,-85"/>
<polygon fill="#666666" stroke="#666666" points="2.38,-16.5 2.38,-16.5 28.12,-16.5 28.12,-16.5 2.38,-16.5"/>
<polygon fill="#666666" stroke="#666666" points="28.12,-16.5 28.12,-16.5 143.88,-16.5 143.88,-16.5 28.12,-16.5"/>
<polygon fill="none" stroke="#666666" points="2.38,0 2.38,-101.5 143.88,-101.5 143.88,0 2.38,0"/>
</a>
</g>
</g>
<!-- Node2 -->
<g id="Node000002" class="node">
<title>Node2</title>
<g id="a_Node000002"><a xlink:href="classRpgGame_1_1Items_1_1Weapon.html" target="_top" xlink:title="Represents an abstract base class for all equippable weapons.">
<polygon fill="white" stroke="none" points="146.25,-353.5 0,-353.5 0,-137.5 146.25,-137.5 146.25,-353.5"/>
<text xml:space="preserve" text-anchor="start" x="17.62" y="-340" font-family="Helvetica,sans-Serif" font-size="10.00">RpgGame.Items.Weapon</text>
<text xml:space="preserve" text-anchor="start" x="4" y="-325.5" font-family="Helvetica,sans-Serif" font-size="10.00">+</text>
<text xml:space="preserve" text-anchor="start" x="14" y="-325.5" font-family="Helvetica,sans-Serif" font-size="10.00">string Name</text>
<text xml:space="preserve" text-anchor="start" x="4" y="-311" font-family="Helvetica,sans-Serif" font-size="10.00">+</text>
<text xml:space="preserve" text-anchor="start" x="14" y="-311" font-family="Helvetica,sans-Serif" font-size="10.00">ConsoleColor color</text>
<text xml:space="preserve" text-anchor="start" x="4" y="-296.5" font-family="Helvetica,sans-Serif" font-size="10.00">+</text>
<text xml:space="preserve" text-anchor="start" x="14" y="-296.5" font-family="Helvetica,sans-Serif" font-size="10.00">char Symbol</text>
<text xml:space="preserve" text-anchor="start" x="4" y="-282" font-family="Helvetica,sans-Serif" font-size="10.00">+</text>
<text xml:space="preserve" text-anchor="start" x="14" y="-282" font-family="Helvetica,sans-Serif" font-size="10.00">int Damage</text>
<text xml:space="preserve" text-anchor="start" x="4" y="-267.5" font-family="Helvetica,sans-Serif" font-size="10.00">+</text>
<text xml:space="preserve" text-anchor="start" x="14" y="-267.5" font-family="Helvetica,sans-Serif" font-size="10.00">bool TryEquipToLeft</text>
<text xml:space="preserve" text-anchor="start" x="14" y="-257" font-family="Helvetica,sans-Serif" font-size="10.00">(Player player)</text>
<text xml:space="preserve" text-anchor="start" x="4" y="-242.5" font-family="Helvetica,sans-Serif" font-size="10.00">+</text>
<text xml:space="preserve" text-anchor="start" x="14" y="-242.5" font-family="Helvetica,sans-Serif" font-size="10.00">bool TryEquipToRight</text>
<text xml:space="preserve" text-anchor="start" x="14" y="-232" font-family="Helvetica,sans-Serif" font-size="10.00">(Player player)</text>
<text xml:space="preserve" text-anchor="start" x="4" y="-217.5" font-family="Helvetica,sans-Serif" font-size="10.00">+</text>
<text xml:space="preserve" text-anchor="start" x="14" y="-217.5" font-family="Helvetica,sans-Serif" font-size="10.00">virtual string GetDescription()</text>
<text xml:space="preserve" text-anchor="start" x="4" y="-203" font-family="Helvetica,sans-Serif" font-size="10.00">+</text>
<text xml:space="preserve" text-anchor="start" x="14" y="-203" font-family="Helvetica,sans-Serif" font-size="10.00">bool OnPickup(Player</text>
<text xml:space="preserve" text-anchor="start" x="14" y="-192.5" font-family="Helvetica,sans-Serif" font-size="10.00"> player, Inventory inventory)</text>
<text xml:space="preserve" text-anchor="start" x="4" y="-178" font-family="Helvetica,sans-Serif" font-size="10.00">+</text>
<text xml:space="preserve" text-anchor="start" x="14" y="-178" font-family="Helvetica,sans-Serif" font-size="10.00">void OnDrop(Level level,</text>
<text xml:space="preserve" text-anchor="start" x="14" y="-167.5" font-family="Helvetica,sans-Serif" font-size="10.00"> Player player)</text>
<text xml:space="preserve" text-anchor="start" x="4.38" y="-153" font-family="Helvetica,sans-Serif" font-size="10.00">#</text>
<text xml:space="preserve" text-anchor="start" x="14" y="-153" font-family="Helvetica,sans-Serif" font-size="10.00">Weapon(HandOccupation</text>
<text xml:space="preserve" text-anchor="start" x="14" y="-142.5" font-family="Helvetica,sans-Serif" font-size="10.00"> occupation)</text>
<polygon fill="#666666" stroke="#666666" points="0,-337 0,-337 146.25,-337 146.25,-337 0,-337"/>
<polygon fill="#666666" stroke="#666666" points="0,-279 0,-279 12,-279 12,-279 0,-279"/>
<polygon fill="#666666" stroke="#666666" points="12,-279 12,-279 146.25,-279 146.25,-279 12,-279"/>
<polygon fill="none" stroke="#666666" points="0,-137.5 0,-353.5 146.25,-353.5 146.25,-137.5 0,-137.5"/>
</a>
</g>
</g>
<!-- Node2&#45;&gt;Node1 -->
<g id="edge1_Node000001_Node000002" class="edge">
<title>Node2&#45;&gt;Node1</title>
<g id="a_edge1_Node000001_Node000002"><a xlink:title=" ">
<path fill="none" stroke="#63b8ff" d="M73.12,-126.2C73.12,-117.54 73.12,-109.13 73.12,-101.28"/>
<polygon fill="none" stroke="#63b8ff" points="69.63,-126.18 73.13,-136.18 76.63,-126.18 69.63,-126.18"/>
</a>
</g>
</g>
<!-- Node3 -->
<g id="Node000003" class="node">
<title>Node3</title>
<g id="a_Node000003"><a xlink:href="interfaceRpgGame_1_1Items_1_1IEquippable.html" target="_top" xlink:title="Represents an item that can be equipped by the player.">
<polygon fill="white" stroke="none" points="140.5,-472.5 5.75,-472.5 5.75,-389.5 140.5,-389.5 140.5,-472.5"/>
<text xml:space="preserve" text-anchor="start" x="9.75" y="-459" font-family="Helvetica,sans-Serif" font-size="10.00">RpgGame.Items.IEquippable</text>
<text xml:space="preserve" text-anchor="start" x="71.62" y="-444.5" font-family="Helvetica,sans-Serif" font-size="10.00"> </text>
<text xml:space="preserve" text-anchor="start" x="15.5" y="-430" font-family="Helvetica,sans-Serif" font-size="10.00">+</text>
<text xml:space="preserve" text-anchor="start" x="31.25" y="-430" font-family="Helvetica,sans-Serif" font-size="10.00">bool TryEquipToLeft</text>
<text xml:space="preserve" text-anchor="start" x="31.25" y="-419.5" font-family="Helvetica,sans-Serif" font-size="10.00">(Player player)</text>
<text xml:space="preserve" text-anchor="start" x="15.5" y="-405" font-family="Helvetica,sans-Serif" font-size="10.00">+</text>
<text xml:space="preserve" text-anchor="start" x="31.25" y="-405" font-family="Helvetica,sans-Serif" font-size="10.00">bool TryEquipToRight</text>
<text xml:space="preserve" text-anchor="start" x="31.25" y="-394.5" font-family="Helvetica,sans-Serif" font-size="10.00">(Player player)</text>
<polygon fill="#666666" stroke="#666666" points="5.75,-456 5.75,-456 140.5,-456 140.5,-456 5.75,-456"/>
<polygon fill="#666666" stroke="#666666" points="5.75,-441.5 5.75,-441.5 140.5,-441.5 140.5,-441.5 5.75,-441.5"/>
<polygon fill="none" stroke="#666666" points="5.75,-389.5 5.75,-472.5 140.5,-472.5 140.5,-389.5 5.75,-389.5"/>
</a>
</g>
</g>
<!-- Node3&#45;&gt;Node2 -->
<g id="edge2_Node000002_Node000003" class="edge">
<title>Node3&#45;&gt;Node2</title>
<g id="a_edge2_Node000002_Node000003"><a xlink:title=" ">
<path fill="none" stroke="#63b8ff" d="M73.12,-378.22C73.12,-370.36 73.12,-362.02 73.12,-353.5"/>
<polygon fill="none" stroke="#63b8ff" points="69.63,-378.22 73.13,-388.22 76.63,-378.22 69.63,-378.22"/>
</a>
</g>
</g>
<!-- Node4 -->
<g id="Node000004" class="node">
<title>Node4</title>
<g id="a_Node000004"><a xlink:href="interfaceRpgGame_1_1Items_1_1IItem.html" target="_top" xlink:title="Defines the contract for all items that can exist within the game world.">
<polygon fill="white" stroke="none" points="142.5,-635 3.75,-635 3.75,-508.5 142.5,-508.5 142.5,-635"/>
<text xml:space="preserve" text-anchor="start" x="24" y="-621.5" font-family="Helvetica,sans-Serif" font-size="10.00">RpgGame.Items.IItem</text>
<text xml:space="preserve" text-anchor="start" x="7.75" y="-607" font-family="Helvetica,sans-Serif" font-size="10.00">+</text>
<text xml:space="preserve" text-anchor="start" x="17.75" y="-607" font-family="Helvetica,sans-Serif" font-size="10.00">string Name</text>
<text xml:space="preserve" text-anchor="start" x="7.75" y="-592.5" font-family="Helvetica,sans-Serif" font-size="10.00">+</text>
<text xml:space="preserve" text-anchor="start" x="17.75" y="-592.5" font-family="Helvetica,sans-Serif" font-size="10.00">char Symbol</text>
<text xml:space="preserve" text-anchor="start" x="7.75" y="-578" font-family="Helvetica,sans-Serif" font-size="10.00">+</text>
<text xml:space="preserve" text-anchor="start" x="17.75" y="-578" font-family="Helvetica,sans-Serif" font-size="10.00">ConsoleColor color</text>
<text xml:space="preserve" text-anchor="start" x="7.75" y="-563.5" font-family="Helvetica,sans-Serif" font-size="10.00">+</text>
<text xml:space="preserve" text-anchor="start" x="17.75" y="-563.5" font-family="Helvetica,sans-Serif" font-size="10.00">string GetDescription()</text>
<text xml:space="preserve" text-anchor="start" x="7.75" y="-549" font-family="Helvetica,sans-Serif" font-size="10.00">+</text>
<text xml:space="preserve" text-anchor="start" x="17.75" y="-549" font-family="Helvetica,sans-Serif" font-size="10.00">bool OnPickup(Player</text>
<text xml:space="preserve" text-anchor="start" x="17.75" y="-538.5" font-family="Helvetica,sans-Serif" font-size="10.00"> player, Inventory inventory)</text>
<text xml:space="preserve" text-anchor="start" x="7.75" y="-524" font-family="Helvetica,sans-Serif" font-size="10.00">+</text>
<text xml:space="preserve" text-anchor="start" x="17.75" y="-524" font-family="Helvetica,sans-Serif" font-size="10.00">void OnDrop(Level level,</text>
<text xml:space="preserve" text-anchor="start" x="17.75" y="-513.5" font-family="Helvetica,sans-Serif" font-size="10.00"> Player player)</text>
<polygon fill="#666666" stroke="#666666" points="3.75,-618.5 3.75,-618.5 142.5,-618.5 142.5,-618.5 3.75,-618.5"/>
<polygon fill="#666666" stroke="#666666" points="3.75,-575 3.75,-575 15.75,-575 15.75,-575 3.75,-575"/>
<polygon fill="#666666" stroke="#666666" points="15.75,-575 15.75,-575 142.5,-575 142.5,-575 15.75,-575"/>
<polygon fill="none" stroke="#666666" points="3.75,-508.5 3.75,-635 142.5,-635 142.5,-508.5 3.75,-508.5"/>
</a>
</g>
</g>
<!-- Node4&#45;&gt;Node3 -->
<g id="edge3_Node000003_Node000004" class="edge">
<title>Node4&#45;&gt;Node3</title>
<g id="a_edge3_Node000003_Node000004"><a xlink:title=" ">
<path fill="none" stroke="#63b8ff" d="M73.12,-497.29C73.12,-488.63 73.12,-480.06 73.12,-472.11"/>
<polygon fill="none" stroke="#63b8ff" points="69.63,-497.17 73.13,-507.17 76.63,-497.17 69.63,-497.17"/>
</a>
</g>
</g>
</g>
</svg>

<g id="navigator" transform="translate(0 0)" fill="#404254">
  <rect fill="#f2f5e9" fill-opacity="0.5" stroke="#606060" stroke-width=".5" x="0" y="0" width="60" height="60"/>
  <use id="zoomplus" xlink:href="#zoomPlus" x="17" y="9" onmousedown="handleZoom(evt,'in')"/>
  <use id="zoomminus" xlink:href="#zoomMin" x="42" y="9" onmousedown="handleZoom(evt,'out')"/>
  <use id="reset" xlink:href="#resetDef" x="30" y="36" onmousedown="handleReset()"/>
   <use id="arrowup" xlink:href="#arrowUp" x="0" y="0" onmousedown="handlePan(0,-1)"/>
  <use id="arrowright" xlink:href="#arrowRight" x="0" y="0" onmousedown="handlePan(1,0)"/>
  <use id="arrowdown" xlink:href="#arrowDown" x="0" y="0" onmousedown="handlePan(0,1)"/>
  <use id="arrowleft" xlink:href="#arrowLeft" x="0" y="0" onmousedown="handlePan(-1,0)"/>
</g>
<svg viewBox="0 0 15 15" width="100%" height="30px" preserveAspectRatio="xMaxYMin meet">
 <g id="arrow_out" transform="scale(0.3 0.3)">
  <a xlink:href="classRpgGame_1_1Items_1_1DoubleSword__coll__graph_org.svg" target="_base">
   <rect id="button" ry="5" rx="5" y="6" x="6" height="38" width="38"
        fill="#f2f5e9" fill-opacity="0.5" stroke="#606060" stroke-width="1.0"/>
   <path id="arrow"
     d="M 11.500037,31.436501 C 11.940474,20.09759 22.043105,11.32322 32.158766,21.979434 L 37.068811,17.246167 C 37.068811,17.246167 37.088388,32 37.088388,32 L 22.160133,31.978069 C 22.160133,31.978069 26.997745,27.140456 26.997745,27.140456 C 18.528582,18.264221 13.291696,25.230495 11.500037,31.436501 z"
     style="fill:#404040;"/>
  </a>
 </g>
</svg>

<style type='text/css'>
<![CDATA[
[data-mouse-over-selected='false'] { opacity: 0.7; }
[data-mouse-over-selected='true']  { opacity: 1.0; }
]]>
</style>
<script type="application/ecmascript"><![CDATA[
document.addEventListener('DOMContentLoaded', (event) => {
  highlightEdges();
  highlightAdjacentNodes();
});
]]></script>
</svg>
