<?xml version="1.0" encoding="UTF-8" standalone="no"?>
<!DOCTYPE svg PUBLIC "-//W3C//DTD SVG 1.1//EN"
 "http://www.w3.org/Graphics/SVG/1.1/DTD/svg11.dtd">
<!-- Generated by graphviz version 13.1.2 (20250808.2320)
 -->
<!-- Title: RpgGame.Items.TwoHandOccupation Pages: 1 -->
<svg width="182pt" height="210pt"
 viewBox="0.00 0.00 182.00 210.00" xmlns="http://www.w3.org/2000/svg" xmlns:xlink="http://www.w3.org/1999/xlink">

<svg id="main" version="1.1" xmlns="http://www.w3.org/2000/svg" xmlns:xlink="http://www.w3.org/1999/xlink" xml:space="preserve">

<style type="text/css"><![CDATA[
.node, .edge {opacity: 0.7;}
.node.selected, .edge.selected {opacity: 1;}
.edge:hover path { stroke: red; }
.edge:hover polygon { stroke: red; fill: red; }
]]></style>
<script type="application/ecmascript" xlink:href="svg.min.js"/>
<svg id="graph" class="graph">
<g id="graph0" class="graph" transform="scale(1 1) rotate(0) translate(4 206)">
<title>RpgGame.Items.TwoHandOccupation</title>
<!-- Node1 -->
<g id="Node000001" class="node">
<title>Node1</title>
<g id="a_Node000001"><a xlink:title="Represents a hand occupation strategy for two&#45;handed equipment.">
<polygon fill="#999999" stroke="none" points="173.75,-83 0,-83 0,0 173.75,0 173.75,-83"/>
<text xml:space="preserve" text-anchor="start" x="4" y="-69.5" font-family="Helvetica,sans-Serif" font-size="10.00">RpgGame.Items.TwoHandOccupation</text>
<text xml:space="preserve" text-anchor="start" x="85.38" y="-55" font-family="Helvetica,sans-Serif" font-size="10.00"> </text>
<text xml:space="preserve" text-anchor="start" x="7.88" y="-40.5" font-family="Helvetica,sans-Serif" font-size="10.00">+</text>
<text xml:space="preserve" text-anchor="start" x="21.75" y="-40.5" font-family="Helvetica,sans-Serif" font-size="10.00">override bool EquipLeft</text>
<text xml:space="preserve" text-anchor="start" x="21.75" y="-30" font-family="Helvetica,sans-Serif" font-size="10.00">(Player player, IEquippable item)</text>
<text xml:space="preserve" text-anchor="start" x="7.88" y="-15.5" font-family="Helvetica,sans-Serif" font-size="10.00">+</text>
<text xml:space="preserve" text-anchor="start" x="21.75" y="-15.5" font-family="Helvetica,sans-Serif" font-size="10.00">override bool EquipRight</text>
<text xml:space="preserve" text-anchor="start" x="21.75" y="-5" font-family="Helvetica,sans-Serif" font-size="10.00">(Player player, IEquippable item)</text>
<polygon fill="#666666" stroke="#666666" points="0,-66.5 0,-66.5 173.75,-66.5 173.75,-66.5 0,-66.5"/>
<polygon fill="#666666" stroke="#666666" points="0,-52 0,-52 173.75,-52 173.75,-52 0,-52"/>
<polygon fill="none" stroke="#666666" points="0,0 0,-83 173.75,-83 173.75,0 0,0"/>
</a>
</g>
</g>
<!-- Node2 -->
<g id="Node000002" class="node">
<title>Node2</title>
<g id="a_Node000002"><a xlink:href="classRpgGame_1_1Items_1_1HandOccupation.html" target="_top" xlink:title="Defines the strategy for how an equippable item occupies the player&#39;s hands.">
<polygon fill="white" stroke="none" points="165.12,-202 8.62,-202 8.62,-119 165.12,-119 165.12,-202"/>
<text xml:space="preserve" text-anchor="start" x="12.62" y="-188.5" font-family="Helvetica,sans-Serif" font-size="10.00">RpgGame.Items.HandOccupation</text>
<text xml:space="preserve" text-anchor="start" x="85.38" y="-174" font-family="Helvetica,sans-Serif" font-size="10.00"> </text>
<text xml:space="preserve" text-anchor="start" x="19.69" y="-159.5" font-family="Helvetica,sans-Serif" font-size="10.00">+</text>
<text xml:space="preserve" text-anchor="start" x="36.75" y="-159.5" font-family="Helvetica,sans-Serif" font-size="10.00">bool EquipLeft(Player</text>
<text xml:space="preserve" text-anchor="start" x="36.75" y="-149" font-family="Helvetica,sans-Serif" font-size="10.00"> player, IEquippable item)</text>
<text xml:space="preserve" text-anchor="start" x="19.69" y="-134.5" font-family="Helvetica,sans-Serif" font-size="10.00">+</text>
<text xml:space="preserve" text-anchor="start" x="36.75" y="-134.5" font-family="Helvetica,sans-Serif" font-size="10.00">bool EquipRight(Player</text>
<text xml:space="preserve" text-anchor="start" x="36.75" y="-124" font-family="Helvetica,sans-Serif" font-size="10.00"> player, IEquippable item)</text>
<polygon fill="#666666" stroke="#666666" points="8.62,-185.5 8.62,-185.5 165.12,-185.5 165.12,-185.5 8.62,-185.5"/>
<polygon fill="#666666" stroke="#666666" points="8.62,-171 8.62,-171 165.12,-171 165.12,-171 8.62,-171"/>
<polygon fill="none" stroke="#666666" points="8.62,-119 8.62,-202 165.12,-202 165.12,-119 8.62,-119"/>
</a>
</g>
</g>
<!-- Node2&#45;&gt;Node1 -->
<g id="edge1_Node000001_Node000002" class="edge">
<title>Node2&#45;&gt;Node1</title>
<g id="a_edge1_Node000001_Node000002"><a xlink:title=" ">
<path fill="none" stroke="#63b8ff" d="M86.88,-107.95C86.88,-99.54 86.88,-90.93 86.88,-82.84"/>
<polygon fill="none" stroke="#63b8ff" points="83.38,-107.72 86.88,-117.72 90.38,-107.72 83.38,-107.72"/>
</a>
</g>
</g>
</g>
</svg>
</svg>

<style type='text/css'>
<![CDATA[
[data-mouse-over-selected='false'] { opacity: 0.7; }
[data-mouse-over-selected='true']  { opacity: 1.0; }
]]>
</style>
<script type="application/ecmascript"><![CDATA[
document.addEventListener('DOMContentLoaded', (event) => {
  highlightEdges();
  highlightAdjacentNodes();
});
]]></script>
</svg>
