<?xml version="1.0" encoding="UTF-8" standalone="no"?>
<!DOCTYPE svg PUBLIC "-//W3C//DTD SVG 1.1//EN"
 "http://www.w3.org/Graphics/SVG/1.1/DTD/svg11.dtd">
<!-- Generated by graphviz version 13.1.2 (20250808.2320)
 -->
<!-- Title: RpgGame.Generation.Procedures.AddItemsProcedure.ApplyAsync Pages: 1 -->
<svg width="374pt" height="178pt"
 viewBox="0.00 0.00 374.00 178.00" xmlns="http://www.w3.org/2000/svg" xmlns:xlink="http://www.w3.org/1999/xlink">
<g id="graph0" class="graph" transform="scale(1 1) rotate(0) translate(4 174)">
<title>RpgGame.Generation.Procedures.AddItemsProcedure.ApplyAsync</title>
<!-- Node1 -->
<g id="Node000001" class="node">
<title>Node1</title>
<g id="a_Node000001"><a xlink:title="Applies the item spawning to the level.">
<polygon fill="#999999" stroke="#666666" points="166.75,-99 0,-99 0,-70 166.75,-70 166.75,-99"/>
<text xml:space="preserve" text-anchor="start" x="8" y="-85.5" font-family="Helvetica,sans-Serif" font-size="10.00">RpgGame.Generation.Procedures.</text>
<text xml:space="preserve" text-anchor="middle" x="83.38" y="-75" font-family="Helvetica,sans-Serif" font-size="10.00">AddItemsProcedure.ApplyAsync</text>
</a>
</g>
</g>
<!-- Node2 -->
<g id="Node000002" class="node">
<title>Node2</title>
<g id="a_Node000002"><a xlink:href="classRpgGame_1_1Generation_1_1MapSpawnHelper.html#aef5f182d21ac6ed160d15450118a6032" target="_top" xlink:title="Convenience wrapper that spawns coins.">
<polygon fill="white" stroke="#666666" points="365.75,-170 202.75,-170 202.75,-141 365.75,-141 365.75,-170"/>
<text xml:space="preserve" text-anchor="start" x="210.75" y="-156.5" font-family="Helvetica,sans-Serif" font-size="10.00">RpgGame.Generation.MapSpawn</text>
<text xml:space="preserve" text-anchor="middle" x="284.25" y="-146" font-family="Helvetica,sans-Serif" font-size="10.00">Helper.SpawnCoinsAsync</text>
</a>
</g>
</g>
<!-- Node1&#45;&gt;Node2 -->
<g id="edge1_Node000001_Node000002" class="edge">
<title>Node1&#45;&gt;Node2</title>
<g id="a_edge1_Node000001_Node000002"><a xlink:title=" ">
<path fill="none" stroke="#63b8ff" d="M118.45,-99.45C141.91,-109.46 173.92,-122.57 202.75,-132.5 207.44,-134.11 212.3,-135.71 217.22,-137.26"/>
<polygon fill="#63b8ff" stroke="#63b8ff" points="215.98,-140.53 226.56,-140.12 218.03,-133.84 215.98,-140.53"/>
</a>
</g>
</g>
<!-- Node3 -->
<g id="Node000003" class="node">
<title>Node3</title>
<g id="a_Node000003"><a xlink:href="classRpgGame_1_1Generation_1_1MapSpawnHelper.html#a3d4f8e59572c78841b18c605691225b8" target="_top" xlink:title="Convenience wrapper that spawns gold piles.">
<polygon fill="white" stroke="#666666" points="365.75,-123 202.75,-123 202.75,-94 365.75,-94 365.75,-123"/>
<text xml:space="preserve" text-anchor="start" x="210.75" y="-109.5" font-family="Helvetica,sans-Serif" font-size="10.00">RpgGame.Generation.MapSpawn</text>
<text xml:space="preserve" text-anchor="middle" x="284.25" y="-99" font-family="Helvetica,sans-Serif" font-size="10.00">Helper.SpawnGoldAsync</text>
</a>
</g>
</g>
<!-- Node1&#45;&gt;Node3 -->
<g id="edge2_Node000001_Node000003" class="edge">
<title>Node1&#45;&gt;Node3</title>
<g id="a_edge2_Node000001_Node000003"><a xlink:title=" ">
<path fill="none" stroke="#63b8ff" d="M166.99,-94.47C174.97,-95.43 183.09,-96.41 191.16,-97.39"/>
<polygon fill="#63b8ff" stroke="#63b8ff" points="190.64,-100.85 200.99,-98.57 191.48,-93.9 190.64,-100.85"/>
</a>
</g>
</g>
<!-- Node4 -->
<g id="Node000004" class="node">
<title>Node4</title>
<g id="a_Node000004"><a xlink:href="classRpgGame_1_1Generation_1_1MapSpawnHelper.html#ad1d520226d3d48c42d78755cc5651368" target="_top" xlink:title="Convenience wrapper that spawns potions.">
<polygon fill="white" stroke="#666666" points="365.75,-76 202.75,-76 202.75,-47 365.75,-47 365.75,-76"/>
<text xml:space="preserve" text-anchor="start" x="210.75" y="-62.5" font-family="Helvetica,sans-Serif" font-size="10.00">RpgGame.Generation.MapSpawn</text>
<text xml:space="preserve" text-anchor="middle" x="284.25" y="-52" font-family="Helvetica,sans-Serif" font-size="10.00">Helper.SpawnPotionsAsync</text>
</a>
</g>
</g>
<!-- Node1&#45;&gt;Node4 -->
<g id="edge3_Node000001_Node000004" class="edge">
<title>Node1&#45;&gt;Node4</title>
<g id="a_edge3_Node000001_Node000004"><a xlink:title=" ">
<path fill="none" stroke="#63b8ff" d="M166.99,-74.95C174.97,-74.02 183.09,-73.08 191.16,-72.15"/>
<polygon fill="#63b8ff" stroke="#63b8ff" points="191.46,-75.64 200.99,-71.01 190.65,-68.69 191.46,-75.64"/>
</a>
</g>
</g>
<!-- Node5 -->
<g id="Node000005" class="node">
<title>Node5</title>
<g id="a_Node000005"><a xlink:href="classRpgGame_1_1Generation_1_1MapSpawnHelper.html#ac87208b359d86c9afde8227cec777d39" target="_top" xlink:title="Conveniece wrapper that spawns Thorns.">
<polygon fill="white" stroke="#666666" points="365.75,-29 202.75,-29 202.75,0 365.75,0 365.75,-29"/>
<text xml:space="preserve" text-anchor="start" x="210.75" y="-15.5" font-family="Helvetica,sans-Serif" font-size="10.00">RpgGame.Generation.MapSpawn</text>
<text xml:space="preserve" text-anchor="middle" x="284.25" y="-5" font-family="Helvetica,sans-Serif" font-size="10.00">Helper.SpawnThornsAsync</text>
</a>
</g>
</g>
<!-- Node1&#45;&gt;Node5 -->
<g id="edge4_Node000001_Node000005" class="edge">
<title>Node1&#45;&gt;Node5</title>
<g id="a_edge4_Node000001_Node000005"><a xlink:title=" ">
<path fill="none" stroke="#63b8ff" d="M120.62,-69.54C143.91,-60.14 174.91,-48.04 202.75,-38.5 208.44,-36.55 214.39,-34.6 220.36,-32.71"/>
<polygon fill="#63b8ff" stroke="#63b8ff" points="221.13,-36.14 229.64,-29.83 219.06,-29.45 221.13,-36.14"/>
</a>
</g>
</g>
</g>
</svg>
