<?xml version="1.0" encoding="UTF-8" standalone="no"?>
<!DOCTYPE svg PUBLIC "-//W3C//DTD SVG 1.1//EN"
 "http://www.w3.org/Graphics/SVG/1.1/DTD/svg11.dtd">
<!-- Generated by graphviz version 13.1.2 (20250808.2320)
 -->
<!-- Title: RpgGame.Input.SelectInventoryCommand Pages: 1 -->
<svg width="158pt" height="217pt"
 viewBox="0.00 0.00 158.00 217.00" xmlns="http://www.w3.org/2000/svg" xmlns:xlink="http://www.w3.org/1999/xlink">

<svg id="main" version="1.1" xmlns="http://www.w3.org/2000/svg" xmlns:xlink="http://www.w3.org/1999/xlink" xml:space="preserve">

<style type="text/css"><![CDATA[
.node, .edge {opacity: 0.7;}
.node.selected, .edge.selected {opacity: 1;}
.edge:hover path { stroke: red; }
.edge:hover polygon { stroke: red; fill: red; }
]]></style>
<script type="application/ecmascript" xlink:href="svg.min.js"/>
<svg id="graph" class="graph">
<g id="graph0" class="graph" transform="scale(1 1) rotate(0) translate(4 212.5)">
<title>RpgGame.Input.SelectInventoryCommand</title>
<!-- Node1 -->
<g id="Node000001" class="node">
<title>Node1</title>
<g id="a_Node000001"><a xlink:title="Selects a specific inventory slot.">
<polygon fill="#999999" stroke="none" points="149,-104 0.75,-104 0.75,0 149,0 149,-104"/>
<text xml:space="preserve" text-anchor="start" x="4.75" y="-90.5" font-family="Helvetica,sans-Serif" font-size="10.00">RpgGame.Input.SelectInventory</text>
<text xml:space="preserve" text-anchor="start" x="52.38" y="-80" font-family="Helvetica,sans-Serif" font-size="10.00">Command</text>
<text xml:space="preserve" text-anchor="start" x="73.38" y="-65.5" font-family="Helvetica,sans-Serif" font-size="10.00"> </text>
<text xml:space="preserve" text-anchor="start" x="9" y="-51" font-family="Helvetica,sans-Serif" font-size="10.00">+</text>
<text xml:space="preserve" text-anchor="start" x="23.25" y="-51" font-family="Helvetica,sans-Serif" font-size="10.00">SelectInventoryCommand</text>
<text xml:space="preserve" text-anchor="start" x="23.25" y="-40.5" font-family="Helvetica,sans-Serif" font-size="10.00">(int slotIndex)</text>
<text xml:space="preserve" text-anchor="start" x="9" y="-26" font-family="Helvetica,sans-Serif" font-size="10.00">+</text>
<text xml:space="preserve" text-anchor="start" x="23.25" y="-26" font-family="Helvetica,sans-Serif" font-size="10.00">int Execute(Level level,</text>
<text xml:space="preserve" text-anchor="start" x="23.25" y="-15.5" font-family="Helvetica,sans-Serif" font-size="10.00"> Player player, Inventory</text>
<text xml:space="preserve" text-anchor="start" x="23.25" y="-5" font-family="Helvetica,sans-Serif" font-size="10.00"> inventory)</text>
<polygon fill="#666666" stroke="#666666" points="0.75,-77 0.75,-77 149,-77 149,-77 0.75,-77"/>
<polygon fill="#666666" stroke="#666666" points="0.75,-62.5 0.75,-62.5 149,-62.5 149,-62.5 0.75,-62.5"/>
<polygon fill="none" stroke="#666666" points="0.75,0 0.75,-104 149,-104 149,0 0.75,0"/>
</a>
</g>
</g>
<!-- Node2 -->
<g id="Node000002" class="node">
<title>Node2</title>
<g id="a_Node000002"><a xlink:href="interfaceRpgGame_1_1Input_1_1IInputCommand.html" target="_top" xlink:title="Represents a user input command that manipulates the game state (level, player, inventory) and return...">
<polygon fill="white" stroke="none" points="149.75,-208.5 0,-208.5 0,-140 149.75,-140 149.75,-208.5"/>
<text xml:space="preserve" text-anchor="start" x="4" y="-195" font-family="Helvetica,sans-Serif" font-size="10.00">RpgGame.Input.IInputCommand</text>
<text xml:space="preserve" text-anchor="start" x="73.38" y="-180.5" font-family="Helvetica,sans-Serif" font-size="10.00"> </text>
<text xml:space="preserve" text-anchor="start" x="10.69" y="-166" font-family="Helvetica,sans-Serif" font-size="10.00">+</text>
<text xml:space="preserve" text-anchor="start" x="27.38" y="-166" font-family="Helvetica,sans-Serif" font-size="10.00">int Execute(Level level,</text>
<text xml:space="preserve" text-anchor="start" x="27.38" y="-155.5" font-family="Helvetica,sans-Serif" font-size="10.00"> Player player, Inventory</text>
<text xml:space="preserve" text-anchor="start" x="27.38" y="-145" font-family="Helvetica,sans-Serif" font-size="10.00"> inventory)</text>
<polygon fill="#666666" stroke="#666666" points="0,-192 0,-192 149.75,-192 149.75,-192 0,-192"/>
<polygon fill="#666666" stroke="#666666" points="0,-177.5 0,-177.5 149.75,-177.5 149.75,-177.5 0,-177.5"/>
<polygon fill="none" stroke="#666666" points="0,-140 0,-208.5 149.75,-208.5 149.75,-140 0,-140"/>
</a>
</g>
</g>
<!-- Node2&#45;&gt;Node1 -->
<g id="edge1_Node000001_Node000002" class="edge">
<title>Node2&#45;&gt;Node1</title>
<g id="a_edge1_Node000001_Node000002"><a xlink:title=" ">
<path fill="none" stroke="#63b8ff" d="M74.88,-128.83C74.88,-120.63 74.88,-112.02 74.88,-103.65"/>
<polygon fill="none" stroke="#63b8ff" points="71.38,-128.56 74.88,-138.56 78.38,-128.56 71.38,-128.56"/>
</a>
</g>
</g>
</g>
</svg>
</svg>

<style type='text/css'>
<![CDATA[
[data-mouse-over-selected='false'] { opacity: 0.7; }
[data-mouse-over-selected='true']  { opacity: 1.0; }
]]>
</style>
<script type="application/ecmascript"><![CDATA[
document.addEventListener('DOMContentLoaded', (event) => {
  highlightEdges();
  highlightAdjacentNodes();
});
]]></script>
</svg>
