<?xml version="1.0" encoding="UTF-8" standalone="no"?>
<!DOCTYPE svg PUBLIC "-//W3C//DTD SVG 1.1//EN"
 "http://www.w3.org/Graphics/SVG/1.1/DTD/svg11.dtd">
<!-- Generated by graphviz version 13.1.2 (20250808.2320)
 -->
<!-- Title: RpgGame.Generation.DungeonBuilder.Add Pages: 1 -->
<svg width="359pt" height="84pt"
 viewBox="0.00 0.00 359.00 84.00" xmlns="http://www.w3.org/2000/svg" xmlns:xlink="http://www.w3.org/1999/xlink">
<g id="graph0" class="graph" transform="scale(1 1) rotate(0) translate(4 80)">
<title>RpgGame.Generation.DungeonBuilder.Add</title>
<!-- Node1 -->
<g id="Node000001" class="node">
<title>Node1</title>
<g id="a_Node000001"><a xlink:title="Adds a generation procedure to the sequence.">
<polygon fill="#999999" stroke="#666666" points="350.75,-52 197.5,-52 197.5,-23 350.75,-23 350.75,-52"/>
<text xml:space="preserve" text-anchor="start" x="205.5" y="-38.5" font-family="Helvetica,sans-Serif" font-size="10.00">RpgGame.Generation.Dungeon</text>
<text xml:space="preserve" text-anchor="middle" x="274.12" y="-28" font-family="Helvetica,sans-Serif" font-size="10.00">Builder.Add</text>
</a>
</g>
</g>
<!-- Node1&#45;&gt;Node1 -->
<g id="edge1_Node000001_Node000001" class="edge">
<title>Node1&#45;&gt;Node1</title>
<g id="a_edge1_Node000001_Node000001"><a xlink:title=" ">
<path fill="none" stroke="#63b8ff" d="M306.95,-63.56C301.8,-67.41 290.86,-70 274.12,-70 243.53,-70 232.3,-61.32 240.43,-52.21"/>
<polygon fill="#63b8ff" stroke="#63b8ff" points="310.43,-63.96 307.71,-53.72 303.45,-63.42 310.43,-63.96"/>
</a>
</g>
</g>
<!-- Node2 -->
<g id="Node000002" class="node">
<title>Node2</title>
<g id="a_Node000002"><a xlink:href="classRpgGame_1_1Generation_1_1Strategies_1_1DungeonGroundsStrategy.html#ad7a63b7c9a9ce022c954a55c1cdb1a76" target="_top" xlink:title="Creates and returns a configured dungeon builder with the strategy&#39;s procedures.">
<polygon fill="white" stroke="#666666" points="161.5,-76 0,-76 0,-47 161.5,-47 161.5,-76"/>
<text xml:space="preserve" text-anchor="start" x="8" y="-62.5" font-family="Helvetica,sans-Serif" font-size="10.00">RpgGame.Generation.Strategies.</text>
<text xml:space="preserve" text-anchor="middle" x="80.75" y="-52" font-family="Helvetica,sans-Serif" font-size="10.00">DungeonGroundsStrategy.Create</text>
</a>
</g>
</g>
<!-- Node1&#45;&gt;Node2 -->
<g id="edge2_Node000001_Node000002" class="edge">
<title>Node1&#45;&gt;Node2</title>
<g id="a_edge2_Node000001_Node000002"><a xlink:title=" ">
<path fill="none" stroke="#63b8ff" d="M185.98,-48.43C177.98,-49.43 169.9,-50.44 161.97,-51.44"/>
<polygon fill="#63b8ff" stroke="#63b8ff" points="186.23,-51.93 195.71,-47.21 185.35,-44.98 186.23,-51.93"/>
</a>
</g>
</g>
<!-- Node3 -->
<g id="Node000003" class="node">
<title>Node3</title>
<g id="a_Node000003"><a xlink:href="classRpgGame_1_1Generation_1_1Strategies_1_1DungeonSandboxStrategy.html#ab760752f5696bb3851159d4b813ef551" target="_top" xlink:title="Creates and returns a configured dungeon builder with the strategy&#39;s procedures.">
<polygon fill="white" stroke="#666666" points="161.5,-29 0,-29 0,0 161.5,0 161.5,-29"/>
<text xml:space="preserve" text-anchor="start" x="8" y="-15.5" font-family="Helvetica,sans-Serif" font-size="10.00">RpgGame.Generation.Strategies.</text>
<text xml:space="preserve" text-anchor="middle" x="80.75" y="-5" font-family="Helvetica,sans-Serif" font-size="10.00">DungeonSandboxStrategy.Create</text>
</a>
</g>
</g>
<!-- Node1&#45;&gt;Node3 -->
<g id="edge3_Node000001_Node000003" class="edge">
<title>Node1&#45;&gt;Node3</title>
<g id="a_edge3_Node000001_Node000003"><a xlink:title=" ">
<path fill="none" stroke="#63b8ff" d="M185.98,-27.03C177.98,-26.07 169.9,-25.09 161.97,-24.14"/>
<polygon fill="#63b8ff" stroke="#63b8ff" points="185.36,-30.48 195.71,-28.2 186.2,-23.53 185.36,-30.48"/>
</a>
</g>
</g>
</g>
</svg>
