<?xml version="1.0" encoding="UTF-8" standalone="no"?>
<!DOCTYPE svg PUBLIC "-//W3C//DTD SVG 1.1//EN"
 "http://www.w3.org/Graphics/SVG/1.1/DTD/svg11.dtd">
<!-- Generated by graphviz version 13.1.2 (20250808.2320)
 -->
<!-- Title: RpgGame.Generation.Strategies.DungeonGroundsStrategy Pages: 1 -->
<svg width="162pt" height="160pt"
 viewBox="0.00 0.00 162.00 160.00" xmlns="http://www.w3.org/2000/svg" xmlns:xlink="http://www.w3.org/1999/xlink">
<g id="graph0" class="graph" transform="scale(1 1) rotate(0) translate(4 156)">
<title>RpgGame.Generation.Strategies.DungeonGroundsStrategy</title>
<!-- Node1 -->
<g id="Node000001" class="node">
<title>Node1</title>
<g id="a_Node000001"><a xlink:title="A concrete dungeon generation strategy that creates a complex dungeon with rooms, corridors,...">
<polygon fill="#999999" stroke="none" points="153.5,-58 0,-58 0,0 153.5,0 153.5,-58"/>
<text xml:space="preserve" text-anchor="start" x="4" y="-44.5" font-family="Helvetica,sans-Serif" font-size="10.00">RpgGame.Generation.Strategies.</text>
<text xml:space="preserve" text-anchor="start" x="20.5" y="-34" font-family="Helvetica,sans-Serif" font-size="10.00">DungeonGroundsStrategy</text>
<text xml:space="preserve" text-anchor="start" x="75.25" y="-19.5" font-family="Helvetica,sans-Serif" font-size="10.00"> </text>
<text xml:space="preserve" text-anchor="start" x="11.06" y="-5" font-family="Helvetica,sans-Serif" font-size="10.00">+</text>
<text xml:space="preserve" text-anchor="start" x="28.12" y="-5" font-family="Helvetica,sans-Serif" font-size="10.00">DungeonBuilder Create()</text>
<polygon fill="#666666" stroke="#666666" points="0,-31 0,-31 153.5,-31 153.5,-31 0,-31"/>
<polygon fill="#666666" stroke="#666666" points="0,-16.5 0,-16.5 153.5,-16.5 153.5,-16.5 0,-16.5"/>
<polygon fill="none" stroke="#666666" points="0,0 0,-58 153.5,-58 153.5,0 0,0"/>
</a>
</g>
</g>
<!-- Node2 -->
<g id="Node000002" class="node">
<title>Node2</title>
<g id="a_Node000002"><a xlink:href="interfaceRpgGame_1_1Generation_1_1Strategies_1_1IDungeonStrategy.html" target="_top" xlink:title="Defines the contract for dungeon generation strategies.">
<polygon fill="white" stroke="none" points="153.5,-152 0,-152 0,-94 153.5,-94 153.5,-152"/>
<text xml:space="preserve" text-anchor="start" x="4" y="-138.5" font-family="Helvetica,sans-Serif" font-size="10.00">RpgGame.Generation.Strategies.</text>
<text xml:space="preserve" text-anchor="start" x="37.38" y="-128" font-family="Helvetica,sans-Serif" font-size="10.00">IDungeonStrategy</text>
<text xml:space="preserve" text-anchor="start" x="75.25" y="-113.5" font-family="Helvetica,sans-Serif" font-size="10.00"> </text>
<text xml:space="preserve" text-anchor="start" x="11.06" y="-99" font-family="Helvetica,sans-Serif" font-size="10.00">+</text>
<text xml:space="preserve" text-anchor="start" x="28.12" y="-99" font-family="Helvetica,sans-Serif" font-size="10.00">DungeonBuilder Create()</text>
<polygon fill="#666666" stroke="#666666" points="0,-125 0,-125 153.5,-125 153.5,-125 0,-125"/>
<polygon fill="#666666" stroke="#666666" points="0,-110.5 0,-110.5 153.5,-110.5 153.5,-110.5 0,-110.5"/>
<polygon fill="none" stroke="#666666" points="0,-94 0,-152 153.5,-152 153.5,-94 0,-94"/>
</a>
</g>
</g>
<!-- Node2&#45;&gt;Node1 -->
<g id="edge1_Node000001_Node000002" class="edge">
<title>Node2&#45;&gt;Node1</title>
<g id="a_edge1_Node000001_Node000002"><a xlink:title=" ">
<path fill="none" stroke="#63b8ff" d="M76.75,-83.15C76.75,-74.67 76.75,-65.86 76.75,-57.9"/>
<polygon fill="none" stroke="#63b8ff" points="73.25,-82.88 76.75,-92.88 80.25,-82.88 73.25,-82.88"/>
</a>
</g>
</g>
</g>
</svg>
