<?xml version="1.0" encoding="UTF-8" standalone="no"?>
<!DOCTYPE svg PUBLIC "-//W3C//DTD SVG 1.1//EN"
 "http://www.w3.org/Graphics/SVG/1.1/DTD/svg11.dtd">
<!-- Generated by graphviz version 13.1.2 (20250808.2320)
 -->
<!-- Title: RpgGame.Renderer.HelpEntry Pages: 1 -->
<svg width="150pt" height="81pt"
 viewBox="0.00 0.00 150.00 81.00" xmlns="http://www.w3.org/2000/svg" xmlns:xlink="http://www.w3.org/1999/xlink">
<g id="graph0" class="graph" transform="scale(1 1) rotate(0) translate(4 76.5)">
<title>RpgGame.Renderer.HelpEntry</title>
<!-- Node1 -->
<g id="Node000001" class="node">
<title>Node1</title>
<g id="a_Node000001"><a xlink:title="Represents a single entry displayed in the help popup.">
<polygon fill="#999999" stroke="none" points="142.25,-72.5 0,-72.5 0,0 142.25,0 142.25,-72.5"/>
<text xml:space="preserve" text-anchor="start" x="4" y="-59" font-family="Helvetica,sans-Serif" font-size="10.00">RpgGame.Renderer.HelpEntry</text>
<text xml:space="preserve" text-anchor="start" x="7.5" y="-44.5" font-family="Helvetica,sans-Serif" font-size="10.00">+</text>
<text xml:space="preserve" text-anchor="start" x="21" y="-44.5" font-family="Helvetica,sans-Serif" font-size="10.00">string KeyText</text>
<text xml:space="preserve" text-anchor="start" x="7.5" y="-30" font-family="Helvetica,sans-Serif" font-size="10.00">+</text>
<text xml:space="preserve" text-anchor="start" x="21" y="-30" font-family="Helvetica,sans-Serif" font-size="10.00">string Description</text>
<text xml:space="preserve" text-anchor="start" x="7.5" y="-15.5" font-family="Helvetica,sans-Serif" font-size="10.00">+</text>
<text xml:space="preserve" text-anchor="start" x="21" y="-15.5" font-family="Helvetica,sans-Serif" font-size="10.00">HelpEntry(string keyText,</text>
<text xml:space="preserve" text-anchor="start" x="21" y="-5" font-family="Helvetica,sans-Serif" font-size="10.00"> string description)</text>
<polygon fill="#666666" stroke="#666666" points="0,-56 0,-56 142.25,-56 142.25,-56 0,-56"/>
<polygon fill="#666666" stroke="#666666" points="0,-27 0,-27 19,-27 19,-27 0,-27"/>
<polygon fill="#666666" stroke="#666666" points="19,-27 19,-27 142.25,-27 142.25,-27 19,-27"/>
<polygon fill="none" stroke="#666666" points="0,0 0,-72.5 142.25,-72.5 142.25,0 0,0"/>
</a>
</g>
</g>
</g>
</svg>
