<?xml version="1.0" encoding="UTF-8" standalone="no"?>
<!DOCTYPE svg PUBLIC "-//W3C//DTD SVG 1.1//EN"
 "http://www.w3.org/Graphics/SVG/1.1/DTD/svg11.dtd">
<!-- Generated by graphviz version 13.1.2 (20250808.2320)
 -->
<!-- Title: RpgGame.Tiles.Tile Pages: 1 -->
<svg width="274pt" height="237pt"
 viewBox="0.00 0.00 274.00 237.00" xmlns="http://www.w3.org/2000/svg" xmlns:xlink="http://www.w3.org/1999/xlink">
<g id="graph0" class="graph" transform="scale(1 1) rotate(0) translate(4 232.5)">
<title>RpgGame.Tiles.Tile</title>
<!-- Node1 -->
<g id="Node000001" class="node">
<title>Node1</title>
<g id="a_Node000001"><a xlink:title="Base abstract class representing a tile in the game world.">
<polygon fill="#999999" stroke="none" points="184.62,-228.5 81.12,-228.5 81.12,-123 184.62,-123 184.62,-228.5"/>
<text xml:space="preserve" text-anchor="start" x="89" y="-215" font-family="Helvetica,sans-Serif" font-size="10.00">RpgGame.Tiles.Tile</text>
<text xml:space="preserve" text-anchor="start" x="85.12" y="-200.5" font-family="Helvetica,sans-Serif" font-size="10.00">+</text>
<text xml:space="preserve" text-anchor="start" x="95.12" y="-200.5" font-family="Helvetica,sans-Serif" font-size="10.00">List&lt; Tile &gt; PosList</text>
<text xml:space="preserve" text-anchor="start" x="85.12" y="-186" font-family="Helvetica,sans-Serif" font-size="10.00">+</text>
<text xml:space="preserve" text-anchor="start" x="95.12" y="-186" font-family="Helvetica,sans-Serif" font-size="10.00">char Symbol</text>
<text xml:space="preserve" text-anchor="start" x="85.12" y="-171.5" font-family="Helvetica,sans-Serif" font-size="10.00">+</text>
<text xml:space="preserve" text-anchor="start" x="95.12" y="-171.5" font-family="Helvetica,sans-Serif" font-size="10.00">ConsoleColor color</text>
<text xml:space="preserve" text-anchor="start" x="85.12" y="-157" font-family="Helvetica,sans-Serif" font-size="10.00">+</text>
<text xml:space="preserve" text-anchor="start" x="95.12" y="-157" font-family="Helvetica,sans-Serif" font-size="10.00">bool IsWalkable</text>
<text xml:space="preserve" text-anchor="start" x="85.12" y="-142.5" font-family="Helvetica,sans-Serif" font-size="10.00">+</text>
<text xml:space="preserve" text-anchor="start" x="95.12" y="-142.5" font-family="Helvetica,sans-Serif" font-size="10.00">bool IsOccupied</text>
<text xml:space="preserve" text-anchor="start" x="131.38" y="-128" font-family="Helvetica,sans-Serif" font-size="10.00"> </text>
<polygon fill="#666666" stroke="#666666" points="81.12,-212 81.12,-212 184.62,-212 184.62,-212 81.12,-212"/>
<polygon fill="#666666" stroke="#666666" points="81.12,-139.5 81.12,-139.5 93.12,-139.5 93.12,-139.5 81.12,-139.5"/>
<polygon fill="#666666" stroke="#666666" points="93.12,-139.5 93.12,-139.5 184.62,-139.5 184.62,-139.5 93.12,-139.5"/>
<polygon fill="none" stroke="#666666" points="81.12,-123 81.12,-228.5 184.62,-228.5 184.62,-123 81.12,-123"/>
</a>
</g>
</g>
<!-- Node2 -->
<g id="Node000002" class="node">
<title>Node2</title>
<g id="a_Node000002"><a xlink:href="classRpgGame_1_1Tiles_1_1FloorTile.html" target="_top" xlink:title="Represents a walkable floor tile where players and items can exist.">
<polygon fill="white" stroke="none" points="123.75,-87 0,-87 0,0 123.75,0 123.75,-87"/>
<text xml:space="preserve" text-anchor="start" x="7.12" y="-73.5" font-family="Helvetica,sans-Serif" font-size="10.00">RpgGame.Tiles.FloorTile</text>
<text xml:space="preserve" text-anchor="start" x="4" y="-59" font-family="Helvetica,sans-Serif" font-size="10.00">+</text>
<text xml:space="preserve" text-anchor="start" x="14" y="-59" font-family="Helvetica,sans-Serif" font-size="10.00">override char Symbol</text>
<text xml:space="preserve" text-anchor="start" x="4" y="-44.5" font-family="Helvetica,sans-Serif" font-size="10.00">+</text>
<text xml:space="preserve" text-anchor="start" x="14" y="-44.5" font-family="Helvetica,sans-Serif" font-size="10.00">override ConsoleColor</text>
<text xml:space="preserve" text-anchor="start" x="14" y="-34" font-family="Helvetica,sans-Serif" font-size="10.00"> color</text>
<text xml:space="preserve" text-anchor="start" x="4" y="-19.5" font-family="Helvetica,sans-Serif" font-size="10.00">+</text>
<text xml:space="preserve" text-anchor="start" x="14" y="-19.5" font-family="Helvetica,sans-Serif" font-size="10.00">override bool IsWalkable</text>
<text xml:space="preserve" text-anchor="start" x="60.38" y="-5" font-family="Helvetica,sans-Serif" font-size="10.00"> </text>
<polygon fill="#666666" stroke="#666666" points="0,-70.5 0,-70.5 123.75,-70.5 123.75,-70.5 0,-70.5"/>
<polygon fill="#666666" stroke="#666666" points="0,-16.5 0,-16.5 12,-16.5 12,-16.5 0,-16.5"/>
<polygon fill="#666666" stroke="#666666" points="12,-16.5 12,-16.5 123.75,-16.5 123.75,-16.5 12,-16.5"/>
<polygon fill="none" stroke="#666666" points="0,0 0,-87 123.75,-87 123.75,0 0,0"/>
</a>
</g>
</g>
<!-- Node1&#45;&gt;Node2 -->
<g id="edge1_Node000001_Node000002" class="edge">
<title>Node1&#45;&gt;Node2</title>
<g id="a_edge1_Node000001_Node000002"><a xlink:title=" ">
<path fill="none" stroke="#63b8ff" d="M99.35,-113.24C94.47,-104.3 89.54,-95.26 84.94,-86.81"/>
<polygon fill="none" stroke="#63b8ff" points="96.23,-114.84 104.09,-121.94 102.38,-111.49 96.23,-114.84"/>
</a>
</g>
</g>
<!-- Node3 -->
<g id="Node000003" class="node">
<title>Node3</title>
<g id="a_Node000003"><a xlink:href="classRpgGame_1_1Tiles_1_1WallTile.html" target="_top" xlink:title="Represents a solid wall tile that blocks player movement.">
<polygon fill="white" stroke="none" points="265.75,-87 142,-87 142,0 265.75,0 265.75,-87"/>
<text xml:space="preserve" text-anchor="start" x="150.62" y="-73.5" font-family="Helvetica,sans-Serif" font-size="10.00">RpgGame.Tiles.WallTile</text>
<text xml:space="preserve" text-anchor="start" x="146" y="-59" font-family="Helvetica,sans-Serif" font-size="10.00">+</text>
<text xml:space="preserve" text-anchor="start" x="156" y="-59" font-family="Helvetica,sans-Serif" font-size="10.00">override char Symbol</text>
<text xml:space="preserve" text-anchor="start" x="146" y="-44.5" font-family="Helvetica,sans-Serif" font-size="10.00">+</text>
<text xml:space="preserve" text-anchor="start" x="156" y="-44.5" font-family="Helvetica,sans-Serif" font-size="10.00">override ConsoleColor</text>
<text xml:space="preserve" text-anchor="start" x="156" y="-34" font-family="Helvetica,sans-Serif" font-size="10.00"> color</text>
<text xml:space="preserve" text-anchor="start" x="146" y="-19.5" font-family="Helvetica,sans-Serif" font-size="10.00">+</text>
<text xml:space="preserve" text-anchor="start" x="156" y="-19.5" font-family="Helvetica,sans-Serif" font-size="10.00">override bool IsWalkable</text>
<text xml:space="preserve" text-anchor="start" x="202.38" y="-5" font-family="Helvetica,sans-Serif" font-size="10.00"> </text>
<polygon fill="#666666" stroke="#666666" points="142,-70.5 142,-70.5 265.75,-70.5 265.75,-70.5 142,-70.5"/>
<polygon fill="#666666" stroke="#666666" points="142,-16.5 142,-16.5 154,-16.5 154,-16.5 142,-16.5"/>
<polygon fill="#666666" stroke="#666666" points="154,-16.5 154,-16.5 265.75,-16.5 265.75,-16.5 154,-16.5"/>
<polygon fill="none" stroke="#666666" points="142,0 142,-87 265.75,-87 265.75,0 142,0"/>
</a>
</g>
</g>
<!-- Node1&#45;&gt;Node3 -->
<g id="edge2_Node000001_Node000003" class="edge">
<title>Node1&#45;&gt;Node3</title>
<g id="a_edge2_Node000001_Node000003"><a xlink:title=" ">
<path fill="none" stroke="#63b8ff" d="M166.4,-113.24C171.28,-104.3 176.21,-95.26 180.81,-86.81"/>
<polygon fill="none" stroke="#63b8ff" points="163.37,-111.49 161.66,-121.94 169.52,-114.84 163.37,-111.49"/>
</a>
</g>
</g>
</g>
</svg>
