<?xml version="1.0" encoding="UTF-8" standalone="no"?>
<!DOCTYPE svg PUBLIC "-//W3C//DTD SVG 1.1//EN"
 "http://www.w3.org/Graphics/SVG/1.1/DTD/svg11.dtd">
<!-- Generated by graphviz version 13.1.2 (20250808.2320)
 -->
<!-- Title: Graphical Class Hierarchy Pages: 1 -->
<svg width="367pt" height="319pt"
 viewBox="0.00 0.00 367.00 319.00" xmlns="http://www.w3.org/2000/svg" xmlns:xlink="http://www.w3.org/1999/xlink">
<g id="graph0" class="graph" transform="scale(1 1) rotate(0) translate(4 315)">
<title>Graphical Class Hierarchy</title>
<!-- Node0 -->
<g id="Node000000" class="node">
<title>Node0</title>
<g id="a_Node000000"><a xlink:href="interfaceRpgGame_1_1Generation_1_1IDungeonProcedure.html" target="_top" xlink:title="Defines a procedural step in dungeon generation.">
<polygon fill="white" stroke="#666666" points="156.25,-170 0,-170 0,-141 156.25,-141 156.25,-170"/>
<text xml:space="preserve" text-anchor="start" x="8" y="-156.5" font-family="Helvetica,sans-Serif" font-size="10.00">RpgGame.Generation.IDungeon</text>
<text xml:space="preserve" text-anchor="middle" x="78.12" y="-146" font-family="Helvetica,sans-Serif" font-size="10.00">Procedure</text>
</a>
</g>
</g>
<!-- Node1 -->
<g id="Node000001" class="node">
<title>Node1</title>
<g id="a_Node000001"><a xlink:href="classRpgGame_1_1Generation_1_1Procedures_1_1AddItemsProcedure.html" target="_top" xlink:title="Spawns treasure items (coins and gold) at random locations in the dungeon.">
<polygon fill="white" stroke="#666666" points="359,-311 192.25,-311 192.25,-282 359,-282 359,-311"/>
<text xml:space="preserve" text-anchor="start" x="200.25" y="-297.5" font-family="Helvetica,sans-Serif" font-size="10.00">RpgGame.Generation.Procedures.</text>
<text xml:space="preserve" text-anchor="middle" x="275.62" y="-287" font-family="Helvetica,sans-Serif" font-size="10.00">AddItemsProcedure</text>
</a>
</g>
</g>
<!-- Node0&#45;&gt;Node1 -->
<g id="edge2_Node000000_Node000001" class="edge">
<title>Node0&#45;&gt;Node1</title>
<g id="a_edge2_Node000000_Node000001"><a xlink:title=" ">
<path fill="none" stroke="#63b8ff" d="M95.74,-179.33C115.65,-206.14 151.48,-249.09 192.25,-273.5 197.35,-276.55 202.86,-279.21 208.54,-281.52"/>
<polygon fill="#63b8ff" stroke="#63b8ff" points="98.74,-177.51 90.03,-171.48 93.07,-181.63 98.74,-177.51"/>
</a>
</g>
</g>
<!-- Node2 -->
<g id="Node000002" class="node">
<title>Node2</title>
<g id="a_Node000002"><a xlink:href="classRpgGame_1_1Generation_1_1Procedures_1_1AddWeaponsProcedure.html" target="_top" xlink:title="Spawns weapons (swords and double swords) at random locations in the dungeon.">
<polygon fill="white" stroke="#666666" points="359,-264 192.25,-264 192.25,-235 359,-235 359,-264"/>
<text xml:space="preserve" text-anchor="start" x="200.25" y="-250.5" font-family="Helvetica,sans-Serif" font-size="10.00">RpgGame.Generation.Procedures.</text>
<text xml:space="preserve" text-anchor="middle" x="275.62" y="-240" font-family="Helvetica,sans-Serif" font-size="10.00">AddWeaponsProcedure</text>
</a>
</g>
</g>
<!-- Node0&#45;&gt;Node2 -->
<g id="edge3_Node000000_Node000002" class="edge">
<title>Node0&#45;&gt;Node2</title>
<g id="a_edge3_Node000000_Node000002"><a xlink:title=" ">
<path fill="none" stroke="#63b8ff" d="M108.13,-177C130.24,-192.55 161.95,-213.1 192.25,-226.5 199.04,-229.5 206.32,-232.21 213.64,-234.62"/>
<polygon fill="#63b8ff" stroke="#63b8ff" points="110.38,-174.3 100.21,-171.34 106.31,-180 110.38,-174.3"/>
</a>
</g>
</g>
<!-- Node3 -->
<g id="Node000003" class="node">
<title>Node3</title>
<g id="a_Node000003"><a xlink:href="classRpgGame_1_1Generation_1_1Procedures_1_1CentralRoomProcedure.html" target="_top" xlink:title="Generates a central room in the dungeon.">
<polygon fill="white" stroke="#666666" points="359,-217 192.25,-217 192.25,-188 359,-188 359,-217"/>
<text xml:space="preserve" text-anchor="start" x="200.25" y="-203.5" font-family="Helvetica,sans-Serif" font-size="10.00">RpgGame.Generation.Procedures.</text>
<text xml:space="preserve" text-anchor="middle" x="275.62" y="-193" font-family="Helvetica,sans-Serif" font-size="10.00">CentralRoomProcedure</text>
</a>
</g>
</g>
<!-- Node0&#45;&gt;Node3 -->
<g id="edge4_Node000000_Node000003" class="edge">
<title>Node0&#45;&gt;Node3</title>
<g id="a_edge4_Node000000_Node000003"><a xlink:title=" ">
<path fill="none" stroke="#63b8ff" d="M152.36,-173.11C172.09,-177.85 193.25,-182.94 212.33,-187.52"/>
<polygon fill="#63b8ff" stroke="#63b8ff" points="153.26,-169.72 142.72,-170.79 151.63,-176.53 153.26,-169.72"/>
</a>
</g>
</g>
<!-- Node4 -->
<g id="Node000004" class="node">
<title>Node4</title>
<g id="a_Node000004"><a xlink:href="classRpgGame_1_1Generation_1_1Procedures_1_1ChambersProcedure.html" target="_top" xlink:title="Generates multiple random chamber rooms in the dungeon.">
<polygon fill="white" stroke="#666666" points="359,-170 192.25,-170 192.25,-141 359,-141 359,-170"/>
<text xml:space="preserve" text-anchor="start" x="200.25" y="-156.5" font-family="Helvetica,sans-Serif" font-size="10.00">RpgGame.Generation.Procedures.</text>
<text xml:space="preserve" text-anchor="middle" x="275.62" y="-146" font-family="Helvetica,sans-Serif" font-size="10.00">ChambersProcedure</text>
</a>
</g>
</g>
<!-- Node0&#45;&gt;Node4 -->
<g id="edge5_Node000000_Node000004" class="edge">
<title>Node0&#45;&gt;Node4</title>
<g id="a_edge5_Node000000_Node000004"><a xlink:title=" ">
<path fill="none" stroke="#63b8ff" d="M167.94,-155.5C175.96,-155.5 184.07,-155.5 192.03,-155.5"/>
<polygon fill="#63b8ff" stroke="#63b8ff" points="168.19,-152 158.19,-155.5 168.19,-159 168.19,-152"/>
</a>
</g>
</g>
<!-- Node5 -->
<g id="Node000005" class="node">
<title>Node5</title>
<g id="a_Node000005"><a xlink:href="classRpgGame_1_1Generation_1_1Procedures_1_1EmptyDungeonProcedure.html" target="_top" xlink:title="Fills the entire dungeon with floor tiles, creating an empty open space.">
<polygon fill="white" stroke="#666666" points="359,-123 192.25,-123 192.25,-94 359,-94 359,-123"/>
<text xml:space="preserve" text-anchor="start" x="200.25" y="-109.5" font-family="Helvetica,sans-Serif" font-size="10.00">RpgGame.Generation.Procedures.</text>
<text xml:space="preserve" text-anchor="middle" x="275.62" y="-99" font-family="Helvetica,sans-Serif" font-size="10.00">EmptyDungeonProcedure</text>
</a>
</g>
</g>
<!-- Node0&#45;&gt;Node5 -->
<g id="edge6_Node000000_Node000005" class="edge">
<title>Node0&#45;&gt;Node5</title>
<g id="a_edge6_Node000000_Node000005"><a xlink:title=" ">
<path fill="none" stroke="#63b8ff" d="M152.36,-137.89C172.09,-133.15 193.25,-128.06 212.33,-123.48"/>
<polygon fill="#63b8ff" stroke="#63b8ff" points="151.63,-134.47 142.72,-140.21 153.26,-141.28 151.63,-134.47"/>
</a>
</g>
</g>
<!-- Node6 -->
<g id="Node000006" class="node">
<title>Node6</title>
<g id="a_Node000006"><a xlink:href="classRpgGame_1_1Generation_1_1Procedures_1_1FilledDungeonProcedure.html" target="_top" xlink:title="Fills the entire dungeon with wall tiles, creating a solid base for carving.">
<polygon fill="white" stroke="#666666" points="359,-76 192.25,-76 192.25,-47 359,-47 359,-76"/>
<text xml:space="preserve" text-anchor="start" x="200.25" y="-62.5" font-family="Helvetica,sans-Serif" font-size="10.00">RpgGame.Generation.Procedures.</text>
<text xml:space="preserve" text-anchor="middle" x="275.62" y="-52" font-family="Helvetica,sans-Serif" font-size="10.00">FilledDungeonProcedure</text>
</a>
</g>
</g>
<!-- Node0&#45;&gt;Node6 -->
<g id="edge7_Node000000_Node000006" class="edge">
<title>Node0&#45;&gt;Node6</title>
<g id="a_edge7_Node000000_Node000006"><a xlink:title=" ">
<path fill="none" stroke="#63b8ff" d="M108.63,-134.15C130.76,-118.91 162.29,-98.84 192.25,-85.5 199.73,-82.17 207.81,-79.16 215.87,-76.49"/>
<polygon fill="#63b8ff" stroke="#63b8ff" points="106.88,-131.1 100.69,-139.69 110.89,-136.84 106.88,-131.1"/>
</a>
</g>
</g>
<!-- Node7 -->
<g id="Node000007" class="node">
<title>Node7</title>
<g id="a_Node000007"><a xlink:href="classRpgGame_1_1Generation_1_1Procedures_1_1PathsProcedure.html" target="_top" xlink:title="Generates corridors connecting all rooms to a central room.">
<polygon fill="white" stroke="#666666" points="359,-29 192.25,-29 192.25,0 359,0 359,-29"/>
<text xml:space="preserve" text-anchor="start" x="200.25" y="-15.5" font-family="Helvetica,sans-Serif" font-size="10.00">RpgGame.Generation.Procedures.</text>
<text xml:space="preserve" text-anchor="middle" x="275.62" y="-5" font-family="Helvetica,sans-Serif" font-size="10.00">PathsProcedure</text>
</a>
</g>
</g>
<!-- Node0&#45;&gt;Node7 -->
<g id="edge8_Node000000_Node000007" class="edge">
<title>Node0&#45;&gt;Node7</title>
<g id="a_edge8_Node000000_Node000007"><a xlink:title=" ">
<path fill="none" stroke="#63b8ff" d="M96.15,-131.53C116.21,-105.01 151.96,-62.81 192.25,-38.5 197.99,-35.04 204.26,-32.05 210.69,-29.48"/>
<polygon fill="#63b8ff" stroke="#63b8ff" points="93.53,-129.19 90.39,-139.31 99.15,-133.36 93.53,-129.19"/>
</a>
</g>
</g>
</g>
</svg>
