<?xml version="1.0" encoding="UTF-8" standalone="no"?>
<!DOCTYPE svg PUBLIC "-//W3C//DTD SVG 1.1//EN"
 "http://www.w3.org/Graphics/SVG/1.1/DTD/svg11.dtd">
<!-- Generated by graphviz version 13.1.2 (20250808.2320)
 -->
<!-- Title: RpgGame.Input.IInputCommand Pages: 1 -->
<svg width="1754pt" height="192pt"
 viewBox="0.00 0.00 1754.00 192.00" xmlns="http://www.w3.org/2000/svg" xmlns:xlink="http://www.w3.org/1999/xlink">
<g id="graph0" class="graph" transform="scale(1 1) rotate(0) translate(4 187.5)">
<title>RpgGame.Input.IInputCommand</title>
<!-- Node1 -->
<g id="Node000001" class="node">
<title>Node1</title>
<g id="a_Node000001"><a xlink:title="Represents a user input command that manipulates the game state (level, player, inventory) and return...">
<polygon fill="#999999" stroke="none" points="920.12,-183.5 770.38,-183.5 770.38,-115 920.12,-115 920.12,-183.5"/>
<text xml:space="preserve" text-anchor="start" x="774.38" y="-170" font-family="Helvetica,sans-Serif" font-size="10.00">RpgGame.Input.IInputCommand</text>
<text xml:space="preserve" text-anchor="start" x="843.75" y="-155.5" font-family="Helvetica,sans-Serif" font-size="10.00"> </text>
<text xml:space="preserve" text-anchor="start" x="781.06" y="-141" font-family="Helvetica,sans-Serif" font-size="10.00">+</text>
<text xml:space="preserve" text-anchor="start" x="797.75" y="-141" font-family="Helvetica,sans-Serif" font-size="10.00">int Execute(Level level,</text>
<text xml:space="preserve" text-anchor="start" x="797.75" y="-130.5" font-family="Helvetica,sans-Serif" font-size="10.00"> Player player, Inventory</text>
<text xml:space="preserve" text-anchor="start" x="797.75" y="-120" font-family="Helvetica,sans-Serif" font-size="10.00"> inventory)</text>
<polygon fill="#666666" stroke="#666666" points="770.38,-167 770.38,-167 920.12,-167 920.12,-167 770.38,-167"/>
<polygon fill="#666666" stroke="#666666" points="770.38,-152.5 770.38,-152.5 920.12,-152.5 920.12,-152.5 770.38,-152.5"/>
<polygon fill="none" stroke="#666666" points="770.38,-115 770.38,-183.5 920.12,-183.5 920.12,-115 770.38,-115"/>
</a>
</g>
</g>
<!-- Node2 -->
<g id="Node000002" class="node">
<title>Node2</title>
<g id="a_Node000002"><a xlink:href="classRpgGame_1_1Input_1_1DropLeftCommand.html" target="_top" xlink:title="Instructs the player to drop the item in their left hand onto the level.">
<polygon fill="white" stroke="none" points="162.5,-73.75 0,-73.75 0,-5.25 162.5,-5.25 162.5,-73.75"/>
<text xml:space="preserve" text-anchor="start" x="4" y="-60.25" font-family="Helvetica,sans-Serif" font-size="10.00">RpgGame.Input.DropLeftCommand</text>
<text xml:space="preserve" text-anchor="start" x="79.75" y="-45.75" font-family="Helvetica,sans-Serif" font-size="10.00"> </text>
<text xml:space="preserve" text-anchor="start" x="13.88" y="-31.25" font-family="Helvetica,sans-Serif" font-size="10.00">+</text>
<text xml:space="preserve" text-anchor="start" x="33.75" y="-31.25" font-family="Helvetica,sans-Serif" font-size="10.00">int Execute(Level level,</text>
<text xml:space="preserve" text-anchor="start" x="33.75" y="-20.75" font-family="Helvetica,sans-Serif" font-size="10.00"> Player player, Inventory</text>
<text xml:space="preserve" text-anchor="start" x="33.75" y="-10.25" font-family="Helvetica,sans-Serif" font-size="10.00"> inventory)</text>
<polygon fill="#666666" stroke="#666666" points="0,-57.25 0,-57.25 162.5,-57.25 162.5,-57.25 0,-57.25"/>
<polygon fill="#666666" stroke="#666666" points="0,-42.75 0,-42.75 162.5,-42.75 162.5,-42.75 0,-42.75"/>
<polygon fill="none" stroke="#666666" points="0,-5.25 0,-73.75 162.5,-73.75 162.5,-5.25 0,-5.25"/>
</a>
</g>
</g>
<!-- Node1&#45;&gt;Node2 -->
<g id="edge1_Node000001_Node000002" class="edge">
<title>Node1&#45;&gt;Node2</title>
<g id="a_edge1_Node000001_Node000002"><a xlink:title=" ">
<path fill="none" stroke="#63b8ff" d="M759.01,-147.65C629.39,-144.9 377.55,-132.4 171.25,-79 165.49,-77.51 159.63,-75.71 153.79,-73.71"/>
<polygon fill="none" stroke="#63b8ff" points="758.83,-151.14 768.89,-147.84 758.96,-144.15 758.83,-151.14"/>
</a>
</g>
</g>
<!-- Node3 -->
<g id="Node000003" class="node">
<title>Node3</title>
<g id="a_Node000003"><a xlink:href="classRpgGame_1_1Input_1_1DropRightCommand.html" target="_top" xlink:title="Instructs the player to drop the item in their right hand onto the level.">
<polygon fill="white" stroke="none" points="349.88,-73.75 180.62,-73.75 180.62,-5.25 349.88,-5.25 349.88,-73.75"/>
<text xml:space="preserve" text-anchor="start" x="184.62" y="-60.25" font-family="Helvetica,sans-Serif" font-size="10.00">RpgGame.Input.DropRightCommand</text>
<text xml:space="preserve" text-anchor="start" x="263.75" y="-45.75" font-family="Helvetica,sans-Serif" font-size="10.00"> </text>
<text xml:space="preserve" text-anchor="start" x="196.19" y="-31.25" font-family="Helvetica,sans-Serif" font-size="10.00">+</text>
<text xml:space="preserve" text-anchor="start" x="217.75" y="-31.25" font-family="Helvetica,sans-Serif" font-size="10.00">int Execute(Level level,</text>
<text xml:space="preserve" text-anchor="start" x="217.75" y="-20.75" font-family="Helvetica,sans-Serif" font-size="10.00"> Player player, Inventory</text>
<text xml:space="preserve" text-anchor="start" x="217.75" y="-10.25" font-family="Helvetica,sans-Serif" font-size="10.00"> inventory)</text>
<polygon fill="#666666" stroke="#666666" points="180.62,-57.25 180.62,-57.25 349.88,-57.25 349.88,-57.25 180.62,-57.25"/>
<polygon fill="#666666" stroke="#666666" points="180.62,-42.75 180.62,-42.75 349.88,-42.75 349.88,-42.75 180.62,-42.75"/>
<polygon fill="none" stroke="#666666" points="180.62,-5.25 180.62,-73.75 349.88,-73.75 349.88,-5.25 180.62,-5.25"/>
</a>
</g>
</g>
<!-- Node1&#45;&gt;Node3 -->
<g id="edge2_Node000001_Node000003" class="edge">
<title>Node1&#45;&gt;Node3</title>
<g id="a_edge2_Node000001_Node000003"><a xlink:title=" ">
<path fill="none" stroke="#63b8ff" d="M759.28,-142.58C660.93,-134.6 495.73,-116.59 358.25,-79 352.6,-77.46 346.84,-75.66 341.09,-73.7"/>
<polygon fill="none" stroke="#63b8ff" points="758.89,-146.06 769.14,-143.36 759.45,-139.08 758.89,-146.06"/>
</a>
</g>
</g>
<!-- Node4 -->
<g id="Node000004" class="node">
<title>Node4</title>
<g id="a_Node000004"><a xlink:href="classRpgGame_1_1Input_1_1InventoryToLeftHandCommand.html" target="_top" xlink:title="Transfers the currently selected inventory item to the player&#39;s left hand.">
<polygon fill="white" stroke="none" points="498.75,-79 367.75,-79 367.75,0 498.75,0 498.75,-79"/>
<text xml:space="preserve" text-anchor="start" x="371.75" y="-65.5" font-family="Helvetica,sans-Serif" font-size="10.00">RpgGame.Input.InventoryTo</text>
<text xml:space="preserve" text-anchor="start" x="390.88" y="-55" font-family="Helvetica,sans-Serif" font-size="10.00">LeftHandCommand</text>
<text xml:space="preserve" text-anchor="start" x="431.75" y="-40.5" font-family="Helvetica,sans-Serif" font-size="10.00"> </text>
<text xml:space="preserve" text-anchor="start" x="373.75" y="-26" font-family="Helvetica,sans-Serif" font-size="10.00">+</text>
<text xml:space="preserve" text-anchor="start" x="385.75" y="-26" font-family="Helvetica,sans-Serif" font-size="10.00">int Execute(Level level,</text>
<text xml:space="preserve" text-anchor="start" x="385.75" y="-15.5" font-family="Helvetica,sans-Serif" font-size="10.00"> Player player, Inventory</text>
<text xml:space="preserve" text-anchor="start" x="385.75" y="-5" font-family="Helvetica,sans-Serif" font-size="10.00"> inventory)</text>
<polygon fill="#666666" stroke="#666666" points="367.75,-52 367.75,-52 498.75,-52 498.75,-52 367.75,-52"/>
<polygon fill="#666666" stroke="#666666" points="367.75,-37.5 367.75,-37.5 498.75,-37.5 498.75,-37.5 367.75,-37.5"/>
<polygon fill="none" stroke="#666666" points="367.75,0 367.75,-79 498.75,-79 498.75,0 367.75,0"/>
</a>
</g>
</g>
<!-- Node1&#45;&gt;Node4 -->
<g id="edge3_Node000001_Node000004" class="edge">
<title>Node1&#45;&gt;Node4</title>
<g id="a_edge3_Node000001_Node000004"><a xlink:title=" ">
<path fill="none" stroke="#63b8ff" d="M759.16,-137.35C689.77,-126.98 590.4,-108.5 507.25,-79 504.38,-77.98 501.49,-76.87 498.59,-75.69"/>
<polygon fill="none" stroke="#63b8ff" points="758.56,-140.8 768.96,-138.79 759.58,-133.88 758.56,-140.8"/>
</a>
</g>
</g>
<!-- Node5 -->
<g id="Node000005" class="node">
<title>Node5</title>
<g id="a_Node000005"><a xlink:href="classRpgGame_1_1Input_1_1InventoryToRightHandCommand.html" target="_top" xlink:title="Transfers the currently selected inventory item to the player&#39;s right hand.">
<polygon fill="white" stroke="none" points="647.75,-79 516.75,-79 516.75,0 647.75,0 647.75,-79"/>
<text xml:space="preserve" text-anchor="start" x="520.75" y="-65.5" font-family="Helvetica,sans-Serif" font-size="10.00">RpgGame.Input.InventoryTo</text>
<text xml:space="preserve" text-anchor="start" x="536.5" y="-55" font-family="Helvetica,sans-Serif" font-size="10.00">RightHandCommand</text>
<text xml:space="preserve" text-anchor="start" x="580.75" y="-40.5" font-family="Helvetica,sans-Serif" font-size="10.00"> </text>
<text xml:space="preserve" text-anchor="start" x="522.75" y="-26" font-family="Helvetica,sans-Serif" font-size="10.00">+</text>
<text xml:space="preserve" text-anchor="start" x="534.75" y="-26" font-family="Helvetica,sans-Serif" font-size="10.00">int Execute(Level level,</text>
<text xml:space="preserve" text-anchor="start" x="534.75" y="-15.5" font-family="Helvetica,sans-Serif" font-size="10.00"> Player player, Inventory</text>
<text xml:space="preserve" text-anchor="start" x="534.75" y="-5" font-family="Helvetica,sans-Serif" font-size="10.00"> inventory)</text>
<polygon fill="#666666" stroke="#666666" points="516.75,-52 516.75,-52 647.75,-52 647.75,-52 516.75,-52"/>
<polygon fill="#666666" stroke="#666666" points="516.75,-37.5 516.75,-37.5 647.75,-37.5 647.75,-37.5 516.75,-37.5"/>
<polygon fill="none" stroke="#666666" points="516.75,0 516.75,-79 647.75,-79 647.75,0 516.75,0"/>
</a>
</g>
</g>
<!-- Node1&#45;&gt;Node5 -->
<g id="edge4_Node000001_Node000005" class="edge">
<title>Node1&#45;&gt;Node5</title>
<g id="a_edge4_Node000001_Node000005"><a xlink:title=" ">
<path fill="none" stroke="#63b8ff" d="M760.28,-119.74C727.41,-108.03 689.72,-93.76 656.25,-79 653.34,-77.71 650.37,-76.36 647.4,-74.97"/>
<polygon fill="none" stroke="#63b8ff" points="758.75,-122.91 769.35,-122.95 761.09,-116.31 758.75,-122.91"/>
</a>
</g>
</g>
<!-- Node6 -->
<g id="Node000006" class="node">
<title>Node6</title>
<g id="a_Node000006"><a xlink:href="classRpgGame_1_1Input_1_1MoveDownCommand.html" target="_top" xlink:title="Moves the player one tile down (south) on the level.">
<polygon fill="white" stroke="none" points="839.12,-73.75 665.38,-73.75 665.38,-5.25 839.12,-5.25 839.12,-73.75"/>
<text xml:space="preserve" text-anchor="start" x="669.38" y="-60.25" font-family="Helvetica,sans-Serif" font-size="10.00">RpgGame.Input.MoveDownCommand</text>
<text xml:space="preserve" text-anchor="start" x="750.75" y="-45.75" font-family="Helvetica,sans-Serif" font-size="10.00"> </text>
<text xml:space="preserve" text-anchor="start" x="682.06" y="-31.25" font-family="Helvetica,sans-Serif" font-size="10.00">+</text>
<text xml:space="preserve" text-anchor="start" x="704.75" y="-31.25" font-family="Helvetica,sans-Serif" font-size="10.00">int Execute(Level level,</text>
<text xml:space="preserve" text-anchor="start" x="704.75" y="-20.75" font-family="Helvetica,sans-Serif" font-size="10.00"> Player player, Inventory</text>
<text xml:space="preserve" text-anchor="start" x="704.75" y="-10.25" font-family="Helvetica,sans-Serif" font-size="10.00"> inventory)</text>
<polygon fill="#666666" stroke="#666666" points="665.38,-57.25 665.38,-57.25 839.12,-57.25 839.12,-57.25 665.38,-57.25"/>
<polygon fill="#666666" stroke="#666666" points="665.38,-42.75 665.38,-42.75 839.12,-42.75 839.12,-42.75 665.38,-42.75"/>
<polygon fill="none" stroke="#666666" points="665.38,-5.25 665.38,-73.75 839.12,-73.75 839.12,-5.25 665.38,-5.25"/>
</a>
</g>
</g>
<!-- Node1&#45;&gt;Node6 -->
<g id="edge5_Node000001_Node000006" class="edge">
<title>Node1&#45;&gt;Node6</title>
<g id="a_edge5_Node000001_Node000006"><a xlink:title=" ">
<path fill="none" stroke="#63b8ff" d="M809.17,-106.44C799.71,-95.49 789.65,-83.83 780.66,-73.41"/>
<polygon fill="none" stroke="#63b8ff" points="806.42,-108.61 815.6,-113.9 811.71,-104.04 806.42,-108.61"/>
</a>
</g>
</g>
<!-- Node7 -->
<g id="Node000007" class="node">
<title>Node7</title>
<g id="a_Node000007"><a xlink:href="classRpgGame_1_1Input_1_1MoveLeftCommand.html" target="_top" xlink:title="Moves the player one tile left (west) on the level.">
<polygon fill="white" stroke="none" points="1021.62,-73.75 856.88,-73.75 856.88,-5.25 1021.62,-5.25 1021.62,-73.75"/>
<text xml:space="preserve" text-anchor="start" x="860.88" y="-60.25" font-family="Helvetica,sans-Serif" font-size="10.00">RpgGame.Input.MoveLeftCommand</text>
<text xml:space="preserve" text-anchor="start" x="937.75" y="-45.75" font-family="Helvetica,sans-Serif" font-size="10.00"> </text>
<text xml:space="preserve" text-anchor="start" x="871.31" y="-31.25" font-family="Helvetica,sans-Serif" font-size="10.00">+</text>
<text xml:space="preserve" text-anchor="start" x="891.75" y="-31.25" font-family="Helvetica,sans-Serif" font-size="10.00">int Execute(Level level,</text>
<text xml:space="preserve" text-anchor="start" x="891.75" y="-20.75" font-family="Helvetica,sans-Serif" font-size="10.00"> Player player, Inventory</text>
<text xml:space="preserve" text-anchor="start" x="891.75" y="-10.25" font-family="Helvetica,sans-Serif" font-size="10.00"> inventory)</text>
<polygon fill="#666666" stroke="#666666" points="856.88,-57.25 856.88,-57.25 1021.62,-57.25 1021.62,-57.25 856.88,-57.25"/>
<polygon fill="#666666" stroke="#666666" points="856.88,-42.75 856.88,-42.75 1021.62,-42.75 1021.62,-42.75 856.88,-42.75"/>
<polygon fill="none" stroke="#666666" points="856.88,-5.25 856.88,-73.75 1021.62,-73.75 1021.62,-5.25 856.88,-5.25"/>
</a>
</g>
</g>
<!-- Node1&#45;&gt;Node7 -->
<g id="edge6_Node000001_Node000007" class="edge">
<title>Node1&#45;&gt;Node7</title>
<g id="a_edge6_Node000001_Node000007"><a xlink:title=" ">
<path fill="none" stroke="#63b8ff" d="M881.72,-106.44C891.28,-95.49 901.45,-83.83 910.54,-73.41"/>
<polygon fill="none" stroke="#63b8ff" points="879.15,-104.07 875.22,-113.9 884.43,-108.67 879.15,-104.07"/>
</a>
</g>
</g>
<!-- Node8 -->
<g id="Node000008" class="node">
<title>Node8</title>
<g id="a_Node000008"><a xlink:href="classRpgGame_1_1Input_1_1MoveRightCommand.html" target="_top" xlink:title="Moves the player one tile right (east) on the level.">
<polygon fill="white" stroke="none" points="1211,-73.75 1039.5,-73.75 1039.5,-5.25 1211,-5.25 1211,-73.75"/>
<text xml:space="preserve" text-anchor="start" x="1043.5" y="-60.25" font-family="Helvetica,sans-Serif" font-size="10.00">RpgGame.Input.MoveRightCommand</text>
<text xml:space="preserve" text-anchor="start" x="1123.75" y="-45.75" font-family="Helvetica,sans-Serif" font-size="10.00"> </text>
<text xml:space="preserve" text-anchor="start" x="1055.62" y="-31.25" font-family="Helvetica,sans-Serif" font-size="10.00">+</text>
<text xml:space="preserve" text-anchor="start" x="1077.75" y="-31.25" font-family="Helvetica,sans-Serif" font-size="10.00">int Execute(Level level,</text>
<text xml:space="preserve" text-anchor="start" x="1077.75" y="-20.75" font-family="Helvetica,sans-Serif" font-size="10.00"> Player player, Inventory</text>
<text xml:space="preserve" text-anchor="start" x="1077.75" y="-10.25" font-family="Helvetica,sans-Serif" font-size="10.00"> inventory)</text>
<polygon fill="#666666" stroke="#666666" points="1039.5,-57.25 1039.5,-57.25 1211,-57.25 1211,-57.25 1039.5,-57.25"/>
<polygon fill="#666666" stroke="#666666" points="1039.5,-42.75 1039.5,-42.75 1211,-42.75 1211,-42.75 1039.5,-42.75"/>
<polygon fill="none" stroke="#666666" points="1039.5,-5.25 1039.5,-73.75 1211,-73.75 1211,-5.25 1039.5,-5.25"/>
</a>
</g>
</g>
<!-- Node1&#45;&gt;Node8 -->
<g id="edge7_Node000001_Node000008" class="edge">
<title>Node1&#45;&gt;Node8</title>
<g id="a_edge7_Node000001_Node000008"><a xlink:title=" ">
<path fill="none" stroke="#63b8ff" d="M930.19,-117C961.69,-105.27 997.67,-91.7 1030.25,-79 1034.64,-77.29 1039.15,-75.52 1043.69,-73.72"/>
<polygon fill="none" stroke="#63b8ff" points="929.26,-113.61 921.11,-120.38 931.7,-120.17 929.26,-113.61"/>
</a>
</g>
</g>
<!-- Node9 -->
<g id="Node000009" class="node">
<title>Node9</title>
<g id="a_Node000009"><a xlink:href="classRpgGame_1_1Input_1_1MoveUpCommand.html" target="_top" xlink:title="Moves the player one tile up (north) on the level.">
<polygon fill="white" stroke="none" points="1389.75,-73.75 1228.75,-73.75 1228.75,-5.25 1389.75,-5.25 1389.75,-73.75"/>
<text xml:space="preserve" text-anchor="start" x="1232.75" y="-60.25" font-family="Helvetica,sans-Serif" font-size="10.00">RpgGame.Input.MoveUpCommand</text>
<text xml:space="preserve" text-anchor="start" x="1307.75" y="-45.75" font-family="Helvetica,sans-Serif" font-size="10.00"> </text>
<text xml:space="preserve" text-anchor="start" x="1242.25" y="-31.25" font-family="Helvetica,sans-Serif" font-size="10.00">+</text>
<text xml:space="preserve" text-anchor="start" x="1261.75" y="-31.25" font-family="Helvetica,sans-Serif" font-size="10.00">int Execute(Level level,</text>
<text xml:space="preserve" text-anchor="start" x="1261.75" y="-20.75" font-family="Helvetica,sans-Serif" font-size="10.00"> Player player, Inventory</text>
<text xml:space="preserve" text-anchor="start" x="1261.75" y="-10.25" font-family="Helvetica,sans-Serif" font-size="10.00"> inventory)</text>
<polygon fill="#666666" stroke="#666666" points="1228.75,-57.25 1228.75,-57.25 1389.75,-57.25 1389.75,-57.25 1228.75,-57.25"/>
<polygon fill="#666666" stroke="#666666" points="1228.75,-42.75 1228.75,-42.75 1389.75,-42.75 1389.75,-42.75 1228.75,-42.75"/>
<polygon fill="none" stroke="#666666" points="1228.75,-5.25 1228.75,-73.75 1389.75,-73.75 1389.75,-5.25 1228.75,-5.25"/>
</a>
</g>
</g>
<!-- Node1&#45;&gt;Node9 -->
<g id="edge8_Node000001_Node000009" class="edge">
<title>Node1&#45;&gt;Node9</title>
<g id="a_edge8_Node000001_Node000009"><a xlink:title=" ">
<path fill="none" stroke="#63b8ff" d="M931.13,-138.01C1008,-127.52 1123.21,-108.53 1220.25,-79 1225.4,-77.43 1230.66,-75.65 1235.91,-73.74"/>
<polygon fill="none" stroke="#63b8ff" points="931.02,-134.49 921.58,-139.29 931.95,-141.43 931.02,-134.49"/>
</a>
</g>
</g>
<!-- Node10 -->
<g id="Node000010" class="node">
<title>Node10</title>
<g id="a_Node000010"><a xlink:href="classRpgGame_1_1Input_1_1QuitGameCommand.html" target="_top" xlink:title="Command that causes the game loop to exit.">
<polygon fill="white" stroke="none" points="1576.88,-73.75 1407.62,-73.75 1407.62,-5.25 1576.88,-5.25 1576.88,-73.75"/>
<text xml:space="preserve" text-anchor="start" x="1411.62" y="-60.25" font-family="Helvetica,sans-Serif" font-size="10.00">RpgGame.Input.QuitGameCommand</text>
<text xml:space="preserve" text-anchor="start" x="1490.75" y="-45.75" font-family="Helvetica,sans-Serif" font-size="10.00"> </text>
<text xml:space="preserve" text-anchor="start" x="1423.19" y="-31.25" font-family="Helvetica,sans-Serif" font-size="10.00">+</text>
<text xml:space="preserve" text-anchor="start" x="1444.75" y="-31.25" font-family="Helvetica,sans-Serif" font-size="10.00">int Execute(Level level,</text>
<text xml:space="preserve" text-anchor="start" x="1444.75" y="-20.75" font-family="Helvetica,sans-Serif" font-size="10.00"> Player player, Inventory</text>
<text xml:space="preserve" text-anchor="start" x="1444.75" y="-10.25" font-family="Helvetica,sans-Serif" font-size="10.00"> inventory)</text>
<polygon fill="#666666" stroke="#666666" points="1407.62,-57.25 1407.62,-57.25 1576.88,-57.25 1576.88,-57.25 1407.62,-57.25"/>
<polygon fill="#666666" stroke="#666666" points="1407.62,-42.75 1407.62,-42.75 1576.88,-42.75 1576.88,-42.75 1407.62,-42.75"/>
<polygon fill="none" stroke="#666666" points="1407.62,-5.25 1407.62,-73.75 1576.88,-73.75 1576.88,-5.25 1407.62,-5.25"/>
</a>
</g>
</g>
<!-- Node1&#45;&gt;Node10 -->
<g id="edge9_Node000001_Node000010" class="edge">
<title>Node1&#45;&gt;Node10</title>
<g id="a_edge9_Node000001_Node000010"><a xlink:title=" ">
<path fill="none" stroke="#63b8ff" d="M931.29,-144.63C1041.39,-138.39 1237.24,-121.82 1399.25,-79 1404.99,-77.48 1410.85,-75.69 1416.69,-73.72"/>
<polygon fill="none" stroke="#63b8ff" points="931.24,-141.13 921.44,-145.18 931.62,-148.12 931.24,-141.13"/>
</a>
</g>
</g>
<!-- Node11 -->
<g id="Node000011" class="node">
<title>Node11</title>
<g id="a_Node000011"><a xlink:href="classRpgGame_1_1Input_1_1TakeToInventoryCommand.html" target="_top" xlink:title="Picks up the item resting on the player&#39;s current tile and places it into the inventory if possible.">
<polygon fill="white" stroke="none" points="1745.88,-79 1594.62,-79 1594.62,0 1745.88,0 1745.88,-79"/>
<text xml:space="preserve" text-anchor="start" x="1598.62" y="-65.5" font-family="Helvetica,sans-Serif" font-size="10.00">RpgGame.Input.TakeToInventory</text>
<text xml:space="preserve" text-anchor="start" x="1647.75" y="-55" font-family="Helvetica,sans-Serif" font-size="10.00">Command</text>
<text xml:space="preserve" text-anchor="start" x="1668.75" y="-40.5" font-family="Helvetica,sans-Serif" font-size="10.00"> </text>
<text xml:space="preserve" text-anchor="start" x="1605.69" y="-26" font-family="Helvetica,sans-Serif" font-size="10.00">+</text>
<text xml:space="preserve" text-anchor="start" x="1622.75" y="-26" font-family="Helvetica,sans-Serif" font-size="10.00">int Execute(Level level,</text>
<text xml:space="preserve" text-anchor="start" x="1622.75" y="-15.5" font-family="Helvetica,sans-Serif" font-size="10.00"> Player player, Inventory</text>
<text xml:space="preserve" text-anchor="start" x="1622.75" y="-5" font-family="Helvetica,sans-Serif" font-size="10.00"> inventory)</text>
<polygon fill="#666666" stroke="#666666" points="1594.62,-52 1594.62,-52 1745.88,-52 1745.88,-52 1594.62,-52"/>
<polygon fill="#666666" stroke="#666666" points="1594.62,-37.5 1594.62,-37.5 1745.88,-37.5 1745.88,-37.5 1594.62,-37.5"/>
<polygon fill="none" stroke="#666666" points="1594.62,0 1594.62,-79 1745.88,-79 1745.88,0 1594.62,0"/>
</a>
</g>
</g>
<!-- Node1&#45;&gt;Node11 -->
<g id="edge10_Node000001_Node000011" class="edge">
<title>Node1&#45;&gt;Node11</title>
<g id="a_edge10_Node000001_Node000011"><a xlink:title=" ">
<path fill="none" stroke="#63b8ff" d="M931.27,-143.84C1099.16,-134.65 1464.7,-111.53 1586.25,-79 1589.04,-78.25 1591.85,-77.42 1594.67,-76.52"/>
<polygon fill="none" stroke="#63b8ff" points="931.32,-140.34 921.53,-144.37 931.7,-147.32 931.32,-140.34"/>
</a>
</g>
</g>
</g>
</svg>
