<?xml version="1.0" encoding="UTF-8" standalone="no"?>
<!DOCTYPE svg PUBLIC "-//W3C//DTD SVG 1.1//EN"
 "http://www.w3.org/Graphics/SVG/1.1/DTD/svg11.dtd">
<!-- Generated by graphviz version 13.1.2 (20250808.2320)
 -->
<!-- Title: RpgGame.Generation.Strategies.IDungeonStrategy Pages: 1 -->
<svg width="334pt" height="160pt"
 viewBox="0.00 0.00 334.00 160.00" xmlns="http://www.w3.org/2000/svg" xmlns:xlink="http://www.w3.org/1999/xlink">

<svg id="main" version="1.1" xmlns="http://www.w3.org/2000/svg" xmlns:xlink="http://www.w3.org/1999/xlink" xml:space="preserve">

<style type="text/css"><![CDATA[
.node, .edge {opacity: 0.7;}
.node.selected, .edge.selected {opacity: 1;}
.edge:hover path { stroke: red; }
.edge:hover polygon { stroke: red; fill: red; }
]]></style>
<script type="application/ecmascript" xlink:href="svg.min.js"/>
<svg id="graph" class="graph">
<g id="graph0" class="graph" transform="scale(1 1) rotate(0) translate(4 156)">
<title>RpgGame.Generation.Strategies.IDungeonStrategy</title>
<!-- Node1 -->
<g id="Node000001" class="node">
<title>Node1</title>
<g id="a_Node000001"><a xlink:title="Defines the contract for dungeon generation strategies.">
<polygon fill="#999999" stroke="none" points="239.5,-152 86,-152 86,-94 239.5,-94 239.5,-152"/>
<text xml:space="preserve" text-anchor="start" x="90" y="-138.5" font-family="Helvetica,sans-Serif" font-size="10.00">RpgGame.Generation.Strategies.</text>
<text xml:space="preserve" text-anchor="start" x="123.38" y="-128" font-family="Helvetica,sans-Serif" font-size="10.00">IDungeonStrategy</text>
<text xml:space="preserve" text-anchor="start" x="161.25" y="-113.5" font-family="Helvetica,sans-Serif" font-size="10.00"> </text>
<text xml:space="preserve" text-anchor="start" x="97.06" y="-99" font-family="Helvetica,sans-Serif" font-size="10.00">+</text>
<text xml:space="preserve" text-anchor="start" x="114.12" y="-99" font-family="Helvetica,sans-Serif" font-size="10.00">DungeonBuilder Create()</text>
<polygon fill="#666666" stroke="#666666" points="86,-125 86,-125 239.5,-125 239.5,-125 86,-125"/>
<polygon fill="#666666" stroke="#666666" points="86,-110.5 86,-110.5 239.5,-110.5 239.5,-110.5 86,-110.5"/>
<polygon fill="none" stroke="#666666" points="86,-94 86,-152 239.5,-152 239.5,-94 86,-94"/>
</a>
</g>
</g>
<!-- Node2 -->
<g id="Node000002" class="node">
<title>Node2</title>
<g id="a_Node000002"><a xlink:href="classRpgGame_1_1Generation_1_1Strategies_1_1DungeonGroundsStrategy.html" target="_top" xlink:title="A concrete dungeon generation strategy that creates a complex dungeon with rooms, corridors,...">
<polygon fill="white" stroke="none" points="153.5,-58 0,-58 0,0 153.5,0 153.5,-58"/>
<text xml:space="preserve" text-anchor="start" x="4" y="-44.5" font-family="Helvetica,sans-Serif" font-size="10.00">RpgGame.Generation.Strategies.</text>
<text xml:space="preserve" text-anchor="start" x="20.5" y="-34" font-family="Helvetica,sans-Serif" font-size="10.00">DungeonGroundsStrategy</text>
<text xml:space="preserve" text-anchor="start" x="75.25" y="-19.5" font-family="Helvetica,sans-Serif" font-size="10.00"> </text>
<text xml:space="preserve" text-anchor="start" x="11.06" y="-5" font-family="Helvetica,sans-Serif" font-size="10.00">+</text>
<text xml:space="preserve" text-anchor="start" x="28.12" y="-5" font-family="Helvetica,sans-Serif" font-size="10.00">DungeonBuilder Create()</text>
<polygon fill="#666666" stroke="#666666" points="0,-31 0,-31 153.5,-31 153.5,-31 0,-31"/>
<polygon fill="#666666" stroke="#666666" points="0,-16.5 0,-16.5 153.5,-16.5 153.5,-16.5 0,-16.5"/>
<polygon fill="none" stroke="#666666" points="0,0 0,-58 153.5,-58 153.5,0 0,0"/>
</a>
</g>
</g>
<!-- Node1&#45;&gt;Node2 -->
<g id="edge1_Node000001_Node000002" class="edge">
<title>Node1&#45;&gt;Node2</title>
<g id="a_edge1_Node000001_Node000002"><a xlink:title=" ">
<path fill="none" stroke="#63b8ff" d="M129.12,-86.03C120.39,-76.68 111.11,-66.76 102.83,-57.9"/>
<polygon fill="none" stroke="#63b8ff" points="126.53,-88.38 135.91,-93.29 131.64,-83.6 126.53,-88.38"/>
</a>
</g>
</g>
<!-- Node3 -->
<g id="Node000003" class="node">
<title>Node3</title>
<g id="a_Node000003"><a xlink:href="classRpgGame_1_1Generation_1_1Strategies_1_1DungeonSandboxStrategy.html" target="_top" xlink:title="A concrete dungeon generation strategy that creates an empty dungeon with on central room,...">
<polygon fill="white" stroke="none" points="325.5,-58 172,-58 172,0 325.5,0 325.5,-58"/>
<text xml:space="preserve" text-anchor="start" x="176" y="-44.5" font-family="Helvetica,sans-Serif" font-size="10.00">RpgGame.Generation.Strategies.</text>
<text xml:space="preserve" text-anchor="start" x="191.75" y="-34" font-family="Helvetica,sans-Serif" font-size="10.00">DungeonSandboxStrategy</text>
<text xml:space="preserve" text-anchor="start" x="247.25" y="-19.5" font-family="Helvetica,sans-Serif" font-size="10.00"> </text>
<text xml:space="preserve" text-anchor="start" x="183.06" y="-5" font-family="Helvetica,sans-Serif" font-size="10.00">+</text>
<text xml:space="preserve" text-anchor="start" x="200.12" y="-5" font-family="Helvetica,sans-Serif" font-size="10.00">DungeonBuilder Create()</text>
<polygon fill="#666666" stroke="#666666" points="172,-31 172,-31 325.5,-31 325.5,-31 172,-31"/>
<polygon fill="#666666" stroke="#666666" points="172,-16.5 172,-16.5 325.5,-16.5 325.5,-16.5 172,-16.5"/>
<polygon fill="none" stroke="#666666" points="172,0 172,-58 325.5,-58 325.5,0 172,0"/>
</a>
</g>
</g>
<!-- Node1&#45;&gt;Node3 -->
<g id="edge2_Node000001_Node000003" class="edge">
<title>Node1&#45;&gt;Node3</title>
<g id="a_edge2_Node000001_Node000003"><a xlink:title=" ">
<path fill="none" stroke="#63b8ff" d="M196.38,-86.03C205.11,-76.68 214.39,-66.76 222.67,-57.9"/>
<polygon fill="none" stroke="#63b8ff" points="193.86,-83.6 189.59,-93.29 198.97,-88.38 193.86,-83.6"/>
</a>
</g>
</g>
</g>
</svg>
</svg>

<style type='text/css'>
<![CDATA[
[data-mouse-over-selected='false'] { opacity: 0.7; }
[data-mouse-over-selected='true']  { opacity: 1.0; }
]]>
</style>
<script type="application/ecmascript"><![CDATA[
document.addEventListener('DOMContentLoaded', (event) => {
  highlightEdges();
  highlightAdjacentNodes();
});
]]></script>
</svg>
