<?xml version="1.0" encoding="UTF-8" standalone="no"?>
<!DOCTYPE svg PUBLIC "-//W3C//DTD SVG 1.1//EN"
 "http://www.w3.org/Graphics/SVG/1.1/DTD/svg11.dtd">
<!-- Generated by graphviz version 13.1.2 (20250808.2320)
 -->
<!-- Title: RpgGame.Generation.IDungeonProcedure Pages: 1 -->
<svg width="1229pt" height="248pt"
 viewBox="0.00 0.00 1229.00 248.00" xmlns="http://www.w3.org/2000/svg" xmlns:xlink="http://www.w3.org/1999/xlink">
<g id="graph0" class="graph" transform="scale(1 1) rotate(0) translate(4 244)">
<title>RpgGame.Generation.IDungeonProcedure</title>
<!-- Node1 -->
<g id="Node000001" class="node">
<title>Node1</title>
<g id="a_Node000001"><a xlink:title="Defines a procedural step in dungeon generation.">
<polygon fill="#999999" stroke="none" points="684.5,-240 536.25,-240 536.25,-161 684.5,-161 684.5,-240"/>
<text xml:space="preserve" text-anchor="start" x="540.25" y="-226.5" font-family="Helvetica,sans-Serif" font-size="10.00">RpgGame.Generation.IDungeon</text>
<text xml:space="preserve" text-anchor="start" x="588.25" y="-216" font-family="Helvetica,sans-Serif" font-size="10.00">Procedure</text>
<text xml:space="preserve" text-anchor="start" x="608.88" y="-201.5" font-family="Helvetica,sans-Serif" font-size="10.00"> </text>
<text xml:space="preserve" text-anchor="start" x="547.31" y="-187" font-family="Helvetica,sans-Serif" font-size="10.00">+</text>
<text xml:space="preserve" text-anchor="start" x="564.38" y="-187" font-family="Helvetica,sans-Serif" font-size="10.00">Task ApplyAsync(Level</text>
<text xml:space="preserve" text-anchor="start" x="564.38" y="-176.5" font-family="Helvetica,sans-Serif" font-size="10.00"> level, DungeonContext</text>
<text xml:space="preserve" text-anchor="start" x="564.38" y="-166" font-family="Helvetica,sans-Serif" font-size="10.00"> context)</text>
<polygon fill="#666666" stroke="#666666" points="536.25,-213 536.25,-213 684.5,-213 684.5,-213 536.25,-213"/>
<polygon fill="#666666" stroke="#666666" points="536.25,-198.5 536.25,-198.5 684.5,-198.5 684.5,-198.5 536.25,-198.5"/>
<polygon fill="none" stroke="#666666" points="536.25,-161 536.25,-240 684.5,-240 684.5,-161 536.25,-161"/>
</a>
</g>
</g>
<!-- Node2 -->
<g id="Node000002" class="node">
<title>Node2</title>
<g id="a_Node000002"><a xlink:href="classRpgGame_1_1Generation_1_1Procedures_1_1AddItemsProcedure.html" target="_top" xlink:title="Spawns treasure items (coins and gold) at random locations in the dungeon.">
<polygon fill="white" stroke="none" points="158.75,-125 0,-125 0,0 158.75,0 158.75,-125"/>
<text xml:space="preserve" text-anchor="start" x="4" y="-111.5" font-family="Helvetica,sans-Serif" font-size="10.00">RpgGame.Generation.Procedures.</text>
<text xml:space="preserve" text-anchor="start" x="36.25" y="-101" font-family="Helvetica,sans-Serif" font-size="10.00">AddItemsProcedure</text>
<text xml:space="preserve" text-anchor="start" x="77.88" y="-86.5" font-family="Helvetica,sans-Serif" font-size="10.00"> </text>
<text xml:space="preserve" text-anchor="start" x="5.62" y="-72" font-family="Helvetica,sans-Serif" font-size="10.00">+</text>
<text xml:space="preserve" text-anchor="start" x="17.25" y="-72" font-family="Helvetica,sans-Serif" font-size="10.00">AddItemsProcedure</text>
<text xml:space="preserve" text-anchor="start" x="17.25" y="-61.5" font-family="Helvetica,sans-Serif" font-size="10.00">(int CoinCount=5, int</text>
<text xml:space="preserve" text-anchor="start" x="17.25" y="-51" font-family="Helvetica,sans-Serif" font-size="10.00"> GoldCount=2, int PotionCount</text>
<text xml:space="preserve" text-anchor="start" x="17.25" y="-40.5" font-family="Helvetica,sans-Serif" font-size="10.00">=2, int ThornCount=1)</text>
<text xml:space="preserve" text-anchor="start" x="5.62" y="-26" font-family="Helvetica,sans-Serif" font-size="10.00">+</text>
<text xml:space="preserve" text-anchor="start" x="17.25" y="-26" font-family="Helvetica,sans-Serif" font-size="10.00">async Task ApplyAsync</text>
<text xml:space="preserve" text-anchor="start" x="17.25" y="-15.5" font-family="Helvetica,sans-Serif" font-size="10.00">(Level level, DungeonContext</text>
<text xml:space="preserve" text-anchor="start" x="17.25" y="-5" font-family="Helvetica,sans-Serif" font-size="10.00"> context)</text>
<polygon fill="#666666" stroke="#666666" points="0,-98 0,-98 158.75,-98 158.75,-98 0,-98"/>
<polygon fill="#666666" stroke="#666666" points="0,-83.5 0,-83.5 158.75,-83.5 158.75,-83.5 0,-83.5"/>
<polygon fill="none" stroke="#666666" points="0,0 0,-125 158.75,-125 158.75,0 0,0"/>
</a>
</g>
</g>
<!-- Node1&#45;&gt;Node2 -->
<g id="edge1_Node000001_Node000002" class="edge">
<title>Node1&#45;&gt;Node2</title>
<g id="a_edge1_Node000001_Node000002"><a xlink:title=" ">
<path fill="none" stroke="#63b8ff" d="M525.14,-196.1C433.87,-189.99 286.26,-172.88 168.38,-125 165.16,-123.69 161.94,-122.25 158.74,-120.71"/>
<polygon fill="none" stroke="#63b8ff" points="524.82,-199.59 535.02,-196.73 525.27,-192.6 524.82,-199.59"/>
</a>
</g>
</g>
<!-- Node3 -->
<g id="Node000003" class="node">
<title>Node3</title>
<g id="a_Node000003"><a xlink:href="classRpgGame_1_1Generation_1_1Procedures_1_1AddWeaponsProcedure.html" target="_top" xlink:title="Spawns weapons (swords and double swords) at random locations in the dungeon.">
<polygon fill="white" stroke="none" points="335.75,-119.75 177,-119.75 177,-5.25 335.75,-5.25 335.75,-119.75"/>
<text xml:space="preserve" text-anchor="start" x="181" y="-106.25" font-family="Helvetica,sans-Serif" font-size="10.00">RpgGame.Generation.Procedures.</text>
<text xml:space="preserve" text-anchor="start" x="205.38" y="-95.75" font-family="Helvetica,sans-Serif" font-size="10.00">AddWeaponsProcedure</text>
<text xml:space="preserve" text-anchor="start" x="254.88" y="-81.25" font-family="Helvetica,sans-Serif" font-size="10.00"> </text>
<text xml:space="preserve" text-anchor="start" x="184.31" y="-66.75" font-family="Helvetica,sans-Serif" font-size="10.00">+</text>
<text xml:space="preserve" text-anchor="start" x="197.62" y="-66.75" font-family="Helvetica,sans-Serif" font-size="10.00">AddWeaponsProcedure</text>
<text xml:space="preserve" text-anchor="start" x="197.62" y="-56.25" font-family="Helvetica,sans-Serif" font-size="10.00">(int SwordCount=2, int</text>
<text xml:space="preserve" text-anchor="start" x="197.62" y="-45.75" font-family="Helvetica,sans-Serif" font-size="10.00"> DoubleSwordCount=1)</text>
<text xml:space="preserve" text-anchor="start" x="184.31" y="-31.25" font-family="Helvetica,sans-Serif" font-size="10.00">+</text>
<text xml:space="preserve" text-anchor="start" x="197.62" y="-31.25" font-family="Helvetica,sans-Serif" font-size="10.00">async Task ApplyAsync</text>
<text xml:space="preserve" text-anchor="start" x="197.62" y="-20.75" font-family="Helvetica,sans-Serif" font-size="10.00">(Level level, DungeonContext</text>
<text xml:space="preserve" text-anchor="start" x="197.62" y="-10.25" font-family="Helvetica,sans-Serif" font-size="10.00"> context)</text>
<polygon fill="#666666" stroke="#666666" points="177,-92.75 177,-92.75 335.75,-92.75 335.75,-92.75 177,-92.75"/>
<polygon fill="#666666" stroke="#666666" points="177,-78.25 177,-78.25 335.75,-78.25 335.75,-78.25 177,-78.25"/>
<polygon fill="none" stroke="#666666" points="177,-5.25 177,-119.75 335.75,-119.75 335.75,-5.25 177,-5.25"/>
</a>
</g>
</g>
<!-- Node1&#45;&gt;Node3 -->
<g id="edge2_Node000001_Node000003" class="edge">
<title>Node1&#45;&gt;Node3</title>
<g id="a_edge2_Node000001_Node000003"><a xlink:title=" ">
<path fill="none" stroke="#63b8ff" d="M525.24,-183.1C471.97,-171.03 402.81,-152 345.38,-125 341.89,-123.36 338.39,-121.59 334.91,-119.72"/>
<polygon fill="none" stroke="#63b8ff" points="524.35,-186.49 534.87,-185.24 525.87,-179.66 524.35,-186.49"/>
</a>
</g>
</g>
<!-- Node4 -->
<g id="Node000004" class="node">
<title>Node4</title>
<g id="a_Node000004"><a xlink:href="classRpgGame_1_1Generation_1_1Procedures_1_1CentralRoomProcedure.html" target="_top" xlink:title="Generates a central room in the dungeon.">
<polygon fill="white" stroke="none" points="512.75,-114.5 354,-114.5 354,-10.5 512.75,-10.5 512.75,-114.5"/>
<text xml:space="preserve" text-anchor="start" x="358" y="-101" font-family="Helvetica,sans-Serif" font-size="10.00">RpgGame.Generation.Procedures.</text>
<text xml:space="preserve" text-anchor="start" x="382.38" y="-90.5" font-family="Helvetica,sans-Serif" font-size="10.00">CentralRoomProcedure</text>
<text xml:space="preserve" text-anchor="start" x="431.88" y="-76" font-family="Helvetica,sans-Serif" font-size="10.00"> </text>
<text xml:space="preserve" text-anchor="start" x="367.69" y="-61.5" font-family="Helvetica,sans-Serif" font-size="10.00">+</text>
<text xml:space="preserve" text-anchor="start" x="387.38" y="-61.5" font-family="Helvetica,sans-Serif" font-size="10.00">CentralRoomProcedure</text>
<text xml:space="preserve" text-anchor="start" x="387.38" y="-51" font-family="Helvetica,sans-Serif" font-size="10.00">(int width, int height)</text>
<text xml:space="preserve" text-anchor="start" x="367.69" y="-36.5" font-family="Helvetica,sans-Serif" font-size="10.00">+</text>
<text xml:space="preserve" text-anchor="start" x="387.38" y="-36.5" font-family="Helvetica,sans-Serif" font-size="10.00">Task ApplyAsync(Level</text>
<text xml:space="preserve" text-anchor="start" x="387.38" y="-26" font-family="Helvetica,sans-Serif" font-size="10.00"> level, DungeonContext</text>
<text xml:space="preserve" text-anchor="start" x="387.38" y="-15.5" font-family="Helvetica,sans-Serif" font-size="10.00"> context)</text>
<polygon fill="#666666" stroke="#666666" points="354,-87.5 354,-87.5 512.75,-87.5 512.75,-87.5 354,-87.5"/>
<polygon fill="#666666" stroke="#666666" points="354,-73 354,-73 512.75,-73 512.75,-73 354,-73"/>
<polygon fill="none" stroke="#666666" points="354,-10.5 354,-114.5 512.75,-114.5 512.75,-10.5 354,-10.5"/>
</a>
</g>
</g>
<!-- Node1&#45;&gt;Node4 -->
<g id="edge3_Node000001_Node000004" class="edge">
<title>Node1&#45;&gt;Node4</title>
<g id="a_edge3_Node000001_Node000004"><a xlink:title=" ">
<path fill="none" stroke="#63b8ff" d="M551.53,-154.29C534.89,-141.5 516.67,-127.5 499.62,-114.4"/>
<polygon fill="none" stroke="#63b8ff" points="549.34,-157.01 559.4,-160.33 553.6,-151.46 549.34,-157.01"/>
</a>
</g>
</g>
<!-- Node5 -->
<g id="Node000005" class="node">
<title>Node5</title>
<g id="a_Node000005"><a xlink:href="classRpgGame_1_1Generation_1_1Procedures_1_1ChambersProcedure.html" target="_top" xlink:title="Generates multiple random chamber rooms in the dungeon.">
<polygon fill="white" stroke="none" points="689.75,-114.5 531,-114.5 531,-10.5 689.75,-10.5 689.75,-114.5"/>
<text xml:space="preserve" text-anchor="start" x="535" y="-101" font-family="Helvetica,sans-Serif" font-size="10.00">RpgGame.Generation.Procedures.</text>
<text xml:space="preserve" text-anchor="start" x="565.38" y="-90.5" font-family="Helvetica,sans-Serif" font-size="10.00">ChambersProcedure</text>
<text xml:space="preserve" text-anchor="start" x="608.88" y="-76" font-family="Helvetica,sans-Serif" font-size="10.00"> </text>
<text xml:space="preserve" text-anchor="start" x="544.69" y="-61.5" font-family="Helvetica,sans-Serif" font-size="10.00">+</text>
<text xml:space="preserve" text-anchor="start" x="564.38" y="-61.5" font-family="Helvetica,sans-Serif" font-size="10.00">ChambersProcedure</text>
<text xml:space="preserve" text-anchor="start" x="564.38" y="-51" font-family="Helvetica,sans-Serif" font-size="10.00">(int roomCount)</text>
<text xml:space="preserve" text-anchor="start" x="544.69" y="-36.5" font-family="Helvetica,sans-Serif" font-size="10.00">+</text>
<text xml:space="preserve" text-anchor="start" x="564.38" y="-36.5" font-family="Helvetica,sans-Serif" font-size="10.00">Task ApplyAsync(Level</text>
<text xml:space="preserve" text-anchor="start" x="564.38" y="-26" font-family="Helvetica,sans-Serif" font-size="10.00"> level, DungeonContext</text>
<text xml:space="preserve" text-anchor="start" x="564.38" y="-15.5" font-family="Helvetica,sans-Serif" font-size="10.00"> context)</text>
<polygon fill="#666666" stroke="#666666" points="531,-87.5 531,-87.5 689.75,-87.5 689.75,-87.5 531,-87.5"/>
<polygon fill="#666666" stroke="#666666" points="531,-73 531,-73 689.75,-73 689.75,-73 531,-73"/>
<polygon fill="none" stroke="#666666" points="531,-10.5 531,-114.5 689.75,-114.5 689.75,-10.5 531,-10.5"/>
</a>
</g>
</g>
<!-- Node1&#45;&gt;Node5 -->
<g id="edge4_Node000001_Node000005" class="edge">
<title>Node1&#45;&gt;Node5</title>
<g id="a_edge4_Node000001_Node000005"><a xlink:title=" ">
<path fill="none" stroke="#63b8ff" d="M610.38,-149.99C610.38,-138.4 610.38,-126.05 610.38,-114.4"/>
<polygon fill="none" stroke="#63b8ff" points="606.88,-149.74 610.38,-159.74 613.88,-149.74 606.88,-149.74"/>
</a>
</g>
</g>
<!-- Node6 -->
<g id="Node000006" class="node">
<title>Node6</title>
<g id="a_Node000006"><a xlink:href="classRpgGame_1_1Generation_1_1Procedures_1_1EmptyDungeonProcedure.html" target="_top" xlink:title="Fills the entire dungeon with floor tiles, creating an empty open space.">
<polygon fill="white" stroke="none" points="866.75,-102 708,-102 708,-23 866.75,-23 866.75,-102"/>
<text xml:space="preserve" text-anchor="start" x="712" y="-88.5" font-family="Helvetica,sans-Serif" font-size="10.00">RpgGame.Generation.Procedures.</text>
<text xml:space="preserve" text-anchor="start" x="731.5" y="-78" font-family="Helvetica,sans-Serif" font-size="10.00">EmptyDungeonProcedure</text>
<text xml:space="preserve" text-anchor="start" x="785.88" y="-63.5" font-family="Helvetica,sans-Serif" font-size="10.00"> </text>
<text xml:space="preserve" text-anchor="start" x="721.69" y="-49" font-family="Helvetica,sans-Serif" font-size="10.00">+</text>
<text xml:space="preserve" text-anchor="start" x="741.38" y="-49" font-family="Helvetica,sans-Serif" font-size="10.00">Task ApplyAsync(Level</text>
<text xml:space="preserve" text-anchor="start" x="741.38" y="-38.5" font-family="Helvetica,sans-Serif" font-size="10.00"> level, DungeonContext</text>
<text xml:space="preserve" text-anchor="start" x="741.38" y="-28" font-family="Helvetica,sans-Serif" font-size="10.00"> context)</text>
<polygon fill="#666666" stroke="#666666" points="708,-75 708,-75 866.75,-75 866.75,-75 708,-75"/>
<polygon fill="#666666" stroke="#666666" points="708,-60.5 708,-60.5 866.75,-60.5 866.75,-60.5 708,-60.5"/>
<polygon fill="none" stroke="#666666" points="708,-23 708,-102 866.75,-102 866.75,-23 708,-23"/>
</a>
</g>
</g>
<!-- Node1&#45;&gt;Node6 -->
<g id="edge5_Node000001_Node000006" class="edge">
<title>Node1&#45;&gt;Node6</title>
<g id="a_edge5_Node000001_Node000006"><a xlink:title=" ">
<path fill="none" stroke="#63b8ff" d="M669.11,-154.37C691.21,-137.39 716.12,-118.25 737.36,-101.93"/>
<polygon fill="none" stroke="#63b8ff" points="667.15,-151.46 661.35,-160.33 671.41,-157.01 667.15,-151.46"/>
</a>
</g>
</g>
<!-- Node7 -->
<g id="Node000007" class="node">
<title>Node7</title>
<g id="a_Node000007"><a xlink:href="classRpgGame_1_1Generation_1_1Procedures_1_1FilledDungeonProcedure.html" target="_top" xlink:title="Fills the entire dungeon with wall tiles, creating a solid base for carving.">
<polygon fill="white" stroke="none" points="1043.75,-102 885,-102 885,-23 1043.75,-23 1043.75,-102"/>
<text xml:space="preserve" text-anchor="start" x="889" y="-88.5" font-family="Helvetica,sans-Serif" font-size="10.00">RpgGame.Generation.Procedures.</text>
<text xml:space="preserve" text-anchor="start" x="911.12" y="-78" font-family="Helvetica,sans-Serif" font-size="10.00">FilledDungeonProcedure</text>
<text xml:space="preserve" text-anchor="start" x="962.88" y="-63.5" font-family="Helvetica,sans-Serif" font-size="10.00"> </text>
<text xml:space="preserve" text-anchor="start" x="898.69" y="-49" font-family="Helvetica,sans-Serif" font-size="10.00">+</text>
<text xml:space="preserve" text-anchor="start" x="918.38" y="-49" font-family="Helvetica,sans-Serif" font-size="10.00">Task ApplyAsync(Level</text>
<text xml:space="preserve" text-anchor="start" x="918.38" y="-38.5" font-family="Helvetica,sans-Serif" font-size="10.00"> level, DungeonContext</text>
<text xml:space="preserve" text-anchor="start" x="918.38" y="-28" font-family="Helvetica,sans-Serif" font-size="10.00"> context)</text>
<polygon fill="#666666" stroke="#666666" points="885,-75 885,-75 1043.75,-75 1043.75,-75 885,-75"/>
<polygon fill="#666666" stroke="#666666" points="885,-60.5 885,-60.5 1043.75,-60.5 1043.75,-60.5 885,-60.5"/>
<polygon fill="none" stroke="#666666" points="885,-23 885,-102 1043.75,-102 1043.75,-23 885,-23"/>
</a>
</g>
</g>
<!-- Node1&#45;&gt;Node7 -->
<g id="edge6_Node000001_Node000007" class="edge">
<title>Node1&#45;&gt;Node7</title>
<g id="a_edge6_Node000001_Node000007"><a xlink:title=" ">
<path fill="none" stroke="#63b8ff" d="M695.51,-183.1C748.78,-171.03 817.94,-152 875.38,-125 888.8,-118.69 902.42,-110.42 914.83,-101.99"/>
<polygon fill="none" stroke="#63b8ff" points="694.88,-179.66 685.88,-185.24 696.4,-186.49 694.88,-179.66"/>
</a>
</g>
</g>
<!-- Node8 -->
<g id="Node000008" class="node">
<title>Node8</title>
<g id="a_Node000008"><a xlink:href="classRpgGame_1_1Generation_1_1Procedures_1_1PathsProcedure.html" target="_top" xlink:title="Generates corridors connecting all rooms to a central room.">
<polygon fill="white" stroke="none" points="1220.75,-102 1062,-102 1062,-23 1220.75,-23 1220.75,-102"/>
<text xml:space="preserve" text-anchor="start" x="1066" y="-88.5" font-family="Helvetica,sans-Serif" font-size="10.00">RpgGame.Generation.Procedures.</text>
<text xml:space="preserve" text-anchor="start" x="1106.5" y="-78" font-family="Helvetica,sans-Serif" font-size="10.00">PathsProcedure</text>
<text xml:space="preserve" text-anchor="start" x="1139.88" y="-63.5" font-family="Helvetica,sans-Serif" font-size="10.00"> </text>
<text xml:space="preserve" text-anchor="start" x="1075.69" y="-49" font-family="Helvetica,sans-Serif" font-size="10.00">+</text>
<text xml:space="preserve" text-anchor="start" x="1095.38" y="-49" font-family="Helvetica,sans-Serif" font-size="10.00">Task ApplyAsync(Level</text>
<text xml:space="preserve" text-anchor="start" x="1095.38" y="-38.5" font-family="Helvetica,sans-Serif" font-size="10.00"> level, DungeonContext</text>
<text xml:space="preserve" text-anchor="start" x="1095.38" y="-28" font-family="Helvetica,sans-Serif" font-size="10.00"> context)</text>
<polygon fill="#666666" stroke="#666666" points="1062,-75 1062,-75 1220.75,-75 1220.75,-75 1062,-75"/>
<polygon fill="#666666" stroke="#666666" points="1062,-60.5 1062,-60.5 1220.75,-60.5 1220.75,-60.5 1062,-60.5"/>
<polygon fill="none" stroke="#666666" points="1062,-23 1062,-102 1220.75,-102 1220.75,-23 1062,-23"/>
</a>
</g>
</g>
<!-- Node1&#45;&gt;Node8 -->
<g id="edge7_Node000001_Node000008" class="edge">
<title>Node1&#45;&gt;Node8</title>
<g id="a_edge7_Node000001_Node000008"><a xlink:title=" ">
<path fill="none" stroke="#63b8ff" d="M695.61,-196.1C786.88,-189.99 934.49,-172.88 1052.38,-125 1066.82,-119.13 1081.25,-110.61 1094.16,-101.76"/>
<polygon fill="none" stroke="#63b8ff" points="695.48,-192.6 685.73,-196.73 695.93,-199.59 695.48,-192.6"/>
</a>
</g>
</g>
</g>
</svg>
