<?xml version="1.0" encoding="UTF-8" standalone="no"?>
<!DOCTYPE svg PUBLIC "-//W3C//DTD SVG 1.1//EN"
 "http://www.w3.org/Graphics/SVG/1.1/DTD/svg11.dtd">
<!-- Generated by graphviz version 13.1.2 (20250808.2320)
 -->
<!-- Title: RpgGame.Items.IEquippable Pages: 1 -->
<svg width="147pt" height="239pt"
 viewBox="0.00 0.00 147.00 239.00" xmlns="http://www.w3.org/2000/svg" xmlns:xlink="http://www.w3.org/1999/xlink">
<g id="graph0" class="graph" transform="scale(1 1) rotate(0) translate(4 235)">
<title>RpgGame.Items.IEquippable</title>
<!-- Node1 -->
<g id="Node000001" class="node">
<title>Node1</title>
<g id="a_Node000001"><a xlink:title="Represents an item that can be equipped by the player.">
<polygon fill="#999999" stroke="none" points="136.75,-83 2,-83 2,0 136.75,0 136.75,-83"/>
<text xml:space="preserve" text-anchor="start" x="6" y="-69.5" font-family="Helvetica,sans-Serif" font-size="10.00">RpgGame.Items.IEquippable</text>
<text xml:space="preserve" text-anchor="start" x="67.88" y="-55" font-family="Helvetica,sans-Serif" font-size="10.00"> </text>
<text xml:space="preserve" text-anchor="start" x="11.75" y="-40.5" font-family="Helvetica,sans-Serif" font-size="10.00">+</text>
<text xml:space="preserve" text-anchor="start" x="27.5" y="-40.5" font-family="Helvetica,sans-Serif" font-size="10.00">bool TryEquipToLeft</text>
<text xml:space="preserve" text-anchor="start" x="27.5" y="-30" font-family="Helvetica,sans-Serif" font-size="10.00">(Player player)</text>
<text xml:space="preserve" text-anchor="start" x="11.75" y="-15.5" font-family="Helvetica,sans-Serif" font-size="10.00">+</text>
<text xml:space="preserve" text-anchor="start" x="27.5" y="-15.5" font-family="Helvetica,sans-Serif" font-size="10.00">bool TryEquipToRight</text>
<text xml:space="preserve" text-anchor="start" x="27.5" y="-5" font-family="Helvetica,sans-Serif" font-size="10.00">(Player player)</text>
<polygon fill="#666666" stroke="#666666" points="2,-66.5 2,-66.5 136.75,-66.5 136.75,-66.5 2,-66.5"/>
<polygon fill="#666666" stroke="#666666" points="2,-52 2,-52 136.75,-52 136.75,-52 2,-52"/>
<polygon fill="none" stroke="#666666" points="2,0 2,-83 136.75,-83 136.75,0 2,0"/>
</a>
</g>
</g>
<!-- Node2 -->
<g id="Node000002" class="node">
<title>Node2</title>
<g id="a_Node000002"><a xlink:href="interfaceRpgGame_1_1Items_1_1IItem.html" target="_top" xlink:title="Defines the contract for all items that can exist within the game world.">
<polygon fill="white" stroke="none" points="138.75,-231 0,-231 0,-119 138.75,-119 138.75,-231"/>
<text xml:space="preserve" text-anchor="start" x="20.25" y="-217.5" font-family="Helvetica,sans-Serif" font-size="10.00">RpgGame.Items.IItem</text>
<text xml:space="preserve" text-anchor="start" x="4" y="-203" font-family="Helvetica,sans-Serif" font-size="10.00">+</text>
<text xml:space="preserve" text-anchor="start" x="14" y="-203" font-family="Helvetica,sans-Serif" font-size="10.00">string Name</text>
<text xml:space="preserve" text-anchor="start" x="4" y="-188.5" font-family="Helvetica,sans-Serif" font-size="10.00">+</text>
<text xml:space="preserve" text-anchor="start" x="14" y="-188.5" font-family="Helvetica,sans-Serif" font-size="10.00">char Symbol</text>
<text xml:space="preserve" text-anchor="start" x="4" y="-174" font-family="Helvetica,sans-Serif" font-size="10.00">+</text>
<text xml:space="preserve" text-anchor="start" x="14" y="-174" font-family="Helvetica,sans-Serif" font-size="10.00">string GetDescription()</text>
<text xml:space="preserve" text-anchor="start" x="4" y="-159.5" font-family="Helvetica,sans-Serif" font-size="10.00">+</text>
<text xml:space="preserve" text-anchor="start" x="14" y="-159.5" font-family="Helvetica,sans-Serif" font-size="10.00">bool OnPickup(Player</text>
<text xml:space="preserve" text-anchor="start" x="14" y="-149" font-family="Helvetica,sans-Serif" font-size="10.00"> player, Inventory inventory)</text>
<text xml:space="preserve" text-anchor="start" x="4" y="-134.5" font-family="Helvetica,sans-Serif" font-size="10.00">+</text>
<text xml:space="preserve" text-anchor="start" x="14" y="-134.5" font-family="Helvetica,sans-Serif" font-size="10.00">void OnDrop(Level level,</text>
<text xml:space="preserve" text-anchor="start" x="14" y="-124" font-family="Helvetica,sans-Serif" font-size="10.00"> Player player)</text>
<polygon fill="#666666" stroke="#666666" points="0,-214.5 0,-214.5 138.75,-214.5 138.75,-214.5 0,-214.5"/>
<polygon fill="#666666" stroke="#666666" points="0,-185.5 0,-185.5 12,-185.5 12,-185.5 0,-185.5"/>
<polygon fill="#666666" stroke="#666666" points="12,-185.5 12,-185.5 138.75,-185.5 138.75,-185.5 12,-185.5"/>
<polygon fill="none" stroke="#666666" points="0,-119 0,-231 138.75,-231 138.75,-119 0,-119"/>
</a>
</g>
</g>
<!-- Node2&#45;&gt;Node1 -->
<g id="edge1_Node000001_Node000002" class="edge">
<title>Node2&#45;&gt;Node1</title>
<g id="a_edge1_Node000001_Node000002"><a xlink:title=" ">
<path fill="none" stroke="#63b8ff" d="M69.38,-108.05C69.38,-99.41 69.38,-90.76 69.38,-82.72"/>
<polygon fill="none" stroke="#63b8ff" points="65.88,-107.86 69.38,-117.86 72.88,-107.86 65.88,-107.86"/>
</a>
</g>
</g>
</g>
</svg>
