<?xml version="1.0" encoding="UTF-8" standalone="no"?>
<!DOCTYPE svg PUBLIC "-//W3C//DTD SVG 1.1//EN"
 "http://www.w3.org/Graphics/SVG/1.1/DTD/svg11.dtd">
<!-- Generated by graphviz version 13.1.2 (20250808.2320)
 -->
<!-- Title: RpgGame.Tiles.Tile Pages: 1 -->
<svg width="274pt" height="197pt"
 viewBox="0.00 0.00 274.00 197.00" xmlns="http://www.w3.org/2000/svg" xmlns:xlink="http://www.w3.org/1999/xlink">
<g id="graph0" class="graph" transform="scale(1 1) rotate(0) translate(4 193)">
<title>RpgGame.Tiles.Tile</title>
<!-- Node1 -->
<g id="Node000001" class="node">
<title>Node1</title>
<g id="a_Node000001"><a xlink:title="Base abstract class representing a tile in the game world.">
<polygon fill="#999999" stroke="none" points="184.62,-189 81.12,-189 81.12,-98 184.62,-98 184.62,-189"/>
<text xml:space="preserve" text-anchor="start" x="89" y="-175.5" font-family="Helvetica,sans-Serif" font-size="10.00">RpgGame.Tiles.Tile</text>
<text xml:space="preserve" text-anchor="start" x="85.12" y="-161" font-family="Helvetica,sans-Serif" font-size="10.00">+</text>
<text xml:space="preserve" text-anchor="start" x="95.12" y="-161" font-family="Helvetica,sans-Serif" font-size="10.00">List&lt; Tile &gt; PosList</text>
<text xml:space="preserve" text-anchor="start" x="85.12" y="-146.5" font-family="Helvetica,sans-Serif" font-size="10.00">+</text>
<text xml:space="preserve" text-anchor="start" x="95.12" y="-146.5" font-family="Helvetica,sans-Serif" font-size="10.00">char Symbol</text>
<text xml:space="preserve" text-anchor="start" x="85.12" y="-132" font-family="Helvetica,sans-Serif" font-size="10.00">+</text>
<text xml:space="preserve" text-anchor="start" x="95.12" y="-132" font-family="Helvetica,sans-Serif" font-size="10.00">bool IsWalkable</text>
<text xml:space="preserve" text-anchor="start" x="85.12" y="-117.5" font-family="Helvetica,sans-Serif" font-size="10.00">+</text>
<text xml:space="preserve" text-anchor="start" x="95.12" y="-117.5" font-family="Helvetica,sans-Serif" font-size="10.00">bool IsOccupied</text>
<text xml:space="preserve" text-anchor="start" x="131.38" y="-103" font-family="Helvetica,sans-Serif" font-size="10.00"> </text>
<polygon fill="#666666" stroke="#666666" points="81.12,-172.5 81.12,-172.5 184.62,-172.5 184.62,-172.5 81.12,-172.5"/>
<polygon fill="#666666" stroke="#666666" points="81.12,-114.5 81.12,-114.5 93.12,-114.5 93.12,-114.5 81.12,-114.5"/>
<polygon fill="#666666" stroke="#666666" points="93.12,-114.5 93.12,-114.5 184.62,-114.5 184.62,-114.5 93.12,-114.5"/>
<polygon fill="none" stroke="#666666" points="81.12,-98 81.12,-189 184.62,-189 184.62,-98 81.12,-98"/>
</a>
</g>
</g>
<!-- Node2 -->
<g id="Node000002" class="node">
<title>Node2</title>
<g id="a_Node000002"><a xlink:href="classRpgGame_1_1Tiles_1_1FloorTile.html" target="_top" xlink:title="Represents a walkable floor tile where players and items can exist.">
<polygon fill="white" stroke="none" points="123.75,-62 0,-62 0,0 123.75,0 123.75,-62"/>
<text xml:space="preserve" text-anchor="start" x="7.12" y="-48.5" font-family="Helvetica,sans-Serif" font-size="10.00">RpgGame.Tiles.FloorTile</text>
<text xml:space="preserve" text-anchor="start" x="4" y="-34" font-family="Helvetica,sans-Serif" font-size="10.00">+</text>
<text xml:space="preserve" text-anchor="start" x="14" y="-34" font-family="Helvetica,sans-Serif" font-size="10.00">override char Symbol</text>
<text xml:space="preserve" text-anchor="start" x="4" y="-19.5" font-family="Helvetica,sans-Serif" font-size="10.00">+</text>
<text xml:space="preserve" text-anchor="start" x="14" y="-19.5" font-family="Helvetica,sans-Serif" font-size="10.00">override bool IsWalkable</text>
<text xml:space="preserve" text-anchor="start" x="60.38" y="-5" font-family="Helvetica,sans-Serif" font-size="10.00"> </text>
<polygon fill="#666666" stroke="#666666" points="0,-45.5 0,-45.5 123.75,-45.5 123.75,-45.5 0,-45.5"/>
<polygon fill="#666666" stroke="#666666" points="0,-16.5 0,-16.5 12,-16.5 12,-16.5 0,-16.5"/>
<polygon fill="#666666" stroke="#666666" points="12,-16.5 12,-16.5 123.75,-16.5 123.75,-16.5 12,-16.5"/>
<polygon fill="none" stroke="#666666" points="0,0 0,-62 123.75,-62 123.75,0 0,0"/>
</a>
</g>
</g>
<!-- Node1&#45;&gt;Node2 -->
<g id="edge1_Node000001_Node000002" class="edge">
<title>Node1&#45;&gt;Node2</title>
<g id="a_edge1_Node000001_Node000002"><a xlink:title=" ">
<path fill="none" stroke="#63b8ff" d="M98.25,-88.61C92.31,-79.36 86.33,-70.06 80.99,-61.74"/>
<polygon fill="none" stroke="#63b8ff" points="95.24,-90.4 103.59,-96.92 101.13,-86.61 95.24,-90.4"/>
</a>
</g>
</g>
<!-- Node3 -->
<g id="Node000003" class="node">
<title>Node3</title>
<g id="a_Node000003"><a xlink:href="classRpgGame_1_1Tiles_1_1WallTile.html" target="_top" xlink:title="Represents a solid wall tile that blocks player movement.">
<polygon fill="white" stroke="none" points="265.75,-62 142,-62 142,0 265.75,0 265.75,-62"/>
<text xml:space="preserve" text-anchor="start" x="150.62" y="-48.5" font-family="Helvetica,sans-Serif" font-size="10.00">RpgGame.Tiles.WallTile</text>
<text xml:space="preserve" text-anchor="start" x="146" y="-34" font-family="Helvetica,sans-Serif" font-size="10.00">+</text>
<text xml:space="preserve" text-anchor="start" x="156" y="-34" font-family="Helvetica,sans-Serif" font-size="10.00">override char Symbol</text>
<text xml:space="preserve" text-anchor="start" x="146" y="-19.5" font-family="Helvetica,sans-Serif" font-size="10.00">+</text>
<text xml:space="preserve" text-anchor="start" x="156" y="-19.5" font-family="Helvetica,sans-Serif" font-size="10.00">override bool IsWalkable</text>
<text xml:space="preserve" text-anchor="start" x="202.38" y="-5" font-family="Helvetica,sans-Serif" font-size="10.00"> </text>
<polygon fill="#666666" stroke="#666666" points="142,-45.5 142,-45.5 265.75,-45.5 265.75,-45.5 142,-45.5"/>
<polygon fill="#666666" stroke="#666666" points="142,-16.5 142,-16.5 154,-16.5 154,-16.5 142,-16.5"/>
<polygon fill="#666666" stroke="#666666" points="154,-16.5 154,-16.5 265.75,-16.5 265.75,-16.5 154,-16.5"/>
<polygon fill="none" stroke="#666666" points="142,0 142,-62 265.75,-62 265.75,0 142,0"/>
</a>
</g>
</g>
<!-- Node1&#45;&gt;Node3 -->
<g id="edge2_Node000001_Node000003" class="edge">
<title>Node1&#45;&gt;Node3</title>
<g id="a_edge2_Node000001_Node000003"><a xlink:title=" ">
<path fill="none" stroke="#63b8ff" d="M167.5,-88.61C173.44,-79.36 179.42,-70.06 184.76,-61.74"/>
<polygon fill="none" stroke="#63b8ff" points="164.62,-86.61 162.16,-96.92 170.51,-90.4 164.62,-86.61"/>
</a>
</g>
</g>
</g>
</svg>
