<?xml version="1.0" encoding="UTF-8" standalone="no"?>
<!DOCTYPE svg PUBLIC "-//W3C//DTD SVG 1.1//EN"
 "http://www.w3.org/Graphics/SVG/1.1/DTD/svg11.dtd">
<!-- Generated by graphviz version 13.1.2 (20250808.2320)
 -->
<!-- Title: RpgGame.Rendering.ConsoleRenderer.Render Pages: 1 -->
<svg width="536pt" height="83pt"
 viewBox="0.00 0.00 536.00 83.00" xmlns="http://www.w3.org/2000/svg" xmlns:xlink="http://www.w3.org/1999/xlink">
<g id="graph0" class="graph" transform="scale(1 1) rotate(0) translate(4 78.5)">
<title>RpgGame.Rendering.ConsoleRenderer.Render</title>
<!-- Node1 -->
<g id="Node000001" class="node">
<title>Node1</title>
<g id="a_Node000001"><a xlink:title="Renders the current level state and player information to the console.">
<polygon fill="#999999" stroke="#666666" points="146.5,-42.75 0,-42.75 0,-13.75 146.5,-13.75 146.5,-42.75"/>
<text xml:space="preserve" text-anchor="start" x="8" y="-29.25" font-family="Helvetica,sans-Serif" font-size="10.00">RpgGame.Rendering.Console</text>
<text xml:space="preserve" text-anchor="middle" x="73.25" y="-18.75" font-family="Helvetica,sans-Serif" font-size="10.00">Renderer.Render</text>
</a>
</g>
</g>
<!-- Node2 -->
<g id="Node000002" class="node">
<title>Node2</title>
<g id="a_Node000002"><a xlink:href="classRpgGame_1_1Core_1_1Level.html#ad48a7c23cc285da72a157194198e553a" target="_top" xlink:title="Retrieves the tile at the specified coordinates.">
<polygon fill="white" stroke="#666666" points="337.25,-74.5 192.25,-74.5 192.25,-56 337.25,-56 337.25,-74.5"/>
<text xml:space="preserve" text-anchor="middle" x="264.75" y="-61" font-family="Helvetica,sans-Serif" font-size="10.00">RpgGame.Core.Level.GetTile</text>
</a>
</g>
</g>
<!-- Node1&#45;&gt;Node2 -->
<g id="edge1_Node000001_Node000002" class="edge">
<title>Node1&#45;&gt;Node2</title>
<g id="a_edge1_Node000001_Node000002"><a xlink:title=" ">
<path fill="none" stroke="#63b8ff" d="M146.97,-42.45C165.38,-46.04 184.97,-49.87 202.73,-53.34"/>
<polygon fill="#63b8ff" stroke="#63b8ff" points="201.85,-56.73 212.34,-55.21 203.19,-49.86 201.85,-56.73"/>
</a>
</g>
</g>
<!-- Node3 -->
<g id="Node000003" class="node">
<title>Node3</title>
<g id="a_Node000003"><a xlink:href="classRpgGame_1_1Core_1_1Level.html#a50c45cab6083fa428e8534c83d841f57" target="_top" xlink:title="Retrieves the top item at a position without removing it.">
<polygon fill="white" stroke="#666666" points="347,-37.5 182.5,-37.5 182.5,-19 347,-19 347,-37.5"/>
<text xml:space="preserve" text-anchor="middle" x="264.75" y="-24" font-family="Helvetica,sans-Serif" font-size="10.00">RpgGame.Core.Level.GetTopItem</text>
</a>
</g>
</g>
<!-- Node1&#45;&gt;Node3 -->
<g id="edge2_Node000001_Node000003" class="edge">
<title>Node1&#45;&gt;Node3</title>
<g id="a_edge2_Node000001_Node000003"><a xlink:title=" ">
<path fill="none" stroke="#63b8ff" d="M146.97,-28.25C154.78,-28.25 162.79,-28.25 170.79,-28.25"/>
<polygon fill="#63b8ff" stroke="#63b8ff" points="170.55,-31.75 180.55,-28.25 170.55,-24.75 170.55,-31.75"/>
</a>
</g>
</g>
<!-- Node4 -->
<g id="Node000004" class="node">
<title>Node4</title>
<g id="a_Node000004"><a xlink:href="namespaceRpgGame_1_1Character.html#ab2e6f640f8bfc682c50e3c19e0d417f1" target="_top" xlink:title="A record for tracking Position of Characters, Items, and Tiles if needed.">
<polygon fill="white" stroke="#666666" points="528,-18.5 383,-18.5 383,0 528,0 528,-18.5"/>
<text xml:space="preserve" text-anchor="middle" x="455.5" y="-5" font-family="Helvetica,sans-Serif" font-size="10.00">RpgGame.Character.Position</text>
</a>
</g>
</g>
<!-- Node1&#45;&gt;Node4 -->
<g id="edge5_Node000001_Node000004" class="edge">
<title>Node1&#45;&gt;Node4</title>
<g id="a_edge5_Node000001_Node000004"><a xlink:title=" ">
<path fill="none" stroke="#63b8ff" d="M146.83,-14.53C158.71,-12.76 170.92,-11.23 182.5,-10.25 245.76,-4.91 317.59,-4.9 371.54,-6.1"/>
<polygon fill="#63b8ff" stroke="#63b8ff" points="371.18,-9.59 381.26,-6.34 371.35,-2.59 371.18,-9.59"/>
</a>
</g>
</g>
<!-- Node3&#45;&gt;Node4 -->
<g id="edge3_Node000003_Node000004" class="edge">
<title>Node3&#45;&gt;Node4</title>
<g id="a_edge3_Node000003_Node000004"><a xlink:title=" ">
<path fill="none" stroke="#63b8ff" d="M347.44,-20.03C355.43,-19.22 363.55,-18.41 371.55,-17.6"/>
<polygon fill="#63b8ff" stroke="#63b8ff" points="371.66,-21.11 381.26,-16.62 370.96,-14.14 371.66,-21.11"/>
</a>
</g>
</g>
<!-- Node4&#45;&gt;Node4 -->
<g id="edge4_Node000004_Node000004" class="edge">
<title>Node4&#45;&gt;Node4</title>
<g id="a_edge4_Node000004_Node000004"><a xlink:title=" ">
<path fill="none" stroke="#63b8ff" d="M426.1,-18.75C411.8,-27.32 421.6,-36.5 455.5,-36.5 475.63,-36.5 487.26,-33.26 490.4,-28.84"/>
<polygon fill="#63b8ff" stroke="#63b8ff" points="493.48,-27.18 485.62,-20.07 487.33,-30.53 493.48,-27.18"/>
</a>
</g>
</g>
</g>
</svg>
