<?xml version="1.0" encoding="UTF-8" standalone="no"?>
<!DOCTYPE svg PUBLIC "-//W3C//DTD SVG 1.1//EN"
 "http://www.w3.org/Graphics/SVG/1.1/DTD/svg11.dtd">
<!-- Generated by graphviz version 13.1.2 (20250808.2320)
 -->
<!-- Title: RpgGame.Items.Weapon.OnPickup Pages: 1 -->
<svg width="361pt" height="84pt"
 viewBox="0.00 0.00 361.00 84.00" xmlns="http://www.w3.org/2000/svg" xmlns:xlink="http://www.w3.org/1999/xlink">
<g id="graph0" class="graph" transform="scale(1 1) rotate(0) translate(4 80)">
<title>RpgGame.Items.Weapon.OnPickup</title>
<!-- Node1 -->
<g id="Node000001" class="node">
<title>Node1</title>
<g id="a_Node000001"><a xlink:title="Handles pickup interaction for the weapon.">
<polygon fill="#999999" stroke="#666666" points="172.75,-46.75 0,-46.75 0,-28.25 172.75,-28.25 172.75,-46.75"/>
<text xml:space="preserve" text-anchor="middle" x="86.38" y="-33.25" font-family="Helvetica,sans-Serif" font-size="10.00">RpgGame.Items.Weapon.OnPickup</text>
</a>
</g>
</g>
<!-- Node2 -->
<g id="Node000002" class="node">
<title>Node2</title>
<g id="a_Node000002"><a xlink:href="classRpgGame_1_1Items_1_1Weapon.html#a558ddd2b965991e682b34dd532729a17" target="_top" xlink:title="Attempts to equip the weapon in the player&#39;s left hand.">
<polygon fill="white" stroke="#666666" points="353,-76 208.75,-76 208.75,-47 353,-47 353,-76"/>
<text xml:space="preserve" text-anchor="start" x="216.75" y="-62.5" font-family="Helvetica,sans-Serif" font-size="10.00">RpgGame.Items.Weapon.Try</text>
<text xml:space="preserve" text-anchor="middle" x="280.88" y="-52" font-family="Helvetica,sans-Serif" font-size="10.00">EquipToLeft</text>
</a>
</g>
</g>
<!-- Node1&#45;&gt;Node2 -->
<g id="edge1_Node000001_Node000002" class="edge">
<title>Node1&#45;&gt;Node2</title>
<g id="a_edge1_Node000001_Node000002"><a xlink:title=" ">
<path fill="none" stroke="#63b8ff" d="M165.39,-47.23C175.8,-48.52 186.51,-49.86 197,-51.17"/>
<polygon fill="#63b8ff" stroke="#63b8ff" points="196.41,-54.62 206.77,-52.39 197.28,-47.67 196.41,-54.62"/>
</a>
</g>
</g>
<!-- Node3 -->
<g id="Node000003" class="node">
<title>Node3</title>
<g id="a_Node000003"><a xlink:href="classRpgGame_1_1Items_1_1Weapon.html#a43cade26eb8c185300e3bfe1d06589a0" target="_top" xlink:title="Attempts to equip the weapon in the player&#39;s right hand.">
<polygon fill="white" stroke="#666666" points="353,-29 208.75,-29 208.75,0 353,0 353,-29"/>
<text xml:space="preserve" text-anchor="start" x="216.75" y="-15.5" font-family="Helvetica,sans-Serif" font-size="10.00">RpgGame.Items.Weapon.Try</text>
<text xml:space="preserve" text-anchor="middle" x="280.88" y="-5" font-family="Helvetica,sans-Serif" font-size="10.00">EquipToRight</text>
</a>
</g>
</g>
<!-- Node1&#45;&gt;Node3 -->
<g id="edge2_Node000001_Node000003" class="edge">
<title>Node1&#45;&gt;Node3</title>
<g id="a_edge2_Node000001_Node000003"><a xlink:title=" ">
<path fill="none" stroke="#63b8ff" d="M168.73,-27.78C178.07,-26.66 187.6,-25.53 196.96,-24.41"/>
<polygon fill="#63b8ff" stroke="#63b8ff" points="197.25,-27.9 206.76,-23.24 196.42,-20.95 197.25,-27.9"/>
</a>
</g>
</g>
</g>
</svg>
