<?xml version="1.0" encoding="UTF-8" standalone="no"?>
<!DOCTYPE svg PUBLIC "-//W3C//DTD SVG 1.1//EN"
 "http://www.w3.org/Graphics/SVG/1.1/DTD/svg11.dtd">
<!-- Generated by graphviz version 13.1.2 (20250808.2320)
 -->
<!-- Title: RpgGame.Tiles.WallTile Pages: 1 -->
<svg width="132pt" height="197pt"
 viewBox="0.00 0.00 132.00 197.00" xmlns="http://www.w3.org/2000/svg" xmlns:xlink="http://www.w3.org/1999/xlink">
<g id="graph0" class="graph" transform="scale(1 1) rotate(0) translate(4 193)">
<title>RpgGame.Tiles.WallTile</title>
<!-- Node1 -->
<g id="Node000001" class="node">
<title>Node1</title>
<g id="a_Node000001"><a xlink:title="Represents a solid wall tile that blocks player movement.">
<polygon fill="#999999" stroke="none" points="123.75,-62 0,-62 0,0 123.75,0 123.75,-62"/>
<text xml:space="preserve" text-anchor="start" x="8.62" y="-48.5" font-family="Helvetica,sans-Serif" font-size="10.00">RpgGame.Tiles.WallTile</text>
<text xml:space="preserve" text-anchor="start" x="4" y="-34" font-family="Helvetica,sans-Serif" font-size="10.00">+</text>
<text xml:space="preserve" text-anchor="start" x="14" y="-34" font-family="Helvetica,sans-Serif" font-size="10.00">override char Symbol</text>
<text xml:space="preserve" text-anchor="start" x="4" y="-19.5" font-family="Helvetica,sans-Serif" font-size="10.00">+</text>
<text xml:space="preserve" text-anchor="start" x="14" y="-19.5" font-family="Helvetica,sans-Serif" font-size="10.00">override bool IsWalkable</text>
<text xml:space="preserve" text-anchor="start" x="60.38" y="-5" font-family="Helvetica,sans-Serif" font-size="10.00"> </text>
<polygon fill="#666666" stroke="#666666" points="0,-45.5 0,-45.5 123.75,-45.5 123.75,-45.5 0,-45.5"/>
<polygon fill="#666666" stroke="#666666" points="0,-16.5 0,-16.5 12,-16.5 12,-16.5 0,-16.5"/>
<polygon fill="#666666" stroke="#666666" points="12,-16.5 12,-16.5 123.75,-16.5 123.75,-16.5 12,-16.5"/>
<polygon fill="none" stroke="#666666" points="0,0 0,-62 123.75,-62 123.75,0 0,0"/>
</a>
</g>
</g>
<!-- Node2 -->
<g id="Node000002" class="node">
<title>Node2</title>
<g id="a_Node000002"><a xlink:href="classRpgGame_1_1Tiles_1_1Tile.html" target="_top" xlink:title="Base abstract class representing a tile in the game world.">
<polygon fill="white" stroke="none" points="113.62,-189 10.12,-189 10.12,-98 113.62,-98 113.62,-189"/>
<text xml:space="preserve" text-anchor="start" x="18" y="-175.5" font-family="Helvetica,sans-Serif" font-size="10.00">RpgGame.Tiles.Tile</text>
<text xml:space="preserve" text-anchor="start" x="14.12" y="-161" font-family="Helvetica,sans-Serif" font-size="10.00">+</text>
<text xml:space="preserve" text-anchor="start" x="24.12" y="-161" font-family="Helvetica,sans-Serif" font-size="10.00">List&lt; Tile &gt; PosList</text>
<text xml:space="preserve" text-anchor="start" x="14.12" y="-146.5" font-family="Helvetica,sans-Serif" font-size="10.00">+</text>
<text xml:space="preserve" text-anchor="start" x="24.12" y="-146.5" font-family="Helvetica,sans-Serif" font-size="10.00">char Symbol</text>
<text xml:space="preserve" text-anchor="start" x="14.12" y="-132" font-family="Helvetica,sans-Serif" font-size="10.00">+</text>
<text xml:space="preserve" text-anchor="start" x="24.12" y="-132" font-family="Helvetica,sans-Serif" font-size="10.00">bool IsWalkable</text>
<text xml:space="preserve" text-anchor="start" x="14.12" y="-117.5" font-family="Helvetica,sans-Serif" font-size="10.00">+</text>
<text xml:space="preserve" text-anchor="start" x="24.12" y="-117.5" font-family="Helvetica,sans-Serif" font-size="10.00">bool IsOccupied</text>
<text xml:space="preserve" text-anchor="start" x="60.38" y="-103" font-family="Helvetica,sans-Serif" font-size="10.00"> </text>
<polygon fill="#666666" stroke="#666666" points="10.12,-172.5 10.12,-172.5 113.62,-172.5 113.62,-172.5 10.12,-172.5"/>
<polygon fill="#666666" stroke="#666666" points="10.12,-114.5 10.12,-114.5 22.12,-114.5 22.12,-114.5 10.12,-114.5"/>
<polygon fill="#666666" stroke="#666666" points="22.12,-114.5 22.12,-114.5 113.62,-114.5 113.62,-114.5 22.12,-114.5"/>
<polygon fill="none" stroke="#666666" points="10.12,-98 10.12,-189 113.62,-189 113.62,-98 10.12,-98"/>
</a>
</g>
</g>
<!-- Node2&#45;&gt;Node1 -->
<g id="edge1_Node000001_Node000002" class="edge">
<title>Node2&#45;&gt;Node1</title>
<g id="a_edge1_Node000001_Node000002"><a xlink:title=" ">
<path fill="none" stroke="#63b8ff" d="M61.88,-86.86C61.88,-78.19 61.88,-69.53 61.88,-61.74"/>
<polygon fill="none" stroke="#63b8ff" points="58.38,-86.68 61.88,-96.68 65.38,-86.68 58.38,-86.68"/>
</a>
</g>
</g>
</g>
</svg>
