<?xml version="1.0" encoding="UTF-8" standalone="no"?>
<!DOCTYPE svg PUBLIC "-//W3C//DTD SVG 1.1//EN"
 "http://www.w3.org/Graphics/SVG/1.1/DTD/svg11.dtd">
<!-- Generated by graphviz version 13.1.2 (20250808.2320)
 -->
<!-- Title: RpgGame.Input.DropLeftCommand Pages: 1 -->
<svg width="171pt" height="181pt"
 viewBox="0.00 0.00 171.00 181.00" xmlns="http://www.w3.org/2000/svg" xmlns:xlink="http://www.w3.org/1999/xlink">

<svg id="main" version="1.1" xmlns="http://www.w3.org/2000/svg" xmlns:xlink="http://www.w3.org/1999/xlink" xml:space="preserve">

<style type="text/css"><![CDATA[
.node, .edge {opacity: 0.7;}
.node.selected, .edge.selected {opacity: 1;}
.edge:hover path { stroke: red; }
.edge:hover polygon { stroke: red; fill: red; }
]]></style>
<script type="application/ecmascript" xlink:href="svg.min.js"/>
<svg id="graph" class="graph">
<g id="graph0" class="graph" transform="scale(1 1) rotate(0) translate(4 177)">
<title>RpgGame.Input.DropLeftCommand</title>
<!-- Node1 -->
<g id="Node000001" class="node">
<title>Node1</title>
<g id="a_Node000001"><a xlink:title="Instructs the player to drop the item in their left hand onto the level.">
<polygon fill="#999999" stroke="none" points="162.5,-68.5 0,-68.5 0,0 162.5,0 162.5,-68.5"/>
<text xml:space="preserve" text-anchor="start" x="4" y="-55" font-family="Helvetica,sans-Serif" font-size="10.00">RpgGame.Input.DropLeftCommand</text>
<text xml:space="preserve" text-anchor="start" x="79.75" y="-40.5" font-family="Helvetica,sans-Serif" font-size="10.00"> </text>
<text xml:space="preserve" text-anchor="start" x="13.88" y="-26" font-family="Helvetica,sans-Serif" font-size="10.00">+</text>
<text xml:space="preserve" text-anchor="start" x="33.75" y="-26" font-family="Helvetica,sans-Serif" font-size="10.00">int Execute(Level level,</text>
<text xml:space="preserve" text-anchor="start" x="33.75" y="-15.5" font-family="Helvetica,sans-Serif" font-size="10.00"> Player player, Inventory</text>
<text xml:space="preserve" text-anchor="start" x="33.75" y="-5" font-family="Helvetica,sans-Serif" font-size="10.00"> inventory)</text>
<polygon fill="#666666" stroke="#666666" points="0,-52 0,-52 162.5,-52 162.5,-52 0,-52"/>
<polygon fill="#666666" stroke="#666666" points="0,-37.5 0,-37.5 162.5,-37.5 162.5,-37.5 0,-37.5"/>
<polygon fill="none" stroke="#666666" points="0,0 0,-68.5 162.5,-68.5 162.5,0 0,0"/>
</a>
</g>
</g>
<!-- Node2 -->
<g id="Node000002" class="node">
<title>Node2</title>
<g id="a_Node000002"><a xlink:href="interfaceRpgGame_1_1Input_1_1IInputCommand.html" target="_top" xlink:title="Represents a user input command that manipulates the game state (level, player, inventory) and return...">
<polygon fill="white" stroke="none" points="156.12,-173 6.38,-173 6.38,-104.5 156.12,-104.5 156.12,-173"/>
<text xml:space="preserve" text-anchor="start" x="10.38" y="-159.5" font-family="Helvetica,sans-Serif" font-size="10.00">RpgGame.Input.IInputCommand</text>
<text xml:space="preserve" text-anchor="start" x="79.75" y="-145" font-family="Helvetica,sans-Serif" font-size="10.00"> </text>
<text xml:space="preserve" text-anchor="start" x="17.06" y="-130.5" font-family="Helvetica,sans-Serif" font-size="10.00">+</text>
<text xml:space="preserve" text-anchor="start" x="33.75" y="-130.5" font-family="Helvetica,sans-Serif" font-size="10.00">int Execute(Level level,</text>
<text xml:space="preserve" text-anchor="start" x="33.75" y="-120" font-family="Helvetica,sans-Serif" font-size="10.00"> Player player, Inventory</text>
<text xml:space="preserve" text-anchor="start" x="33.75" y="-109.5" font-family="Helvetica,sans-Serif" font-size="10.00"> inventory)</text>
<polygon fill="#666666" stroke="#666666" points="6.38,-156.5 6.38,-156.5 156.12,-156.5 156.12,-156.5 6.38,-156.5"/>
<polygon fill="#666666" stroke="#666666" points="6.38,-142 6.38,-142 156.12,-142 156.12,-142 6.38,-142"/>
<polygon fill="none" stroke="#666666" points="6.38,-104.5 6.38,-173 156.12,-173 156.12,-104.5 6.38,-104.5"/>
</a>
</g>
</g>
<!-- Node2&#45;&gt;Node1 -->
<g id="edge1_Node000001_Node000002" class="edge">
<title>Node2&#45;&gt;Node1</title>
<g id="a_edge1_Node000001_Node000002"><a xlink:title=" ">
<path fill="none" stroke="#63b8ff" d="M81.25,-93.44C81.25,-84.96 81.25,-76.23 81.25,-68.18"/>
<polygon fill="none" stroke="#63b8ff" points="77.75,-93.24 81.25,-103.24 84.75,-93.24 77.75,-93.24"/>
</a>
</g>
</g>
</g>
</svg>
</svg>

<style type='text/css'>
<![CDATA[
[data-mouse-over-selected='false'] { opacity: 0.7; }
[data-mouse-over-selected='true']  { opacity: 1.0; }
]]>
</style>
<script type="application/ecmascript"><![CDATA[
document.addEventListener('DOMContentLoaded', (event) => {
  highlightEdges();
  highlightAdjacentNodes();
});
]]></script>
</svg>
