<?xml version="1.0" encoding="UTF-8" standalone="no"?>
<!DOCTYPE svg PUBLIC "-//W3C//DTD SVG 1.1//EN"
 "http://www.w3.org/Graphics/SVG/1.1/DTD/svg11.dtd">
<!-- Generated by graphviz version 13.1.2 (20250808.2320)
 -->
<!-- Title: RpgGame.Generation.IDungeonProcedure Pages: 1 -->
<!--zoomable 238 -->

<svg id="main" version="1.1" xmlns="http://www.w3.org/2000/svg" xmlns:xlink="http://www.w3.org/1999/xlink" xml:space="preserve" onload="init(evt)">

<style type="text/css"><![CDATA[
.node, .edge {opacity: 0.7;}
.node.selected, .edge.selected {opacity: 1;}
.edge:hover path { stroke: red; }
.edge:hover polygon { stroke: red; fill: red; }
]]></style>

<defs>
  <circle id="rim" cx="0" cy="0" r="7"/>
  <circle id="rim2" cx="0" cy="0" r="3.5"/>
  <g id="zoomPlus">
    <use xlink:href="#rim" fill="#404040"><set attributeName="fill" to="#808080" begin="zoomplus.mouseover" end="zoomplus.mouseout"/></use>
    <path d="M-4,0h8M0,-4v8" fill="none" stroke="white" stroke-width="1.5" pointer-events="none"/>
  </g>
  <g id="zoomMin">
    <use xlink:href="#rim" fill="#404040"><set attributeName="fill" to="#808080" begin="zoomminus.mouseover" end="zoomminus.mouseout"/></use>
    <path d="M-4,0h8" fill="none" stroke="white" stroke-width="1.5" pointer-events="none"/>
  </g>
  <g id="arrowUp" transform="translate(30 24)">
    <use xlink:href="#rim"/>
    <path pointer-events="none" fill="none" stroke="white" stroke-width="1.5" d="M0,-3.0v7 M-2.5,-0.5L0,-3.0L2.5,-0.5"/>
  </g>
  <g id="arrowRight" transform="rotate(90) translate(36 -43)">
    <use xlink:href="#rim"/>
    <path pointer-events="none" fill="none" stroke="white" stroke-width="1.5" d="M0,-3.0v7 M-2.5,-0.5L0,-3.0L2.5,-0.5"/>
  </g>
  <g id="arrowDown" transform="rotate(180) translate(-30 -48)">
    <use xlink:href="#rim"/>
    <path pointer-events="none" fill="none" stroke="white" stroke-width="1.5" d="M0,-3.0v7 M-2.5,-0.5L0,-3.0L2.5,-0.5"/>
  </g>
  <g id="arrowLeft" transform="rotate(270) translate(-36 17)">
    <use xlink:href="#rim"/>
    <path pointer-events="none" fill="none" stroke="white" stroke-width="1.5" d="M0,-3.0v7 M-2.5,-0.5L0,-3.0L2.5,-0.5"/>
  </g>
  <g id="resetDef">
    <use xlink:href="#rim2" fill="#404040"><set attributeName="fill" to="#808080" begin="reset.mouseover" end="reset.mouseout"/></use>
  </g>
</defs>
<script type="application/ecmascript">
var viewWidth = 1229;
var viewHeight = 238;
var sectionId = 'dynsection-0';
</script>
<script type="application/ecmascript" xlink:href="svg.min.js"/>
<svg id="graph" class="graph">
<g id="viewport">
<title>RpgGame.Generation.IDungeonProcedure</title>
<!-- Node1 -->
<g id="Node000001" class="node">
<title>Node1</title>
<g id="a_Node000001"><a xlink:title="Defines a procedural step in dungeon generation.">
<polygon fill="#999999" stroke="none" points="684.5,-229.5 536.25,-229.5 536.25,-150.5 684.5,-150.5 684.5,-229.5"/>
<text xml:space="preserve" text-anchor="start" x="540.25" y="-216" font-family="Helvetica,sans-Serif" font-size="10.00">RpgGame.Generation.IDungeon</text>
<text xml:space="preserve" text-anchor="start" x="588.25" y="-205.5" font-family="Helvetica,sans-Serif" font-size="10.00">Procedure</text>
<text xml:space="preserve" text-anchor="start" x="608.88" y="-191" font-family="Helvetica,sans-Serif" font-size="10.00"> </text>
<text xml:space="preserve" text-anchor="start" x="547.31" y="-176.5" font-family="Helvetica,sans-Serif" font-size="10.00">+</text>
<text xml:space="preserve" text-anchor="start" x="564.38" y="-176.5" font-family="Helvetica,sans-Serif" font-size="10.00">Task ApplyAsync(Level</text>
<text xml:space="preserve" text-anchor="start" x="564.38" y="-166" font-family="Helvetica,sans-Serif" font-size="10.00"> level, DungeonContext</text>
<text xml:space="preserve" text-anchor="start" x="564.38" y="-155.5" font-family="Helvetica,sans-Serif" font-size="10.00"> context)</text>
<polygon fill="#666666" stroke="#666666" points="536.25,-202.5 536.25,-202.5 684.5,-202.5 684.5,-202.5 536.25,-202.5"/>
<polygon fill="#666666" stroke="#666666" points="536.25,-188 536.25,-188 684.5,-188 684.5,-188 536.25,-188"/>
<polygon fill="none" stroke="#666666" points="536.25,-150.5 536.25,-229.5 684.5,-229.5 684.5,-150.5 536.25,-150.5"/>
</a>
</g>
</g>
<!-- Node2 -->
<g id="Node000002" class="node">
<title>Node2</title>
<g id="a_Node000002"><a xlink:href="classRpgGame_1_1Generation_1_1Procedures_1_1AddItemsProcedure.html" target="_top" xlink:title="Spawns treasure items (coins and gold) at random locations in the dungeon.">
<polygon fill="white" stroke="none" points="158.75,-114.5 0,-114.5 0,0 158.75,0 158.75,-114.5"/>
<text xml:space="preserve" text-anchor="start" x="4" y="-101" font-family="Helvetica,sans-Serif" font-size="10.00">RpgGame.Generation.Procedures.</text>
<text xml:space="preserve" text-anchor="start" x="36.25" y="-90.5" font-family="Helvetica,sans-Serif" font-size="10.00">AddItemsProcedure</text>
<text xml:space="preserve" text-anchor="start" x="77.88" y="-76" font-family="Helvetica,sans-Serif" font-size="10.00"> </text>
<text xml:space="preserve" text-anchor="start" x="7.31" y="-61.5" font-family="Helvetica,sans-Serif" font-size="10.00">+</text>
<text xml:space="preserve" text-anchor="start" x="20.62" y="-61.5" font-family="Helvetica,sans-Serif" font-size="10.00">AddItemsProcedure</text>
<text xml:space="preserve" text-anchor="start" x="20.62" y="-51" font-family="Helvetica,sans-Serif" font-size="10.00">(int CoinCount=5, int</text>
<text xml:space="preserve" text-anchor="start" x="20.62" y="-40.5" font-family="Helvetica,sans-Serif" font-size="10.00"> GoldCount=2)</text>
<text xml:space="preserve" text-anchor="start" x="7.31" y="-26" font-family="Helvetica,sans-Serif" font-size="10.00">+</text>
<text xml:space="preserve" text-anchor="start" x="20.62" y="-26" font-family="Helvetica,sans-Serif" font-size="10.00">async Task ApplyAsync</text>
<text xml:space="preserve" text-anchor="start" x="20.62" y="-15.5" font-family="Helvetica,sans-Serif" font-size="10.00">(Level level, DungeonContext</text>
<text xml:space="preserve" text-anchor="start" x="20.62" y="-5" font-family="Helvetica,sans-Serif" font-size="10.00"> context)</text>
<polygon fill="#666666" stroke="#666666" points="0,-87.5 0,-87.5 158.75,-87.5 158.75,-87.5 0,-87.5"/>
<polygon fill="#666666" stroke="#666666" points="0,-73 0,-73 158.75,-73 158.75,-73 0,-73"/>
<polygon fill="none" stroke="#666666" points="0,0 0,-114.5 158.75,-114.5 158.75,0 0,0"/>
</a>
</g>
</g>
<!-- Node1&#45;&gt;Node2 -->
<g id="edge1_Node000001_Node000002" class="edge">
<title>Node1&#45;&gt;Node2</title>
<g id="a_edge1_Node000001_Node000002"><a xlink:title=" ">
<path fill="none" stroke="#63b8ff" d="M525.11,-184.62C434.13,-177.68 287.04,-159.89 168.38,-114.5 165.13,-113.26 161.88,-111.89 158.64,-110.43"/>
<polygon fill="none" stroke="#63b8ff" points="524.74,-188.1 534.96,-185.34 525.25,-181.12 524.74,-188.1"/>
</a>
</g>
</g>
<!-- Node3 -->
<g id="Node000003" class="node">
<title>Node3</title>
<g id="a_Node000003"><a xlink:href="classRpgGame_1_1Generation_1_1Procedures_1_1AddWeaponsProcedure.html" target="_top" xlink:title="Spawns weapons (swords and double swords) at random locations in the dungeon.">
<polygon fill="white" stroke="none" points="335.75,-114.5 177,-114.5 177,0 335.75,0 335.75,-114.5"/>
<text xml:space="preserve" text-anchor="start" x="181" y="-101" font-family="Helvetica,sans-Serif" font-size="10.00">RpgGame.Generation.Procedures.</text>
<text xml:space="preserve" text-anchor="start" x="205.38" y="-90.5" font-family="Helvetica,sans-Serif" font-size="10.00">AddWeaponsProcedure</text>
<text xml:space="preserve" text-anchor="start" x="254.88" y="-76" font-family="Helvetica,sans-Serif" font-size="10.00"> </text>
<text xml:space="preserve" text-anchor="start" x="184.31" y="-61.5" font-family="Helvetica,sans-Serif" font-size="10.00">+</text>
<text xml:space="preserve" text-anchor="start" x="197.62" y="-61.5" font-family="Helvetica,sans-Serif" font-size="10.00">AddWeaponsProcedure</text>
<text xml:space="preserve" text-anchor="start" x="197.62" y="-51" font-family="Helvetica,sans-Serif" font-size="10.00">(int SwordCount=2, int</text>
<text xml:space="preserve" text-anchor="start" x="197.62" y="-40.5" font-family="Helvetica,sans-Serif" font-size="10.00"> DoubleSwordCount=1)</text>
<text xml:space="preserve" text-anchor="start" x="184.31" y="-26" font-family="Helvetica,sans-Serif" font-size="10.00">+</text>
<text xml:space="preserve" text-anchor="start" x="197.62" y="-26" font-family="Helvetica,sans-Serif" font-size="10.00">async Task ApplyAsync</text>
<text xml:space="preserve" text-anchor="start" x="197.62" y="-15.5" font-family="Helvetica,sans-Serif" font-size="10.00">(Level level, DungeonContext</text>
<text xml:space="preserve" text-anchor="start" x="197.62" y="-5" font-family="Helvetica,sans-Serif" font-size="10.00"> context)</text>
<polygon fill="#666666" stroke="#666666" points="177,-87.5 177,-87.5 335.75,-87.5 335.75,-87.5 177,-87.5"/>
<polygon fill="#666666" stroke="#666666" points="177,-73 177,-73 335.75,-73 335.75,-73 177,-73"/>
<polygon fill="none" stroke="#666666" points="177,0 177,-114.5 335.75,-114.5 335.75,0 177,0"/>
</a>
</g>
</g>
<!-- Node1&#45;&gt;Node3 -->
<g id="edge2_Node000001_Node000003" class="edge">
<title>Node1&#45;&gt;Node3</title>
<g id="a_edge2_Node000001_Node000003"><a xlink:title=" ">
<path fill="none" stroke="#63b8ff" d="M525.33,-171.71C472.25,-159.33 403.25,-140.27 345.38,-114.5 342.12,-113.05 338.84,-111.5 335.57,-109.86"/>
<polygon fill="none" stroke="#63b8ff" points="524.4,-175.09 534.93,-173.92 525.97,-168.27 524.4,-175.09"/>
</a>
</g>
</g>
<!-- Node4 -->
<g id="Node000004" class="node">
<title>Node4</title>
<g id="a_Node000004"><a xlink:href="classRpgGame_1_1Generation_1_1Procedures_1_1CentralRoomProcedure.html" target="_top" xlink:title="Generates a central room in the dungeon.">
<polygon fill="white" stroke="none" points="512.75,-109.25 354,-109.25 354,-5.25 512.75,-5.25 512.75,-109.25"/>
<text xml:space="preserve" text-anchor="start" x="358" y="-95.75" font-family="Helvetica,sans-Serif" font-size="10.00">RpgGame.Generation.Procedures.</text>
<text xml:space="preserve" text-anchor="start" x="382.38" y="-85.25" font-family="Helvetica,sans-Serif" font-size="10.00">CentralRoomProcedure</text>
<text xml:space="preserve" text-anchor="start" x="431.88" y="-70.75" font-family="Helvetica,sans-Serif" font-size="10.00"> </text>
<text xml:space="preserve" text-anchor="start" x="367.69" y="-56.25" font-family="Helvetica,sans-Serif" font-size="10.00">+</text>
<text xml:space="preserve" text-anchor="start" x="387.38" y="-56.25" font-family="Helvetica,sans-Serif" font-size="10.00">CentralRoomProcedure</text>
<text xml:space="preserve" text-anchor="start" x="387.38" y="-45.75" font-family="Helvetica,sans-Serif" font-size="10.00">(int width, int height)</text>
<text xml:space="preserve" text-anchor="start" x="367.69" y="-31.25" font-family="Helvetica,sans-Serif" font-size="10.00">+</text>
<text xml:space="preserve" text-anchor="start" x="387.38" y="-31.25" font-family="Helvetica,sans-Serif" font-size="10.00">Task ApplyAsync(Level</text>
<text xml:space="preserve" text-anchor="start" x="387.38" y="-20.75" font-family="Helvetica,sans-Serif" font-size="10.00"> level, DungeonContext</text>
<text xml:space="preserve" text-anchor="start" x="387.38" y="-10.25" font-family="Helvetica,sans-Serif" font-size="10.00"> context)</text>
<polygon fill="#666666" stroke="#666666" points="354,-82.25 354,-82.25 512.75,-82.25 512.75,-82.25 354,-82.25"/>
<polygon fill="#666666" stroke="#666666" points="354,-67.75 354,-67.75 512.75,-67.75 512.75,-67.75 354,-67.75"/>
<polygon fill="none" stroke="#666666" points="354,-5.25 354,-109.25 512.75,-109.25 512.75,-5.25 354,-5.25"/>
</a>
</g>
</g>
<!-- Node1&#45;&gt;Node4 -->
<g id="edge3_Node000001_Node000004" class="edge">
<title>Node1&#45;&gt;Node4</title>
<g id="a_edge3_Node000001_Node000004"><a xlink:title=" ">
<path fill="none" stroke="#63b8ff" d="M549.84,-144.28C534.51,-132.96 517.94,-120.72 502.23,-109.11"/>
<polygon fill="none" stroke="#63b8ff" points="547.36,-146.8 557.49,-149.93 551.52,-141.17 547.36,-146.8"/>
</a>
</g>
</g>
<!-- Node5 -->
<g id="Node000005" class="node">
<title>Node5</title>
<g id="a_Node000005"><a xlink:href="classRpgGame_1_1Generation_1_1Procedures_1_1ChambersProcedure.html" target="_top" xlink:title="Generates multiple random chamber rooms in the dungeon.">
<polygon fill="white" stroke="none" points="689.75,-109.25 531,-109.25 531,-5.25 689.75,-5.25 689.75,-109.25"/>
<text xml:space="preserve" text-anchor="start" x="535" y="-95.75" font-family="Helvetica,sans-Serif" font-size="10.00">RpgGame.Generation.Procedures.</text>
<text xml:space="preserve" text-anchor="start" x="565.38" y="-85.25" font-family="Helvetica,sans-Serif" font-size="10.00">ChambersProcedure</text>
<text xml:space="preserve" text-anchor="start" x="608.88" y="-70.75" font-family="Helvetica,sans-Serif" font-size="10.00"> </text>
<text xml:space="preserve" text-anchor="start" x="544.69" y="-56.25" font-family="Helvetica,sans-Serif" font-size="10.00">+</text>
<text xml:space="preserve" text-anchor="start" x="564.38" y="-56.25" font-family="Helvetica,sans-Serif" font-size="10.00">ChambersProcedure</text>
<text xml:space="preserve" text-anchor="start" x="564.38" y="-45.75" font-family="Helvetica,sans-Serif" font-size="10.00">(int roomCount)</text>
<text xml:space="preserve" text-anchor="start" x="544.69" y="-31.25" font-family="Helvetica,sans-Serif" font-size="10.00">+</text>
<text xml:space="preserve" text-anchor="start" x="564.38" y="-31.25" font-family="Helvetica,sans-Serif" font-size="10.00">Task ApplyAsync(Level</text>
<text xml:space="preserve" text-anchor="start" x="564.38" y="-20.75" font-family="Helvetica,sans-Serif" font-size="10.00"> level, DungeonContext</text>
<text xml:space="preserve" text-anchor="start" x="564.38" y="-10.25" font-family="Helvetica,sans-Serif" font-size="10.00"> context)</text>
<polygon fill="#666666" stroke="#666666" points="531,-82.25 531,-82.25 689.75,-82.25 689.75,-82.25 531,-82.25"/>
<polygon fill="#666666" stroke="#666666" points="531,-67.75 531,-67.75 689.75,-67.75 689.75,-67.75 531,-67.75"/>
<polygon fill="none" stroke="#666666" points="531,-5.25 531,-109.25 689.75,-109.25 689.75,-5.25 531,-5.25"/>
</a>
</g>
</g>
<!-- Node1&#45;&gt;Node5 -->
<g id="edge4_Node000001_Node000005" class="edge">
<title>Node1&#45;&gt;Node5</title>
<g id="a_edge4_Node000001_Node000005"><a xlink:title=" ">
<path fill="none" stroke="#63b8ff" d="M610.38,-139.4C610.38,-129.41 610.38,-118.9 610.38,-108.87"/>
<polygon fill="none" stroke="#63b8ff" points="606.88,-139.32 610.38,-149.32 613.88,-139.32 606.88,-139.32"/>
</a>
</g>
</g>
<!-- Node6 -->
<g id="Node000006" class="node">
<title>Node6</title>
<g id="a_Node000006"><a xlink:href="classRpgGame_1_1Generation_1_1Procedures_1_1EmptyDungeonProcedure.html" target="_top" xlink:title="Fills the entire dungeon with floor tiles, creating an empty open space.">
<polygon fill="white" stroke="none" points="866.75,-96.75 708,-96.75 708,-17.75 866.75,-17.75 866.75,-96.75"/>
<text xml:space="preserve" text-anchor="start" x="712" y="-83.25" font-family="Helvetica,sans-Serif" font-size="10.00">RpgGame.Generation.Procedures.</text>
<text xml:space="preserve" text-anchor="start" x="731.5" y="-72.75" font-family="Helvetica,sans-Serif" font-size="10.00">EmptyDungeonProcedure</text>
<text xml:space="preserve" text-anchor="start" x="785.88" y="-58.25" font-family="Helvetica,sans-Serif" font-size="10.00"> </text>
<text xml:space="preserve" text-anchor="start" x="721.69" y="-43.75" font-family="Helvetica,sans-Serif" font-size="10.00">+</text>
<text xml:space="preserve" text-anchor="start" x="741.38" y="-43.75" font-family="Helvetica,sans-Serif" font-size="10.00">Task ApplyAsync(Level</text>
<text xml:space="preserve" text-anchor="start" x="741.38" y="-33.25" font-family="Helvetica,sans-Serif" font-size="10.00"> level, DungeonContext</text>
<text xml:space="preserve" text-anchor="start" x="741.38" y="-22.75" font-family="Helvetica,sans-Serif" font-size="10.00"> context)</text>
<polygon fill="#666666" stroke="#666666" points="708,-69.75 708,-69.75 866.75,-69.75 866.75,-69.75 708,-69.75"/>
<polygon fill="#666666" stroke="#666666" points="708,-55.25 708,-55.25 866.75,-55.25 866.75,-55.25 708,-55.25"/>
<polygon fill="none" stroke="#666666" points="708,-17.75 708,-96.75 866.75,-96.75 866.75,-17.75 708,-17.75"/>
</a>
</g>
</g>
<!-- Node1&#45;&gt;Node6 -->
<g id="edge5_Node000001_Node000006" class="edge">
<title>Node1&#45;&gt;Node6</title>
<g id="a_edge5_Node000001_Node000006"><a xlink:title=" ">
<path fill="none" stroke="#63b8ff" d="M671.15,-144.11C692.03,-128.68 715.21,-111.56 735.33,-96.69"/>
<polygon fill="none" stroke="#63b8ff" points="669.23,-141.17 663.26,-149.93 673.39,-146.8 669.23,-141.17"/>
</a>
</g>
</g>
<!-- Node7 -->
<g id="Node000007" class="node">
<title>Node7</title>
<g id="a_Node000007"><a xlink:href="classRpgGame_1_1Generation_1_1Procedures_1_1FilledDungeonProcedure.html" target="_top" xlink:title="Fills the entire dungeon with wall tiles, creating a solid base for carving.">
<polygon fill="white" stroke="none" points="1043.75,-96.75 885,-96.75 885,-17.75 1043.75,-17.75 1043.75,-96.75"/>
<text xml:space="preserve" text-anchor="start" x="889" y="-83.25" font-family="Helvetica,sans-Serif" font-size="10.00">RpgGame.Generation.Procedures.</text>
<text xml:space="preserve" text-anchor="start" x="911.12" y="-72.75" font-family="Helvetica,sans-Serif" font-size="10.00">FilledDungeonProcedure</text>
<text xml:space="preserve" text-anchor="start" x="962.88" y="-58.25" font-family="Helvetica,sans-Serif" font-size="10.00"> </text>
<text xml:space="preserve" text-anchor="start" x="898.69" y="-43.75" font-family="Helvetica,sans-Serif" font-size="10.00">+</text>
<text xml:space="preserve" text-anchor="start" x="918.38" y="-43.75" font-family="Helvetica,sans-Serif" font-size="10.00">Task ApplyAsync(Level</text>
<text xml:space="preserve" text-anchor="start" x="918.38" y="-33.25" font-family="Helvetica,sans-Serif" font-size="10.00"> level, DungeonContext</text>
<text xml:space="preserve" text-anchor="start" x="918.38" y="-22.75" font-family="Helvetica,sans-Serif" font-size="10.00"> context)</text>
<polygon fill="#666666" stroke="#666666" points="885,-69.75 885,-69.75 1043.75,-69.75 1043.75,-69.75 885,-69.75"/>
<polygon fill="#666666" stroke="#666666" points="885,-55.25 885,-55.25 1043.75,-55.25 1043.75,-55.25 885,-55.25"/>
<polygon fill="none" stroke="#666666" points="885,-17.75 885,-96.75 1043.75,-96.75 1043.75,-17.75 885,-17.75"/>
</a>
</g>
</g>
<!-- Node1&#45;&gt;Node7 -->
<g id="edge6_Node000001_Node000007" class="edge">
<title>Node1&#45;&gt;Node7</title>
<g id="a_edge6_Node000001_Node000007"><a xlink:title=" ">
<path fill="none" stroke="#63b8ff" d="M695.42,-171.71C748.5,-159.33 817.5,-140.27 875.38,-114.5 886.73,-109.44 898.33,-103.11 909.25,-96.52"/>
<polygon fill="none" stroke="#63b8ff" points="694.78,-168.27 685.82,-173.92 696.35,-175.09 694.78,-168.27"/>
</a>
</g>
</g>
<!-- Node8 -->
<g id="Node000008" class="node">
<title>Node8</title>
<g id="a_Node000008"><a xlink:href="classRpgGame_1_1Generation_1_1Procedures_1_1PathsProcedure.html" target="_top" xlink:title="Generates corridors connecting all rooms to a central room.">
<polygon fill="white" stroke="none" points="1220.75,-96.75 1062,-96.75 1062,-17.75 1220.75,-17.75 1220.75,-96.75"/>
<text xml:space="preserve" text-anchor="start" x="1066" y="-83.25" font-family="Helvetica,sans-Serif" font-size="10.00">RpgGame.Generation.Procedures.</text>
<text xml:space="preserve" text-anchor="start" x="1106.5" y="-72.75" font-family="Helvetica,sans-Serif" font-size="10.00">PathsProcedure</text>
<text xml:space="preserve" text-anchor="start" x="1139.88" y="-58.25" font-family="Helvetica,sans-Serif" font-size="10.00"> </text>
<text xml:space="preserve" text-anchor="start" x="1075.69" y="-43.75" font-family="Helvetica,sans-Serif" font-size="10.00">+</text>
<text xml:space="preserve" text-anchor="start" x="1095.38" y="-43.75" font-family="Helvetica,sans-Serif" font-size="10.00">Task ApplyAsync(Level</text>
<text xml:space="preserve" text-anchor="start" x="1095.38" y="-33.25" font-family="Helvetica,sans-Serif" font-size="10.00"> level, DungeonContext</text>
<text xml:space="preserve" text-anchor="start" x="1095.38" y="-22.75" font-family="Helvetica,sans-Serif" font-size="10.00"> context)</text>
<polygon fill="#666666" stroke="#666666" points="1062,-69.75 1062,-69.75 1220.75,-69.75 1220.75,-69.75 1062,-69.75"/>
<polygon fill="#666666" stroke="#666666" points="1062,-55.25 1062,-55.25 1220.75,-55.25 1220.75,-55.25 1062,-55.25"/>
<polygon fill="none" stroke="#666666" points="1062,-17.75 1062,-96.75 1220.75,-96.75 1220.75,-17.75 1062,-17.75"/>
</a>
</g>
</g>
<!-- Node1&#45;&gt;Node8 -->
<g id="edge7_Node000001_Node000008" class="edge">
<title>Node1&#45;&gt;Node8</title>
<g id="a_edge7_Node000001_Node000008"><a xlink:title=" ">
<path fill="none" stroke="#63b8ff" d="M695.64,-184.62C786.62,-177.68 933.71,-159.89 1052.38,-114.5 1064.5,-109.86 1076.74,-103.47 1088.11,-96.66"/>
<polygon fill="none" stroke="#63b8ff" points="695.5,-181.12 685.79,-185.34 696.01,-188.1 695.5,-181.12"/>
</a>
</g>
</g>
</g>
</svg>

<g id="navigator" transform="translate(0 0)" fill="#404254">
  <rect fill="#f2f5e9" fill-opacity="0.5" stroke="#606060" stroke-width=".5" x="0" y="0" width="60" height="60"/>
  <use id="zoomplus" xlink:href="#zoomPlus" x="17" y="9" onmousedown="handleZoom(evt,'in')"/>
  <use id="zoomminus" xlink:href="#zoomMin" x="42" y="9" onmousedown="handleZoom(evt,'out')"/>
  <use id="reset" xlink:href="#resetDef" x="30" y="36" onmousedown="handleReset()"/>
   <use id="arrowup" xlink:href="#arrowUp" x="0" y="0" onmousedown="handlePan(0,-1)"/>
  <use id="arrowright" xlink:href="#arrowRight" x="0" y="0" onmousedown="handlePan(1,0)"/>
  <use id="arrowdown" xlink:href="#arrowDown" x="0" y="0" onmousedown="handlePan(0,1)"/>
  <use id="arrowleft" xlink:href="#arrowLeft" x="0" y="0" onmousedown="handlePan(-1,0)"/>
</g>
<svg viewBox="0 0 15 15" width="100%" height="30px" preserveAspectRatio="xMaxYMin meet">
 <g id="arrow_out" transform="scale(0.3 0.3)">
  <a xlink:href="interfaceRpgGame_1_1Generation_1_1IDungeonProcedure__inherit__graph_org.svg" target="_base">
   <rect id="button" ry="5" rx="5" y="6" x="6" height="38" width="38"
        fill="#f2f5e9" fill-opacity="0.5" stroke="#606060" stroke-width="1.0"/>
   <path id="arrow"
     d="M 11.500037,31.436501 C 11.940474,20.09759 22.043105,11.32322 32.158766,21.979434 L 37.068811,17.246167 C 37.068811,17.246167 37.088388,32 37.088388,32 L 22.160133,31.978069 C 22.160133,31.978069 26.997745,27.140456 26.997745,27.140456 C 18.528582,18.264221 13.291696,25.230495 11.500037,31.436501 z"
     style="fill:#404040;"/>
  </a>
 </g>
</svg>

<style type='text/css'>
<![CDATA[
[data-mouse-over-selected='false'] { opacity: 0.7; }
[data-mouse-over-selected='true']  { opacity: 1.0; }
]]>
</style>
<script type="application/ecmascript"><![CDATA[
document.addEventListener('DOMContentLoaded', (event) => {
  highlightEdges();
  highlightAdjacentNodes();
});
]]></script>
</svg>
